  0
SECTION
  2
BLOCKS
  0
ENDSEC
  0
SECTION
  2
ENTITIES
  0
LINE
  8
0
 10
-165.1
 11
-165.1
 20
-30
 21
30
  0
LINE
  8
0
 10
-165.1
 11
165.1
 20
30
 21
30
  0
LINE
  8
0
 10
165.1
 11
165.1
 20
30
 21
-30
  0
LINE
  8
0
 10
165.1
 11
-165.1
 20
-30
 21
-30
  0
LINE
  8
0
 10
-155.575
 11
-155.558
 20
-12.7
 21
-12.368
  0
LINE
  8
0
 10
-155.558
 11
-155.506
 20
-12.368
 21
-12.04
  0
LINE
  8
0
 10
-155.506
 11
-155.42
 20
-12.04
 21
-11.719
  0
LINE
  8
0
 10
-155.42
 11
-155.301
 20
-11.719
 21
-11.409
  0
LINE
  8
0
 10
-155.301
 11
-155.15
 20
-11.409
 21
-11.113
  0
LINE
  8
0
 10
-155.15
 11
-154.969
 20
-11.113
 21
-10.834
  0
LINE
  8
0
 10
-154.969
 11
-154.759
 20
-10.834
 21
-10.576
  0
LINE
  8
0
 10
-154.759
 11
-154.524
 20
-10.576
 21
-10.341
  0
LINE
  8
0
 10
-154.524
 11
-154.266
 20
-10.341
 21
-10.131
  0
LINE
  8
0
 10
-154.266
 11
-153.987
 20
-10.131
 21
-9.95
  0
LINE
  8
0
 10
-153.987
 11
-153.691
 20
-9.95
 21
-9.799
  0
LINE
  8
0
 10
-153.691
 11
-153.381
 20
-9.799
 21
-9.68
  0
LINE
  8
0
 10
-153.381
 11
-153.06
 20
-9.68
 21
-9.594
  0
LINE
  8
0
 10
-153.06
 11
-152.732
 20
-9.594
 21
-9.542
  0
LINE
  8
0
 10
-152.732
 11
-152.4
 20
-9.542
 21
-9.525
  0
LINE
  8
0
 10
-152.4
 11
-152.068
 20
-9.525
 21
-9.542
  0
LINE
  8
0
 10
-152.068
 11
-151.74
 20
-9.542
 21
-9.594
  0
LINE
  8
0
 10
-151.74
 11
-151.419
 20
-9.594
 21
-9.68
  0
LINE
  8
0
 10
-151.419
 11
-151.109
 20
-9.68
 21
-9.799
  0
LINE
  8
0
 10
-151.109
 11
-150.813
 20
-9.799
 21
-9.95
  0
LINE
  8
0
 10
-150.813
 11
-150.534
 20
-9.95
 21
-10.131
  0
LINE
  8
0
 10
-150.534
 11
-150.276
 20
-10.131
 21
-10.341
  0
LINE
  8
0
 10
-150.276
 11
-150.041
 20
-10.341
 21
-10.576
  0
LINE
  8
0
 10
-150.041
 11
-149.831
 20
-10.576
 21
-10.834
  0
LINE
  8
0
 10
-149.831
 11
-149.65
 20
-10.834
 21
-11.113
  0
LINE
  8
0
 10
-149.65
 11
-149.499
 20
-11.113
 21
-11.409
  0
LINE
  8
0
 10
-149.499
 11
-149.38
 20
-11.409
 21
-11.719
  0
LINE
  8
0
 10
-149.38
 11
-149.294
 20
-11.719
 21
-12.04
  0
LINE
  8
0
 10
-149.294
 11
-149.242
 20
-12.04
 21
-12.368
  0
LINE
  8
0
 10
-149.242
 11
-149.225
 20
-12.368
 21
-12.7
  0
LINE
  8
0
 10
-149.225
 11
-149.242
 20
-12.7
 21
-13.032
  0
LINE
  8
0
 10
-149.242
 11
-149.294
 20
-13.032
 21
-13.36
  0
LINE
  8
0
 10
-149.294
 11
-149.38
 20
-13.36
 21
-13.681
  0
LINE
  8
0
 10
-149.38
 11
-149.499
 20
-13.681
 21
-13.991
  0
LINE
  8
0
 10
-149.499
 11
-149.65
 20
-13.991
 21
-14.287
  0
LINE
  8
0
 10
-149.65
 11
-149.831
 20
-14.287
 21
-14.566
  0
LINE
  8
0
 10
-149.831
 11
-150.041
 20
-14.566
 21
-14.824
  0
LINE
  8
0
 10
-150.041
 11
-150.276
 20
-14.824
 21
-15.059
  0
LINE
  8
0
 10
-150.276
 11
-150.534
 20
-15.059
 21
-15.269
  0
LINE
  8
0
 10
-150.534
 11
-150.813
 20
-15.269
 21
-15.45
  0
LINE
  8
0
 10
-150.813
 11
-151.109
 20
-15.45
 21
-15.601
  0
LINE
  8
0
 10
-151.109
 11
-151.419
 20
-15.601
 21
-15.72
  0
LINE
  8
0
 10
-151.419
 11
-151.74
 20
-15.72
 21
-15.806
  0
LINE
  8
0
 10
-151.74
 11
-152.068
 20
-15.806
 21
-15.858
  0
LINE
  8
0
 10
-152.068
 11
-152.4
 20
-15.858
 21
-15.875
  0
LINE
  8
0
 10
-152.4
 11
-152.732
 20
-15.875
 21
-15.858
  0
LINE
  8
0
 10
-152.732
 11
-153.06
 20
-15.858
 21
-15.806
  0
LINE
  8
0
 10
-153.06
 11
-153.381
 20
-15.806
 21
-15.72
  0
LINE
  8
0
 10
-153.381
 11
-153.691
 20
-15.72
 21
-15.601
  0
LINE
  8
0
 10
-153.691
 11
-153.987
 20
-15.601
 21
-15.45
  0
LINE
  8
0
 10
-153.987
 11
-154.266
 20
-15.45
 21
-15.269
  0
LINE
  8
0
 10
-154.266
 11
-154.524
 20
-15.269
 21
-15.059
  0
LINE
  8
0
 10
-154.524
 11
-154.759
 20
-15.059
 21
-14.824
  0
LINE
  8
0
 10
-154.759
 11
-154.969
 20
-14.824
 21
-14.566
  0
LINE
  8
0
 10
-154.969
 11
-155.15
 20
-14.566
 21
-14.287
  0
LINE
  8
0
 10
-155.15
 11
-155.301
 20
-14.287
 21
-13.991
  0
LINE
  8
0
 10
-155.301
 11
-155.42
 20
-13.991
 21
-13.681
  0
LINE
  8
0
 10
-155.42
 11
-155.506
 20
-13.681
 21
-13.36
  0
LINE
  8
0
 10
-155.506
 11
-155.558
 20
-13.36
 21
-13.032
  0
LINE
  8
0
 10
-155.558
 11
-155.575
 20
-13.032
 21
-12.7
  0
LINE
  8
0
 10
-155.575
 11
-155.558
 20
12.7
 21
13.032
  0
LINE
  8
0
 10
-155.558
 11
-155.506
 20
13.032
 21
13.36
  0
LINE
  8
0
 10
-155.506
 11
-155.42
 20
13.36
 21
13.681
  0
LINE
  8
0
 10
-155.42
 11
-155.301
 20
13.681
 21
13.991
  0
LINE
  8
0
 10
-155.301
 11
-155.15
 20
13.991
 21
14.287
  0
LINE
  8
0
 10
-155.15
 11
-154.969
 20
14.287
 21
14.566
  0
LINE
  8
0
 10
-154.969
 11
-154.759
 20
14.566
 21
14.824
  0
LINE
  8
0
 10
-154.759
 11
-154.524
 20
14.824
 21
15.059
  0
LINE
  8
0
 10
-154.524
 11
-154.266
 20
15.059
 21
15.269
  0
LINE
  8
0
 10
-154.266
 11
-153.987
 20
15.269
 21
15.45
  0
LINE
  8
0
 10
-153.987
 11
-153.691
 20
15.45
 21
15.601
  0
LINE
  8
0
 10
-153.691
 11
-153.381
 20
15.601
 21
15.72
  0
LINE
  8
0
 10
-153.381
 11
-153.06
 20
15.72
 21
15.806
  0
LINE
  8
0
 10
-153.06
 11
-152.732
 20
15.806
 21
15.858
  0
LINE
  8
0
 10
-152.732
 11
-152.4
 20
15.858
 21
15.875
  0
LINE
  8
0
 10
-152.4
 11
-152.068
 20
15.875
 21
15.858
  0
LINE
  8
0
 10
-152.068
 11
-151.74
 20
15.858
 21
15.806
  0
LINE
  8
0
 10
-151.74
 11
-151.419
 20
15.806
 21
15.72
  0
LINE
  8
0
 10
-151.419
 11
-151.109
 20
15.72
 21
15.601
  0
LINE
  8
0
 10
-151.109
 11
-150.813
 20
15.601
 21
15.45
  0
LINE
  8
0
 10
-150.813
 11
-150.534
 20
15.45
 21
15.269
  0
LINE
  8
0
 10
-150.534
 11
-150.276
 20
15.269
 21
15.059
  0
LINE
  8
0
 10
-150.276
 11
-150.041
 20
15.059
 21
14.824
  0
LINE
  8
0
 10
-150.041
 11
-149.831
 20
14.824
 21
14.566
  0
LINE
  8
0
 10
-149.831
 11
-149.65
 20
14.566
 21
14.287
  0
LINE
  8
0
 10
-149.65
 11
-149.499
 20
14.287
 21
13.991
  0
LINE
  8
0
 10
-149.499
 11
-149.38
 20
13.991
 21
13.681
  0
LINE
  8
0
 10
-149.38
 11
-149.294
 20
13.681
 21
13.36
  0
LINE
  8
0
 10
-149.294
 11
-149.242
 20
13.36
 21
13.032
  0
LINE
  8
0
 10
-149.242
 11
-149.225
 20
13.032
 21
12.7
  0
LINE
  8
0
 10
-149.225
 11
-149.242
 20
12.7
 21
12.368
  0
LINE
  8
0
 10
-149.242
 11
-149.294
 20
12.368
 21
12.04
  0
LINE
  8
0
 10
-149.294
 11
-149.38
 20
12.04
 21
11.719
  0
LINE
  8
0
 10
-149.38
 11
-149.499
 20
11.719
 21
11.409
  0
LINE
  8
0
 10
-149.499
 11
-149.65
 20
11.409
 21
11.113
  0
LINE
  8
0
 10
-149.65
 11
-149.831
 20
11.113
 21
10.834
  0
LINE
  8
0
 10
-149.831
 11
-150.041
 20
10.834
 21
10.576
  0
LINE
  8
0
 10
-150.041
 11
-150.276
 20
10.576
 21
10.341
  0
LINE
  8
0
 10
-150.276
 11
-150.534
 20
10.341
 21
10.131
  0
LINE
  8
0
 10
-150.534
 11
-150.813
 20
10.131
 21
9.95
  0
LINE
  8
0
 10
-150.813
 11
-151.109
 20
9.95
 21
9.799
  0
LINE
  8
0
 10
-151.109
 11
-151.419
 20
9.799
 21
9.68
  0
LINE
  8
0
 10
-151.419
 11
-151.74
 20
9.68
 21
9.594
  0
LINE
  8
0
 10
-151.74
 11
-152.068
 20
9.594
 21
9.542
  0
LINE
  8
0
 10
-152.068
 11
-152.4
 20
9.542
 21
9.525
  0
LINE
  8
0
 10
-152.4
 11
-152.732
 20
9.525
 21
9.542
  0
LINE
  8
0
 10
-152.732
 11
-153.06
 20
9.542
 21
9.594
  0
LINE
  8
0
 10
-153.06
 11
-153.381
 20
9.594
 21
9.68
  0
LINE
  8
0
 10
-153.381
 11
-153.691
 20
9.68
 21
9.799
  0
LINE
  8
0
 10
-153.691
 11
-153.987
 20
9.799
 21
9.95
  0
LINE
  8
0
 10
-153.987
 11
-154.266
 20
9.95
 21
10.131
  0
LINE
  8
0
 10
-154.266
 11
-154.524
 20
10.131
 21
10.341
  0
LINE
  8
0
 10
-154.524
 11
-154.759
 20
10.341
 21
10.576
  0
LINE
  8
0
 10
-154.759
 11
-154.969
 20
10.576
 21
10.834
  0
LINE
  8
0
 10
-154.969
 11
-155.15
 20
10.834
 21
11.113
  0
LINE
  8
0
 10
-155.15
 11
-155.301
 20
11.113
 21
11.409
  0
LINE
  8
0
 10
-155.301
 11
-155.42
 20
11.409
 21
11.719
  0
LINE
  8
0
 10
-155.42
 11
-155.506
 20
11.719
 21
12.04
  0
LINE
  8
0
 10
-155.506
 11
-155.558
 20
12.04
 21
12.368
  0
LINE
  8
0
 10
-155.558
 11
-155.575
 20
12.368
 21
12.7
  0
LINE
  8
0
 10
-115.5
 11
-115.484
 20
-12.5
 21
-12.186
  0
LINE
  8
0
 10
-115.484
 11
-115.434
 20
-12.186
 21
-11.876
  0
LINE
  8
0
 10
-115.434
 11
-115.353
 20
-11.876
 21
-11.573
  0
LINE
  8
0
 10
-115.353
 11
-115.241
 20
-11.573
 21
-11.28
  0
LINE
  8
0
 10
-115.241
 11
-115.098
 20
-11.28
 21
-11
  0
LINE
  8
0
 10
-115.098
 11
-114.927
 20
-11
 21
-10.737
  0
LINE
  8
0
 10
-114.927
 11
-114.729
 20
-10.737
 21
-10.493
  0
LINE
  8
0
 10
-114.729
 11
-114.507
 20
-10.493
 21
-10.271
  0
LINE
  8
0
 10
-114.507
 11
-114.263
 20
-10.271
 21
-10.073
  0
LINE
  8
0
 10
-114.263
 11
-114
 20
-10.073
 21
-9.902
  0
LINE
  8
0
 10
-114
 11
-113.72
 20
-9.902
 21
-9.759
  0
LINE
  8
0
 10
-113.72
 11
-113.427
 20
-9.759
 21
-9.647
  0
LINE
  8
0
 10
-113.427
 11
-113.124
 20
-9.647
 21
-9.566
  0
LINE
  8
0
 10
-113.124
 11
-112.814
 20
-9.566
 21
-9.516
  0
LINE
  8
0
 10
-112.814
 11
-112.5
 20
-9.516
 21
-9.5
  0
LINE
  8
0
 10
-112.5
 11
-112.186
 20
-9.5
 21
-9.516
  0
LINE
  8
0
 10
-112.186
 11
-111.876
 20
-9.516
 21
-9.566
  0
LINE
  8
0
 10
-111.876
 11
-111.573
 20
-9.566
 21
-9.647
  0
LINE
  8
0
 10
-111.573
 11
-111.28
 20
-9.647
 21
-9.759
  0
LINE
  8
0
 10
-111.28
 11
-111
 20
-9.759
 21
-9.902
  0
LINE
  8
0
 10
-111
 11
-110.737
 20
-9.902
 21
-10.073
  0
LINE
  8
0
 10
-110.737
 11
-110.493
 20
-10.073
 21
-10.271
  0
LINE
  8
0
 10
-110.493
 11
-110.271
 20
-10.271
 21
-10.493
  0
LINE
  8
0
 10
-110.271
 11
-110.073
 20
-10.493
 21
-10.737
  0
LINE
  8
0
 10
-110.073
 11
-109.902
 20
-10.737
 21
-11
  0
LINE
  8
0
 10
-109.902
 11
-109.759
 20
-11
 21
-11.28
  0
LINE
  8
0
 10
-109.759
 11
-109.647
 20
-11.28
 21
-11.573
  0
LINE
  8
0
 10
-109.647
 11
-109.566
 20
-11.573
 21
-11.876
  0
LINE
  8
0
 10
-109.566
 11
-109.516
 20
-11.876
 21
-12.186
  0
LINE
  8
0
 10
-109.516
 11
-109.5
 20
-12.186
 21
-12.5
  0
LINE
  8
0
 10
-109.5
 11
-109.516
 20
-12.5
 21
-12.814
  0
LINE
  8
0
 10
-109.516
 11
-109.566
 20
-12.814
 21
-13.124
  0
LINE
  8
0
 10
-109.566
 11
-109.647
 20
-13.124
 21
-13.427
  0
LINE
  8
0
 10
-109.647
 11
-109.759
 20
-13.427
 21
-13.72
  0
LINE
  8
0
 10
-109.759
 11
-109.902
 20
-13.72
 21
-14
  0
LINE
  8
0
 10
-109.902
 11
-110.073
 20
-14
 21
-14.263
  0
LINE
  8
0
 10
-110.073
 11
-110.271
 20
-14.263
 21
-14.507
  0
LINE
  8
0
 10
-110.271
 11
-110.493
 20
-14.507
 21
-14.729
  0
LINE
  8
0
 10
-110.493
 11
-110.737
 20
-14.729
 21
-14.927
  0
LINE
  8
0
 10
-110.737
 11
-111
 20
-14.927
 21
-15.098
  0
LINE
  8
0
 10
-111
 11
-111.28
 20
-15.098
 21
-15.241
  0
LINE
  8
0
 10
-111.28
 11
-111.573
 20
-15.241
 21
-15.353
  0
LINE
  8
0
 10
-111.573
 11
-111.876
 20
-15.353
 21
-15.434
  0
LINE
  8
0
 10
-111.876
 11
-112.186
 20
-15.434
 21
-15.484
  0
LINE
  8
0
 10
-112.186
 11
-112.5
 20
-15.484
 21
-15.5
  0
LINE
  8
0
 10
-112.5
 11
-112.814
 20
-15.5
 21
-15.484
  0
LINE
  8
0
 10
-112.814
 11
-113.124
 20
-15.484
 21
-15.434
  0
LINE
  8
0
 10
-113.124
 11
-113.427
 20
-15.434
 21
-15.353
  0
LINE
  8
0
 10
-113.427
 11
-113.72
 20
-15.353
 21
-15.241
  0
LINE
  8
0
 10
-113.72
 11
-114
 20
-15.241
 21
-15.098
  0
LINE
  8
0
 10
-114
 11
-114.263
 20
-15.098
 21
-14.927
  0
LINE
  8
0
 10
-114.263
 11
-114.507
 20
-14.927
 21
-14.729
  0
LINE
  8
0
 10
-114.507
 11
-114.729
 20
-14.729
 21
-14.507
  0
LINE
  8
0
 10
-114.729
 11
-114.927
 20
-14.507
 21
-14.263
  0
LINE
  8
0
 10
-114.927
 11
-115.098
 20
-14.263
 21
-14
  0
LINE
  8
0
 10
-115.098
 11
-115.241
 20
-14
 21
-13.72
  0
LINE
  8
0
 10
-115.241
 11
-115.353
 20
-13.72
 21
-13.427
  0
LINE
  8
0
 10
-115.353
 11
-115.434
 20
-13.427
 21
-13.124
  0
LINE
  8
0
 10
-115.434
 11
-115.484
 20
-13.124
 21
-12.814
  0
LINE
  8
0
 10
-115.484
 11
-115.5
 20
-12.814
 21
-12.5
  0
LINE
  8
0
 10
-115.5
 11
-115.484
 20
12.5
 21
12.814
  0
LINE
  8
0
 10
-115.484
 11
-115.434
 20
12.814
 21
13.124
  0
LINE
  8
0
 10
-115.434
 11
-115.353
 20
13.124
 21
13.427
  0
LINE
  8
0
 10
-115.353
 11
-115.241
 20
13.427
 21
13.72
  0
LINE
  8
0
 10
-115.241
 11
-115.098
 20
13.72
 21
14
  0
LINE
  8
0
 10
-115.098
 11
-114.927
 20
14
 21
14.263
  0
LINE
  8
0
 10
-114.927
 11
-114.729
 20
14.263
 21
14.507
  0
LINE
  8
0
 10
-114.729
 11
-114.507
 20
14.507
 21
14.729
  0
LINE
  8
0
 10
-114.507
 11
-114.263
 20
14.729
 21
14.927
  0
LINE
  8
0
 10
-114.263
 11
-114
 20
14.927
 21
15.098
  0
LINE
  8
0
 10
-114
 11
-113.72
 20
15.098
 21
15.241
  0
LINE
  8
0
 10
-113.72
 11
-113.427
 20
15.241
 21
15.353
  0
LINE
  8
0
 10
-113.427
 11
-113.124
 20
15.353
 21
15.434
  0
LINE
  8
0
 10
-113.124
 11
-112.814
 20
15.434
 21
15.484
  0
LINE
  8
0
 10
-112.814
 11
-112.5
 20
15.484
 21
15.5
  0
LINE
  8
0
 10
-112.5
 11
-112.186
 20
15.5
 21
15.484
  0
LINE
  8
0
 10
-112.186
 11
-111.876
 20
15.484
 21
15.434
  0
LINE
  8
0
 10
-111.876
 11
-111.573
 20
15.434
 21
15.353
  0
LINE
  8
0
 10
-111.573
 11
-111.28
 20
15.353
 21
15.241
  0
LINE
  8
0
 10
-111.28
 11
-111
 20
15.241
 21
15.098
  0
LINE
  8
0
 10
-111
 11
-110.737
 20
15.098
 21
14.927
  0
LINE
  8
0
 10
-110.737
 11
-110.493
 20
14.927
 21
14.729
  0
LINE
  8
0
 10
-110.493
 11
-110.271
 20
14.729
 21
14.507
  0
LINE
  8
0
 10
-110.271
 11
-110.073
 20
14.507
 21
14.263
  0
LINE
  8
0
 10
-110.073
 11
-109.902
 20
14.263
 21
14
  0
LINE
  8
0
 10
-109.902
 11
-109.759
 20
14
 21
13.72
  0
LINE
  8
0
 10
-109.759
 11
-109.647
 20
13.72
 21
13.427
  0
LINE
  8
0
 10
-109.647
 11
-109.566
 20
13.427
 21
13.124
  0
LINE
  8
0
 10
-109.566
 11
-109.516
 20
13.124
 21
12.814
  0
LINE
  8
0
 10
-109.516
 11
-109.5
 20
12.814
 21
12.5
  0
LINE
  8
0
 10
-109.5
 11
-109.516
 20
12.5
 21
12.186
  0
LINE
  8
0
 10
-109.516
 11
-109.566
 20
12.186
 21
11.876
  0
LINE
  8
0
 10
-109.566
 11
-109.647
 20
11.876
 21
11.573
  0
LINE
  8
0
 10
-109.647
 11
-109.759
 20
11.573
 21
11.28
  0
LINE
  8
0
 10
-109.759
 11
-109.902
 20
11.28
 21
11
  0
LINE
  8
0
 10
-109.902
 11
-110.073
 20
11
 21
10.737
  0
LINE
  8
0
 10
-110.073
 11
-110.271
 20
10.737
 21
10.493
  0
LINE
  8
0
 10
-110.271
 11
-110.493
 20
10.493
 21
10.271
  0
LINE
  8
0
 10
-110.493
 11
-110.737
 20
10.271
 21
10.073
  0
LINE
  8
0
 10
-110.737
 11
-111
 20
10.073
 21
9.902
  0
LINE
  8
0
 10
-111
 11
-111.28
 20
9.902
 21
9.759
  0
LINE
  8
0
 10
-111.28
 11
-111.573
 20
9.759
 21
9.647
  0
LINE
  8
0
 10
-111.573
 11
-111.876
 20
9.647
 21
9.566
  0
LINE
  8
0
 10
-111.876
 11
-112.186
 20
9.566
 21
9.516
  0
LINE
  8
0
 10
-112.186
 11
-112.5
 20
9.516
 21
9.5
  0
LINE
  8
0
 10
-112.5
 11
-112.814
 20
9.5
 21
9.516
  0
LINE
  8
0
 10
-112.814
 11
-113.124
 20
9.516
 21
9.566
  0
LINE
  8
0
 10
-113.124
 11
-113.427
 20
9.566
 21
9.647
  0
LINE
  8
0
 10
-113.427
 11
-113.72
 20
9.647
 21
9.759
  0
LINE
  8
0
 10
-113.72
 11
-114
 20
9.759
 21
9.902
  0
LINE
  8
0
 10
-114
 11
-114.263
 20
9.902
 21
10.073
  0
LINE
  8
0
 10
-114.263
 11
-114.507
 20
10.073
 21
10.271
  0
LINE
  8
0
 10
-114.507
 11
-114.729
 20
10.271
 21
10.493
  0
LINE
  8
0
 10
-114.729
 11
-114.927
 20
10.493
 21
10.737
  0
LINE
  8
0
 10
-114.927
 11
-115.098
 20
10.737
 21
11
  0
LINE
  8
0
 10
-115.098
 11
-115.241
 20
11
 21
11.28
  0
LINE
  8
0
 10
-115.241
 11
-115.353
 20
11.28
 21
11.573
  0
LINE
  8
0
 10
-115.353
 11
-115.434
 20
11.573
 21
11.876
  0
LINE
  8
0
 10
-115.434
 11
-115.484
 20
11.876
 21
12.186
  0
LINE
  8
0
 10
-115.484
 11
-115.5
 20
12.186
 21
12.5
  0
LINE
  8
0
 10
-103
 11
-102.984
 20
0
 21
0.314
  0
LINE
  8
0
 10
-102.984
 11
-102.934
 20
0.314
 21
0.624
  0
LINE
  8
0
 10
-102.934
 11
-102.853
 20
0.624
 21
0.927
  0
LINE
  8
0
 10
-102.853
 11
-102.741
 20
0.927
 21
1.22
  0
LINE
  8
0
 10
-102.741
 11
-102.598
 20
1.22
 21
1.5
  0
LINE
  8
0
 10
-102.598
 11
-102.427
 20
1.5
 21
1.763
  0
LINE
  8
0
 10
-102.427
 11
-102.229
 20
1.763
 21
2.007
  0
LINE
  8
0
 10
-102.229
 11
-102.007
 20
2.007
 21
2.229
  0
LINE
  8
0
 10
-102.007
 11
-101.763
 20
2.229
 21
2.427
  0
LINE
  8
0
 10
-101.763
 11
-101.5
 20
2.427
 21
2.598
  0
LINE
  8
0
 10
-101.5
 11
-101.22
 20
2.598
 21
2.741
  0
LINE
  8
0
 10
-101.22
 11
-100.927
 20
2.741
 21
2.853
  0
LINE
  8
0
 10
-100.927
 11
-100.624
 20
2.853
 21
2.934
  0
LINE
  8
0
 10
-100.624
 11
-100.314
 20
2.934
 21
2.984
  0
LINE
  8
0
 10
-100.314
 11
-100
 20
2.984
 21
3
  0
LINE
  8
0
 10
-100
 11
-99.686
 20
3
 21
2.984
  0
LINE
  8
0
 10
-99.686
 11
-99.376
 20
2.984
 21
2.934
  0
LINE
  8
0
 10
-99.376
 11
-99.073
 20
2.934
 21
2.853
  0
LINE
  8
0
 10
-99.073
 11
-98.78
 20
2.853
 21
2.741
  0
LINE
  8
0
 10
-98.78
 11
-98.5
 20
2.741
 21
2.598
  0
LINE
  8
0
 10
-98.5
 11
-98.237
 20
2.598
 21
2.427
  0
LINE
  8
0
 10
-98.237
 11
-97.993
 20
2.427
 21
2.229
  0
LINE
  8
0
 10
-97.993
 11
-97.771
 20
2.229
 21
2.007
  0
LINE
  8
0
 10
-97.771
 11
-97.573
 20
2.007
 21
1.763
  0
LINE
  8
0
 10
-97.573
 11
-97.402
 20
1.763
 21
1.5
  0
LINE
  8
0
 10
-97.402
 11
-97.259
 20
1.5
 21
1.22
  0
LINE
  8
0
 10
-97.259
 11
-97.147
 20
1.22
 21
0.927
  0
LINE
  8
0
 10
-97.147
 11
-97.066
 20
0.927
 21
0.624
  0
LINE
  8
0
 10
-97.066
 11
-97.016
 20
0.624
 21
0.314
  0
LINE
  8
0
 10
-97.016
 11
-97
 20
0.314
 21
0
  0
LINE
  8
0
 10
-97
 11
-97.016
 20
0
 21
-0.314
  0
LINE
  8
0
 10
-97.016
 11
-97.066
 20
-0.314
 21
-0.624
  0
LINE
  8
0
 10
-97.066
 11
-97.147
 20
-0.624
 21
-0.927
  0
LINE
  8
0
 10
-97.147
 11
-97.259
 20
-0.927
 21
-1.22
  0
LINE
  8
0
 10
-97.259
 11
-97.402
 20
-1.22
 21
-1.5
  0
LINE
  8
0
 10
-97.402
 11
-97.573
 20
-1.5
 21
-1.763
  0
LINE
  8
0
 10
-97.573
 11
-97.771
 20
-1.763
 21
-2.007
  0
LINE
  8
0
 10
-97.771
 11
-97.993
 20
-2.007
 21
-2.229
  0
LINE
  8
0
 10
-97.993
 11
-98.237
 20
-2.229
 21
-2.427
  0
LINE
  8
0
 10
-98.237
 11
-98.5
 20
-2.427
 21
-2.598
  0
LINE
  8
0
 10
-98.5
 11
-98.78
 20
-2.598
 21
-2.741
  0
LINE
  8
0
 10
-98.78
 11
-99.073
 20
-2.741
 21
-2.853
  0
LINE
  8
0
 10
-99.073
 11
-99.376
 20
-2.853
 21
-2.934
  0
LINE
  8
0
 10
-99.376
 11
-99.686
 20
-2.934
 21
-2.984
  0
LINE
  8
0
 10
-99.686
 11
-100
 20
-2.984
 21
-3
  0
LINE
  8
0
 10
-100
 11
-100.314
 20
-3
 21
-2.984
  0
LINE
  8
0
 10
-100.314
 11
-100.624
 20
-2.984
 21
-2.934
  0
LINE
  8
0
 10
-100.624
 11
-100.927
 20
-2.934
 21
-2.853
  0
LINE
  8
0
 10
-100.927
 11
-101.22
 20
-2.853
 21
-2.741
  0
LINE
  8
0
 10
-101.22
 11
-101.5
 20
-2.741
 21
-2.598
  0
LINE
  8
0
 10
-101.5
 11
-101.763
 20
-2.598
 21
-2.427
  0
LINE
  8
0
 10
-101.763
 11
-102.007
 20
-2.427
 21
-2.229
  0
LINE
  8
0
 10
-102.007
 11
-102.229
 20
-2.229
 21
-2.007
  0
LINE
  8
0
 10
-102.229
 11
-102.427
 20
-2.007
 21
-1.763
  0
LINE
  8
0
 10
-102.427
 11
-102.598
 20
-1.763
 21
-1.5
  0
LINE
  8
0
 10
-102.598
 11
-102.741
 20
-1.5
 21
-1.22
  0
LINE
  8
0
 10
-102.741
 11
-102.853
 20
-1.22
 21
-0.927
  0
LINE
  8
0
 10
-102.853
 11
-102.934
 20
-0.927
 21
-0.624
  0
LINE
  8
0
 10
-102.934
 11
-102.984
 20
-0.624
 21
-0.314
  0
LINE
  8
0
 10
-102.984
 11
-103
 20
-0.314
 21
0
  0
LINE
  8
0
 10
-90.5
 11
-90.484
 20
-12.5
 21
-12.186
  0
LINE
  8
0
 10
-90.484
 11
-90.434
 20
-12.186
 21
-11.876
  0
LINE
  8
0
 10
-90.434
 11
-90.353
 20
-11.876
 21
-11.573
  0
LINE
  8
0
 10
-90.353
 11
-90.241
 20
-11.573
 21
-11.28
  0
LINE
  8
0
 10
-90.241
 11
-90.098
 20
-11.28
 21
-11
  0
LINE
  8
0
 10
-90.098
 11
-89.927
 20
-11
 21
-10.737
  0
LINE
  8
0
 10
-89.927
 11
-89.729
 20
-10.737
 21
-10.493
  0
LINE
  8
0
 10
-89.729
 11
-89.507
 20
-10.493
 21
-10.271
  0
LINE
  8
0
 10
-89.507
 11
-89.263
 20
-10.271
 21
-10.073
  0
LINE
  8
0
 10
-89.263
 11
-89
 20
-10.073
 21
-9.902
  0
LINE
  8
0
 10
-89
 11
-88.72
 20
-9.902
 21
-9.759
  0
LINE
  8
0
 10
-88.72
 11
-88.427
 20
-9.759
 21
-9.647
  0
LINE
  8
0
 10
-88.427
 11
-88.124
 20
-9.647
 21
-9.566
  0
LINE
  8
0
 10
-88.124
 11
-87.814
 20
-9.566
 21
-9.516
  0
LINE
  8
0
 10
-87.814
 11
-87.5
 20
-9.516
 21
-9.5
  0
LINE
  8
0
 10
-87.5
 11
-87.186
 20
-9.5
 21
-9.516
  0
LINE
  8
0
 10
-87.186
 11
-86.876
 20
-9.516
 21
-9.566
  0
LINE
  8
0
 10
-86.876
 11
-86.573
 20
-9.566
 21
-9.647
  0
LINE
  8
0
 10
-86.573
 11
-86.28
 20
-9.647
 21
-9.759
  0
LINE
  8
0
 10
-86.28
 11
-86
 20
-9.759
 21
-9.902
  0
LINE
  8
0
 10
-86
 11
-85.737
 20
-9.902
 21
-10.073
  0
LINE
  8
0
 10
-85.737
 11
-85.493
 20
-10.073
 21
-10.271
  0
LINE
  8
0
 10
-85.493
 11
-85.271
 20
-10.271
 21
-10.493
  0
LINE
  8
0
 10
-85.271
 11
-85.073
 20
-10.493
 21
-10.737
  0
LINE
  8
0
 10
-85.073
 11
-84.902
 20
-10.737
 21
-11
  0
LINE
  8
0
 10
-84.902
 11
-84.759
 20
-11
 21
-11.28
  0
LINE
  8
0
 10
-84.759
 11
-84.647
 20
-11.28
 21
-11.573
  0
LINE
  8
0
 10
-84.647
 11
-84.566
 20
-11.573
 21
-11.876
  0
LINE
  8
0
 10
-84.566
 11
-84.516
 20
-11.876
 21
-12.186
  0
LINE
  8
0
 10
-84.516
 11
-84.5
 20
-12.186
 21
-12.5
  0
LINE
  8
0
 10
-84.5
 11
-84.516
 20
-12.5
 21
-12.814
  0
LINE
  8
0
 10
-84.516
 11
-84.566
 20
-12.814
 21
-13.124
  0
LINE
  8
0
 10
-84.566
 11
-84.647
 20
-13.124
 21
-13.427
  0
LINE
  8
0
 10
-84.647
 11
-84.759
 20
-13.427
 21
-13.72
  0
LINE
  8
0
 10
-84.759
 11
-84.902
 20
-13.72
 21
-14
  0
LINE
  8
0
 10
-84.902
 11
-85.073
 20
-14
 21
-14.263
  0
LINE
  8
0
 10
-85.073
 11
-85.271
 20
-14.263
 21
-14.507
  0
LINE
  8
0
 10
-85.271
 11
-85.493
 20
-14.507
 21
-14.729
  0
LINE
  8
0
 10
-85.493
 11
-85.737
 20
-14.729
 21
-14.927
  0
LINE
  8
0
 10
-85.737
 11
-86
 20
-14.927
 21
-15.098
  0
LINE
  8
0
 10
-86
 11
-86.28
 20
-15.098
 21
-15.241
  0
LINE
  8
0
 10
-86.28
 11
-86.573
 20
-15.241
 21
-15.353
  0
LINE
  8
0
 10
-86.573
 11
-86.876
 20
-15.353
 21
-15.434
  0
LINE
  8
0
 10
-86.876
 11
-87.186
 20
-15.434
 21
-15.484
  0
LINE
  8
0
 10
-87.186
 11
-87.5
 20
-15.484
 21
-15.5
  0
LINE
  8
0
 10
-87.5
 11
-87.814
 20
-15.5
 21
-15.484
  0
LINE
  8
0
 10
-87.814
 11
-88.124
 20
-15.484
 21
-15.434
  0
LINE
  8
0
 10
-88.124
 11
-88.427
 20
-15.434
 21
-15.353
  0
LINE
  8
0
 10
-88.427
 11
-88.72
 20
-15.353
 21
-15.241
  0
LINE
  8
0
 10
-88.72
 11
-89
 20
-15.241
 21
-15.098
  0
LINE
  8
0
 10
-89
 11
-89.263
 20
-15.098
 21
-14.927
  0
LINE
  8
0
 10
-89.263
 11
-89.507
 20
-14.927
 21
-14.729
  0
LINE
  8
0
 10
-89.507
 11
-89.729
 20
-14.729
 21
-14.507
  0
LINE
  8
0
 10
-89.729
 11
-89.927
 20
-14.507
 21
-14.263
  0
LINE
  8
0
 10
-89.927
 11
-90.098
 20
-14.263
 21
-14
  0
LINE
  8
0
 10
-90.098
 11
-90.241
 20
-14
 21
-13.72
  0
LINE
  8
0
 10
-90.241
 11
-90.353
 20
-13.72
 21
-13.427
  0
LINE
  8
0
 10
-90.353
 11
-90.434
 20
-13.427
 21
-13.124
  0
LINE
  8
0
 10
-90.434
 11
-90.484
 20
-13.124
 21
-12.814
  0
LINE
  8
0
 10
-90.484
 11
-90.5
 20
-12.814
 21
-12.5
  0
LINE
  8
0
 10
-90.5
 11
-90.484
 20
12.5
 21
12.814
  0
LINE
  8
0
 10
-90.484
 11
-90.434
 20
12.814
 21
13.124
  0
LINE
  8
0
 10
-90.434
 11
-90.353
 20
13.124
 21
13.427
  0
LINE
  8
0
 10
-90.353
 11
-90.241
 20
13.427
 21
13.72
  0
LINE
  8
0
 10
-90.241
 11
-90.098
 20
13.72
 21
14
  0
LINE
  8
0
 10
-90.098
 11
-89.927
 20
14
 21
14.263
  0
LINE
  8
0
 10
-89.927
 11
-89.729
 20
14.263
 21
14.507
  0
LINE
  8
0
 10
-89.729
 11
-89.507
 20
14.507
 21
14.729
  0
LINE
  8
0
 10
-89.507
 11
-89.263
 20
14.729
 21
14.927
  0
LINE
  8
0
 10
-89.263
 11
-89
 20
14.927
 21
15.098
  0
LINE
  8
0
 10
-89
 11
-88.72
 20
15.098
 21
15.241
  0
LINE
  8
0
 10
-88.72
 11
-88.427
 20
15.241
 21
15.353
  0
LINE
  8
0
 10
-88.427
 11
-88.124
 20
15.353
 21
15.434
  0
LINE
  8
0
 10
-88.124
 11
-87.814
 20
15.434
 21
15.484
  0
LINE
  8
0
 10
-87.814
 11
-87.5
 20
15.484
 21
15.5
  0
LINE
  8
0
 10
-87.5
 11
-87.186
 20
15.5
 21
15.484
  0
LINE
  8
0
 10
-87.186
 11
-86.876
 20
15.484
 21
15.434
  0
LINE
  8
0
 10
-86.876
 11
-86.573
 20
15.434
 21
15.353
  0
LINE
  8
0
 10
-86.573
 11
-86.28
 20
15.353
 21
15.241
  0
LINE
  8
0
 10
-86.28
 11
-86
 20
15.241
 21
15.098
  0
LINE
  8
0
 10
-86
 11
-85.737
 20
15.098
 21
14.927
  0
LINE
  8
0
 10
-85.737
 11
-85.493
 20
14.927
 21
14.729
  0
LINE
  8
0
 10
-85.493
 11
-85.271
 20
14.729
 21
14.507
  0
LINE
  8
0
 10
-85.271
 11
-85.073
 20
14.507
 21
14.263
  0
LINE
  8
0
 10
-85.073
 11
-84.902
 20
14.263
 21
14
  0
LINE
  8
0
 10
-84.902
 11
-84.759
 20
14
 21
13.72
  0
LINE
  8
0
 10
-84.759
 11
-84.647
 20
13.72
 21
13.427
  0
LINE
  8
0
 10
-84.647
 11
-84.566
 20
13.427
 21
13.124
  0
LINE
  8
0
 10
-84.566
 11
-84.516
 20
13.124
 21
12.814
  0
LINE
  8
0
 10
-84.516
 11
-84.5
 20
12.814
 21
12.5
  0
LINE
  8
0
 10
-84.5
 11
-84.516
 20
12.5
 21
12.186
  0
LINE
  8
0
 10
-84.516
 11
-84.566
 20
12.186
 21
11.876
  0
LINE
  8
0
 10
-84.566
 11
-84.647
 20
11.876
 21
11.573
  0
LINE
  8
0
 10
-84.647
 11
-84.759
 20
11.573
 21
11.28
  0
LINE
  8
0
 10
-84.759
 11
-84.902
 20
11.28
 21
11
  0
LINE
  8
0
 10
-84.902
 11
-85.073
 20
11
 21
10.737
  0
LINE
  8
0
 10
-85.073
 11
-85.271
 20
10.737
 21
10.493
  0
LINE
  8
0
 10
-85.271
 11
-85.493
 20
10.493
 21
10.271
  0
LINE
  8
0
 10
-85.493
 11
-85.737
 20
10.271
 21
10.073
  0
LINE
  8
0
 10
-85.737
 11
-86
 20
10.073
 21
9.902
  0
LINE
  8
0
 10
-86
 11
-86.28
 20
9.902
 21
9.759
  0
LINE
  8
0
 10
-86.28
 11
-86.573
 20
9.759
 21
9.647
  0
LINE
  8
0
 10
-86.573
 11
-86.876
 20
9.647
 21
9.566
  0
LINE
  8
0
 10
-86.876
 11
-87.186
 20
9.566
 21
9.516
  0
LINE
  8
0
 10
-87.186
 11
-87.5
 20
9.516
 21
9.5
  0
LINE
  8
0
 10
-87.5
 11
-87.814
 20
9.5
 21
9.516
  0
LINE
  8
0
 10
-87.814
 11
-88.124
 20
9.516
 21
9.566
  0
LINE
  8
0
 10
-88.124
 11
-88.427
 20
9.566
 21
9.647
  0
LINE
  8
0
 10
-88.427
 11
-88.72
 20
9.647
 21
9.759
  0
LINE
  8
0
 10
-88.72
 11
-89
 20
9.759
 21
9.902
  0
LINE
  8
0
 10
-89
 11
-89.263
 20
9.902
 21
10.073
  0
LINE
  8
0
 10
-89.263
 11
-89.507
 20
10.073
 21
10.271
  0
LINE
  8
0
 10
-89.507
 11
-89.729
 20
10.271
 21
10.493
  0
LINE
  8
0
 10
-89.729
 11
-89.927
 20
10.493
 21
10.737
  0
LINE
  8
0
 10
-89.927
 11
-90.098
 20
10.737
 21
11
  0
LINE
  8
0
 10
-90.098
 11
-90.241
 20
11
 21
11.28
  0
LINE
  8
0
 10
-90.241
 11
-90.353
 20
11.28
 21
11.573
  0
LINE
  8
0
 10
-90.353
 11
-90.434
 20
11.573
 21
11.876
  0
LINE
  8
0
 10
-90.434
 11
-90.484
 20
11.876
 21
12.186
  0
LINE
  8
0
 10
-90.484
 11
-90.5
 20
12.186
 21
12.5
  0
LINE
  8
0
 10
84.5
 11
84.516
 20
-12.5
 21
-12.186
  0
LINE
  8
0
 10
84.516
 11
84.566
 20
-12.186
 21
-11.876
  0
LINE
  8
0
 10
84.566
 11
84.647
 20
-11.876
 21
-11.573
  0
LINE
  8
0
 10
84.647
 11
84.759
 20
-11.573
 21
-11.28
  0
LINE
  8
0
 10
84.759
 11
84.902
 20
-11.28
 21
-11
  0
LINE
  8
0
 10
84.902
 11
85.073
 20
-11
 21
-10.737
  0
LINE
  8
0
 10
85.073
 11
85.271
 20
-10.737
 21
-10.493
  0
LINE
  8
0
 10
85.271
 11
85.493
 20
-10.493
 21
-10.271
  0
LINE
  8
0
 10
85.493
 11
85.737
 20
-10.271
 21
-10.073
  0
LINE
  8
0
 10
85.737
 11
86
 20
-10.073
 21
-9.902
  0
LINE
  8
0
 10
86
 11
86.28
 20
-9.902
 21
-9.759
  0
LINE
  8
0
 10
86.28
 11
86.573
 20
-9.759
 21
-9.647
  0
LINE
  8
0
 10
86.573
 11
86.876
 20
-9.647
 21
-9.566
  0
LINE
  8
0
 10
86.876
 11
87.186
 20
-9.566
 21
-9.516
  0
LINE
  8
0
 10
87.186
 11
87.5
 20
-9.516
 21
-9.5
  0
LINE
  8
0
 10
87.5
 11
87.814
 20
-9.5
 21
-9.516
  0
LINE
  8
0
 10
87.814
 11
88.124
 20
-9.516
 21
-9.566
  0
LINE
  8
0
 10
88.124
 11
88.427
 20
-9.566
 21
-9.647
  0
LINE
  8
0
 10
88.427
 11
88.72
 20
-9.647
 21
-9.759
  0
LINE
  8
0
 10
88.72
 11
89
 20
-9.759
 21
-9.902
  0
LINE
  8
0
 10
89
 11
89.263
 20
-9.902
 21
-10.073
  0
LINE
  8
0
 10
89.263
 11
89.507
 20
-10.073
 21
-10.271
  0
LINE
  8
0
 10
89.507
 11
89.729
 20
-10.271
 21
-10.493
  0
LINE
  8
0
 10
89.729
 11
89.927
 20
-10.493
 21
-10.737
  0
LINE
  8
0
 10
89.927
 11
90.098
 20
-10.737
 21
-11
  0
LINE
  8
0
 10
90.098
 11
90.241
 20
-11
 21
-11.28
  0
LINE
  8
0
 10
90.241
 11
90.353
 20
-11.28
 21
-11.573
  0
LINE
  8
0
 10
90.353
 11
90.434
 20
-11.573
 21
-11.876
  0
LINE
  8
0
 10
90.434
 11
90.484
 20
-11.876
 21
-12.186
  0
LINE
  8
0
 10
90.484
 11
90.5
 20
-12.186
 21
-12.5
  0
LINE
  8
0
 10
90.5
 11
90.484
 20
-12.5
 21
-12.814
  0
LINE
  8
0
 10
90.484
 11
90.434
 20
-12.814
 21
-13.124
  0
LINE
  8
0
 10
90.434
 11
90.353
 20
-13.124
 21
-13.427
  0
LINE
  8
0
 10
90.353
 11
90.241
 20
-13.427
 21
-13.72
  0
LINE
  8
0
 10
90.241
 11
90.098
 20
-13.72
 21
-14
  0
LINE
  8
0
 10
90.098
 11
89.927
 20
-14
 21
-14.263
  0
LINE
  8
0
 10
89.927
 11
89.729
 20
-14.263
 21
-14.507
  0
LINE
  8
0
 10
89.729
 11
89.507
 20
-14.507
 21
-14.729
  0
LINE
  8
0
 10
89.507
 11
89.263
 20
-14.729
 21
-14.927
  0
LINE
  8
0
 10
89.263
 11
89
 20
-14.927
 21
-15.098
  0
LINE
  8
0
 10
89
 11
88.72
 20
-15.098
 21
-15.241
  0
LINE
  8
0
 10
88.72
 11
88.427
 20
-15.241
 21
-15.353
  0
LINE
  8
0
 10
88.427
 11
88.124
 20
-15.353
 21
-15.434
  0
LINE
  8
0
 10
88.124
 11
87.814
 20
-15.434
 21
-15.484
  0
LINE
  8
0
 10
87.814
 11
87.5
 20
-15.484
 21
-15.5
  0
LINE
  8
0
 10
87.5
 11
87.186
 20
-15.5
 21
-15.484
  0
LINE
  8
0
 10
87.186
 11
86.876
 20
-15.484
 21
-15.434
  0
LINE
  8
0
 10
86.876
 11
86.573
 20
-15.434
 21
-15.353
  0
LINE
  8
0
 10
86.573
 11
86.28
 20
-15.353
 21
-15.241
  0
LINE
  8
0
 10
86.28
 11
86
 20
-15.241
 21
-15.098
  0
LINE
  8
0
 10
86
 11
85.737
 20
-15.098
 21
-14.927
  0
LINE
  8
0
 10
85.737
 11
85.493
 20
-14.927
 21
-14.729
  0
LINE
  8
0
 10
85.493
 11
85.271
 20
-14.729
 21
-14.507
  0
LINE
  8
0
 10
85.271
 11
85.073
 20
-14.507
 21
-14.263
  0
LINE
  8
0
 10
85.073
 11
84.902
 20
-14.263
 21
-14
  0
LINE
  8
0
 10
84.902
 11
84.759
 20
-14
 21
-13.72
  0
LINE
  8
0
 10
84.759
 11
84.647
 20
-13.72
 21
-13.427
  0
LINE
  8
0
 10
84.647
 11
84.566
 20
-13.427
 21
-13.124
  0
LINE
  8
0
 10
84.566
 11
84.516
 20
-13.124
 21
-12.814
  0
LINE
  8
0
 10
84.516
 11
84.5
 20
-12.814
 21
-12.5
  0
LINE
  8
0
 10
84.5
 11
84.516
 20
12.5
 21
12.814
  0
LINE
  8
0
 10
84.516
 11
84.566
 20
12.814
 21
13.124
  0
LINE
  8
0
 10
84.566
 11
84.647
 20
13.124
 21
13.427
  0
LINE
  8
0
 10
84.647
 11
84.759
 20
13.427
 21
13.72
  0
LINE
  8
0
 10
84.759
 11
84.902
 20
13.72
 21
14
  0
LINE
  8
0
 10
84.902
 11
85.073
 20
14
 21
14.263
  0
LINE
  8
0
 10
85.073
 11
85.271
 20
14.263
 21
14.507
  0
LINE
  8
0
 10
85.271
 11
85.493
 20
14.507
 21
14.729
  0
LINE
  8
0
 10
85.493
 11
85.737
 20
14.729
 21
14.927
  0
LINE
  8
0
 10
85.737
 11
86
 20
14.927
 21
15.098
  0
LINE
  8
0
 10
86
 11
86.28
 20
15.098
 21
15.241
  0
LINE
  8
0
 10
86.28
 11
86.573
 20
15.241
 21
15.353
  0
LINE
  8
0
 10
86.573
 11
86.876
 20
15.353
 21
15.434
  0
LINE
  8
0
 10
86.876
 11
87.186
 20
15.434
 21
15.484
  0
LINE
  8
0
 10
87.186
 11
87.5
 20
15.484
 21
15.5
  0
LINE
  8
0
 10
87.5
 11
87.814
 20
15.5
 21
15.484
  0
LINE
  8
0
 10
87.814
 11
88.124
 20
15.484
 21
15.434
  0
LINE
  8
0
 10
88.124
 11
88.427
 20
15.434
 21
15.353
  0
LINE
  8
0
 10
88.427
 11
88.72
 20
15.353
 21
15.241
  0
LINE
  8
0
 10
88.72
 11
89
 20
15.241
 21
15.098
  0
LINE
  8
0
 10
89
 11
89.263
 20
15.098
 21
14.927
  0
LINE
  8
0
 10
89.263
 11
89.507
 20
14.927
 21
14.729
  0
LINE
  8
0
 10
89.507
 11
89.729
 20
14.729
 21
14.507
  0
LINE
  8
0
 10
89.729
 11
89.927
 20
14.507
 21
14.263
  0
LINE
  8
0
 10
89.927
 11
90.098
 20
14.263
 21
14
  0
LINE
  8
0
 10
90.098
 11
90.241
 20
14
 21
13.72
  0
LINE
  8
0
 10
90.241
 11
90.353
 20
13.72
 21
13.427
  0
LINE
  8
0
 10
90.353
 11
90.434
 20
13.427
 21
13.124
  0
LINE
  8
0
 10
90.434
 11
90.484
 20
13.124
 21
12.814
  0
LINE
  8
0
 10
90.484
 11
90.5
 20
12.814
 21
12.5
  0
LINE
  8
0
 10
90.5
 11
90.484
 20
12.5
 21
12.186
  0
LINE
  8
0
 10
90.484
 11
90.434
 20
12.186
 21
11.876
  0
LINE
  8
0
 10
90.434
 11
90.353
 20
11.876
 21
11.573
  0
LINE
  8
0
 10
90.353
 11
90.241
 20
11.573
 21
11.28
  0
LINE
  8
0
 10
90.241
 11
90.098
 20
11.28
 21
11
  0
LINE
  8
0
 10
90.098
 11
89.927
 20
11
 21
10.737
  0
LINE
  8
0
 10
89.927
 11
89.729
 20
10.737
 21
10.493
  0
LINE
  8
0
 10
89.729
 11
89.507
 20
10.493
 21
10.271
  0
LINE
  8
0
 10
89.507
 11
89.263
 20
10.271
 21
10.073
  0
LINE
  8
0
 10
89.263
 11
89
 20
10.073
 21
9.902
  0
LINE
  8
0
 10
89
 11
88.72
 20
9.902
 21
9.759
  0
LINE
  8
0
 10
88.72
 11
88.427
 20
9.759
 21
9.647
  0
LINE
  8
0
 10
88.427
 11
88.124
 20
9.647
 21
9.566
  0
LINE
  8
0
 10
88.124
 11
87.814
 20
9.566
 21
9.516
  0
LINE
  8
0
 10
87.814
 11
87.5
 20
9.516
 21
9.5
  0
LINE
  8
0
 10
87.5
 11
87.186
 20
9.5
 21
9.516
  0
LINE
  8
0
 10
87.186
 11
86.876
 20
9.516
 21
9.566
  0
LINE
  8
0
 10
86.876
 11
86.573
 20
9.566
 21
9.647
  0
LINE
  8
0
 10
86.573
 11
86.28
 20
9.647
 21
9.759
  0
LINE
  8
0
 10
86.28
 11
86
 20
9.759
 21
9.902
  0
LINE
  8
0
 10
86
 11
85.737
 20
9.902
 21
10.073
  0
LINE
  8
0
 10
85.737
 11
85.493
 20
10.073
 21
10.271
  0
LINE
  8
0
 10
85.493
 11
85.271
 20
10.271
 21
10.493
  0
LINE
  8
0
 10
85.271
 11
85.073
 20
10.493
 21
10.737
  0
LINE
  8
0
 10
85.073
 11
84.902
 20
10.737
 21
11
  0
LINE
  8
0
 10
84.902
 11
84.759
 20
11
 21
11.28
  0
LINE
  8
0
 10
84.759
 11
84.647
 20
11.28
 21
11.573
  0
LINE
  8
0
 10
84.647
 11
84.566
 20
11.573
 21
11.876
  0
LINE
  8
0
 10
84.566
 11
84.516
 20
11.876
 21
12.186
  0
LINE
  8
0
 10
84.516
 11
84.5
 20
12.186
 21
12.5
  0
LINE
  8
0
 10
97
 11
97.016
 20
0
 21
0.314
  0
LINE
  8
0
 10
97.016
 11
97.066
 20
0.314
 21
0.624
  0
LINE
  8
0
 10
97.066
 11
97.147
 20
0.624
 21
0.927
  0
LINE
  8
0
 10
97.147
 11
97.259
 20
0.927
 21
1.22
  0
LINE
  8
0
 10
97.259
 11
97.402
 20
1.22
 21
1.5
  0
LINE
  8
0
 10
97.402
 11
97.573
 20
1.5
 21
1.763
  0
LINE
  8
0
 10
97.573
 11
97.771
 20
1.763
 21
2.007
  0
LINE
  8
0
 10
97.771
 11
97.993
 20
2.007
 21
2.229
  0
LINE
  8
0
 10
97.993
 11
98.237
 20
2.229
 21
2.427
  0
LINE
  8
0
 10
98.237
 11
98.5
 20
2.427
 21
2.598
  0
LINE
  8
0
 10
98.5
 11
98.78
 20
2.598
 21
2.741
  0
LINE
  8
0
 10
98.78
 11
99.073
 20
2.741
 21
2.853
  0
LINE
  8
0
 10
99.073
 11
99.376
 20
2.853
 21
2.934
  0
LINE
  8
0
 10
99.376
 11
99.686
 20
2.934
 21
2.984
  0
LINE
  8
0
 10
99.686
 11
100
 20
2.984
 21
3
  0
LINE
  8
0
 10
100
 11
100.314
 20
3
 21
2.984
  0
LINE
  8
0
 10
100.314
 11
100.624
 20
2.984
 21
2.934
  0
LINE
  8
0
 10
100.624
 11
100.927
 20
2.934
 21
2.853
  0
LINE
  8
0
 10
100.927
 11
101.22
 20
2.853
 21
2.741
  0
LINE
  8
0
 10
101.22
 11
101.5
 20
2.741
 21
2.598
  0
LINE
  8
0
 10
101.5
 11
101.763
 20
2.598
 21
2.427
  0
LINE
  8
0
 10
101.763
 11
102.007
 20
2.427
 21
2.229
  0
LINE
  8
0
 10
102.007
 11
102.229
 20
2.229
 21
2.007
  0
LINE
  8
0
 10
102.229
 11
102.427
 20
2.007
 21
1.763
  0
LINE
  8
0
 10
102.427
 11
102.598
 20
1.763
 21
1.5
  0
LINE
  8
0
 10
102.598
 11
102.741
 20
1.5
 21
1.22
  0
LINE
  8
0
 10
102.741
 11
102.853
 20
1.22
 21
0.927
  0
LINE
  8
0
 10
102.853
 11
102.934
 20
0.927
 21
0.624
  0
LINE
  8
0
 10
102.934
 11
102.984
 20
0.624
 21
0.314
  0
LINE
  8
0
 10
102.984
 11
103
 20
0.314
 21
0
  0
LINE
  8
0
 10
103
 11
102.984
 20
0
 21
-0.314
  0
LINE
  8
0
 10
102.984
 11
102.934
 20
-0.314
 21
-0.624
  0
LINE
  8
0
 10
102.934
 11
102.853
 20
-0.624
 21
-0.927
  0
LINE
  8
0
 10
102.853
 11
102.741
 20
-0.927
 21
-1.22
  0
LINE
  8
0
 10
102.741
 11
102.598
 20
-1.22
 21
-1.5
  0
LINE
  8
0
 10
102.598
 11
102.427
 20
-1.5
 21
-1.763
  0
LINE
  8
0
 10
102.427
 11
102.229
 20
-1.763
 21
-2.007
  0
LINE
  8
0
 10
102.229
 11
102.007
 20
-2.007
 21
-2.229
  0
LINE
  8
0
 10
102.007
 11
101.763
 20
-2.229
 21
-2.427
  0
LINE
  8
0
 10
101.763
 11
101.5
 20
-2.427
 21
-2.598
  0
LINE
  8
0
 10
101.5
 11
101.22
 20
-2.598
 21
-2.741
  0
LINE
  8
0
 10
101.22
 11
100.927
 20
-2.741
 21
-2.853
  0
LINE
  8
0
 10
100.927
 11
100.624
 20
-2.853
 21
-2.934
  0
LINE
  8
0
 10
100.624
 11
100.314
 20
-2.934
 21
-2.984
  0
LINE
  8
0
 10
100.314
 11
100
 20
-2.984
 21
-3
  0
LINE
  8
0
 10
100
 11
99.686
 20
-3
 21
-2.984
  0
LINE
  8
0
 10
99.686
 11
99.376
 20
-2.984
 21
-2.934
  0
LINE
  8
0
 10
99.376
 11
99.073
 20
-2.934
 21
-2.853
  0
LINE
  8
0
 10
99.073
 11
98.78
 20
-2.853
 21
-2.741
  0
LINE
  8
0
 10
98.78
 11
98.5
 20
-2.741
 21
-2.598
  0
LINE
  8
0
 10
98.5
 11
98.237
 20
-2.598
 21
-2.427
  0
LINE
  8
0
 10
98.237
 11
97.993
 20
-2.427
 21
-2.229
  0
LINE
  8
0
 10
97.993
 11
97.771
 20
-2.229
 21
-2.007
  0
LINE
  8
0
 10
97.771
 11
97.573
 20
-2.007
 21
-1.763
  0
LINE
  8
0
 10
97.573
 11
97.402
 20
-1.763
 21
-1.5
  0
LINE
  8
0
 10
97.402
 11
97.259
 20
-1.5
 21
-1.22
  0
LINE
  8
0
 10
97.259
 11
97.147
 20
-1.22
 21
-0.927
  0
LINE
  8
0
 10
97.147
 11
97.066
 20
-0.927
 21
-0.624
  0
LINE
  8
0
 10
97.066
 11
97.016
 20
-0.624
 21
-0.314
  0
LINE
  8
0
 10
97.016
 11
97
 20
-0.314
 21
0
  0
LINE
  8
0
 10
109.5
 11
109.516
 20
-12.5
 21
-12.186
  0
LINE
  8
0
 10
109.516
 11
109.566
 20
-12.186
 21
-11.876
  0
LINE
  8
0
 10
109.566
 11
109.647
 20
-11.876
 21
-11.573
  0
LINE
  8
0
 10
109.647
 11
109.759
 20
-11.573
 21
-11.28
  0
LINE
  8
0
 10
109.759
 11
109.902
 20
-11.28
 21
-11
  0
LINE
  8
0
 10
109.902
 11
110.073
 20
-11
 21
-10.737
  0
LINE
  8
0
 10
110.073
 11
110.271
 20
-10.737
 21
-10.493
  0
LINE
  8
0
 10
110.271
 11
110.493
 20
-10.493
 21
-10.271
  0
LINE
  8
0
 10
110.493
 11
110.737
 20
-10.271
 21
-10.073
  0
LINE
  8
0
 10
110.737
 11
111
 20
-10.073
 21
-9.902
  0
LINE
  8
0
 10
111
 11
111.28
 20
-9.902
 21
-9.759
  0
LINE
  8
0
 10
111.28
 11
111.573
 20
-9.759
 21
-9.647
  0
LINE
  8
0
 10
111.573
 11
111.876
 20
-9.647
 21
-9.566
  0
LINE
  8
0
 10
111.876
 11
112.186
 20
-9.566
 21
-9.516
  0
LINE
  8
0
 10
112.186
 11
112.5
 20
-9.516
 21
-9.5
  0
LINE
  8
0
 10
112.5
 11
112.814
 20
-9.5
 21
-9.516
  0
LINE
  8
0
 10
112.814
 11
113.124
 20
-9.516
 21
-9.566
  0
LINE
  8
0
 10
113.124
 11
113.427
 20
-9.566
 21
-9.647
  0
LINE
  8
0
 10
113.427
 11
113.72
 20
-9.647
 21
-9.759
  0
LINE
  8
0
 10
113.72
 11
114
 20
-9.759
 21
-9.902
  0
LINE
  8
0
 10
114
 11
114.263
 20
-9.902
 21
-10.073
  0
LINE
  8
0
 10
114.263
 11
114.507
 20
-10.073
 21
-10.271
  0
LINE
  8
0
 10
114.507
 11
114.729
 20
-10.271
 21
-10.493
  0
LINE
  8
0
 10
114.729
 11
114.927
 20
-10.493
 21
-10.737
  0
LINE
  8
0
 10
114.927
 11
115.098
 20
-10.737
 21
-11
  0
LINE
  8
0
 10
115.098
 11
115.241
 20
-11
 21
-11.28
  0
LINE
  8
0
 10
115.241
 11
115.353
 20
-11.28
 21
-11.573
  0
LINE
  8
0
 10
115.353
 11
115.434
 20
-11.573
 21
-11.876
  0
LINE
  8
0
 10
115.434
 11
115.484
 20
-11.876
 21
-12.186
  0
LINE
  8
0
 10
115.484
 11
115.5
 20
-12.186
 21
-12.5
  0
LINE
  8
0
 10
115.5
 11
115.484
 20
-12.5
 21
-12.814
  0
LINE
  8
0
 10
115.484
 11
115.434
 20
-12.814
 21
-13.124
  0
LINE
  8
0
 10
115.434
 11
115.353
 20
-13.124
 21
-13.427
  0
LINE
  8
0
 10
115.353
 11
115.241
 20
-13.427
 21
-13.72
  0
LINE
  8
0
 10
115.241
 11
115.098
 20
-13.72
 21
-14
  0
LINE
  8
0
 10
115.098
 11
114.927
 20
-14
 21
-14.263
  0
LINE
  8
0
 10
114.927
 11
114.729
 20
-14.263
 21
-14.507
  0
LINE
  8
0
 10
114.729
 11
114.507
 20
-14.507
 21
-14.729
  0
LINE
  8
0
 10
114.507
 11
114.263
 20
-14.729
 21
-14.927
  0
LINE
  8
0
 10
114.263
 11
114
 20
-14.927
 21
-15.098
  0
LINE
  8
0
 10
114
 11
113.72
 20
-15.098
 21
-15.241
  0
LINE
  8
0
 10
113.72
 11
113.427
 20
-15.241
 21
-15.353
  0
LINE
  8
0
 10
113.427
 11
113.124
 20
-15.353
 21
-15.434
  0
LINE
  8
0
 10
113.124
 11
112.814
 20
-15.434
 21
-15.484
  0
LINE
  8
0
 10
112.814
 11
112.5
 20
-15.484
 21
-15.5
  0
LINE
  8
0
 10
112.5
 11
112.186
 20
-15.5
 21
-15.484
  0
LINE
  8
0
 10
112.186
 11
111.876
 20
-15.484
 21
-15.434
  0
LINE
  8
0
 10
111.876
 11
111.573
 20
-15.434
 21
-15.353
  0
LINE
  8
0
 10
111.573
 11
111.28
 20
-15.353
 21
-15.241
  0
LINE
  8
0
 10
111.28
 11
111
 20
-15.241
 21
-15.098
  0
LINE
  8
0
 10
111
 11
110.737
 20
-15.098
 21
-14.927
  0
LINE
  8
0
 10
110.737
 11
110.493
 20
-14.927
 21
-14.729
  0
LINE
  8
0
 10
110.493
 11
110.271
 20
-14.729
 21
-14.507
  0
LINE
  8
0
 10
110.271
 11
110.073
 20
-14.507
 21
-14.263
  0
LINE
  8
0
 10
110.073
 11
109.902
 20
-14.263
 21
-14
  0
LINE
  8
0
 10
109.902
 11
109.759
 20
-14
 21
-13.72
  0
LINE
  8
0
 10
109.759
 11
109.647
 20
-13.72
 21
-13.427
  0
LINE
  8
0
 10
109.647
 11
109.566
 20
-13.427
 21
-13.124
  0
LINE
  8
0
 10
109.566
 11
109.516
 20
-13.124
 21
-12.814
  0
LINE
  8
0
 10
109.516
 11
109.5
 20
-12.814
 21
-12.5
  0
LINE
  8
0
 10
109.5
 11
109.516
 20
12.5
 21
12.814
  0
LINE
  8
0
 10
109.516
 11
109.566
 20
12.814
 21
13.124
  0
LINE
  8
0
 10
109.566
 11
109.647
 20
13.124
 21
13.427
  0
LINE
  8
0
 10
109.647
 11
109.759
 20
13.427
 21
13.72
  0
LINE
  8
0
 10
109.759
 11
109.902
 20
13.72
 21
14
  0
LINE
  8
0
 10
109.902
 11
110.073
 20
14
 21
14.263
  0
LINE
  8
0
 10
110.073
 11
110.271
 20
14.263
 21
14.507
  0
LINE
  8
0
 10
110.271
 11
110.493
 20
14.507
 21
14.729
  0
LINE
  8
0
 10
110.493
 11
110.737
 20
14.729
 21
14.927
  0
LINE
  8
0
 10
110.737
 11
111
 20
14.927
 21
15.098
  0
LINE
  8
0
 10
111
 11
111.28
 20
15.098
 21
15.241
  0
LINE
  8
0
 10
111.28
 11
111.573
 20
15.241
 21
15.353
  0
LINE
  8
0
 10
111.573
 11
111.876
 20
15.353
 21
15.434
  0
LINE
  8
0
 10
111.876
 11
112.186
 20
15.434
 21
15.484
  0
LINE
  8
0
 10
112.186
 11
112.5
 20
15.484
 21
15.5
  0
LINE
  8
0
 10
112.5
 11
112.814
 20
15.5
 21
15.484
  0
LINE
  8
0
 10
112.814
 11
113.124
 20
15.484
 21
15.434
  0
LINE
  8
0
 10
113.124
 11
113.427
 20
15.434
 21
15.353
  0
LINE
  8
0
 10
113.427
 11
113.72
 20
15.353
 21
15.241
  0
LINE
  8
0
 10
113.72
 11
114
 20
15.241
 21
15.098
  0
LINE
  8
0
 10
114
 11
114.263
 20
15.098
 21
14.927
  0
LINE
  8
0
 10
114.263
 11
114.507
 20
14.927
 21
14.729
  0
LINE
  8
0
 10
114.507
 11
114.729
 20
14.729
 21
14.507
  0
LINE
  8
0
 10
114.729
 11
114.927
 20
14.507
 21
14.263
  0
LINE
  8
0
 10
114.927
 11
115.098
 20
14.263
 21
14
  0
LINE
  8
0
 10
115.098
 11
115.241
 20
14
 21
13.72
  0
LINE
  8
0
 10
115.241
 11
115.353
 20
13.72
 21
13.427
  0
LINE
  8
0
 10
115.353
 11
115.434
 20
13.427
 21
13.124
  0
LINE
  8
0
 10
115.434
 11
115.484
 20
13.124
 21
12.814
  0
LINE
  8
0
 10
115.484
 11
115.5
 20
12.814
 21
12.5
  0
LINE
  8
0
 10
115.5
 11
115.484
 20
12.5
 21
12.186
  0
LINE
  8
0
 10
115.484
 11
115.434
 20
12.186
 21
11.876
  0
LINE
  8
0
 10
115.434
 11
115.353
 20
11.876
 21
11.573
  0
LINE
  8
0
 10
115.353
 11
115.241
 20
11.573
 21
11.28
  0
LINE
  8
0
 10
115.241
 11
115.098
 20
11.28
 21
11
  0
LINE
  8
0
 10
115.098
 11
114.927
 20
11
 21
10.737
  0
LINE
  8
0
 10
114.927
 11
114.729
 20
10.737
 21
10.493
  0
LINE
  8
0
 10
114.729
 11
114.507
 20
10.493
 21
10.271
  0
LINE
  8
0
 10
114.507
 11
114.263
 20
10.271
 21
10.073
  0
LINE
  8
0
 10
114.263
 11
114
 20
10.073
 21
9.902
  0
LINE
  8
0
 10
114
 11
113.72
 20
9.902
 21
9.759
  0
LINE
  8
0
 10
113.72
 11
113.427
 20
9.759
 21
9.647
  0
LINE
  8
0
 10
113.427
 11
113.124
 20
9.647
 21
9.566
  0
LINE
  8
0
 10
113.124
 11
112.814
 20
9.566
 21
9.516
  0
LINE
  8
0
 10
112.814
 11
112.5
 20
9.516
 21
9.5
  0
LINE
  8
0
 10
112.5
 11
112.186
 20
9.5
 21
9.516
  0
LINE
  8
0
 10
112.186
 11
111.876
 20
9.516
 21
9.566
  0
LINE
  8
0
 10
111.876
 11
111.573
 20
9.566
 21
9.647
  0
LINE
  8
0
 10
111.573
 11
111.28
 20
9.647
 21
9.759
  0
LINE
  8
0
 10
111.28
 11
111
 20
9.759
 21
9.902
  0
LINE
  8
0
 10
111
 11
110.737
 20
9.902
 21
10.073
  0
LINE
  8
0
 10
110.737
 11
110.493
 20
10.073
 21
10.271
  0
LINE
  8
0
 10
110.493
 11
110.271
 20
10.271
 21
10.493
  0
LINE
  8
0
 10
110.271
 11
110.073
 20
10.493
 21
10.737
  0
LINE
  8
0
 10
110.073
 11
109.902
 20
10.737
 21
11
  0
LINE
  8
0
 10
109.902
 11
109.759
 20
11
 21
11.28
  0
LINE
  8
0
 10
109.759
 11
109.647
 20
11.28
 21
11.573
  0
LINE
  8
0
 10
109.647
 11
109.566
 20
11.573
 21
11.876
  0
LINE
  8
0
 10
109.566
 11
109.516
 20
11.876
 21
12.186
  0
LINE
  8
0
 10
109.516
 11
109.5
 20
12.186
 21
12.5
  0
LINE
  8
0
 10
149.225
 11
149.242
 20
-12.7
 21
-12.368
  0
LINE
  8
0
 10
149.242
 11
149.294
 20
-12.368
 21
-12.04
  0
LINE
  8
0
 10
149.294
 11
149.38
 20
-12.04
 21
-11.719
  0
LINE
  8
0
 10
149.38
 11
149.499
 20
-11.719
 21
-11.409
  0
LINE
  8
0
 10
149.499
 11
149.65
 20
-11.409
 21
-11.113
  0
LINE
  8
0
 10
149.65
 11
149.831
 20
-11.113
 21
-10.834
  0
LINE
  8
0
 10
149.831
 11
150.041
 20
-10.834
 21
-10.576
  0
LINE
  8
0
 10
150.041
 11
150.276
 20
-10.576
 21
-10.341
  0
LINE
  8
0
 10
150.276
 11
150.534
 20
-10.341
 21
-10.131
  0
LINE
  8
0
 10
150.534
 11
150.813
 20
-10.131
 21
-9.95
  0
LINE
  8
0
 10
150.813
 11
151.109
 20
-9.95
 21
-9.799
  0
LINE
  8
0
 10
151.109
 11
151.419
 20
-9.799
 21
-9.68
  0
LINE
  8
0
 10
151.419
 11
151.74
 20
-9.68
 21
-9.594
  0
LINE
  8
0
 10
151.74
 11
152.068
 20
-9.594
 21
-9.542
  0
LINE
  8
0
 10
152.068
 11
152.4
 20
-9.542
 21
-9.525
  0
LINE
  8
0
 10
152.4
 11
152.732
 20
-9.525
 21
-9.542
  0
LINE
  8
0
 10
152.732
 11
153.06
 20
-9.542
 21
-9.594
  0
LINE
  8
0
 10
153.06
 11
153.381
 20
-9.594
 21
-9.68
  0
LINE
  8
0
 10
153.381
 11
153.691
 20
-9.68
 21
-9.799
  0
LINE
  8
0
 10
153.691
 11
153.987
 20
-9.799
 21
-9.95
  0
LINE
  8
0
 10
153.987
 11
154.266
 20
-9.95
 21
-10.131
  0
LINE
  8
0
 10
154.266
 11
154.524
 20
-10.131
 21
-10.341
  0
LINE
  8
0
 10
154.524
 11
154.759
 20
-10.341
 21
-10.576
  0
LINE
  8
0
 10
154.759
 11
154.969
 20
-10.576
 21
-10.834
  0
LINE
  8
0
 10
154.969
 11
155.15
 20
-10.834
 21
-11.113
  0
LINE
  8
0
 10
155.15
 11
155.301
 20
-11.113
 21
-11.409
  0
LINE
  8
0
 10
155.301
 11
155.42
 20
-11.409
 21
-11.719
  0
LINE
  8
0
 10
155.42
 11
155.506
 20
-11.719
 21
-12.04
  0
LINE
  8
0
 10
155.506
 11
155.558
 20
-12.04
 21
-12.368
  0
LINE
  8
0
 10
155.558
 11
155.575
 20
-12.368
 21
-12.7
  0
LINE
  8
0
 10
155.575
 11
155.558
 20
-12.7
 21
-13.032
  0
LINE
  8
0
 10
155.558
 11
155.506
 20
-13.032
 21
-13.36
  0
LINE
  8
0
 10
155.506
 11
155.42
 20
-13.36
 21
-13.681
  0
LINE
  8
0
 10
155.42
 11
155.301
 20
-13.681
 21
-13.991
  0
LINE
  8
0
 10
155.301
 11
155.15
 20
-13.991
 21
-14.287
  0
LINE
  8
0
 10
155.15
 11
154.969
 20
-14.287
 21
-14.566
  0
LINE
  8
0
 10
154.969
 11
154.759
 20
-14.566
 21
-14.824
  0
LINE
  8
0
 10
154.759
 11
154.524
 20
-14.824
 21
-15.059
  0
LINE
  8
0
 10
154.524
 11
154.266
 20
-15.059
 21
-15.269
  0
LINE
  8
0
 10
154.266
 11
153.987
 20
-15.269
 21
-15.45
  0
LINE
  8
0
 10
153.987
 11
153.691
 20
-15.45
 21
-15.601
  0
LINE
  8
0
 10
153.691
 11
153.381
 20
-15.601
 21
-15.72
  0
LINE
  8
0
 10
153.381
 11
153.06
 20
-15.72
 21
-15.806
  0
LINE
  8
0
 10
153.06
 11
152.732
 20
-15.806
 21
-15.858
  0
LINE
  8
0
 10
152.732
 11
152.4
 20
-15.858
 21
-15.875
  0
LINE
  8
0
 10
152.4
 11
152.068
 20
-15.875
 21
-15.858
  0
LINE
  8
0
 10
152.068
 11
151.74
 20
-15.858
 21
-15.806
  0
LINE
  8
0
 10
151.74
 11
151.419
 20
-15.806
 21
-15.72
  0
LINE
  8
0
 10
151.419
 11
151.109
 20
-15.72
 21
-15.601
  0
LINE
  8
0
 10
151.109
 11
150.813
 20
-15.601
 21
-15.45
  0
LINE
  8
0
 10
150.813
 11
150.534
 20
-15.45
 21
-15.269
  0
LINE
  8
0
 10
150.534
 11
150.276
 20
-15.269
 21
-15.059
  0
LINE
  8
0
 10
150.276
 11
150.041
 20
-15.059
 21
-14.824
  0
LINE
  8
0
 10
150.041
 11
149.831
 20
-14.824
 21
-14.566
  0
LINE
  8
0
 10
149.831
 11
149.65
 20
-14.566
 21
-14.287
  0
LINE
  8
0
 10
149.65
 11
149.499
 20
-14.287
 21
-13.991
  0
LINE
  8
0
 10
149.499
 11
149.38
 20
-13.991
 21
-13.681
  0
LINE
  8
0
 10
149.38
 11
149.294
 20
-13.681
 21
-13.36
  0
LINE
  8
0
 10
149.294
 11
149.242
 20
-13.36
 21
-13.032
  0
LINE
  8
0
 10
149.242
 11
149.225
 20
-13.032
 21
-12.7
  0
LINE
  8
0
 10
149.225
 11
149.242
 20
12.7
 21
13.032
  0
LINE
  8
0
 10
149.242
 11
149.294
 20
13.032
 21
13.36
  0
LINE
  8
0
 10
149.294
 11
149.38
 20
13.36
 21
13.681
  0
LINE
  8
0
 10
149.38
 11
149.499
 20
13.681
 21
13.991
  0
LINE
  8
0
 10
149.499
 11
149.65
 20
13.991
 21
14.287
  0
LINE
  8
0
 10
149.65
 11
149.831
 20
14.287
 21
14.566
  0
LINE
  8
0
 10
149.831
 11
150.041
 20
14.566
 21
14.824
  0
LINE
  8
0
 10
150.041
 11
150.276
 20
14.824
 21
15.059
  0
LINE
  8
0
 10
150.276
 11
150.534
 20
15.059
 21
15.269
  0
LINE
  8
0
 10
150.534
 11
150.813
 20
15.269
 21
15.45
  0
LINE
  8
0
 10
150.813
 11
151.109
 20
15.45
 21
15.601
  0
LINE
  8
0
 10
151.109
 11
151.419
 20
15.601
 21
15.72
  0
LINE
  8
0
 10
151.419
 11
151.74
 20
15.72
 21
15.806
  0
LINE
  8
0
 10
151.74
 11
152.068
 20
15.806
 21
15.858
  0
LINE
  8
0
 10
152.068
 11
152.4
 20
15.858
 21
15.875
  0
LINE
  8
0
 10
152.4
 11
152.732
 20
15.875
 21
15.858
  0
LINE
  8
0
 10
152.732
 11
153.06
 20
15.858
 21
15.806
  0
LINE
  8
0
 10
153.06
 11
153.381
 20
15.806
 21
15.72
  0
LINE
  8
0
 10
153.381
 11
153.691
 20
15.72
 21
15.601
  0
LINE
  8
0
 10
153.691
 11
153.987
 20
15.601
 21
15.45
  0
LINE
  8
0
 10
153.987
 11
154.266
 20
15.45
 21
15.269
  0
LINE
  8
0
 10
154.266
 11
154.524
 20
15.269
 21
15.059
  0
LINE
  8
0
 10
154.524
 11
154.759
 20
15.059
 21
14.824
  0
LINE
  8
0
 10
154.759
 11
154.969
 20
14.824
 21
14.566
  0
LINE
  8
0
 10
154.969
 11
155.15
 20
14.566
 21
14.287
  0
LINE
  8
0
 10
155.15
 11
155.301
 20
14.287
 21
13.991
  0
LINE
  8
0
 10
155.301
 11
155.42
 20
13.991
 21
13.681
  0
LINE
  8
0
 10
155.42
 11
155.506
 20
13.681
 21
13.36
  0
LINE
  8
0
 10
155.506
 11
155.558
 20
13.36
 21
13.032
  0
LINE
  8
0
 10
155.558
 11
155.575
 20
13.032
 21
12.7
  0
LINE
  8
0
 10
155.575
 11
155.558
 20
12.7
 21
12.368
  0
LINE
  8
0
 10
155.558
 11
155.506
 20
12.368
 21
12.04
  0
LINE
  8
0
 10
155.506
 11
155.42
 20
12.04
 21
11.719
  0
LINE
  8
0
 10
155.42
 11
155.301
 20
11.719
 21
11.409
  0
LINE
  8
0
 10
155.301
 11
155.15
 20
11.409
 21
11.113
  0
LINE
  8
0
 10
155.15
 11
154.969
 20
11.113
 21
10.834
  0
LINE
  8
0
 10
154.969
 11
154.759
 20
10.834
 21
10.576
  0
LINE
  8
0
 10
154.759
 11
154.524
 20
10.576
 21
10.341
  0
LINE
  8
0
 10
154.524
 11
154.266
 20
10.341
 21
10.131
  0
LINE
  8
0
 10
154.266
 11
153.987
 20
10.131
 21
9.95
  0
LINE
  8
0
 10
153.987
 11
153.691
 20
9.95
 21
9.799
  0
LINE
  8
0
 10
153.691
 11
153.381
 20
9.799
 21
9.68
  0
LINE
  8
0
 10
153.381
 11
153.06
 20
9.68
 21
9.594
  0
LINE
  8
0
 10
153.06
 11
152.732
 20
9.594
 21
9.542
  0
LINE
  8
0
 10
152.732
 11
152.4
 20
9.542
 21
9.525
  0
LINE
  8
0
 10
152.4
 11
152.068
 20
9.525
 21
9.542
  0
LINE
  8
0
 10
152.068
 11
151.74
 20
9.542
 21
9.594
  0
LINE
  8
0
 10
151.74
 11
151.419
 20
9.594
 21
9.68
  0
LINE
  8
0
 10
151.419
 11
151.109
 20
9.68
 21
9.799
  0
LINE
  8
0
 10
151.109
 11
150.813
 20
9.799
 21
9.95
  0
LINE
  8
0
 10
150.813
 11
150.534
 20
9.95
 21
10.131
  0
LINE
  8
0
 10
150.534
 11
150.276
 20
10.131
 21
10.341
  0
LINE
  8
0
 10
150.276
 11
150.041
 20
10.341
 21
10.576
  0
LINE
  8
0
 10
150.041
 11
149.831
 20
10.576
 21
10.834
  0
LINE
  8
0
 10
149.831
 11
149.65
 20
10.834
 21
11.113
  0
LINE
  8
0
 10
149.65
 11
149.499
 20
11.113
 21
11.409
  0
LINE
  8
0
 10
149.499
 11
149.38
 20
11.409
 21
11.719
  0
LINE
  8
0
 10
149.38
 11
149.294
 20
11.719
 21
12.04
  0
LINE
  8
0
 10
149.294
 11
149.242
 20
12.04
 21
12.368
  0
LINE
  8
0
 10
149.242
 11
149.225
 20
12.368
 21
12.7
  0
ENDSEC
  0
SECTION
  2
OBJECTS
  0
DICTIONARY
  0
ENDSEC
  0
EOF
