%FSLAX23Y23*%
%MOIN*%
G70*
G01*
G75*
%ADD10C,0.010*%
%ADD11R,0.062X0.062*%
%ADD12C,0.062*%
%ADD13C,0.065*%
%ADD14R,0.065X0.065*%
%ADD15C,0.100*%
%ADD16O,0.065X0.075*%
%ADD17C,0.150*%
%ADD18R,0.060X0.060*%
%ADD19C,0.060*%
%ADD20C,0.050*%
D10*
X9842Y7018D02*
X9892D01*
X9942Y6968D01*
Y6618D02*
Y6968D01*
X9892Y6568D02*
X9942Y6618D01*
X9392Y6568D02*
X9892D01*
X9292Y6668D02*
X9392Y6568D01*
X9192Y6668D02*
X9292D01*
X9792Y6768D02*
X9842Y6818D01*
X9667Y6768D02*
X9792D01*
X9617Y6718D02*
X9667Y6768D01*
X9342Y6918D02*
X9742D01*
X9192Y6868D02*
X9792D01*
X9842Y6918D01*
X9342Y6718D02*
X9617D01*
X9142D02*
X9192Y6668D01*
X9342Y6818D02*
X9592D01*
X9142D02*
X9192Y6868D01*
Y6968D02*
X9492D01*
X9142Y6918D02*
X9192Y6968D01*
X9342Y7018D02*
X9592D01*
X9142D02*
X9192Y7068D01*
X9342Y7118D02*
X9467D01*
X9142D02*
X9192Y7168D01*
Y7268D02*
X9617D01*
X9142Y7218D02*
X9192Y7268D01*
X9342Y7318D02*
X9667D01*
X9192Y7368D02*
X9517D01*
X9142Y7318D02*
X9192Y7368D01*
Y7468D02*
X9467D01*
X9142Y7418D02*
X9192Y7468D01*
X9142Y7518D02*
X9192Y7568D01*
X9342Y7618D02*
X9567D01*
X9142D02*
X9192Y7668D01*
X9142Y7618D02*
Y7643D01*
Y7718D02*
X9192Y7768D01*
X9142Y7818D02*
X9192Y7868D01*
X9142Y7918D02*
X9192Y7968D01*
X9142Y8018D02*
X9192Y8068D01*
Y8168D02*
X9492D01*
X9142Y8118D02*
X9192Y8168D01*
Y8268D02*
X9567D01*
X9142Y8218D02*
X9192Y8268D01*
X10567Y6743D02*
X10792D01*
X8692Y8393D02*
X10642D01*
X10742Y7293D02*
Y8293D01*
X10642Y8393D02*
X10742Y8293D01*
Y8418D02*
X10842Y8318D01*
Y7293D02*
Y8318D01*
X8567Y8418D02*
X8642D01*
X8617Y8318D02*
X8692Y8393D01*
X8617Y7493D02*
Y8318D01*
X10742Y7293D02*
X10842Y7193D01*
X10567Y6543D02*
X10642D01*
X10942Y6843D01*
Y7218D01*
X10867Y7293D02*
X10942Y7218D01*
X10842Y7293D02*
X10867D01*
X10792Y6743D02*
X10842Y6793D01*
X8092Y6468D02*
X8142D01*
X8092D02*
Y6518D01*
Y8443D02*
Y8518D01*
X8147D01*
X11057D02*
X11117D01*
Y8463D02*
Y8518D01*
Y6468D02*
Y6523D01*
X11062Y6468D02*
X11117D01*
X9717Y7168D02*
X9792Y7243D01*
X9342Y7418D02*
X9567D01*
X9192Y7168D02*
X9717D01*
X9642Y7218D02*
X9742Y7318D01*
X9342Y7218D02*
X9642D01*
X9742Y7068D02*
X9842Y7168D01*
X9192Y7068D02*
X9742D01*
X9842Y7168D02*
Y7318D01*
X9342Y7818D02*
X9517D01*
X9192Y7868D02*
X9467D01*
X9592Y7518D02*
X9642Y7468D01*
X9342Y7518D02*
X9592D01*
X9792Y7668D02*
X9842Y7618D01*
X9192Y7668D02*
X9792D01*
X9342Y7718D02*
X9667D01*
X9192Y7968D02*
X9517D01*
X9742Y7918D02*
X9842Y7818D01*
X9342Y7918D02*
X9742D01*
X9717Y7768D02*
X9742Y7743D01*
Y7718D02*
Y7743D01*
X9192Y7768D02*
X9717D01*
X10142Y7568D02*
X10292Y7718D01*
Y8168D01*
X10242Y8218D02*
X10292Y8168D01*
X10167Y8218D02*
X10242D01*
X9192Y7568D02*
X10142D01*
X10117Y7468D02*
X10192Y7543D01*
X10317Y7668D01*
Y8243D01*
X10267Y8293D02*
X10317Y8243D01*
X10142Y8293D02*
X10267D01*
X10117Y8268D02*
X10142Y8293D01*
X10117Y8143D02*
Y8268D01*
Y8143D02*
X10142Y8118D01*
X10167D01*
X9642Y7468D02*
X10117D01*
X9667Y8118D02*
X9817Y7968D01*
X10117D01*
X10167Y7918D01*
X9342Y8118D02*
X9667D01*
X9817Y7918D02*
X10067D01*
X9192Y8068D02*
X9667D01*
X9817Y7918D01*
X9867Y8218D02*
X9967Y8118D01*
X10042D01*
X9342Y8218D02*
X9867D01*
X9642Y8018D02*
X9692Y7968D01*
X9342Y8018D02*
X9642D01*
X8242Y7468D02*
X8292D01*
X8192Y7518D02*
Y8118D01*
X8492Y8418D01*
X8192Y7518D02*
X8242Y7468D01*
X8492Y8418D02*
X10742D01*
X8617Y7493D02*
X8642Y7468D01*
X8692D01*
X10842Y6793D02*
Y7193D01*
X9792Y7243D02*
Y7343D01*
X9817Y7368D01*
X9942D01*
X8092Y6468D02*
X11117D01*
Y8518D01*
X8092D02*
X11117D01*
X8092Y6468D02*
Y8518D01*
D11*
X10067Y7418D02*
D03*
X9742Y7018D02*
D03*
X8292Y7968D02*
D03*
X9742Y7818D02*
D03*
X8692Y7968D02*
D03*
D12*
X10167Y7418D02*
D03*
X10067Y7318D02*
D03*
X10167D02*
D03*
X10067Y7218D02*
D03*
X10167D02*
D03*
X10067Y7118D02*
D03*
X10167D02*
D03*
X10067Y7018D02*
D03*
X10167D02*
D03*
X9842D02*
D03*
X9742Y6918D02*
D03*
X9842D02*
D03*
X9742Y6818D02*
D03*
X9842D02*
D03*
X9742Y6718D02*
D03*
X9842D02*
D03*
X9742Y6618D02*
D03*
X9842D02*
D03*
X8792Y7468D02*
D03*
Y7568D02*
D03*
Y7068D02*
D03*
X8392D02*
D03*
X10167Y8218D02*
D03*
X10067Y8118D02*
D03*
X10167D02*
D03*
X10067Y8018D02*
D03*
X10167D02*
D03*
X10067Y7918D02*
D03*
X10167D02*
D03*
Y7818D02*
D03*
X9842Y7418D02*
D03*
X9742D02*
D03*
X9842Y7518D02*
D03*
X9742D02*
D03*
X9842Y7618D02*
D03*
X9742D02*
D03*
X9842Y7718D02*
D03*
X9742D02*
D03*
X9842Y7818D02*
D03*
X8792Y7968D02*
D03*
X8692Y7868D02*
D03*
X8792D02*
D03*
X8692Y7768D02*
D03*
X8792D02*
D03*
X8692Y7668D02*
D03*
X8792D02*
D03*
X8692Y7568D02*
D03*
Y7468D02*
D03*
Y7368D02*
D03*
X8792D02*
D03*
X8692Y7268D02*
D03*
X8792D02*
D03*
X8692Y7168D02*
D03*
X8792D02*
D03*
X8692Y7068D02*
D03*
X8392Y7968D02*
D03*
X8292Y7868D02*
D03*
X8392D02*
D03*
X8292Y7768D02*
D03*
X8392D02*
D03*
X8292Y7668D02*
D03*
X8392D02*
D03*
X8292Y7568D02*
D03*
Y7468D02*
D03*
X8392D02*
D03*
X8292Y7368D02*
D03*
X8392D02*
D03*
X8292Y7268D02*
D03*
X8392D02*
D03*
X8292Y7168D02*
D03*
X8392D02*
D03*
X8292Y7068D02*
D03*
X8392Y7568D02*
D03*
X10067Y7818D02*
D03*
D13*
X9342Y7518D02*
D03*
Y6718D02*
D03*
Y6818D02*
D03*
Y6918D02*
D03*
Y7018D02*
D03*
Y7118D02*
D03*
Y7218D02*
D03*
Y7318D02*
D03*
Y7418D02*
D03*
Y7618D02*
D03*
Y7718D02*
D03*
Y7818D02*
D03*
Y7918D02*
D03*
Y8018D02*
D03*
Y8118D02*
D03*
X9142Y6718D02*
D03*
Y6818D02*
D03*
Y6918D02*
D03*
Y7018D02*
D03*
Y7118D02*
D03*
Y7218D02*
D03*
Y7318D02*
D03*
Y7418D02*
D03*
Y7518D02*
D03*
Y7618D02*
D03*
Y7718D02*
D03*
Y7818D02*
D03*
Y7918D02*
D03*
Y8018D02*
D03*
Y8118D02*
D03*
X9242D02*
D03*
Y8018D02*
D03*
Y7918D02*
D03*
Y7818D02*
D03*
Y7718D02*
D03*
Y7618D02*
D03*
Y7518D02*
D03*
Y7418D02*
D03*
Y7318D02*
D03*
Y7218D02*
D03*
Y7118D02*
D03*
Y7018D02*
D03*
Y6918D02*
D03*
Y6818D02*
D03*
Y6718D02*
D03*
X11017Y7118D02*
D03*
Y7193D02*
D03*
Y7393D02*
D03*
Y6918D02*
D03*
D14*
X9342Y8218D02*
D03*
X9142D02*
D03*
X9242D02*
D03*
D15*
X10592Y7849D02*
D03*
Y8143D02*
D03*
X10985Y7750D02*
D03*
Y7950D02*
D03*
X10742Y6868D02*
D03*
X10642Y7293D02*
D03*
X10494Y7652D02*
D03*
Y8047D02*
D03*
X10592Y7554D02*
D03*
X10742Y7193D02*
D03*
X10842Y7293D02*
D03*
X10642Y6968D02*
D03*
X10842D02*
D03*
D16*
X10492D02*
D03*
X10392Y7293D02*
D03*
Y6968D02*
D03*
X10492Y7293D02*
D03*
D17*
X11017Y6568D02*
D03*
X8192Y8418D02*
D03*
Y6568D02*
D03*
X11017Y8418D02*
D03*
D18*
X10067Y8218D02*
D03*
D19*
X10417Y6743D02*
D03*
X10567D02*
D03*
X10017Y6643D02*
D03*
X10417Y6543D02*
D03*
X10167Y6643D02*
D03*
X10567Y6543D02*
D03*
X9642Y8343D02*
D03*
X9492D02*
D03*
D20*
X9592Y7018D02*
D03*
X9467Y7118D02*
D03*
X9592Y6818D02*
D03*
X9492Y6968D02*
D03*
X9467Y7468D02*
D03*
X9567Y7418D02*
D03*
X9942Y7368D02*
D03*
X9517D02*
D03*
X9617Y7268D02*
D03*
X9667Y7318D02*
D03*
X9742D02*
D03*
X9842D02*
D03*
X9467Y7868D02*
D03*
X9517Y7818D02*
D03*
X9567Y7618D02*
D03*
X9667Y7718D02*
D03*
X9517Y7968D02*
D03*
X9567Y8268D02*
D03*
X9692Y7968D02*
D03*
X9492Y8168D02*
D03*
M02*
