%FSLAX23Y23*%
%MOIN*%
G70*
G01*
G75*
%ADD10C,0.010*%
%ADD11R,0.062X0.062*%
%ADD12C,0.062*%
%ADD13C,0.065*%
%ADD14R,0.065X0.065*%
%ADD15C,0.100*%
%ADD16O,0.065X0.075*%
%ADD17C,0.150*%
%ADD18R,0.060X0.060*%
%ADD19C,0.060*%
%ADD20C,0.050*%
%ADD21C,0.025*%
%ADD22C,0.012*%
%ADD23C,0.008*%
%ADD24C,0.007*%
%ADD25C,0.006*%
D10*
X10545Y6968D02*
X10545Y6977D01*
X10543Y6987D01*
X10541Y6997D01*
X10537Y7006D01*
X10533Y7015D01*
X10528Y7024D01*
X10522Y7032D01*
X10516Y7040D01*
X10508Y7046D01*
X10501Y7052D01*
X10492Y7058D01*
X10483Y7062D01*
X10474Y7066D01*
X10464Y7068D01*
X10454Y7070D01*
X10445Y7071D01*
X10435Y7070D01*
X10425Y7069D01*
X10415Y7067D01*
X10405Y7064D01*
X10396Y7060D01*
X10388Y7055D01*
X10379Y7049D01*
X10372Y7043D01*
X10365Y7036D01*
X10359Y7028D01*
X10353Y7020D01*
X10349Y7011D01*
X10345Y7002D01*
X10342Y6992D01*
X10340Y6982D01*
X10339Y6972D01*
Y6963D01*
X10340Y6953D01*
X10342Y6943D01*
X10345Y6933D01*
X10349Y6924D01*
X10353Y6915D01*
X10359Y6907D01*
X10365Y6899D01*
X10372Y6892D01*
X10379Y6886D01*
X10388Y6880D01*
X10396Y6875D01*
X10405Y6871D01*
X10415Y6868D01*
X10425Y6866D01*
X10435Y6865D01*
X10445Y6864D01*
X10454Y6865D01*
X10464Y6867D01*
X10474Y6869D01*
X10483Y6873D01*
X10492Y6877D01*
X10501Y6883D01*
X10508Y6889D01*
X10516Y6896D01*
X10522Y6903D01*
X10528Y6911D01*
X10533Y6920D01*
X10537Y6929D01*
X10541Y6938D01*
X10543Y6948D01*
X10545Y6958D01*
X10545Y6968D01*
Y7293D02*
X10545Y7302D01*
X10543Y7312D01*
X10541Y7322D01*
X10537Y7331D01*
X10533Y7340D01*
X10528Y7349D01*
X10522Y7357D01*
X10516Y7365D01*
X10508Y7371D01*
X10501Y7377D01*
X10492Y7383D01*
X10483Y7387D01*
X10474Y7391D01*
X10464Y7393D01*
X10454Y7395D01*
X10445Y7396D01*
X10435Y7395D01*
X10425Y7394D01*
X10415Y7392D01*
X10405Y7389D01*
X10396Y7385D01*
X10388Y7380D01*
X10379Y7374D01*
X10372Y7368D01*
X10365Y7361D01*
X10359Y7353D01*
X10353Y7345D01*
X10349Y7336D01*
X10345Y7327D01*
X10342Y7317D01*
X10340Y7307D01*
X10339Y7297D01*
Y7288D01*
X10340Y7278D01*
X10342Y7268D01*
X10345Y7258D01*
X10349Y7249D01*
X10353Y7240D01*
X10359Y7232D01*
X10365Y7224D01*
X10372Y7217D01*
X10379Y7211D01*
X10388Y7205D01*
X10396Y7200D01*
X10405Y7196D01*
X10415Y7193D01*
X10425Y7191D01*
X10435Y7190D01*
X10445Y7189D01*
X10454Y7190D01*
X10464Y7192D01*
X10474Y7194D01*
X10483Y7198D01*
X10492Y7202D01*
X10501Y7208D01*
X10508Y7214D01*
X10516Y7221D01*
X10522Y7228D01*
X10528Y7236D01*
X10533Y7245D01*
X10537Y7254D01*
X10541Y7263D01*
X10543Y7273D01*
X10545Y7283D01*
X10545Y7293D01*
X9292Y8168D02*
X9392D01*
X9292Y8268D02*
X9392D01*
Y6668D02*
Y8268D01*
X9292Y6668D02*
X9392D01*
X9292D02*
Y8268D01*
X9092Y8168D02*
X9192D01*
X9092Y8268D02*
X9192D01*
Y6668D02*
Y8268D01*
X9092Y6668D02*
X9192D01*
X9092D02*
Y8268D01*
X9192Y6668D02*
Y8268D01*
Y6668D02*
X9292D01*
Y8268D01*
X9192D02*
X9292D01*
X9192Y8168D02*
X9292D01*
X11092Y7449D02*
Y8249D01*
X10417D02*
X11092D01*
X10417Y7449D02*
Y8249D01*
Y7449D02*
X11092D01*
X10302Y6948D02*
Y6988D01*
X10282Y6968D02*
X10322D01*
X10302Y7273D02*
Y7313D01*
X10282Y7293D02*
X10322D01*
X10917Y7268D02*
Y7368D01*
X10892Y7268D02*
X10917D01*
X10692D02*
X10792D01*
X10567D02*
X10592D01*
X10567D02*
Y7368D01*
Y7393D01*
Y7368D02*
X10917D01*
Y7393D01*
X10567D02*
X10917D01*
Y6943D02*
Y7043D01*
X10892Y6943D02*
X10917D01*
X10692D02*
X10792D01*
X10567D02*
X10592D01*
X10567D02*
Y7043D01*
Y7068D01*
Y7043D02*
X10917D01*
Y7068D01*
X10567D02*
X10917D01*
X8092Y8598D02*
X9324D01*
X9885D02*
X11117D01*
X8092D02*
X8152Y8618D01*
X8092Y8598D02*
X8152Y8578D01*
X11057Y8618D02*
X11117Y8598D01*
X11057Y8578D02*
X11117Y8598D01*
X8092Y8588D02*
Y8608D01*
X11117Y8588D02*
Y8608D01*
X8017Y6468D02*
Y7212D01*
Y7773D02*
Y8518D01*
X7997Y6528D02*
X8017Y6468D01*
X8037Y6528D01*
X7997Y8458D02*
X8017Y8518D01*
X8037Y8458D01*
X8007Y6468D02*
X8027D01*
X8007Y8518D02*
X8027D01*
X8167Y6827D02*
X8187D01*
X8177D01*
Y6768D01*
X8167D01*
X8187D01*
X8217D02*
Y6827D01*
X8257Y6768D01*
Y6827D01*
X8277D02*
X8317D01*
X8297D01*
Y6768D01*
X8377Y6827D02*
X8337D01*
Y6768D01*
X8377D01*
X8337Y6797D02*
X8357D01*
X8397Y6768D02*
Y6827D01*
X8427D01*
X8437Y6817D01*
Y6797D01*
X8427Y6787D01*
X8397D01*
X8417D02*
X8437Y6768D01*
X8497Y6827D02*
X8457D01*
Y6797D01*
X8477D01*
X8457D01*
Y6768D01*
X8517D02*
Y6807D01*
X8537Y6827D01*
X8557Y6807D01*
Y6768D01*
Y6797D01*
X8517D01*
X8617Y6817D02*
X8607Y6827D01*
X8587D01*
X8577Y6817D01*
Y6778D01*
X8587Y6768D01*
X8607D01*
X8617Y6778D01*
X8677Y6827D02*
X8637D01*
Y6768D01*
X8677D01*
X8637Y6797D02*
X8657D01*
X8167Y6868D02*
Y6947D01*
X8207D01*
X8220Y6934D01*
Y6907D01*
X8207Y6894D01*
X8167D01*
X8194D02*
X8220Y6868D01*
X8247Y6947D02*
X8274D01*
X8260D01*
Y6868D01*
X8247D01*
X8274D01*
X8367Y6934D02*
X8354Y6947D01*
X8327D01*
X8314Y6934D01*
Y6921D01*
X8327Y6907D01*
X8354D01*
X8367Y6894D01*
Y6881D01*
X8354Y6868D01*
X8327D01*
X8314Y6881D01*
X8394Y6907D02*
X8447D01*
X8527Y6947D02*
X8500Y6934D01*
X8474Y6907D01*
Y6881D01*
X8487Y6868D01*
X8514D01*
X8527Y6881D01*
Y6894D01*
X8514Y6907D01*
X8474D01*
X8607Y6947D02*
X8554D01*
Y6907D01*
X8580Y6921D01*
X8594D01*
X8607Y6907D01*
Y6881D01*
X8594Y6868D01*
X8567D01*
X8554Y6881D01*
X8687Y6947D02*
X8634D01*
Y6907D01*
X8660Y6921D01*
X8674D01*
X8687Y6907D01*
Y6881D01*
X8674Y6868D01*
X8647D01*
X8634Y6881D01*
X8714Y6907D02*
X8767D01*
X8847Y6947D02*
X8793D01*
Y6907D01*
X8820Y6921D01*
X8833D01*
X8847Y6907D01*
Y6881D01*
X8833Y6868D01*
X8807D01*
X8793Y6881D01*
X10617Y6747D02*
X10657D01*
X10637Y6767D02*
Y6728D01*
X10717Y6777D02*
X10677D01*
Y6747D01*
X10697Y6757D01*
X10707D01*
X10717Y6747D01*
Y6728D01*
X10707Y6718D01*
X10687D01*
X10677Y6728D01*
X10737Y6777D02*
Y6737D01*
X10757Y6718D01*
X10777Y6737D01*
Y6777D01*
X10617Y6547D02*
X10657D01*
X10717Y6577D02*
X10677D01*
Y6547D01*
X10697Y6557D01*
X10707D01*
X10717Y6547D01*
Y6528D01*
X10707Y6518D01*
X10687D01*
X10677Y6528D01*
X10737Y6577D02*
Y6537D01*
X10757Y6518D01*
X10777Y6537D01*
Y6577D01*
X9692Y8318D02*
Y8377D01*
X9712Y8357D01*
X9732Y8377D01*
Y8318D01*
X9782Y8377D02*
X9762D01*
X9752Y8367D01*
Y8328D01*
X9762Y8318D01*
X9782D01*
X9792Y8328D01*
Y8367D01*
X9782Y8377D01*
X9812Y8318D02*
Y8377D01*
X9852Y8318D01*
Y8377D01*
X9872D02*
X9892D01*
X9882D01*
Y8318D01*
X9872D01*
X9892D01*
X9922Y8377D02*
X9962D01*
X9942D01*
Y8318D01*
X10012Y8377D02*
X9992D01*
X9982Y8367D01*
Y8328D01*
X9992Y8318D01*
X10012D01*
X10022Y8328D01*
Y8367D01*
X10012Y8377D01*
X10042Y8318D02*
Y8377D01*
X10072D01*
X10082Y8367D01*
Y8347D01*
X10072Y8337D01*
X10042D01*
X10062D02*
X10082Y8318D01*
X10257Y6667D02*
X10247Y6677D01*
X10227D01*
X10217Y6667D01*
Y6628D01*
X10227Y6618D01*
X10247D01*
X10257Y6628D01*
Y6647D01*
X10237D01*
X10277Y6618D02*
Y6677D01*
X10317Y6618D01*
Y6677D01*
X10337D02*
Y6618D01*
X10367D01*
X10377Y6628D01*
Y6667D01*
X10367Y6677D01*
X10337D01*
X8092Y6468D02*
X11117D01*
Y8518D01*
X8092D02*
X11117D01*
X8092Y6468D02*
Y8518D01*
D22*
X10017Y7468D02*
X10217D01*
X10017Y6968D02*
Y7468D01*
Y6968D02*
X10217D01*
Y7468D01*
X10117Y7368D02*
Y7468D01*
X10017Y7368D02*
X10117D01*
X9692Y7068D02*
X9892D01*
X9692Y6568D02*
Y7068D01*
Y6568D02*
X9892D01*
Y7068D01*
X9792Y6968D02*
Y7068D01*
X9692Y6968D02*
X9792D01*
X10017Y8268D02*
X10217D01*
X10017Y7768D02*
Y8268D01*
Y7768D02*
X10217D01*
Y8268D01*
X10117Y8168D02*
Y8268D01*
X10017Y8168D02*
X10117D01*
X9692Y7768D02*
X9792D01*
Y7868D01*
X9892Y7368D02*
Y7868D01*
X9692Y7368D02*
X9892D01*
X9692D02*
Y7868D01*
X9892D01*
X8642Y8018D02*
X8842D01*
X8642Y7018D02*
Y8018D01*
Y7018D02*
X8842D01*
Y8018D01*
X8742Y7918D02*
Y8018D01*
X8642Y7918D02*
X8742D01*
X8242Y8018D02*
X8442D01*
X8242Y7018D02*
Y8018D01*
Y7018D02*
X8442D01*
Y8018D01*
X8342Y7918D02*
Y8018D01*
X8242Y7918D02*
X8342D01*
D23*
X11052Y7393D02*
X11062D01*
X10972D02*
X10982D01*
X11062Y7198D02*
Y7238D01*
X10972Y7198D02*
Y7238D01*
X11052Y7193D02*
X11062D01*
Y7233D01*
X10972Y7193D02*
X10982D01*
X10972D02*
Y7233D01*
Y7353D02*
Y7393D01*
X11062Y7353D02*
Y7393D01*
X10972Y7233D02*
Y7353D01*
X11062Y7233D02*
Y7353D01*
X10972Y6918D02*
X10982D01*
X11052D02*
X11062D01*
X10972Y7073D02*
Y7113D01*
X11062Y7073D02*
Y7113D01*
X10972Y7118D02*
X10982D01*
X10972Y7078D02*
Y7118D01*
X11052D02*
X11062D01*
Y7078D02*
Y7118D01*
Y6918D02*
Y6958D01*
X10972Y6918D02*
Y6958D01*
X11062D02*
Y7078D01*
X10972Y6958D02*
Y7078D01*
X9450Y7834D02*
X9442Y7842D01*
X9425D01*
X9417Y7834D01*
Y7801D01*
X9425Y7793D01*
X9442D01*
X9450Y7801D01*
X9467Y7842D02*
Y7793D01*
Y7817D01*
X9500D01*
Y7842D01*
Y7793D01*
X9517Y7834D02*
X9525Y7842D01*
X9542D01*
X9550Y7834D01*
Y7801D01*
X9542Y7793D01*
X9525D01*
X9517Y7801D01*
Y7834D01*
X9600Y7842D02*
X9584Y7834D01*
X9567Y7817D01*
Y7801D01*
X9575Y7793D01*
X9592D01*
X9600Y7801D01*
Y7809D01*
X9592Y7817D01*
X9567D01*
X9450Y6934D02*
X9442Y6942D01*
X9425D01*
X9417Y6934D01*
Y6901D01*
X9425Y6893D01*
X9442D01*
X9450Y6901D01*
X9467Y6942D02*
Y6893D01*
Y6917D01*
X9500D01*
Y6942D01*
Y6893D01*
X9517D02*
X9534D01*
X9525D01*
Y6942D01*
X9517Y6934D01*
X9559D02*
X9567Y6942D01*
X9584D01*
X9592Y6934D01*
Y6926D01*
X9584Y6917D01*
X9592Y6909D01*
Y6901D01*
X9584Y6893D01*
X9567D01*
X9559Y6901D01*
Y6909D01*
X9567Y6917D01*
X9559Y6926D01*
Y6934D01*
X9567Y6917D02*
X9584D01*
X8925Y6734D02*
X8917Y6742D01*
X8900D01*
X8892Y6734D01*
Y6701D01*
X8900Y6693D01*
X8917D01*
X8925Y6701D01*
X8942Y6742D02*
Y6693D01*
Y6717D01*
X8975D01*
Y6742D01*
Y6693D01*
X8992D02*
X9009D01*
X9000D01*
Y6742D01*
X8992Y6734D01*
X9034Y6742D02*
X9067D01*
Y6734D01*
X9034Y6701D01*
Y6693D01*
X8925Y7434D02*
X8917Y7442D01*
X8900D01*
X8892Y7434D01*
Y7401D01*
X8900Y7393D01*
X8917D01*
X8925Y7401D01*
X8942Y7442D02*
Y7393D01*
Y7417D01*
X8975D01*
Y7442D01*
Y7393D01*
X8992Y7434D02*
X9000Y7442D01*
X9017D01*
X9025Y7434D01*
Y7426D01*
X9017Y7417D01*
X9009D01*
X9017D01*
X9025Y7409D01*
Y7401D01*
X9017Y7393D01*
X9000D01*
X8992Y7401D01*
X9075Y7393D02*
X9042D01*
X9075Y7426D01*
Y7434D01*
X9067Y7442D01*
X9050D01*
X9042Y7434D01*
X8925Y7334D02*
X8917Y7342D01*
X8900D01*
X8892Y7334D01*
Y7301D01*
X8900Y7293D01*
X8917D01*
X8925Y7301D01*
X8942Y7342D02*
Y7293D01*
Y7317D01*
X8975D01*
Y7342D01*
Y7293D01*
X8992Y7334D02*
X9000Y7342D01*
X9017D01*
X9025Y7334D01*
Y7326D01*
X9017Y7317D01*
X9009D01*
X9017D01*
X9025Y7309D01*
Y7301D01*
X9017Y7293D01*
X9000D01*
X8992Y7301D01*
X9042Y7293D02*
X9059D01*
X9050D01*
Y7342D01*
X9042Y7334D01*
X8925Y6834D02*
X8917Y6842D01*
X8900D01*
X8892Y6834D01*
Y6801D01*
X8900Y6793D01*
X8917D01*
X8925Y6801D01*
X8942Y6842D02*
Y6793D01*
Y6817D01*
X8975D01*
Y6842D01*
Y6793D01*
X8992D02*
X9009D01*
X9000D01*
Y6842D01*
X8992Y6834D01*
X9034Y6801D02*
X9042Y6793D01*
X9059D01*
X9067Y6801D01*
Y6834D01*
X9059Y6842D01*
X9042D01*
X9034Y6834D01*
Y6826D01*
X9042Y6817D01*
X9067D01*
X9450Y7434D02*
X9442Y7442D01*
X9425D01*
X9417Y7434D01*
Y7401D01*
X9425Y7393D01*
X9442D01*
X9450Y7401D01*
X9467Y7442D02*
Y7393D01*
Y7417D01*
X9500D01*
Y7442D01*
Y7393D01*
X9517Y7434D02*
X9525Y7442D01*
X9542D01*
X9550Y7434D01*
Y7426D01*
X9542Y7417D01*
X9534D01*
X9542D01*
X9550Y7409D01*
Y7401D01*
X9542Y7393D01*
X9525D01*
X9517Y7401D01*
X9567Y7434D02*
X9575Y7442D01*
X9592D01*
X9600Y7434D01*
Y7401D01*
X9592Y7393D01*
X9575D01*
X9567Y7401D01*
Y7434D01*
X8925Y7234D02*
X8917Y7242D01*
X8900D01*
X8892Y7234D01*
Y7201D01*
X8900Y7193D01*
X8917D01*
X8925Y7201D01*
X8942Y7242D02*
Y7193D01*
Y7217D01*
X8975D01*
Y7242D01*
Y7193D01*
X9025D02*
X8992D01*
X9025Y7226D01*
Y7234D01*
X9017Y7242D01*
X9000D01*
X8992Y7234D01*
X9042Y7201D02*
X9050Y7193D01*
X9067D01*
X9075Y7201D01*
Y7234D01*
X9067Y7242D01*
X9050D01*
X9042Y7234D01*
Y7226D01*
X9050Y7217D01*
X9075D01*
X9450Y7334D02*
X9442Y7342D01*
X9425D01*
X9417Y7334D01*
Y7301D01*
X9425Y7293D01*
X9442D01*
X9450Y7301D01*
X9467Y7342D02*
Y7293D01*
Y7317D01*
X9500D01*
Y7342D01*
Y7293D01*
X9550D02*
X9517D01*
X9550Y7326D01*
Y7334D01*
X9542Y7342D01*
X9525D01*
X9517Y7334D01*
X9567D02*
X9575Y7342D01*
X9592D01*
X9600Y7334D01*
Y7326D01*
X9592Y7317D01*
X9600Y7309D01*
Y7301D01*
X9592Y7293D01*
X9575D01*
X9567Y7301D01*
Y7309D01*
X9575Y7317D01*
X9567Y7326D01*
Y7334D01*
X9575Y7317D02*
X9592D01*
X9450Y7234D02*
X9442Y7242D01*
X9425D01*
X9417Y7234D01*
Y7201D01*
X9425Y7193D01*
X9442D01*
X9450Y7201D01*
X9467Y7242D02*
Y7193D01*
Y7217D01*
X9500D01*
Y7242D01*
Y7193D01*
X9550D02*
X9517D01*
X9550Y7226D01*
Y7234D01*
X9542Y7242D01*
X9525D01*
X9517Y7234D01*
X9567Y7242D02*
X9600D01*
Y7234D01*
X9567Y7201D01*
Y7193D01*
X8925Y7134D02*
X8917Y7142D01*
X8900D01*
X8892Y7134D01*
Y7101D01*
X8900Y7093D01*
X8917D01*
X8925Y7101D01*
X8942Y7142D02*
Y7093D01*
Y7117D01*
X8975D01*
Y7142D01*
Y7093D01*
X9025D02*
X8992D01*
X9025Y7126D01*
Y7134D01*
X9017Y7142D01*
X9000D01*
X8992Y7134D01*
X9075Y7142D02*
X9042D01*
Y7117D01*
X9059Y7126D01*
X9067D01*
X9075Y7117D01*
Y7101D01*
X9067Y7093D01*
X9050D01*
X9042Y7101D01*
X8925Y6934D02*
X8917Y6942D01*
X8900D01*
X8892Y6934D01*
Y6901D01*
X8900Y6893D01*
X8917D01*
X8925Y6901D01*
X8942Y6942D02*
Y6893D01*
Y6917D01*
X8975D01*
Y6942D01*
Y6893D01*
X9025D02*
X8992D01*
X9025Y6926D01*
Y6934D01*
X9017Y6942D01*
X9000D01*
X8992Y6934D01*
X9067Y6893D02*
Y6942D01*
X9042Y6917D01*
X9075D01*
X9450Y6834D02*
X9442Y6842D01*
X9425D01*
X9417Y6834D01*
Y6801D01*
X9425Y6793D01*
X9442D01*
X9450Y6801D01*
X9467Y6842D02*
Y6793D01*
Y6817D01*
X9500D01*
Y6842D01*
Y6793D01*
X9550D02*
X9517D01*
X9550Y6826D01*
Y6834D01*
X9542Y6842D01*
X9525D01*
X9517Y6834D01*
X9567D02*
X9575Y6842D01*
X9592D01*
X9600Y6834D01*
Y6826D01*
X9592Y6817D01*
X9584D01*
X9592D01*
X9600Y6809D01*
Y6801D01*
X9592Y6793D01*
X9575D01*
X9567Y6801D01*
X9450Y6734D02*
X9442Y6742D01*
X9425D01*
X9417Y6734D01*
Y6701D01*
X9425Y6693D01*
X9442D01*
X9450Y6701D01*
X9467Y6742D02*
Y6693D01*
Y6717D01*
X9500D01*
Y6742D01*
Y6693D01*
X9550D02*
X9517D01*
X9550Y6726D01*
Y6734D01*
X9542Y6742D01*
X9525D01*
X9517Y6734D01*
X9567Y6693D02*
X9584D01*
X9575D01*
Y6742D01*
X9567Y6734D01*
X9450Y7034D02*
X9442Y7042D01*
X9425D01*
X9417Y7034D01*
Y7001D01*
X9425Y6993D01*
X9442D01*
X9450Y7001D01*
X9467Y7042D02*
Y6993D01*
Y7017D01*
X9500D01*
Y7042D01*
Y6993D01*
X9550D02*
X9517D01*
X9550Y7026D01*
Y7034D01*
X9542Y7042D01*
X9525D01*
X9517Y7034D01*
X9567D02*
X9575Y7042D01*
X9592D01*
X9600Y7034D01*
Y7001D01*
X9592Y6993D01*
X9575D01*
X9567Y7001D01*
Y7034D01*
X8750Y8134D02*
X8742Y8142D01*
X8725D01*
X8717Y8134D01*
Y8101D01*
X8725Y8093D01*
X8742D01*
X8750Y8101D01*
X8767Y8142D02*
Y8093D01*
Y8117D01*
X8800D01*
Y8142D01*
Y8093D01*
X8817D02*
X8834D01*
X8825D01*
Y8142D01*
X8817Y8134D01*
X8892Y8142D02*
X8875Y8134D01*
X8859Y8117D01*
Y8101D01*
X8867Y8093D01*
X8884D01*
X8892Y8101D01*
Y8109D01*
X8884Y8117D01*
X8859D01*
X8909D02*
X8942D01*
X8959Y8093D02*
Y8142D01*
X8984D01*
X8992Y8134D01*
Y8117D01*
X8984Y8109D01*
X8959D01*
X8975D02*
X8992Y8093D01*
X9042Y8142D02*
X9009D01*
Y8093D01*
X9042D01*
X9009Y8117D02*
X9025D01*
X9092Y8142D02*
X9059D01*
Y8117D01*
X9075D01*
X9059D01*
Y8093D01*
X9450Y8134D02*
X9442Y8142D01*
X9425D01*
X9417Y8134D01*
Y8101D01*
X9425Y8093D01*
X9442D01*
X9450Y8101D01*
X9467Y8142D02*
Y8093D01*
Y8117D01*
X9500D01*
Y8142D01*
Y8093D01*
X9517D02*
X9534D01*
X9525D01*
Y8142D01*
X9517Y8134D01*
X9592Y8142D02*
X9559D01*
Y8117D01*
X9575Y8126D01*
X9584D01*
X9592Y8117D01*
Y8101D01*
X9584Y8093D01*
X9567D01*
X9559Y8101D01*
X8925Y8034D02*
X8917Y8042D01*
X8900D01*
X8892Y8034D01*
Y8001D01*
X8900Y7993D01*
X8917D01*
X8925Y8001D01*
X8942Y8042D02*
Y7993D01*
Y8017D01*
X8975D01*
Y8042D01*
Y7993D01*
X8992D02*
X9009D01*
X9000D01*
Y8042D01*
X8992Y8034D01*
X9059Y7993D02*
Y8042D01*
X9034Y8017D01*
X9067D01*
X9450Y8034D02*
X9442Y8042D01*
X9425D01*
X9417Y8034D01*
Y8001D01*
X9425Y7993D01*
X9442D01*
X9450Y8001D01*
X9467Y8042D02*
Y7993D01*
Y8017D01*
X9500D01*
Y8042D01*
Y7993D01*
X9517D02*
X9534D01*
X9525D01*
Y8042D01*
X9517Y8034D01*
X9559D02*
X9567Y8042D01*
X9584D01*
X9592Y8034D01*
Y8026D01*
X9584Y8017D01*
X9575D01*
X9584D01*
X9592Y8009D01*
Y8001D01*
X9584Y7993D01*
X9567D01*
X9559Y8001D01*
X8925Y8234D02*
X8917Y8242D01*
X8900D01*
X8892Y8234D01*
Y8201D01*
X8900Y8193D01*
X8917D01*
X8925Y8201D01*
X8942Y8242D02*
Y8193D01*
Y8217D01*
X8975D01*
Y8242D01*
Y8193D01*
X8992D02*
X9009D01*
X9000D01*
Y8242D01*
X8992Y8234D01*
X9067Y8193D02*
X9034D01*
X9067Y8226D01*
Y8234D01*
X9059Y8242D01*
X9042D01*
X9034Y8234D01*
X9450Y7534D02*
X9442Y7542D01*
X9425D01*
X9417Y7534D01*
Y7501D01*
X9425Y7493D01*
X9442D01*
X9450Y7501D01*
X9467Y7542D02*
Y7493D01*
Y7517D01*
X9500D01*
Y7542D01*
Y7493D01*
X9517D02*
X9534D01*
X9525D01*
Y7542D01*
X9517Y7534D01*
X9559Y7493D02*
X9575D01*
X9567D01*
Y7542D01*
X9559Y7534D01*
X9450Y8234D02*
X9442Y8242D01*
X9425D01*
X9417Y8234D01*
Y8201D01*
X9425Y8193D01*
X9442D01*
X9450Y8201D01*
X9467Y8242D02*
Y8193D01*
Y8217D01*
X9500D01*
Y8242D01*
Y8193D01*
X9517D02*
X9534D01*
X9525D01*
Y8242D01*
X9517Y8234D01*
X9559D02*
X9567Y8242D01*
X9584D01*
X9592Y8234D01*
Y8201D01*
X9584Y8193D01*
X9567D01*
X9559Y8201D01*
Y8234D01*
X8925Y7534D02*
X8917Y7542D01*
X8900D01*
X8892Y7534D01*
Y7501D01*
X8900Y7493D01*
X8917D01*
X8925Y7501D01*
X8942Y7542D02*
Y7493D01*
Y7517D01*
X8975D01*
Y7542D01*
Y7493D01*
X8992Y7534D02*
X9000Y7542D01*
X9017D01*
X9025Y7534D01*
Y7501D01*
X9017Y7493D01*
X9000D01*
X8992Y7501D01*
Y7534D01*
X9042Y7501D02*
X9050Y7493D01*
X9067D01*
X9075Y7501D01*
Y7534D01*
X9067Y7542D01*
X9050D01*
X9042Y7534D01*
Y7526D01*
X9050Y7517D01*
X9075D01*
X8925Y7834D02*
X8917Y7842D01*
X8900D01*
X8892Y7834D01*
Y7801D01*
X8900Y7793D01*
X8917D01*
X8925Y7801D01*
X8942Y7842D02*
Y7793D01*
Y7817D01*
X8975D01*
Y7842D01*
Y7793D01*
X8992Y7834D02*
X9000Y7842D01*
X9017D01*
X9025Y7834D01*
Y7801D01*
X9017Y7793D01*
X9000D01*
X8992Y7801D01*
Y7834D01*
X9042D02*
X9050Y7842D01*
X9067D01*
X9075Y7834D01*
Y7826D01*
X9067Y7817D01*
X9075Y7809D01*
Y7801D01*
X9067Y7793D01*
X9050D01*
X9042Y7801D01*
Y7809D01*
X9050Y7817D01*
X9042Y7826D01*
Y7834D01*
X9050Y7817D02*
X9067D01*
X9450Y7634D02*
X9442Y7642D01*
X9425D01*
X9417Y7634D01*
Y7601D01*
X9425Y7593D01*
X9442D01*
X9450Y7601D01*
X9467Y7642D02*
Y7593D01*
Y7617D01*
X9500D01*
Y7642D01*
Y7593D01*
X9517Y7634D02*
X9525Y7642D01*
X9542D01*
X9550Y7634D01*
Y7601D01*
X9542Y7593D01*
X9525D01*
X9517Y7601D01*
Y7634D01*
X9567Y7642D02*
X9600D01*
Y7634D01*
X9567Y7601D01*
Y7593D01*
X8925Y7634D02*
X8917Y7642D01*
X8900D01*
X8892Y7634D01*
Y7601D01*
X8900Y7593D01*
X8917D01*
X8925Y7601D01*
X8942Y7642D02*
Y7593D01*
Y7617D01*
X8975D01*
Y7642D01*
Y7593D01*
X8992Y7634D02*
X9000Y7642D01*
X9017D01*
X9025Y7634D01*
Y7601D01*
X9017Y7593D01*
X9000D01*
X8992Y7601D01*
Y7634D01*
X9075Y7642D02*
X9042D01*
Y7617D01*
X9059Y7626D01*
X9067D01*
X9075Y7617D01*
Y7601D01*
X9067Y7593D01*
X9050D01*
X9042Y7601D01*
X8925Y7934D02*
X8917Y7942D01*
X8900D01*
X8892Y7934D01*
Y7901D01*
X8900Y7893D01*
X8917D01*
X8925Y7901D01*
X8942Y7942D02*
Y7893D01*
Y7917D01*
X8975D01*
Y7942D01*
Y7893D01*
X8992Y7934D02*
X9000Y7942D01*
X9017D01*
X9025Y7934D01*
Y7901D01*
X9017Y7893D01*
X9000D01*
X8992Y7901D01*
Y7934D01*
X9067Y7893D02*
Y7942D01*
X9042Y7917D01*
X9075D01*
X9450Y7734D02*
X9442Y7742D01*
X9425D01*
X9417Y7734D01*
Y7701D01*
X9425Y7693D01*
X9442D01*
X9450Y7701D01*
X9467Y7742D02*
Y7693D01*
Y7717D01*
X9500D01*
Y7742D01*
Y7693D01*
X9517Y7734D02*
X9525Y7742D01*
X9542D01*
X9550Y7734D01*
Y7701D01*
X9542Y7693D01*
X9525D01*
X9517Y7701D01*
Y7734D01*
X9567D02*
X9575Y7742D01*
X9592D01*
X9600Y7734D01*
Y7726D01*
X9592Y7717D01*
X9584D01*
X9592D01*
X9600Y7709D01*
Y7701D01*
X9592Y7693D01*
X9575D01*
X9567Y7701D01*
X8925Y7734D02*
X8917Y7742D01*
X8900D01*
X8892Y7734D01*
Y7701D01*
X8900Y7693D01*
X8917D01*
X8925Y7701D01*
X8942Y7742D02*
Y7693D01*
Y7717D01*
X8975D01*
Y7742D01*
Y7693D01*
X8992Y7734D02*
X9000Y7742D01*
X9017D01*
X9025Y7734D01*
Y7701D01*
X9017Y7693D01*
X9000D01*
X8992Y7701D01*
Y7734D01*
X9075Y7693D02*
X9042D01*
X9075Y7726D01*
Y7734D01*
X9067Y7742D01*
X9050D01*
X9042Y7734D01*
X9450Y7934D02*
X9442Y7942D01*
X9425D01*
X9417Y7934D01*
Y7901D01*
X9425Y7893D01*
X9442D01*
X9450Y7901D01*
X9467Y7942D02*
Y7893D01*
Y7917D01*
X9500D01*
Y7942D01*
Y7893D01*
X9517Y7934D02*
X9525Y7942D01*
X9542D01*
X9550Y7934D01*
Y7901D01*
X9542Y7893D01*
X9525D01*
X9517Y7901D01*
Y7934D01*
X9567Y7893D02*
X9584D01*
X9575D01*
Y7942D01*
X9567Y7934D01*
X9450Y7134D02*
X9442Y7142D01*
X9425D01*
X9417Y7134D01*
Y7101D01*
X9425Y7093D01*
X9442D01*
X9450Y7101D01*
X9467Y7142D02*
Y7093D01*
Y7117D01*
X9500D01*
Y7142D01*
Y7093D01*
X9550D02*
X9517D01*
X9550Y7126D01*
Y7134D01*
X9542Y7142D01*
X9525D01*
X9517Y7134D01*
X9600Y7093D02*
X9567D01*
X9600Y7126D01*
Y7134D01*
X9592Y7142D01*
X9575D01*
X9567Y7134D01*
X8925Y7034D02*
X8917Y7042D01*
X8900D01*
X8892Y7034D01*
Y7001D01*
X8900Y6993D01*
X8917D01*
X8925Y7001D01*
X8942Y7042D02*
Y6993D01*
Y7017D01*
X8975D01*
Y7042D01*
Y6993D01*
X9025D02*
X8992D01*
X9025Y7026D01*
Y7034D01*
X9017Y7042D01*
X9000D01*
X8992Y7034D01*
X9075Y7042D02*
X9059Y7034D01*
X9042Y7017D01*
Y7001D01*
X9050Y6993D01*
X9067D01*
X9075Y7001D01*
Y7009D01*
X9067Y7017D01*
X9042D01*
D24*
X9869Y7207D02*
X9855D01*
X9862D01*
Y7174D01*
X9855Y7168D01*
X9849D01*
X9842Y7174D01*
X9882Y7201D02*
X9889Y7207D01*
X9902D01*
X9909Y7201D01*
Y7174D01*
X9902Y7168D01*
X9889D01*
X9882Y7174D01*
Y7201D01*
X9922Y7174D02*
X9929Y7168D01*
X9942D01*
X9949Y7174D01*
Y7201D01*
X9942Y7207D01*
X9929D01*
X9922Y7201D01*
Y7194D01*
X9929Y7187D01*
X9949D01*
X9944Y6857D02*
X9930D01*
X9937D01*
Y6824D01*
X9930Y6818D01*
X9924D01*
X9917Y6824D01*
X9957Y6851D02*
X9964Y6857D01*
X9977D01*
X9984Y6851D01*
Y6824D01*
X9977Y6818D01*
X9964D01*
X9957Y6824D01*
Y6851D01*
X9997D02*
X10004Y6857D01*
X10017D01*
X10024Y6851D01*
Y6844D01*
X10017Y6837D01*
X10024Y6831D01*
Y6824D01*
X10017Y6818D01*
X10004D01*
X9997Y6824D01*
Y6831D01*
X10004Y6837D01*
X9997Y6844D01*
Y6851D01*
X10004Y6837D02*
X10017D01*
X9094Y8382D02*
X9080D01*
X9087D01*
Y8349D01*
X9080Y8343D01*
X9074D01*
X9067Y8349D01*
X9107Y8376D02*
X9114Y8382D01*
X9127D01*
X9134Y8376D01*
Y8349D01*
X9127Y8343D01*
X9114D01*
X9107Y8349D01*
Y8376D01*
X9174Y8382D02*
X9147D01*
Y8362D01*
X9160Y8369D01*
X9167D01*
X9174Y8362D01*
Y8349D01*
X9167Y8343D01*
X9154D01*
X9147Y8349D01*
X9344Y8382D02*
X9330D01*
X9337D01*
Y8349D01*
X9330Y8343D01*
X9324D01*
X9317Y8349D01*
X9357Y8376D02*
X9364Y8382D01*
X9377D01*
X9384Y8376D01*
Y8349D01*
X9377Y8343D01*
X9364D01*
X9357Y8349D01*
Y8376D01*
X9397D02*
X9404Y8382D01*
X9417D01*
X9424Y8376D01*
Y8369D01*
X9417Y8362D01*
X9410D01*
X9417D01*
X9424Y8356D01*
Y8349D01*
X9417Y8343D01*
X9404D01*
X9397Y8349D01*
X10367Y8293D02*
Y8332D01*
X10387D01*
X10394Y8326D01*
Y8312D01*
X10387Y8306D01*
X10367D01*
X10407Y8326D02*
X10414Y8332D01*
X10427D01*
X10434Y8326D01*
Y8299D01*
X10427Y8293D01*
X10414D01*
X10407Y8299D01*
Y8326D01*
X10447Y8293D02*
X10460D01*
X10454D01*
Y8332D01*
X10447Y8326D01*
X10869Y7226D02*
X10862Y7232D01*
X10849D01*
X10842Y7226D01*
Y7199D01*
X10849Y7193D01*
X10862D01*
X10869Y7199D01*
X10882Y7226D02*
X10889Y7232D01*
X10902D01*
X10909Y7226D01*
Y7199D01*
X10902Y7193D01*
X10889D01*
X10882Y7199D01*
Y7226D01*
X10942Y7193D02*
Y7232D01*
X10922Y7212D01*
X10949D01*
X10319Y7451D02*
X10312Y7457D01*
X10299D01*
X10292Y7451D01*
Y7424D01*
X10299Y7418D01*
X10312D01*
X10319Y7424D01*
X10332Y7451D02*
X10339Y7457D01*
X10352D01*
X10359Y7451D01*
Y7424D01*
X10352Y7418D01*
X10339D01*
X10332Y7424D01*
Y7451D01*
X10372D02*
X10379Y7457D01*
X10392D01*
X10399Y7451D01*
Y7444D01*
X10392Y7437D01*
X10385D01*
X10392D01*
X10399Y7431D01*
Y7424D01*
X10392Y7418D01*
X10379D01*
X10372Y7424D01*
X10869Y7126D02*
X10862Y7132D01*
X10849D01*
X10842Y7126D01*
Y7099D01*
X10849Y7093D01*
X10862D01*
X10869Y7099D01*
X10882Y7126D02*
X10889Y7132D01*
X10902D01*
X10909Y7126D01*
Y7099D01*
X10902Y7093D01*
X10889D01*
X10882Y7099D01*
Y7126D01*
X10949Y7093D02*
X10922D01*
X10949Y7119D01*
Y7126D01*
X10942Y7132D01*
X10929D01*
X10922Y7126D01*
X10344D02*
X10337Y7132D01*
X10324D01*
X10317Y7126D01*
Y7099D01*
X10324Y7093D01*
X10337D01*
X10344Y7099D01*
X10357Y7126D02*
X10364Y7132D01*
X10377D01*
X10384Y7126D01*
Y7099D01*
X10377Y7093D01*
X10364D01*
X10357Y7099D01*
Y7126D01*
X10397Y7093D02*
X10410D01*
X10404D01*
Y7132D01*
X10397Y7126D01*
X9919Y8057D02*
X9905D01*
X9912D01*
Y8024D01*
X9905Y8018D01*
X9899D01*
X9892Y8024D01*
X9932Y8051D02*
X9939Y8057D01*
X9952D01*
X9959Y8051D01*
Y8024D01*
X9952Y8018D01*
X9939D01*
X9932Y8024D01*
Y8051D01*
X9972Y8057D02*
X9999D01*
Y8051D01*
X9972Y8024D01*
Y8018D01*
X9944Y7707D02*
X9930D01*
X9937D01*
Y7674D01*
X9930Y7668D01*
X9924D01*
X9917Y7674D01*
X9957Y7701D02*
X9964Y7707D01*
X9977D01*
X9984Y7701D01*
Y7674D01*
X9977Y7668D01*
X9964D01*
X9957Y7674D01*
Y7701D01*
X10024Y7707D02*
X10010Y7701D01*
X9997Y7687D01*
Y7674D01*
X10004Y7668D01*
X10017D01*
X10024Y7674D01*
Y7681D01*
X10017Y7687D01*
X9997D01*
X9219Y8357D02*
X9205D01*
X9212D01*
Y8324D01*
X9205Y8318D01*
X9199D01*
X9192Y8324D01*
X9232Y8351D02*
X9239Y8357D01*
X9252D01*
X9259Y8351D01*
Y8324D01*
X9252Y8318D01*
X9239D01*
X9232Y8324D01*
Y8351D01*
X9292Y8318D02*
Y8357D01*
X9272Y8337D01*
X9299D01*
X10567Y7132D02*
Y7099D01*
X10574Y7093D01*
X10587D01*
X10594Y7099D01*
Y7132D01*
X10607Y7126D02*
X10614Y7132D01*
X10627D01*
X10634Y7126D01*
Y7099D01*
X10627Y7093D01*
X10614D01*
X10607Y7099D01*
Y7126D01*
X10647Y7093D02*
X10660D01*
X10654D01*
Y7132D01*
X10647Y7126D01*
X10567Y7232D02*
Y7199D01*
X10574Y7193D01*
X10587D01*
X10594Y7199D01*
Y7232D01*
X10607Y7226D02*
X10614Y7232D01*
X10627D01*
X10634Y7226D01*
Y7199D01*
X10627Y7193D01*
X10614D01*
X10607Y7199D01*
Y7226D01*
X10674Y7193D02*
X10647D01*
X10674Y7219D01*
Y7226D01*
X10667Y7232D01*
X10654D01*
X10647Y7226D01*
X8619Y8107D02*
X8605D01*
X8612D01*
Y8074D01*
X8605Y8068D01*
X8599D01*
X8592Y8074D01*
X8632Y8101D02*
X8639Y8107D01*
X8652D01*
X8659Y8101D01*
Y8074D01*
X8652Y8068D01*
X8639D01*
X8632Y8074D01*
Y8101D01*
X8672Y8068D02*
X8685D01*
X8679D01*
Y8107D01*
X8672Y8101D01*
X8219Y8107D02*
X8205D01*
X8212D01*
Y8074D01*
X8205Y8068D01*
X8199D01*
X8192Y8074D01*
X8232Y8101D02*
X8239Y8107D01*
X8252D01*
X8259Y8101D01*
Y8074D01*
X8252Y8068D01*
X8239D01*
X8232Y8074D01*
Y8101D01*
X8299Y8068D02*
X8272D01*
X8299Y8094D01*
Y8101D01*
X8292Y8107D01*
X8279D01*
X8272Y8101D01*
X9817Y8001D02*
X9824Y8007D01*
X9837D01*
X9844Y8001D01*
Y7974D01*
X9837Y7968D01*
X9824D01*
X9817Y7974D01*
Y8001D01*
X9857Y7974D02*
X9864Y7968D01*
X9877D01*
X9884Y7974D01*
Y8001D01*
X9877Y8007D01*
X9864D01*
X9857Y8001D01*
Y7994D01*
X9864Y7987D01*
X9884D01*
X9897D02*
X9924D01*
X9937Y7968D02*
X9950D01*
X9944D01*
Y8007D01*
X9937Y8001D01*
X9997Y8007D02*
X9984Y8001D01*
X9970Y7987D01*
Y7974D01*
X9977Y7968D01*
X9990D01*
X9997Y7974D01*
Y7981D01*
X9990Y7987D01*
X9970D01*
X9917Y7651D02*
X9924Y7657D01*
X9937D01*
X9944Y7651D01*
Y7624D01*
X9937Y7618D01*
X9924D01*
X9917Y7624D01*
Y7651D01*
X9957Y7618D02*
X9970D01*
X9964D01*
Y7657D01*
X9957Y7651D01*
X9990Y7637D02*
X10017D01*
X10030Y7651D02*
X10037Y7657D01*
X10050D01*
X10057Y7651D01*
Y7624D01*
X10050Y7618D01*
X10037D01*
X10030Y7624D01*
Y7651D01*
X10070D02*
X10077Y7657D01*
X10090D01*
X10097Y7651D01*
Y7644D01*
X10090Y7637D01*
X10097Y7631D01*
Y7624D01*
X10090Y7618D01*
X10077D01*
X10070Y7624D01*
Y7631D01*
X10077Y7637D01*
X10070Y7644D01*
Y7651D01*
X10077Y7637D02*
X10090D01*
X9844Y7118D02*
X9817D01*
X9844Y7144D01*
Y7151D01*
X9837Y7157D01*
X9824D01*
X9817Y7151D01*
X9884Y7157D02*
X9857D01*
Y7137D01*
X9870Y7144D01*
X9877D01*
X9884Y7137D01*
Y7124D01*
X9877Y7118D01*
X9864D01*
X9857Y7124D01*
X9897Y7137D02*
X9924D01*
X9937Y7151D02*
X9944Y7157D01*
X9957D01*
X9964Y7151D01*
Y7144D01*
X9957Y7137D01*
X9950D01*
X9957D01*
X9964Y7131D01*
Y7124D01*
X9957Y7118D01*
X9944D01*
X9937Y7124D01*
X10004Y7118D02*
X9977D01*
X10004Y7144D01*
Y7151D01*
X9997Y7157D01*
X9984D01*
X9977Y7151D01*
X9917Y6768D02*
X9930D01*
X9924D01*
Y6807D01*
X9917Y6801D01*
X9950Y6807D02*
X9977D01*
Y6801D01*
X9950Y6774D01*
Y6768D01*
X9990Y6787D02*
X10017D01*
X10057Y6768D02*
X10030D01*
X10057Y6794D01*
Y6801D01*
X10050Y6807D01*
X10037D01*
X10030Y6801D01*
X10090Y6768D02*
Y6807D01*
X10070Y6787D01*
X10097D01*
X8167Y6693D02*
Y6732D01*
X8187D01*
X8194Y6726D01*
Y6712D01*
X8187Y6706D01*
X8167D01*
X8180D02*
X8194Y6693D01*
X8227Y6732D02*
X8214D01*
X8207Y6726D01*
Y6699D01*
X8214Y6693D01*
X8227D01*
X8234Y6699D01*
Y6726D01*
X8227Y6732D01*
X8247D02*
Y6693D01*
X8260Y6706D01*
X8274Y6693D01*
Y6732D01*
X8287D02*
Y6693D01*
X8314D01*
X8327D02*
Y6719D01*
X8340Y6732D01*
X8354Y6719D01*
Y6693D01*
Y6712D01*
X8327D01*
X8367Y6693D02*
Y6732D01*
X8394Y6693D01*
Y6732D01*
X8407D02*
Y6693D01*
X8427D01*
X8434Y6699D01*
Y6726D01*
X8427Y6732D01*
X8407D01*
X8487D02*
X8500D01*
X8494D01*
Y6693D01*
X8487D01*
X8500D01*
X8520D02*
Y6732D01*
X8547Y6693D01*
Y6732D01*
X8587Y6726D02*
X8580Y6732D01*
X8567D01*
X8560Y6726D01*
Y6719D01*
X8567Y6712D01*
X8580D01*
X8587Y6706D01*
Y6699D01*
X8580Y6693D01*
X8567D01*
X8560Y6699D01*
X8600Y6732D02*
X8627D01*
X8614D01*
Y6693D01*
X8640Y6732D02*
X8654D01*
X8647D01*
Y6693D01*
X8640D01*
X8654D01*
X8674Y6732D02*
X8700D01*
X8687D01*
Y6693D01*
X8714Y6732D02*
Y6699D01*
X8720Y6693D01*
X8733D01*
X8740Y6699D01*
Y6732D01*
X8753D02*
X8780D01*
X8767D01*
Y6693D01*
X8820Y6732D02*
X8793D01*
Y6693D01*
X8820D01*
X8793Y6712D02*
X8807D01*
X8342Y6568D02*
Y6607D01*
X8362D01*
X8369Y6601D01*
Y6587D01*
X8362Y6581D01*
X8342D01*
X8355D02*
X8369Y6568D01*
X8382Y6607D02*
X8395D01*
X8389D01*
Y6568D01*
X8382D01*
X8395D01*
X8442Y6601D02*
X8435Y6607D01*
X8422D01*
X8415Y6601D01*
Y6594D01*
X8422Y6587D01*
X8435D01*
X8442Y6581D01*
Y6574D01*
X8435Y6568D01*
X8422D01*
X8415Y6574D01*
X8522Y6607D02*
X8509Y6601D01*
X8495Y6587D01*
Y6574D01*
X8502Y6568D01*
X8515D01*
X8522Y6574D01*
Y6581D01*
X8515Y6587D01*
X8495D01*
X8562Y6607D02*
X8549Y6601D01*
X8535Y6587D01*
Y6574D01*
X8542Y6568D01*
X8555D01*
X8562Y6574D01*
Y6581D01*
X8555Y6587D01*
X8535D01*
X8602Y6607D02*
X8575D01*
Y6587D01*
X8589Y6594D01*
X8595D01*
X8602Y6587D01*
Y6574D01*
X8595Y6568D01*
X8582D01*
X8575Y6574D01*
X8615Y6587D02*
X8642D01*
X8682Y6607D02*
X8655D01*
Y6587D01*
X8669Y6594D01*
X8675D01*
X8682Y6587D01*
Y6574D01*
X8675Y6568D01*
X8662D01*
X8655Y6574D01*
X8735Y6601D02*
X8742Y6607D01*
X8755D01*
X8762Y6601D01*
Y6594D01*
X8755Y6587D01*
X8749D01*
X8755D01*
X8762Y6581D01*
Y6574D01*
X8755Y6568D01*
X8742D01*
X8735Y6574D01*
X8775Y6601D02*
X8782Y6607D01*
X8795D01*
X8802Y6601D01*
Y6574D01*
X8795Y6568D01*
X8782D01*
X8775Y6574D01*
Y6601D01*
X8815Y6568D02*
Y6607D01*
X8829Y6594D01*
X8842Y6607D01*
Y6568D01*
X8855D02*
Y6594D01*
X8869Y6607D01*
X8882Y6594D01*
Y6568D01*
Y6587D01*
X8855D01*
X8895Y6568D02*
Y6607D01*
X8915D01*
X8922Y6601D01*
Y6587D01*
X8915Y6581D01*
X8895D01*
X8908D02*
X8922Y6568D01*
X8935Y6601D02*
X8942Y6607D01*
X8955D01*
X8962Y6601D01*
Y6574D01*
X8955Y6568D01*
X8942D01*
X8935Y6574D01*
Y6601D01*
X8975D02*
X8982Y6607D01*
X8995D01*
X9002Y6601D01*
Y6594D01*
X8995Y6587D01*
X9002Y6581D01*
Y6574D01*
X8995Y6568D01*
X8982D01*
X8975Y6574D01*
Y6581D01*
X8982Y6587D01*
X8975Y6594D01*
Y6601D01*
X8982Y6587D02*
X8995D01*
X9082Y6601D02*
X9075Y6607D01*
X9062D01*
X9055Y6601D01*
Y6574D01*
X9062Y6568D01*
X9075D01*
X9082Y6574D01*
X9162Y6607D02*
X9135D01*
Y6587D01*
X9148D01*
X9135D01*
Y6568D01*
X9175Y6607D02*
X9188D01*
X9182D01*
Y6568D01*
X9175D01*
X9188D01*
X9235Y6601D02*
X9228Y6607D01*
X9215D01*
X9208Y6601D01*
Y6594D01*
X9215Y6587D01*
X9228D01*
X9235Y6581D01*
Y6574D01*
X9228Y6568D01*
X9215D01*
X9208Y6574D01*
X9248Y6607D02*
Y6568D01*
Y6581D01*
X9275Y6607D01*
X9255Y6587D01*
X9275Y6568D01*
D25*
X9334Y8611D02*
X9344Y8621D01*
X9364D01*
X9374Y8611D01*
Y8602D01*
X9364Y8592D01*
X9354D01*
X9364D01*
X9374Y8582D01*
Y8572D01*
X9364Y8562D01*
X9344D01*
X9334Y8572D01*
X9394Y8611D02*
X9404Y8621D01*
X9424D01*
X9434Y8611D01*
Y8572D01*
X9424Y8562D01*
X9404D01*
X9394Y8572D01*
Y8611D01*
X9494Y8562D02*
X9454D01*
X9494Y8602D01*
Y8611D01*
X9484Y8621D01*
X9464D01*
X9454Y8611D01*
X9554Y8621D02*
X9514D01*
Y8592D01*
X9534Y8602D01*
X9544D01*
X9554Y8592D01*
Y8572D01*
X9544Y8562D01*
X9524D01*
X9514Y8572D01*
X9653Y8562D02*
X9634Y8582D01*
Y8602D01*
X9653Y8621D01*
X9683Y8562D02*
Y8602D01*
X9693D01*
X9703Y8592D01*
Y8562D01*
Y8592D01*
X9713Y8602D01*
X9723Y8592D01*
Y8562D01*
X9743D02*
X9763D01*
X9753D01*
Y8602D01*
X9743D01*
X9793Y8562D02*
X9813D01*
X9803D01*
Y8621D01*
X9793D01*
X9843Y8562D02*
X9863Y8582D01*
Y8602D01*
X9843Y8621D01*
X8053Y7262D02*
Y7222D01*
X8013Y7262D01*
X8003D01*
X7993Y7252D01*
Y7232D01*
X8003Y7222D01*
Y7282D02*
X7993Y7292D01*
Y7312D01*
X8003Y7322D01*
X8043D01*
X8053Y7312D01*
Y7292D01*
X8043Y7282D01*
X8003D01*
X7993Y7382D02*
Y7342D01*
X8023D01*
X8013Y7362D01*
Y7372D01*
X8023Y7382D01*
X8043D01*
X8053Y7372D01*
Y7352D01*
X8043Y7342D01*
X8003Y7402D02*
X7993Y7412D01*
Y7432D01*
X8003Y7442D01*
X8043D01*
X8053Y7432D01*
Y7412D01*
X8043Y7402D01*
X8003D01*
X8053Y7541D02*
X8033Y7521D01*
X8013D01*
X7993Y7541D01*
X8053Y7571D02*
X8013D01*
Y7581D01*
X8023Y7591D01*
X8053D01*
X8023D01*
X8013Y7601D01*
X8023Y7611D01*
X8053D01*
Y7631D02*
Y7651D01*
Y7641D01*
X8013D01*
Y7631D01*
X8053Y7681D02*
Y7701D01*
Y7691D01*
X7993D01*
Y7681D01*
X8053Y7731D02*
X8033Y7751D01*
X8013D01*
X7993Y7731D01*
M02*
