%FSLAX23Y23*%
%MOIN*%
G70*
G01*
G75*
%ADD10C,0.010*%
%ADD11R,0.062X0.062*%
%ADD12C,0.062*%
%ADD13C,0.065*%
%ADD14R,0.065X0.065*%
%ADD15C,0.100*%
%ADD16O,0.065X0.075*%
%ADD17C,0.150*%
%ADD18R,0.060X0.060*%
%ADD19C,0.060*%
%ADD20C,0.050*%
%ADD21C,0.025*%
%ADD22C,0.012*%
%ADD23C,0.008*%
%ADD24C,0.007*%
%ADD25C,0.006*%
%ADD26R,0.070X0.070*%
%ADD27C,0.070*%
%ADD28C,0.073*%
%ADD29R,0.073X0.073*%
%ADD30C,0.108*%
%ADD31O,0.073X0.083*%
%ADD32C,0.158*%
%ADD33R,0.068X0.068*%
%ADD34C,0.068*%
%ADD35C,0.058*%
D10*
X8092Y6468D02*
X11117D01*
Y8518D01*
X8092D02*
X11117D01*
X8092Y6468D02*
Y8518D01*
D26*
X10067Y7418D02*
D03*
X9742Y7018D02*
D03*
X8292Y7968D02*
D03*
X9742Y7818D02*
D03*
X8692Y7968D02*
D03*
D27*
X10167Y7418D02*
D03*
X10067Y7318D02*
D03*
X10167D02*
D03*
X10067Y7218D02*
D03*
X10167D02*
D03*
X10067Y7118D02*
D03*
X10167D02*
D03*
X10067Y7018D02*
D03*
X10167D02*
D03*
X9842D02*
D03*
X9742Y6918D02*
D03*
X9842D02*
D03*
X9742Y6818D02*
D03*
X9842D02*
D03*
X9742Y6718D02*
D03*
X9842D02*
D03*
X9742Y6618D02*
D03*
X9842D02*
D03*
X8792Y7468D02*
D03*
Y7568D02*
D03*
Y7068D02*
D03*
X8392D02*
D03*
X10167Y8218D02*
D03*
X10067Y8118D02*
D03*
X10167D02*
D03*
X10067Y8018D02*
D03*
X10167D02*
D03*
X10067Y7918D02*
D03*
X10167D02*
D03*
Y7818D02*
D03*
X9842Y7418D02*
D03*
X9742D02*
D03*
X9842Y7518D02*
D03*
X9742D02*
D03*
X9842Y7618D02*
D03*
X9742D02*
D03*
X9842Y7718D02*
D03*
X9742D02*
D03*
X9842Y7818D02*
D03*
X8792Y7968D02*
D03*
X8692Y7868D02*
D03*
X8792D02*
D03*
X8692Y7768D02*
D03*
X8792D02*
D03*
X8692Y7668D02*
D03*
X8792D02*
D03*
X8692Y7568D02*
D03*
Y7468D02*
D03*
Y7368D02*
D03*
X8792D02*
D03*
X8692Y7268D02*
D03*
X8792D02*
D03*
X8692Y7168D02*
D03*
X8792D02*
D03*
X8692Y7068D02*
D03*
X8392Y7968D02*
D03*
X8292Y7868D02*
D03*
X8392D02*
D03*
X8292Y7768D02*
D03*
X8392D02*
D03*
X8292Y7668D02*
D03*
X8392D02*
D03*
X8292Y7568D02*
D03*
Y7468D02*
D03*
X8392D02*
D03*
X8292Y7368D02*
D03*
X8392D02*
D03*
X8292Y7268D02*
D03*
X8392D02*
D03*
X8292Y7168D02*
D03*
X8392D02*
D03*
X8292Y7068D02*
D03*
X8392Y7568D02*
D03*
X10067Y7818D02*
D03*
D28*
X9342Y7518D02*
D03*
Y6718D02*
D03*
Y6818D02*
D03*
Y6918D02*
D03*
Y7018D02*
D03*
Y7118D02*
D03*
Y7218D02*
D03*
Y7318D02*
D03*
Y7418D02*
D03*
Y7618D02*
D03*
Y7718D02*
D03*
Y7818D02*
D03*
Y7918D02*
D03*
Y8018D02*
D03*
Y8118D02*
D03*
X9142Y6718D02*
D03*
Y6818D02*
D03*
Y6918D02*
D03*
Y7018D02*
D03*
Y7118D02*
D03*
Y7218D02*
D03*
Y7318D02*
D03*
Y7418D02*
D03*
Y7518D02*
D03*
Y7618D02*
D03*
Y7718D02*
D03*
Y7818D02*
D03*
Y7918D02*
D03*
Y8018D02*
D03*
Y8118D02*
D03*
X9242D02*
D03*
Y8018D02*
D03*
Y7918D02*
D03*
Y7818D02*
D03*
Y7718D02*
D03*
Y7618D02*
D03*
Y7518D02*
D03*
Y7418D02*
D03*
Y7318D02*
D03*
Y7218D02*
D03*
Y7118D02*
D03*
Y7018D02*
D03*
Y6918D02*
D03*
Y6818D02*
D03*
Y6718D02*
D03*
X11017Y7118D02*
D03*
Y7193D02*
D03*
Y7393D02*
D03*
Y6918D02*
D03*
D29*
X9342Y8218D02*
D03*
X9142D02*
D03*
X9242D02*
D03*
D30*
X10592Y7849D02*
D03*
Y8143D02*
D03*
X10985Y7750D02*
D03*
Y7950D02*
D03*
X10742Y6868D02*
D03*
X10642Y7293D02*
D03*
X10494Y7652D02*
D03*
Y8047D02*
D03*
X10592Y7554D02*
D03*
X10742Y7193D02*
D03*
X10842Y7293D02*
D03*
X10642Y6968D02*
D03*
X10842D02*
D03*
D31*
X10492D02*
D03*
X10392Y7293D02*
D03*
Y6968D02*
D03*
X10492Y7293D02*
D03*
D32*
X11017Y6568D02*
D03*
X8192Y8418D02*
D03*
Y6568D02*
D03*
X11017Y8418D02*
D03*
D33*
X10067Y8218D02*
D03*
D34*
X10417Y6743D02*
D03*
X10567D02*
D03*
X10017Y6643D02*
D03*
X10417Y6543D02*
D03*
X10167Y6643D02*
D03*
X10567Y6543D02*
D03*
X9642Y8343D02*
D03*
X9492D02*
D03*
D35*
X9592Y7018D02*
D03*
X9467Y7118D02*
D03*
X9592Y6818D02*
D03*
X9492Y6968D02*
D03*
X9467Y7468D02*
D03*
X9567Y7418D02*
D03*
X9942Y7368D02*
D03*
X9517D02*
D03*
X9617Y7268D02*
D03*
X9667Y7318D02*
D03*
X9742D02*
D03*
X9842D02*
D03*
X9467Y7868D02*
D03*
X9517Y7818D02*
D03*
X9567Y7618D02*
D03*
X9667Y7718D02*
D03*
X9517Y7968D02*
D03*
X9567Y8268D02*
D03*
X9692Y7968D02*
D03*
X9492Y8168D02*
D03*
M02*
