M72
M48
T1F00S00C0.028
T2F00S00C0.035
T3F00S00C0.040
T4F00S00C0.050
T5F00S00C0.125
T6F00S00C0.030
%
T01
X11325Y077
Y078
X11425
Y077
Y079
Y08
Y081
X11325
Y08
Y079
X11175
Y081
X11075Y0805
X1105Y082
X111Y0845
X1115Y085
X1105Y0855
X1115Y087
X11325
Y086
Y085
Y084
X1125
X112Y0835
X11425Y084
Y085
Y086
Y087
Y088
X11325
X1125
X11325Y089
X11425
X1165
Y09
Y091
Y092
X1175
Y093
Y091
Y09
Y089
Y085
X1165
Y084
X1175
Y083
X1165
Y082
X1175
Y081
X1165
X11525Y0845
X11275Y0905
X111
X1105Y0895
X111Y089
X11075Y0925
X1115Y0935
T02
X10725Y078
X10825
X10925
X126Y08
Y082
Y08275
Y08475
X12075Y08375
X11975
Y0805
X12075
X1165Y093
X10925
Y092
Y091
Y09
Y089
Y088
Y087
Y086
Y085
Y084
Y083
Y082
Y081
Y08
Y079
X10825
X10725
Y08
Y081
Y082
Y083
Y084
Y085
Y086
Y087
Y088
Y089
Y09
Y091
Y092
Y093
X10825
Y092
Y091
Y09
Y089
Y088
Y087
Y086
Y085
Y084
Y083
Y082
Y081
Y08
X10375Y0815
Y0825
Y0835
Y0845
Y0855
Y0865
Y0875
Y0885
Y0895
Y0905
X10275
Y0895
Y0885
Y0875
Y0865
Y0855
Y0845
Y0835
Y0825
Y0815
X09975
Y0825
Y0835
Y0845
Y0855
X09875
Y0865
Y0875
Y0885
Y0895
Y0905
X09975
Y0895
Y0885
Y0875
Y0865
X09875Y0845
Y0835
Y0825
Y0815
T03
X12568Y08832
Y09032
X12175Y08931
Y09225
X12077Y09129
Y08734
X12175Y08636
T04
X12325Y0795
X12225Y0805
X12425
X12325Y08275
X12225Y08375
X12425
T05
X09775Y0765
X126
X09775Y095
X126
T06
X116Y07725
X1175
X12Y07625
X1215
Y07825
X12
X11225Y09425
X11075
M30
