<?xml version="1.0" encoding="UTF-8" standalone="no"?>
<!-- Created with Inkscape (http://www.inkscape.org/) -->

<svg
   xmlns:dc="http://purl.org/dc/elements/1.1/"
   xmlns:cc="http://creativecommons.org/ns#"
   xmlns:rdf="http://www.w3.org/1999/02/22-rdf-syntax-ns#"
   xmlns:svg="http://www.w3.org/2000/svg"
   xmlns="http://www.w3.org/2000/svg"
   xmlns:sodipodi="http://sodipodi.sourceforge.net/DTD/sodipodi-0.dtd"
   xmlns:inkscape="http://www.inkscape.org/namespaces/inkscape"
   width="1620"
   height="1080"
   id="svg2"
   version="1.1"
   inkscape:version="0.48.0 r9654"
   sodipodi:docname="bracket.svg">
  <defs
     id="defs4" />
  <sodipodi:namedview
     id="base"
     pagecolor="#ffffff"
     bordercolor="#666666"
     borderopacity="1.0"
     inkscape:pageopacity="0.0"
     inkscape:pageshadow="2"
     inkscape:zoom="0.86686053"
     inkscape:cx="255.41088"
     inkscape:cy="199.56396"
     inkscape:document-units="mm"
     inkscape:current-layer="layer1"
     showgrid="false"
     units="in"
     inkscape:window-width="1440"
     inkscape:window-height="852"
     inkscape:window-x="1440"
     inkscape:window-y="22"
     inkscape:window-maximized="0" />
  <metadata
     id="metadata7">
    <rdf:RDF>
      <cc:Work
         rdf:about="">
        <dc:format>image/svg+xml</dc:format>
        <dc:type
           rdf:resource="http://purl.org/dc/dcmitype/StillImage" />
        <dc:title></dc:title>
      </cc:Work>
    </rdf:RDF>
  </metadata>
  <g
     inkscape:label="Layer 1"
     inkscape:groupmode="layer"
     id="layer1"
     transform="translate(0,27.64025)">
    <path
       style="color:#000000;fill:none;stroke:#000000;stroke-width:0.00108843;stroke-linecap:butt;stroke-linejoin:miter;stroke-miterlimit:4;stroke-opacity:1;stroke-dashoffset:0;marker:none;visibility:visible;display:inline;overflow:visible;enable-background:accumulate"
       d="m 90.230255,919.93616 -1.97799,3.5233 -4.040316,-0.049 -4.040316,0.049 -1.977991,-3.5233 -2.062323,-3.4747 2.062323,-3.4747 1.977993,-3.5233 4.040314,0.049 4.040316,-0.049 1.97799,3.5233 2.06232,3.4747 z"
       id="path2984"
       inkscape:connector-curvature="0" />
    <path
       style="color:#000000;fill:none;stroke:#000000;stroke-width:0.00108843;stroke-linecap:butt;stroke-linejoin:miter;stroke-miterlimit:4;stroke-opacity:1;stroke-dashoffset:0;marker:none;visibility:visible;display:inline;overflow:visible;enable-background:accumulate"
       d="m 29.994056,919.93616 -1.977991,3.5233 -4.040316,-0.049 -4.040316,0.049 -1.977991,-3.5233 -2.062323,-3.4747 2.062323,-3.4747 1.977993,-3.5233 4.040314,0.049 4.040316,-0.049 1.977991,3.5233 2.062323,3.4747 z"
       id="path2998"
       inkscape:connector-curvature="0" />
    <path
       style="color:#000000;fill:none;stroke:#000000;stroke-width:0.0098262;stroke-linecap:butt;stroke-linejoin:miter;stroke-miterlimit:4;stroke-opacity:1;stroke-dashoffset:0;marker:none;visibility:visible;display:inline;overflow:visible;enable-background:accumulate"
       d="m 61.091878,918.85016 c 0,3.8649 -3.133132,6.9981 -6.998035,6.9981 -3.864902,0 -6.998034,-3.1332 -6.998034,-6.9981 0,-3.8649 3.133132,-6.998 6.998034,-6.998 3.864903,0 6.998035,3.1331 6.998035,6.998 z"
       id="path3002"
       inkscape:connector-curvature="0" />
    <path
       style="color:#000000;fill:none;stroke:#000000;stroke-width:0.00855097;stroke-linecap:butt;stroke-linejoin:miter;stroke-miterlimit:4;stroke-opacity:1;stroke-dashoffset:0;marker:none;visibility:visible;display:inline;overflow:visible;enable-background:accumulate"
       d="m 10.980095,992.52189 88.58363,0 0,21.26021 -88.58363,0 z"
       id="rect3020"
       inkscape:connector-curvature="0" />
    <path
       style="color:#000000;fill:none;stroke:#000000;stroke-width:0.00399496;stroke-linecap:butt;stroke-linejoin:miter;stroke-miterlimit:4;stroke-opacity:1;stroke-dashoffset:0;marker:none;visibility:visible;display:inline;overflow:visible;enable-background:accumulate"
       d="m 36.492361,1006.5217 37.55909,0 0,10.9445 -37.55909,0 z"
       id="rect3022"
       inkscape:connector-curvature="0" />
    <path
       style="color:#000000;fill:none;stroke:#000000;stroke-width:0.00497529;stroke-linecap:butt;stroke-linejoin:miter;stroke-miterlimit:4;stroke-opacity:1;stroke-dashoffset:0;marker:none;visibility:visible;display:inline;overflow:visible;enable-background:accumulate"
       d="m 27.519056,916.46146 c 0,1.9569 -1.586395,3.5433 -3.543308,3.5433 -1.956913,0 -3.543309,-1.5864 -3.543309,-3.5433 0,-1.9569 1.586396,-3.5433 3.543309,-3.5433 1.956913,0 3.543308,1.5864 3.543308,3.5433 z"
       id="path3101"
       inkscape:connector-curvature="0" />
    <path
       style="color:#000000;fill:none;stroke:#000000;stroke-width:0.00497529;stroke-linecap:butt;stroke-linejoin:miter;stroke-miterlimit:4;stroke-opacity:1;stroke-dashoffset:0;marker:none;visibility:visible;display:inline;overflow:visible;enable-background:accumulate"
       d="m 87.755256,916.46146 c 0,1.9569 -1.586395,3.5433 -3.543308,3.5433 -1.956913,0 -3.543309,-1.5864 -3.543309,-3.5433 0,-1.9569 1.586396,-3.5433 3.543309,-3.5433 1.956913,0 3.543308,1.5864 3.543308,3.5433 z"
       id="path3103"
       inkscape:connector-curvature="0" />
    <path
       style="color:#000000;fill:none;stroke:#000000;stroke-width:0.00497529;stroke-linecap:butt;stroke-linejoin:miter;stroke-miterlimit:4;stroke-opacity:1;stroke-dashoffset:0;marker:none;visibility:visible;display:inline;overflow:visible;enable-background:accumulate"
       d="m 57.637156,918.85016 c 0,1.9569 -1.586395,3.5433 -3.543308,3.5433 -1.956913,0 -3.543309,-1.5864 -3.543309,-3.5433 0,-1.9569 1.586396,-3.5433 3.543309,-3.5433 1.956913,0 3.543308,1.5864 3.543308,3.5433 z"
       id="path3105"
       inkscape:connector-curvature="0" />
    <path
       style="color:#000000;fill:none;stroke:#000000;stroke-width:0.00942119;stroke-linecap:butt;stroke-linejoin:miter;stroke-miterlimit:4;stroke-opacity:1;stroke-dashoffset:0;marker:none;visibility:visible;display:inline;overflow:visible;enable-background:accumulate"
       d="m 14.4536,904.67672 79.280485,0 c 2.57667,0 4.65104,2.12783 4.65104,4.77094 l 0,18.8051 c 0,2.6431 -2.07437,4.771 -4.65104,4.771 l -79.280485,0 c -2.576679,0 -4.6510436,-2.1279 -4.6510436,-4.771 l 0,-18.8051 c 0,-2.64311 2.0743646,-4.77094 4.6510436,-4.77094 z"
       id="rect3107"
       inkscape:connector-curvature="0" />
    <path
       style="color:#000000;fill:none;stroke:#000000;stroke-width:0.00708661;stroke-linecap:butt;stroke-linejoin:miter;stroke-miterlimit:4;stroke-opacity:1;stroke-dashoffset:0;marker:none;visibility:visible;display:inline;overflow:visible;enable-background:accumulate"
       d="m 37.870613,935.47796 c 0,5.0173 -3.80903,9.0846 -8.50771,9.0846 -4.69868,0 -8.50771,-4.0673 -8.50771,-9.0846 0,-5.0172 3.80903,-9.0845 8.50771,-9.0845 4.69868,0 8.50771,4.0673 8.50771,9.0845 z"
       id="path3109"
       inkscape:connector-curvature="0" />
    <path
       style="color:#000000;fill:none;stroke:#000000;stroke-width:0.00708661;stroke-linecap:butt;stroke-linejoin:miter;stroke-miterlimit:4;stroke-opacity:1;stroke-dashoffset:0;marker:none;visibility:visible;display:inline;overflow:visible;enable-background:accumulate"
       d="m 87.172126,935.47796 c 0,5.0173 -3.80903,9.0846 -8.50771,9.0846 -4.69868,0 -8.50771,-4.0673 -8.50771,-9.0846 0,-5.0172 3.80903,-9.0845 8.50771,-9.0845 4.69868,0 8.50771,4.0673 8.50771,9.0845 z"
       id="path3111"
       inkscape:connector-curvature="0" />
    <path
       style="color:#000000;fill:none;stroke:#000000;stroke-width:0.00855097;stroke-linecap:butt;stroke-linejoin:miter;stroke-miterlimit:4;stroke-opacity:1;stroke-dashoffset:0;marker:none;visibility:visible;display:inline;overflow:visible;enable-background:accumulate"
       d="m 10.980095,1022.5219 88.58363,0 0,21.2602 -88.58363,0 z"
       id="rect3162"
       inkscape:connector-curvature="0" />
    <path
       inkscape:connector-curvature="0"
       id="path3164"
       d="m 28.697114,1033.152 c 0,1.9569 -1.5864,3.5433 -3.54331,3.5433 -1.95691,0 -3.54331,-1.5864 -3.54331,-3.5433 0,-1.9569 1.5864,-3.5433 3.54331,-3.5433 1.95691,0 3.54331,1.5864 3.54331,3.5433 z"
       style="color:#000000;fill:none;stroke:#000000;stroke-width:0.00497529;stroke-linecap:butt;stroke-linejoin:miter;stroke-miterlimit:4;stroke-opacity:1;stroke-dashoffset:0;marker:none;visibility:visible;display:inline;overflow:visible;enable-background:accumulate" />
    <path
       inkscape:connector-curvature="0"
       id="path3166"
       d="m 88.933314,1033.152 c 0,1.9569 -1.5864,3.5433 -3.54331,3.5433 -1.95691,0 -3.54331,-1.5864 -3.54331,-3.5433 0,-1.9569 1.5864,-3.5433 3.54331,-3.5433 1.95691,0 3.54331,1.5864 3.54331,3.5433 z"
       style="color:#000000;fill:none;stroke:#000000;stroke-width:0.00497529;stroke-linecap:butt;stroke-linejoin:miter;stroke-miterlimit:4;stroke-opacity:1;stroke-dashoffset:0;marker:none;visibility:visible;display:inline;overflow:visible;enable-background:accumulate" />
    <path
       style="color:#000000;fill:none;stroke:#000000;stroke-width:0.00855097;stroke-linecap:butt;stroke-linejoin:miter;stroke-miterlimit:4;stroke-opacity:1;stroke-dashoffset:0;marker:none;visibility:visible;display:inline;overflow:visible;enable-background:accumulate"
       d="m 115.38444,992.93717 0,21.25003 25.53125,0 0,-7.25 37.53125,0 0,7.25 25.53125,0 0,-21.25003 -88.59375,0 z"
       id="path3177"
       inkscape:connector-curvature="0" />
    <path
       style="color:#000000;fill:none;stroke:#000000;stroke-width:0.00855097;stroke-linecap:butt;stroke-linejoin:miter;stroke-miterlimit:4;stroke-opacity:1;stroke-dashoffset:0;marker:none;visibility:visible;display:inline;overflow:visible;enable-background:accumulate"
       d="m 115.38444,1022.9372 0,21.25 88.59375,0 0,-21.25 -88.59375,0 z m 14.1875,7.0937 c 1.95691,0 3.53125,1.5744 3.53125,3.5313 0,1.9569 -1.57434,3.5312 -3.53125,3.5312 -1.95691,0 -3.5625,-1.5743 -3.5625,-3.5312 0,-1.9569 1.60559,-3.5313 3.5625,-3.5313 z m 60.21875,0 c 1.95691,0 3.5625,1.5744 3.5625,3.5313 0,1.9569 -1.60559,3.5312 -3.5625,3.5312 -1.95691,0 -3.53125,-1.5743 -3.53125,-3.5312 0,-1.9569 1.57434,-3.5313 3.53125,-3.5313 z"
       id="path3181"
       inkscape:connector-curvature="0" />
    <path
       style="color:#000000;fill:none;stroke:#000000;stroke-width:0.00942119;stroke-linecap:butt;stroke-linejoin:miter;stroke-miterlimit:4;stroke-opacity:1;stroke-dashoffset:0;marker:none;visibility:visible;display:inline;overflow:visible;enable-background:accumulate"
       d="M 123.34375 933.9375 C 120.76707 933.9375 118.6875 936.07564 118.6875 938.71875 L 118.6875 957.53125 C 118.6875 960.17435 120.76707 962.28125 123.34375 962.28125 L 130.0625 962.28125 C 131.072 958.46743 134.35516 955.65625 138.25 955.65625 C 142.1443 955.65625 145.42752 958.46823 146.4375 962.28125 L 179.375 962.28125 C 180.38498 958.46823 183.6682 955.65625 187.5625 955.65625 C 191.4568 955.65625 194.74002 958.46823 195.75 962.28125 L 202.625 962.28125 C 205.20167 962.28125 207.28125 960.17435 207.28125 957.53125 L 207.28125 938.71875 C 207.28125 936.07564 205.20167 933.9375 202.625 933.9375 L 123.34375 933.9375 z M 163 941.125 C 166.86491 941.125 170 944.2601 170 948.125 C 170 951.9899 166.86491 955.125 163 955.125 C 159.1351 955.125 156 951.9899 156 948.125 C 156 944.2601 159.1351 941.125 163 941.125 z M 132.875 942.1875 C 134.83191 942.1875 136.40625 943.76185 136.40625 945.71875 C 136.40625 947.67565 134.83191 949.28125 132.875 949.28125 C 130.91809 949.28125 129.34375 947.67565 129.34375 945.71875 C 129.34375 943.76185 130.91809 942.1875 132.875 942.1875 z M 193.09375 942.1875 C 195.05066 942.1875 196.65625 943.76185 196.65625 945.71875 C 196.65625 947.67565 195.05066 949.28125 193.09375 949.28125 C 191.13684 949.28125 189.5625 947.67565 189.5625 945.71875 C 189.5625 943.76185 191.13684 942.1875 193.09375 942.1875 z "
       transform="translate(0,-27.64025)"
       id="path3202" />
    <path
       style="color:#000000;fill:none;stroke:#000000;stroke-width:0.00942119;stroke-linecap:butt;stroke-linejoin:miter;stroke-miterlimit:4;stroke-opacity:1;stroke-dashoffset:0;marker:none;visibility:visible;display:inline;overflow:visible;enable-background:accumulate"
       d="M 121.71875 880.9375 C 119.14207 880.9375 117.0625 883.04439 117.0625 885.6875 L 117.0625 904.5 C 117.0625 907.1431 119.14207 909.28125 121.71875 909.28125 L 128.4375 909.28125 C 129.44085 905.45729 132.72342 902.65625 136.625 902.65625 C 140.52658 902.65625 143.80915 905.45729 144.8125 909.28125 L 177.75 909.28125 C 178.75335 905.45729 182.03592 902.65625 185.9375 902.65625 C 189.8397 902.65625 193.12221 905.45637 194.125 909.28125 L 201 909.28125 C 203.57667 909.28125 205.65625 907.1431 205.65625 904.5 L 205.65625 885.6875 C 205.65625 883.04439 203.57667 880.9375 201 880.9375 L 121.71875 880.9375 z M 127.1875 885.71875 L 131.25 885.75 L 135.28125 885.71875 L 137.25 889.25 L 139.3125 892.71875 L 137.25 896.1875 L 135.28125 899.71875 L 131.25 899.65625 L 127.1875 899.71875 L 125.21875 896.1875 L 123.15625 892.71875 L 125.21875 889.25 L 127.1875 885.71875 z M 187.4375 885.71875 L 191.46875 885.75 L 195.53125 885.71875 L 197.5 889.25 L 199.5625 892.71875 L 197.5 896.1875 L 195.53125 899.71875 L 191.46875 899.65625 L 187.4375 899.71875 L 185.46875 896.1875 L 183.40625 892.71875 L 185.46875 889.25 L 187.4375 885.71875 z M 161.375 888.09375 C 165.23991 888.09375 168.34375 891.22885 168.34375 895.09375 C 168.34375 898.95865 165.23991 902.09375 161.375 902.09375 C 157.5101 902.09375 154.375 898.95865 154.375 895.09375 C 154.375 891.22885 157.5101 888.09375 161.375 888.09375 z "
       transform="translate(0,-27.64025)"
       id="path3220" />
    <path
       style="color:#000000;fill:none;stroke:#000000;stroke-width:0.00942119;stroke-linecap:butt;stroke-linejoin:miter;stroke-miterlimit:4;stroke-opacity:1;stroke-dashoffset:0;marker:none;visibility:visible;display:inline;overflow:visible;enable-background:accumulate"
       d="M 121.3125 828.71875 C 118.73582 828.71875 116.65625 830.85689 116.65625 833.5 L 116.65625 852.3125 C 116.65625 854.9556 118.73582 857.0625 121.3125 857.0625 L 128.03125 857.0625 C 129.0346 853.23854 132.31717 850.4375 136.21875 850.4375 C 140.12033 850.4375 143.4029 853.23854 144.40625 857.0625 L 177.34375 857.0625 C 178.3471 853.23854 181.62967 850.4375 185.53125 850.4375 C 189.43345 850.4375 192.71596 853.23762 193.71875 857.0625 L 200.59375 857.0625 C 203.17042 857.0625 205.25 854.9556 205.25 852.3125 L 205.25 833.5 C 205.25 830.85689 203.17042 828.71875 200.59375 828.71875 L 121.3125 828.71875 z M 130.84375 836.96875 C 132.80066 836.96875 134.375 838.5431 134.375 840.5 C 134.375 842.4569 132.80066 844.0625 130.84375 844.0625 C 128.88684 844.0625 127.28125 842.4569 127.28125 840.5 C 127.28125 838.5431 128.88684 836.96875 130.84375 836.96875 z M 191.0625 836.96875 C 193.01941 836.96875 194.625 838.5431 194.625 840.5 C 194.625 842.4569 193.01941 844.0625 191.0625 844.0625 C 189.10559 844.0625 187.53125 842.4569 187.53125 840.5 C 187.53125 838.5431 189.10559 836.96875 191.0625 836.96875 z M 160.9375 839.34375 C 162.89441 839.34375 164.5 840.94935 164.5 842.90625 C 164.5 844.86315 162.89441 846.4375 160.9375 846.4375 C 158.98059 846.4375 157.40625 844.86315 157.40625 842.90625 C 157.40625 840.94935 158.98059 839.34375 160.9375 839.34375 z "
       transform="translate(0,-27.64025)"
       id="path3238" />
    <text
       xml:space="preserve"
       style="font-size:10px;font-style:normal;font-weight:normal;text-align:center;line-height:125%;letter-spacing:0px;word-spacing:0px;text-anchor:middle;fill:#000000;fill-opacity:1;stroke:none;font-family:Bitstream Vera Sans"
       x="294.16495"
       y="863.17126"
       id="text3259"
       sodipodi:linespacing="125%"><tspan
         sodipodi:role="line"
         id="tspan3261"
         x="294.16495"
         y="863.17126">2mm or 3mm acrylic</tspan></text>
    <text
       sodipodi:linespacing="125%"
       id="text3263"
       y="1018.9056"
       x="297.6257"
       style="font-size:10px;font-style:normal;font-weight:normal;text-align:center;line-height:125%;letter-spacing:0px;word-spacing:0px;text-anchor:middle;fill:#000000;fill-opacity:1;stroke:none;font-family:Bitstream Vera Sans"
       xml:space="preserve"><tspan
         y="1018.9056"
         x="297.6257"
         id="tspan3265"
         sodipodi:role="line">6 mm cut then rotate then cut</tspan></text>
  </g>
</svg>
