%
M48
M72
T01C0.0197
T02C0.0236
T03C0.0276
T04C0.0320
T05C0.0354
T06C0.0472
T07C0.0512
%
T01
X014461Y001646
X014461Y002126
X014461Y002606
X014461Y003146
X014461Y003626
X019681Y003626
X019681Y003146
X019681Y002666
X019681Y002126
X019681Y001646
X021981Y001946
X021981Y002726
X021981Y003446
X021981Y004226
X021981Y005066
X017341Y008906
X017341Y009326
X017341Y009746
X017341Y010166
X017341Y010586
X017341Y011006
X017341Y011426
X017341Y011846
X017341Y012266
X017341Y012686
X016801Y012686
X016801Y012266
X016801Y011846
X016801Y011426
X016801Y011006
X016801Y010586
X016801Y010166
X016801Y009746
X016801Y009326
X016801Y008906
X014461Y017546
X014461Y018026
X014461Y018566
X014461Y019046
X014461Y019526
X019681Y019526
X019681Y019046
X019681Y018506
X019681Y018026
X019681Y017546
X022461Y017426
X022461Y017966
X022461Y018446
X022461Y018986
X022461Y019466
X028461Y019466
X028461Y018926
X028461Y018446
X028461Y017906
X028461Y017426
X028941Y005066
X028941Y004226
X028941Y003446
X028941Y002726
X028941Y001946
T02
X001501Y009856
X001501Y011856
X001501Y013356
T03
X003501Y013356
X003501Y012856
X004001Y012856
X004001Y013356
X004001Y013856
X004001Y014356
X003501Y014356
X003501Y013856
X003501Y012356
X003501Y011856
X004001Y011856
X004001Y012356
X004001Y011356
X003501Y011356
X003501Y010856
X003501Y010356
X004001Y010356
X004001Y010856
X004001Y009856
X003501Y009856
X003691Y017336
X004191Y017336
X004191Y017836
X004191Y018336
X003691Y018336
X003691Y017836
X003691Y018836
X004191Y018836
X004191Y019336
X004191Y019836
X003691Y019836
X003691Y019336
X003691Y020336
X003691Y020836
X004191Y020836
X004191Y020336
X004191Y021336
X003691Y021336
X003691Y021836
X004191Y021836
X009311Y025276
X009311Y025776
X009811Y025776
X009811Y025276
X010311Y025276
X010311Y025776
X010811Y025776
X011311Y025776
X011311Y025276
X010811Y025276
X011811Y025276
X011811Y025776
X012311Y025776
X012811Y025776
X012811Y025276
X012311Y025276
X013311Y025276
X013311Y025776
X013811Y025776
X013811Y025276
X016831Y019536
X017331Y019536
X017331Y019036
X016831Y019036
X016831Y018536
X017331Y018536
X017331Y018036
X016831Y018036
X016831Y017536
X017331Y017536
X017331Y017036
X016831Y017036
X016831Y016536
X017331Y016536
X017331Y016036
X016831Y016036
X016831Y015536
X017331Y015536
X017331Y015036
X016831Y015036
X025211Y014936
X025211Y015436
X025711Y015436
X025711Y014936
X025711Y015936
X025711Y016436
X025211Y016436
X025211Y015936
X025211Y016936
X025711Y016936
X025711Y017436
X025711Y017936
X025211Y017936
X025211Y017436
X025211Y018436
X025211Y018936
X025711Y018936
X025711Y018436
X025711Y019436
X025211Y019436
X025451Y025276
X025451Y025776
X024951Y025776
X024951Y025276
X024451Y025276
X024451Y025776
X023951Y025776
X023451Y025776
X023451Y025276
X023951Y025276
X022951Y025276
X022951Y025776
X025951Y025776
X025951Y025276
X026451Y025276
X026451Y025776
X026951Y025776
X026951Y025276
X027451Y025276
X027451Y025776
X017331Y006136
X016831Y006136
X016831Y005636
X017331Y005636
X017331Y005136
X016831Y005136
X016831Y004636
X017331Y004636
X017331Y004136
X016831Y004136
X016831Y003636
X017331Y003636
X017331Y003136
X016831Y003136
X016831Y002636
X017331Y002636
X017331Y002136
X016831Y002136
X016831Y001636
X017331Y001636
T04
X004251Y006856
X003251Y006856
X003251Y008106
X004251Y008106
X005741Y023446
X005741Y024446
X002341Y024486
X002341Y023486
T05
X023147Y008969
X023934Y008969
X023934Y008181
X023147Y008181
X023147Y007394
X023147Y006607
X023934Y006607
X023934Y007394
X023934Y005819
X023147Y005819
X023147Y005032
X023934Y005032
X023934Y004244
X023147Y004244
X023147Y003457
X023934Y003457
X023934Y002670
X023147Y002670
X023147Y001882
X023934Y001882
X026987Y001882
X026987Y002670
X026987Y003457
X026987Y004244
X027774Y004244
X027774Y003457
X027774Y002670
X027774Y001882
X027774Y005032
X027774Y005819
X026987Y005819
X026987Y005032
X026987Y006607
X026987Y007394
X026987Y008181
X026987Y008969
X027774Y008969
X027774Y008181
X027774Y007394
X027774Y006607
T06
X001732Y001721
X001732Y002706
X003701Y004674
X005669Y002706
X005669Y001721
X003801Y026437
X005769Y028406
X005769Y029390
X001832Y029390
X001832Y028406
T07
X003801Y028406
X004785Y026437
X005769Y026437
X002817Y026437
X001832Y026437
X001732Y004674
X002717Y004674
X004685Y004674
X005669Y004674
X003701Y002706
M30
