G75*
G70*
%OFA0B0*%
%FSLAX24Y24*%
%IPPOS*%
%LPD*%
%AMOC8*
5,1,8,0,0,1.08239X$1,22.5*
%
%ADD10C,0.0496*%
%ADD11R,0.1210X0.0350*%
%ADD12R,0.0847X0.0690*%
%ADD13OC8,0.0540*%
%ADD14R,0.0350X0.1210*%
%ADD15C,0.0591*%
%ADD16C,0.0920*%
%ADD17R,0.0456X0.0456*%
%ADD18R,0.0417X0.0417*%
D10*
X003501Y009856D03*
X003501Y010356D03*
X003501Y010856D03*
X003501Y011356D03*
X003501Y011856D03*
X003501Y012356D03*
X003501Y012856D03*
X003501Y013356D03*
X003501Y013856D03*
X003501Y014356D03*
X004001Y014356D03*
X004001Y013856D03*
X004001Y013356D03*
X004001Y012856D03*
X004001Y012356D03*
X004001Y011856D03*
X004001Y011356D03*
X004001Y010856D03*
X004001Y010356D03*
X004001Y009856D03*
X004191Y017336D03*
X003691Y017336D03*
X003691Y017836D03*
X003691Y018336D03*
X004191Y018336D03*
X004191Y017836D03*
X004191Y018836D03*
X003691Y018836D03*
X003691Y019336D03*
X003691Y019836D03*
X004191Y019836D03*
X004191Y019336D03*
X004191Y020336D03*
X004191Y020836D03*
X003691Y020836D03*
X003691Y020336D03*
X003691Y021336D03*
X004191Y021336D03*
X004191Y021836D03*
X003691Y021836D03*
X009311Y025276D03*
X009311Y025776D03*
X009811Y025776D03*
X009811Y025276D03*
X010311Y025276D03*
X010311Y025776D03*
X010811Y025776D03*
X011311Y025776D03*
X011311Y025276D03*
X010811Y025276D03*
X011811Y025276D03*
X011811Y025776D03*
X012311Y025776D03*
X012811Y025776D03*
X012811Y025276D03*
X012311Y025276D03*
X013311Y025276D03*
X013311Y025776D03*
X013811Y025776D03*
X013811Y025276D03*
X016831Y019536D03*
X017331Y019536D03*
X017331Y019036D03*
X016831Y019036D03*
X016831Y018536D03*
X017331Y018536D03*
X017331Y018036D03*
X016831Y018036D03*
X016831Y017536D03*
X017331Y017536D03*
X017331Y017036D03*
X016831Y017036D03*
X016831Y016536D03*
X017331Y016536D03*
X017331Y016036D03*
X016831Y016036D03*
X016831Y015536D03*
X017331Y015536D03*
X017331Y015036D03*
X016831Y015036D03*
X025211Y014936D03*
X025211Y015436D03*
X025711Y015436D03*
X025711Y014936D03*
X025711Y015936D03*
X025711Y016436D03*
X025211Y016436D03*
X025211Y015936D03*
X025211Y016936D03*
X025711Y016936D03*
X025711Y017436D03*
X025711Y017936D03*
X025211Y017936D03*
X025211Y017436D03*
X025211Y018436D03*
X025211Y018936D03*
X025711Y018936D03*
X025711Y018436D03*
X025711Y019436D03*
X025211Y019436D03*
X025451Y025276D03*
X025451Y025776D03*
X024951Y025776D03*
X024951Y025276D03*
X024451Y025276D03*
X024451Y025776D03*
X023951Y025776D03*
X023451Y025776D03*
X023451Y025276D03*
X023951Y025276D03*
X022951Y025276D03*
X022951Y025776D03*
X025951Y025776D03*
X025951Y025276D03*
X026451Y025276D03*
X026451Y025776D03*
X026951Y025776D03*
X026951Y025276D03*
X027451Y025276D03*
X027451Y025776D03*
X017331Y006136D03*
X016831Y006136D03*
X016831Y005636D03*
X017331Y005636D03*
X017331Y005136D03*
X016831Y005136D03*
X016831Y004636D03*
X017331Y004636D03*
X017331Y004136D03*
X016831Y004136D03*
X016831Y003636D03*
X017331Y003636D03*
X017331Y003136D03*
X016831Y003136D03*
X016831Y002636D03*
X017331Y002636D03*
X017331Y002136D03*
X016831Y002136D03*
X016831Y001636D03*
X017331Y001636D03*
D11*
X005001Y009856D03*
X005001Y010356D03*
X005001Y010856D03*
X005001Y011356D03*
X005001Y011856D03*
X005001Y012356D03*
X005001Y012856D03*
X005001Y013356D03*
X005001Y013856D03*
X005001Y014356D03*
X002501Y014356D03*
X002501Y013856D03*
X002501Y013356D03*
X002501Y012856D03*
X002501Y012356D03*
X002501Y011856D03*
X002501Y011356D03*
X002501Y010856D03*
X002501Y010356D03*
X002501Y009856D03*
X002691Y017336D03*
X002691Y017836D03*
X002691Y018336D03*
X002691Y018836D03*
X002691Y019336D03*
X002691Y019836D03*
X002691Y020336D03*
X002691Y020836D03*
X002691Y021336D03*
X002691Y021836D03*
X005191Y021836D03*
X005191Y021336D03*
X005191Y020836D03*
X005191Y020336D03*
X005191Y019836D03*
X005191Y019336D03*
X005191Y018836D03*
X005191Y018336D03*
X005191Y017836D03*
X005191Y017336D03*
X015831Y017536D03*
X015831Y018036D03*
X015831Y018536D03*
X015831Y019036D03*
X015831Y019536D03*
X015831Y017036D03*
X015831Y016536D03*
X015831Y016036D03*
X015831Y015536D03*
X015831Y015036D03*
X018331Y015036D03*
X018331Y015536D03*
X018331Y016036D03*
X018331Y016536D03*
X018331Y017036D03*
X018331Y017536D03*
X018331Y018036D03*
X018331Y018536D03*
X018331Y019036D03*
X018331Y019536D03*
X024211Y019436D03*
X024211Y018936D03*
X024211Y018436D03*
X024211Y017936D03*
X024211Y017436D03*
X024211Y016936D03*
X024211Y016436D03*
X024211Y015936D03*
X024211Y015436D03*
X024211Y014936D03*
X026711Y014936D03*
X026711Y015436D03*
X026711Y015936D03*
X026711Y016436D03*
X026711Y016936D03*
X026711Y017436D03*
X026711Y017936D03*
X026711Y018436D03*
X026711Y018936D03*
X026711Y019436D03*
D12*
X005751Y007907D03*
X005751Y006804D03*
X001751Y006804D03*
X001751Y007907D03*
D13*
X003251Y008106D03*
X004251Y008106D03*
X004251Y006856D03*
X003251Y006856D03*
X002341Y023486D03*
X002341Y024486D03*
X005741Y024446D03*
X005741Y023446D03*
D14*
X009311Y024276D03*
X009811Y024276D03*
X010311Y024276D03*
X010811Y024276D03*
X011311Y024276D03*
X011811Y024276D03*
X012311Y024276D03*
X012811Y024276D03*
X013311Y024276D03*
X013811Y024276D03*
X013811Y026776D03*
X013311Y026776D03*
X012811Y026776D03*
X012311Y026776D03*
X011811Y026776D03*
X011311Y026776D03*
X010811Y026776D03*
X010311Y026776D03*
X009811Y026776D03*
X009311Y026776D03*
X022951Y026776D03*
X023451Y026776D03*
X023951Y026776D03*
X024451Y026776D03*
X024951Y026776D03*
X025451Y026776D03*
X025951Y026776D03*
X026451Y026776D03*
X026951Y026776D03*
X027451Y026776D03*
X027451Y024276D03*
X026951Y024276D03*
X026451Y024276D03*
X025951Y024276D03*
X025451Y024276D03*
X024951Y024276D03*
X024451Y024276D03*
X023951Y024276D03*
X023451Y024276D03*
X022951Y024276D03*
D15*
X023147Y008969D03*
X023934Y008969D03*
X023934Y008181D03*
X023147Y008181D03*
X023147Y007394D03*
X023147Y006607D03*
X023934Y006607D03*
X023934Y007394D03*
X023934Y005819D03*
X023147Y005819D03*
X023147Y005032D03*
X023934Y005032D03*
X023934Y004244D03*
X023147Y004244D03*
X023147Y003457D03*
X023934Y003457D03*
X023934Y002670D03*
X023147Y002670D03*
X023147Y001882D03*
X023934Y001882D03*
X026987Y001882D03*
X026987Y002670D03*
X026987Y003457D03*
X026987Y004244D03*
X027774Y004244D03*
X027774Y003457D03*
X027774Y002670D03*
X027774Y001882D03*
X027774Y005032D03*
X027774Y005819D03*
X026987Y005819D03*
X026987Y005032D03*
X026987Y006607D03*
X026987Y007394D03*
X026987Y008181D03*
X026987Y008969D03*
X027774Y008969D03*
X027774Y008181D03*
X027774Y007394D03*
X027774Y006607D03*
D16*
X001732Y001721D03*
X001732Y002706D03*
X001732Y004674D03*
X002717Y004674D03*
X003701Y004674D03*
X004685Y004674D03*
X005669Y004674D03*
X005669Y002706D03*
X005669Y001721D03*
X003701Y002706D03*
X003801Y026437D03*
X004785Y026437D03*
X005769Y026437D03*
X005769Y028406D03*
X005769Y029390D03*
X003801Y028406D03*
X001832Y028406D03*
X001832Y029390D03*
X001832Y026437D03*
X002817Y026437D03*
D17*
X001501Y013356D03*
X001501Y011856D03*
X001501Y009856D03*
D18*
X014461Y003626D03*
X014461Y003146D03*
X014461Y002606D03*
X014461Y002126D03*
X014461Y001646D03*
X019681Y001646D03*
X019681Y002126D03*
X019681Y002666D03*
X019681Y003146D03*
X019681Y003626D03*
X021981Y003446D03*
X021981Y004226D03*
X021981Y005066D03*
X021981Y002726D03*
X021981Y001946D03*
X017341Y008906D03*
X017341Y009326D03*
X017341Y009746D03*
X017341Y010166D03*
X017341Y010586D03*
X017341Y011006D03*
X017341Y011426D03*
X017341Y011846D03*
X017341Y012266D03*
X017341Y012686D03*
X016801Y012686D03*
X016801Y012266D03*
X016801Y011846D03*
X016801Y011426D03*
X016801Y011006D03*
X016801Y010586D03*
X016801Y010166D03*
X016801Y009746D03*
X016801Y009326D03*
X016801Y008906D03*
X014461Y017546D03*
X014461Y018026D03*
X014461Y018566D03*
X014461Y019046D03*
X014461Y019526D03*
X019681Y019526D03*
X019681Y019046D03*
X019681Y018506D03*
X019681Y018026D03*
X019681Y017546D03*
X022461Y017426D03*
X022461Y017966D03*
X022461Y018446D03*
X022461Y018986D03*
X022461Y019466D03*
X028461Y019466D03*
X028461Y018926D03*
X028461Y018446D03*
X028461Y017906D03*
X028461Y017426D03*
X028941Y005066D03*
X028941Y004226D03*
X028941Y003446D03*
X028941Y002726D03*
X028941Y001946D03*
M02*
