G75*
G70*
%OFA0B0*%
%FSLAX24Y24*%
%IPPOS*%
%LPD*%
%AMOC8*
5,1,8,0,0,1.08239X$1,22.5*
%
%ADD10C,0.0436*%
%ADD11OC8,0.0480*%
%ADD12R,0.1150X0.0290*%
%ADD13C,0.0531*%
%ADD14C,0.0860*%
%ADD15C,0.0160*%
%ADD16R,0.0396X0.0396*%
%ADD17C,0.0060*%
%ADD18R,0.0357X0.0357*%
%ADD19C,0.0100*%
D10*
X003501Y009856D03*
X003501Y010356D03*
X003501Y010856D03*
X003501Y011356D03*
X003501Y011856D03*
X003501Y012356D03*
X003501Y012856D03*
X003501Y013356D03*
X003501Y013856D03*
X003501Y014356D03*
X004001Y014356D03*
X004001Y013856D03*
X004001Y013356D03*
X004001Y012856D03*
X004001Y012356D03*
X004001Y011856D03*
X004001Y011356D03*
X004001Y010856D03*
X004001Y010356D03*
X004001Y009856D03*
X004191Y017336D03*
X003691Y017336D03*
X003691Y017836D03*
X003691Y018336D03*
X004191Y018336D03*
X004191Y017836D03*
X004191Y018836D03*
X003691Y018836D03*
X003691Y019336D03*
X003691Y019836D03*
X004191Y019836D03*
X004191Y019336D03*
X004191Y020336D03*
X004191Y020836D03*
X003691Y020836D03*
X003691Y020336D03*
X003691Y021336D03*
X004191Y021336D03*
X004191Y021836D03*
X003691Y021836D03*
X009311Y025276D03*
X009311Y025776D03*
X009811Y025776D03*
X009811Y025276D03*
X010311Y025276D03*
X010311Y025776D03*
X010811Y025776D03*
X011311Y025776D03*
X011311Y025276D03*
X010811Y025276D03*
X011811Y025276D03*
X011811Y025776D03*
X012311Y025776D03*
X012811Y025776D03*
X012811Y025276D03*
X012311Y025276D03*
X013311Y025276D03*
X013311Y025776D03*
X013811Y025776D03*
X013811Y025276D03*
X016831Y019536D03*
X017331Y019536D03*
X017331Y019036D03*
X016831Y019036D03*
X016831Y018536D03*
X017331Y018536D03*
X017331Y018036D03*
X016831Y018036D03*
X016831Y017536D03*
X017331Y017536D03*
X017331Y017036D03*
X016831Y017036D03*
X016831Y016536D03*
X017331Y016536D03*
X017331Y016036D03*
X016831Y016036D03*
X016831Y015536D03*
X017331Y015536D03*
X017331Y015036D03*
X016831Y015036D03*
X025211Y014936D03*
X025211Y015436D03*
X025711Y015436D03*
X025711Y014936D03*
X025711Y015936D03*
X025711Y016436D03*
X025211Y016436D03*
X025211Y015936D03*
X025211Y016936D03*
X025711Y016936D03*
X025711Y017436D03*
X025711Y017936D03*
X025211Y017936D03*
X025211Y017436D03*
X025211Y018436D03*
X025211Y018936D03*
X025711Y018936D03*
X025711Y018436D03*
X025711Y019436D03*
X025211Y019436D03*
X025451Y025276D03*
X025451Y025776D03*
X024951Y025776D03*
X024951Y025276D03*
X024451Y025276D03*
X024451Y025776D03*
X023951Y025776D03*
X023451Y025776D03*
X023451Y025276D03*
X023951Y025276D03*
X022951Y025276D03*
X022951Y025776D03*
X025951Y025776D03*
X025951Y025276D03*
X026451Y025276D03*
X026451Y025776D03*
X026951Y025776D03*
X026951Y025276D03*
X027451Y025276D03*
X027451Y025776D03*
X017331Y006136D03*
X016831Y006136D03*
X016831Y005636D03*
X017331Y005636D03*
X017331Y005136D03*
X016831Y005136D03*
X016831Y004636D03*
X017331Y004636D03*
X017331Y004136D03*
X016831Y004136D03*
X016831Y003636D03*
X017331Y003636D03*
X017331Y003136D03*
X016831Y003136D03*
X016831Y002636D03*
X017331Y002636D03*
X017331Y002136D03*
X016831Y002136D03*
X016831Y001636D03*
X017331Y001636D03*
D11*
X004251Y006856D03*
X003251Y006856D03*
X003251Y008106D03*
X004251Y008106D03*
X005741Y023446D03*
X005741Y024446D03*
X002341Y024486D03*
X002341Y023486D03*
D12*
X015831Y006136D03*
X015831Y005636D03*
X015831Y005136D03*
X015831Y004636D03*
X015831Y004136D03*
X015831Y003636D03*
X015831Y003136D03*
X015831Y002636D03*
X015831Y002136D03*
X015831Y001636D03*
X018331Y001636D03*
X018331Y002136D03*
X018331Y002636D03*
X018331Y003136D03*
X018331Y003636D03*
X018331Y004136D03*
X018331Y004636D03*
X018331Y005136D03*
X018331Y005636D03*
X018331Y006136D03*
D13*
X023147Y005819D03*
X023147Y005032D03*
X023934Y005032D03*
X023934Y005819D03*
X023934Y006607D03*
X023147Y006607D03*
X023147Y007394D03*
X023934Y007394D03*
X023934Y008181D03*
X023147Y008181D03*
X023147Y008969D03*
X023934Y008969D03*
X026987Y008969D03*
X026987Y008181D03*
X026987Y007394D03*
X026987Y006607D03*
X027774Y006607D03*
X027774Y007394D03*
X027774Y008181D03*
X027774Y008969D03*
X027774Y005819D03*
X027774Y005032D03*
X026987Y005032D03*
X026987Y005819D03*
X026987Y004244D03*
X026987Y003457D03*
X026987Y002670D03*
X026987Y001882D03*
X027774Y001882D03*
X027774Y002670D03*
X027774Y003457D03*
X027774Y004244D03*
X023934Y004244D03*
X023147Y004244D03*
X023147Y003457D03*
X023934Y003457D03*
X023934Y002670D03*
X023147Y002670D03*
X023147Y001882D03*
X023934Y001882D03*
D14*
X005669Y001721D03*
X005669Y002706D03*
X003701Y002706D03*
X003701Y004674D03*
X004685Y004674D03*
X005669Y004674D03*
X002717Y004674D03*
X001732Y004674D03*
X001732Y002706D03*
X001732Y001721D03*
X001832Y026437D03*
X002817Y026437D03*
X003801Y026437D03*
X004785Y026437D03*
X005769Y026437D03*
X005769Y028406D03*
X005769Y029390D03*
X003801Y028406D03*
X001832Y028406D03*
X001832Y029390D03*
D15*
X001001Y014856D02*
X001001Y001606D01*
X001163Y001606D01*
X001162Y001608D01*
X001162Y001835D01*
X001249Y002044D01*
X001409Y002204D01*
X001431Y002213D01*
X001409Y002222D01*
X001249Y002383D01*
X001162Y002592D01*
X001162Y002819D01*
X001249Y003028D01*
X001409Y003189D01*
X001619Y003275D01*
X001846Y003275D01*
X002055Y003189D01*
X002215Y003028D01*
X002302Y002819D01*
X002302Y002592D01*
X002215Y002383D01*
X002055Y002222D01*
X002034Y002213D01*
X002055Y002204D01*
X002215Y002044D01*
X002302Y001835D01*
X002302Y001608D01*
X002301Y001606D01*
X005100Y001606D01*
X005099Y001608D01*
X005099Y001835D01*
X005186Y002044D01*
X005346Y002204D01*
X005368Y002213D01*
X005346Y002222D01*
X005186Y002383D01*
X005099Y002592D01*
X005099Y002819D01*
X005186Y003028D01*
X005346Y003189D01*
X005556Y003275D01*
X005783Y003275D01*
X005992Y003189D01*
X006152Y003028D01*
X006239Y002819D01*
X006239Y002592D01*
X006152Y002383D01*
X005992Y002222D01*
X005971Y002213D01*
X005992Y002204D01*
X006152Y002044D01*
X006239Y001835D01*
X006239Y001608D01*
X006238Y001606D01*
X006501Y001606D01*
X006501Y014856D01*
X001001Y014856D01*
X003501Y014856D01*
X003501Y014356D01*
X003501Y014356D01*
X003501Y014753D01*
X003580Y014753D01*
X003726Y014693D01*
X003751Y014668D01*
X003775Y014693D01*
X003922Y014753D01*
X004001Y014753D01*
X004001Y014356D01*
X004001Y014356D01*
X004399Y014356D01*
X004399Y014435D01*
X004338Y014581D01*
X004226Y014693D01*
X004080Y014753D01*
X004001Y014753D01*
X004001Y014356D01*
X004001Y014355D01*
X004001Y013958D01*
X004001Y013856D01*
X004001Y013856D01*
X004399Y013856D01*
X004399Y013935D01*
X004338Y014081D01*
X004313Y014105D01*
X004338Y014130D01*
X004399Y014276D01*
X004399Y014355D01*
X004001Y014355D01*
X004001Y014355D01*
X004001Y013958D01*
X004001Y013856D01*
X004001Y013855D01*
X004399Y013855D01*
X004399Y013776D01*
X004338Y013630D01*
X004285Y013577D01*
X004304Y013558D01*
X004359Y013427D01*
X004359Y013284D01*
X004304Y013153D01*
X004257Y013105D01*
X004304Y013058D01*
X004359Y012927D01*
X004359Y012784D01*
X004304Y012653D01*
X004257Y012605D01*
X004287Y012575D01*
X004842Y012575D01*
X004971Y012447D01*
X004971Y012264D01*
X004971Y011447D01*
X004971Y010264D01*
X004971Y009197D01*
X004971Y009014D01*
X004842Y008886D01*
X001873Y008886D01*
X001410Y008886D01*
X001281Y009014D01*
X001281Y009197D01*
X001281Y009517D01*
X001245Y009517D01*
X001163Y009599D01*
X001163Y010112D01*
X001245Y010194D01*
X001281Y010194D01*
X001281Y010947D01*
X001281Y011517D01*
X001245Y011517D01*
X001163Y011599D01*
X001163Y012112D01*
X001245Y012194D01*
X001281Y012194D01*
X001281Y013017D01*
X001245Y013017D01*
X001163Y013099D01*
X001163Y013612D01*
X001245Y013694D01*
X001757Y013694D01*
X001839Y013612D01*
X001839Y013099D01*
X001757Y013017D01*
X001721Y013017D01*
X001721Y012194D01*
X001757Y012194D01*
X001839Y012112D01*
X001839Y011599D01*
X001757Y011517D01*
X001721Y011517D01*
X001721Y011075D01*
X003215Y011075D01*
X003245Y011105D01*
X003197Y011153D01*
X003143Y011284D01*
X003143Y011427D01*
X003197Y011558D01*
X003245Y011605D01*
X003197Y011653D01*
X003143Y011784D01*
X003143Y011927D01*
X003197Y012058D01*
X003245Y012105D01*
X003197Y012153D01*
X003143Y012284D01*
X003143Y012427D01*
X003197Y012558D01*
X003245Y012605D01*
X003197Y012653D01*
X003143Y012784D01*
X003143Y012927D01*
X003197Y013058D01*
X003245Y013105D01*
X003197Y013153D01*
X003143Y013284D01*
X003143Y013427D01*
X003197Y013558D01*
X003245Y013605D01*
X003197Y013653D01*
X003143Y013784D01*
X003143Y013927D01*
X003197Y014058D01*
X003217Y014077D01*
X003164Y014130D01*
X003103Y014276D01*
X003103Y014355D01*
X003500Y014355D01*
X003500Y014356D01*
X003103Y014356D01*
X003103Y014435D01*
X003164Y014581D01*
X003275Y014693D01*
X003422Y014753D01*
X003501Y014753D01*
X003501Y014356D01*
X003603Y014356D01*
X004000Y014356D01*
X004000Y014355D01*
X003603Y014355D01*
X003501Y014355D01*
X003501Y014356D01*
X004001Y014356D01*
X004001Y013856D01*
X004001Y014356D01*
X004001Y014340D02*
X004001Y014340D01*
X004001Y014182D02*
X004001Y014182D01*
X004001Y014023D02*
X004001Y014023D01*
X004001Y013865D02*
X004001Y013865D01*
X004362Y014023D02*
X006501Y014023D01*
X006501Y013865D02*
X004399Y013865D01*
X004369Y013706D02*
X006501Y013706D01*
X006501Y013548D02*
X004309Y013548D01*
X004359Y013389D02*
X006501Y013389D01*
X006501Y013230D02*
X004336Y013230D01*
X004290Y013072D02*
X006501Y013072D01*
X006501Y012913D02*
X004359Y012913D01*
X004346Y012755D02*
X006501Y012755D01*
X006501Y012596D02*
X004266Y012596D01*
X004001Y012356D02*
X004751Y012356D01*
X004751Y011356D01*
X004751Y010356D01*
X004751Y009106D01*
X001501Y009106D01*
X001782Y009106D01*
X001501Y009106D02*
X001501Y009856D01*
X001501Y010856D01*
X001501Y011856D01*
X001501Y013356D01*
X001839Y013389D02*
X003143Y013389D01*
X003165Y013230D02*
X001839Y013230D01*
X001811Y013072D02*
X003211Y013072D01*
X003143Y012913D02*
X001721Y012913D01*
X001721Y012755D02*
X003155Y012755D01*
X003236Y012596D02*
X001721Y012596D01*
X001721Y012438D02*
X003148Y012438D01*
X003145Y012279D02*
X001721Y012279D01*
X001830Y012121D02*
X003230Y012121D01*
X003158Y011962D02*
X001839Y011962D01*
X001839Y011804D02*
X003143Y011804D01*
X003205Y011645D02*
X001839Y011645D01*
X001721Y011486D02*
X003168Y011486D01*
X003143Y011328D02*
X001721Y011328D01*
X001721Y011169D02*
X003191Y011169D01*
X003501Y010856D02*
X001501Y010856D01*
X001281Y010852D02*
X001001Y010852D01*
X001001Y010694D02*
X001281Y010694D01*
X001281Y010535D02*
X001001Y010535D01*
X001001Y010377D02*
X001281Y010377D01*
X001281Y010218D02*
X001001Y010218D01*
X001001Y010060D02*
X001163Y010060D01*
X001163Y009901D02*
X001001Y009901D01*
X001001Y009742D02*
X001163Y009742D01*
X001178Y009584D02*
X001001Y009584D01*
X001001Y009425D02*
X001281Y009425D01*
X001281Y009267D02*
X001001Y009267D01*
X001001Y009108D02*
X001281Y009108D01*
X001345Y008950D02*
X001001Y008950D01*
X001001Y008791D02*
X006501Y008791D01*
X006501Y008633D02*
X001001Y008633D01*
X001001Y008474D02*
X003082Y008474D01*
X003093Y008485D02*
X002871Y008263D01*
X002871Y007948D01*
X003093Y007726D01*
X003408Y007726D01*
X003631Y007948D01*
X003631Y008263D01*
X003408Y008485D01*
X003093Y008485D01*
X002924Y008316D02*
X001001Y008316D01*
X001001Y008157D02*
X002871Y008157D01*
X002871Y007999D02*
X001001Y007999D01*
X001001Y007840D02*
X002979Y007840D01*
X003523Y007840D02*
X003922Y007840D01*
X003831Y007932D02*
X003831Y008105D01*
X004250Y008105D01*
X004250Y008106D01*
X003831Y008106D01*
X003831Y008279D01*
X004077Y008525D01*
X004251Y008525D01*
X004425Y008525D01*
X004671Y008279D01*
X004671Y008106D01*
X004251Y008106D01*
X004251Y008106D01*
X004251Y008525D01*
X004251Y008106D01*
X004251Y008105D01*
X004251Y007686D01*
X004425Y007686D01*
X004671Y007932D01*
X004671Y008105D01*
X004251Y008105D01*
X004251Y008105D01*
X004251Y007686D01*
X004077Y007686D01*
X003831Y007932D01*
X003831Y007999D02*
X003631Y007999D01*
X003631Y008157D02*
X003831Y008157D01*
X003867Y008316D02*
X003578Y008316D01*
X003419Y008474D02*
X004025Y008474D01*
X004251Y008474D02*
X004251Y008474D01*
X004251Y008316D02*
X004251Y008316D01*
X004251Y008157D02*
X004251Y008157D01*
X004251Y007999D02*
X004251Y007999D01*
X004251Y007840D02*
X004251Y007840D01*
X004579Y007840D02*
X006501Y007840D01*
X006501Y007999D02*
X004671Y007999D01*
X004671Y008157D02*
X006501Y008157D01*
X006501Y008316D02*
X004635Y008316D01*
X004476Y008474D02*
X006501Y008474D01*
X006501Y008950D02*
X004906Y008950D01*
X004971Y009108D02*
X006501Y009108D01*
X006501Y009267D02*
X004971Y009267D01*
X004971Y009425D02*
X006501Y009425D01*
X006501Y009584D02*
X004971Y009584D01*
X004971Y009742D02*
X006501Y009742D01*
X006501Y009901D02*
X004971Y009901D01*
X004971Y010060D02*
X006501Y010060D01*
X006501Y010218D02*
X004971Y010218D01*
X004971Y010377D02*
X006501Y010377D01*
X006501Y010535D02*
X004971Y010535D01*
X004971Y010694D02*
X006501Y010694D01*
X006501Y010852D02*
X004971Y010852D01*
X004971Y011011D02*
X006501Y011011D01*
X006501Y011169D02*
X004971Y011169D01*
X004971Y011328D02*
X006501Y011328D01*
X006501Y011486D02*
X004971Y011486D01*
X004971Y011645D02*
X006501Y011645D01*
X006501Y011804D02*
X004971Y011804D01*
X004971Y011962D02*
X006501Y011962D01*
X006501Y012121D02*
X004971Y012121D01*
X004971Y012279D02*
X006501Y012279D01*
X006501Y012438D02*
X004971Y012438D01*
X004751Y011356D02*
X004001Y011356D01*
X004001Y010356D02*
X004751Y010356D01*
X004001Y009856D02*
X004001Y009356D01*
X003001Y009356D01*
X003001Y010356D01*
X003501Y010356D01*
X001281Y011011D02*
X001001Y011011D01*
X001001Y011169D02*
X001281Y011169D01*
X001281Y011328D02*
X001001Y011328D01*
X001001Y011486D02*
X001281Y011486D01*
X001163Y011645D02*
X001001Y011645D01*
X001001Y011804D02*
X001163Y011804D01*
X001163Y011962D02*
X001001Y011962D01*
X001001Y012121D02*
X001172Y012121D01*
X001281Y012279D02*
X001001Y012279D01*
X001001Y012438D02*
X001281Y012438D01*
X001281Y012596D02*
X001001Y012596D01*
X001001Y012755D02*
X001281Y012755D01*
X001281Y012913D02*
X001001Y012913D01*
X001001Y013072D02*
X001190Y013072D01*
X001163Y013230D02*
X001001Y013230D01*
X001001Y013389D02*
X001163Y013389D01*
X001163Y013548D02*
X001001Y013548D01*
X001001Y013706D02*
X003175Y013706D01*
X003193Y013548D02*
X001839Y013548D01*
X001001Y013865D02*
X003143Y013865D01*
X003183Y014023D02*
X001001Y014023D01*
X001001Y014182D02*
X003142Y014182D01*
X003103Y014340D02*
X001001Y014340D01*
X001001Y014499D02*
X003130Y014499D01*
X003240Y014657D02*
X001001Y014657D01*
X001001Y014816D02*
X006501Y014816D01*
X006501Y014657D02*
X004261Y014657D01*
X004372Y014499D02*
X006501Y014499D01*
X006501Y014340D02*
X004399Y014340D01*
X004359Y014182D02*
X006501Y014182D01*
X004001Y014499D02*
X004001Y014499D01*
X004001Y014657D02*
X004001Y014657D01*
X003501Y014657D02*
X003501Y014657D01*
X003501Y014499D02*
X003501Y014499D01*
X001001Y014856D02*
X001001Y003606D01*
X003701Y003606D01*
X003701Y002706D01*
X003749Y002754D02*
X003653Y002754D01*
X003653Y003315D01*
X003579Y003315D01*
X003355Y003223D01*
X003184Y003051D01*
X003091Y002827D01*
X003091Y002753D01*
X003653Y002753D01*
X003653Y002657D01*
X003749Y002657D01*
X003749Y002096D01*
X003822Y002096D01*
X004046Y002188D01*
X004218Y002360D01*
X004311Y002584D01*
X004311Y002657D01*
X003749Y002657D01*
X003749Y002753D01*
X004311Y002753D01*
X004311Y002827D01*
X004218Y003051D01*
X004046Y003223D01*
X003822Y003315D01*
X003749Y003315D01*
X003749Y002754D01*
X003749Y002767D02*
X003653Y002767D01*
X003653Y002657D02*
X003091Y002657D01*
X003091Y002584D01*
X003184Y002360D01*
X003355Y002188D01*
X003579Y002096D01*
X003653Y002096D01*
X003653Y002657D01*
X003653Y002608D02*
X003749Y002608D01*
X003749Y002449D02*
X003653Y002449D01*
X003653Y002291D02*
X003749Y002291D01*
X003749Y002132D02*
X003653Y002132D01*
X003490Y002132D02*
X002127Y002132D01*
X002124Y002291D02*
X003253Y002291D01*
X003147Y002449D02*
X002243Y002449D01*
X002302Y002608D02*
X003091Y002608D01*
X003091Y002767D02*
X002302Y002767D01*
X002258Y002925D02*
X003132Y002925D01*
X003216Y003084D02*
X002160Y003084D01*
X001926Y003242D02*
X003403Y003242D01*
X003653Y003242D02*
X003749Y003242D01*
X003749Y003084D02*
X003653Y003084D01*
X003653Y002925D02*
X003749Y002925D01*
X003999Y003242D02*
X005476Y003242D01*
X005241Y003084D02*
X004185Y003084D01*
X004270Y002925D02*
X005143Y002925D01*
X005099Y002767D02*
X004311Y002767D01*
X004311Y002608D02*
X005099Y002608D01*
X005158Y002449D02*
X004255Y002449D01*
X004149Y002291D02*
X005278Y002291D01*
X005274Y002132D02*
X003911Y002132D01*
X005099Y001815D02*
X002302Y001815D01*
X002302Y001657D02*
X005099Y001657D01*
X005157Y001974D02*
X002245Y001974D01*
X001337Y002132D02*
X001001Y002132D01*
X001001Y001974D02*
X001220Y001974D01*
X001162Y001815D02*
X001001Y001815D01*
X001001Y001657D02*
X001162Y001657D01*
X001001Y002291D02*
X001341Y002291D01*
X001221Y002449D02*
X001001Y002449D01*
X001001Y002608D02*
X001162Y002608D01*
X001162Y002767D02*
X001001Y002767D01*
X001001Y002925D02*
X001206Y002925D01*
X001304Y003084D02*
X001001Y003084D01*
X001001Y003242D02*
X001539Y003242D01*
X001001Y003401D02*
X006501Y003401D01*
X006501Y003559D02*
X001001Y003559D01*
X001001Y003718D02*
X006501Y003718D01*
X006501Y003876D02*
X001001Y003876D01*
X001001Y004035D02*
X006501Y004035D01*
X006501Y004193D02*
X005995Y004193D01*
X005992Y004191D02*
X006152Y004351D01*
X006239Y004561D01*
X006239Y004787D01*
X006152Y004997D01*
X005992Y005157D01*
X005783Y005244D01*
X005556Y005244D01*
X005346Y005157D01*
X005186Y004997D01*
X005177Y004975D01*
X005168Y004997D01*
X005008Y005157D01*
X004798Y005244D01*
X004572Y005244D01*
X004362Y005157D01*
X004202Y004997D01*
X004193Y004975D01*
X004184Y004997D01*
X004024Y005157D01*
X003814Y005244D01*
X003587Y005244D01*
X003378Y005157D01*
X003218Y004997D01*
X003209Y004975D01*
X003200Y004997D01*
X003039Y005157D01*
X002830Y005244D01*
X002603Y005244D01*
X002394Y005157D01*
X002233Y004997D01*
X002224Y004975D01*
X002215Y004997D01*
X002055Y005157D01*
X001846Y005244D01*
X001619Y005244D01*
X001409Y005157D01*
X001249Y004997D01*
X001162Y004787D01*
X001162Y004561D01*
X001249Y004351D01*
X001409Y004191D01*
X001619Y004104D01*
X001846Y004104D01*
X002055Y004191D01*
X002215Y004351D01*
X002224Y004373D01*
X002233Y004351D01*
X002394Y004191D01*
X002603Y004104D01*
X002830Y004104D01*
X003039Y004191D01*
X003200Y004351D01*
X003209Y004373D01*
X003218Y004351D01*
X003378Y004191D01*
X003587Y004104D01*
X003814Y004104D01*
X004024Y004191D01*
X004184Y004351D01*
X004193Y004373D01*
X004202Y004351D01*
X004362Y004191D01*
X004572Y004104D01*
X004798Y004104D01*
X005008Y004191D01*
X005168Y004351D01*
X005177Y004373D01*
X005186Y004351D01*
X005346Y004191D01*
X005556Y004104D01*
X005783Y004104D01*
X005992Y004191D01*
X006153Y004352D02*
X006501Y004352D01*
X006501Y004511D02*
X006219Y004511D01*
X006239Y004669D02*
X006501Y004669D01*
X006501Y004828D02*
X006223Y004828D01*
X006157Y004986D02*
X006501Y004986D01*
X006501Y005145D02*
X006005Y005145D01*
X006501Y005303D02*
X001001Y005303D01*
X001001Y005145D02*
X001397Y005145D01*
X001245Y004986D02*
X001001Y004986D01*
X001001Y004828D02*
X001179Y004828D01*
X001162Y004669D02*
X001001Y004669D01*
X001001Y004511D02*
X001183Y004511D01*
X001249Y004352D02*
X001001Y004352D01*
X001001Y004193D02*
X001407Y004193D01*
X002058Y004193D02*
X002391Y004193D01*
X002233Y004352D02*
X002216Y004352D01*
X002220Y004986D02*
X002229Y004986D01*
X002381Y005145D02*
X002068Y005145D01*
X001001Y005462D02*
X006501Y005462D01*
X006501Y005620D02*
X001001Y005620D01*
X001001Y005779D02*
X006501Y005779D01*
X006501Y005937D02*
X001001Y005937D01*
X001001Y006096D02*
X006501Y006096D01*
X006501Y006255D02*
X001001Y006255D01*
X001001Y006413D02*
X006501Y006413D01*
X006501Y006572D02*
X004504Y006572D01*
X004408Y006476D02*
X004631Y006698D01*
X004631Y007013D01*
X004408Y007235D01*
X004093Y007235D01*
X003871Y007013D01*
X003871Y006698D01*
X004093Y006476D01*
X004408Y006476D01*
X004631Y006730D02*
X006501Y006730D01*
X006501Y006889D02*
X004631Y006889D01*
X004596Y007047D02*
X006501Y007047D01*
X006501Y007206D02*
X004438Y007206D01*
X004064Y007206D02*
X003494Y007206D01*
X003425Y007275D02*
X003251Y007275D01*
X003251Y006856D01*
X003251Y006856D01*
X003671Y006856D01*
X003671Y007029D01*
X003425Y007275D01*
X003251Y007275D02*
X003251Y006856D01*
X003251Y006855D01*
X003251Y006436D01*
X003425Y006436D01*
X003671Y006682D01*
X003671Y006855D01*
X003251Y006855D01*
X003251Y006855D01*
X003251Y006436D01*
X003077Y006436D01*
X002831Y006682D01*
X002831Y006855D01*
X003250Y006855D01*
X003250Y006856D01*
X002831Y006856D01*
X002831Y007029D01*
X003077Y007275D01*
X003251Y007275D01*
X003251Y007206D02*
X003251Y007206D01*
X003251Y007047D02*
X003251Y007047D01*
X003251Y006889D02*
X003251Y006889D01*
X003251Y006730D02*
X003251Y006730D01*
X003251Y006572D02*
X003251Y006572D01*
X003561Y006572D02*
X003997Y006572D01*
X003871Y006730D02*
X003671Y006730D01*
X003671Y006889D02*
X003871Y006889D01*
X003905Y007047D02*
X003653Y007047D01*
X003007Y007206D02*
X001001Y007206D01*
X001001Y007364D02*
X006501Y007364D01*
X006501Y007523D02*
X001001Y007523D01*
X001001Y007681D02*
X006501Y007681D01*
X005334Y005145D02*
X005020Y005145D01*
X005173Y004986D02*
X005182Y004986D01*
X005169Y004352D02*
X005186Y004352D01*
X005344Y004193D02*
X005011Y004193D01*
X004359Y004193D02*
X004026Y004193D01*
X004184Y004352D02*
X004201Y004352D01*
X003751Y003606D02*
X003701Y003606D01*
X003375Y004193D02*
X003042Y004193D01*
X003200Y004352D02*
X003217Y004352D01*
X003204Y004986D02*
X003213Y004986D01*
X003365Y005145D02*
X003052Y005145D01*
X004036Y005145D02*
X004350Y005145D01*
X004197Y004986D02*
X004188Y004986D01*
X002941Y006572D02*
X001001Y006572D01*
X001001Y006730D02*
X002831Y006730D01*
X002831Y006889D02*
X001001Y006889D01*
X001001Y007047D02*
X002849Y007047D01*
X005863Y003242D02*
X006501Y003242D01*
X006501Y003084D02*
X006097Y003084D01*
X006195Y002925D02*
X006501Y002925D01*
X006501Y002767D02*
X006239Y002767D01*
X006239Y002608D02*
X006501Y002608D01*
X006501Y002449D02*
X006180Y002449D01*
X006061Y002291D02*
X006501Y002291D01*
X006501Y002132D02*
X006064Y002132D01*
X006182Y001974D02*
X006501Y001974D01*
X006501Y001815D02*
X006239Y001815D01*
X006239Y001657D02*
X006501Y001657D01*
X003821Y027426D02*
X003821Y028406D01*
X003801Y028406D01*
D16*
X001501Y013356D03*
X001501Y011856D03*
X001501Y009856D03*
D17*
X014641Y004136D02*
X015831Y004136D01*
X015831Y004166D01*
X015831Y004636D02*
X014761Y004636D01*
X014761Y018026D01*
X014461Y018026D01*
X014461Y017546D02*
X014641Y017546D01*
X014641Y004136D01*
X014461Y003626D02*
X015831Y003626D01*
X015831Y003636D01*
X015831Y003146D02*
X014461Y003146D01*
X014461Y002606D02*
X015831Y002606D01*
X015831Y002636D01*
X015831Y003136D02*
X015831Y003146D01*
X015831Y002136D02*
X015831Y002126D01*
X014461Y002126D01*
X014461Y001646D02*
X014461Y001636D01*
X015831Y001636D01*
X018331Y001636D02*
X019201Y001636D01*
X019681Y001646D01*
X019681Y002126D02*
X019801Y002136D01*
X018331Y002136D01*
X018331Y002636D02*
X019801Y002636D01*
X019681Y002666D01*
X019681Y003146D02*
X019801Y003136D01*
X018331Y003136D01*
X018331Y003626D02*
X018331Y003636D01*
X018331Y003626D02*
X019681Y003626D01*
X019501Y004136D02*
X018331Y004136D01*
X018331Y004166D01*
X018331Y004636D02*
X019381Y004636D01*
X019381Y018026D01*
X019681Y018026D01*
X019681Y017546D02*
X019501Y017546D01*
X019501Y004136D01*
X019261Y005136D02*
X018331Y005136D01*
X018331Y005126D01*
X018331Y005606D02*
X018331Y005636D01*
X019141Y005636D01*
X019141Y019046D01*
X019681Y019046D01*
X019681Y019526D02*
X019021Y019526D01*
X019021Y006136D01*
X018331Y006136D01*
X018331Y006086D01*
X019261Y005136D02*
X019261Y018506D01*
X019681Y018506D01*
X018661Y019526D02*
X017331Y019526D01*
X017331Y019536D01*
X016831Y019536D02*
X015541Y019536D01*
X015541Y008906D01*
X016801Y008906D01*
X016861Y008906D01*
X016801Y009326D02*
X015661Y009326D01*
X015661Y019036D01*
X016831Y019036D01*
X017331Y019036D02*
X018541Y019036D01*
X018541Y009326D01*
X017341Y009326D01*
X017341Y008906D02*
X018661Y008906D01*
X018661Y019526D01*
X018421Y018536D02*
X017331Y018536D01*
X016831Y018536D02*
X015781Y018536D01*
X015781Y009746D01*
X016801Y009746D01*
X016801Y010166D02*
X015901Y010166D01*
X015901Y018036D01*
X016831Y018036D01*
X017331Y018036D02*
X018301Y018036D01*
X018301Y010166D01*
X017341Y010166D01*
X017341Y009746D02*
X018421Y009746D01*
X018421Y018536D01*
X018181Y017536D02*
X017331Y017536D01*
X016831Y017536D02*
X016021Y017536D01*
X016021Y010586D01*
X016801Y010586D01*
X016801Y011006D02*
X016141Y011006D01*
X016141Y017036D01*
X016831Y017036D01*
X017331Y017036D02*
X018061Y017036D01*
X018061Y011006D01*
X017341Y011006D01*
X017341Y011426D02*
X017941Y011426D01*
X017941Y016536D01*
X017331Y016536D01*
X016831Y016536D02*
X016261Y016536D01*
X016261Y011426D01*
X016801Y011426D01*
X016801Y011846D02*
X016381Y011846D01*
X016381Y016036D01*
X016831Y016036D01*
X017331Y016036D02*
X017821Y016036D01*
X017821Y011846D01*
X017341Y011846D01*
X017341Y012266D02*
X017701Y012266D01*
X017701Y015536D01*
X017331Y015536D01*
X016831Y015506D02*
X016831Y015536D01*
X016831Y015506D02*
X016501Y015506D01*
X016501Y012266D01*
X016801Y012266D01*
X016801Y012686D02*
X016801Y015036D01*
X016831Y015036D01*
X017331Y015036D02*
X017341Y015036D01*
X017341Y012686D01*
X017341Y010586D02*
X018181Y010586D01*
X018181Y017536D01*
X015121Y019526D02*
X014461Y019526D01*
X014461Y019046D02*
X015001Y019046D01*
X015001Y005636D01*
X015831Y005636D01*
X015831Y005606D01*
X015831Y006136D02*
X015121Y006136D01*
X015121Y019526D01*
X014881Y018566D02*
X014461Y018566D01*
X014881Y018566D02*
X014881Y005136D01*
X015831Y005136D01*
X015831Y005126D01*
X015831Y004646D02*
X015831Y004636D01*
X015831Y006136D02*
X015831Y006146D01*
X018331Y004646D02*
X018331Y004636D01*
X021981Y004244D02*
X021981Y004226D01*
X021981Y004244D02*
X023147Y004244D01*
X023147Y003457D02*
X021981Y003457D01*
X021981Y003446D01*
X021981Y002726D02*
X021981Y002670D01*
X023147Y002670D01*
X023934Y002670D02*
X025221Y002670D01*
X025221Y014426D01*
X024861Y014426D01*
X024861Y015436D01*
X025211Y015436D01*
X025711Y015436D02*
X026061Y015436D01*
X026061Y014426D01*
X025701Y014426D01*
X025701Y002670D01*
X026987Y002670D01*
X026987Y001882D02*
X025581Y001882D01*
X025581Y014546D01*
X025711Y014546D01*
X025711Y014936D01*
X025211Y014936D02*
X025211Y014546D01*
X025341Y014546D01*
X025341Y001882D01*
X023934Y001882D01*
X023147Y001882D02*
X021981Y001882D01*
X021981Y001946D01*
X023934Y003457D02*
X025101Y003457D01*
X025101Y014306D01*
X024741Y014306D01*
X024741Y015936D01*
X025211Y015936D01*
X025211Y016436D02*
X024621Y016436D01*
X024621Y014186D01*
X024981Y014186D01*
X024981Y004244D01*
X023934Y004244D01*
X023934Y005032D02*
X024861Y005032D01*
X024861Y014066D01*
X024501Y014066D01*
X024501Y016936D01*
X025211Y016936D01*
X025711Y016936D02*
X026421Y016936D01*
X026421Y014066D01*
X026061Y014066D01*
X026061Y005032D01*
X026987Y005032D01*
X026987Y005819D02*
X026181Y005819D01*
X026181Y013946D01*
X026541Y013946D01*
X026541Y017436D01*
X025711Y017436D01*
X025711Y017936D02*
X026661Y017936D01*
X026661Y013826D01*
X026301Y013826D01*
X026301Y006607D01*
X026987Y006607D01*
X026987Y007394D02*
X026421Y007394D01*
X026421Y013706D01*
X026781Y013706D01*
X026781Y018436D01*
X025711Y018436D01*
X025711Y018936D02*
X026901Y018936D01*
X026901Y013586D01*
X026541Y013586D01*
X026541Y008181D01*
X026987Y008181D01*
X026987Y008969D02*
X026661Y008969D01*
X026661Y013466D01*
X027021Y013466D01*
X027021Y019436D01*
X025711Y019436D01*
X025211Y019436D02*
X023901Y019436D01*
X023901Y013466D01*
X024174Y013466D01*
X024141Y008906D01*
X023934Y008906D01*
X023934Y008969D01*
X023541Y008906D02*
X023147Y008906D01*
X023147Y008969D01*
X023541Y008906D02*
X023541Y019466D01*
X022461Y019466D01*
X022461Y018986D02*
X023421Y018986D01*
X023421Y009506D01*
X022701Y009506D01*
X022701Y008181D01*
X023147Y008181D01*
X023934Y008181D02*
X024381Y008181D01*
X024381Y013586D01*
X024021Y013586D01*
X024021Y018936D01*
X025211Y018936D01*
X025211Y018436D02*
X024141Y018436D01*
X024141Y013706D01*
X024501Y013706D01*
X024501Y007394D01*
X023934Y007394D01*
X023147Y007394D02*
X022581Y007394D01*
X022581Y009626D01*
X023301Y009626D01*
X023301Y018446D01*
X022461Y018446D01*
X022461Y017966D02*
X023181Y017966D01*
X023181Y009746D01*
X022461Y009746D01*
X022461Y006607D01*
X023147Y006607D01*
X023934Y006607D02*
X024621Y006607D01*
X024621Y013826D01*
X024261Y013826D01*
X024261Y017936D01*
X025211Y017936D01*
X025211Y017436D02*
X024381Y017436D01*
X024381Y013946D01*
X024741Y013946D01*
X024741Y005819D01*
X023934Y005819D01*
X023147Y005819D02*
X022341Y005819D01*
X022341Y009866D01*
X023061Y009866D01*
X023061Y017426D01*
X022461Y017426D01*
X025711Y016436D02*
X026301Y016436D01*
X026301Y014186D01*
X025941Y014186D01*
X025941Y004244D01*
X026987Y004244D01*
X026987Y003457D02*
X025821Y003457D01*
X025821Y014306D01*
X026181Y014306D01*
X026181Y015936D01*
X025711Y015936D01*
X027861Y017426D02*
X027861Y009746D01*
X028581Y009746D01*
X028581Y005819D01*
X027774Y005819D01*
X027774Y005032D02*
X028941Y005032D01*
X028941Y005066D01*
X028941Y004244D02*
X028941Y004226D01*
X028941Y004244D02*
X027774Y004244D01*
X027774Y003457D02*
X028941Y003457D01*
X028941Y003446D01*
X028941Y002726D02*
X028941Y002670D01*
X027774Y002670D01*
X027774Y001882D02*
X028941Y001882D01*
X028941Y001946D01*
X028461Y006607D02*
X027774Y006607D01*
X028461Y006607D02*
X028461Y009626D01*
X027741Y009626D01*
X027741Y017906D01*
X028461Y017906D01*
X028461Y017426D02*
X027861Y017426D01*
X027621Y018446D02*
X027621Y009506D01*
X028341Y009506D01*
X028341Y007394D01*
X027774Y007394D01*
X027774Y008181D02*
X028221Y008181D01*
X028221Y009386D01*
X027501Y009386D01*
X027501Y018926D01*
X028461Y018926D01*
X028461Y018446D02*
X027621Y018446D01*
X027381Y019466D02*
X027381Y008969D01*
X027774Y008969D01*
X023147Y005032D02*
X021981Y005032D01*
X021981Y005066D01*
X027381Y019466D02*
X028461Y019466D01*
X029001Y023856D02*
X029001Y028496D01*
X020101Y028496D01*
X020101Y027196D01*
X009311Y027196D01*
X009311Y025776D01*
X009811Y025776D02*
X009811Y027066D01*
X020231Y027066D01*
X020231Y028366D01*
X028871Y028366D01*
X028871Y023986D01*
X023451Y023986D01*
X023451Y025276D01*
X023451Y025776D02*
X023451Y026156D01*
X022441Y026156D01*
X022441Y023986D01*
X009811Y023986D01*
X009811Y025276D01*
X009311Y025276D02*
X009311Y023856D01*
X022571Y023856D01*
X022571Y025776D01*
X022951Y025776D01*
X022951Y025276D02*
X022951Y023856D01*
X029001Y023856D01*
X028741Y024116D02*
X028741Y028236D01*
X020361Y028236D01*
X020361Y026936D01*
X010311Y026936D01*
X010311Y025776D01*
X010311Y025276D02*
X010311Y024116D01*
X022311Y024116D01*
X022311Y026286D01*
X023951Y026286D01*
X023951Y025776D01*
X023951Y025276D02*
X023951Y024116D01*
X028741Y024116D01*
X028611Y024246D02*
X024451Y024246D01*
X024451Y025276D01*
X024451Y025776D02*
X024451Y026416D01*
X022181Y026416D01*
X022181Y024246D01*
X010811Y024246D01*
X010811Y025276D01*
X010811Y025776D02*
X010811Y026806D01*
X020491Y026806D01*
X020491Y028106D01*
X028611Y028106D01*
X028611Y024246D01*
X028481Y024376D02*
X028481Y027976D01*
X020621Y027976D01*
X020621Y026676D01*
X011311Y026676D01*
X011311Y025776D01*
X011311Y025276D02*
X011311Y024376D01*
X022051Y024376D01*
X022051Y026546D01*
X024951Y026546D01*
X024951Y025776D01*
X025451Y025776D02*
X025451Y026676D01*
X021921Y026676D01*
X021921Y024506D01*
X011811Y024506D01*
X011811Y025276D01*
X011811Y025776D02*
X011811Y026546D01*
X020751Y026546D01*
X020751Y027846D01*
X028351Y027846D01*
X028351Y024506D01*
X025451Y024506D01*
X025451Y025276D01*
X024951Y025276D02*
X024951Y024376D01*
X028481Y024376D01*
X028221Y024636D02*
X028221Y027716D01*
X020881Y027716D01*
X020881Y026416D01*
X012311Y026416D01*
X012311Y025776D01*
X012811Y025776D02*
X012811Y026286D01*
X021011Y026286D01*
X021011Y027586D01*
X028091Y027586D01*
X028091Y024766D01*
X026451Y024766D01*
X026451Y025276D01*
X026451Y025776D02*
X026451Y026936D01*
X021661Y026936D01*
X021661Y024766D01*
X012811Y024766D01*
X012811Y025276D01*
X012311Y025276D02*
X012311Y024636D01*
X021791Y024636D01*
X021791Y026806D01*
X025951Y026806D01*
X025951Y025776D01*
X025951Y025276D02*
X025951Y024636D01*
X028221Y024636D01*
X027961Y024896D02*
X027961Y027456D01*
X021141Y027456D01*
X021141Y026156D01*
X013311Y026156D01*
X013311Y025776D01*
X013311Y025276D02*
X013311Y024896D01*
X021531Y024896D01*
X021531Y027066D01*
X026951Y027066D01*
X026951Y025776D01*
X026951Y025276D02*
X026951Y024896D01*
X027961Y024896D01*
X027831Y025276D02*
X027831Y027326D01*
X021271Y027326D01*
X021271Y026016D01*
X013941Y026006D01*
X013811Y026006D01*
X013811Y025776D01*
X013811Y025276D02*
X013811Y025026D01*
X021401Y025026D01*
X021401Y027196D01*
X027451Y027196D01*
X027451Y025776D01*
X027451Y025276D02*
X027831Y025276D01*
D18*
X028461Y019466D03*
X028461Y018926D03*
X028461Y018446D03*
X028461Y017906D03*
X028461Y017426D03*
X022461Y017426D03*
X022461Y017966D03*
X022461Y018446D03*
X022461Y018986D03*
X022461Y019466D03*
X019681Y019526D03*
X019681Y019046D03*
X019681Y018506D03*
X019681Y018026D03*
X019681Y017546D03*
X017341Y012686D03*
X017341Y012266D03*
X017341Y011846D03*
X017341Y011426D03*
X017341Y011006D03*
X017341Y010586D03*
X017341Y010166D03*
X017341Y009746D03*
X017341Y009326D03*
X017341Y008906D03*
X016801Y008906D03*
X016801Y009326D03*
X016801Y009746D03*
X016801Y010166D03*
X016801Y010586D03*
X016801Y011006D03*
X016801Y011426D03*
X016801Y011846D03*
X016801Y012266D03*
X016801Y012686D03*
X014461Y017546D03*
X014461Y018026D03*
X014461Y018566D03*
X014461Y019046D03*
X014461Y019526D03*
X021981Y005066D03*
X021981Y004226D03*
X021981Y003446D03*
X021981Y002726D03*
X021981Y001946D03*
X019681Y002126D03*
X019681Y001646D03*
X019681Y002666D03*
X019681Y003146D03*
X019681Y003626D03*
X014461Y003626D03*
X014461Y003146D03*
X014461Y002606D03*
X014461Y002126D03*
X014461Y001646D03*
X028941Y001946D03*
X028941Y002726D03*
X028941Y003446D03*
X028941Y004226D03*
X028941Y005066D03*
D19*
X006701Y016826D02*
X000821Y016826D01*
X000821Y029706D01*
X001384Y029706D01*
X001374Y029696D01*
X001292Y029497D01*
X001292Y029282D01*
X001374Y029084D01*
X001526Y028932D01*
X001609Y028898D01*
X001526Y028863D01*
X001374Y028711D01*
X001292Y028513D01*
X001292Y028298D01*
X001374Y028100D01*
X001374Y028101D02*
X000821Y028101D01*
X000821Y028199D02*
X001333Y028199D01*
X001292Y028298D02*
X000821Y028298D01*
X000821Y028396D02*
X001292Y028396D01*
X001292Y028495D02*
X000821Y028495D01*
X000821Y028593D02*
X001326Y028593D01*
X001366Y028692D02*
X000821Y028692D01*
X000821Y028790D02*
X001453Y028790D01*
X001588Y028889D02*
X000821Y028889D01*
X000821Y028987D02*
X001471Y028987D01*
X001374Y029086D02*
X000821Y029086D01*
X000821Y029185D02*
X001333Y029185D01*
X001292Y029283D02*
X000821Y029283D01*
X000821Y029382D02*
X001292Y029382D01*
X001292Y029480D02*
X000821Y029480D01*
X000821Y029579D02*
X001326Y029579D01*
X001367Y029677D02*
X000821Y029677D01*
X002055Y028898D02*
X002138Y028932D01*
X002290Y029084D01*
X002372Y029282D01*
X002372Y029497D01*
X002290Y029696D01*
X002280Y029706D01*
X005321Y029706D01*
X005311Y029696D01*
X005229Y029497D01*
X005229Y029282D01*
X005311Y029084D01*
X005463Y028932D01*
X005546Y028898D01*
X005463Y028863D01*
X005311Y028711D01*
X005229Y028513D01*
X005229Y028298D01*
X005311Y028100D01*
X005311Y028101D02*
X004302Y028101D01*
X004292Y028077D02*
X004381Y028290D01*
X004381Y028356D01*
X003851Y028356D01*
X003851Y028455D01*
X004381Y028455D01*
X004381Y028521D01*
X004292Y028734D01*
X004129Y028897D01*
X003916Y028985D01*
X003851Y028985D01*
X003851Y028456D01*
X003751Y028456D01*
X003751Y028985D01*
X003685Y028985D01*
X003472Y028897D01*
X003309Y028734D01*
X003221Y028521D01*
X003221Y028455D01*
X003751Y028455D01*
X003751Y028356D01*
X003221Y028356D01*
X003221Y028290D01*
X003309Y028077D01*
X003472Y027914D01*
X003685Y027826D01*
X003751Y027826D01*
X003751Y028355D01*
X003851Y028355D01*
X003851Y027826D01*
X003916Y027826D01*
X004129Y027914D01*
X004292Y028077D01*
X004217Y028002D02*
X005409Y028002D01*
X005463Y027948D02*
X005662Y027866D01*
X005877Y027866D01*
X006075Y027948D01*
X006227Y028100D01*
X006309Y028298D01*
X006309Y028513D01*
X006227Y028711D01*
X006075Y028863D01*
X005992Y028898D01*
X006075Y028932D01*
X006227Y029084D01*
X006309Y029282D01*
X006309Y029497D01*
X006227Y029696D01*
X006217Y029706D01*
X006701Y029706D01*
X006701Y016826D01*
X006701Y016867D02*
X000821Y016867D01*
X000821Y016965D02*
X006701Y016965D01*
X006701Y017064D02*
X004439Y017064D01*
X004399Y017024D02*
X004503Y017127D01*
X004559Y017262D01*
X004559Y017317D01*
X004210Y017317D01*
X004210Y017354D01*
X004559Y017354D01*
X004559Y017409D01*
X004503Y017544D01*
X004433Y017614D01*
X004469Y017650D01*
X004519Y017770D01*
X004519Y017901D01*
X004469Y018021D01*
X004404Y018086D01*
X004469Y018150D01*
X004519Y018270D01*
X004519Y018401D01*
X004469Y018521D01*
X004404Y018586D01*
X004469Y018650D01*
X004519Y018770D01*
X004519Y018901D01*
X004469Y019021D01*
X004404Y019086D01*
X004469Y019150D01*
X004519Y019270D01*
X004519Y019401D01*
X004469Y019521D01*
X004404Y019586D01*
X004469Y019650D01*
X004519Y019770D01*
X004519Y019901D01*
X004469Y020021D01*
X004404Y020086D01*
X004469Y020150D01*
X004519Y020270D01*
X004519Y020401D01*
X004469Y020521D01*
X004404Y020586D01*
X004469Y020650D01*
X004519Y020770D01*
X004519Y020901D01*
X004469Y021021D01*
X004404Y021086D01*
X004469Y021150D01*
X004519Y021270D01*
X004519Y021401D01*
X004469Y021521D01*
X004404Y021586D01*
X004469Y021650D01*
X004519Y021770D01*
X004519Y021901D01*
X004469Y022021D01*
X004376Y022113D01*
X004256Y022163D01*
X004126Y022163D01*
X004005Y022113D01*
X003941Y022049D01*
X003876Y022113D01*
X003756Y022163D01*
X003626Y022163D01*
X003505Y022113D01*
X003413Y022021D01*
X003363Y021901D01*
X003363Y021770D01*
X003413Y021650D01*
X003477Y021586D01*
X003413Y021521D01*
X003363Y021401D01*
X003363Y021270D01*
X003413Y021150D01*
X003477Y021086D01*
X003413Y021021D01*
X003363Y020901D01*
X003363Y020770D01*
X003413Y020650D01*
X003477Y020586D01*
X003413Y020521D01*
X003363Y020401D01*
X003363Y020270D01*
X003413Y020150D01*
X003477Y020086D01*
X003413Y020021D01*
X003363Y019901D01*
X003363Y019770D01*
X003413Y019650D01*
X003477Y019586D01*
X003413Y019521D01*
X003363Y019401D01*
X003363Y019270D01*
X003413Y019150D01*
X003477Y019086D01*
X003413Y019021D01*
X003363Y018901D01*
X003363Y018770D01*
X003413Y018650D01*
X003477Y018586D01*
X003413Y018521D01*
X003363Y018401D01*
X003363Y018270D01*
X003413Y018150D01*
X003449Y018114D01*
X003379Y018044D01*
X003323Y017909D01*
X003323Y017854D01*
X003672Y017854D01*
X003672Y017817D01*
X003323Y017817D01*
X003323Y017762D01*
X003379Y017627D01*
X003421Y017586D01*
X003379Y017544D01*
X003323Y017409D01*
X003323Y017354D01*
X003672Y017354D01*
X003672Y017317D01*
X003323Y017317D01*
X003323Y017262D01*
X003379Y017127D01*
X003482Y017024D01*
X003618Y016968D01*
X003672Y016968D01*
X003672Y017316D01*
X003710Y017316D01*
X003710Y016968D01*
X003764Y016968D01*
X003899Y017024D01*
X003941Y017065D01*
X003982Y017024D01*
X004118Y016968D01*
X004172Y016968D01*
X004172Y017316D01*
X004210Y017316D01*
X004210Y016968D01*
X004264Y016968D01*
X004399Y017024D01*
X004517Y017162D02*
X006701Y017162D01*
X006701Y017261D02*
X004558Y017261D01*
X004559Y017359D02*
X006701Y017359D01*
X006701Y017458D02*
X004538Y017458D01*
X004490Y017556D02*
X006701Y017556D01*
X006701Y017655D02*
X004471Y017655D01*
X004512Y017754D02*
X006701Y017754D01*
X006701Y017852D02*
X004519Y017852D01*
X004498Y017951D02*
X006701Y017951D01*
X006701Y018049D02*
X004441Y018049D01*
X004466Y018148D02*
X006701Y018148D01*
X006701Y018246D02*
X004509Y018246D01*
X004519Y018345D02*
X006701Y018345D01*
X006701Y018443D02*
X004501Y018443D01*
X004448Y018542D02*
X006701Y018542D01*
X006701Y018640D02*
X004459Y018640D01*
X004506Y018739D02*
X006701Y018739D01*
X006701Y018837D02*
X004519Y018837D01*
X004504Y018936D02*
X006701Y018936D01*
X006701Y019035D02*
X004455Y019035D01*
X004452Y019133D02*
X006701Y019133D01*
X006701Y019232D02*
X004503Y019232D01*
X004519Y019330D02*
X006701Y019330D01*
X006701Y019429D02*
X004507Y019429D01*
X004463Y019527D02*
X006701Y019527D01*
X006701Y019626D02*
X004445Y019626D01*
X004500Y019724D02*
X006701Y019724D01*
X006701Y019823D02*
X004519Y019823D01*
X004510Y019921D02*
X006701Y019921D01*
X006701Y020020D02*
X004469Y020020D01*
X004437Y020119D02*
X006701Y020119D01*
X006701Y020217D02*
X004496Y020217D01*
X004519Y020316D02*
X006701Y020316D01*
X006701Y020414D02*
X004513Y020414D01*
X004472Y020513D02*
X006701Y020513D01*
X006701Y020611D02*
X004430Y020611D01*
X004494Y020710D02*
X006701Y020710D01*
X006701Y020808D02*
X004519Y020808D01*
X004516Y020907D02*
X006701Y020907D01*
X006701Y021005D02*
X004475Y021005D01*
X004423Y021104D02*
X006701Y021104D01*
X006701Y021203D02*
X004490Y021203D01*
X004519Y021301D02*
X006701Y021301D01*
X006701Y021400D02*
X004519Y021400D01*
X004478Y021498D02*
X006701Y021498D01*
X006701Y021597D02*
X004416Y021597D01*
X004487Y021695D02*
X006701Y021695D01*
X006701Y021794D02*
X004519Y021794D01*
X004519Y021892D02*
X006701Y021892D01*
X006701Y021991D02*
X004481Y021991D01*
X004400Y022089D02*
X006701Y022089D01*
X006701Y022188D02*
X000821Y022188D01*
X000821Y022286D02*
X006701Y022286D01*
X006701Y022385D02*
X000821Y022385D01*
X000821Y022484D02*
X006701Y022484D01*
X006701Y022582D02*
X000821Y022582D01*
X000821Y022681D02*
X006701Y022681D01*
X006701Y022779D02*
X000821Y022779D01*
X000821Y022878D02*
X006701Y022878D01*
X006701Y022976D02*
X000821Y022976D01*
X000821Y023075D02*
X006701Y023075D01*
X006701Y023173D02*
X005964Y023173D01*
X005886Y023096D02*
X006091Y023301D01*
X006091Y023590D01*
X005886Y023795D01*
X005596Y023795D01*
X005391Y023590D01*
X005391Y023301D01*
X005596Y023096D01*
X005886Y023096D01*
X006062Y023272D02*
X006701Y023272D01*
X006701Y023370D02*
X006091Y023370D01*
X006091Y023469D02*
X006701Y023469D01*
X006701Y023568D02*
X006091Y023568D01*
X006015Y023666D02*
X006701Y023666D01*
X006701Y023765D02*
X005917Y023765D01*
X005886Y024096D02*
X005596Y024096D01*
X005391Y024301D01*
X005391Y024590D01*
X005596Y024795D01*
X005886Y024795D01*
X006091Y024590D01*
X006091Y024301D01*
X005886Y024096D01*
X005949Y024159D02*
X006701Y024159D01*
X006701Y024257D02*
X006048Y024257D01*
X006091Y024356D02*
X006701Y024356D01*
X006701Y024454D02*
X006091Y024454D01*
X006091Y024553D02*
X006701Y024553D01*
X006701Y024652D02*
X006030Y024652D01*
X005931Y024750D02*
X006701Y024750D01*
X006701Y024849D02*
X002529Y024849D01*
X002502Y024875D02*
X002371Y024875D01*
X002371Y024516D01*
X002311Y024516D01*
X002311Y024875D01*
X002179Y024875D01*
X001951Y024647D01*
X001951Y024516D01*
X002311Y024516D01*
X002311Y024455D01*
X002371Y024455D01*
X002371Y024096D01*
X002502Y024096D01*
X002731Y024324D01*
X002731Y024455D01*
X002371Y024455D01*
X002371Y024516D01*
X002731Y024516D01*
X002731Y024647D01*
X002502Y024875D01*
X002371Y024849D02*
X002311Y024849D01*
X002311Y024750D02*
X002371Y024750D01*
X002371Y024652D02*
X002311Y024652D01*
X002311Y024553D02*
X002371Y024553D01*
X002341Y024486D02*
X001101Y024546D01*
X001101Y023386D01*
X001081Y017336D01*
X003691Y017336D01*
X003691Y017836D01*
X003672Y017852D02*
X000821Y017852D01*
X000821Y017754D02*
X003327Y017754D01*
X003367Y017655D02*
X000821Y017655D01*
X000821Y017556D02*
X003392Y017556D01*
X003343Y017458D02*
X000821Y017458D01*
X000821Y017359D02*
X003323Y017359D01*
X003324Y017261D02*
X000821Y017261D01*
X000821Y017162D02*
X003364Y017162D01*
X003442Y017064D02*
X000821Y017064D01*
X000821Y017951D02*
X003340Y017951D01*
X003384Y018049D02*
X000821Y018049D01*
X000821Y018148D02*
X003415Y018148D01*
X003373Y018246D02*
X000821Y018246D01*
X000821Y018345D02*
X003363Y018345D01*
X003381Y018443D02*
X000821Y018443D01*
X000821Y018542D02*
X003434Y018542D01*
X003422Y018640D02*
X000821Y018640D01*
X000821Y018739D02*
X003376Y018739D01*
X003363Y018837D02*
X000821Y018837D01*
X000821Y018936D02*
X003378Y018936D01*
X003426Y019035D02*
X000821Y019035D01*
X000821Y019133D02*
X003430Y019133D01*
X003379Y019232D02*
X000821Y019232D01*
X000821Y019330D02*
X003363Y019330D01*
X003375Y019429D02*
X000821Y019429D01*
X000821Y019527D02*
X003419Y019527D01*
X003437Y019626D02*
X000821Y019626D01*
X000821Y019724D02*
X003382Y019724D01*
X003363Y019823D02*
X000821Y019823D01*
X000821Y019921D02*
X003372Y019921D01*
X003412Y020020D02*
X000821Y020020D01*
X000821Y020119D02*
X003444Y020119D01*
X003385Y020217D02*
X000821Y020217D01*
X000821Y020316D02*
X003363Y020316D01*
X003369Y020414D02*
X000821Y020414D01*
X000821Y020513D02*
X003409Y020513D01*
X003451Y020611D02*
X000821Y020611D01*
X000821Y020710D02*
X003388Y020710D01*
X003363Y020808D02*
X000821Y020808D01*
X000821Y020907D02*
X003366Y020907D01*
X003406Y021005D02*
X000821Y021005D01*
X000821Y021104D02*
X003459Y021104D01*
X003391Y021203D02*
X000821Y021203D01*
X000821Y021301D02*
X003363Y021301D01*
X003363Y021400D02*
X000821Y021400D01*
X000821Y021498D02*
X003403Y021498D01*
X003466Y021597D02*
X000821Y021597D01*
X000821Y021695D02*
X003394Y021695D01*
X003363Y021794D02*
X000821Y021794D01*
X000821Y021892D02*
X003363Y021892D01*
X003400Y021991D02*
X000821Y021991D01*
X000821Y022089D02*
X003481Y022089D01*
X003900Y022089D02*
X003981Y022089D01*
X002691Y023370D02*
X005391Y023370D01*
X005391Y023469D02*
X002691Y023469D01*
X002691Y023568D02*
X005391Y023568D01*
X005466Y023666D02*
X002655Y023666D01*
X002691Y023630D02*
X002486Y023835D01*
X002196Y023835D01*
X001991Y023630D01*
X001991Y023341D01*
X002196Y023136D01*
X002486Y023136D01*
X002691Y023341D01*
X002691Y023630D01*
X002557Y023765D02*
X005565Y023765D01*
X005533Y024159D02*
X002566Y024159D01*
X002664Y024257D02*
X005434Y024257D01*
X005391Y024356D02*
X002731Y024356D01*
X002731Y024454D02*
X005391Y024454D01*
X005391Y024553D02*
X002731Y024553D01*
X002726Y024652D02*
X005452Y024652D01*
X005550Y024750D02*
X002628Y024750D01*
X002371Y024454D02*
X002311Y024454D01*
X002311Y024455D02*
X002311Y024096D01*
X002179Y024096D01*
X001951Y024324D01*
X001951Y024455D01*
X002311Y024455D01*
X002311Y024356D02*
X002371Y024356D01*
X002371Y024257D02*
X002311Y024257D01*
X002311Y024159D02*
X002371Y024159D01*
X002116Y024159D02*
X000821Y024159D01*
X000821Y024257D02*
X002017Y024257D01*
X001951Y024356D02*
X000821Y024356D01*
X000821Y024454D02*
X001951Y024454D01*
X001951Y024553D02*
X000821Y024553D01*
X000821Y024652D02*
X001955Y024652D01*
X002054Y024750D02*
X000821Y024750D01*
X000821Y024849D02*
X002152Y024849D01*
X002125Y023765D02*
X000821Y023765D01*
X000821Y023863D02*
X006701Y023863D01*
X006701Y023962D02*
X000821Y023962D01*
X000821Y024060D02*
X006701Y024060D01*
X006701Y024947D02*
X000821Y024947D01*
X000821Y025046D02*
X006701Y025046D01*
X006701Y025144D02*
X000821Y025144D01*
X000821Y025243D02*
X006701Y025243D01*
X006701Y025341D02*
X000821Y025341D01*
X000821Y025440D02*
X006701Y025440D01*
X006701Y025538D02*
X000821Y025538D01*
X000821Y025637D02*
X006701Y025637D01*
X006701Y025736D02*
X000821Y025736D01*
X000821Y025834D02*
X006701Y025834D01*
X006701Y025933D02*
X005963Y025933D01*
X005877Y025897D02*
X006075Y025979D01*
X006227Y026131D01*
X006309Y026330D01*
X006309Y026544D01*
X006227Y026743D01*
X006075Y026895D01*
X005877Y026977D01*
X005662Y026977D01*
X005463Y026895D01*
X005311Y026743D01*
X005277Y026660D01*
X005243Y026743D01*
X005091Y026895D01*
X004892Y026977D01*
X004678Y026977D01*
X004479Y026895D01*
X004327Y026743D01*
X004293Y026660D01*
X004259Y026743D01*
X004107Y026895D01*
X003908Y026977D01*
X003693Y026977D01*
X003495Y026895D01*
X003343Y026743D01*
X003309Y026660D01*
X003274Y026743D01*
X003122Y026895D01*
X002924Y026977D01*
X002709Y026977D01*
X002511Y026895D01*
X002359Y026743D01*
X002324Y026660D01*
X002290Y026743D01*
X002138Y026895D01*
X001940Y026977D01*
X001725Y026977D01*
X001526Y026895D01*
X001374Y026743D01*
X001292Y026544D01*
X001292Y026330D01*
X001374Y026131D01*
X001526Y025979D01*
X001725Y025897D01*
X001940Y025897D01*
X002138Y025979D01*
X002290Y026131D01*
X002324Y026214D01*
X002359Y026131D01*
X002511Y025979D01*
X002709Y025897D01*
X002924Y025897D01*
X003122Y025979D01*
X003274Y026131D01*
X003309Y026214D01*
X003343Y026131D01*
X003495Y025979D01*
X003693Y025897D01*
X003908Y025897D01*
X004107Y025979D01*
X004259Y026131D01*
X004293Y026214D01*
X004327Y026131D01*
X004479Y025979D01*
X004678Y025897D01*
X004892Y025897D01*
X005091Y025979D01*
X005243Y026131D01*
X005277Y026214D01*
X005311Y026131D01*
X005463Y025979D01*
X005662Y025897D01*
X005877Y025897D01*
X006127Y026031D02*
X006701Y026031D01*
X006701Y026130D02*
X006226Y026130D01*
X006267Y026228D02*
X006701Y026228D01*
X006701Y026327D02*
X006308Y026327D01*
X006309Y026425D02*
X006701Y026425D01*
X006701Y026524D02*
X006309Y026524D01*
X006277Y026622D02*
X006701Y026622D01*
X006701Y026721D02*
X006236Y026721D01*
X006150Y026819D02*
X006701Y026819D01*
X006701Y026918D02*
X006019Y026918D01*
X005520Y026918D02*
X005035Y026918D01*
X005166Y026819D02*
X005388Y026819D01*
X005302Y026721D02*
X005252Y026721D01*
X005241Y026130D02*
X005313Y026130D01*
X005411Y026031D02*
X005143Y026031D01*
X004978Y025933D02*
X005576Y025933D01*
X004592Y025933D02*
X003994Y025933D01*
X004159Y026031D02*
X004427Y026031D01*
X004329Y026130D02*
X004257Y026130D01*
X004268Y026721D02*
X004318Y026721D01*
X004404Y026819D02*
X004182Y026819D01*
X004051Y026918D02*
X004535Y026918D01*
X003821Y027426D02*
X001101Y027426D01*
X001101Y024546D01*
X000821Y023666D02*
X002026Y023666D01*
X001991Y023568D02*
X000821Y023568D01*
X000821Y023469D02*
X001991Y023469D01*
X001991Y023370D02*
X000821Y023370D01*
X000821Y023272D02*
X002059Y023272D01*
X002158Y023173D02*
X000821Y023173D01*
X002524Y023173D02*
X005518Y023173D01*
X005419Y023272D02*
X002622Y023272D01*
X002623Y025933D02*
X002026Y025933D01*
X002190Y026031D02*
X002459Y026031D01*
X002360Y026130D02*
X002289Y026130D01*
X002299Y026721D02*
X002350Y026721D01*
X002435Y026819D02*
X002213Y026819D01*
X002082Y026918D02*
X002567Y026918D01*
X003066Y026918D02*
X003551Y026918D01*
X003420Y026819D02*
X003198Y026819D01*
X003283Y026721D02*
X003334Y026721D01*
X003344Y026130D02*
X003273Y026130D01*
X003174Y026031D02*
X003443Y026031D01*
X003607Y025933D02*
X003010Y025933D01*
X001639Y025933D02*
X000821Y025933D01*
X000821Y026031D02*
X001474Y026031D01*
X001376Y026130D02*
X000821Y026130D01*
X000821Y026228D02*
X001334Y026228D01*
X001293Y026327D02*
X000821Y026327D01*
X000821Y026425D02*
X001292Y026425D01*
X001292Y026524D02*
X000821Y026524D01*
X000821Y026622D02*
X001325Y026622D01*
X001365Y026721D02*
X000821Y026721D01*
X000821Y026819D02*
X001451Y026819D01*
X001583Y026918D02*
X000821Y026918D01*
X000821Y027017D02*
X006701Y027017D01*
X006701Y027115D02*
X000821Y027115D01*
X000821Y027214D02*
X006701Y027214D01*
X006701Y027312D02*
X000821Y027312D01*
X000821Y027411D02*
X006701Y027411D01*
X006701Y027509D02*
X000821Y027509D01*
X000821Y027608D02*
X006701Y027608D01*
X006701Y027706D02*
X000821Y027706D01*
X000821Y027805D02*
X006701Y027805D01*
X006701Y027903D02*
X005968Y027903D01*
X006129Y028002D02*
X006701Y028002D01*
X006701Y028101D02*
X006227Y028101D01*
X006268Y028199D02*
X006701Y028199D01*
X006701Y028298D02*
X006309Y028298D01*
X006309Y028396D02*
X006701Y028396D01*
X006701Y028495D02*
X006309Y028495D01*
X006276Y028593D02*
X006701Y028593D01*
X006701Y028692D02*
X006235Y028692D01*
X006148Y028790D02*
X006701Y028790D01*
X006701Y028889D02*
X006013Y028889D01*
X006131Y028987D02*
X006701Y028987D01*
X006701Y029086D02*
X006228Y029086D01*
X006269Y029185D02*
X006701Y029185D01*
X006701Y029283D02*
X006309Y029283D01*
X006309Y029382D02*
X006701Y029382D01*
X006701Y029480D02*
X006309Y029480D01*
X006276Y029579D02*
X006701Y029579D01*
X006701Y029677D02*
X006235Y029677D01*
X005408Y028987D02*
X002194Y028987D01*
X002138Y028863D02*
X002055Y028898D01*
X002076Y028889D02*
X003464Y028889D01*
X003365Y028790D02*
X002211Y028790D01*
X002138Y028863D02*
X002290Y028711D01*
X002372Y028513D01*
X002372Y028298D01*
X002290Y028100D01*
X002138Y027948D01*
X001940Y027866D01*
X001725Y027866D01*
X001526Y027948D01*
X001374Y028100D01*
X001472Y028002D02*
X000821Y028002D01*
X000821Y027903D02*
X001633Y027903D01*
X002031Y027903D02*
X003497Y027903D01*
X003384Y028002D02*
X002192Y028002D01*
X002290Y028101D02*
X003299Y028101D01*
X003258Y028199D02*
X002331Y028199D01*
X002372Y028298D02*
X003221Y028298D01*
X003221Y028495D02*
X002372Y028495D01*
X002372Y028396D02*
X003751Y028396D01*
X003751Y028298D02*
X003851Y028298D01*
X003851Y028396D02*
X005229Y028396D01*
X005229Y028298D02*
X004381Y028298D01*
X004343Y028199D02*
X005270Y028199D01*
X005311Y028100D02*
X005463Y027948D01*
X005570Y027903D02*
X004104Y027903D01*
X003851Y027903D02*
X003751Y027903D01*
X003751Y028002D02*
X003851Y028002D01*
X003851Y028101D02*
X003751Y028101D01*
X003751Y028199D02*
X003851Y028199D01*
X003851Y028495D02*
X003751Y028495D01*
X003751Y028593D02*
X003851Y028593D01*
X003851Y028692D02*
X003751Y028692D01*
X003751Y028790D02*
X003851Y028790D01*
X003851Y028889D02*
X003751Y028889D01*
X004138Y028889D02*
X005525Y028889D01*
X005390Y028790D02*
X004236Y028790D01*
X004310Y028692D02*
X005303Y028692D01*
X005263Y028593D02*
X004351Y028593D01*
X004381Y028495D02*
X005229Y028495D01*
X005311Y029086D02*
X002291Y029086D01*
X002332Y029185D02*
X005270Y029185D01*
X005229Y029283D02*
X002372Y029283D01*
X002372Y029382D02*
X005229Y029382D01*
X005229Y029480D02*
X002372Y029480D01*
X002339Y029579D02*
X005263Y029579D01*
X005304Y029677D02*
X002298Y029677D01*
X002298Y028692D02*
X003292Y028692D01*
X003251Y028593D02*
X002339Y028593D01*
X003672Y017816D02*
X003710Y017816D01*
X003710Y017468D01*
X003710Y017355D01*
X003672Y017355D01*
X003672Y017703D01*
X003672Y017816D01*
X003672Y017754D02*
X003710Y017754D01*
X003710Y017655D02*
X003672Y017655D01*
X003672Y017556D02*
X003710Y017556D01*
X003710Y017458D02*
X003672Y017458D01*
X003672Y017359D02*
X003710Y017359D01*
X003710Y017354D02*
X003823Y017354D01*
X004172Y017354D01*
X004172Y017317D01*
X003823Y017317D01*
X003710Y017317D01*
X003710Y017354D01*
X003691Y017336D02*
X004191Y017336D01*
X004172Y017261D02*
X004210Y017261D01*
X004210Y017162D02*
X004172Y017162D01*
X004172Y017064D02*
X004210Y017064D01*
X003942Y017064D02*
X003939Y017064D01*
X003710Y017064D02*
X003672Y017064D01*
X003672Y017162D02*
X003710Y017162D01*
X003710Y017261D02*
X003672Y017261D01*
M02*
