  0
SECTION
  2
HEADER
  9
$ACADVER
  1
AC1015
  9
$ACADMAINTVER
 70
     6
  9
$DWGCODEPAGE
  3
ANSI_1252
  9
$INSBASE
 10
0.0
 20
0.0
 30
0.0
  9
$EXTMIN
 10
0.0
 20
0.0
 30
0.0
  9
$EXTMAX
 10
279.4
 20
215.9
 30
0.0
  9
$LIMMIN
 10
0.0
 20
0.0
  9
$LIMMAX
 10
279.4
 20
215.9
  9
$ORTHOMODE
 70
     0
  9
$REGENMODE
 70
     1
  9
$FILLMODE
 70
     1
  9
$QTEXTMODE
 70
     0
  9
$MIRRTEXT
 70
     1
  9
$LTSCALE
 40
1.0
  9
$ATTMODE
 70
     1
  9
$TEXTSIZE
 40
3.175
  9
$TRACEWID
 40
1.0
  9
$TEXTSTYLE
  7
Standard
  9
$CLAYER
  8
0
  9
$CELTYPE
  6
ByLayer
  9
$CECOLOR
 62
   256
  9
$CELTSCALE
 40
1.0
  9
$DISPSILH
 70
     0
  9
$DIMSCALE
 40
1.0
  9
$DIMASZ
 40
3.302
  9
$DIMEXO
 40
1.27
  9
$DIMDLI
 40
3.75
  9
$DIMRND
 40
0.0
  9
$DIMDLE
 40
0.0
  9
$DIMEXE
 40
3.175
  9
$DIMTP
 40
0.0
  9
$DIMTM
 40
0.0
  9
$DIMTXT
 40
3.175
  9
$DIMCEN
 40
2.5
  9
$DIMTSZ
 40
0.0
  9
$DIMTOL
 70
     0
  9
$DIMLIM
 70
     0
  9
$DIMTIH
 70
     1
  9
$DIMTOH
 70
     1
  9
$DIMSE1
 70
     0
  9
$DIMSE2
 70
     0
  9
$DIMTAD
 70
     1
  9
$DIMZIN
 70
     0
  9
$DIMBLK
  1

  9
$DIMASO
 70
     1
  9
$DIMSHO
 70
     1
  9
$DIMPOST
  1

  9
$DIMAPOST
  1

  9
$DIMALT
 70
     0
  9
$DIMALTD
 70
     3
  9
$DIMALTF
 40
0.0393700787
  9
$DIMLFAC
 40
1.0
  9
$DIMTOFL
 70
     1
  9
$DIMTVP
 40
0.0
  9
$DIMTIX
 70
     0
  9
$DIMSOXD
 70
     0
  9
$DIMSAH
 70
     0
  9
$DIMBLK1
  1

  9
$DIMBLK2
  1

  9
$DIMSTYLE
  2
ISO-25
  9
$DIMCLRD
 70
     0
  9
$DIMCLRE
 70
     0
  9
$DIMCLRT
 70
     0
  9
$DIMTFAC
 40
1.0
  9
$DIMGAP
 40
1.524
  9
$DIMJUST
 70
     0
  9
$DIMSD1
 70
     0
  9
$DIMSD2
 70
     0
  9
$DIMTOLJ
 70
     0
  9
$DIMTZIN
 70
     0
  9
$DIMALTZ
 70
     0
  9
$DIMALTTZ
 70
     0
  9
$DIMUPT
 70
     0
  9
$DIMDEC
 70
     2
  9
$DIMTDEC
 70
     2
  9
$DIMALTU
 70
     2
  9
$DIMALTTD
 70
     3
  9
$DIMTXSTY
  7
Standard
  9
$DIMAUNIT
 70
     0
  9
$DIMADEC
 70
     0
  9
$DIMALTRND
 40
0.0
  9
$DIMAZIN
 70
     0
  9
$DIMDSEP
 70
    44
  9
$DIMATFIT
 70
     3
  9
$DIMFRAC
 70
     0
  9
$DIMLDRBLK
  1

  9
$DIMLUNIT
 70
     2
  9
$DIMLWD
 70
    -2
  9
$DIMLWE
 70
    -2
  9
$DIMTMOVE
 70
     0
  9
$LUNITS
 70
     2
  9
$LUPREC
 70
     2
  9
$SKETCHINC
 40
1.0
  9
$FILLETRAD
 40
10.0
  9
$AUNITS
 70
     0
  9
$AUPREC
 70
     0
  9
$MENU
  1
.
  9
$ELEVATION
 40
0.0
  9
$PELEVATION
 40
0.0
  9
$THICKNESS
 40
0.0
  9
$LIMCHECK
 70
     0
  9
$CHAMFERA
 40
10.0
  9
$CHAMFERB
 40
10.0
  9
$CHAMFERC
 40
20.0
  9
$CHAMFERD
 40
0.0
  9
$SKPOLY
 70
     0
  9
$TDCREATE
 40
2455362.610879085
  9
$TDUCREATE
 40
2455362.777545752
  9
$TDUPDATE
 40
2455362.610879097
  9
$TDUUPDATE
 40
2455362.777545764
  9
$TDINDWG
 40
0.0000000116
  9
$TDUSRTIMER
 40
0.0000000116
  9
$USRTIMER
 70
     1
  9
$ANGBASE
 50
0.0
  9
$ANGDIR
 70
     0
  9
$PDMODE
 70
     0
  9
$PDSIZE
 40
-1.0
  9
$PLINEWID
 40
0.0
  9
$SPLFRAME
 70
     0
  9
$SPLINETYPE
 70
     6
  9
$SPLINESEGS
 70
     8
  9
$HANDSEED
  5
26A
  9
$SURFTAB1
 70
     6
  9
$SURFTAB2
 70
     6
  9
$SURFTYPE
 70
     6
  9
$SURFU
 70
     6
  9
$SURFV
 70
     6
  9
$UCSBASE
  2

  9
$UCSNAME
  2

  9
$UCSORG
 10
0.0
 20
0.0
 30
0.0
  9
$UCSXDIR
 10
1.0
 20
0.0
 30
0.0
  9
$UCSYDIR
 10
0.0
 20
1.0
 30
0.0
  9
$UCSORTHOREF
  2

  9
$UCSORTHOVIEW
 70
     0
  9
$UCSORGTOP
 10
0.0
 20
0.0
 30
0.0
  9
$UCSORGBOTTOM
 10
0.0
 20
0.0
 30
0.0
  9
$UCSORGLEFT
 10
0.0
 20
0.0
 30
0.0
  9
$UCSORGRIGHT
 10
0.0
 20
0.0
 30
0.0
  9
$UCSORGFRONT
 10
0.0
 20
0.0
 30
0.0
  9
$UCSORGBACK
 10
0.0
 20
0.0
 30
0.0
  9
$PUCSBASE
  2

  9
$PUCSNAME
  2

  9
$PUCSORG
 10
0.0
 20
0.0
 30
0.0
  9
$PUCSXDIR
 10
1.0
 20
0.0
 30
0.0
  9
$PUCSYDIR
 10
0.0
 20
1.0
 30
0.0
  9
$PUCSORTHOREF
  2

  9
$PUCSORTHOVIEW
 70
     0
  9
$PUCSORGTOP
 10
0.0
 20
0.0
 30
0.0
  9
$PUCSORGBOTTOM
 10
0.0
 20
0.0
 30
0.0
  9
$PUCSORGLEFT
 10
0.0
 20
0.0
 30
0.0
  9
$PUCSORGRIGHT
 10
0.0
 20
0.0
 30
0.0
  9
$PUCSORGFRONT
 10
0.0
 20
0.0
 30
0.0
  9
$PUCSORGBACK
 10
0.0
 20
0.0
 30
0.0
  9
$USERI1
 70
     0
  9
$USERI2
 70
     0
  9
$USERI3
 70
     0
  9
$USERI4
 70
     0
  9
$USERI5
 70
     0
  9
$USERR1
 40
0.0
  9
$USERR2
 40
0.0
  9
$USERR3
 40
0.0
  9
$USERR4
 40
0.0
  9
$USERR5
 40
0.0
  9
$WORLDVIEW
 70
     1
  9
$SHADEDGE
 70
     3
  9
$SHADEDIF
 70
    70
  9
$TILEMODE
 70
     1
  9
$MAXACTVP
 70
    64
  9
$PINSBASE
 10
0.0
 20
0.0
 30
0.0
  9
$PLIMCHECK
 70
     0
  9
$PEXTMIN
 10
1.0000000000E+20
 20
1.0000000000E+20
 30
1.0000000000E+20
  9
$PEXTMAX
 10
-1.0000000000E+20
 20
-1.0000000000E+20
 30
-1.0000000000E+20
  9
$PLIMMIN
 10
0.0
 20
0.0
  9
$PLIMMAX
 10
420.0
 20
297.0
  9
$UNITMODE
 70
     0
  9
$VISRETAIN
 70
     1
  9
$PLINEGEN
 70
     0
  9
$PSLTSCALE
 70
     1
  9
$TREEDEPTH
 70
  3020
  9
$CMLSTYLE
  2
Standard
  9
$CMLJUST
 70
     0
  9
$CMLSCALE
 40
20.0
  9
$PROXYGRAPHICS
 70
     1
  9
$MEASUREMENT
 70
     1
  9
$CELWEIGHT
370
    -1
  9
$ENDCAPS
280
     0
  9
$JOINSTYLE
280
     0
  9
$LWDISPLAY
290
     1
  9
$INSUNITS
 70
     4
  9
$HYPERLINKBASE
  1

  9
$STYLESHEET
  1

  9
$XEDIT
290
     1
  9
$CEPSNTYPE
380
     0
  9
$PSTYLEMODE
290
     1
  9
$FINGERPRINTGUID
  2
{C377C95B-A1E6-4DAF-9190-FE5A68B3CC04}
  9
$VERSIONGUID
  2
{FAEB1C32-E019-11D5-929B-00C0DF256EC4}
  9
$EXTNAMES
290
     1
  9
$PSVPSCALE
 40
0.0
  9
$OLESTARTUP
290
     0
  0
ENDSEC
  0
SECTION
  2
CLASSES
  0
CLASS
  1
ACDBDICTIONARYWDFLT
  2
AcDbDictionaryWithDefault
  3
ObjectDBX Classes
 90
        0
280
     0
281
     0
  0
CLASS
  1
VISUALSTYLE
  2
AcDbVisualStyle
  3
ObjectDBX Classes
 90
     4095
280
     0
281
     0
  0
CLASS
  1
DICTIONARYVAR
  2
AcDbDictionaryVar
  3
ObjectDBX Classes
 90
        0
280
     0
281
     0
  0
CLASS
  1
ACDBPLACEHOLDER
  2
AcDbPlaceHolder
  3
ObjectDBX Classes
 90
        0
280
     0
281
     0
  0
CLASS
  1
LAYOUT
  2
AcDbLayout
  3
ObjectDBX Classes
 90
        0
280
     0
281
     0
  0
ENDSEC
  0
SECTION
  2
TABLES
  0
TABLE
  2
VPORT
  5
8
330
0
100
AcDbSymbolTable
 70
     1
  0
VPORT
  5
29
330
8
100
AcDbSymbolTableRecord
100
AcDbViewportTableRecord
  2
*Active
 70
     0
 10
0.0
 20
0.0
 11
1.0
 21
1.0
 12
139.7
 22
107.95
 13
0.0
 23
0.0
 14
10.0
 24
10.0
 15
10.0
 25
10.0
 16
0.0
 26
0.0
 36
1.0
 17
0.0
 27
0.0
 37
0.0
 40
215.9
 41
1.2941176471
 42
50.0
 43
0.0
 44
0.0
 50
0.0
 51
0.0
 71
     0
 72
  2000
 73
     1
 74
     3
 75
     0
 76
     0
 77
     0
 78
     0
281
     0
 65
     1
110
0.0
120
0.0
130
0.0
111
1.0
121
0.0
131
0.0
112
0.0
122
1.0
132
0.0
 79
     0
146
0.0
  0
ENDTAB
  0
TABLE
  2
LTYPE
  5
5
330
0
100
AcDbSymbolTable
 70
     6
  0
LTYPE
  5
14
330
5
100
AcDbSymbolTableRecord
100
AcDbLinetypeTableRecord
  2
ByBlock
 70
     0
  3

 72
    65
 73
     0
 40
0.0
  0
LTYPE
  5
15
330
5
100
AcDbSymbolTableRecord
100
AcDbLinetypeTableRecord
  2
ByLayer
 70
     0
  3

 72
    65
 73
     0
 40
0.0
  0
LTYPE
  5
16
330
5
100
AcDbSymbolTableRecord
100
AcDbLinetypeTableRecord
  2
Continuous
 70
     0
  3
Solid line
 72
    65
 73
     0
 40
0.0
  0
LTYPE
  5
3B
330
5
100
AcDbSymbolTableRecord
100
AcDbLinetypeTableRecord
  2
HIDDEN
 70
     0
  3
Hidden __ __ __ __ __ __ __ __ __ __ __ __ __ __
 72
    65
 73
     2
 40
1.905
 49
1.27
 74
     0
 49
-0.635
 74
     0
  0
LTYPE
  5
3C
330
5
100
AcDbSymbolTableRecord
100
AcDbLinetypeTableRecord
  2
PHANTOM
 70
     0
  3
Phantom ______  __  __  ______  __  __  ______
 72
    65
 73
     6
 40
12.7
 49
6.35
 74
     0
 49
-1.27
 74
     0
 49
1.27
 74
     0
 49
-1.27
 74
     0
 49
1.27
 74
     0
 49
-1.27
 74
     0
  0
LTYPE
  5
3D
330
5
100
AcDbSymbolTableRecord
100
AcDbLinetypeTableRecord
  2
CENTER
 70
     0
  3
Center ____ _ ____ _ ____ _ ____ _ ____ _ ____
 72
    65
 73
     4
 40
10.16
 49
6.35
 74
     0
 49
-1.27
 74
     0
 49
1.27
 74
     0
 49
-1.27
 74
     0
  0
LTYPE
  5
3E
330
5
100
AcDbSymbolTableRecord
100
AcDbLinetypeTableRecord
  2
CENTERX2
 70
     0
  3
Center (2x) ________  __  ________  __  _____
 72
    65
 73
     4
 40
20.32
 49
12.7
 74
     0
 49
-2.54
 74
     0
 49
2.54
 74
     0
 49
-2.54
 74
     0
  0
LTYPE
  5
3F
330
5
100
AcDbSymbolTableRecord
100
AcDbLinetypeTableRecord
  2
DOT2
 70
     0
  3
Dot (.5x) ........................................
 72
    65
 73
     2
 40
0.635
 49
0.0
 74
     0
 49
-0.635
 74
     0
  0
ENDTAB
  0
TABLE
  2
LAYER
  5
2
330
0
100
AcDbSymbolTable
 70
     2
  0
LAYER
  5
10
330
2
100
AcDbSymbolTableRecord
100
AcDbLayerTableRecord
  2
0
 70
     0
 62
     7
  6
Continuous
370
    -3
390
F
  0
LAYER
  5
40
330
2
100
AcDbSymbolTableRecord
100
AcDbLayerTableRecord
  2
FORMAT
 70
     0
 62
     7
  6
Continuous
370
    -3
390
F
  0
ENDTAB
  0
TABLE
  2
STYLE
  5
3
330
0
100
AcDbSymbolTable
 70
     2
  0
STYLE
  5
11
330
3
100
AcDbSymbolTableRecord
100
AcDbTextStyleTableRecord
  2
Standard
 70
     0
 40
0.0
 41
1.0
 50
0.0
 71
     0
 42
2.5
  3
txt
  4

  0
STYLE
  5
44
330
3
100
AcDbSymbolTableRecord
100
AcDbTextStyleTableRecord
  2
SLDTEXTSTYLE0
 70
     0
 40
0.0
 41
0.75
 50
0.0
 71
     0
 42
0.2
  3
TXT
  4

  0
ENDTAB
  0
TABLE
  2
VIEW
  5
6
330
0
100
AcDbSymbolTable
 70
     0
  0
ENDTAB
  0
TABLE
  2
UCS
  5
7
330
0
100
AcDbSymbolTable
 70
     0
  0
ENDTAB
  0
TABLE
  2
APPID
  5
9
330
0
100
AcDbSymbolTable
 70
     1
  0
APPID
  5
12
330
9
100
AcDbSymbolTableRecord
100
AcDbRegAppTableRecord
  2
ACAD
 70
     0
  0
ENDTAB
  0
TABLE
  2
DIMSTYLE
  5
A
330
0
100
AcDbSymbolTable
 70
     3
100
AcDbDimStyleTable
  0
DIMSTYLE
105
27
330
A
100
AcDbSymbolTableRecord
100
AcDbDimStyleTableRecord
  2
ISO-25
 70
     0
 41
2.5
 42
0.625
 43
3.75
 44
1.25
 73
     0
 74
     0
 77
     1
 78
     8
140
2.5
141
2.5
143
0.0393700787
147
0.625
171
     3
172
     1
271
     2
272
     2
274
     3
278
    44
283
     0
284
     8
340
11
  0
DIMSTYLE
105
61
102
{ACAD_REACTORS
330
60
330
75
330
89
330
9C
330
B0
330
C4
330
144
330
158
330
1A6
330
1BB
330
232
102
}
330
A
100
AcDbSymbolTableRecord
100
AcDbDimStyleTableRecord
  2
SLDDIMSTYLE0
 70
     0
 41
3.302
 44
0.0
 45
0.000000001
 78
    12
140
3.175
143
0.0393700787
147
0.79375
148
0.000000001
170
     1
173
     1
271
     2
272
     2
284
    12
340
44
  0
DIMSTYLE
105
16D
102
{ACAD_REACTORS
330
16C
330
190
102
}
330
A
100
AcDbSymbolTableRecord
100
AcDbDimStyleTableRecord
  2
SLDDIMSTYLE1
 70
     0
  3
<>
  4
<>
 41
3.302
 44
0.0
 45
0.000000001
 78
    12
140
3.175
143
0.0393700787
147
0.79375
148
0.000000001
170
     1
173
     1
271
     0
272
     2
284
    12
340
44
  0
ENDTAB
  0
TABLE
  2
BLOCK_RECORD
  5
1
330
0
100
AcDbSymbolTable
 70
    21
  0
BLOCK_RECORD
  5
1F
330
1
100
AcDbSymbolTableRecord
100
AcDbBlockTableRecord
  2
*Model_Space
340
22
  0
BLOCK_RECORD
  5
1B
330
1
100
AcDbSymbolTableRecord
100
AcDbBlockTableRecord
  2
*Paper_Space
340
1E
  0
BLOCK_RECORD
  5
23
330
1
100
AcDbSymbolTableRecord
100
AcDbBlockTableRecord
  2
*Paper_Space0
340
26
  0
BLOCK_RECORD
  5
41
330
1
100
AcDbSymbolTableRecord
100
AcDbBlockTableRecord
  2
SW_NOTE_0
340
0
102
{BLKREFS
331
4B
102
}
  0
BLOCK_RECORD
  5
62
330
1
100
AcDbSymbolTableRecord
100
AcDbBlockTableRecord
  2
*D2
340
0
  0
BLOCK_RECORD
  5
76
330
1
100
AcDbSymbolTableRecord
100
AcDbBlockTableRecord
  2
*D3
340
0
  0
BLOCK_RECORD
  5
8A
330
1
100
AcDbSymbolTableRecord
100
AcDbBlockTableRecord
  2
*D4
340
0
  0
BLOCK_RECORD
  5
9D
330
1
100
AcDbSymbolTableRecord
100
AcDbBlockTableRecord
  2
*D5
340
0
  0
BLOCK_RECORD
  5
B1
330
1
100
AcDbSymbolTableRecord
100
AcDbBlockTableRecord
  2
*D6
340
0
  0
BLOCK_RECORD
  5
C5
330
1
100
AcDbSymbolTableRecord
100
AcDbBlockTableRecord
  2
*D7
340
0
  0
BLOCK_RECORD
  5
D7
330
1
100
AcDbSymbolTableRecord
100
AcDbBlockTableRecord
  2
SW_CENTERMARKSYMBOL_0
340
0
102
{BLKREFS
331
F6
102
}
  0
BLOCK_RECORD
  5
F7
330
1
100
AcDbSymbolTableRecord
100
AcDbBlockTableRecord
  2
SW_CENTERMARKSYMBOL_1
340
0
102
{BLKREFS
331
116
102
}
  0
BLOCK_RECORD
  5
145
330
1
100
AcDbSymbolTableRecord
100
AcDbBlockTableRecord
  2
*D10
340
0
  0
BLOCK_RECORD
  5
159
330
1
100
AcDbSymbolTableRecord
100
AcDbBlockTableRecord
  2
*D11
340
0
  0
BLOCK_RECORD
  5
16E
330
1
100
AcDbSymbolTableRecord
100
AcDbBlockTableRecord
  2
*D12
340
0
  0
BLOCK_RECORD
  5
174
330
1
100
AcDbSymbolTableRecord
100
AcDbBlockTableRecord
  2
SW_SYMBOL_HOLE_SPOT
340
0
102
{BLKREFS
331
17A
331
197
102
}
  0
BLOCK_RECORD
  5
17F
330
1
100
AcDbSymbolTableRecord
100
AcDbBlockTableRecord
  2
SW_SYMBOL_HOLE_DEPTH
340
0
102
{BLKREFS
331
186
331
19C
102
}
  0
BLOCK_RECORD
  5
191
330
1
100
AcDbSymbolTableRecord
100
AcDbBlockTableRecord
  2
*D15
340
0
  0
BLOCK_RECORD
  5
1A7
330
1
100
AcDbSymbolTableRecord
100
AcDbBlockTableRecord
  2
*D16
340
0
  0
BLOCK_RECORD
  5
1BC
330
1
100
AcDbSymbolTableRecord
100
AcDbBlockTableRecord
  2
*D17
340
0
  0
BLOCK_RECORD
  5
1D0
330
1
100
AcDbSymbolTableRecord
100
AcDbBlockTableRecord
  2
SW_CENTERMARKSYMBOL_2
340
0
102
{BLKREFS
331
1EF
102
}
  0
BLOCK_RECORD
  5
1F0
330
1
100
AcDbSymbolTableRecord
100
AcDbBlockTableRecord
  2
SW_CENTERMARKSYMBOL_3
340
0
102
{BLKREFS
331
20F
102
}
  0
BLOCK_RECORD
  5
233
330
1
100
AcDbSymbolTableRecord
100
AcDbBlockTableRecord
  2
*D20
340
0
  0
ENDTAB
  0
ENDSEC
  0
SECTION
  2
BLOCKS
  0
BLOCK
  5
20
330
1F
100
AcDbEntity
  8
0
100
AcDbBlockBegin
  2
*Model_Space
 70
     0
 10
0.0
 20
0.0
 30
0.0
  3
*Model_Space
  1

  0
ENDBLK
  5
21
330
1F
100
AcDbEntity
  8
0
100
AcDbBlockEnd
  0
BLOCK
  5
1C
330
1B
100
AcDbEntity
 67
     1
  8
0
100
AcDbBlockBegin
  2
*Paper_Space
 70
     0
 10
0.0
 20
0.0
 30
0.0
  3
*Paper_Space
  1

  0
ENDBLK
  5
1D
330
1B
100
AcDbEntity
 67
     1
  8
0
100
AcDbBlockEnd
  0
BLOCK
  5
24
330
23
100
AcDbEntity
  8
0
100
AcDbBlockBegin
  2
*Paper_Space0
 70
     0
 10
0.0
 20
0.0
 30
0.0
  3
*Paper_Space0
  1

  0
ENDBLK
  5
25
330
23
100
AcDbEntity
  8
0
100
AcDbBlockEnd
  0
BLOCK
  5
42
330
41
100
AcDbEntity
  8
0
100
AcDbBlockBegin
  2
SW_NOTE_0
 70
     0
 10
0.0
 20
0.0
 30
0.0
  3
SW_NOTE_0
  1

  0
MTEXT
  5
45
330
41
100
AcDbEntity
  8
0
  6
Continuous
 62
     0
370
     0
100
AcDbMText
 10
0.0
 20
6.1391851107
 30
0.0
 40
4.7625
 41
0.0
 71
     1
 72
     1
  1
Number: 1x
  7
SLDTEXTSTYLE0
 73
     1
 44
1.0
  0
MTEXT
  5
46
330
41
100
AcDbEntity
  8
0
  6
Continuous
 62
     0
370
     0
100
AcDbMText
 10
0.0
 20
-0.2108148126
 30
0.0
 40
4.7625
 41
0.0
 71
     1
 72
     1
  1
Material: Aluminum
  7
SLDTEXTSTYLE0
 73
     1
 44
1.0
  0
MTEXT
  5
47
330
41
100
AcDbEntity
  8
0
  6
Continuous
 62
     0
370
     0
100
AcDbMText
 10
0.0
 20
-6.5608147359
 30
0.0
 40
4.7625
 41
0.0
 71
     1
 72
     1
  1
Scale= 1:1
  7
SLDTEXTSTYLE0
 73
     1
 44
1.0
  0
MTEXT
  5
48
330
41
100
AcDbEntity
  8
0
  6
Continuous
 62
     0
370
     0
100
AcDbMText
 10
0.0
 20
-19.2608145824
 30
0.0
 40
4.7625
 41
0.0
 71
     1
 72
     1
  1
Brett Graham
  7
SLDTEXTSTYLE0
 73
     1
 44
1.0
  0
MTEXT
  5
49
330
41
100
AcDbEntity
  8
0
  6
Continuous
 62
     0
370
     0
100
AcDbMText
 10
0.0
 20
-25.6108145056
 30
0.0
 40
4.7625
 41
0.0
 71
     1
 72
     1
  1
B-to-W rev.A
  7
SLDTEXTSTYLE0
 73
     1
 44
1.0
  0
MTEXT
  5
4A
330
41
100
AcDbEntity
  8
0
  6
Continuous
 62
     0
370
     0
100
AcDbMText
 10
0.0
 20
-31.9608144289
 30
0.0
 40
4.7625
 41
0.0
 71
     1
 72
     1
  1
Date: 6-14-10
  7
SLDTEXTSTYLE0
 73
     1
 44
1.0
  0
ENDBLK
  5
43
330
41
100
AcDbEntity
  8
0
100
AcDbBlockEnd
  0
BLOCK
  5
63
330
62
100
AcDbEntity
  8
0
100
AcDbBlockBegin
  2
*D2
 70
     1
 10
0.0
 20
0.0
 30
0.0
  3
*D2
  1

  0
ARC
  5
65
330
62
100
AcDbEntity
  8
0
  6
Continuous
 62
     7
370
     0
100
AcDbCircle
 10
72.7668895486
 20
135.7564545559
 30
0.0
 40
11.2653208301668
100
AcDbArc
 50
153.4349488229
 51
206.5650511771
  0
ARC
  5
66
330
62
100
AcDbEntity
  8
0
  6
Continuous
 62
     7
370
     0
100
AcDbCircle
 10
69.1477029507
 20
135.7564545559
 30
0.0
 40
11.26532083016678
100
AcDbArc
 50
333.4349488229
 51
26.5650511771
  0
SOLID
  5
67
330
62
100
AcDbEntity
  8
0
  6
Continuous
 62
     7
370
     0
100
AcDbTrace
 10
104.6410378674
 20
135.7564545559
 30
0.0
 11
101.3390378674
 21
136.2644545559
 31
0.0
 12
101.3390378674
 22
135.2484545559
 32
0.0
 13
101.3390378674
 23
135.2484545559
 33
0.0
  0
SOLID
  5
68
330
62
100
AcDbEntity
  8
0
  6
Continuous
 62
     7
370
     0
100
AcDbTrace
 10
44.6410378674
 20
135.7564545559
 30
0.0
 11
47.9430378674
 21
135.2484545559
 31
0.0
 12
47.9430378674
 22
136.2644545559
 32
0.0
 13
47.9430378674
 23
136.2644545559
 33
0.0
  0
LINE
  5
69
330
62
100
AcDbEntity
  8
0
  6
Continuous
 62
     7
370
     0
100
AcDbLine
 10
65.5666990987
 20
140.4166088414
 30
0.0
 11
65.5666990987
 21
136.1343049034
 31
0.0
  0
LINE
  5
6A
330
62
100
AcDbEntity
  8
0
  6
Continuous
 62
     7
370
     0
100
AcDbLine
 10
65.5666990987
 20
136.1343049034
 30
0.0
 11
66.2108585067
 21
136.1343049034
 31
0.0
  0
LINE
  5
6B
330
62
100
AcDbEntity
  8
0
  6
Continuous
 62
     7
370
     0
100
AcDbLine
 10
65.5666990987
 20
140.4166088414
 30
0.0
 11
66.2108585067
 21
140.4166088414
 31
0.0
  0
LINE
  5
6C
330
62
100
AcDbEntity
  8
0
  6
Continuous
 62
     7
370
     0
100
AcDbLine
 10
76.3478934006
 20
140.4166088414
 30
0.0
 11
76.3478934006
 21
136.1343049034
 31
0.0
  0
LINE
  5
6D
330
62
100
AcDbEntity
  8
0
  6
Continuous
 62
     7
370
     0
100
AcDbLine
 10
76.3478934006
 20
136.1343049034
 30
0.0
 11
75.7037339926
 21
136.1343049034
 31
0.0
  0
LINE
  5
6E
330
62
100
AcDbEntity
  8
0
  6
Continuous
 62
     7
370
     0
100
AcDbLine
 10
76.3478934006
 20
140.4166088414
 30
0.0
 11
75.7037339926
 21
140.4166088414
 31
0.0
  0
LINE
  5
6F
330
62
100
AcDbEntity
  8
0
  6
Continuous
 62
     7
370
     0
100
AcDbLine
 10
104.6410378674
 20
94.9666685714
 30
0.0
 11
104.6410378674
 21
138.9314545559
 31
0.0
  0
LINE
  5
70
330
62
100
AcDbEntity
  8
0
  6
Continuous
 62
     7
370
     0
100
AcDbLine
 10
44.6410378674
 20
94.9666685714
 30
0.0
 11
44.6410378674
 21
138.9314545559
 31
0.0
  0
LINE
  5
71
330
62
100
AcDbEntity
  8
0
  6
Continuous
 62
     7
370
     0
100
AcDbLine
 10
104.6410378674
 20
135.7564545559
 30
0.0
 11
84.6761686644
 21
135.7564545559
 31
0.0
  0
LINE
  5
72
330
62
100
AcDbEntity
  8
0
  6
Continuous
 62
     7
370
     0
100
AcDbLine
 10
44.6410378674
 20
135.7564545559
 30
0.0
 11
57.2384238349
 21
135.7564545559
 31
0.0
  0
MTEXT
  5
73
330
62
100
AcDbEntity
  8
0
  6
Continuous
 62
     7
370
     0
100
AcDbMText
 10
68.6145901922
 20
134.811240346
 30
0.0
 40
3.175
 41
0.0
 71
     1
 72
     1
  1
60
  7
SLDTEXTSTYLE0
 73
     1
 44
1.0
  0
MTEXT
  5
74
330
62
100
AcDbEntity
  8
0
  6
Continuous
 62
     7
370
     0
100
AcDbMText
 10
66.8550179146
 20
139.849244979
 30
0.0
 40
3.175
 41
0.0
 71
     1
 72
     1
  1
2.36
  7
SLDTEXTSTYLE0
 73
     1
 44
1.0
  0
ENDBLK
  5
64
330
62
100
AcDbEntity
  8
0
100
AcDbBlockEnd
  0
BLOCK
  5
77
330
76
100
AcDbEntity
  8
0
100
AcDbBlockBegin
  2
*D3
 70
     1
 10
0.0
 20
0.0
 30
0.0
  3
*D3
  1

  0
ARC
  5
79
330
76
100
AcDbEntity
  8
0
  6
Continuous
 62
     7
370
     0
100
AcDbCircle
 10
72.7668895486
 20
121.2589358967
 30
0.0
 40
11.26532083016687
100
AcDbArc
 50
153.4349488229
 51
206.5650511771
  0
ARC
  5
7A
330
76
100
AcDbEntity
  8
0
  6
Continuous
 62
     7
370
     0
100
AcDbCircle
 10
69.1477029507
 20
121.2589358967
 30
0.0
 40
11.26532083016685
100
AcDbArc
 50
333.4349488229
 51
26.5650511771
  0
SOLID
  5
7B
330
76
100
AcDbEntity
  8
0
  6
Continuous
 62
     7
370
     0
100
AcDbTrace
 10
49.6410378674
 20
121.2589358967
 30
0.0
 11
52.9430378674
 21
120.7509358967
 31
0.0
 12
52.9430378674
 22
121.7669358967
 32
0.0
 13
52.9430378674
 23
121.7669358967
 33
0.0
  0
SOLID
  5
7C
330
76
100
AcDbEntity
  8
0
  6
Continuous
 62
     7
370
     0
100
AcDbTrace
 10
99.6410378674
 20
121.2589358967
 30
0.0
 11
96.3390378674
 21
121.7669358967
 31
0.0
 12
96.3390378674
 22
120.7509358967
 32
0.0
 13
96.3390378674
 23
120.7509358967
 33
0.0
  0
LINE
  5
7D
330
76
100
AcDbEntity
  8
0
  6
Continuous
 62
     7
370
     0
100
AcDbLine
 10
65.5666990987
 20
125.9190901821
 30
0.0
 11
65.5666990987
 21
121.6367862441
 31
0.0
  0
LINE
  5
7E
330
76
100
AcDbEntity
  8
0
  6
Continuous
 62
     7
370
     0
100
AcDbLine
 10
65.5666990987
 20
121.6367862441
 30
0.0
 11
66.2108585067
 21
121.6367862441
 31
0.0
  0
LINE
  5
7F
330
76
100
AcDbEntity
  8
0
  6
Continuous
 62
     7
370
     0
100
AcDbLine
 10
65.5666990987
 20
125.9190901821
 30
0.0
 11
66.2108585067
 21
125.9190901821
 31
0.0
  0
LINE
  5
80
330
76
100
AcDbEntity
  8
0
  6
Continuous
 62
     7
370
     0
100
AcDbLine
 10
76.3478934006
 20
125.9190901821
 30
0.0
 11
76.3478934006
 21
121.6367862441
 31
0.0
  0
LINE
  5
81
330
76
100
AcDbEntity
  8
0
  6
Continuous
 62
     7
370
     0
100
AcDbLine
 10
76.3478934006
 20
121.6367862441
 30
0.0
 11
75.7037339926
 21
121.6367862441
 31
0.0
  0
LINE
  5
82
330
76
100
AcDbEntity
  8
0
  6
Continuous
 62
     7
370
     0
100
AcDbLine
 10
76.3478934006
 20
125.9190901821
 30
0.0
 11
75.7037339926
 21
125.9190901821
 31
0.0
  0
LINE
  5
83
330
76
100
AcDbEntity
  8
0
  6
Continuous
 62
     7
370
     0
100
AcDbLine
 10
49.6410378674
 20
95.8066685714
 30
0.0
 11
49.6410378674
 21
124.4339358967
 31
0.0
  0
LINE
  5
84
330
76
100
AcDbEntity
  8
0
  6
Continuous
 62
     7
370
     0
100
AcDbLine
 10
99.6410378674
 20
95.8066685714
 30
0.0
 11
99.6410378674
 21
124.4339358967
 31
0.0
  0
LINE
  5
85
330
76
100
AcDbEntity
  8
0
  6
Continuous
 62
     7
370
     0
100
AcDbLine
 10
49.6410378674
 20
121.2589358967
 30
0.0
 11
57.2384238349
 21
121.2589358967
 31
0.0
  0
LINE
  5
86
330
76
100
AcDbEntity
  8
0
  6
Continuous
 62
     7
370
     0
100
AcDbLine
 10
99.6410378674
 20
121.2589358967
 30
0.0
 11
84.6761686644
 21
121.2589358967
 31
0.0
  0
MTEXT
  5
87
330
76
100
AcDbEntity
  8
0
  6
Continuous
 62
     7
370
     0
100
AcDbMText
 10
68.6145901922
 20
120.3137216868
 30
0.0
 40
3.175
 41
0.0
 71
     1
 72
     1
  1
50
  7
SLDTEXTSTYLE0
 73
     1
 44
1.0
  0
MTEXT
  5
88
330
76
100
AcDbEntity
  8
0
  6
Continuous
 62
     7
370
     0
100
AcDbMText
 10
66.8550179146
 20
125.3517263197
 30
0.0
 40
3.175
 41
0.0
 71
     1
 72
     1
  1
1.97
  7
SLDTEXTSTYLE0
 73
     1
 44
1.0
  0
ENDBLK
  5
78
330
76
100
AcDbEntity
  8
0
100
AcDbBlockEnd
  0
BLOCK
  5
8B
330
8A
100
AcDbEntity
  8
0
100
AcDbBlockBegin
  2
*D4
 70
     1
 10
0.0
 20
0.0
 30
0.0
  3
*D4
  1

  0
ARC
  5
8D
330
8A
100
AcDbEntity
  8
0
  6
Continuous
 62
     7
370
     0
100
AcDbCircle
 10
73.9399377336
 20
106.3056214656
 30
0.0
 40
11.2653208301668
100
AcDbArc
 50
153.4349488229
 51
206.5650511771
  0
ARC
  5
8E
330
8A
100
AcDbEntity
  8
0
  6
Continuous
 62
     7
370
     0
100
AcDbCircle
 10
67.9746547657
 20
106.3056214656
 30
0.0
 40
11.26532083016681
100
AcDbArc
 50
333.4349488229
 51
26.5650511771
  0
SOLID
  5
8F
330
8A
100
AcDbEntity
  8
0
  6
Continuous
 62
     7
370
     0
100
AcDbTrace
 10
62.1410378674
 20
106.3056214656
 30
0.0
 11
65.4430378674
 21
105.7976214656
 31
0.0
 12
65.4430378674
 22
106.8136214656
 32
0.0
 13
65.4430378674
 23
106.8136214656
 33
0.0
  0
SOLID
  5
90
330
8A
100
AcDbEntity
  8
0
  6
Continuous
 62
     7
370
     0
100
AcDbTrace
 10
87.1410378674
 20
106.3056214656
 30
0.0
 11
83.8390378674
 21
106.8136214656
 31
0.0
 12
83.8390378674
 22
105.7976214656
 32
0.0
 13
83.8390378674
 23
105.7976214656
 33
0.0
  0
LINE
  5
91
330
8A
100
AcDbEntity
  8
0
  6
Continuous
 62
     7
370
     0
100
AcDbLine
 10
66.7397472837
 20
110.9657757511
 30
0.0
 11
66.7397472837
 21
106.6834718131
 31
0.0
  0
LINE
  5
92
330
8A
100
AcDbEntity
  8
0
  6
Continuous
 62
     7
370
     0
100
AcDbLine
 10
66.7397472837
 20
106.6834718131
 30
0.0
 11
67.3839066917
 21
106.6834718131
 31
0.0
  0
LINE
  5
93
330
8A
100
AcDbEntity
  8
0
  6
Continuous
 62
     7
370
     0
100
AcDbLine
 10
66.7397472837
 20
110.9657757511
 30
0.0
 11
67.3839066917
 21
110.9657757511
 31
0.0
  0
LINE
  5
94
330
8A
100
AcDbEntity
  8
0
  6
Continuous
 62
     7
370
     0
100
AcDbLine
 10
75.1748452156
 20
110.9657757511
 30
0.0
 11
75.1748452156
 21
106.6834718131
 31
0.0
  0
LINE
  5
95
330
8A
100
AcDbEntity
  8
0
  6
Continuous
 62
     7
370
     0
100
AcDbLine
 10
75.1748452156
 20
106.6834718131
 30
0.0
 11
74.5306858076
 21
106.6834718131
 31
0.0
  0
LINE
  5
96
330
8A
100
AcDbEntity
  8
0
  6
Continuous
 62
     7
370
     0
100
AcDbLine
 10
75.1748452156
 20
110.9657757511
 30
0.0
 11
74.5306858076
 21
110.9657757511
 31
0.0
  0
LINE
  5
97
330
8A
100
AcDbEntity
  8
0
  6
Continuous
 62
     7
370
     0
100
AcDbLine
 10
62.1410378674
 20
83.2566685714
 30
0.0
 11
62.1410378674
 21
109.4806214656
 31
0.0
  0
LINE
  5
98
330
8A
100
AcDbEntity
  8
0
  6
Continuous
 62
     7
370
     0
100
AcDbLine
 10
87.1410378674
 20
83.2566685714
 30
0.0
 11
87.1410378674
 21
109.4806214656
 31
0.0
  0
LINE
  5
99
330
8A
100
AcDbEntity
  8
0
  6
Continuous
 62
     7
370
     0
100
AcDbLine
 10
87.1410378674
 20
106.3056214656
 30
0.0
 11
83.5031204794
 21
106.3056214656
 31
0.0
  0
MTEXT
  5
9A
330
8A
100
AcDbEntity
  8
0
  6
Continuous
 62
     7
370
     0
100
AcDbMText
 10
68.6145901922
 20
105.3604072557
 30
0.0
 40
3.175
 41
0.0
 71
     1
 72
     1
  1
25
  7
SLDTEXTSTYLE0
 73
     1
 44
1.0
  0
MTEXT
  5
9B
330
8A
100
AcDbEntity
  8
0
  6
Continuous
 62
     7
370
     0
100
AcDbMText
 10
68.0280660997
 20
110.3984118886
 30
0.0
 40
3.175
 41
0.0
 71
     1
 72
     1
  1
.98
  7
SLDTEXTSTYLE0
 73
     1
 44
1.0
  0
ENDBLK
  5
8C
330
8A
100
AcDbEntity
  8
0
100
AcDbBlockEnd
  0
BLOCK
  5
9E
330
9D
100
AcDbEntity
  8
0
100
AcDbBlockBegin
  2
*D5
 70
     1
 10
0.0
 20
0.0
 30
0.0
  3
*D5
  1

  0
ARC
  5
A0
330
9D
100
AcDbEntity
  8
0
  6
Continuous
 62
     7
370
     0
100
AcDbCircle
 10
24.3888660296
 20
63.1813199577
 30
0.0
 40
11.26532083016678
100
AcDbArc
 50
153.4349488229
 51
206.5650511771
  0
ARC
  5
A1
330
9D
100
AcDbEntity
  8
0
  6
Continuous
 62
     7
370
     0
100
AcDbCircle
 10
20.7696794317
 20
63.1813199577
 30
0.0
 40
11.26532083016681
100
AcDbArc
 50
333.4349488229
 51
26.5650511771
  0
SOLID
  5
A2
330
9D
100
AcDbEntity
  8
0
  6
Continuous
 62
     7
370
     0
100
AcDbTrace
 10
22.5792727306
 20
93.6966685714
 30
0.0
 11
22.0712727306
 21
90.3946685714
 31
0.0
 12
23.0872727306
 22
90.3946685714
 32
0.0
 13
23.0872727306
 23
90.3946685714
 33
0.0
  0
SOLID
  5
A3
330
9D
100
AcDbEntity
  8
0
  6
Continuous
 62
     7
370
     0
100
AcDbTrace
 10
22.5792727306
 20
33.6966685714
 30
0.0
 11
23.0872727306
 21
36.9986685714
 31
0.0
 12
22.0712727306
 22
36.9986685714
 32
0.0
 13
22.0712727306
 23
36.9986685714
 33
0.0
  0
LINE
  5
A4
330
9D
100
AcDbEntity
  8
0
  6
Continuous
 62
     7
370
     0
100
AcDbLine
 10
17.1886755797
 20
67.8414742432
 30
0.0
 11
17.1886755797
 21
63.5591703052
 31
0.0
  0
LINE
  5
A5
330
9D
100
AcDbEntity
  8
0
  6
Continuous
 62
     7
370
     0
100
AcDbLine
 10
17.1886755797
 20
63.5591703052
 30
0.0
 11
17.8328349876
 21
63.5591703052
 31
0.0
  0
LINE
  5
A6
330
9D
100
AcDbEntity
  8
0
  6
Continuous
 62
     7
370
     0
100
AcDbLine
 10
17.1886755797
 20
67.8414742432
 30
0.0
 11
17.8328349876
 21
67.8414742432
 31
0.0
  0
LINE
  5
A7
330
9D
100
AcDbEntity
  8
0
  6
Continuous
 62
     7
370
     0
100
AcDbLine
 10
27.9698698816
 20
67.8414742432
 30
0.0
 11
27.9698698816
 21
63.5591703052
 31
0.0
  0
LINE
  5
A8
330
9D
100
AcDbEntity
  8
0
  6
Continuous
 62
     7
370
     0
100
AcDbLine
 10
27.9698698816
 20
63.5591703052
 30
0.0
 11
27.3257104736
 21
63.5591703052
 31
0.0
  0
LINE
  5
A9
330
9D
100
AcDbEntity
  8
0
  6
Continuous
 62
     7
370
     0
100
AcDbLine
 10
27.9698698816
 20
67.8414742432
 30
0.0
 11
27.3257104736
 21
67.8414742432
 31
0.0
  0
LINE
  5
AA
330
9D
100
AcDbEntity
  8
0
  6
Continuous
 62
     7
370
     0
100
AcDbLine
 10
43.3710378674
 20
93.6966685714
 30
0.0
 11
19.4042727306
 21
93.6966685714
 31
0.0
  0
LINE
  5
AB
330
9D
100
AcDbEntity
  8
0
  6
Continuous
 62
     7
370
     0
100
AcDbLine
 10
43.3710378674
 20
33.6966685714
 30
0.0
 11
19.4042727306
 21
33.6966685714
 31
0.0
  0
LINE
  5
AC
330
9D
100
AcDbEntity
  8
0
  6
Continuous
 62
     7
370
     0
100
AcDbLine
 10
22.5792727306
 20
93.6966685714
 30
0.0
 11
22.5792727306
 21
68.2193245906
 31
0.0
  0
LINE
  5
AD
330
9D
100
AcDbEntity
  8
0
  6
Continuous
 62
     7
370
     0
100
AcDbLine
 10
22.5792727306
 20
33.6966685714
 30
0.0
 11
22.5792727306
 21
58.1433153248
 31
0.0
  0
MTEXT
  5
AE
330
9D
100
AcDbEntity
  8
0
  6
Continuous
 62
     7
370
     0
100
AcDbMText
 10
20.2365666732
 20
62.2361057478
 30
0.0
 40
3.175
 41
0.0
 71
     1
 72
     1
  1
60
  7
SLDTEXTSTYLE0
 73
     1
 44
1.0
  0
MTEXT
  5
AF
330
9D
100
AcDbEntity
  8
0
  6
Continuous
 62
     7
370
     0
100
AcDbMText
 10
18.4769943956
 20
67.2741103807
 30
0.0
 40
3.175
 41
0.0
 71
     1
 72
     1
  1
2.36
  7
SLDTEXTSTYLE0
 73
     1
 44
1.0
  0
ENDBLK
  5
9F
330
9D
100
AcDbEntity
  8
0
100
AcDbBlockEnd
  0
BLOCK
  5
B2
330
B1
100
AcDbEntity
  8
0
100
AcDbBlockBegin
  2
*D6
 70
     1
 10
0.0
 20
0.0
 30
0.0
  3
*D6
  1

  0
ARC
  5
B4
330
B1
100
AcDbEntity
  8
0
  6
Continuous
 62
     7
370
     0
100
AcDbCircle
 10
121.0521441253
 20
9.1516003161
 30
0.0
 40
11.26532083016681
100
AcDbArc
 50
153.4349488229
 51
206.5650511771
  0
ARC
  5
B5
330
B1
100
AcDbEntity
  8
0
  6
Continuous
 62
     7
370
     0
100
AcDbCircle
 10
115.0868611574
 20
9.1516003161
 30
0.0
 40
11.26532083016681
100
AcDbArc
 50
333.4349488229
 51
26.5650511771
  0
SOLID
  5
B6
330
B1
100
AcDbEntity
  8
0
  6
Continuous
 62
     7
370
     0
100
AcDbTrace
 10
87.1410378674
 20
9.1516003161
 30
0.0
 11
90.4430378674
 21
8.6436003161
 31
0.0
 12
90.4430378674
 22
9.6596003161
 32
0.0
 13
90.4430378674
 23
9.6596003161
 33
0.0
  0
SOLID
  5
B7
330
B1
100
AcDbEntity
  8
0
  6
Continuous
 62
     7
370
     0
100
AcDbTrace
 10
104.6410378674
 20
9.1516003161
 30
0.0
 11
101.3390378674
 21
9.6596003161
 31
0.0
 12
101.3390378674
 22
8.6436003161
 32
0.0
 13
101.3390378674
 23
8.6436003161
 33
0.0
  0
LINE
  5
B8
330
B1
100
AcDbEntity
  8
0
  6
Continuous
 62
     7
370
     0
100
AcDbLine
 10
113.8519536754
 20
13.8117546015
 30
0.0
 11
113.8519536754
 21
9.5294506635
 31
0.0
  0
LINE
  5
B9
330
B1
100
AcDbEntity
  8
0
  6
Continuous
 62
     7
370
     0
100
AcDbLine
 10
113.8519536754
 20
9.5294506635
 30
0.0
 11
114.4961130834
 21
9.5294506635
 31
0.0
  0
LINE
  5
BA
330
B1
100
AcDbEntity
  8
0
  6
Continuous
 62
     7
370
     0
100
AcDbLine
 10
113.8519536754
 20
13.8117546015
 30
0.0
 11
114.4961130834
 21
13.8117546015
 31
0.0
  0
LINE
  5
BB
330
B1
100
AcDbEntity
  8
0
  6
Continuous
 62
     7
370
     0
100
AcDbLine
 10
122.2870516073
 20
13.8117546015
 30
0.0
 11
122.2870516073
 21
9.5294506635
 31
0.0
  0
LINE
  5
BC
330
B1
100
AcDbEntity
  8
0
  6
Continuous
 62
     7
370
     0
100
AcDbLine
 10
122.2870516073
 20
9.5294506635
 30
0.0
 11
121.6428921993
 21
9.5294506635
 31
0.0
  0
LINE
  5
BD
330
B1
100
AcDbEntity
  8
0
  6
Continuous
 62
     7
370
     0
100
AcDbLine
 10
122.2870516073
 20
13.8117546015
 30
0.0
 11
121.6428921993
 21
13.8117546015
 31
0.0
  0
LINE
  5
BE
330
B1
100
AcDbEntity
  8
0
  6
Continuous
 62
     7
370
     0
100
AcDbLine
 10
87.1410378674
 20
44.1366685714
 30
0.0
 11
87.1410378674
 21
5.9766003161
 31
0.0
  0
LINE
  5
BF
330
B1
100
AcDbEntity
  8
0
  6
Continuous
 62
     7
370
     0
100
AcDbLine
 10
104.6410378674
 20
32.4266685714
 30
0.0
 11
104.6410378674
 21
5.9766003161
 31
0.0
  0
LINE
  5
C0
330
B1
100
AcDbEntity
  8
0
  6
Continuous
 62
     7
370
     0
100
AcDbLine
 10
87.1410378674
 20
9.1516003161
 30
0.0
 11
104.6410378674
 21
9.1516003161
 31
0.0
  0
LINE
  5
C1
330
B1
100
AcDbEntity
  8
0
  6
Continuous
 62
     7
370
     0
100
AcDbLine
 10
104.6410378674
 20
9.1516003161
 30
0.0
 11
105.5236784116
 21
9.1516003161
 31
0.0
  0
MTEXT
  5
C2
330
B1
100
AcDbEntity
  8
0
  6
Continuous
 62
     7
370
     0
100
AcDbMText
 10
113.9672243063
 20
8.2063861062
 30
0.0
 40
3.175
 41
0.0
 71
     1
 72
     1
  1
17.5
  7
SLDTEXTSTYLE0
 73
     1
 44
1.0
  0
MTEXT
  5
C3
330
B1
100
AcDbEntity
  8
0
  6
Continuous
 62
     7
370
     0
100
AcDbMText
 10
115.1402724914
 20
13.2443907391
 30
0.0
 40
3.175
 41
0.0
 71
     1
 72
     1
  1
.69
  7
SLDTEXTSTYLE0
 73
     1
 44
1.0
  0
ENDBLK
  5
B3
330
B1
100
AcDbEntity
  8
0
100
AcDbBlockEnd
  0
BLOCK
  5
C6
330
C5
100
AcDbEntity
  8
0
100
AcDbBlockBegin
  2
*D7
 70
     1
 10
0.0
 20
0.0
 30
0.0
  3
*D7
  1

  0
ARC
  5
C8
330
C5
100
AcDbEntity
  8
0
  6
Continuous
 62
     7
370
     0
100
AcDbCircle
 10
35.8510211342
 20
9.1516003161
 30
0.0
 40
11.26532083016681
100
AcDbArc
 50
153.4349488229
 51
206.5650511771
  0
ARC
  5
C9
330
C5
100
AcDbEntity
  8
0
  6
Continuous
 62
     7
370
     0
100
AcDbCircle
 10
29.8857381662
 20
9.1516003161
 30
0.0
 40
11.26532083016681
100
AcDbArc
 50
333.4349488229
 51
26.5650511771
  0
SOLID
  5
CA
330
C5
100
AcDbEntity
  8
0
  6
Continuous
 62
     7
370
     0
100
AcDbTrace
 10
49.6410378674
 20
9.1516003161
 30
0.0
 11
46.3390378674
 21
9.6596003161
 31
0.0
 12
46.3390378674
 22
8.6436003161
 32
0.0
 13
46.3390378674
 23
8.6436003161
 33
0.0
  0
SOLID
  5
CB
330
C5
100
AcDbEntity
  8
0
  6
Continuous
 62
     7
370
     0
100
AcDbTrace
 10
44.6410378674
 20
9.1516003161
 30
0.0
 11
47.9430378674
 21
8.6436003161
 31
0.0
 12
47.9430378674
 22
9.6596003161
 32
0.0
 13
47.9430378674
 23
9.6596003161
 33
0.0
  0
LINE
  5
CC
330
C5
100
AcDbEntity
  8
0
  6
Continuous
 62
     7
370
     0
100
AcDbLine
 10
28.6508306843
 20
13.8117546015
 30
0.0
 11
28.6508306843
 21
9.5294506635
 31
0.0
  0
LINE
  5
CD
330
C5
100
AcDbEntity
  8
0
  6
Continuous
 62
     7
370
     0
100
AcDbLine
 10
28.6508306843
 20
9.5294506635
 30
0.0
 11
29.2949900923
 21
9.5294506635
 31
0.0
  0
LINE
  5
CE
330
C5
100
AcDbEntity
  8
0
  6
Continuous
 62
     7
370
     0
100
AcDbLine
 10
28.6508306843
 20
13.8117546015
 30
0.0
 11
29.2949900923
 21
13.8117546015
 31
0.0
  0
LINE
  5
CF
330
C5
100
AcDbEntity
  8
0
  6
Continuous
 62
     7
370
     0
100
AcDbLine
 10
37.0859286161
 20
13.8117546015
 30
0.0
 11
37.0859286161
 21
9.5294506635
 31
0.0
  0
LINE
  5
D0
330
C5
100
AcDbEntity
  8
0
  6
Continuous
 62
     7
370
     0
100
AcDbLine
 10
37.0859286161
 20
9.5294506635
 30
0.0
 11
36.4417692081
 21
9.5294506635
 31
0.0
  0
LINE
  5
D1
330
C5
100
AcDbEntity
  8
0
  6
Continuous
 62
     7
370
     0
100
AcDbLine
 10
37.0859286161
 20
13.8117546015
 30
0.0
 11
36.4417692081
 21
13.8117546015
 31
0.0
  0
LINE
  5
D2
330
C5
100
AcDbEntity
  8
0
  6
Continuous
 62
     7
370
     0
100
AcDbLine
 10
49.6410378674
 20
31.5866685714
 30
0.0
 11
49.6410378674
 21
5.9766003161
 31
0.0
  0
LINE
  5
D3
330
C5
100
AcDbEntity
  8
0
  6
Continuous
 62
     7
370
     0
100
AcDbLine
 10
44.6410378674
 20
32.4266685714
 30
0.0
 11
44.6410378674
 21
5.9766003161
 31
0.0
  0
LINE
  5
D4
330
C5
100
AcDbEntity
  8
0
  6
Continuous
 62
     7
370
     0
100
AcDbLine
 10
49.6410378674
 20
9.1516003161
 30
0.0
 11
44.6410378674
 21
9.1516003161
 31
0.0
  0
MTEXT
  5
D5
330
C5
100
AcDbEntity
  8
0
  6
Continuous
 62
     7
370
     0
100
AcDbMText
 10
31.6987217778
 20
8.2063861062
 30
0.0
 40
3.175
 41
0.0
 71
     1
 72
     1
  1
5
  7
SLDTEXTSTYLE0
 73
     1
 44
1.0
  0
MTEXT
  5
D6
330
C5
100
AcDbEntity
  8
0
  6
Continuous
 62
     7
370
     0
100
AcDbMText
 10
29.9391495002
 20
13.2443907391
 30
0.0
 40
3.175
 41
0.0
 71
     1
 72
     1
  1
.20
  7
SLDTEXTSTYLE0
 73
     1
 44
1.0
  0
ENDBLK
  5
C7
330
C5
100
AcDbEntity
  8
0
100
AcDbBlockEnd
  0
BLOCK
  5
D8
330
D7
100
AcDbEntity
  8
0
100
AcDbBlockBegin
  2
SW_CENTERMARKSYMBOL_0
 70
     0
 10
0.0
 20
0.0
 30
0.0
  3
SW_CENTERMARKSYMBOL_0
  1

  0
LINE
  5
DA
330
D7
100
AcDbEntity
  8
0
  6
Continuous
 62
     0
370
     0
100
AcDbLine
 10
0.0
 20
0.0
 30
0.0
 11
-2.54
 21
0.0
 31
0.0
  0
LINE
  5
DB
330
D7
100
AcDbEntity
  8
0
  6
Continuous
 62
     0
370
     0
100
AcDbLine
 10
0.0
 20
0.0
 30
0.0
 11
0.0
 21
-2.54
 31
0.0
  0
LINE
  5
DC
330
D7
100
AcDbEntity
  8
0
  6
Continuous
 62
     0
370
     0
100
AcDbLine
 10
0.0
 20
0.0
 30
0.0
 11
2.54
 21
0.0
 31
0.0
  0
LINE
  5
DD
330
D7
100
AcDbEntity
  8
0
  6
Continuous
 62
     0
370
     0
100
AcDbLine
 10
0.0
 20
0.0
 30
0.0
 11
0.0
 21
2.54
 31
0.0
  0
LINE
  5
DE
330
D7
100
AcDbEntity
  8
0
  6
Continuous
 62
     0
370
     0
100
AcDbLine
 10
-5.08
 20
0.0
 30
0.0
 11
-5.79
 21
0.0
 31
0.0
  0
LINE
  5
DF
330
D7
100
AcDbEntity
  8
0
  6
Continuous
 62
     0
370
     0
100
AcDbLine
 10
0.0
 20
-5.08
 30
0.0
 11
0.0
 21
-5.79
 31
0.0
  0
LINE
  5
E0
330
D7
100
AcDbEntity
  8
0
  6
Continuous
 62
     0
370
     0
100
AcDbLine
 10
0.0
 20
25.0
 30
0.0
 11
-2.54
 21
25.0
 31
0.0
  0
LINE
  5
E1
330
D7
100
AcDbEntity
  8
0
  6
Continuous
 62
     0
370
     0
100
AcDbLine
 10
0.0
 20
25.0
 30
0.0
 11
0.0
 21
22.46
 31
0.0
  0
LINE
  5
E2
330
D7
100
AcDbEntity
  8
0
  6
Continuous
 62
     0
370
     0
100
AcDbLine
 10
0.0
 20
25.0
 30
0.0
 11
2.54
 21
25.0
 31
0.0
  0
LINE
  5
E3
330
D7
100
AcDbEntity
  8
0
  6
Continuous
 62
     0
370
     0
100
AcDbLine
 10
0.0
 20
25.0
 30
0.0
 11
0.0
 21
27.54
 31
0.0
  0
LINE
  5
E4
330
D7
100
AcDbEntity
  8
0
  6
Continuous
 62
     0
370
     0
100
AcDbLine
 10
-5.08
 20
25.0
 30
0.0
 11
-5.79
 21
25.0
 31
0.0
  0
LINE
  5
E5
330
D7
100
AcDbEntity
  8
0
  6
Continuous
 62
     0
370
     0
100
AcDbLine
 10
0.0
 20
30.08
 30
0.0
 11
0.0
 21
30.79
 31
0.0
  0
LINE
  5
E6
330
D7
100
AcDbEntity
  8
0
  6
Continuous
 62
     0
370
     0
100
AcDbLine
 10
25.0
 20
25.0
 30
0.0
 11
22.46
 21
25.0
 31
0.0
  0
LINE
  5
E7
330
D7
100
AcDbEntity
  8
0
  6
Continuous
 62
     0
370
     0
100
AcDbLine
 10
25.0
 20
25.0
 30
0.0
 11
25.0
 21
22.46
 31
0.0
  0
LINE
  5
E8
330
D7
100
AcDbEntity
  8
0
  6
Continuous
 62
     0
370
     0
100
AcDbLine
 10
25.0
 20
25.0
 30
0.0
 11
27.54
 21
25.0
 31
0.0
  0
LINE
  5
E9
330
D7
100
AcDbEntity
  8
0
  6
Continuous
 62
     0
370
     0
100
AcDbLine
 10
25.0
 20
25.0
 30
0.0
 11
25.0
 21
27.54
 31
0.0
  0
LINE
  5
EA
330
D7
100
AcDbEntity
  8
0
  6
Continuous
 62
     0
370
     0
100
AcDbLine
 10
30.08
 20
25.0
 30
0.0
 11
30.79
 21
25.0
 31
0.0
  0
LINE
  5
EB
330
D7
100
AcDbEntity
  8
0
  6
Continuous
 62
     0
370
     0
100
AcDbLine
 10
25.0
 20
30.08
 30
0.0
 11
25.0
 21
30.79
 31
0.0
  0
LINE
  5
EC
330
D7
100
AcDbEntity
  8
0
  6
Continuous
 62
     0
370
     0
100
AcDbLine
 10
25.0
 20
0.0
 30
0.0
 11
22.46
 21
0.0
 31
0.0
  0
LINE
  5
ED
330
D7
100
AcDbEntity
  8
0
  6
Continuous
 62
     0
370
     0
100
AcDbLine
 10
25.0
 20
0.0
 30
0.0
 11
25.0
 21
-2.54
 31
0.0
  0
LINE
  5
EE
330
D7
100
AcDbEntity
  8
0
  6
Continuous
 62
     0
370
     0
100
AcDbLine
 10
25.0
 20
0.0
 30
0.0
 11
27.54
 21
0.0
 31
0.0
  0
LINE
  5
EF
330
D7
100
AcDbEntity
  8
0
  6
Continuous
 62
     0
370
     0
100
AcDbLine
 10
25.0
 20
0.0
 30
0.0
 11
25.0
 21
2.54
 31
0.0
  0
LINE
  5
F0
330
D7
100
AcDbEntity
  8
0
  6
Continuous
 62
     0
370
     0
100
AcDbLine
 10
25.0
 20
-5.08
 30
0.0
 11
25.0
 21
-5.79
 31
0.0
  0
LINE
  5
F1
330
D7
100
AcDbEntity
  8
0
  6
Continuous
 62
     0
370
     0
100
AcDbLine
 10
30.08
 20
0.0
 30
0.0
 11
30.79
 21
0.0
 31
0.0
  0
LINE
  5
F2
330
D7
100
AcDbEntity
  8
0
  6
Continuous
 62
     0
370
     0
100
AcDbLine
 10
25.0
 20
5.08
 30
0.0
 11
25.0
 21
19.92
 31
0.0
  0
LINE
  5
F3
330
D7
100
AcDbEntity
  8
0
  6
Continuous
 62
     0
370
     0
100
AcDbLine
 10
0.0
 20
5.08
 30
0.0
 11
0.0
 21
19.92
 31
0.0
  0
LINE
  5
F4
330
D7
100
AcDbEntity
  8
0
  6
Continuous
 62
     0
370
     0
100
AcDbLine
 10
19.92
 20
0.0
 30
0.0
 11
5.08
 21
0.0
 31
0.0
  0
LINE
  5
F5
330
D7
100
AcDbEntity
  8
0
  6
Continuous
 62
     0
370
     0
100
AcDbLine
 10
19.92
 20
25.0
 30
0.0
 11
5.08
 21
25.0
 31
0.0
  0
ENDBLK
  5
D9
330
D7
100
AcDbEntity
  8
0
100
AcDbBlockEnd
  0
BLOCK
  5
F8
330
F7
100
AcDbEntity
  8
0
100
AcDbBlockBegin
  2
SW_CENTERMARKSYMBOL_1
 70
     0
 10
0.0
 20
0.0
 30
0.0
  3
SW_CENTERMARKSYMBOL_1
  1

  0
LINE
  5
FA
330
F7
100
AcDbEntity
  8
0
  6
Continuous
 62
     0
370
     0
100
AcDbLine
 10
0.0
 20
0.0
 30
0.0
 11
0.0
 21
2.54
 31
0.0
  0
LINE
  5
FB
330
F7
100
AcDbEntity
  8
0
  6
Continuous
 62
     0
370
     0
100
AcDbLine
 10
0.0
 20
0.0
 30
0.0
 11
-2.54
 21
0.0
 31
0.0
  0
LINE
  5
FC
330
F7
100
AcDbEntity
  8
0
  6
Continuous
 62
     0
370
     0
100
AcDbLine
 10
0.0
 20
0.0
 30
0.0
 11
0.0
 21
-2.54
 31
0.0
  0
LINE
  5
FD
330
F7
100
AcDbEntity
  8
0
  6
Continuous
 62
     0
370
     0
100
AcDbLine
 10
0.0
 20
0.0
 30
0.0
 11
2.54
 21
0.0
 31
0.0
  0
LINE
  5
FE
330
F7
100
AcDbEntity
  8
0
  6
Continuous
 62
     0
370
     0
100
AcDbLine
 10
0.0
 20
5.08
 30
0.0
 11
0.0
 21
5.84
 31
0.0
  0
LINE
  5
FF
330
F7
100
AcDbEntity
  8
0
  6
Continuous
 62
     0
370
     0
100
AcDbLine
 10
5.08
 20
0.0
 30
0.0
 11
5.84
 21
0.0
 31
0.0
  0
LINE
  5
100
330
F7
100
AcDbEntity
  8
0
  6
Continuous
 62
     0
370
     0
100
AcDbLine
 10
50.0
 20
0.0
 30
0.0
 11
50.0
 21
2.54
 31
0.0
  0
LINE
  5
101
330
F7
100
AcDbEntity
  8
0
  6
Continuous
 62
     0
370
     0
100
AcDbLine
 10
50.0
 20
0.0
 30
0.0
 11
47.46
 21
0.0
 31
0.0
  0
LINE
  5
102
330
F7
100
AcDbEntity
  8
0
  6
Continuous
 62
     0
370
     0
100
AcDbLine
 10
50.0
 20
0.0
 30
0.0
 11
50.0
 21
-2.54
 31
0.0
  0
LINE
  5
103
330
F7
100
AcDbEntity
  8
0
  6
Continuous
 62
     0
370
     0
100
AcDbLine
 10
50.0
 20
0.0
 30
0.0
 11
52.54
 21
0.0
 31
0.0
  0
LINE
  5
104
330
F7
100
AcDbEntity
  8
0
  6
Continuous
 62
     0
370
     0
100
AcDbLine
 10
50.0
 20
-5.08
 30
0.0
 11
50.0
 21
-5.84
 31
0.0
  0
LINE
  5
105
330
F7
100
AcDbEntity
  8
0
  6
Continuous
 62
     0
370
     0
100
AcDbLine
 10
55.08
 20
0.0
 30
0.0
 11
55.84
 21
0.0
 31
0.0
  0
LINE
  5
106
330
F7
100
AcDbEntity
  8
0
  6
Continuous
 62
     0
370
     0
100
AcDbLine
 10
50.0
 20
-50.0
 30
0.0
 11
50.0
 21
-47.46
 31
0.0
  0
LINE
  5
107
330
F7
100
AcDbEntity
  8
0
  6
Continuous
 62
     0
370
     0
100
AcDbLine
 10
50.0
 20
-50.0
 30
0.0
 11
47.46
 21
-50.0
 31
0.0
  0
LINE
  5
108
330
F7
100
AcDbEntity
  8
0
  6
Continuous
 62
     0
370
     0
100
AcDbLine
 10
50.0
 20
-50.0
 30
0.0
 11
50.0
 21
-52.54
 31
0.0
  0
LINE
  5
109
330
F7
100
AcDbEntity
  8
0
  6
Continuous
 62
     0
370
     0
100
AcDbLine
 10
50.0
 20
-50.0
 30
0.0
 11
52.54
 21
-50.0
 31
0.0
  0
LINE
  5
10A
330
F7
100
AcDbEntity
  8
0
  6
Continuous
 62
     0
370
     0
100
AcDbLine
 10
44.92
 20
-50.0
 30
0.0
 11
44.16
 21
-50.0
 31
0.0
  0
LINE
  5
10B
330
F7
100
AcDbEntity
  8
0
  6
Continuous
 62
     0
370
     0
100
AcDbLine
 10
50.0
 20
-55.08
 30
0.0
 11
50.0
 21
-55.84
 31
0.0
  0
LINE
  5
10C
330
F7
100
AcDbEntity
  8
0
  6
Continuous
 62
     0
370
     0
100
AcDbLine
 10
0.0
 20
-50.0
 30
0.0
 11
0.0
 21
-47.46
 31
0.0
  0
LINE
  5
10D
330
F7
100
AcDbEntity
  8
0
  6
Continuous
 62
     0
370
     0
100
AcDbLine
 10
0.0
 20
-50.0
 30
0.0
 11
-2.54
 21
-50.0
 31
0.0
  0
LINE
  5
10E
330
F7
100
AcDbEntity
  8
0
  6
Continuous
 62
     0
370
     0
100
AcDbLine
 10
0.0
 20
-50.0
 30
0.0
 11
0.0
 21
-52.54
 31
0.0
  0
LINE
  5
10F
330
F7
100
AcDbEntity
  8
0
  6
Continuous
 62
     0
370
     0
100
AcDbLine
 10
0.0
 20
-50.0
 30
0.0
 11
2.54
 21
-50.0
 31
0.0
  0
LINE
  5
110
330
F7
100
AcDbEntity
  8
0
  6
Continuous
 62
     0
370
     0
100
AcDbLine
 10
0.0
 20
-44.92
 30
0.0
 11
0.0
 21
-44.16
 31
0.0
  0
LINE
  5
111
330
F7
100
AcDbEntity
  8
0
  6
Continuous
 62
     0
370
     0
100
AcDbLine
 10
-5.08
 20
-50.0
 30
0.0
 11
-5.84
 21
-50.0
 31
0.0
  0
LINE
  5
112
330
F7
100
AcDbEntity
  8
0
  6
Continuous
 62
     0
370
     0
100
AcDbLine
 10
50.0
 20
-44.92
 30
0.0
 11
50.0
 21
-5.08
 31
0.0
  0
LINE
  5
113
330
F7
100
AcDbEntity
  8
0
  6
Continuous
 62
     0
370
     0
100
AcDbLine
 10
0.0
 20
-44.92
 30
0.0
 11
0.0
 21
-5.08
 31
0.0
  0
LINE
  5
114
330
F7
100
AcDbEntity
  8
0
  6
Continuous
 62
     0
370
     0
100
AcDbLine
 10
44.92
 20
-50.0
 30
0.0
 11
5.08
 21
-50.0
 31
0.0
  0
LINE
  5
115
330
F7
100
AcDbEntity
  8
0
  6
Continuous
 62
     0
370
     0
100
AcDbLine
 10
44.92
 20
0.0
 30
0.0
 11
5.08
 21
0.0
 31
0.0
  0
ENDBLK
  5
F9
330
F7
100
AcDbEntity
  8
0
100
AcDbBlockEnd
  0
BLOCK
  5
146
330
145
100
AcDbEntity
  8
0
100
AcDbBlockBegin
  2
*D10
 70
     1
 10
0.0
 20
0.0
 30
0.0
  3
*D10
  1

  0
ARC
  5
148
330
145
100
AcDbEntity
  8
0
  6
Continuous
 62
     7
370
     0
100
AcDbCircle
 10
266.3148124928
 20
64.2356744689
 30
0.0
 40
11.26532083016681
100
AcDbArc
 50
153.4349488229
 51
206.5650511771
  0
ARC
  5
149
330
145
100
AcDbEntity
  8
0
  6
Continuous
 62
     7
370
     0
100
AcDbCircle
 10
262.695625895
 20
64.2356744689
 30
0.0
 40
11.26532083016686
100
AcDbArc
 50
333.4349488229
 51
26.5650511771
  0
SOLID
  5
14A
330
145
100
AcDbEntity
  8
0
  6
Continuous
 62
     7
370
     0
100
AcDbTrace
 10
264.5052191939
 20
88.6966685714
 30
0.0
 11
263.9972191939
 21
85.3946685714
 31
0.0
 12
265.0132191939
 22
85.3946685714
 32
0.0
 13
265.0132191939
 23
85.3946685714
 33
0.0
  0
SOLID
  5
14B
330
145
100
AcDbEntity
  8
0
  6
Continuous
 62
     7
370
     0
100
AcDbTrace
 10
264.5052191939
 20
38.6966685714
 30
0.0
 11
265.0132191939
 21
41.9986685714
 31
0.0
 12
263.9972191939
 22
41.9986685714
 32
0.0
 13
263.9972191939
 23
41.9986685714
 33
0.0
  0
LINE
  5
14C
330
145
100
AcDbEntity
  8
0
  6
Continuous
 62
     7
370
     0
100
AcDbLine
 10
259.1146220429
 20
68.8958287544
 30
0.0
 11
259.1146220429
 21
64.6135248164
 31
0.0
  0
LINE
  5
14D
330
145
100
AcDbEntity
  8
0
  6
Continuous
 62
     7
370
     0
100
AcDbLine
 10
259.1146220429
 20
64.6135248164
 30
0.0
 11
259.7587814509
 21
64.6135248164
 31
0.0
  0
LINE
  5
14E
330
145
100
AcDbEntity
  8
0
  6
Continuous
 62
     7
370
     0
100
AcDbLine
 10
259.1146220429
 20
68.8958287544
 30
0.0
 11
259.7587814509
 21
68.8958287544
 31
0.0
  0
LINE
  5
14F
330
145
100
AcDbEntity
  8
0
  6
Continuous
 62
     7
370
     0
100
AcDbLine
 10
269.8958163449
 20
68.8958287544
 30
0.0
 11
269.8958163449
 21
64.6135248164
 31
0.0
  0
LINE
  5
150
330
145
100
AcDbEntity
  8
0
  6
Continuous
 62
     7
370
     0
100
AcDbLine
 10
269.8958163449
 20
64.6135248164
 30
0.0
 11
269.2516569369
 21
64.6135248164
 31
0.0
  0
LINE
  5
151
330
145
100
AcDbEntity
  8
0
  6
Continuous
 62
     7
370
     0
100
AcDbLine
 10
269.8958163449
 20
68.8958287544
 30
0.0
 11
269.2516569369
 21
68.8958287544
 31
0.0
  0
LINE
  5
152
330
145
100
AcDbEntity
  8
0
  6
Continuous
 62
     7
370
     0
100
AcDbLine
 10
226.492406428
 20
88.6966685714
 30
0.0
 11
267.6802191939
 21
88.6966685714
 31
0.0
  0
LINE
  5
153
330
145
100
AcDbEntity
  8
0
  6
Continuous
 62
     7
370
     0
100
AcDbLine
 10
226.492406428
 20
38.6966685714
 30
0.0
 11
267.6802191939
 21
38.6966685714
 31
0.0
  0
LINE
  5
154
330
145
100
AcDbEntity
  8
0
  6
Continuous
 62
     7
370
     0
100
AcDbLine
 10
264.5052191939
 20
88.6966685714
 30
0.0
 11
264.5052191939
 21
69.2736791019
 31
0.0
  0
LINE
  5
155
330
145
100
AcDbEntity
  8
0
  6
Continuous
 62
     7
370
     0
100
AcDbLine
 10
264.5052191939
 20
38.6966685714
 30
0.0
 11
264.5052191939
 21
59.197669836
 31
0.0
  0
MTEXT
  5
156
330
145
100
AcDbEntity
  8
0
  6
Continuous
 62
     7
370
     0
100
AcDbMText
 10
262.1625131365
 20
63.290460259
 30
0.0
 40
3.175
 41
0.0
 71
     1
 72
     1
  1
50
  7
SLDTEXTSTYLE0
 73
     1
 44
1.0
  0
MTEXT
  5
157
330
145
100
AcDbEntity
  8
0
  6
Continuous
 62
     7
370
     0
100
AcDbMText
 10
260.4029408589
 20
68.328464892
 30
0.0
 40
3.175
 41
0.0
 71
     1
 72
     1
  1
1.97
  7
SLDTEXTSTYLE0
 73
     1
 44
1.0
  0
ENDBLK
  5
147
330
145
100
AcDbEntity
  8
0
100
AcDbBlockEnd
  0
BLOCK
  5
15A
330
159
100
AcDbEntity
  8
0
100
AcDbBlockBegin
  2
*D11
 70
     1
 10
0.0
 20
0.0
 30
0.0
  3
*D11
  1

  0
ARC
  5
15C
330
159
100
AcDbEntity
  8
0
  6
Continuous
 62
     7
370
     0
100
AcDbCircle
 10
245.7106322783
 20
64.2356744689
 30
0.0
 40
11.26532083016683
100
AcDbArc
 50
153.4349488229
 51
206.5650511771
  0
ARC
  5
15D
330
159
100
AcDbEntity
  8
0
  6
Continuous
 62
     7
370
     0
100
AcDbCircle
 10
239.7453493103
 20
64.2356744689
 30
0.0
 40
11.26532083016683
100
AcDbArc
 50
333.4349488229
 51
26.5650511771
  0
SOLID
  5
15E
330
159
100
AcDbEntity
  8
0
  6
Continuous
 62
     7
370
     0
100
AcDbTrace
 10
242.7279907943
 20
76.1966685714
 30
0.0
 11
242.2199907943
 21
72.8946685714
 31
0.0
 12
243.2359907943
 22
72.8946685714
 32
0.0
 13
243.2359907943
 23
72.8946685714
 33
0.0
  0
SOLID
  5
15F
330
159
100
AcDbEntity
  8
0
  6
Continuous
 62
     7
370
     0
100
AcDbTrace
 10
242.7279907943
 20
51.1966685714
 30
0.0
 11
243.2359907943
 21
54.4986685714
 31
0.0
 12
242.2199907943
 22
54.4986685714
 32
0.0
 13
242.2199907943
 23
54.4986685714
 33
0.0
  0
LINE
  5
160
330
159
100
AcDbEntity
  8
0
  6
Continuous
 62
     7
370
     0
100
AcDbLine
 10
238.5104418284
 20
68.8958287544
 30
0.0
 11
238.5104418284
 21
64.6135248164
 31
0.0
  0
LINE
  5
161
330
159
100
AcDbEntity
  8
0
  6
Continuous
 62
     7
370
     0
100
AcDbLine
 10
238.5104418284
 20
64.6135248164
 30
0.0
 11
239.1546012364
 21
64.6135248164
 31
0.0
  0
LINE
  5
162
330
159
100
AcDbEntity
  8
0
  6
Continuous
 62
     7
370
     0
100
AcDbLine
 10
238.5104418284
 20
68.8958287544
 30
0.0
 11
239.1546012364
 21
68.8958287544
 31
0.0
  0
LINE
  5
163
330
159
100
AcDbEntity
  8
0
  6
Continuous
 62
     7
370
     0
100
AcDbLine
 10
246.9455397602
 20
68.8958287544
 30
0.0
 11
246.9455397602
 21
64.6135248164
 31
0.0
  0
LINE
  5
164
330
159
100
AcDbEntity
  8
0
  6
Continuous
 62
     7
370
     0
100
AcDbLine
 10
246.9455397602
 20
64.6135248164
 30
0.0
 11
246.3013803522
 21
64.6135248164
 31
0.0
  0
LINE
  5
165
330
159
100
AcDbEntity
  8
0
  6
Continuous
 62
     7
370
     0
100
AcDbLine
 10
246.9455397602
 20
68.8958287544
 30
0.0
 11
246.3013803522
 21
68.8958287544
 31
0.0
  0
LINE
  5
166
330
159
100
AcDbEntity
  8
0
  6
Continuous
 62
     7
370
     0
100
AcDbLine
 10
212.392406428
 20
76.1966685714
 30
0.0
 11
245.9029907943
 21
76.1966685714
 31
0.0
  0
LINE
  5
167
330
159
100
AcDbEntity
  8
0
  6
Continuous
 62
     7
370
     0
100
AcDbLine
 10
212.392406428
 20
51.1966685714
 30
0.0
 11
245.9029907943
 21
51.1966685714
 31
0.0
  0
LINE
  5
168
330
159
100
AcDbEntity
  8
0
  6
Continuous
 62
     7
370
     0
100
AcDbLine
 10
242.7279907943
 20
76.1966685714
 30
0.0
 11
242.7279907943
 21
69.2736791019
 31
0.0
  0
LINE
  5
169
330
159
100
AcDbEntity
  8
0
  6
Continuous
 62
     7
370
     0
100
AcDbLine
 10
242.7279907943
 20
51.1966685714
 30
0.0
 11
242.7279907943
 21
59.197669836
 31
0.0
  0
MTEXT
  5
16A
330
159
100
AcDbEntity
  8
0
  6
Continuous
 62
     7
370
     0
100
AcDbMText
 10
240.3852847369
 20
63.290460259
 30
0.0
 40
3.175
 41
0.0
 71
     1
 72
     1
  1
25
  7
SLDTEXTSTYLE0
 73
     1
 44
1.0
  0
MTEXT
  5
16B
330
159
100
AcDbEntity
  8
0
  6
Continuous
 62
     7
370
     0
100
AcDbMText
 10
239.7987606443
 20
68.328464892
 30
0.0
 40
3.175
 41
0.0
 71
     1
 72
     1
  1
.98
  7
SLDTEXTSTYLE0
 73
     1
 44
1.0
  0
ENDBLK
  5
15B
330
159
100
AcDbEntity
  8
0
100
AcDbBlockEnd
  0
BLOCK
  5
16F
330
16E
100
AcDbEntity
  8
0
100
AcDbBlockBegin
  2
*D12
 70
     1
 10
0.0
 20
0.0
 30
0.0
  3
*D12
  1

  0
SOLID
  5
171
330
16E
100
AcDbEntity
  8
0
  6
Continuous
 62
     7
370
     0
100
AcDbTrace
 10
218.528797978
 20
91.8843562309
 30
0.0
 11
218.1653828959
 21
95.2053797897
 31
0.0
 12
217.1839614832
 22
94.9425718547
 32
0.0
 13
217.1839614832
 23
94.9425718547
 33
0.0
  0
LINE
  5
172
330
16E
100
AcDbEntity
  8
0
  6
Continuous
 62
     7
370
     0
100
AcDbLine
 10
218.528797978
 20
91.8843562309
 30
0.0
 11
198.3584319647
 21
167.2079156746
 31
0.0
  0
LINE
  5
173
330
16E
100
AcDbEntity
  8
0
  6
Continuous
 62
     7
370
     0
100
AcDbLine
 10
198.3584319647
 20
167.2079156746
 30
0.0
 11
192.0084319647
 21
167.2079156746
 31
0.0
  0
INSERT
  5
17A
330
16E
100
AcDbEntity
  8
0
  6
Continuous
 62
     7
370
     0
100
AcDbBlockReference
  2
SW_SYMBOL_HOLE_SPOT
 10
138.414369221
 20
162.5627298092
 30
0.0
 41
0.0040555664
 42
0.0040555664
 43
0.0040555664
  0
MTEXT
  5
17B
330
16E
100
AcDbEntity
  8
0
  6
Continuous
 62
     7
370
     0
100
AcDbMText
 10
146.9829001233
 20
166.2152366798
 30
0.0
 40
3.175
 41
0.0
 71
     1
 72
     1
  1
%%c
  7
SLDTEXTSTYLE0
 73
     1
 44
1.0
  0
MTEXT
  5
17C
330
16E
100
AcDbEntity
  8
0
  6
Continuous
 62
     7
370
     0
100
AcDbMText
 10
151.7711964205
 20
166.2637436266
 30
0.0
 40
3.175
 41
0.0
 71
     1
 72
     1
  1
 
  7
SLDTEXTSTYLE0
 73
     1
 44
1.0
  0
MTEXT
  5
17D
330
16E
100
AcDbEntity
  8
0
  6
Continuous
 62
     7
370
     0
100
AcDbMText
 10
152.9384687146
 20
166.2152370873
 30
0.0
 40
3.175
 41
0.0
 71
     1
 72
     1
  1
11[0.43]
  7
SLDTEXTSTYLE0
 73
     1
 44
1.0
  0
MTEXT
  5
17E
330
16E
100
AcDbEntity
  8
0
  6
Continuous
 62
     7
370
     0
100
AcDbMText
 10
170.0798895921
 20
166.2637436266
 30
0.0
 40
3.175
 41
0.0
 71
     1
 72
     1
  1
 
  7
SLDTEXTSTYLE0
 73
     1
 44
1.0
  0
INSERT
  5
186
330
16E
100
AcDbEntity
  8
0
  6
Continuous
 62
     7
370
     0
100
AcDbBlockReference
  2
SW_SYMBOL_HOLE_DEPTH
 10
171.2528757065
 20
162.5627298092
 30
0.0
 41
0.0040555664
 42
0.0040555664
 43
0.0040555664
  0
MTEXT
  5
187
330
16E
100
AcDbEntity
  8
0
  6
Continuous
 62
     7
370
     0
100
AcDbMText
 10
175.7891568135
 20
166.2637436266
 30
0.0
 40
3.175
 41
0.0
 71
     1
 72
     1
  1
 
  7
SLDTEXTSTYLE0
 73
     1
 44
1.0
  0
MTEXT
  5
188
330
16E
100
AcDbEntity
  8
0
  6
Continuous
 62
     7
370
     0
100
AcDbMText
 10
176.9554436941
 20
166.2152370873
 30
0.0
 40
3.175
 41
0.0
 71
     1
 72
     1
  1
6[0.24]
  7
SLDTEXTSTYLE0
 73
     1
 44
1.0
  0
MTEXT
  5
189
330
16E
100
AcDbEntity
  8
0
  6
Continuous
 62
     7
370
     0
100
AcDbMText
 10
137.9668479481
 20
171.2532417202
 30
0.0
 40
3.175
 41
0.0
 71
     1
 72
     1
  1
4
  7
SLDTEXTSTYLE0
 73
     1
 44
1.0
  0
MTEXT
  5
18A
330
16E
100
AcDbEntity
  8
0
  6
Continuous
 62
     7
370
     0
100
AcDbMText
 10
140.4892405772
 20
171.3017482595
 30
0.0
 40
3.175
 41
0.0
 71
     1
 72
     1
  1
X 
  7
SLDTEXTSTYLE0
 73
     1
 44
1.0
  0
MTEXT
  5
18B
330
16E
100
AcDbEntity
  8
0
  6
Continuous
 62
     7
370
     0
100
AcDbMText
 10
144.2419140877
 20
171.2532413127
 30
0.0
 40
3.175
 41
0.0
 71
     1
 72
     1
  1
%%c
  7
SLDTEXTSTYLE0
 73
     1
 44
1.0
  0
MTEXT
  5
18C
330
16E
100
AcDbEntity
  8
0
  6
Continuous
 62
     7
370
     0
100
AcDbMText
 10
149.0302108505
 20
171.3017482595
 30
0.0
 40
3.175
 41
0.0
 71
     1
 72
     1
  1
 
  7
SLDTEXTSTYLE0
 73
     1
 44
1.0
  0
MTEXT
  5
18D
330
16E
100
AcDbEntity
  8
0
  6
Continuous
 62
     7
370
     0
100
AcDbMText
 10
150.1990960743
 20
171.2532417202
 30
0.0
 40
3.175
 41
0.0
 71
     1
 72
     1
  1
6.60[0.26]
  7
SLDTEXTSTYLE0
 73
     1
 44
1.0
  0
MTEXT
  5
18E
330
16E
100
AcDbEntity
  8
0
  6
Continuous
 62
     7
370
     0
100
AcDbMText
 10
171.1376671463
 20
171.2532417202
 30
0.0
 40
3.175
 41
0.0
 71
     1
 72
     1
  1
 
  7
SLDTEXTSTYLE0
 73
     1
 44
1.0
  0
MTEXT
  5
18F
330
16E
100
AcDbEntity
  8
0
  6
Continuous
 62
     7
370
     0
100
AcDbMText
 10
172.303934706
 20
171.2532417202
 30
0.0
 40
3.175
 41
0.0
 71
     1
 72
     1
  1
THRU ALL
  7
SLDTEXTSTYLE0
 73
     1
 44
1.0
  0
ENDBLK
  5
170
330
16E
100
AcDbEntity
  8
0
100
AcDbBlockEnd
  0
BLOCK
  5
175
330
174
100
AcDbEntity
  8
0
100
AcDbBlockBegin
  2
SW_SYMBOL_HOLE_SPOT
 70
     0
 10
0.0
 20
0.0
 30
0.0
  3
SW_SYMBOL_HOLE_SPOT
  1

  0
LINE
  5
177
330
174
100
AcDbEntity
  8
0
  6
Continuous
 62
     0
370
     0
100
AcDbLine
 10
0.0
 20
875.0
 30
0.0
 11
0.0
 21
75.0
 31
0.0
  0
LINE
  5
178
330
174
100
AcDbEntity
  8
0
  6
Continuous
 62
     0
370
     0
100
AcDbLine
 10
0.0
 20
75.0
 30
0.0
 11
1600.0
 21
75.0
 31
0.0
  0
LINE
  5
179
330
174
100
AcDbEntity
  8
0
  6
Continuous
 62
     0
370
     0
100
AcDbLine
 10
1600.0
 20
75.0
 30
0.0
 11
1600.0
 21
875.0
 31
0.0
  0
ENDBLK
  5
176
330
174
100
AcDbEntity
  8
0
100
AcDbBlockEnd
  0
BLOCK
  5
180
330
17F
100
AcDbEntity
  8
0
100
AcDbBlockBegin
  2
SW_SYMBOL_HOLE_DEPTH
 70
     0
 10
0.0
 20
0.0
 30
0.0
  3
SW_SYMBOL_HOLE_DEPTH
  1

  0
LINE
  5
182
330
17F
100
AcDbEntity
  8
0
  6
Continuous
 62
     0
370
     0
100
AcDbLine
 10
0.0
 20
875.0
 30
0.0
 11
800.0
 21
875.0
 31
0.0
  0
LINE
  5
183
330
17F
100
AcDbEntity
  8
0
  6
Continuous
 62
     0
370
     0
100
AcDbLine
 10
400.0
 20
875.0
 30
0.0
 11
400.0
 21
75.0
 31
0.0
  0
LINE
  5
184
330
17F
100
AcDbEntity
  8
0
  6
Continuous
 62
     0
370
     0
100
AcDbLine
 10
100.0
 20
555.0
 30
0.0
 11
400.0
 21
75.0
 31
0.0
  0
LINE
  5
185
330
17F
100
AcDbEntity
  8
0
  6
Continuous
 62
     0
370
     0
100
AcDbLine
 10
700.0
 20
555.0
 30
0.0
 11
400.0
 21
75.0
 31
0.0
  0
ENDBLK
  5
181
330
17F
100
AcDbEntity
  8
0
100
AcDbBlockEnd
  0
BLOCK
  5
192
330
191
100
AcDbEntity
  8
0
100
AcDbBlockBegin
  2
*D15
 70
     1
 10
0.0
 20
0.0
 30
0.0
  3
*D15
  1

  0
SOLID
  5
194
330
191
100
AcDbEntity
  8
0
  6
Continuous
 62
     7
370
     0
100
AcDbTrace
 10
206.4424895445
 20
77.8387627026
 30
0.0
 11
206.0787120559
 21
81.1597465837
 31
0.0
 12
205.0973193281
 22
80.8968315522
 32
0.0
 13
205.0973193281
 23
80.8968315522
 33
0.0
  0
LINE
  5
195
330
191
100
AcDbEntity
  8
0
  6
Continuous
 62
     7
370
     0
100
AcDbLine
 10
206.4424895445
 20
77.8387627026
 30
0.0
 11
189.051206269
 21
142.7558533423
 31
0.0
  0
LINE
  5
196
330
191
100
AcDbEntity
  8
0
  6
Continuous
 62
     7
370
     0
100
AcDbLine
 10
189.051206269
 20
142.7558533423
 30
0.0
 11
182.701206269
 21
142.7558533423
 31
0.0
  0
INSERT
  5
197
330
191
100
AcDbEntity
  8
0
  6
Continuous
 62
     7
370
     0
100
AcDbBlockReference
  2
SW_SYMBOL_HOLE_SPOT
 10
125.7575146038
 20
138.1106674769
 30
0.0
 41
0.0040555664
 42
0.0040555664
 43
0.0040555664
  0
MTEXT
  5
198
330
191
100
AcDbEntity
  8
0
  6
Continuous
 62
     7
370
     0
100
AcDbMText
 10
134.326045506
 20
141.7631743476
 30
0.0
 40
3.175
 41
0.0
 71
     1
 72
     1
  1
%%c
  7
SLDTEXTSTYLE0
 73
     1
 44
1.0
  0
MTEXT
  5
199
330
191
100
AcDbEntity
  8
0
  6
Continuous
 62
     7
370
     0
100
AcDbMText
 10
139.1143418032
 20
141.8116812943
 30
0.0
 40
3.175
 41
0.0
 71
     1
 72
     1
  1
 
  7
SLDTEXTSTYLE0
 73
     1
 44
1.0
  0
MTEXT
  5
19A
330
191
100
AcDbEntity
  8
0
  6
Continuous
 62
     7
370
     0
100
AcDbMText
 10
140.2816140973
 20
141.763174755
 30
0.0
 40
3.175
 41
0.0
 71
     1
 72
     1
  1
6.50[0.26]
  7
SLDTEXTSTYLE0
 73
     1
 44
1.0
  0
MTEXT
  5
19B
330
191
100
AcDbEntity
  8
0
  6
Continuous
 62
     7
370
     0
100
AcDbMText
 10
161.2201851693
 20
141.8116812943
 30
0.0
 40
3.175
 41
0.0
 71
     1
 72
     1
  1
 
  7
SLDTEXTSTYLE0
 73
     1
 44
1.0
  0
INSERT
  5
19C
330
191
100
AcDbEntity
  8
0
  6
Continuous
 62
     7
370
     0
100
AcDbBlockReference
  2
SW_SYMBOL_HOLE_DEPTH
 10
162.3931712837
 20
138.1106674769
 30
0.0
 41
0.0040555664
 42
0.0040555664
 43
0.0040555664
  0
MTEXT
  5
19D
330
191
100
AcDbEntity
  8
0
  6
Continuous
 62
     7
370
     0
100
AcDbMText
 10
166.9294523907
 20
141.8116812943
 30
0.0
 40
3.175
 41
0.0
 71
     1
 72
     1
  1
 
  7
SLDTEXTSTYLE0
 73
     1
 44
1.0
  0
MTEXT
  5
19E
330
191
100
AcDbEntity
  8
0
  6
Continuous
 62
     7
370
     0
100
AcDbMText
 10
168.0957392713
 20
141.763174755
 30
0.0
 40
3.175
 41
0.0
 71
     1
 72
     1
  1
3[0.12]
  7
SLDTEXTSTYLE0
 73
     1
 44
1.0
  0
MTEXT
  5
19F
330
191
100
AcDbEntity
  8
0
  6
Continuous
 62
     7
370
     0
100
AcDbMText
 10
127.2085684281
 20
146.8011793879
 30
0.0
 40
3.175
 41
0.0
 71
     1
 72
     1
  1
4
  7
SLDTEXTSTYLE0
 73
     1
 44
1.0
  0
MTEXT
  5
1A0
330
191
100
AcDbEntity
  8
0
  6
Continuous
 62
     7
370
     0
100
AcDbMText
 10
129.7309610572
 20
146.8496859272
 30
0.0
 40
3.175
 41
0.0
 71
     1
 72
     1
  1
X 
  7
SLDTEXTSTYLE0
 73
     1
 44
1.0
  0
MTEXT
  5
1A1
330
191
100
AcDbEntity
  8
0
  6
Continuous
 62
     7
370
     0
100
AcDbMText
 10
133.4836345677
 20
146.8011789805
 30
0.0
 40
3.175
 41
0.0
 71
     1
 72
     1
  1
%%c
  7
SLDTEXTSTYLE0
 73
     1
 44
1.0
  0
MTEXT
  5
1A2
330
191
100
AcDbEntity
  8
0
  6
Continuous
 62
     7
370
     0
100
AcDbMText
 10
138.2719313305
 20
146.8496859272
 30
0.0
 40
3.175
 41
0.0
 71
     1
 72
     1
  1
 
  7
SLDTEXTSTYLE0
 73
     1
 44
1.0
  0
MTEXT
  5
1A3
330
191
100
AcDbEntity
  8
0
  6
Continuous
 62
     7
370
     0
100
AcDbMText
 10
139.4408165543
 20
146.8011793879
 30
0.0
 40
3.175
 41
0.0
 71
     1
 72
     1
  1
3.40[0.13]
  7
SLDTEXTSTYLE0
 73
     1
 44
1.0
  0
MTEXT
  5
1A4
330
191
100
AcDbEntity
  8
0
  6
Continuous
 62
     7
370
     0
100
AcDbMText
 10
160.3793876262
 20
146.8011793879
 30
0.0
 40
3.175
 41
0.0
 71
     1
 72
     1
  1
 
  7
SLDTEXTSTYLE0
 73
     1
 44
1.0
  0
MTEXT
  5
1A5
330
191
100
AcDbEntity
  8
0
  6
Continuous
 62
     7
370
     0
100
AcDbMText
 10
161.5456551859
 20
146.8011793879
 30
0.0
 40
3.175
 41
0.0
 71
     1
 72
     1
  1
THRU ALL
  7
SLDTEXTSTYLE0
 73
     1
 44
1.0
  0
ENDBLK
  5
193
330
191
100
AcDbEntity
  8
0
100
AcDbBlockEnd
  0
BLOCK
  5
1A8
330
1A7
100
AcDbEntity
  8
0
100
AcDbBlockBegin
  2
*D16
 70
     1
 10
0.0
 20
0.0
 30
0.0
  3
*D16
  1

  0
ARC
  5
1AA
330
1A7
100
AcDbEntity
  8
0
  6
Continuous
 62
     7
370
     0
100
AcDbCircle
 10
268.3836849076
 20
98.3023133445
 30
0.0
 40
11.2653208301668
100
AcDbArc
 50
153.4349488229
 51
206.5650511771
  0
ARC
  5
1AB
330
1A7
100
AcDbEntity
  8
0
  6
Continuous
 62
     7
370
     0
100
AcDbCircle
 10
262.4184019397
 20
98.3023133445
 30
0.0
 40
11.2653208301668
100
AcDbArc
 50
333.4349488229
 51
26.5650511771
  0
SOLID
  5
1AC
330
1A7
100
AcDbEntity
  8
0
  6
Continuous
 62
     7
370
     0
100
AcDbTrace
 10
246.5052191939
 20
88.6966685714
 30
0.0
 11
247.0132191939
 21
91.9986685714
 31
0.0
 12
245.9972191939
 22
91.9986685714
 32
0.0
 13
245.9972191939
 23
91.9986685714
 33
0.0
  0
SOLID
  5
1AD
330
1A7
100
AcDbEntity
  8
0
  6
Continuous
 62
     7
370
     0
100
AcDbTrace
 10
246.5052191939
 20
93.6966685714
 30
0.0
 11
245.9972191939
 21
90.3946685714
 31
0.0
 12
247.0132191939
 22
90.3946685714
 32
0.0
 13
247.0132191939
 23
90.3946685714
 33
0.0
  0
LINE
  5
1AE
330
1A7
100
AcDbEntity
  8
0
  6
Continuous
 62
     7
370
     0
100
AcDbLine
 10
261.1834944577
 20
102.9624676299
 30
0.0
 11
261.1834944577
 21
98.680163692
 31
0.0
  0
LINE
  5
1AF
330
1A7
100
AcDbEntity
  8
0
  6
Continuous
 62
     7
370
     0
100
AcDbLine
 10
261.1834944577
 20
98.680163692
 30
0.0
 11
261.8276538657
 21
98.680163692
 31
0.0
  0
LINE
  5
1B0
330
1A7
100
AcDbEntity
  8
0
  6
Continuous
 62
     7
370
     0
100
AcDbLine
 10
261.1834944577
 20
102.9624676299
 30
0.0
 11
261.8276538657
 21
102.9624676299
 31
0.0
  0
LINE
  5
1B1
330
1A7
100
AcDbEntity
  8
0
  6
Continuous
 62
     7
370
     0
100
AcDbLine
 10
269.6185923896
 20
102.9624676299
 30
0.0
 11
269.6185923896
 21
98.680163692
 31
0.0
  0
LINE
  5
1B2
330
1A7
100
AcDbEntity
  8
0
  6
Continuous
 62
     7
370
     0
100
AcDbLine
 10
269.6185923896
 20
98.680163692
 30
0.0
 11
268.9744329816
 21
98.680163692
 31
0.0
  0
LINE
  5
1B3
330
1A7
100
AcDbEntity
  8
0
  6
Continuous
 62
     7
370
     0
100
AcDbLine
 10
269.6185923896
 20
102.9624676299
 30
0.0
 11
268.9744329816
 21
102.9624676299
 31
0.0
  0
LINE
  5
1B4
330
1A7
100
AcDbEntity
  8
0
  6
Continuous
 62
     7
370
     0
100
AcDbLine
 10
226.492406428
 20
88.6966685714
 30
0.0
 11
249.6802191939
 21
88.6966685714
 31
0.0
  0
LINE
  5
1B5
330
1A7
100
AcDbEntity
  8
0
  6
Continuous
 62
     7
370
     0
100
AcDbLine
 10
225.652406428
 20
93.6966685714
 30
0.0
 11
249.6802191939
 21
93.6966685714
 31
0.0
  0
LINE
  5
1B6
330
1A7
100
AcDbEntity
  8
0
  6
Continuous
 62
     7
370
     0
100
AcDbLine
 10
252.8552191939
 20
98.3023133445
 30
0.0
 11
246.5052191939
 21
98.3023133445
 31
0.0
  0
LINE
  5
1B7
330
1A7
100
AcDbEntity
  8
0
  6
Continuous
 62
     7
370
     0
100
AcDbLine
 10
246.5052191939
 20
98.3023133445
 30
0.0
 11
246.5052191939
 21
93.6966685714
 31
0.0
  0
LINE
  5
1B8
330
1A7
100
AcDbEntity
  8
0
  6
Continuous
 62
     7
370
     0
100
AcDbLine
 10
246.5052191939
 20
88.6966685714
 30
0.0
 11
246.5052191939
 21
93.6966685714
 31
0.0
  0
MTEXT
  5
1B9
330
1A7
100
AcDbEntity
  8
0
  6
Continuous
 62
     7
370
     0
100
AcDbMText
 10
264.2313855513
 20
97.3570991346
 30
0.0
 40
3.175
 41
0.0
 71
     1
 72
     1
  1
5
  7
SLDTEXTSTYLE0
 73
     1
 44
1.0
  0
MTEXT
  5
1BA
330
1A7
100
AcDbEntity
  8
0
  6
Continuous
 62
     7
370
     0
100
AcDbMText
 10
262.4718132737
 20
102.3951037675
 30
0.0
 40
3.175
 41
0.0
 71
     1
 72
     1
  1
.20
  7
SLDTEXTSTYLE0
 73
     1
 44
1.0
  0
ENDBLK
  5
1A9
330
1A7
100
AcDbEntity
  8
0
100
AcDbBlockEnd
  0
BLOCK
  5
1BD
330
1BC
100
AcDbEntity
  8
0
100
AcDbBlockBegin
  2
*D17
 70
     1
 10
0.0
 20
0.0
 30
0.0
  3
*D17
  1

  0
ARC
  5
1BF
330
1BC
100
AcDbEntity
  8
0
  6
Continuous
 62
     7
370
     0
100
AcDbCircle
 10
270.2909365303
 20
25.5467099175
 30
0.0
 40
11.26532083016682
100
AcDbArc
 50
153.4349488229
 51
206.5650511771
  0
ARC
  5
1C0
330
1BC
100
AcDbEntity
  8
0
  6
Continuous
 62
     7
370
     0
100
AcDbCircle
 10
264.3256535623
 20
25.5467099175
 30
0.0
 40
11.26532083016687
100
AcDbArc
 50
333.4349488229
 51
26.5650511771
  0
SOLID
  5
1C1
330
1BC
100
AcDbEntity
  8
0
  6
Continuous
 62
     7
370
     0
100
AcDbTrace
 10
248.4124708166
 20
51.1966685714
 30
0.0
 11
247.9044708166
 21
47.8946685714
 31
0.0
 12
248.9204708166
 22
47.8946685714
 32
0.0
 13
248.9204708166
 23
47.8946685714
 33
0.0
  0
SOLID
  5
1C2
330
1BC
100
AcDbEntity
  8
0
  6
Continuous
 62
     7
370
     0
100
AcDbTrace
 10
248.4124708166
 20
33.6966685714
 30
0.0
 11
248.9204708166
 21
36.9986685714
 31
0.0
 12
247.9044708166
 22
36.9986685714
 32
0.0
 13
247.9044708166
 23
36.9986685714
 33
0.0
  0
LINE
  5
1C3
330
1BC
100
AcDbEntity
  8
0
  6
Continuous
 62
     7
370
     0
100
AcDbLine
 10
263.0907460804
 20
30.2068642029
 30
0.0
 11
263.0907460804
 21
25.9245602649
 31
0.0
  0
LINE
  5
1C4
330
1BC
100
AcDbEntity
  8
0
  6
Continuous
 62
     7
370
     0
100
AcDbLine
 10
263.0907460804
 20
25.9245602649
 30
0.0
 11
263.7349054884
 21
25.9245602649
 31
0.0
  0
LINE
  5
1C5
330
1BC
100
AcDbEntity
  8
0
  6
Continuous
 62
     7
370
     0
100
AcDbLine
 10
263.0907460804
 20
30.2068642029
 30
0.0
 11
263.7349054884
 21
30.2068642029
 31
0.0
  0
LINE
  5
1C6
330
1BC
100
AcDbEntity
  8
0
  6
Continuous
 62
     7
370
     0
100
AcDbLine
 10
271.5258440122
 20
30.2068642029
 30
0.0
 11
271.5258440122
 21
25.9245602649
 31
0.0
  0
LINE
  5
1C7
330
1BC
100
AcDbEntity
  8
0
  6
Continuous
 62
     7
370
     0
100
AcDbLine
 10
271.5258440122
 20
25.9245602649
 30
0.0
 11
270.8816846042
 21
25.9245602649
 31
0.0
  0
LINE
  5
1C8
330
1BC
100
AcDbEntity
  8
0
  6
Continuous
 62
     7
370
     0
100
AcDbLine
 10
271.5258440122
 20
30.2068642029
 30
0.0
 11
270.8816846042
 21
30.2068642029
 31
0.0
  0
LINE
  5
1C9
330
1BC
100
AcDbEntity
  8
0
  6
Continuous
 62
     7
370
     0
100
AcDbLine
 10
212.392406428
 20
51.1966685714
 30
0.0
 11
251.5874708166
 21
51.1966685714
 31
0.0
  0
LINE
  5
1CA
330
1BC
100
AcDbEntity
  8
0
  6
Continuous
 62
     7
370
     0
100
AcDbLine
 10
225.652406428
 20
33.6966685714
 30
0.0
 11
251.5874708166
 21
33.6966685714
 31
0.0
  0
LINE
  5
1CB
330
1BC
100
AcDbEntity
  8
0
  6
Continuous
 62
     7
370
     0
100
AcDbLine
 10
254.7624708166
 20
25.5467099175
 30
0.0
 11
248.4124708166
 21
25.5467099175
 31
0.0
  0
LINE
  5
1CC
330
1BC
100
AcDbEntity
  8
0
  6
Continuous
 62
     7
370
     0
100
AcDbLine
 10
248.4124708166
 20
25.5467099175
 30
0.0
 11
248.4124708166
 21
33.6966685714
 31
0.0
  0
LINE
  5
1CD
330
1BC
100
AcDbEntity
  8
0
  6
Continuous
 62
     7
370
     0
100
AcDbLine
 10
248.4124708166
 20
51.1966685714
 30
0.0
 11
248.4124708166
 21
33.6966685714
 31
0.0
  0
MTEXT
  5
1CE
330
1BC
100
AcDbEntity
  8
0
  6
Continuous
 62
     7
370
     0
100
AcDbMText
 10
263.2060167113
 20
24.6014957076
 30
0.0
 40
3.175
 41
0.0
 71
     1
 72
     1
  1
17.5
  7
SLDTEXTSTYLE0
 73
     1
 44
1.0
  0
MTEXT
  5
1CF
330
1BC
100
AcDbEntity
  8
0
  6
Continuous
 62
     7
370
     0
100
AcDbMText
 10
264.3790648963
 20
29.6395003405
 30
0.0
 40
3.175
 41
0.0
 71
     1
 72
     1
  1
.69
  7
SLDTEXTSTYLE0
 73
     1
 44
1.0
  0
ENDBLK
  5
1BE
330
1BC
100
AcDbEntity
  8
0
100
AcDbBlockEnd
  0
BLOCK
  5
1D1
330
1D0
100
AcDbEntity
  8
0
100
AcDbBlockBegin
  2
SW_CENTERMARKSYMBOL_2
 70
     0
 10
0.0
 20
0.0
 30
0.0
  3
SW_CENTERMARKSYMBOL_2
  1

  0
LINE
  5
1D3
330
1D0
100
AcDbEntity
  8
0
  6
Continuous
 62
     0
370
     0
100
AcDbLine
 10
0.0
 20
0.0
 30
0.0
 11
2.54
 21
0.0
 31
0.0
  0
LINE
  5
1D4
330
1D0
100
AcDbEntity
  8
0
  6
Continuous
 62
     0
370
     0
100
AcDbLine
 10
0.0
 20
0.0
 30
0.0
 11
0.0
 21
2.54
 31
0.0
  0
LINE
  5
1D5
330
1D0
100
AcDbEntity
  8
0
  6
Continuous
 62
     0
370
     0
100
AcDbLine
 10
0.0
 20
0.0
 30
0.0
 11
-2.54
 21
0.0
 31
0.0
  0
LINE
  5
1D6
330
1D0
100
AcDbEntity
  8
0
  6
Continuous
 62
     0
370
     0
100
AcDbLine
 10
0.0
 20
0.0
 30
0.0
 11
0.0
 21
-2.54
 31
0.0
  0
LINE
  5
1D7
330
1D0
100
AcDbEntity
  8
0
  6
Continuous
 62
     0
370
     0
100
AcDbLine
 10
0.0
 20
2.54
 30
0.0
 11
0.0
 21
4.24
 31
0.0
  0
LINE
  5
1D8
330
1D0
100
AcDbEntity
  8
0
  6
Continuous
 62
     0
370
     0
100
AcDbLine
 10
-2.54
 20
0.0
 30
0.0
 11
-4.24
 21
0.0
 31
0.0
  0
LINE
  5
1D9
330
1D0
100
AcDbEntity
  8
0
  6
Continuous
 62
     0
370
     0
100
AcDbLine
 10
0.0
 20
-25.0
 30
0.0
 11
2.54
 21
-25.0
 31
0.0
  0
LINE
  5
1DA
330
1D0
100
AcDbEntity
  8
0
  6
Continuous
 62
     0
370
     0
100
AcDbLine
 10
0.0
 20
-25.0
 30
0.0
 11
0.0
 21
-22.46
 31
0.0
  0
LINE
  5
1DB
330
1D0
100
AcDbEntity
  8
0
  6
Continuous
 62
     0
370
     0
100
AcDbLine
 10
0.0
 20
-25.0
 30
0.0
 11
-2.54
 21
-25.0
 31
0.0
  0
LINE
  5
1DC
330
1D0
100
AcDbEntity
  8
0
  6
Continuous
 62
     0
370
     0
100
AcDbLine
 10
0.0
 20
-25.0
 30
0.0
 11
0.0
 21
-27.54
 31
0.0
  0
LINE
  5
1DD
330
1D0
100
AcDbEntity
  8
0
  6
Continuous
 62
     0
370
     0
100
AcDbLine
 10
-2.54
 20
-25.0
 30
0.0
 11
-4.24
 21
-25.0
 31
0.0
  0
LINE
  5
1DE
330
1D0
100
AcDbEntity
  8
0
  6
Continuous
 62
     0
370
     0
100
AcDbLine
 10
0.0
 20
-27.54
 30
0.0
 11
0.0
 21
-29.24
 31
0.0
  0
LINE
  5
1DF
330
1D0
100
AcDbEntity
  8
0
  6
Continuous
 62
     0
370
     0
100
AcDbLine
 10
25.0
 20
-25.0
 30
0.0
 11
27.54
 21
-25.0
 31
0.0
  0
LINE
  5
1E0
330
1D0
100
AcDbEntity
  8
0
  6
Continuous
 62
     0
370
     0
100
AcDbLine
 10
25.0
 20
-25.0
 30
0.0
 11
25.0
 21
-22.46
 31
0.0
  0
LINE
  5
1E1
330
1D0
100
AcDbEntity
  8
0
  6
Continuous
 62
     0
370
     0
100
AcDbLine
 10
25.0
 20
-25.0
 30
0.0
 11
22.46
 21
-25.0
 31
0.0
  0
LINE
  5
1E2
330
1D0
100
AcDbEntity
  8
0
  6
Continuous
 62
     0
370
     0
100
AcDbLine
 10
25.0
 20
-25.0
 30
0.0
 11
25.0
 21
-27.54
 31
0.0
  0
LINE
  5
1E3
330
1D0
100
AcDbEntity
  8
0
  6
Continuous
 62
     0
370
     0
100
AcDbLine
 10
27.54
 20
-25.0
 30
0.0
 11
29.24
 21
-25.0
 31
0.0
  0
LINE
  5
1E4
330
1D0
100
AcDbEntity
  8
0
  6
Continuous
 62
     0
370
     0
100
AcDbLine
 10
25.0
 20
-27.54
 30
0.0
 11
25.0
 21
-29.24
 31
0.0
  0
LINE
  5
1E5
330
1D0
100
AcDbEntity
  8
0
  6
Continuous
 62
     0
370
     0
100
AcDbLine
 10
25.0
 20
0.0
 30
0.0
 11
27.54
 21
0.0
 31
0.0
  0
LINE
  5
1E6
330
1D0
100
AcDbEntity
  8
0
  6
Continuous
 62
     0
370
     0
100
AcDbLine
 10
25.0
 20
0.0
 30
0.0
 11
25.0
 21
2.54
 31
0.0
  0
LINE
  5
1E7
330
1D0
100
AcDbEntity
  8
0
  6
Continuous
 62
     0
370
     0
100
AcDbLine
 10
25.0
 20
0.0
 30
0.0
 11
22.46
 21
0.0
 31
0.0
  0
LINE
  5
1E8
330
1D0
100
AcDbEntity
  8
0
  6
Continuous
 62
     0
370
     0
100
AcDbLine
 10
25.0
 20
0.0
 30
0.0
 11
25.0
 21
-2.54
 31
0.0
  0
LINE
  5
1E9
330
1D0
100
AcDbEntity
  8
0
  6
Continuous
 62
     0
370
     0
100
AcDbLine
 10
27.54
 20
0.0
 30
0.0
 11
29.24
 21
0.0
 31
0.0
  0
LINE
  5
1EA
330
1D0
100
AcDbEntity
  8
0
  6
Continuous
 62
     0
370
     0
100
AcDbLine
 10
25.0
 20
2.54
 30
0.0
 11
25.0
 21
4.24
 31
0.0
  0
LINE
  5
1EB
330
1D0
100
AcDbEntity
  8
0
  6
Continuous
 62
     0
370
     0
100
AcDbLine
 10
0.0
 20
-5.08
 30
0.0
 11
0.0
 21
-19.92
 31
0.0
  0
LINE
  5
1EC
330
1D0
100
AcDbEntity
  8
0
  6
Continuous
 62
     0
370
     0
100
AcDbLine
 10
25.0
 20
-5.08
 30
0.0
 11
25.0
 21
-19.92
 31
0.0
  0
LINE
  5
1ED
330
1D0
100
AcDbEntity
  8
0
  6
Continuous
 62
     0
370
     0
100
AcDbLine
 10
5.08
 20
0.0
 30
0.0
 11
19.92
 21
0.0
 31
0.0
  0
LINE
  5
1EE
330
1D0
100
AcDbEntity
  8
0
  6
Continuous
 62
     0
370
     0
100
AcDbLine
 10
5.08
 20
-25.0
 30
0.0
 11
19.92
 21
-25.0
 31
0.0
  0
ENDBLK
  5
1D2
330
1D0
100
AcDbEntity
  8
0
100
AcDbBlockEnd
  0
BLOCK
  5
1F1
330
1F0
100
AcDbEntity
  8
0
100
AcDbBlockBegin
  2
SW_CENTERMARKSYMBOL_3
 70
     0
 10
0.0
 20
0.0
 30
0.0
  3
SW_CENTERMARKSYMBOL_3
  1

  0
LINE
  5
1F3
330
1F0
100
AcDbEntity
  8
0
  6
Continuous
 62
     0
370
     0
100
AcDbLine
 10
0.0
 20
0.0
 30
0.0
 11
0.0
 21
2.54
 31
0.0
  0
LINE
  5
1F4
330
1F0
100
AcDbEntity
  8
0
  6
Continuous
 62
     0
370
     0
100
AcDbLine
 10
0.0
 20
0.0
 30
0.0
 11
-2.54
 21
0.0
 31
0.0
  0
LINE
  5
1F5
330
1F0
100
AcDbEntity
  8
0
  6
Continuous
 62
     0
370
     0
100
AcDbLine
 10
0.0
 20
0.0
 30
0.0
 11
0.0
 21
-2.54
 31
0.0
  0
LINE
  5
1F6
330
1F0
100
AcDbEntity
  8
0
  6
Continuous
 62
     0
370
     0
100
AcDbLine
 10
0.0
 20
0.0
 30
0.0
 11
2.54
 21
0.0
 31
0.0
  0
LINE
  5
1F7
330
1F0
100
AcDbEntity
  8
0
  6
Continuous
 62
     0
370
     0
100
AcDbLine
 10
0.0
 20
-5.08
 30
0.0
 11
0.0
 21
-5.84
 31
0.0
  0
LINE
  5
1F8
330
1F0
100
AcDbEntity
  8
0
  6
Continuous
 62
     0
370
     0
100
AcDbLine
 10
5.08
 20
0.0
 30
0.0
 11
5.84
 21
0.0
 31
0.0
  0
LINE
  5
1F9
330
1F0
100
AcDbEntity
  8
0
  6
Continuous
 62
     0
370
     0
100
AcDbLine
 10
50.0
 20
0.0
 30
0.0
 11
50.0
 21
2.54
 31
0.0
  0
LINE
  5
1FA
330
1F0
100
AcDbEntity
  8
0
  6
Continuous
 62
     0
370
     0
100
AcDbLine
 10
50.0
 20
0.0
 30
0.0
 11
47.46
 21
0.0
 31
0.0
  0
LINE
  5
1FB
330
1F0
100
AcDbEntity
  8
0
  6
Continuous
 62
     0
370
     0
100
AcDbLine
 10
50.0
 20
0.0
 30
0.0
 11
50.0
 21
-2.54
 31
0.0
  0
LINE
  5
1FC
330
1F0
100
AcDbEntity
  8
0
  6
Continuous
 62
     0
370
     0
100
AcDbLine
 10
50.0
 20
0.0
 30
0.0
 11
52.54
 21
0.0
 31
0.0
  0
LINE
  5
1FD
330
1F0
100
AcDbEntity
  8
0
  6
Continuous
 62
     0
370
     0
100
AcDbLine
 10
50.0
 20
5.08
 30
0.0
 11
50.0
 21
5.84
 31
0.0
  0
LINE
  5
1FE
330
1F0
100
AcDbEntity
  8
0
  6
Continuous
 62
     0
370
     0
100
AcDbLine
 10
55.08
 20
0.0
 30
0.0
 11
55.84
 21
0.0
 31
0.0
  0
LINE
  5
1FF
330
1F0
100
AcDbEntity
  8
0
  6
Continuous
 62
     0
370
     0
100
AcDbLine
 10
50.0
 20
50.0
 30
0.0
 11
50.0
 21
52.54
 31
0.0
  0
LINE
  5
200
330
1F0
100
AcDbEntity
  8
0
  6
Continuous
 62
     0
370
     0
100
AcDbLine
 10
50.0
 20
50.0
 30
0.0
 11
47.46
 21
50.0
 31
0.0
  0
LINE
  5
201
330
1F0
100
AcDbEntity
  8
0
  6
Continuous
 62
     0
370
     0
100
AcDbLine
 10
50.0
 20
50.0
 30
0.0
 11
50.0
 21
47.46
 31
0.0
  0
LINE
  5
202
330
1F0
100
AcDbEntity
  8
0
  6
Continuous
 62
     0
370
     0
100
AcDbLine
 10
50.0
 20
50.0
 30
0.0
 11
52.54
 21
50.0
 31
0.0
  0
LINE
  5
203
330
1F0
100
AcDbEntity
  8
0
  6
Continuous
 62
     0
370
     0
100
AcDbLine
 10
50.0
 20
55.08
 30
0.0
 11
50.0
 21
55.84
 31
0.0
  0
LINE
  5
204
330
1F0
100
AcDbEntity
  8
0
  6
Continuous
 62
     0
370
     0
100
AcDbLine
 10
44.92
 20
50.0
 30
0.0
 11
44.16
 21
50.0
 31
0.0
  0
LINE
  5
205
330
1F0
100
AcDbEntity
  8
0
  6
Continuous
 62
     0
370
     0
100
AcDbLine
 10
0.0
 20
50.0
 30
0.0
 11
0.0
 21
52.54
 31
0.0
  0
LINE
  5
206
330
1F0
100
AcDbEntity
  8
0
  6
Continuous
 62
     0
370
     0
100
AcDbLine
 10
0.0
 20
50.0
 30
0.0
 11
-2.54
 21
50.0
 31
0.0
  0
LINE
  5
207
330
1F0
100
AcDbEntity
  8
0
  6
Continuous
 62
     0
370
     0
100
AcDbLine
 10
0.0
 20
50.0
 30
0.0
 11
0.0
 21
47.46
 31
0.0
  0
LINE
  5
208
330
1F0
100
AcDbEntity
  8
0
  6
Continuous
 62
     0
370
     0
100
AcDbLine
 10
0.0
 20
50.0
 30
0.0
 11
2.54
 21
50.0
 31
0.0
  0
LINE
  5
209
330
1F0
100
AcDbEntity
  8
0
  6
Continuous
 62
     0
370
     0
100
AcDbLine
 10
-5.08
 20
50.0
 30
0.0
 11
-5.84
 21
50.0
 31
0.0
  0
LINE
  5
20A
330
1F0
100
AcDbEntity
  8
0
  6
Continuous
 62
     0
370
     0
100
AcDbLine
 10
0.0
 20
44.92
 30
0.0
 11
0.0
 21
44.16
 31
0.0
  0
LINE
  5
20B
330
1F0
100
AcDbEntity
  8
0
  6
Continuous
 62
     0
370
     0
100
AcDbLine
 10
0.0
 20
44.92
 30
0.0
 11
0.0
 21
5.08
 31
0.0
  0
LINE
  5
20C
330
1F0
100
AcDbEntity
  8
0
  6
Continuous
 62
     0
370
     0
100
AcDbLine
 10
50.0
 20
44.92
 30
0.0
 11
50.0
 21
5.08
 31
0.0
  0
LINE
  5
20D
330
1F0
100
AcDbEntity
  8
0
  6
Continuous
 62
     0
370
     0
100
AcDbLine
 10
5.08
 20
50.0
 30
0.0
 11
44.92
 21
50.0
 31
0.0
  0
LINE
  5
20E
330
1F0
100
AcDbEntity
  8
0
  6
Continuous
 62
     0
370
     0
100
AcDbLine
 10
5.08
 20
0.0
 30
0.0
 11
44.92
 21
0.0
 31
0.0
  0
ENDBLK
  5
1F2
330
1F0
100
AcDbEntity
  8
0
100
AcDbBlockEnd
  0
BLOCK
  5
234
330
233
100
AcDbEntity
  8
0
100
AcDbBlockBegin
  2
*D20
 70
     1
 10
0.0
 20
0.0
 30
0.0
  3
*D20
  1

  0
ARC
  5
236
330
233
100
AcDbEntity
  8
0
  6
Continuous
 62
     7
370
     0
100
AcDbCircle
 10
146.2062877719
 20
121.6966685714
 30
0.0
 40
11.26532083016685
100
AcDbArc
 50
153.4349488229
 51
206.5650511771
  0
ARC
  5
237
330
233
100
AcDbEntity
  8
0
  6
Continuous
 62
     7
370
     0
100
AcDbCircle
 10
140.2410048039
 20
121.6966685714
 30
0.0
 40
11.2653208301669
100
AcDbArc
 50
333.4349488229
 51
26.5650511771
  0
SOLID
  5
238
330
233
100
AcDbEntity
  8
0
  6
Continuous
 62
     7
370
     0
100
AcDbTrace
 10
117.2236462879
 20
121.6966685714
 30
0.0
 11
120.5256462879
 21
121.1886685714
 31
0.0
 12
120.5256462879
 22
122.2046685714
 32
0.0
 13
120.5256462879
 23
122.2046685714
 33
0.0
  0
SOLID
  5
239
330
233
100
AcDbEntity
  8
0
  6
Continuous
 62
     7
370
     0
100
AcDbTrace
 10
127.2236462879
 20
121.6966685714
 30
0.0
 11
123.9216462879
 21
122.2046685714
 31
0.0
 12
123.9216462879
 22
121.1886685714
 32
0.0
 13
123.9216462879
 23
121.1886685714
 33
0.0
  0
LINE
  5
23A
330
233
100
AcDbEntity
  8
0
  6
Continuous
 62
     7
370
     0
100
AcDbLine
 10
139.006097322
 20
126.3568228569
 30
0.0
 11
139.006097322
 21
122.0745189189
 31
0.0
  0
LINE
  5
23B
330
233
100
AcDbEntity
  8
0
  6
Continuous
 62
     7
370
     0
100
AcDbLine
 10
139.006097322
 20
122.0745189189
 30
0.0
 11
139.6502567299
 21
122.0745189189
 31
0.0
  0
LINE
  5
23C
330
233
100
AcDbEntity
  8
0
  6
Continuous
 62
     7
370
     0
100
AcDbLine
 10
139.006097322
 20
126.3568228569
 30
0.0
 11
139.6502567299
 21
126.3568228569
 31
0.0
  0
LINE
  5
23D
330
233
100
AcDbEntity
  8
0
  6
Continuous
 62
     7
370
     0
100
AcDbLine
 10
147.4411952538
 20
126.3568228569
 30
0.0
 11
147.4411952538
 21
122.0745189189
 31
0.0
  0
LINE
  5
23E
330
233
100
AcDbEntity
  8
0
  6
Continuous
 62
     7
370
     0
100
AcDbLine
 10
147.4411952538
 20
122.0745189189
 30
0.0
 11
146.7970358458
 21
122.0745189189
 31
0.0
  0
LINE
  5
23F
330
233
100
AcDbEntity
  8
0
  6
Continuous
 62
     7
370
     0
100
AcDbLine
 10
147.4411952538
 20
126.3568228569
 30
0.0
 11
146.7970358458
 21
126.3568228569
 31
0.0
  0
LINE
  5
240
330
233
100
AcDbEntity
  8
0
  6
Continuous
 62
     7
370
     0
100
AcDbLine
 10
117.2236462879
 20
94.9666685714
 30
0.0
 11
117.2236462879
 21
124.8716685714
 31
0.0
  0
LINE
  5
241
330
233
100
AcDbEntity
  8
0
  6
Continuous
 62
     7
370
     0
100
AcDbLine
 10
127.2236462879
 20
94.9666685714
 30
0.0
 11
127.2236462879
 21
124.8716685714
 31
0.0
  0
LINE
  5
242
330
233
100
AcDbEntity
  8
0
  6
Continuous
 62
     7
370
     0
100
AcDbLine
 10
117.2236462879
 20
121.6966685714
 30
0.0
 11
127.2236462879
 21
121.6966685714
 31
0.0
  0
LINE
  5
243
330
233
100
AcDbEntity
  8
0
  6
Continuous
 62
     7
370
     0
100
AcDbLine
 10
127.2236462879
 20
121.6966685714
 30
0.0
 11
130.6778220581
 21
121.6966685714
 31
0.0
  0
MTEXT
  5
244
330
233
100
AcDbEntity
  8
0
  6
Continuous
 62
     7
370
     0
100
AcDbMText
 10
140.8809402305
 20
120.7514543615
 30
0.0
 40
3.175
 41
0.0
 71
     1
 72
     1
  1
10
  7
SLDTEXTSTYLE0
 73
     1
 44
1.0
  0
MTEXT
  5
245
330
233
100
AcDbEntity
  8
0
  6
Continuous
 62
     7
370
     0
100
AcDbMText
 10
140.2944161379
 20
125.7894589945
 30
0.0
 40
3.175
 41
0.0
 71
     1
 72
     1
  1
.39
  7
SLDTEXTSTYLE0
 73
     1
 44
1.0
  0
ENDBLK
  5
235
330
233
100
AcDbEntity
  8
0
100
AcDbBlockEnd
  0
ENDSEC
  0
SECTION
  2
ENTITIES
  0
INSERT
  5
4B
330
1F
100
AcDbEntity
  8
0
  6
Continuous
 62
     7
370
     0
100
AcDbBlockReference
  2
SW_NOTE_0
 10
23.4210991379
 20
195.5723360508
 30
0.0
  0
MTEXT
  5
4C
330
1F
100
AcDbEntity
  8
0
  6
Continuous
 62
     7
370
     0
100
AcDbMText
 10
23.8678968894
 20
105.7664847476
 30
0.0
 40
5.8208333333
 41
0.0
 71
     1
 72
     1
  1
Top
  7
SLDTEXTSTYLE0
 73
     1
 44
1.0
  0
MTEXT
  5
4D
330
1F
100
AcDbEntity
  8
0
  6
Continuous
 62
     7
370
     0
100
AcDbMText
 10
226.1152596622
 20
105.7664847476
 30
0.0
 40
5.8208333333
 41
0.0
 71
     1
 72
     1
  1
Bottum
  7
SLDTEXTSTYLE0
 73
     1
 44
1.0
  0
LINE
  5
4E
330
1F
100
AcDbEntity
  8
0
  6
CENTERX2
 62
     7
100
AcDbLine
 10
116.7638506333
 20
63.6966685714
 30
0.0
 11
27.8668207781
 21
63.6966685714
 31
0.0
  0
LINE
  5
4F
330
1F
100
AcDbEntity
  8
0
  6
CENTERX2
 62
     7
100
AcDbLine
 10
74.6410378674
 20
99.2589358967
 30
0.0
 11
74.6410378674
 21
25.1516003161
 31
0.0
  0
CIRCLE
  5
50
330
1F
100
AcDbEntity
  8
0
  6
Continuous
 62
     7
370
    15
100
AcDbCircle
 10
99.6410378674
 20
88.6966685714
 30
0.0
 40
3.299999999999997
  0
CIRCLE
  5
51
330
1F
100
AcDbEntity
  8
0
  6
Continuous
 62
     7
370
    15
100
AcDbCircle
 10
99.6410378674
 20
38.6966685714
 30
0.0
 40
3.299999999999997
  0
CIRCLE
  5
52
330
1F
100
AcDbEntity
  8
0
  6
Continuous
 62
     7
370
    15
100
AcDbCircle
 10
49.6410378674
 20
88.6966685714
 30
0.0
 40
3.299999999999997
  0
CIRCLE
  5
53
330
1F
100
AcDbEntity
  8
0
  6
Continuous
 62
     7
370
    15
100
AcDbCircle
 10
49.6410378674
 20
38.6966685714
 30
0.0
 40
3.299999999999997
  0
CIRCLE
  5
54
330
1F
100
AcDbEntity
  8
0
  6
Continuous
 62
     7
370
    15
100
AcDbCircle
 10
87.1410378674
 20
76.1966685714
 30
0.0
 40
3.25
  0
LINE
  5
55
330
1F
100
AcDbEntity
  8
0
  6
Continuous
 62
     7
370
    15
100
AcDbLine
 10
44.6410378674
 20
93.6966685714
 30
0.0
 11
44.6410378674
 21
33.6966685714
 31
0.0
  0
LINE
  5
56
330
1F
100
AcDbEntity
  8
0
  6
Continuous
 62
     7
370
    15
100
AcDbLine
 10
44.6410378674
 20
33.6966685714
 30
0.0
 11
104.6410378674
 21
33.6966685714
 31
0.0
  0
LINE
  5
57
330
1F
100
AcDbEntity
  8
0
  6
Continuous
 62
     7
370
    15
100
AcDbLine
 10
104.6410378674
 20
33.6966685714
 30
0.0
 11
104.6410378674
 21
93.6966685714
 31
0.0
  0
CIRCLE
  5
58
330
1F
100
AcDbEntity
  8
0
  6
Continuous
 62
     7
370
    15
100
AcDbCircle
 10
62.1410378674
 20
76.1966685714
 30
0.0
 40
3.25
  0
CIRCLE
  5
59
330
1F
100
AcDbEntity
  8
0
  6
Continuous
 62
     7
370
    15
100
AcDbCircle
 10
87.1410378674
 20
51.1966685714
 30
0.0
 40
3.249999999999993
  0
LINE
  5
5A
330
1F
100
AcDbEntity
  8
0
  6
Continuous
 62
     7
370
    15
100
AcDbLine
 10
104.6410378674
 20
93.6966685714
 30
0.0
 11
44.6410378674
 21
93.6966685714
 31
0.0
  0
CIRCLE
  5
5B
330
1F
100
AcDbEntity
  8
0
  6
Continuous
 62
     7
370
    15
100
AcDbCircle
 10
62.1410378674
 20
51.1966685714
 30
0.0
 40
3.249999999999993
  0
CIRCLE
  5
5C
330
1F
100
AcDbEntity
  8
0
  6
Continuous
 62
     7
370
    15
100
AcDbCircle
 10
62.1410378674
 20
76.1966685714
 30
0.0
 40
1.699999999999989
  0
CIRCLE
  5
5D
330
1F
100
AcDbEntity
  8
0
  6
Continuous
 62
     7
370
    15
100
AcDbCircle
 10
62.1410378674
 20
51.1966685714
 30
0.0
 40
1.699999999999996
  0
CIRCLE
  5
5E
330
1F
100
AcDbEntity
  8
0
  6
Continuous
 62
     7
370
    15
100
AcDbCircle
 10
87.1410378674
 20
76.1966685714
 30
0.0
 40
1.699999999999989
  0
CIRCLE
  5
5F
330
1F
100
AcDbEntity
  8
0
  6
Continuous
 62
     7
370
    15
100
AcDbCircle
 10
87.1410378674
 20
51.1966685714
 30
0.0
 40
1.699999999999996
  0
DIMENSION
  5
60
330
1F
100
AcDbEntity
  8
0
  6
Continuous
 62
     7
370
     0
100
AcDbDimension
  2
*D2
 10
44.6410378674
 20
135.7564545559
 30
0.0
 11
70.9572962496
 21
135.7564545559
 31
0.0
 70
   160
  1
(<>)
 71
     2
 42
-1.0
  3
SLDDIMSTYLE0
100
AcDbAlignedDimension
 13
104.6410378674
 23
93.6966685714
 33
0.0
 14
44.6410378674
 24
93.6966685714
 34
0.0
100
AcDbRotatedDimension
  0
DIMENSION
  5
75
330
1F
100
AcDbEntity
  8
0
  6
Continuous
 62
     7
370
     0
100
AcDbDimension
  2
*D3
 10
99.6410378674
 20
121.2589358967
 30
0.0
 11
70.9572962496
 21
121.2589358967
 31
0.0
 70
   160
  1
(<>)
 71
     2
 42
-1.0
  3
SLDDIMSTYLE0
100
AcDbAlignedDimension
 13
49.6410378674
 23
94.5366685714
 33
0.0
 14
99.6410378674
 24
94.5366685714
 34
0.0
100
AcDbRotatedDimension
  0
DIMENSION
  5
89
330
1F
100
AcDbEntity
  8
0
  6
Continuous
 62
     7
370
     0
100
AcDbDimension
  2
*D4
 10
87.1410378674
 20
106.3056214656
 30
0.0
 11
70.9572962496
 21
106.3056214656
 31
0.0
 70
   160
  1
(<>)
 71
     2
 42
-1.0
  3
SLDDIMSTYLE0
100
AcDbAlignedDimension
 13
62.1410378674
 23
81.9866685714
 33
0.0
 14
87.1410378674
 24
81.9866685714
 34
0.0
100
AcDbRotatedDimension
  0
DIMENSION
  5
9C
330
1F
100
AcDbEntity
  8
0
  6
Continuous
 62
     7
370
     0
100
AcDbDimension
  2
*D5
 10
22.5792727306
 20
33.6966685714
 30
0.0
 11
22.5792727306
 21
63.1813199577
 31
0.0
 70
   160
  1
(<>)
 71
     2
 42
-1.0
  3
SLDDIMSTYLE0
100
AcDbAlignedDimension
 13
44.6410378674
 23
93.6966685714
 33
0.0
 14
44.6410378674
 24
33.6966685714
 34
0.0
 50
90.0
100
AcDbRotatedDimension
  0
DIMENSION
  5
B0
330
1F
100
AcDbEntity
  8
0
  6
Continuous
 62
     7
370
     0
100
AcDbDimension
  2
*D6
 10
104.6410378674
 20
9.1516003161
 30
0.0
 11
118.0695026414
 21
9.1516003161
 31
0.0
 70
   160
  1
(<>)
 71
     2
 42
-1.0
  3
SLDDIMSTYLE0
100
AcDbAlignedDimension
 13
87.1410378674
 23
45.4066685714
 33
0.0
 14
104.6410378674
 24
33.6966685714
 34
0.0
100
AcDbRotatedDimension
  0
DIMENSION
  5
C4
330
1F
100
AcDbEntity
  8
0
  6
Continuous
 62
     7
370
     0
100
AcDbDimension
  2
*D7
 10
44.6410378674
 20
9.1516003161
 30
0.0
 11
32.8683796502
 21
9.1516003161
 31
0.0
 70
   160
  1
(<>)
 71
     2
 42
-1.0
  3
SLDDIMSTYLE0
100
AcDbAlignedDimension
 13
49.6410378674
 23
32.8566685714
 33
0.0
 14
44.6410378674
 24
33.6966685714
 34
0.0
100
AcDbRotatedDimension
  0
INSERT
  5
F6
330
1F
100
AcDbEntity
  8
0
  6
Continuous
 62
     7
370
     0
100
AcDbBlockReference
  2
SW_CENTERMARKSYMBOL_0
 10
62.1410378674
 20
51.1966685714
 30
0.0
  0
INSERT
  5
116
330
1F
100
AcDbEntity
  8
0
  6
Continuous
 62
     7
370
     0
100
AcDbBlockReference
  2
SW_CENTERMARKSYMBOL_1
 10
49.6410378674
 20
88.6966685714
 30
0.0
  0
LINE
  5
117
330
1F
100
AcDbEntity
  8
0
  6
HIDDEN
 62
     7
370
     0
100
AcDbLine
 10
99.6410378674
 20
112.15322028
 30
0.0
 11
99.6410378674
 21
15.0433083113
 31
0.0
  0
LINE
  5
118
330
1F
100
AcDbEntity
  8
0
  6
Continuous
 62
     7
370
     0
100
AcDbLine
 10
99.6410378674
 20
112.15322028
 30
0.0
 11
86.9410378674
 21
112.15322028
 31
0.0
  0
SOLID
  5
119
330
1F
100
AcDbEntity
  8
0
  6
Continuous
 62
     7
370
     0
100
AcDbTrace
 10
86.9410378674
 20
112.15322028
 30
0.0
 11
93.2910378674
 21
111.13722028
 31
0.0
 12
93.2910378674
 22
113.16922028
 32
0.0
 13
93.2910378674
 23
113.16922028
 33
0.0
  0
LINE
  5
11A
330
1F
100
AcDbEntity
  8
0
  6
Continuous
 62
     7
370
     0
100
AcDbLine
 10
99.6410378674
 20
15.0433083113
 30
0.0
 11
86.9410378674
 21
15.0433083113
 31
0.0
  0
SOLID
  5
11B
330
1F
100
AcDbEntity
  8
0
  6
Continuous
 62
     7
370
     0
100
AcDbTrace
 10
86.9410378674
 20
15.0433083113
 30
0.0
 11
93.2910378674
 21
14.0273083113
 31
0.0
 12
93.2910378674
 22
16.0593083113
 32
0.0
 13
93.2910378674
 23
16.0593083113
 33
0.0
  0
MTEXT
  5
11C
330
1F
100
AcDbEntity
  8
0
  6
Continuous
 62
     7
100
AcDbMText
 10
83.2083036138
 20
114.6722225965
 30
0.0
 40
3.175
 41
0.0
 71
     1
 72
     1
  1
B
  7
SLDTEXTSTYLE0
 73
     1
 44
1.0
  0
MTEXT
  5
11D
330
1F
100
AcDbEntity
  8
0
  6
Continuous
 62
     7
100
AcDbMText
 10
83.2083036138
 20
17.5623106278
 30
0.0
 40
3.175
 41
0.0
 71
     1
 72
     1
  1
B
  7
SLDTEXTSTYLE0
 73
     1
 44
1.0
  0
LINE
  5
11E
330
1F
100
AcDbEntity
  8
0
  6
CENTERX2
 62
     7
100
AcDbLine
 10
236.5052191939
 20
63.6966685714
 30
0.0
 11
147.6081893388
 21
63.6966685714
 31
0.0
  0
LINE
  5
11F
330
1F
100
AcDbEntity
  8
0
  6
CENTERX2
 62
     7
100
AcDbLine
 10
194.382406428
 20
28.1344012462
 30
0.0
 11
194.382406428
 21
102.2417368268
 31
0.0
  0
LINE
  5
120
330
1F
100
AcDbEntity
  8
0
  6
Continuous
 62
     7
370
    15
100
AcDbLine
 10
164.382406428
 20
90.9879564189
 30
0.0
 11
164.382406428
 21
93.6966685714
 31
0.0
  0
LINE
  5
121
330
1F
100
AcDbEntity
  8
0
  6
Continuous
 62
     7
370
    15
100
AcDbLine
 10
164.382406428
 20
93.6966685714
 30
0.0
 11
167.0911185806
 21
93.6966685714
 31
0.0
  0
ARC
  5
122
330
1F
100
AcDbEntity
  8
0
  6
Continuous
 62
     7
370
    15
100
AcDbCircle
 10
169.382406428
 20
88.6966685714
 30
0.0
 40
5.499999999999986
100
AcDbArc
 50
114.6199773287
 51
155.3800226713
  0
CIRCLE
  5
123
330
1F
100
AcDbEntity
  8
0
  6
Continuous
 62
     7
370
    15
100
AcDbCircle
 10
206.882406428
 20
76.1966685714
 30
0.0
 40
1.700000000000017
  0
CIRCLE
  5
124
330
1F
100
AcDbEntity
  8
0
  6
Continuous
 62
     7
370
    15
100
AcDbCircle
 10
181.882406428
 20
76.1966685714
 30
0.0
 40
1.700000000000017
  0
CIRCLE
  5
125
330
1F
100
AcDbEntity
  8
0
  6
Continuous
 62
     7
370
    15
100
AcDbCircle
 10
206.882406428
 20
51.1966685714
 30
0.0
 40
1.699999999999996
  0
CIRCLE
  5
126
330
1F
100
AcDbEntity
  8
0
  6
Continuous
 62
     7
370
    15
100
AcDbCircle
 10
181.882406428
 20
51.1966685714
 30
0.0
 40
1.699999999999996
  0
LINE
  5
127
330
1F
100
AcDbEntity
  8
0
  6
Continuous
 62
     7
370
    15
100
AcDbLine
 10
171.6736942755
 20
93.6966685714
 30
0.0
 11
217.0911185806
 21
93.6966685714
 31
0.0
  0
ARC
  5
128
330
1F
100
AcDbEntity
  8
0
  6
Continuous
 62
     7
370
    15
100
AcDbCircle
 10
219.382406428
 20
88.6966685714
 30
0.0
 40
5.500000000000019
100
AcDbArc
 50
114.6199773287
 51
335.3800226713
  0
LINE
  5
129
330
1F
100
AcDbEntity
  8
0
  6
Continuous
 62
     7
370
    15
100
AcDbLine
 10
224.382406428
 20
86.405380724
 30
0.0
 11
224.382406428
 21
40.9879564189
 31
0.0
  0
ARC
  5
12A
330
1F
100
AcDbEntity
  8
0
  6
Continuous
 62
     7
370
    15
100
AcDbCircle
 10
219.382406428
 20
38.6966685714
 30
0.0
 40
5.500000000000022
100
AcDbArc
 50
24.6199773287
 51
245.3800226713
  0
LINE
  5
12B
330
1F
100
AcDbEntity
  8
0
  6
Continuous
 62
     7
370
    15
100
AcDbLine
 10
217.0911185806
 20
33.6966685714
 30
0.0
 11
171.6736942755
 21
33.6966685714
 31
0.0
  0
ARC
  5
12C
330
1F
100
AcDbEntity
  8
0
  6
Continuous
 62
     7
370
    15
100
AcDbCircle
 10
169.382406428
 20
38.6966685714
 30
0.0
 40
5.500000000000005
100
AcDbArc
 50
294.6199773287
 51
155.3800226713
  0
LINE
  5
12D
330
1F
100
AcDbEntity
  8
0
  6
Continuous
 62
     7
370
    15
100
AcDbLine
 10
164.382406428
 20
40.9879564189
 30
0.0
 11
164.382406428
 21
86.405380724
 31
0.0
  0
ARC
  5
12E
330
1F
100
AcDbEntity
  8
0
  6
Continuous
 62
     7
370
    15
100
AcDbCircle
 10
169.382406428
 20
88.6966685714
 30
0.0
 40
5.499999999999998
100
AcDbArc
 50
204.6199773287
 51
65.3800226713
  0
LINE
  5
12F
330
1F
100
AcDbEntity
  8
0
  6
Continuous
 62
     7
370
    15
100
AcDbLine
 10
221.6736942755
 20
93.6966685714
 30
0.0
 11
224.382406428
 21
93.6966685714
 31
0.0
  0
LINE
  5
130
330
1F
100
AcDbEntity
  8
0
  6
Continuous
 62
     7
370
    15
100
AcDbLine
 10
224.382406428
 20
93.6966685714
 30
0.0
 11
224.382406428
 21
90.9879564189
 31
0.0
  0
ARC
  5
131
330
1F
100
AcDbEntity
  8
0
  6
Continuous
 62
     7
370
    15
100
AcDbCircle
 10
219.382406428
 20
88.6966685714
 30
0.0
 40
5.500000000000019
100
AcDbArc
 50
24.6199773287
 51
65.3800226713
  0
LINE
  5
132
330
1F
100
AcDbEntity
  8
0
  6
Continuous
 62
     7
370
    15
100
AcDbLine
 10
224.382406428
 20
36.405380724
 30
0.0
 11
224.382406428
 21
33.6966685714
 31
0.0
  0
LINE
  5
133
330
1F
100
AcDbEntity
  8
0
  6
Continuous
 62
     7
370
    15
100
AcDbLine
 10
224.382406428
 20
33.6966685714
 30
0.0
 11
221.6736942755
 21
33.6966685714
 31
0.0
  0
ARC
  5
134
330
1F
100
AcDbEntity
  8
0
  6
Continuous
 62
     7
370
    15
100
AcDbCircle
 10
219.382406428
 20
38.6966685714
 30
0.0
 40
5.500000000000022
100
AcDbArc
 50
294.6199773287
 51
335.3800226713
  0
ARC
  5
135
330
1F
100
AcDbEntity
  8
0
  6
Continuous
 62
     7
370
    15
100
AcDbCircle
 10
169.382406428
 20
38.6966685714
 30
0.0
 40
5.499999999999994
100
AcDbArc
 50
204.6199773287
 51
245.3800226713
  0
LINE
  5
136
330
1F
100
AcDbEntity
  8
0
  6
Continuous
 62
     7
370
    15
100
AcDbLine
 10
164.382406428
 20
33.6966685714
 30
0.0
 11
164.382406428
 21
36.405380724
 31
0.0
  0
LINE
  5
137
330
1F
100
AcDbEntity
  8
0
  6
Continuous
 62
     7
370
    15
100
AcDbLine
 10
167.0911185806
 20
33.6966685714
 30
0.0
 11
164.382406428
 21
33.6966685714
 31
0.0
  0
CIRCLE
  5
138
330
1F
100
AcDbEntity
  8
0
  6
Continuous
 62
     7
370
    15
100
AcDbCircle
 10
169.382406428
 20
38.6966685714
 30
0.0
 40
3.299999999999997
  0
LINE
  5
139
330
1F
100
AcDbEntity
  8
0
  6
Continuous
 62
     7
370
    15
100
AcDbLine
 10
164.382406428
 20
36.405380724
 30
0.0
 11
164.382406428
 21
40.9879564189
 31
0.0
  0
LINE
  5
13A
330
1F
100
AcDbEntity
  8
0
  6
Continuous
 62
     7
370
    15
100
AcDbLine
 10
171.6736942755
 20
33.6966685714
 30
0.0
 11
167.0911185806
 21
33.6966685714
 31
0.0
  0
CIRCLE
  5
13B
330
1F
100
AcDbEntity
  8
0
  6
Continuous
 62
     7
370
    15
100
AcDbCircle
 10
219.382406428
 20
88.6966685714
 30
0.0
 40
3.299999999999997
  0
LINE
  5
13C
330
1F
100
AcDbEntity
  8
0
  6
Continuous
 62
     7
370
    15
100
AcDbLine
 10
217.0911185806
 20
93.6966685714
 30
0.0
 11
221.6736942755
 21
93.6966685714
 31
0.0
  0
LINE
  5
13D
330
1F
100
AcDbEntity
  8
0
  6
Continuous
 62
     7
370
    15
100
AcDbLine
 10
224.382406428
 20
90.9879564189
 30
0.0
 11
224.382406428
 21
86.405380724
 31
0.0
  0
CIRCLE
  5
13E
330
1F
100
AcDbEntity
  8
0
  6
Continuous
 62
     7
370
    15
100
AcDbCircle
 10
219.382406428
 20
38.6966685714
 30
0.0
 40
3.299999999999997
  0
LINE
  5
13F
330
1F
100
AcDbEntity
  8
0
  6
Continuous
 62
     7
370
    15
100
AcDbLine
 10
221.6736942755
 20
33.6966685714
 30
0.0
 11
217.0911185806
 21
33.6966685714
 31
0.0
  0
LINE
  5
140
330
1F
100
AcDbEntity
  8
0
  6
Continuous
 62
     7
370
    15
100
AcDbLine
 10
224.382406428
 20
40.9879564189
 30
0.0
 11
224.382406428
 21
36.405380724
 31
0.0
  0
CIRCLE
  5
141
330
1F
100
AcDbEntity
  8
0
  6
Continuous
 62
     7
370
    15
100
AcDbCircle
 10
169.382406428
 20
88.6966685714
 30
0.0
 40
3.299999999999997
  0
LINE
  5
142
330
1F
100
AcDbEntity
  8
0
  6
Continuous
 62
     7
370
    15
100
AcDbLine
 10
167.0911185806
 20
93.6966685714
 30
0.0
 11
171.6736942755
 21
93.6966685714
 31
0.0
  0
LINE
  5
143
330
1F
100
AcDbEntity
  8
0
  6
Continuous
 62
     7
370
    15
100
AcDbLine
 10
164.382406428
 20
86.405380724
 30
0.0
 11
164.382406428
 21
90.9879564189
 31
0.0
  0
DIMENSION
  5
144
330
1F
100
AcDbEntity
  8
0
  6
Continuous
 62
     7
370
     0
100
AcDbDimension
  2
*D10
 10
264.5052191939
 20
38.6966685714
 30
0.0
 11
264.5052191939
 21
64.2356744689
 31
0.0
 70
   160
  1
(<>)
 71
     2
 42
-1.0
  3
SLDDIMSTYLE0
100
AcDbAlignedDimension
 13
225.222406428
 23
88.6966685714
 33
0.0
 14
225.222406428
 24
38.6966685714
 34
0.0
 50
90.0
100
AcDbRotatedDimension
  0
DIMENSION
  5
158
330
1F
100
AcDbEntity
  8
0
  6
Continuous
 62
     7
370
     0
100
AcDbDimension
  2
*D11
 10
242.7279907943
 20
51.1966685714
 30
0.0
 11
242.7279907943
 21
64.2356744689
 31
0.0
 70
   160
  1
(<>)
 71
     2
 42
-1.0
  3
SLDDIMSTYLE0
100
AcDbAlignedDimension
 13
211.122406428
 23
76.1966685714
 33
0.0
 14
211.122406428
 24
51.1966685714
 34
0.0
 50
90.0
100
AcDbRotatedDimension
  0
DIMENSION
  5
16C
330
1F
100
AcDbEntity
  8
0
  6
Continuous
 62
     7
370
     0
100
AcDbDimension
  2
*D12
 10
219.5634748871
 20
88.0204924012
 30
0.0
 11
165.013928789
 21
167.2079156746
 31
0.0
 70
   163
  1
<>X %%c 6.60[0.26] THRU ALL\P{\fGDT;v}%%c 11[0.43] {\fGDT;x} 6[0.24]\P
 71
     1
 42
-1.0
  3
SLDDIMSTYLE1
100
AcDbDiametricDimension
 15
218.528797978
 25
91.8843562309
 35
0.0
 40
0.0
  0
DIMENSION
  5
190
330
1F
100
AcDbEntity
  8
0
  6
Continuous
 62
     7
370
     0
100
AcDbDimension
  2
*D15
 10
207.477588094
 20
73.9750118057
 30
0.0
 11
155.1201790008
 21
142.7558533423
 31
0.0
 70
   163
  1
<>X %%c 3.40[0.13] THRU ALL\P{\fGDT;v}%%c 6.50[0.26] {\fGDT;x} 3[0.12]\P
 71
     1
 42
-1.0
  3
SLDDIMSTYLE1
100
AcDbDiametricDimension
 15
206.4424895445
 25
77.8387627026
 35
0.0
 40
0.0
  0
DIMENSION
  5
1A6
330
1F
100
AcDbEntity
  8
0
  6
Continuous
 62
     7
370
     0
100
AcDbDimension
  2
*D16
 10
246.5052191939
 20
93.6966685714
 30
0.0
 11
246.5052191939
 21
98.3023133445
 31
0.0
 70
   160
  1
(<>)
 71
     2
 42
-1.0
  3
SLDDIMSTYLE0
100
AcDbAlignedDimension
 13
225.222406428
 23
88.6966685714
 33
0.0
 14
224.382406428
 24
93.6966685714
 34
0.0
 50
90.0
100
AcDbRotatedDimension
  0
DIMENSION
  5
1BB
330
1F
100
AcDbEntity
  8
0
  6
Continuous
 62
     7
370
     0
100
AcDbDimension
  2
*D17
 10
248.4124708166
 20
33.6966685714
 30
0.0
 11
248.4124708166
 21
25.5467099175
 31
0.0
 70
   160
  1
(<>)
 71
     2
 42
-1.0
  3
SLDDIMSTYLE0
100
AcDbAlignedDimension
 13
211.122406428
 23
51.1966685714
 33
0.0
 14
224.382406428
 24
33.6966685714
 34
0.0
 50
90.0
100
AcDbRotatedDimension
  0
INSERT
  5
1EF
330
1F
100
AcDbEntity
  8
0
  6
Continuous
 62
     7
370
     0
100
AcDbBlockReference
  2
SW_CENTERMARKSYMBOL_2
 10
181.882406428
 20
76.1966685714
 30
0.0
  0
INSERT
  5
20F
330
1F
100
AcDbEntity
  8
0
  6
Continuous
 62
     7
370
     0
100
AcDbBlockReference
  2
SW_CENTERMARKSYMBOL_3
 10
169.382406428
 20
38.6966685714
 30
0.0
  0
LINE
  5
210
330
1F
100
AcDbEntity
  8
0
  6
HIDDEN
 62
     7
370
     0
100
AcDbLine
 10
181.882406428
 20
114.4381593852
 30
0.0
 11
181.882406428
 21
13.0439865943
 31
0.0
  0
LINE
  5
211
330
1F
100
AcDbEntity
  8
0
  6
Continuous
 62
     7
370
     0
100
AcDbLine
 10
181.882406428
 20
114.4381593852
 30
0.0
 11
169.182406428
 21
114.4381593852
 31
0.0
  0
SOLID
  5
212
330
1F
100
AcDbEntity
  8
0
  6
Continuous
 62
     7
370
     0
100
AcDbTrace
 10
169.182406428
 20
114.4381593852
 30
0.0
 11
175.532406428
 21
113.4221593852
 31
0.0
 12
175.532406428
 22
115.4541593852
 32
0.0
 13
175.532406428
 23
115.4541593852
 33
0.0
  0
LINE
  5
213
330
1F
100
AcDbEntity
  8
0
  6
Continuous
 62
     7
370
     0
100
AcDbLine
 10
181.882406428
 20
13.0439865943
 30
0.0
 11
169.182406428
 21
13.0439865943
 31
0.0
  0
SOLID
  5
214
330
1F
100
AcDbEntity
  8
0
  6
Continuous
 62
     7
370
     0
100
AcDbTrace
 10
169.182406428
 20
13.0439865943
 30
0.0
 11
175.532406428
 21
12.0279865943
 31
0.0
 12
175.532406428
 22
14.0599865943
 32
0.0
 13
175.532406428
 23
14.0599865943
 33
0.0
  0
MTEXT
  5
215
330
1F
100
AcDbEntity
  8
0
  6
Continuous
 62
     7
100
AcDbMText
 10
164.9445155861
 20
116.9571617016
 30
0.0
 40
3.175
 41
0.0
 71
     1
 72
     1
  1
C
  7
SLDTEXTSTYLE0
 73
     1
 44
1.0
  0
MTEXT
  5
216
330
1F
100
AcDbEntity
  8
0
  6
Continuous
 62
     7
100
AcDbMText
 10
164.9445155861
 20
15.5629889108
 30
0.0
 40
3.175
 41
0.0
 71
     1
 72
     1
  1
C
  7
SLDTEXTSTYLE0
 73
     1
 44
1.0
  0
LINE
  5
217
330
1F
100
AcDbEntity
  8
0
  6
Continuous
 62
     7
370
    15
100
AcDbLine
 10
127.2236462879
 20
83.1966685714
 30
0.0
 11
121.2236462879
 21
83.1966685714
 31
0.0
  0
LINE
  5
218
330
1F
100
AcDbEntity
  8
0
  6
Continuous
 62
     7
370
    15
100
AcDbLine
 10
121.2236462879
 20
93.6966685714
 30
0.0
 11
127.2236462879
 21
93.6966685714
 31
0.0
  0
LINE
  5
219
330
1F
100
AcDbEntity
  8
0
  6
Continuous
 62
     7
370
    15
100
AcDbLine
 10
127.2236462879
 20
83.1966685714
 30
0.0
 11
127.2236462879
 21
93.6966685714
 31
0.0
  0
LINE
  5
21A
330
1F
100
AcDbEntity
  8
0
  6
Continuous
 62
     7
370
    15
100
AcDbLine
 10
121.2236462879
 20
44.1966685714
 30
0.0
 11
127.2236462879
 21
44.1966685714
 31
0.0
  0
LINE
  5
21B
330
1F
100
AcDbEntity
  8
0
  6
Continuous
 62
     7
370
    15
100
AcDbLine
 10
127.2236462879
 20
33.6966685714
 30
0.0
 11
121.2236462879
 21
33.6966685714
 31
0.0
  0
LINE
  5
21C
330
1F
100
AcDbEntity
  8
0
  6
Continuous
 62
     7
370
    15
100
AcDbLine
 10
127.2236462879
 20
33.6966685714
 30
0.0
 11
127.2236462879
 21
44.1966685714
 31
0.0
  0
LINE
  5
21D
330
1F
100
AcDbEntity
  8
0
  6
Continuous
 62
     7
370
    15
100
AcDbLine
 10
121.2236462879
 20
41.9966685714
 30
0.0
 11
121.2236462879
 21
44.1966685714
 31
0.0
  0
LINE
  5
21E
330
1F
100
AcDbEntity
  8
0
  6
Continuous
 62
     7
370
    15
100
AcDbLine
 10
117.2236462879
 20
41.9966685714
 30
0.0
 11
121.2236462879
 21
41.9966685714
 31
0.0
  0
LINE
  5
21F
330
1F
100
AcDbEntity
  8
0
  6
Continuous
 62
     7
370
    15
100
AcDbLine
 10
117.2236462879
 20
85.3966685714
 30
0.0
 11
117.2236462879
 21
41.9966685714
 31
0.0
  0
LINE
  5
220
330
1F
100
AcDbEntity
  8
0
  6
Continuous
 62
     7
370
    15
100
AcDbLine
 10
121.2236462879
 20
85.3966685714
 30
0.0
 11
117.2236462879
 21
85.3966685714
 31
0.0
  0
LINE
  5
221
330
1F
100
AcDbEntity
  8
0
  6
Continuous
 62
     7
370
    15
100
AcDbLine
 10
121.2236462879
 20
83.1966685714
 30
0.0
 11
121.2236462879
 21
85.3966685714
 31
0.0
  0
LINE
  5
222
330
1F
100
AcDbEntity
  8
0
  6
Continuous
 62
     7
370
    15
100
AcDbLine
 10
127.2236462879
 20
83.1966685714
 30
0.0
 11
127.2236462879
 21
44.1966685714
 31
0.0
  0
LINE
  5
223
330
1F
100
AcDbEntity
  8
0
  6
Continuous
 62
     7
370
    15
100
AcDbLine
 10
117.2236462879
 20
85.3966685714
 30
0.0
 11
117.2236462879
 21
91.9966685714
 31
0.0
  0
LINE
  5
224
330
1F
100
AcDbEntity
  8
0
  6
Continuous
 62
     7
370
    15
100
AcDbLine
 10
117.2236462879
 20
91.9966685714
 30
0.0
 11
121.2236462879
 21
91.9966685714
 31
0.0
  0
LINE
  5
225
330
1F
100
AcDbEntity
  8
0
  6
Continuous
 62
     7
370
    15
100
AcDbLine
 10
121.2236462879
 20
85.3966685714
 30
0.0
 11
121.2236462879
 21
91.9966685714
 31
0.0
  0
LINE
  5
226
330
1F
100
AcDbEntity
  8
0
  6
Continuous
 62
     7
370
    15
100
AcDbLine
 10
117.2236462879
 20
35.3966685714
 30
0.0
 11
117.2236462879
 21
41.9966685714
 31
0.0
  0
LINE
  5
227
330
1F
100
AcDbEntity
  8
0
  6
Continuous
 62
     7
370
    15
100
AcDbLine
 10
121.2236462879
 20
35.3966685714
 30
0.0
 11
117.2236462879
 21
35.3966685714
 31
0.0
  0
LINE
  5
228
330
1F
100
AcDbEntity
  8
0
  6
Continuous
 62
     7
370
    15
100
AcDbLine
 10
121.2236462879
 20
35.3966685714
 30
0.0
 11
121.2236462879
 21
41.9966685714
 31
0.0
  0
LINE
  5
229
330
1F
100
AcDbEntity
  8
0
  6
Continuous
 62
     7
370
    15
100
AcDbLine
 10
117.2236462879
 20
35.3966685714
 30
0.0
 11
117.2236462879
 21
33.6966685714
 31
0.0
  0
LINE
  5
22A
330
1F
100
AcDbEntity
  8
0
  6
Continuous
 62
     7
370
    15
100
AcDbLine
 10
121.2236462879
 20
33.6966685714
 30
0.0
 11
121.2236462879
 21
35.3966685714
 31
0.0
  0
LINE
  5
22B
330
1F
100
AcDbEntity
  8
0
  6
Continuous
 62
     7
370
    15
100
AcDbLine
 10
117.2236462879
 20
33.6966685714
 30
0.0
 11
121.2236462879
 21
33.6966685714
 31
0.0
  0
LINE
  5
22C
330
1F
100
AcDbEntity
  8
0
  6
Continuous
 62
     7
370
    15
100
AcDbLine
 10
117.2236462879
 20
93.6966685714
 30
0.0
 11
117.2236462879
 21
91.9966685714
 31
0.0
  0
LINE
  5
22D
330
1F
100
AcDbEntity
  8
0
  6
Continuous
 62
     7
370
    15
100
AcDbLine
 10
121.2236462879
 20
91.9966685714
 30
0.0
 11
121.2236462879
 21
93.6966685714
 31
0.0
  0
LINE
  5
22E
330
1F
100
AcDbEntity
  8
0
  6
Continuous
 62
     7
370
    15
100
AcDbLine
 10
121.2236462879
 20
93.6966685714
 30
0.0
 11
117.2236462879
 21
93.6966685714
 31
0.0
  0
HATCH
  5
22F
330
1F
100
AcDbEntity
  8
0
  6
Continuous
 62
     7
370
     0
100
AcDbHatch
 10
0.0
 20
0.0
 30
0.0
210
0.0
220
0.0
230
1.0
  2
ANSI31
 70
     0
 71
     0
 91
        1
 92
        0
 93
        8
 72
     1
 10
127.2236462878866
 20
44.19666857142867
 11
127.2236462878866
 21
83.19666857142869
 72
     1
 10
127.2236462878866
 20
83.19666857142869
 11
121.2236462878866
 21
83.19666857142869
 72
     1
 10
121.2236462878866
 20
83.19666857142869
 11
121.2236462878866
 21
85.39666857142869
 72
     1
 10
121.2236462878866
 20
85.39666857142869
 11
117.2236462878866
 21
85.39666857142869
 72
     1
 10
117.2236462878866
 20
85.39666857142869
 11
117.2236462878866
 21
41.99666857142868
 72
     1
 10
117.2236462878866
 20
41.99666857142868
 11
121.2236462878866
 21
41.99666857142868
 72
     1
 10
121.2236462878866
 20
41.99666857142868
 11
121.2236462878866
 21
44.19666857142867
 72
     1
 10
121.2236462878866
 20
44.19666857142867
 11
127.2236462878866
 21
44.19666857142867
 97
        0
 75
     0
 76
     1
 52
0.0
 41
1.0
 77
     0
 78
     1
 53
45.0
 43
0.0
 44
0.0
 45
-2.245064030267288
 46
2.245064030267288
 79
     0
 98
        1
 10
0.0
 20
0.0
  0
HATCH
  5
230
330
1F
100
AcDbEntity
  8
0
  6
Continuous
 62
     7
370
     0
100
AcDbHatch
 10
0.0
 20
0.0
 30
0.0
210
0.0
220
0.0
230
1.0
  2
ANSI31
 70
     0
 71
     0
 91
        1
 92
        0
 93
        4
 72
     1
 10
117.2236462878866
 20
35.39666857142868
 11
117.2236462878866
 21
33.69666857142868
 72
     1
 10
117.2236462878866
 20
33.69666857142868
 11
121.2236462878866
 21
33.69666857142868
 72
     1
 10
121.2236462878866
 20
33.69666857142868
 11
121.2236462878866
 21
35.39666857142868
 72
     1
 10
121.2236462878866
 20
35.39666857142868
 11
117.2236462878866
 21
35.39666857142868
 97
        0
 75
     0
 76
     1
 52
0.0
 41
1.0
 77
     0
 78
     1
 53
45.0
 43
0.0
 44
0.0
 45
-2.245064030267288
 46
2.245064030267288
 79
     0
 98
        1
 10
0.0
 20
0.0
  0
HATCH
  5
231
330
1F
100
AcDbEntity
  8
0
  6
Continuous
 62
     7
370
     0
100
AcDbHatch
 10
0.0
 20
0.0
 30
0.0
210
0.0
220
0.0
230
1.0
  2
ANSI31
 70
     0
 71
     0
 91
        1
 92
        0
 93
        4
 72
     1
 10
121.2236462878866
 20
91.99666857142869
 11
121.2236462878866
 21
93.69666857142867
 72
     1
 10
121.2236462878866
 20
93.69666857142867
 11
117.2236462878866
 21
93.69666857142867
 72
     1
 10
117.2236462878866
 20
93.69666857142867
 11
117.2236462878866
 21
91.99666857142869
 72
     1
 10
117.2236462878866
 20
91.99666857142869
 11
121.2236462878866
 21
91.99666857142869
 97
        0
 75
     0
 76
     1
 52
0.0
 41
1.0
 77
     0
 78
     1
 53
45.0
 43
0.0
 44
0.0
 45
-2.245064030267288
 46
2.245064030267288
 79
     0
 98
        1
 10
0.0
 20
0.0
  0
DIMENSION
  5
232
330
1F
100
AcDbEntity
  8
0
  6
Continuous
 62
     7
370
     0
100
AcDbDimension
  2
*D20
 10
127.2236462879
 20
121.6966685714
 30
0.0
 11
143.2236462879
 21
121.6966685714
 31
0.0
 70
   160
  1
(<>)
 71
     2
 42
-1.0
  3
SLDDIMSTYLE0
100
AcDbAlignedDimension
 13
117.2236462879
 23
93.6966685714
 33
0.0
 14
127.2236462879
 24
93.6966685714
 34
0.0
 50
0.0
100
AcDbRotatedDimension
  0
MTEXT
  5
246
330
1F
100
AcDbEntity
  8
0
  6
Continuous
 62
     7
370
     0
100
AcDbMText
 10
109.8102777275
 20
26.096507303
 30
0.0
 40
3.175
 41
0.0
 71
     1
 72
     1
  1
SECTION B-B
  7
SLDTEXTSTYLE0
 73
     1
 44
1.0
  0
LINE
  5
247
330
1F
100
AcDbEntity
  8
0
  6
Continuous
 62
     7
370
    15
100
AcDbLine
 10
151.2154698181
 20
49.4966685714
 30
0.0
 11
144.2154698181
 21
49.4966685714
 31
0.0
  0
LINE
  5
248
330
1F
100
AcDbEntity
  8
0
  6
Continuous
 62
     7
370
    15
100
AcDbLine
 10
151.2154698181
 20
47.9466685714
 30
0.0
 11
151.2154698181
 21
49.4966685714
 31
0.0
  0
LINE
  5
249
330
1F
100
AcDbEntity
  8
0
  6
Continuous
 62
     7
370
    15
100
AcDbLine
 10
154.2154698181
 20
47.9466685714
 30
0.0
 11
151.2154698181
 21
47.9466685714
 31
0.0
  0
LINE
  5
24A
330
1F
100
AcDbEntity
  8
0
  6
Continuous
 62
     7
370
    15
100
AcDbLine
 10
154.2154698181
 20
33.6966685714
 30
0.0
 11
154.2154698181
 21
47.9466685714
 31
0.0
  0
LINE
  5
24B
330
1F
100
AcDbEntity
  8
0
  6
Continuous
 62
     7
370
    15
100
AcDbLine
 10
144.2154698181
 20
33.6966685714
 30
0.0
 11
154.2154698181
 21
33.6966685714
 31
0.0
  0
LINE
  5
24C
330
1F
100
AcDbEntity
  8
0
  6
Continuous
 62
     7
370
    15
100
AcDbLine
 10
144.2154698181
 20
33.6966685714
 30
0.0
 11
144.2154698181
 21
49.4966685714
 31
0.0
  0
LINE
  5
24D
330
1F
100
AcDbEntity
  8
0
  6
Continuous
 62
     7
370
    15
100
AcDbLine
 10
151.2154698181
 20
79.4466685714
 30
0.0
 11
154.2154698181
 21
79.4466685714
 31
0.0
  0
LINE
  5
24E
330
1F
100
AcDbEntity
  8
0
  6
Continuous
 62
     7
370
    15
100
AcDbLine
 10
154.2154698181
 20
72.9466685714
 30
0.0
 11
154.2154698181
 21
79.4466685714
 31
0.0
  0
LINE
  5
24F
330
1F
100
AcDbEntity
  8
0
  6
Continuous
 62
     7
370
    15
100
AcDbLine
 10
154.2154698181
 20
72.9466685714
 30
0.0
 11
151.2154698181
 21
72.9466685714
 31
0.0
  0
LINE
  5
250
330
1F
100
AcDbEntity
  8
0
  6
Continuous
 62
     7
370
    15
100
AcDbLine
 10
151.2154698181
 20
74.4966685714
 30
0.0
 11
144.2154698181
 21
74.4966685714
 31
0.0
  0
LINE
  5
251
330
1F
100
AcDbEntity
  8
0
  6
Continuous
 62
     7
370
    15
100
AcDbLine
 10
151.2154698181
 20
72.9466685714
 30
0.0
 11
151.2154698181
 21
74.4966685714
 31
0.0
  0
LINE
  5
252
330
1F
100
AcDbEntity
  8
0
  6
Continuous
 62
     7
370
    15
100
AcDbLine
 10
154.2154698181
 20
54.4466685714
 30
0.0
 11
154.2154698181
 21
72.9466685714
 31
0.0
  0
LINE
  5
253
330
1F
100
AcDbEntity
  8
0
  6
Continuous
 62
     7
370
    15
100
AcDbLine
 10
151.2154698181
 20
54.4466685714
 30
0.0
 11
154.2154698181
 21
54.4466685714
 31
0.0
  0
LINE
  5
254
330
1F
100
AcDbEntity
  8
0
  6
Continuous
 62
     7
370
    15
100
AcDbLine
 10
151.2154698181
 20
52.8966685714
 30
0.0
 11
151.2154698181
 21
54.4466685714
 31
0.0
  0
LINE
  5
255
330
1F
100
AcDbEntity
  8
0
  6
Continuous
 62
     7
370
    15
100
AcDbLine
 10
144.2154698181
 20
52.8966685714
 30
0.0
 11
151.2154698181
 21
52.8966685714
 31
0.0
  0
LINE
  5
256
330
1F
100
AcDbEntity
  8
0
  6
Continuous
 62
     7
370
    15
100
AcDbLine
 10
144.2154698181
 20
52.8966685714
 30
0.0
 11
144.2154698181
 21
74.4966685714
 31
0.0
  0
LINE
  5
257
330
1F
100
AcDbEntity
  8
0
  6
Continuous
 62
     7
370
    15
100
AcDbLine
 10
154.2154698181
 20
79.4466685714
 30
0.0
 11
154.2154698181
 21
93.6966685714
 31
0.0
  0
LINE
  5
258
330
1F
100
AcDbEntity
  8
0
  6
Continuous
 62
     7
370
    15
100
AcDbLine
 10
151.2154698181
 20
77.8966685714
 30
0.0
 11
151.2154698181
 21
79.4466685714
 31
0.0
  0
LINE
  5
259
330
1F
100
AcDbEntity
  8
0
  6
Continuous
 62
     7
370
    15
100
AcDbLine
 10
144.2154698181
 20
77.8966685714
 30
0.0
 11
151.2154698181
 21
77.8966685714
 31
0.0
  0
LINE
  5
25A
330
1F
100
AcDbEntity
  8
0
  6
Continuous
 62
     7
370
    15
100
AcDbLine
 10
144.2154698181
 20
77.8966685714
 30
0.0
 11
144.2154698181
 21
93.6966685714
 31
0.0
  0
LINE
  5
25B
330
1F
100
AcDbEntity
  8
0
  6
Continuous
 62
     7
370
    15
100
AcDbLine
 10
154.2154698181
 20
93.6966685714
 30
0.0
 11
144.2154698181
 21
93.6966685714
 31
0.0
  0
LINE
  5
25C
330
1F
100
AcDbEntity
  8
0
  6
Continuous
 62
     7
370
    15
100
AcDbLine
 10
154.2154698181
 20
47.9466685714
 30
0.0
 11
154.2154698181
 21
54.4466685714
 31
0.0
  0
LINE
  5
25D
330
1F
100
AcDbEntity
  8
0
  6
Continuous
 62
     7
370
    15
100
AcDbLine
 10
144.2154698181
 20
49.4966685714
 30
0.0
 11
144.2154698181
 21
52.8966685714
 31
0.0
  0
LINE
  5
25E
330
1F
100
AcDbEntity
  8
0
  6
Continuous
 62
     7
370
    15
100
AcDbLine
 10
151.2154698181
 20
49.4966685714
 30
0.0
 11
151.2154698181
 21
52.8966685714
 31
0.0
  0
LINE
  5
25F
330
1F
100
AcDbEntity
  8
0
  6
Continuous
 62
     7
370
    15
100
AcDbLine
 10
144.2154698181
 20
74.4966685714
 30
0.0
 11
144.2154698181
 21
77.8966685714
 31
0.0
  0
LINE
  5
260
330
1F
100
AcDbEntity
  8
0
  6
Continuous
 62
     7
370
    15
100
AcDbLine
 10
151.2154698181
 20
74.4966685714
 30
0.0
 11
151.2154698181
 21
77.8966685714
 31
0.0
  0
HATCH
  5
261
330
1F
100
AcDbEntity
  8
0
  6
Continuous
 62
     7
370
     0
100
AcDbHatch
 10
0.0
 20
0.0
 30
0.0
210
0.0
220
0.0
230
1.0
  2
ANSI31
 70
     0
 71
     0
 91
        1
 92
        0
 93
        6
 72
     1
 10
144.2154698181211
 20
49.49666857142869
 11
144.2154698181211
 21
33.69666857142868
 72
     1
 10
144.2154698181211
 20
33.69666857142868
 11
154.2154698181211
 21
33.69666857142868
 72
     1
 10
154.2154698181211
 20
33.69666857142868
 11
154.2154698181211
 21
47.94666857142868
 72
     1
 10
154.2154698181211
 20
47.94666857142868
 11
151.2154698181211
 21
47.94666857142868
 72
     1
 10
151.2154698181211
 20
47.94666857142868
 11
151.2154698181211
 21
49.49666857142869
 72
     1
 10
151.2154698181211
 20
49.49666857142869
 11
144.2154698181211
 21
49.49666857142869
 97
        0
 75
     0
 76
     1
 52
0.0
 41
1.0
 77
     0
 78
     1
 53
45.0
 43
0.0
 44
0.0
 45
-2.245064030267288
 46
2.245064030267288
 79
     0
 98
        1
 10
0.0
 20
0.0
  0
HATCH
  5
262
330
1F
100
AcDbEntity
  8
0
  6
Continuous
 62
     7
370
     0
100
AcDbHatch
 10
0.0
 20
0.0
 30
0.0
210
0.0
220
0.0
230
1.0
  2
ANSI31
 70
     0
 71
     0
 91
        1
 92
        0
 93
        8
 72
     1
 10
144.2154698181211
 20
74.49666857142869
 11
144.2154698181211
 21
52.89666857142868
 72
     1
 10
144.2154698181211
 20
52.89666857142868
 11
151.2154698181211
 21
52.89666857142868
 72
     1
 10
151.2154698181211
 20
52.89666857142868
 11
151.2154698181211
 21
54.44666857142867
 72
     1
 10
151.2154698181211
 20
54.44666857142867
 11
154.2154698181211
 21
54.44666857142867
 72
     1
 10
154.2154698181211
 20
54.44666857142867
 11
154.2154698181211
 21
72.94666857142869
 72
     1
 10
154.2154698181211
 20
72.94666857142869
 11
151.2154698181211
 21
72.94666857142869
 72
     1
 10
151.2154698181211
 20
72.94666857142869
 11
151.2154698181211
 21
74.49666857142869
 72
     1
 10
151.2154698181211
 20
74.49666857142869
 11
144.2154698181211
 21
74.49666857142869
 97
        0
 75
     0
 76
     1
 52
0.0
 41
1.0
 77
     0
 78
     1
 53
45.0
 43
0.0
 44
0.0
 45
-2.245064030267288
 46
2.245064030267288
 79
     0
 98
        1
 10
0.0
 20
0.0
  0
HATCH
  5
263
330
1F
100
AcDbEntity
  8
0
  6
Continuous
 62
     7
370
     0
100
AcDbHatch
 10
0.0
 20
0.0
 30
0.0
210
0.0
220
0.0
230
1.0
  2
ANSI31
 70
     0
 71
     0
 91
        1
 92
        0
 93
        6
 72
     1
 10
144.2154698181211
 20
93.69666857142867
 11
144.2154698181211
 21
77.89666857142869
 72
     1
 10
144.2154698181211
 20
77.89666857142869
 11
151.2154698181211
 21
77.89666857142869
 72
     1
 10
151.2154698181211
 20
77.89666857142869
 11
151.2154698181211
 21
79.44666857142867
 72
     1
 10
151.2154698181211
 20
79.44666857142867
 11
154.2154698181211
 21
79.44666857142867
 72
     1
 10
154.2154698181211
 20
79.44666857142867
 11
154.2154698181211
 21
93.69666857142867
 72
     1
 10
154.2154698181211
 20
93.69666857142867
 11
144.2154698181211
 21
93.69666857142867
 97
        0
 75
     0
 76
     1
 52
0.0
 41
1.0
 77
     0
 78
     1
 53
45.0
 43
0.0
 44
0.0
 45
-2.245064030267288
 46
2.245064030267288
 79
     0
 98
        1
 10
0.0
 20
0.0
  0
MTEXT
  5
264
330
1F
100
AcDbEntity
  8
0
  6
Continuous
 62
     7
370
     0
100
AcDbMText
 10
135.7922756407
 20
26.096507303
 30
0.0
 40
3.175
 41
0.0
 71
     1
 72
     1
  1
SECTION C-C
  7
SLDTEXTSTYLE0
 73
     1
 44
1.0
  0
ENDSEC
  0
SECTION
  2
OBJECTS
  0
DICTIONARY
  5
C
330
0
100
AcDbDictionary
281
     1
  3
ACAD_GROUP
350
D
  3
ACAD_LAYOUT
350
1A
  3
ACAD_MLEADERSTYLE
350
266
  3
ACAD_MLINESTYLE
350
17
  3
ACAD_PLOTSETTINGS
350
19
  3
ACAD_PLOTSTYLENAME
350
E
  3
ACAD_TABLESTYLE
350
265
  3
ACAD_VISUALSTYLE
350
2A
  3
AcDbVariableDictionary
350
267
  0
DICTIONARY
  5
D
102
{ACAD_REACTORS
330
C
102
}
330
C
100
AcDbDictionary
281
     1
  0
DICTIONARY
  5
1A
102
{ACAD_REACTORS
330
C
102
}
330
C
100
AcDbDictionary
281
     1
  3
Layout1
350
1E
  3
Layout2
350
26
  3
Model
350
22
  0
DICTIONARY
  5
266
102
{ACAD_REACTORS
330
C
102
}
330
C
100
AcDbDictionary
281
     1
  0
DICTIONARY
  5
17
102
{ACAD_REACTORS
330
C
102
}
330
C
100
AcDbDictionary
281
     1
  3
Standard
350
18
  0
DICTIONARY
  5
19
102
{ACAD_REACTORS
330
C
102
}
330
C
100
AcDbDictionary
281
     1
  0
ACDBDICTIONARYWDFLT
  5
E
102
{ACAD_REACTORS
330
C
102
}
330
C
100
AcDbDictionary
281
     1
  3
Normal
350
F
100
AcDbDictionaryWithDefault
340
F
  0
DICTIONARY
  5
265
102
{ACAD_REACTORS
330
C
102
}
330
C
100
AcDbDictionary
281
     1
  0
DICTIONARY
  5
2A
102
{ACAD_REACTORS
330
C
102
}
330
C
100
AcDbDictionary
281
     1
  3
2dWireframe
350
2F
  3
3D Hidden
350
31
  3
3dWireframe
350
30
  3
Basic
350
32
  3
Brighten
350
36
  3
ColorChange
350
3A
  3
Conceptual
350
34
  3
Dim
350
35
  3
Facepattern
350
39
  3
Flat
350
2B
  3
FlatWithEdges
350
2C
  3
Gouraud
350
2D
  3
GouraudWithEdges
350
2E
  3
Linepattern
350
38
  3
Realistic
350
33
  3
Thicken
350
37
  0
DICTIONARY
  5
267
102
{ACAD_REACTORS
330
C
102
}
330
C
100
AcDbDictionary
281
     1
  3
PSOLHEIGHT
350
269
  3
PSOLWIDTH
350
268
  0
LAYOUT
  5
1E
102
{ACAD_REACTORS
330
1A
102
}
330
1A
100
AcDbPlotSettings
  1

  2
none_device
  4

  6

 40
0.0
 41
0.0
 42
0.0
 43
0.0
 44
0.0
 45
0.0
 46
0.0
 47
0.0
 48
0.0
 49
0.0
140
0.0
141
0.0
142
1.0
143
1.0
 70
   688
 72
     0
 73
     0
 74
     5
  7

 75
    16
147
1.0
148
0.0
149
0.0
100
AcDbLayout
  1
Layout1
 70
     1
 71
     1
 10
0.0
 20
0.0
 11
420.0
 21
297.0
 12
0.0
 22
0.0
 32
0.0
 14
1.0000000000E+20
 24
1.0000000000E+20
 34
1.0000000000E+20
 15
-1.0000000000E+20
 25
-1.0000000000E+20
 35
-1.0000000000E+20
146
0.0
 13
0.0
 23
0.0
 33
0.0
 16
1.0
 26
0.0
 36
0.0
 17
0.0
 27
1.0
 37
0.0
 76
     0
330
1B
  0
LAYOUT
  5
26
102
{ACAD_REACTORS
330
1A
102
}
330
1A
100
AcDbPlotSettings
  1

  2
none_device
  4

  6

 40
0.0
 41
0.0
 42
0.0
 43
0.0
 44
0.0
 45
0.0
 46
0.0
 47
0.0
 48
0.0
 49
0.0
140
0.0
141
0.0
142
1.0
143
1.0
 70
   688
 72
     0
 73
     0
 74
     5
  7

 75
    16
147
1.0
148
0.0
149
0.0
100
AcDbLayout
  1
Layout2
 70
     1
 71
     2
 10
0.0
 20
0.0
 11
0.0
 21
0.0
 12
0.0
 22
0.0
 32
0.0
 14
0.0
 24
0.0
 34
0.0
 15
0.0
 25
0.0
 35
0.0
146
0.0
 13
0.0
 23
0.0
 33
0.0
 16
1.0
 26
0.0
 36
0.0
 17
0.0
 27
1.0
 37
0.0
 76
     0
330
23
  0
LAYOUT
  5
22
102
{ACAD_REACTORS
330
1A
102
}
330
1A
100
AcDbPlotSettings
  1

  2
none_device
  4

  6

 40
0.0
 41
0.0
 42
0.0
 43
0.0
 44
0.0
 45
0.0
 46
0.0
 47
0.0
 48
0.0
 49
0.0
140
0.0
141
0.0
142
1.0
143
1.0
 70
  1712
 72
     0
 73
     0
 74
     0
  7

 75
     0
147
1.0
148
0.0
149
0.0
100
AcDbLayout
  1
Model
 70
     1
 71
     0
 10
0.0
 20
0.0
 11
279.4
 21
215.9
 12
0.0
 22
0.0
 32
0.0
 14
0.0
 24
0.0
 34
0.0
 15
279.4
 25
215.9
 35
0.0
146
0.0
 13
0.0
 23
0.0
 33
0.0
 16
1.0
 26
0.0
 36
0.0
 17
0.0
 27
1.0
 37
0.0
 76
     0
330
1F
331
29
  0
MLINESTYLE
  5
18
102
{ACAD_REACTORS
330
17
102
}
330
17
100
AcDbMlineStyle
  2
Standard
 70
     0
  3

 62
   256
 51
90.0
 52
90.0
 71
     2
 49
0.5
 62
   256
  6
BYLAYER
 49
-0.5
 62
   256
  6
BYLAYER
  0
ACDBPLACEHOLDER
  5
F
102
{ACAD_REACTORS
330
E
102
}
330
E
  0
VISUALSTYLE
  5
2F
102
{ACAD_REACTORS
330
2A
102
}
330
2A
100
AcDbVisualStyle
  2
2dWireframe
 70
     4
 71
     0
 72
     2
 73
     0
 90
        0
 40
-0.6
 41
-30.0
 62
     5
 63
     7
 74
     1
 91
        4
 64
     7
 65
   257
 75
     1
175
     1
 42
1.0
 92
        0
 66
   257
 43
1.0
 76
     1
 77
     6
 78
     2
 67
     7
 79
     5
170
     0
171
     0
290
     0
174
     0
 93
        1
 44
0.0
173
     0
291
     0
 45
0.0
1001
ACAD
1000
AcDbSavedByObjectVersion
1070
     0
  0
VISUALSTYLE
  5
31
102
{ACAD_REACTORS
330
2A
102
}
330
2A
100
AcDbVisualStyle
  2
3D Hidden
 70
     6
 71
     1
 72
     2
 73
     2
 90
        0
 40
-0.6
 41
-30.0
 62
     5
 63
     7
 74
     2
 91
        2
 64
     7
 65
   257
 75
     2
175
     1
 42
40.0
 92
        0
 66
   257
 43
1.0
 76
     1
 77
     6
 78
     2
 67
     7
 79
     3
170
     0
171
     0
290
     0
174
     0
 93
        1
 44
0.0
173
     0
291
     0
 45
0.0
1001
ACAD
1000
AcDbSavedByObjectVersion
1070
     0
  0
VISUALSTYLE
  5
30
102
{ACAD_REACTORS
330
2A
102
}
330
2A
100
AcDbVisualStyle
  2
3dWireframe
 70
     5
 71
     0
 72
     2
 73
     0
 90
        0
 40
-0.6
 41
-30.0
 62
     5
 63
     7
 74
     1
 91
        4
 64
     7
 65
   257
 75
     1
175
     1
 42
1.0
 92
        0
 66
   257
 43
1.0
 76
     1
 77
     6
 78
     2
 67
     7
 79
     5
170
     0
171
     0
290
     0
174
     0
 93
        1
 44
0.0
173
     0
291
     0
 45
0.0
1001
ACAD
1000
AcDbSavedByObjectVersion
1070
     0
  0
VISUALSTYLE
  5
32
102
{ACAD_REACTORS
330
2A
102
}
330
2A
100
AcDbVisualStyle
  2
Basic
 70
     7
 71
     1
 72
     0
 73
     1
 90
        0
 40
-0.6
 41
-30.0
 62
     5
 63
     7
 74
     0
 91
        4
 64
     7
 65
   257
 75
     1
175
     1
 42
1.0
 92
        8
 66
     7
 43
1.0
 76
     1
 77
     6
 78
     2
 67
     7
 79
     5
170
     0
171
     0
290
     0
174
     0
 93
        1
 44
0.0
173
     0
291
     1
 45
0.0
1001
ACAD
1000
AcDbSavedByObjectVersion
1070
     0
  0
VISUALSTYLE
  5
36
102
{ACAD_REACTORS
330
2A
102
}
330
2A
100
AcDbVisualStyle
  2
Brighten
 70
    12
 71
     2
 72
     2
 73
     0
 90
        0
 40
-0.6
 41
-30.0
 62
     5
 63
     7
 74
     1
 91
        4
 64
     7
 65
   257
 75
     1
175
     1
 42
1.0
 92
        8
 66
     7
 43
1.0
 76
     1
 77
     6
 78
     2
 67
     7
 79
     5
170
     0
171
     0
290
     0
174
     0
 93
        1
 44
50.0
173
     0
291
     1
 45
0.0
1001
ACAD
1000
AcDbSavedByObjectVersion
1070
     0
  0
VISUALSTYLE
  5
3A
102
{ACAD_REACTORS
330
2A
102
}
330
2A
100
AcDbVisualStyle
  2
ColorChange
 70
    16
 71
     2
 72
     2
 73
     3
 90
        0
 40
-0.6
 41
-30.0
 62
     5
 63
     8
 74
     1
 91
        4
 64
     7
 65
   257
 75
     1
175
     1
 42
1.0
 92
        8
 66
     8
 43
1.0
 76
     1
 77
     6
 78
     2
 67
     7
 79
     5
170
     0
171
     0
290
     0
174
     0
 93
        1
 44
0.0
173
     0
291
     1
 45
0.0
1001
ACAD
1000
AcDbSavedByObjectVersion
1070
     0
  0
VISUALSTYLE
  5
34
102
{ACAD_REACTORS
330
2A
102
}
330
2A
100
AcDbVisualStyle
  2
Conceptual
 70
     9
 71
     3
 72
     2
 73
     0
 90
        0
 40
-0.6
 41
-30.0
 62
     5
 63
     7
 74
     2
 91
        2
 64
     7
 65
   257
 75
     1
175
     1
 42
40.0
 92
        8
 66
     7
 43
1.0
 76
     1
 77
     6
 78
     2
 67
     7
 79
     3
170
     0
171
     0
290
     0
174
     0
 93
        1
 44
0.0
173
     0
291
     0
 45
0.0
1001
ACAD
1000
AcDbSavedByObjectVersion
1070
     0
  0
VISUALSTYLE
  5
35
102
{ACAD_REACTORS
330
2A
102
}
330
2A
100
AcDbVisualStyle
  2
Dim
 70
    11
 71
     2
 72
     2
 73
     0
 90
        0
 40
-0.6
 41
-30.0
 62
     5
 63
     7
 74
     1
 91
        4
 64
     7
 65
   257
 75
     1
175
     1
 42
1.0
 92
        8
 66
     7
 43
1.0
 76
     1
 77
     6
 78
     2
 67
     7
 79
     5
170
     0
171
     0
290
     0
174
     0
 93
        1
 44
-50.0
173
     0
291
     1
 45
0.0
1001
ACAD
1000
AcDbSavedByObjectVersion
1070
     0
  0
VISUALSTYLE
  5
39
102
{ACAD_REACTORS
330
2A
102
}
330
2A
100
AcDbVisualStyle
  2
Facepattern
 70
    15
 71
     2
 72
     2
 73
     0
 90
        0
 40
-0.6
 41
-30.0
 62
     5
 63
     7
 74
     1
 91
        4
 64
     7
 65
   257
 75
     1
175
     1
 42
1.0
 92
        8
 66
     7
 43
1.0
 76
     1
 77
     6
 78
     2
 67
     7
 79
     5
170
     0
171
     0
290
     0
174
     0
 93
        1
 44
0.0
173
     0
291
     1
 45
0.0
1001
ACAD
1000
AcDbSavedByObjectVersion
1070
     0
  0
VISUALSTYLE
  5
2B
102
{ACAD_REACTORS
330
2A
102
}
330
2A
100
AcDbVisualStyle
  2
Flat
 70
     0
 71
     2
 72
     1
 73
     1
 90
        2
 40
-0.6
 41
30.0
 62
     5
 63
     7
 74
     0
 91
        4
 64
     7
 65
   257
 75
     1
175
     1
 42
1.0
 92
        8
 66
     7
 43
1.0
 76
     1
 77
     6
 78
     2
 67
     7
 79
     5
170
     0
171
     0
290
     0
174
     0
 93
       13
 44
0.0
173
     0
291
     1
 45
0.0
1001
ACAD
1000
AcDbSavedByObjectVersion
1070
     0
  0
VISUALSTYLE
  5
2C
102
{ACAD_REACTORS
330
2A
102
}
330
2A
100
AcDbVisualStyle
  2
FlatWithEdges
 70
     1
 71
     2
 72
     1
 73
     1
 90
        2
 40
-0.6
 41
30.0
 62
     5
 63
     7
 74
     1
 91
        4
 64
     7
 65
   257
 75
     1
175
     1
 42
1.0
 92
        0
 66
   257
 43
1.0
 76
     1
 77
     6
 78
     2
 67
     7
 79
     5
170
     0
171
     0
290
     0
174
     0
 93
       13
 44
0.0
173
     0
291
     1
 45
0.0
1001
ACAD
1000
AcDbSavedByObjectVersion
1070
     0
  0
VISUALSTYLE
  5
2D
102
{ACAD_REACTORS
330
2A
102
}
330
2A
100
AcDbVisualStyle
  2
Gouraud
 70
     2
 71
     2
 72
     2
 73
     1
 90
        2
 40
-0.6
 41
30.0
 62
     5
 63
     7
 74
     0
 91
        4
 64
     7
 65
   257
 75
     1
175
     1
 42
1.0
 92
        0
 66
     7
 43
1.0
 76
     1
 77
     6
 78
     2
 67
     7
 79
     5
170
     0
171
     0
290
     0
174
     0
 93
       13
 44
0.0
173
     0
291
     1
 45
0.0
1001
ACAD
1000
AcDbSavedByObjectVersion
1070
     0
  0
VISUALSTYLE
  5
2E
102
{ACAD_REACTORS
330
2A
102
}
330
2A
100
AcDbVisualStyle
  2
GouraudWithEdges
 70
     3
 71
     2
 72
     2
 73
     1
 90
        2
 40
-0.6
 41
30.0
 62
     5
 63
     7
 74
     1
 91
        4
 64
     7
 65
   257
 75
     1
175
     1
 42
1.0
 92
        0
 66
   257
 43
1.0
 76
     1
 77
     6
 78
     2
 67
     7
 79
     5
170
     0
171
     0
290
     0
174
     0
 93
       13
 44
0.0
173
     0
291
     1
 45
0.0
1001
ACAD
1000
AcDbSavedByObjectVersion
1070
     0
  0
VISUALSTYLE
  5
38
102
{ACAD_REACTORS
330
2A
102
}
330
2A
100
AcDbVisualStyle
  2
Linepattern
 70
    14
 71
     2
 72
     2
 73
     0
 90
        0
 40
-0.6
 41
-30.0
 62
     5
 63
     7
 74
     1
 91
        4
 64
     7
 65
   257
 75
     7
175
     7
 42
1.0
 92
        8
 66
     7
 43
1.0
 76
     1
 77
     6
 78
     2
 67
     7
 79
     5
170
     0
171
     0
290
     0
174
     0
 93
        1
 44
0.0
173
     0
291
     1
 45
0.0
1001
ACAD
1000
AcDbSavedByObjectVersion
1070
     0
  0
VISUALSTYLE
  5
33
102
{ACAD_REACTORS
330
2A
102
}
330
2A
100
AcDbVisualStyle
  2
Realistic
 70
     8
 71
     2
 72
     2
 73
     0
 90
        0
 40
-0.6
 41
-30.0
 62
     5
 63
     7
 74
     1
 91
        0
 64
     7
 65
   257
 75
     1
175
     1
 42
1.0
 92
        8
 66
     8
 43
1.0
 76
     1
 77
     6
 78
     2
 67
     7
 79
     5
170
     0
171
     0
290
     0
174
     0
 93
       13
 44
0.0
173
     0
291
     0
 45
0.0
1001
ACAD
1000
AcDbSavedByObjectVersion
1070
     0
  0
VISUALSTYLE
  5
37
102
{ACAD_REACTORS
330
2A
102
}
330
2A
100
AcDbVisualStyle
  2
Thicken
 70
    13
 71
     2
 72
     2
 73
     0
 90
        0
 40
-0.6
 41
-30.0
 62
     5
 63
     7
 74
     1
 91
        4
 64
     7
 65
   257
 75
     1
175
     1
 42
1.0
 92
       12
 66
     7
 43
1.0
 76
     1
 77
     6
 78
     2
 67
     7
 79
     5
170
     0
171
     0
290
     0
174
     0
 93
        1
 44
0.0
173
     0
291
     1
 45
0.0
1001
ACAD
1000
AcDbSavedByObjectVersion
1070
     0
  0
DICTIONARYVAR
  5
269
102
{ACAD_REACTORS
330
267
102
}
330
267
100
DictionaryVariables
280
     0
  1
80.000000
  0
DICTIONARYVAR
  5
268
102
{ACAD_REACTORS
330
267
102
}
330
267
100
DictionaryVariables
280
     0
  1
5.000000
  0
ENDSEC
  0
EOF
