  0
SECTION
  2
HEADER
  9
$ACADVER
  1
AC1015
  9
$ACADMAINTVER
 70
     6
  9
$DWGCODEPAGE
  3
ANSI_1252
  9
$INSBASE
 10
0.0
 20
0.0
 30
0.0
  9
$EXTMIN
 10
0.0
 20
0.0
 30
0.0
  9
$EXTMAX
 10
279.4
 20
215.9
 30
0.0
  9
$LIMMIN
 10
0.0
 20
0.0
  9
$LIMMAX
 10
279.4
 20
215.9
  9
$ORTHOMODE
 70
     0
  9
$REGENMODE
 70
     1
  9
$FILLMODE
 70
     1
  9
$QTEXTMODE
 70
     0
  9
$MIRRTEXT
 70
     1
  9
$LTSCALE
 40
1.0
  9
$ATTMODE
 70
     1
  9
$TEXTSIZE
 40
3.175
  9
$TRACEWID
 40
1.0
  9
$TEXTSTYLE
  7
Standard
  9
$CLAYER
  8
0
  9
$CELTYPE
  6
ByLayer
  9
$CECOLOR
 62
   256
  9
$CELTSCALE
 40
1.0
  9
$DISPSILH
 70
     0
  9
$DIMSCALE
 40
1.0
  9
$DIMASZ
 40
3.302
  9
$DIMEXO
 40
1.27
  9
$DIMDLI
 40
3.75
  9
$DIMRND
 40
0.0
  9
$DIMDLE
 40
0.0
  9
$DIMEXE
 40
3.175
  9
$DIMTP
 40
0.0
  9
$DIMTM
 40
0.0
  9
$DIMTXT
 40
3.175
  9
$DIMCEN
 40
2.5
  9
$DIMTSZ
 40
0.0
  9
$DIMTOL
 70
     0
  9
$DIMLIM
 70
     0
  9
$DIMTIH
 70
     1
  9
$DIMTOH
 70
     1
  9
$DIMSE1
 70
     0
  9
$DIMSE2
 70
     0
  9
$DIMTAD
 70
     1
  9
$DIMZIN
 70
     0
  9
$DIMBLK
  1

  9
$DIMASO
 70
     1
  9
$DIMSHO
 70
     1
  9
$DIMPOST
  1

  9
$DIMAPOST
  1

  9
$DIMALT
 70
     0
  9
$DIMALTD
 70
     3
  9
$DIMALTF
 40
0.0393700787
  9
$DIMLFAC
 40
2.0
  9
$DIMTOFL
 70
     1
  9
$DIMTVP
 40
0.0
  9
$DIMTIX
 70
     0
  9
$DIMSOXD
 70
     0
  9
$DIMSAH
 70
     0
  9
$DIMBLK1
  1

  9
$DIMBLK2
  1

  9
$DIMSTYLE
  2
ISO-25
  9
$DIMCLRD
 70
     0
  9
$DIMCLRE
 70
     0
  9
$DIMCLRT
 70
     0
  9
$DIMTFAC
 40
1.0
  9
$DIMGAP
 40
1.524
  9
$DIMJUST
 70
     0
  9
$DIMSD1
 70
     0
  9
$DIMSD2
 70
     0
  9
$DIMTOLJ
 70
     0
  9
$DIMTZIN
 70
     0
  9
$DIMALTZ
 70
     0
  9
$DIMALTTZ
 70
     0
  9
$DIMUPT
 70
     0
  9
$DIMDEC
 70
     2
  9
$DIMTDEC
 70
     2
  9
$DIMALTU
 70
     2
  9
$DIMALTTD
 70
     3
  9
$DIMTXSTY
  7
Standard
  9
$DIMAUNIT
 70
     0
  9
$DIMADEC
 70
     0
  9
$DIMALTRND
 40
0.0
  9
$DIMAZIN
 70
     0
  9
$DIMDSEP
 70
    44
  9
$DIMATFIT
 70
     3
  9
$DIMFRAC
 70
     0
  9
$DIMLDRBLK
  1

  9
$DIMLUNIT
 70
     2
  9
$DIMLWD
 70
    -2
  9
$DIMLWE
 70
    -2
  9
$DIMTMOVE
 70
     0
  9
$LUNITS
 70
     2
  9
$LUPREC
 70
     2
  9
$SKETCHINC
 40
1.0
  9
$FILLETRAD
 40
10.0
  9
$AUNITS
 70
     0
  9
$AUPREC
 70
     0
  9
$MENU
  1
.
  9
$ELEVATION
 40
0.0
  9
$PELEVATION
 40
0.0
  9
$THICKNESS
 40
0.0
  9
$LIMCHECK
 70
     0
  9
$CHAMFERA
 40
10.0
  9
$CHAMFERB
 40
10.0
  9
$CHAMFERC
 40
20.0
  9
$CHAMFERD
 40
0.0
  9
$SKPOLY
 70
     0
  9
$TDCREATE
 40
2455371.425081042
  9
$TDUCREATE
 40
2455371.591747708
  9
$TDUPDATE
 40
2455371.425081053
  9
$TDUUPDATE
 40
2455371.59174772
  9
$TDINDWG
 40
0.0000000116
  9
$TDUSRTIMER
 40
0.0000000116
  9
$USRTIMER
 70
     1
  9
$ANGBASE
 50
0.0
  9
$ANGDIR
 70
     0
  9
$PDMODE
 70
     0
  9
$PDSIZE
 40
-1.0
  9
$PLINEWID
 40
0.0
  9
$SPLFRAME
 70
     0
  9
$SPLINETYPE
 70
     6
  9
$SPLINESEGS
 70
     8
  9
$HANDSEED
  5
205
  9
$SURFTAB1
 70
     6
  9
$SURFTAB2
 70
     6
  9
$SURFTYPE
 70
     6
  9
$SURFU
 70
     6
  9
$SURFV
 70
     6
  9
$UCSBASE
  2

  9
$UCSNAME
  2

  9
$UCSORG
 10
0.0
 20
0.0
 30
0.0
  9
$UCSXDIR
 10
1.0
 20
0.0
 30
0.0
  9
$UCSYDIR
 10
0.0
 20
1.0
 30
0.0
  9
$UCSORTHOREF
  2

  9
$UCSORTHOVIEW
 70
     0
  9
$UCSORGTOP
 10
0.0
 20
0.0
 30
0.0
  9
$UCSORGBOTTOM
 10
0.0
 20
0.0
 30
0.0
  9
$UCSORGLEFT
 10
0.0
 20
0.0
 30
0.0
  9
$UCSORGRIGHT
 10
0.0
 20
0.0
 30
0.0
  9
$UCSORGFRONT
 10
0.0
 20
0.0
 30
0.0
  9
$UCSORGBACK
 10
0.0
 20
0.0
 30
0.0
  9
$PUCSBASE
  2

  9
$PUCSNAME
  2

  9
$PUCSORG
 10
0.0
 20
0.0
 30
0.0
  9
$PUCSXDIR
 10
1.0
 20
0.0
 30
0.0
  9
$PUCSYDIR
 10
0.0
 20
1.0
 30
0.0
  9
$PUCSORTHOREF
  2

  9
$PUCSORTHOVIEW
 70
     0
  9
$PUCSORGTOP
 10
0.0
 20
0.0
 30
0.0
  9
$PUCSORGBOTTOM
 10
0.0
 20
0.0
 30
0.0
  9
$PUCSORGLEFT
 10
0.0
 20
0.0
 30
0.0
  9
$PUCSORGRIGHT
 10
0.0
 20
0.0
 30
0.0
  9
$PUCSORGFRONT
 10
0.0
 20
0.0
 30
0.0
  9
$PUCSORGBACK
 10
0.0
 20
0.0
 30
0.0
  9
$USERI1
 70
     0
  9
$USERI2
 70
     0
  9
$USERI3
 70
     0
  9
$USERI4
 70
     0
  9
$USERI5
 70
     0
  9
$USERR1
 40
0.0
  9
$USERR2
 40
0.0
  9
$USERR3
 40
0.0
  9
$USERR4
 40
0.0
  9
$USERR5
 40
0.0
  9
$WORLDVIEW
 70
     1
  9
$SHADEDGE
 70
     3
  9
$SHADEDIF
 70
    70
  9
$TILEMODE
 70
     1
  9
$MAXACTVP
 70
    64
  9
$PINSBASE
 10
0.0
 20
0.0
 30
0.0
  9
$PLIMCHECK
 70
     0
  9
$PEXTMIN
 10
1.0000000000E+20
 20
1.0000000000E+20
 30
1.0000000000E+20
  9
$PEXTMAX
 10
-1.0000000000E+20
 20
-1.0000000000E+20
 30
-1.0000000000E+20
  9
$PLIMMIN
 10
0.0
 20
0.0
  9
$PLIMMAX
 10
420.0
 20
297.0
  9
$UNITMODE
 70
     0
  9
$VISRETAIN
 70
     1
  9
$PLINEGEN
 70
     0
  9
$PSLTSCALE
 70
     1
  9
$TREEDEPTH
 70
  3020
  9
$CMLSTYLE
  2
Standard
  9
$CMLJUST
 70
     0
  9
$CMLSCALE
 40
20.0
  9
$PROXYGRAPHICS
 70
     1
  9
$MEASUREMENT
 70
     1
  9
$CELWEIGHT
370
    -1
  9
$ENDCAPS
280
     0
  9
$JOINSTYLE
280
     0
  9
$LWDISPLAY
290
     1
  9
$INSUNITS
 70
     4
  9
$HYPERLINKBASE
  1

  9
$STYLESHEET
  1

  9
$XEDIT
290
     1
  9
$CEPSNTYPE
380
     0
  9
$PSTYLEMODE
290
     1
  9
$FINGERPRINTGUID
  2
{5BBB22DF-32DE-4815-80BB-F0D93B60A97C}
  9
$VERSIONGUID
  2
{FAEB1C32-E019-11D5-929B-00C0DF256EC4}
  9
$EXTNAMES
290
     1
  9
$PSVPSCALE
 40
0.0
  9
$OLESTARTUP
290
     0
  0
ENDSEC
  0
SECTION
  2
CLASSES
  0
CLASS
  1
ACDBDICTIONARYWDFLT
  2
AcDbDictionaryWithDefault
  3
ObjectDBX Classes
 90
        0
280
     0
281
     0
  0
CLASS
  1
VISUALSTYLE
  2
AcDbVisualStyle
  3
ObjectDBX Classes
 90
     4095
280
     0
281
     0
  0
CLASS
  1
DICTIONARYVAR
  2
AcDbDictionaryVar
  3
ObjectDBX Classes
 90
        0
280
     0
281
     0
  0
CLASS
  1
ACDBPLACEHOLDER
  2
AcDbPlaceHolder
  3
ObjectDBX Classes
 90
        0
280
     0
281
     0
  0
CLASS
  1
LAYOUT
  2
AcDbLayout
  3
ObjectDBX Classes
 90
        0
280
     0
281
     0
  0
ENDSEC
  0
SECTION
  2
TABLES
  0
TABLE
  2
VPORT
  5
8
330
0
100
AcDbSymbolTable
 70
     1
  0
VPORT
  5
29
330
8
100
AcDbSymbolTableRecord
100
AcDbViewportTableRecord
  2
*Active
 70
     0
 10
0.0
 20
0.0
 11
1.0
 21
1.0
 12
139.7
 22
107.95
 13
0.0
 23
0.0
 14
10.0
 24
10.0
 15
10.0
 25
10.0
 16
0.0
 26
0.0
 36
1.0
 17
0.0
 27
0.0
 37
0.0
 40
215.9
 41
1.2941176471
 42
50.0
 43
0.0
 44
0.0
 50
0.0
 51
0.0
 71
     0
 72
  2000
 73
     1
 74
     3
 75
     0
 76
     0
 77
     0
 78
     0
281
     0
 65
     1
110
0.0
120
0.0
130
0.0
111
1.0
121
0.0
131
0.0
112
0.0
122
1.0
132
0.0
 79
     0
146
0.0
  0
ENDTAB
  0
TABLE
  2
LTYPE
  5
5
330
0
100
AcDbSymbolTable
 70
     6
  0
LTYPE
  5
14
330
5
100
AcDbSymbolTableRecord
100
AcDbLinetypeTableRecord
  2
ByBlock
 70
     0
  3

 72
    65
 73
     0
 40
0.0
  0
LTYPE
  5
15
330
5
100
AcDbSymbolTableRecord
100
AcDbLinetypeTableRecord
  2
ByLayer
 70
     0
  3

 72
    65
 73
     0
 40
0.0
  0
LTYPE
  5
16
330
5
100
AcDbSymbolTableRecord
100
AcDbLinetypeTableRecord
  2
Continuous
 70
     0
  3
Solid line
 72
    65
 73
     0
 40
0.0
  0
LTYPE
  5
3B
330
5
100
AcDbSymbolTableRecord
100
AcDbLinetypeTableRecord
  2
HIDDEN
 70
     0
  3
Hidden __ __ __ __ __ __ __ __ __ __ __ __ __ __
 72
    65
 73
     2
 40
1.905
 49
1.27
 74
     0
 49
-0.635
 74
     0
  0
LTYPE
  5
3C
330
5
100
AcDbSymbolTableRecord
100
AcDbLinetypeTableRecord
  2
PHANTOM
 70
     0
  3
Phantom ______  __  __  ______  __  __  ______
 72
    65
 73
     6
 40
12.7
 49
6.35
 74
     0
 49
-1.27
 74
     0
 49
1.27
 74
     0
 49
-1.27
 74
     0
 49
1.27
 74
     0
 49
-1.27
 74
     0
  0
LTYPE
  5
3D
330
5
100
AcDbSymbolTableRecord
100
AcDbLinetypeTableRecord
  2
CENTER
 70
     0
  3
Center ____ _ ____ _ ____ _ ____ _ ____ _ ____
 72
    65
 73
     4
 40
10.16
 49
6.35
 74
     0
 49
-1.27
 74
     0
 49
1.27
 74
     0
 49
-1.27
 74
     0
  0
LTYPE
  5
3E
330
5
100
AcDbSymbolTableRecord
100
AcDbLinetypeTableRecord
  2
CENTERX2
 70
     0
  3
Center (2x) ________  __  ________  __  _____
 72
    65
 73
     4
 40
20.32
 49
12.7
 74
     0
 49
-2.54
 74
     0
 49
2.54
 74
     0
 49
-2.54
 74
     0
  0
LTYPE
  5
3F
330
5
100
AcDbSymbolTableRecord
100
AcDbLinetypeTableRecord
  2
DOT2
 70
     0
  3
Dot (.5x) ........................................
 72
    65
 73
     2
 40
0.635
 49
0.0
 74
     0
 49
-0.635
 74
     0
  0
ENDTAB
  0
TABLE
  2
LAYER
  5
2
330
0
100
AcDbSymbolTable
 70
     2
  0
LAYER
  5
10
330
2
100
AcDbSymbolTableRecord
100
AcDbLayerTableRecord
  2
0
 70
     0
 62
     7
  6
Continuous
370
    -3
390
F
  0
LAYER
  5
40
330
2
100
AcDbSymbolTableRecord
100
AcDbLayerTableRecord
  2
FORMAT
 70
     0
 62
     7
  6
Continuous
370
    -3
390
F
  0
ENDTAB
  0
TABLE
  2
STYLE
  5
3
330
0
100
AcDbSymbolTable
 70
     2
  0
STYLE
  5
11
330
3
100
AcDbSymbolTableRecord
100
AcDbTextStyleTableRecord
  2
Standard
 70
     0
 40
0.0
 41
1.0
 50
0.0
 71
     0
 42
2.5
  3
txt
  4

  0
STYLE
  5
44
330
3
100
AcDbSymbolTableRecord
100
AcDbTextStyleTableRecord
  2
SLDTEXTSTYLE0
 70
     0
 40
0.0
 41
0.75
 50
0.0
 71
     0
 42
0.2
  3
TXT
  4

  0
ENDTAB
  0
TABLE
  2
VIEW
  5
6
330
0
100
AcDbSymbolTable
 70
     0
  0
ENDTAB
  0
TABLE
  2
UCS
  5
7
330
0
100
AcDbSymbolTable
 70
     0
  0
ENDTAB
  0
TABLE
  2
APPID
  5
9
330
0
100
AcDbSymbolTable
 70
     1
  0
APPID
  5
12
330
9
100
AcDbSymbolTableRecord
100
AcDbRegAppTableRecord
  2
ACAD
 70
     0
  0
ENDTAB
  0
TABLE
  2
DIMSTYLE
  5
A
330
0
100
AcDbSymbolTable
 70
     2
100
AcDbDimStyleTable
  0
DIMSTYLE
105
27
330
A
100
AcDbSymbolTableRecord
100
AcDbDimStyleTableRecord
  2
ISO-25
 70
     0
 41
2.5
 42
0.625
 43
3.75
 44
1.25
 73
     0
 74
     0
 77
     1
 78
     8
140
2.5
141
2.5
143
0.0393700787
147
0.625
171
     3
172
     1
271
     2
272
     2
274
     3
278
    44
283
     0
284
     8
340
11
  0
DIMSTYLE
105
61
102
{ACAD_REACTORS
330
60
330
74
330
87
330
9B
330
AF
330
C3
330
D7
330
EB
330
100
330
115
330
12A
330
13E
330
152
330
167
330
1EA
102
}
330
A
100
AcDbSymbolTableRecord
100
AcDbDimStyleTableRecord
  2
SLDDIMSTYLE0
 70
     0
 41
3.302
 44
0.0
 45
0.000000001
 78
    12
140
3.175
143
0.0393700787
144
2.0
147
0.79375
148
0.000000001
170
     1
173
     1
271
     2
272
     2
284
    12
340
44
  0
ENDTAB
  0
TABLE
  2
BLOCK_RECORD
  5
1
330
0
100
AcDbSymbolTable
 70
    19
  0
BLOCK_RECORD
  5
1F
330
1
100
AcDbSymbolTableRecord
100
AcDbBlockTableRecord
  2
*Model_Space
340
22
  0
BLOCK_RECORD
  5
1B
330
1
100
AcDbSymbolTableRecord
100
AcDbBlockTableRecord
  2
*Paper_Space
340
1E
  0
BLOCK_RECORD
  5
23
330
1
100
AcDbSymbolTableRecord
100
AcDbBlockTableRecord
  2
*Paper_Space0
340
26
  0
BLOCK_RECORD
  5
41
330
1
100
AcDbSymbolTableRecord
100
AcDbBlockTableRecord
  2
SW_NOTE_0
340
0
102
{BLKREFS
331
4B
102
}
  0
BLOCK_RECORD
  5
62
330
1
100
AcDbSymbolTableRecord
100
AcDbBlockTableRecord
  2
*D2
340
0
  0
BLOCK_RECORD
  5
75
330
1
100
AcDbSymbolTableRecord
100
AcDbBlockTableRecord
  2
*D3
340
0
  0
BLOCK_RECORD
  5
88
330
1
100
AcDbSymbolTableRecord
100
AcDbBlockTableRecord
  2
*D4
340
0
  0
BLOCK_RECORD
  5
9C
330
1
100
AcDbSymbolTableRecord
100
AcDbBlockTableRecord
  2
*D5
340
0
  0
BLOCK_RECORD
  5
B0
330
1
100
AcDbSymbolTableRecord
100
AcDbBlockTableRecord
  2
*D6
340
0
  0
BLOCK_RECORD
  5
C4
330
1
100
AcDbSymbolTableRecord
100
AcDbBlockTableRecord
  2
*D7
340
0
  0
BLOCK_RECORD
  5
D8
330
1
100
AcDbSymbolTableRecord
100
AcDbBlockTableRecord
  2
*D8
340
0
  0
BLOCK_RECORD
  5
EC
330
1
100
AcDbSymbolTableRecord
100
AcDbBlockTableRecord
  2
*D9
340
0
  0
BLOCK_RECORD
  5
101
330
1
100
AcDbSymbolTableRecord
100
AcDbBlockTableRecord
  2
*D10
340
0
  0
BLOCK_RECORD
  5
116
330
1
100
AcDbSymbolTableRecord
100
AcDbBlockTableRecord
  2
*D11
340
0
  0
BLOCK_RECORD
  5
12B
330
1
100
AcDbSymbolTableRecord
100
AcDbBlockTableRecord
  2
*D12
340
0
  0
BLOCK_RECORD
  5
13F
330
1
100
AcDbSymbolTableRecord
100
AcDbBlockTableRecord
  2
*D13
340
0
  0
BLOCK_RECORD
  5
153
330
1
100
AcDbSymbolTableRecord
100
AcDbBlockTableRecord
  2
*D14
340
0
  0
BLOCK_RECORD
  5
168
330
1
100
AcDbSymbolTableRecord
100
AcDbBlockTableRecord
  2
*D15
340
0
  0
BLOCK_RECORD
  5
17C
330
1
100
AcDbSymbolTableRecord
100
AcDbBlockTableRecord
  2
SW_CENTERMARKSYMBOL_0
340
0
102
{BLKREFS
331
19B
102
}
  0
BLOCK_RECORD
  5
19C
330
1
100
AcDbSymbolTableRecord
100
AcDbBlockTableRecord
  2
SW_CENTERMARKSYMBOL_1
340
0
102
{BLKREFS
331
1AE
102
}
  0
BLOCK_RECORD
  5
1EB
330
1
100
AcDbSymbolTableRecord
100
AcDbBlockTableRecord
  2
*D18
340
0
  0
ENDTAB
  0
ENDSEC
  0
SECTION
  2
BLOCKS
  0
BLOCK
  5
20
330
1F
100
AcDbEntity
  8
0
100
AcDbBlockBegin
  2
*Model_Space
 70
     0
 10
0.0
 20
0.0
 30
0.0
  3
*Model_Space
  1

  0
ENDBLK
  5
21
330
1F
100
AcDbEntity
  8
0
100
AcDbBlockEnd
  0
BLOCK
  5
1C
330
1B
100
AcDbEntity
 67
     1
  8
0
100
AcDbBlockBegin
  2
*Paper_Space
 70
     0
 10
0.0
 20
0.0
 30
0.0
  3
*Paper_Space
  1

  0
ENDBLK
  5
1D
330
1B
100
AcDbEntity
 67
     1
  8
0
100
AcDbBlockEnd
  0
BLOCK
  5
24
330
23
100
AcDbEntity
  8
0
100
AcDbBlockBegin
  2
*Paper_Space0
 70
     0
 10
0.0
 20
0.0
 30
0.0
  3
*Paper_Space0
  1

  0
ENDBLK
  5
25
330
23
100
AcDbEntity
  8
0
100
AcDbBlockEnd
  0
BLOCK
  5
42
330
41
100
AcDbEntity
  8
0
100
AcDbBlockBegin
  2
SW_NOTE_0
 70
     0
 10
0.0
 20
0.0
 30
0.0
  3
SW_NOTE_0
  1

  0
MTEXT
  5
45
330
41
100
AcDbEntity
  8
0
  6
Continuous
 62
     0
370
     0
100
AcDbMText
 10
0.0
 20
6.1391851107
 30
0.0
 40
4.7625
 41
0.0
 71
     1
 72
     1
  1
Number: 1x
  7
SLDTEXTSTYLE0
 73
     1
 44
1.0
  0
MTEXT
  5
46
330
41
100
AcDbEntity
  8
0
  6
Continuous
 62
     0
370
     0
100
AcDbMText
 10
0.0
 20
-0.2108148126
 30
0.0
 40
4.7625
 41
0.0
 71
     1
 72
     1
  1
Material: Aluminum
  7
SLDTEXTSTYLE0
 73
     1
 44
1.0
  0
MTEXT
  5
47
330
41
100
AcDbEntity
  8
0
  6
Continuous
 62
     0
370
     0
100
AcDbMText
 10
0.0
 20
-6.5608147359
 30
0.0
 40
4.7625
 41
0.0
 71
     1
 72
     1
  1
Scale= 1:2
  7
SLDTEXTSTYLE0
 73
     1
 44
1.0
  0
MTEXT
  5
48
330
41
100
AcDbEntity
  8
0
  6
Continuous
 62
     0
370
     0
100
AcDbMText
 10
0.0
 20
-19.2608145824
 30
0.0
 40
4.7625
 41
0.0
 71
     1
 72
     1
  1
Brett Graham
  7
SLDTEXTSTYLE0
 73
     1
 44
1.0
  0
MTEXT
  5
49
330
41
100
AcDbEntity
  8
0
  6
Continuous
 62
     0
370
     0
100
AcDbMText
 10
0.0
 20
-25.6108145056
 30
0.0
 40
4.7625
 41
0.0
 71
     1
 72
     1
  1
rippleArm rev.A
  7
SLDTEXTSTYLE0
 73
     1
 44
1.0
  0
MTEXT
  5
4A
330
41
100
AcDbEntity
  8
0
  6
Continuous
 62
     0
370
     0
100
AcDbMText
 10
0.0
 20
-31.9608144289
 30
0.0
 40
4.7625
 41
0.0
 71
     1
 72
     1
  1
Date: 6-14-10
  7
SLDTEXTSTYLE0
 73
     1
 44
1.0
  0
ENDBLK
  5
43
330
41
100
AcDbEntity
  8
0
100
AcDbBlockEnd
  0
BLOCK
  5
63
330
62
100
AcDbEntity
  8
0
100
AcDbBlockBegin
  2
*D2
 70
     1
 10
0.0
 20
0.0
 30
0.0
  3
*D2
  1

  0
ARC
  5
65
330
62
100
AcDbEntity
  8
0
  6
Continuous
 62
     7
370
     0
100
AcDbCircle
 10
112.2077756154
 20
139.3958309013
 30
0.0
 40
11.26853276320764
100
AcDbArc
 50
153.4349488229
 51
206.5650511771
  0
ARC
  5
66
330
62
100
AcDbEntity
  8
0
  6
Continuous
 62
     7
370
     0
100
AcDbCircle
 10
106.2408750117
 20
139.3958309013
 30
0.0
 40
11.26853276320766
100
AcDbArc
 50
333.4349488229
 51
26.5650511771
  0
SOLID
  5
67
330
62
100
AcDbEntity
  8
0
  6
Continuous
 62
     7
370
     0
100
AcDbTrace
 10
127.6832228571
 20
139.3958309013
 30
0.0
 11
124.3812228571
 21
139.9038309013
 31
0.0
 12
124.3812228571
 22
138.8878309013
 32
0.0
 13
124.3812228571
 23
138.8878309013
 33
0.0
  0
SOLID
  5
68
330
62
100
AcDbEntity
  8
0
  6
Continuous
 62
     7
370
     0
100
AcDbTrace
 10
121.6832228571
 20
139.3958309013
 30
0.0
 11
124.9852228571
 21
138.8878309013
 31
0.0
 12
124.9852228571
 22
139.9038309013
 32
0.0
 13
124.9852228571
 23
139.9038309013
 33
0.0
  0
LINE
  5
69
330
62
100
AcDbEntity
  8
0
  6
Continuous
 62
     7
370
     0
100
AcDbLine
 10
105.004743075
 20
144.0573138753
 30
0.0
 11
105.004743075
 21
139.7737889802
 31
0.0
  0
LINE
  5
6A
330
62
100
AcDbEntity
  8
0
  6
Continuous
 62
     7
370
     0
100
AcDbLine
 10
105.004743075
 20
139.7737889802
 30
0.0
 11
105.6489178579
 21
139.7737889802
 31
0.0
  0
LINE
  5
6B
330
62
100
AcDbEntity
  8
0
  6
Continuous
 62
     7
370
     0
100
AcDbLine
 10
105.004743075
 20
144.0573138753
 30
0.0
 11
105.6489178579
 21
144.0573138753
 31
0.0
  0
LINE
  5
6C
330
62
100
AcDbEntity
  8
0
  6
Continuous
 62
     7
370
     0
100
AcDbLine
 10
113.4439075521
 20
144.0573138753
 30
0.0
 11
113.4439075521
 21
139.7737889802
 31
0.0
  0
LINE
  5
6D
330
62
100
AcDbEntity
  8
0
  6
Continuous
 62
     7
370
     0
100
AcDbLine
 10
113.4439075521
 20
139.7737889802
 30
0.0
 11
112.7997327692
 21
139.7737889802
 31
0.0
  0
LINE
  5
6E
330
62
100
AcDbEntity
  8
0
  6
Continuous
 62
     7
370
     0
100
AcDbLine
 10
113.4439075521
 20
144.0573138753
 30
0.0
 11
112.7997327692
 21
144.0573138753
 31
0.0
  0
LINE
  5
6F
330
62
100
AcDbEntity
  8
0
  6
Continuous
 62
     7
370
     0
100
AcDbLine
 10
127.6832228571
 20
128.4347714286
 30
0.0
 11
127.6832228571
 21
142.5708309013
 31
0.0
  0
LINE
  5
70
330
62
100
AcDbEntity
  8
0
  6
Continuous
 62
     7
370
     0
100
AcDbLine
 10
121.6832228571
 20
128.4347714286
 30
0.0
 11
121.6832228571
 21
142.5708309013
 31
0.0
  0
LINE
  5
71
330
62
100
AcDbEntity
  8
0
  6
Continuous
 62
     7
370
     0
100
AcDbLine
 10
127.6832228571
 20
139.3958309013
 30
0.0
 11
121.6832228571
 21
139.3958309013
 31
0.0
  0
MTEXT
  5
72
330
62
100
AcDbEntity
  8
0
  6
Continuous
 62
     7
370
     0
100
AcDbMText
 10
106.8787060797
 20
138.4491802712
 30
0.0
 40
3.175
 41
0.0
 71
     1
 72
     1
  1
12
  7
SLDTEXTSTYLE0
 73
     1
 44
1.0
  0
MTEXT
  5
73
330
62
100
AcDbEntity
  8
0
  6
Continuous
 62
     7
370
     0
100
AcDbMText
 10
106.2930926407
 20
143.4886213243
 30
0.0
 40
3.175
 41
0.0
 71
     1
 72
     1
  1
.47
  7
SLDTEXTSTYLE0
 73
     1
 44
1.0
  0
ENDBLK
  5
64
330
62
100
AcDbEntity
  8
0
100
AcDbBlockEnd
  0
BLOCK
  5
76
330
75
100
AcDbEntity
  8
0
100
AcDbBlockBegin
  2
*D3
 70
     1
 10
0.0
 20
0.0
 30
0.0
  3
*D3
  1

  0
ARC
  5
78
330
75
100
AcDbEntity
  8
0
  6
Continuous
 62
     7
370
     0
100
AcDbCircle
 10
166.8390356775
 20
139.3958309013
 30
0.0
 40
11.26853276320764
100
AcDbArc
 50
153.4349488229
 51
206.5650511771
  0
ARC
  5
79
330
75
100
AcDbEntity
  8
0
  6
Continuous
 62
     7
370
     0
100
AcDbCircle
 10
160.8721350737
 20
139.3958309013
 30
0.0
 40
11.26853276320764
100
AcDbArc
 50
333.4349488229
 51
26.5650511771
  0
SOLID
  5
7A
330
75
100
AcDbEntity
  8
0
  6
Continuous
 62
     7
370
     0
100
AcDbTrace
 10
152.6832228571
 20
139.3958309013
 30
0.0
 11
149.3812228571
 21
139.9038309013
 31
0.0
 12
149.3812228571
 22
138.8878309013
 32
0.0
 13
149.3812228571
 23
138.8878309013
 33
0.0
  0
SOLID
  5
7B
330
75
100
AcDbEntity
  8
0
  6
Continuous
 62
     7
370
     0
100
AcDbTrace
 10
146.6832228571
 20
139.3958309013
 30
0.0
 11
149.9852228571
 21
138.8878309013
 31
0.0
 12
149.9852228571
 22
139.9038309013
 32
0.0
 13
149.9852228571
 23
139.9038309013
 33
0.0
  0
LINE
  5
7C
330
75
100
AcDbEntity
  8
0
  6
Continuous
 62
     7
370
     0
100
AcDbLine
 10
159.6360031371
 20
144.0573138753
 30
0.0
 11
159.6360031371
 21
139.7737889802
 31
0.0
  0
LINE
  5
7D
330
75
100
AcDbEntity
  8
0
  6
Continuous
 62
     7
370
     0
100
AcDbLine
 10
159.6360031371
 20
139.7737889802
 30
0.0
 11
160.2801779199
 21
139.7737889802
 31
0.0
  0
LINE
  5
7E
330
75
100
AcDbEntity
  8
0
  6
Continuous
 62
     7
370
     0
100
AcDbLine
 10
159.6360031371
 20
144.0573138753
 30
0.0
 11
160.2801779199
 21
144.0573138753
 31
0.0
  0
LINE
  5
7F
330
75
100
AcDbEntity
  8
0
  6
Continuous
 62
     7
370
     0
100
AcDbLine
 10
168.0751676141
 20
144.0573138753
 30
0.0
 11
168.0751676141
 21
139.7737889802
 31
0.0
  0
LINE
  5
80
330
75
100
AcDbEntity
  8
0
  6
Continuous
 62
     7
370
     0
100
AcDbLine
 10
168.0751676141
 20
139.7737889802
 30
0.0
 11
167.4309928313
 21
139.7737889802
 31
0.0
  0
LINE
  5
81
330
75
100
AcDbEntity
  8
0
  6
Continuous
 62
     7
370
     0
100
AcDbLine
 10
168.0751676141
 20
144.0573138753
 30
0.0
 11
167.4309928313
 21
144.0573138753
 31
0.0
  0
LINE
  5
82
330
75
100
AcDbEntity
  8
0
  6
Continuous
 62
     7
370
     0
100
AcDbLine
 10
152.6832228571
 20
128.4347714286
 30
0.0
 11
152.6832228571
 21
142.5708309013
 31
0.0
  0
LINE
  5
83
330
75
100
AcDbEntity
  8
0
  6
Continuous
 62
     7
370
     0
100
AcDbLine
 10
146.6832228571
 20
128.4347714286
 30
0.0
 11
146.6832228571
 21
142.5708309013
 31
0.0
  0
LINE
  5
84
330
75
100
AcDbEntity
  8
0
  6
Continuous
 62
     7
370
     0
100
AcDbLine
 10
146.6832228571
 20
139.3958309013
 30
0.0
 11
152.6832228571
 21
139.3958309013
 31
0.0
  0
MTEXT
  5
85
330
75
100
AcDbEntity
  8
0
  6
Continuous
 62
     7
370
     0
100
AcDbMText
 10
161.5099661417
 20
138.4491802712
 30
0.0
 40
3.175
 41
0.0
 71
     1
 72
     1
  1
12
  7
SLDTEXTSTYLE0
 73
     1
 44
1.0
  0
MTEXT
  5
86
330
75
100
AcDbEntity
  8
0
  6
Continuous
 62
     7
370
     0
100
AcDbMText
 10
160.9243527028
 20
143.4886213243
 30
0.0
 40
3.175
 41
0.0
 71
     1
 72
     1
  1
.47
  7
SLDTEXTSTYLE0
 73
     1
 44
1.0
  0
ENDBLK
  5
77
330
75
100
AcDbEntity
  8
0
100
AcDbBlockEnd
  0
BLOCK
  5
89
330
88
100
AcDbEntity
  8
0
100
AcDbBlockBegin
  2
*D4
 70
     1
 10
0.0
 20
0.0
 30
0.0
  3
*D4
  1

  0
ARC
  5
8B
330
88
100
AcDbEntity
  8
0
  6
Continuous
 62
     7
370
     0
100
AcDbCircle
 10
165.6678087996
 20
151.9171180991
 30
0.0
 40
11.26853276320761
100
AcDbArc
 50
153.4349488229
 51
206.5650511771
  0
ARC
  5
8C
330
88
100
AcDbEntity
  8
0
  6
Continuous
 62
     7
370
     0
100
AcDbCircle
 10
162.0433619516
 20
151.9171180991
 30
0.0
 40
11.26853276320761
100
AcDbArc
 50
333.4349488229
 51
26.5650511771
  0
SOLID
  5
8D
330
88
100
AcDbEntity
  8
0
  6
Continuous
 62
     7
370
     0
100
AcDbTrace
 10
127.6832228571
 20
151.9171180991
 30
0.0
 11
130.9852228571
 21
151.4091180991
 31
0.0
 12
130.9852228571
 22
152.4251180991
 32
0.0
 13
130.9852228571
 23
152.4251180991
 33
0.0
  0
SOLID
  5
8E
330
88
100
AcDbEntity
  8
0
  6
Continuous
 62
     7
370
     0
100
AcDbTrace
 10
146.6832228571
 20
151.9171180991
 30
0.0
 11
143.3812228571
 21
152.4251180991
 31
0.0
 12
143.3812228571
 22
151.4091180991
 32
0.0
 13
143.3812228571
 23
151.4091180991
 33
0.0
  0
LINE
  5
8F
330
88
100
AcDbEntity
  8
0
  6
Continuous
 62
     7
370
     0
100
AcDbLine
 10
158.4647762592
 20
156.5786010732
 30
0.0
 11
158.4647762592
 21
152.2950761781
 31
0.0
  0
LINE
  5
90
330
88
100
AcDbEntity
  8
0
  6
Continuous
 62
     7
370
     0
100
AcDbLine
 10
158.4647762592
 20
152.2950761781
 30
0.0
 11
159.108951042
 21
152.2950761781
 31
0.0
  0
LINE
  5
91
330
88
100
AcDbEntity
  8
0
  6
Continuous
 62
     7
370
     0
100
AcDbLine
 10
158.4647762592
 20
156.5786010732
 30
0.0
 11
159.108951042
 21
156.5786010732
 31
0.0
  0
LINE
  5
92
330
88
100
AcDbEntity
  8
0
  6
Continuous
 62
     7
370
     0
100
AcDbLine
 10
169.246394492
 20
156.5786010732
 30
0.0
 11
169.246394492
 21
152.2950761781
 31
0.0
  0
LINE
  5
93
330
88
100
AcDbEntity
  8
0
  6
Continuous
 62
     7
370
     0
100
AcDbLine
 10
169.246394492
 20
152.2950761781
 30
0.0
 11
168.6022197092
 21
152.2950761781
 31
0.0
  0
LINE
  5
94
330
88
100
AcDbEntity
  8
0
  6
Continuous
 62
     7
370
     0
100
AcDbLine
 10
169.246394492
 20
156.5786010732
 30
0.0
 11
168.6022197092
 21
156.5786010732
 31
0.0
  0
LINE
  5
95
330
88
100
AcDbEntity
  8
0
  6
Continuous
 62
     7
370
     0
100
AcDbLine
 10
127.6832228571
 20
115.9347714286
 30
0.0
 11
127.6832228571
 21
155.0921180991
 31
0.0
  0
LINE
  5
96
330
88
100
AcDbEntity
  8
0
  6
Continuous
 62
     7
370
     0
100
AcDbLine
 10
146.6832228571
 20
115.9347714286
 30
0.0
 11
146.6832228571
 21
155.0921180991
 31
0.0
  0
LINE
  5
97
330
88
100
AcDbEntity
  8
0
  6
Continuous
 62
     7
370
     0
100
AcDbLine
 10
127.6832228571
 20
151.9171180991
 30
0.0
 11
146.6832228571
 21
151.9171180991
 31
0.0
  0
LINE
  5
98
330
88
100
AcDbEntity
  8
0
  6
Continuous
 62
     7
370
     0
100
AcDbLine
 10
146.6832228571
 20
151.9171180991
 30
0.0
 11
150.1363779964
 21
151.9171180991
 31
0.0
  0
MTEXT
  5
99
330
88
100
AcDbEntity
  8
0
  6
Continuous
 62
     7
370
     0
100
AcDbMText
 10
161.5099661417
 20
150.9704674691
 30
0.0
 40
3.175
 41
0.0
 71
     1
 72
     1
  1
38
  7
SLDTEXTSTYLE0
 73
     1
 44
1.0
  0
MTEXT
  5
9A
330
88
100
AcDbEntity
  8
0
  6
Continuous
 62
     7
370
     0
100
AcDbMText
 10
159.7531258249
 20
156.0099085221
 30
0.0
 40
3.175
 41
0.0
 71
     1
 72
     1
  1
1.50
  7
SLDTEXTSTYLE0
 73
     1
 44
1.0
  0
ENDBLK
  5
8A
330
88
100
AcDbEntity
  8
0
100
AcDbBlockEnd
  0
BLOCK
  5
9D
330
9C
100
AcDbEntity
  8
0
100
AcDbBlockBegin
  2
*D5
 70
     1
 10
0.0
 20
0.0
 30
0.0
  3
*D5
  1

  0
ARC
  5
9F
330
9C
100
AcDbEntity
  8
0
  6
Continuous
 62
     7
370
     0
100
AcDbCircle
 10
139.0268646506
 20
163.9171180991
 30
0.0
 40
11.26853276320766
100
AcDbArc
 50
153.4349488229
 51
206.5650511771
  0
ARC
  5
A0
330
9C
100
AcDbEntity
  8
0
  6
Continuous
 62
     7
370
     0
100
AcDbCircle
 10
135.4024178026
 20
163.9171180991
 30
0.0
 40
11.26853276320769
100
AcDbArc
 50
333.4349488229
 51
26.5650511771
  0
SOLID
  5
A1
330
9C
100
AcDbEntity
  8
0
  6
Continuous
 62
     7
370
     0
100
AcDbTrace
 10
121.6832228571
 20
163.9171180991
 30
0.0
 11
124.9852228571
 21
163.4091180991
 31
0.0
 12
124.9852228571
 22
164.4251180991
 32
0.0
 13
124.9852228571
 23
164.4251180991
 33
0.0
  0
SOLID
  5
A2
330
9C
100
AcDbEntity
  8
0
  6
Continuous
 62
     7
370
     0
100
AcDbTrace
 10
152.6832228571
 20
163.9171180991
 30
0.0
 11
149.3812228571
 21
164.4251180991
 31
0.0
 12
149.3812228571
 22
163.4091180991
 32
0.0
 13
149.3812228571
 23
163.4091180991
 33
0.0
  0
LINE
  5
A3
330
9C
100
AcDbEntity
  8
0
  6
Continuous
 62
     7
370
     0
100
AcDbLine
 10
131.8238321102
 20
168.5786010732
 30
0.0
 11
131.8238321102
 21
164.2950761781
 31
0.0
  0
LINE
  5
A4
330
9C
100
AcDbEntity
  8
0
  6
Continuous
 62
     7
370
     0
100
AcDbLine
 10
131.8238321102
 20
164.2950761781
 30
0.0
 11
132.468006893
 21
164.2950761781
 31
0.0
  0
LINE
  5
A5
330
9C
100
AcDbEntity
  8
0
  6
Continuous
 62
     7
370
     0
100
AcDbLine
 10
131.8238321102
 20
168.5786010732
 30
0.0
 11
132.468006893
 21
168.5786010732
 31
0.0
  0
LINE
  5
A6
330
9C
100
AcDbEntity
  8
0
  6
Continuous
 62
     7
370
     0
100
AcDbLine
 10
142.605450343
 20
168.5786010732
 30
0.0
 11
142.605450343
 21
164.2950761781
 31
0.0
  0
LINE
  5
A7
330
9C
100
AcDbEntity
  8
0
  6
Continuous
 62
     7
370
     0
100
AcDbLine
 10
142.605450343
 20
164.2950761781
 30
0.0
 11
141.9612755602
 21
164.2950761781
 31
0.0
  0
LINE
  5
A8
330
9C
100
AcDbEntity
  8
0
  6
Continuous
 62
     7
370
     0
100
AcDbLine
 10
142.605450343
 20
168.5786010732
 30
0.0
 11
141.9612755602
 21
168.5786010732
 31
0.0
  0
LINE
  5
A9
330
9C
100
AcDbEntity
  8
0
  6
Continuous
 62
     7
370
     0
100
AcDbLine
 10
121.6832228571
 20
128.4347714286
 30
0.0
 11
121.6832228571
 21
167.0921180991
 31
0.0
  0
LINE
  5
AA
330
9C
100
AcDbEntity
  8
0
  6
Continuous
 62
     7
370
     0
100
AcDbLine
 10
152.6832228571
 20
128.4347714286
 30
0.0
 11
152.6832228571
 21
167.0921180991
 31
0.0
  0
LINE
  5
AB
330
9C
100
AcDbEntity
  8
0
  6
Continuous
 62
     7
370
     0
100
AcDbLine
 10
121.6832228571
 20
163.9171180991
 30
0.0
 11
123.4954338474
 21
163.9171180991
 31
0.0
  0
LINE
  5
AC
330
9C
100
AcDbEntity
  8
0
  6
Continuous
 62
     7
370
     0
100
AcDbLine
 10
152.6832228571
 20
163.9171180991
 30
0.0
 11
150.9338486058
 21
163.9171180991
 31
0.0
  0
MTEXT
  5
AD
330
9C
100
AcDbEntity
  8
0
  6
Continuous
 62
     7
370
     0
100
AcDbMText
 10
134.8690219927
 20
162.9704674691
 30
0.0
 40
3.175
 41
0.0
 71
     1
 72
     1
  1
62
  7
SLDTEXTSTYLE0
 73
     1
 44
1.0
  0
MTEXT
  5
AE
330
9C
100
AcDbEntity
  8
0
  6
Continuous
 62
     7
370
     0
100
AcDbMText
 10
133.1121816759
 20
168.0099085221
 30
0.0
 40
3.175
 41
0.0
 71
     1
 72
     1
  1
2.44
  7
SLDTEXTSTYLE0
 73
     1
 44
1.0
  0
ENDBLK
  5
9E
330
9C
100
AcDbEntity
  8
0
100
AcDbBlockEnd
  0
BLOCK
  5
B1
330
B0
100
AcDbEntity
  8
0
100
AcDbBlockBegin
  2
*D6
 70
     1
 10
0.0
 20
0.0
 30
0.0
  3
*D6
  1

  0
ARC
  5
B3
330
B0
100
AcDbEntity
  8
0
  6
Continuous
 62
     7
370
     0
100
AcDbCircle
 10
217.7387093294
 20
117.7174996243
 30
0.0
 40
11.26853276320761
100
AcDbArc
 50
153.4349488229
 51
206.5650511771
  0
ARC
  5
B4
330
B0
100
AcDbEntity
  8
0
  6
Continuous
 62
     7
370
     0
100
AcDbCircle
 10
214.1142624814
 20
117.7174996243
 30
0.0
 40
11.26853276320758
100
AcDbArc
 50
333.4349488229
 51
26.5650511771
  0
SOLID
  5
B5
330
B0
100
AcDbEntity
  8
0
  6
Continuous
 62
     7
370
     0
100
AcDbTrace
 10
215.9264859054
 20
108.6647714286
 30
0.0
 11
216.4344859054
 21
111.9667714286
 31
0.0
 12
215.4184859054
 22
111.9667714286
 32
0.0
 13
215.4184859054
 23
111.9667714286
 33
0.0
  0
SOLID
  5
B6
330
B0
100
AcDbEntity
  8
0
  6
Continuous
 62
     7
370
     0
100
AcDbTrace
 10
215.9264859054
 20
127.1647714286
 30
0.0
 11
215.4184859054
 21
123.8627714286
 31
0.0
 12
216.4344859054
 22
123.8627714286
 32
0.0
 13
216.4344859054
 23
123.8627714286
 33
0.0
  0
LINE
  5
B7
330
B0
100
AcDbEntity
  8
0
  6
Continuous
 62
     7
370
     0
100
AcDbLine
 10
210.535676789
 20
122.3789825984
 30
0.0
 11
210.535676789
 21
118.0954577033
 31
0.0
  0
LINE
  5
B8
330
B0
100
AcDbEntity
  8
0
  6
Continuous
 62
     7
370
     0
100
AcDbLine
 10
210.535676789
 20
118.0954577033
 30
0.0
 11
211.1798515718
 21
118.0954577033
 31
0.0
  0
LINE
  5
B9
330
B0
100
AcDbEntity
  8
0
  6
Continuous
 62
     7
370
     0
100
AcDbLine
 10
210.535676789
 20
122.3789825984
 30
0.0
 11
211.1798515718
 21
122.3789825984
 31
0.0
  0
LINE
  5
BA
330
B0
100
AcDbEntity
  8
0
  6
Continuous
 62
     7
370
     0
100
AcDbLine
 10
221.3172950218
 20
122.3789825984
 30
0.0
 11
221.3172950218
 21
118.0954577033
 31
0.0
  0
LINE
  5
BB
330
B0
100
AcDbEntity
  8
0
  6
Continuous
 62
     7
370
     0
100
AcDbLine
 10
221.3172950218
 20
118.0954577033
 30
0.0
 11
220.673120239
 21
118.0954577033
 31
0.0
  0
LINE
  5
BC
330
B0
100
AcDbEntity
  8
0
  6
Continuous
 62
     7
370
     0
100
AcDbLine
 10
221.3172950218
 20
122.3789825984
 30
0.0
 11
220.673120239
 21
122.3789825984
 31
0.0
  0
LINE
  5
BD
330
B0
100
AcDbEntity
  8
0
  6
Continuous
 62
     7
370
     0
100
AcDbLine
 10
153.9532228571
 20
108.6647714286
 30
0.0
 11
219.1014859054
 21
108.6647714286
 31
0.0
  0
LINE
  5
BE
330
B0
100
AcDbEntity
  8
0
  6
Continuous
 62
     7
370
     0
100
AcDbLine
 10
153.9532228571
 20
127.1647714286
 30
0.0
 11
219.1014859054
 21
127.1647714286
 31
0.0
  0
LINE
  5
BF
330
B0
100
AcDbEntity
  8
0
  6
Continuous
 62
     7
370
     0
100
AcDbLine
 10
215.9264859054
 20
108.6647714286
 30
0.0
 11
215.9264859054
 21
112.6780585713
 31
0.0
  0
LINE
  5
C0
330
B0
100
AcDbEntity
  8
0
  6
Continuous
 62
     7
370
     0
100
AcDbLine
 10
215.9264859054
 20
127.1647714286
 30
0.0
 11
215.9264859054
 21
122.7569406774
 31
0.0
  0
MTEXT
  5
C1
330
B0
100
AcDbEntity
  8
0
  6
Continuous
 62
     7
370
     0
100
AcDbMText
 10
213.5808666715
 20
116.7708489943
 30
0.0
 40
3.175
 41
0.0
 71
     1
 72
     1
  1
37
  7
SLDTEXTSTYLE0
 73
     1
 44
1.0
  0
MTEXT
  5
C2
330
B0
100
AcDbEntity
  8
0
  6
Continuous
 62
     7
370
     0
100
AcDbMText
 10
211.8240263547
 20
121.8102900473
 30
0.0
 40
3.175
 41
0.0
 71
     1
 72
     1
  1
1.46
  7
SLDTEXTSTYLE0
 73
     1
 44
1.0
  0
ENDBLK
  5
B2
330
B0
100
AcDbEntity
  8
0
100
AcDbBlockEnd
  0
BLOCK
  5
C5
330
C4
100
AcDbEntity
  8
0
100
AcDbBlockBegin
  2
*D7
 70
     1
 10
0.0
 20
0.0
 30
0.0
  3
*D7
  1

  0
ARC
  5
C7
330
C4
100
AcDbEntity
  8
0
  6
Continuous
 62
     7
370
     0
100
AcDbCircle
 10
217.7387093294
 20
84.7582070412
 30
0.0
 40
11.26853276320761
100
AcDbArc
 50
153.4349488229
 51
206.5650511771
  0
ARC
  5
C8
330
C4
100
AcDbEntity
  8
0
  6
Continuous
 62
     7
370
     0
100
AcDbCircle
 10
214.1142624814
 20
84.7582070412
 30
0.0
 40
11.26853276320758
100
AcDbArc
 50
333.4349488229
 51
26.5650511771
  0
SOLID
  5
C9
330
C4
100
AcDbEntity
  8
0
  6
Continuous
 62
     7
370
     0
100
AcDbTrace
 10
215.9264859054
 20
108.6647714286
 30
0.0
 11
215.4184859054
 21
105.3627714286
 31
0.0
 12
216.4344859054
 22
105.3627714286
 32
0.0
 13
216.4344859054
 23
105.3627714286
 33
0.0
  0
SOLID
  5
CA
330
C4
100
AcDbEntity
  8
0
  6
Continuous
 62
     7
370
     0
100
AcDbTrace
 10
215.9264859054
 20
65.6647714286
 30
0.0
 11
216.4344859054
 21
68.9667714286
 31
0.0
 12
215.4184859054
 22
68.9667714286
 32
0.0
 13
215.4184859054
 23
68.9667714286
 33
0.0
  0
LINE
  5
CB
330
C4
100
AcDbEntity
  8
0
  6
Continuous
 62
     7
370
     0
100
AcDbLine
 10
210.535676789
 20
89.4196900153
 30
0.0
 11
210.535676789
 21
85.1361651202
 31
0.0
  0
LINE
  5
CC
330
C4
100
AcDbEntity
  8
0
  6
Continuous
 62
     7
370
     0
100
AcDbLine
 10
210.535676789
 20
85.1361651202
 30
0.0
 11
211.1798515718
 21
85.1361651202
 31
0.0
  0
LINE
  5
CD
330
C4
100
AcDbEntity
  8
0
  6
Continuous
 62
     7
370
     0
100
AcDbLine
 10
210.535676789
 20
89.4196900153
 30
0.0
 11
211.1798515718
 21
89.4196900153
 31
0.0
  0
LINE
  5
CE
330
C4
100
AcDbEntity
  8
0
  6
Continuous
 62
     7
370
     0
100
AcDbLine
 10
221.3172950218
 20
89.4196900153
 30
0.0
 11
221.3172950218
 21
85.1361651202
 31
0.0
  0
LINE
  5
CF
330
C4
100
AcDbEntity
  8
0
  6
Continuous
 62
     7
370
     0
100
AcDbLine
 10
221.3172950218
 20
85.1361651202
 30
0.0
 11
220.673120239
 21
85.1361651202
 31
0.0
  0
LINE
  5
D0
330
C4
100
AcDbEntity
  8
0
  6
Continuous
 62
     7
370
     0
100
AcDbLine
 10
221.3172950218
 20
89.4196900153
 30
0.0
 11
220.673120239
 21
89.4196900153
 31
0.0
  0
LINE
  5
D1
330
C4
100
AcDbEntity
  8
0
  6
Continuous
 62
     7
370
     0
100
AcDbLine
 10
140.9532228571
 20
108.6647714286
 30
0.0
 11
219.1014859054
 21
108.6647714286
 31
0.0
  0
LINE
  5
D2
330
C4
100
AcDbEntity
  8
0
  6
Continuous
 62
     7
370
     0
100
AcDbLine
 10
140.9532228571
 20
65.6647714286
 30
0.0
 11
219.1014859054
 21
65.6647714286
 31
0.0
  0
LINE
  5
D3
330
C4
100
AcDbEntity
  8
0
  6
Continuous
 62
     7
370
     0
100
AcDbLine
 10
215.9264859054
 20
108.6647714286
 30
0.0
 11
215.9264859054
 21
89.7976480943
 31
0.0
  0
LINE
  5
D4
330
C4
100
AcDbEntity
  8
0
  6
Continuous
 62
     7
370
     0
100
AcDbLine
 10
215.9264859054
 20
65.6647714286
 30
0.0
 11
215.9264859054
 21
79.7187659882
 31
0.0
  0
MTEXT
  5
D5
330
C4
100
AcDbEntity
  8
0
  6
Continuous
 62
     7
370
     0
100
AcDbMText
 10
213.5808666715
 20
83.8115564112
 30
0.0
 40
3.175
 41
0.0
 71
     1
 72
     1
  1
86
  7
SLDTEXTSTYLE0
 73
     1
 44
1.0
  0
MTEXT
  5
D6
330
C4
100
AcDbEntity
  8
0
  6
Continuous
 62
     7
370
     0
100
AcDbMText
 10
211.8240263547
 20
88.8509974643
 30
0.0
 40
3.175
 41
0.0
 71
     1
 72
     1
  1
3.39
  7
SLDTEXTSTYLE0
 73
     1
 44
1.0
  0
ENDBLK
  5
C6
330
C4
100
AcDbEntity
  8
0
100
AcDbBlockEnd
  0
BLOCK
  5
D9
330
D8
100
AcDbEntity
  8
0
100
AcDbBlockBegin
  2
*D8
 70
     1
 10
0.0
 20
0.0
 30
0.0
  3
*D8
  1

  0
ARC
  5
DB
330
D8
100
AcDbEntity
  8
0
  6
Continuous
 62
     7
370
     0
100
AcDbCircle
 10
104.6957729721
 20
49.3527135632
 30
0.0
 40
11.26853276320759
100
AcDbArc
 50
153.4349488229
 51
206.5650511771
  0
ARC
  5
DC
330
D8
100
AcDbEntity
  8
0
  6
Continuous
 62
     7
370
     0
100
AcDbCircle
 10
101.0713261242
 20
49.3527135632
 30
0.0
 40
11.26853276320759
100
AcDbArc
 50
333.4349488229
 51
26.5650511771
  0
SOLID
  5
DD
330
D8
100
AcDbEntity
  8
0
  6
Continuous
 62
     7
370
     0
100
AcDbTrace
 10
124.6832228571
 20
49.3527135632
 30
0.0
 11
127.9852228571
 21
48.8447135632
 31
0.0
 12
127.9852228571
 22
49.8607135632
 32
0.0
 13
127.9852228571
 23
49.8607135632
 33
0.0
  0
SOLID
  5
DE
330
D8
100
AcDbEntity
  8
0
  6
Continuous
 62
     7
370
     0
100
AcDbTrace
 10
149.6832228571
 20
49.3527135632
 30
0.0
 11
146.3812228571
 21
49.8607135632
 31
0.0
 12
146.3812228571
 22
48.8447135632
 32
0.0
 13
146.3812228571
 23
48.8447135632
 33
0.0
  0
LINE
  5
DF
330
D8
100
AcDbEntity
  8
0
  6
Continuous
 62
     7
370
     0
100
AcDbLine
 10
97.4927404317
 20
54.0141965373
 30
0.0
 11
97.4927404317
 21
49.7306716422
 31
0.0
  0
LINE
  5
E0
330
D8
100
AcDbEntity
  8
0
  6
Continuous
 62
     7
370
     0
100
AcDbLine
 10
97.4927404317
 20
49.7306716422
 30
0.0
 11
98.1369152146
 21
49.7306716422
 31
0.0
  0
LINE
  5
E1
330
D8
100
AcDbEntity
  8
0
  6
Continuous
 62
     7
370
     0
100
AcDbLine
 10
97.4927404317
 20
54.0141965373
 30
0.0
 11
98.1369152146
 21
54.0141965373
 31
0.0
  0
LINE
  5
E2
330
D8
100
AcDbEntity
  8
0
  6
Continuous
 62
     7
370
     0
100
AcDbLine
 10
108.2743586645
 20
54.0141965373
 30
0.0
 11
108.2743586645
 21
49.7306716422
 31
0.0
  0
LINE
  5
E3
330
D8
100
AcDbEntity
  8
0
  6
Continuous
 62
     7
370
     0
100
AcDbLine
 10
108.2743586645
 20
49.7306716422
 30
0.0
 11
107.6301838817
 21
49.7306716422
 31
0.0
  0
LINE
  5
E4
330
D8
100
AcDbEntity
  8
0
  6
Continuous
 62
     7
370
     0
100
AcDbLine
 10
108.2743586645
 20
54.0141965373
 30
0.0
 11
107.6301838817
 21
54.0141965373
 31
0.0
  0
LINE
  5
E5
330
D8
100
AcDbEntity
  8
0
  6
Continuous
 62
     7
370
     0
100
AcDbLine
 10
124.6832228571
 20
107.4747714286
 30
0.0
 11
124.6832228571
 21
46.1777135632
 31
0.0
  0
LINE
  5
E6
330
D8
100
AcDbEntity
  8
0
  6
Continuous
 62
     7
370
     0
100
AcDbLine
 10
149.6832228571
 20
106.8897314286
 30
0.0
 11
149.6832228571
 21
46.1777135632
 31
0.0
  0
LINE
  5
E7
330
D8
100
AcDbEntity
  8
0
  6
Continuous
 62
     7
370
     0
100
AcDbLine
 10
124.6832228571
 20
49.3527135632
 30
0.0
 11
116.6027569273
 21
49.3527135632
 31
0.0
  0
LINE
  5
E8
330
D8
100
AcDbEntity
  8
0
  6
Continuous
 62
     7
370
     0
100
AcDbLine
 10
149.6832228571
 20
49.3527135632
 30
0.0
 11
124.6832228571
 21
49.3527135632
 31
0.0
  0
MTEXT
  5
E9
330
D8
100
AcDbEntity
  8
0
  6
Continuous
 62
     7
370
     0
100
AcDbMText
 10
100.5379303143
 20
48.4060629332
 30
0.0
 40
3.175
 41
0.0
 71
     1
 72
     1
  1
50
  7
SLDTEXTSTYLE0
 73
     1
 44
1.0
  0
MTEXT
  5
EA
330
D8
100
AcDbEntity
  8
0
  6
Continuous
 62
     7
370
     0
100
AcDbMText
 10
98.7810899974
 20
53.4455039863
 30
0.0
 40
3.175
 41
0.0
 71
     1
 72
     1
  1
1.97
  7
SLDTEXTSTYLE0
 73
     1
 44
1.0
  0
ENDBLK
  5
DA
330
D8
100
AcDbEntity
  8
0
100
AcDbBlockEnd
  0
BLOCK
  5
ED
330
EC
100
AcDbEntity
  8
0
100
AcDbBlockBegin
  2
*D9
 70
     1
 10
0.0
 20
0.0
 30
0.0
  3
*D9
  1

  0
ARC
  5
EF
330
EC
100
AcDbEntity
  8
0
  6
Continuous
 62
     7
370
     0
100
AcDbCircle
 10
76.9450946536
 20
129.8142246919
 30
0.0
 40
11.2685327632076
100
AcDbArc
 50
153.4349488229
 51
206.5650511771
  0
ARC
  5
F0
330
EC
100
AcDbEntity
  8
0
  6
Continuous
 62
     7
370
     0
100
AcDbCircle
 10
70.9781940499
 20
129.8142246919
 30
0.0
 40
11.26853276320761
100
AcDbArc
 50
333.4349488229
 51
26.5650511771
  0
SOLID
  5
F1
330
EC
100
AcDbEntity
  8
0
  6
Continuous
 62
     7
370
     0
100
AcDbTrace
 10
92.8596248531
 20
124.1647714286
 30
0.0
 11
92.3516248531
 21
120.8627714286
 31
0.0
 12
93.3676248531
 22
120.8627714286
 32
0.0
 13
93.3676248531
 23
120.8627714286
 33
0.0
  0
SOLID
  5
F2
330
EC
100
AcDbEntity
  8
0
  6
Continuous
 62
     7
370
     0
100
AcDbTrace
 10
92.8596248531
 20
111.6647714286
 30
0.0
 11
93.3676248531
 21
114.9667714286
 31
0.0
 12
92.3516248531
 22
114.9667714286
 32
0.0
 13
92.3516248531
 23
114.9667714286
 33
0.0
  0
LINE
  5
F3
330
EC
100
AcDbEntity
  8
0
  6
Continuous
 62
     7
370
     0
100
AcDbLine
 10
69.7420621133
 20
134.475707666
 30
0.0
 11
69.7420621133
 21
130.1921827709
 31
0.0
  0
LINE
  5
F4
330
EC
100
AcDbEntity
  8
0
  6
Continuous
 62
     7
370
     0
100
AcDbLine
 10
69.7420621133
 20
130.1921827709
 30
0.0
 11
70.3862368961
 21
130.1921827709
 31
0.0
  0
LINE
  5
F5
330
EC
100
AcDbEntity
  8
0
  6
Continuous
 62
     7
370
     0
100
AcDbLine
 10
69.7420621133
 20
134.475707666
 30
0.0
 11
70.3862368961
 21
134.475707666
 31
0.0
  0
LINE
  5
F6
330
EC
100
AcDbEntity
  8
0
  6
Continuous
 62
     7
370
     0
100
AcDbLine
 10
78.1812265903
 20
134.475707666
 30
0.0
 11
78.1812265903
 21
130.1921827709
 31
0.0
  0
LINE
  5
F7
330
EC
100
AcDbEntity
  8
0
  6
Continuous
 62
     7
370
     0
100
AcDbLine
 10
78.1812265903
 20
130.1921827709
 30
0.0
 11
77.5370518074
 21
130.1921827709
 31
0.0
  0
LINE
  5
F8
330
EC
100
AcDbEntity
  8
0
  6
Continuous
 62
     7
370
     0
100
AcDbLine
 10
78.1812265903
 20
134.475707666
 30
0.0
 11
77.5370518074
 21
134.475707666
 31
0.0
  0
LINE
  5
F9
330
EC
100
AcDbEntity
  8
0
  6
Continuous
 62
     7
370
     0
100
AcDbLine
 10
120.4932228571
 20
124.1647714286
 30
0.0
 11
89.6846248531
 21
124.1647714286
 31
0.0
  0
LINE
  5
FA
330
EC
100
AcDbEntity
  8
0
  6
Continuous
 62
     7
370
     0
100
AcDbLine
 10
120.4932228571
 20
111.6647714286
 30
0.0
 11
89.6846248531
 21
111.6647714286
 31
0.0
  0
LINE
  5
FB
330
EC
100
AcDbEntity
  8
0
  6
Continuous
 62
     7
370
     0
100
AcDbLine
 10
86.5096248531
 20
129.8142246919
 30
0.0
 11
92.8596248531
 21
129.8142246919
 31
0.0
  0
LINE
  5
FC
330
EC
100
AcDbEntity
  8
0
  6
Continuous
 62
     7
370
     0
100
AcDbLine
 10
92.8596248531
 20
129.8142246919
 30
0.0
 11
92.8596248531
 21
124.1647714286
 31
0.0
  0
LINE
  5
FD
330
EC
100
AcDbEntity
  8
0
  6
Continuous
 62
     7
370
     0
100
AcDbLine
 10
92.8596248531
 20
124.1647714286
 30
0.0
 11
92.8596248531
 21
111.6647714286
 31
0.0
  0
MTEXT
  5
FE
330
EC
100
AcDbEntity
  8
0
  6
Continuous
 62
     7
370
     0
100
AcDbMText
 10
71.6160251179
 20
128.8675740619
 30
0.0
 40
3.175
 41
0.0
 71
     1
 72
     1
  1
25
  7
SLDTEXTSTYLE0
 73
     1
 44
1.0
  0
MTEXT
  5
FF
330
EC
100
AcDbEntity
  8
0
  6
Continuous
 62
     7
370
     0
100
AcDbMText
 10
71.0304116789
 20
133.9070151149
 30
0.0
 40
3.175
 41
0.0
 71
     1
 72
     1
  1
.98
  7
SLDTEXTSTYLE0
 73
     1
 44
1.0
  0
ENDBLK
  5
EE
330
EC
100
AcDbEntity
  8
0
100
AcDbBlockEnd
  0
BLOCK
  5
102
330
101
100
AcDbEntity
  8
0
100
AcDbBlockBegin
  2
*D10
 70
     1
 10
0.0
 20
0.0
 30
0.0
  3
*D10
  1

  0
ARC
  5
104
330
101
100
AcDbEntity
  8
0
  6
Continuous
 62
     7
370
     0
100
AcDbCircle
 10
90.4905682153
 20
84.7582070412
 30
0.0
 40
11.2685327632076
100
AcDbArc
 50
153.4349488229
 51
206.5650511771
  0
ARC
  5
105
330
101
100
AcDbEntity
  8
0
  6
Continuous
 62
     7
370
     0
100
AcDbCircle
 10
84.5236676115
 20
84.7582070412
 30
0.0
 40
11.26853276320761
100
AcDbArc
 50
333.4349488229
 51
26.5650511771
  0
SOLID
  5
106
330
101
100
AcDbEntity
  8
0
  6
Continuous
 62
     7
370
     0
100
AcDbTrace
 10
106.4050984147
 20
78.6147714286
 30
0.0
 11
105.8970984147
 21
75.3127714286
 31
0.0
 12
106.9130984147
 22
75.3127714286
 32
0.0
 13
106.9130984147
 23
75.3127714286
 33
0.0
  0
SOLID
  5
107
330
101
100
AcDbEntity
  8
0
  6
Continuous
 62
     7
370
     0
100
AcDbTrace
 10
106.4050984147
 20
67.1647714286
 30
0.0
 11
106.9130984147
 21
70.4667714286
 31
0.0
 12
105.8970984147
 22
70.4667714286
 32
0.0
 13
105.8970984147
 23
70.4667714286
 33
0.0
  0
LINE
  5
108
330
101
100
AcDbEntity
  8
0
  6
Continuous
 62
     7
370
     0
100
AcDbLine
 10
83.2875356749
 20
89.4196900153
 30
0.0
 11
83.2875356749
 21
85.1361651202
 31
0.0
  0
LINE
  5
109
330
101
100
AcDbEntity
  8
0
  6
Continuous
 62
     7
370
     0
100
AcDbLine
 10
83.2875356749
 20
85.1361651202
 30
0.0
 11
83.9317104578
 21
85.1361651202
 31
0.0
  0
LINE
  5
10A
330
101
100
AcDbEntity
  8
0
  6
Continuous
 62
     7
370
     0
100
AcDbLine
 10
83.2875356749
 20
89.4196900153
 30
0.0
 11
83.9317104578
 21
89.4196900153
 31
0.0
  0
LINE
  5
10B
330
101
100
AcDbEntity
  8
0
  6
Continuous
 62
     7
370
     0
100
AcDbLine
 10
91.7267001519
 20
89.4196900153
 30
0.0
 11
91.7267001519
 21
85.1361651202
 31
0.0
  0
LINE
  5
10C
330
101
100
AcDbEntity
  8
0
  6
Continuous
 62
     7
370
     0
100
AcDbLine
 10
91.7267001519
 20
85.1361651202
 30
0.0
 11
91.0825253691
 21
85.1361651202
 31
0.0
  0
LINE
  5
10D
330
101
100
AcDbEntity
  8
0
  6
Continuous
 62
     7
370
     0
100
AcDbLine
 10
91.7267001519
 20
89.4196900153
 30
0.0
 11
91.0825253691
 21
89.4196900153
 31
0.0
  0
LINE
  5
10E
330
101
100
AcDbEntity
  8
0
  6
Continuous
 62
     7
370
     0
100
AcDbLine
 10
134.0182228571
 20
78.6147714286
 30
0.0
 11
103.2300984147
 21
78.6147714286
 31
0.0
  0
LINE
  5
10F
330
101
100
AcDbEntity
  8
0
  6
Continuous
 62
     7
370
     0
100
AcDbLine
 10
134.0182228571
 20
67.1647714286
 30
0.0
 11
103.2300984147
 21
67.1647714286
 31
0.0
  0
LINE
  5
110
330
101
100
AcDbEntity
  8
0
  6
Continuous
 62
     7
370
     0
100
AcDbLine
 10
100.0550984147
 20
84.7582070412
 30
0.0
 11
106.4050984147
 21
84.7582070412
 31
0.0
  0
LINE
  5
111
330
101
100
AcDbEntity
  8
0
  6
Continuous
 62
     7
370
     0
100
AcDbLine
 10
106.4050984147
 20
84.7582070412
 30
0.0
 11
106.4050984147
 21
78.6147714286
 31
0.0
  0
LINE
  5
112
330
101
100
AcDbEntity
  8
0
  6
Continuous
 62
     7
370
     0
100
AcDbLine
 10
106.4050984147
 20
78.6147714286
 30
0.0
 11
106.4050984147
 21
67.1647714286
 31
0.0
  0
MTEXT
  5
113
330
101
100
AcDbEntity
  8
0
  6
Continuous
 62
     7
370
     0
100
AcDbMText
 10
83.4046583627
 20
83.8115564112
 30
0.0
 40
3.175
 41
0.0
 71
     1
 72
     1
  1
22.9
  7
SLDTEXTSTYLE0
 73
     1
 44
1.0
  0
MTEXT
  5
114
330
101
100
AcDbEntity
  8
0
  6
Continuous
 62
     7
370
     0
100
AcDbMText
 10
84.5758852406
 20
88.8509974643
 30
0.0
 40
3.175
 41
0.0
 71
     1
 72
     1
  1
.90
  7
SLDTEXTSTYLE0
 73
     1
 44
1.0
  0
ENDBLK
  5
103
330
101
100
AcDbEntity
  8
0
100
AcDbBlockEnd
  0
BLOCK
  5
117
330
116
100
AcDbEntity
  8
0
100
AcDbBlockBegin
  2
*D11
 70
     1
 10
0.0
 20
0.0
 30
0.0
  3
*D11
  1

  0
ARC
  5
119
330
116
100
AcDbEntity
  8
0
  6
Continuous
 62
     7
370
     0
100
AcDbCircle
 10
90.4905682153
 20
61.8110348729
 30
0.0
 40
11.26853276320758
100
AcDbArc
 50
153.4349488229
 51
206.5650511771
  0
ARC
  5
11A
330
116
100
AcDbEntity
  8
0
  6
Continuous
 62
     7
370
     0
100
AcDbCircle
 10
84.5236676115
 20
61.8110348729
 30
0.0
 40
11.26853276320761
100
AcDbArc
 50
333.4349488229
 51
26.5650511771
  0
SOLID
  5
11B
330
116
100
AcDbEntity
  8
0
  6
Continuous
 62
     7
370
     0
100
AcDbTrace
 10
106.4050984147
 20
67.1647714286
 30
0.0
 11
105.8970984147
 21
63.8627714286
 31
0.0
 12
106.9130984147
 22
63.8627714286
 32
0.0
 13
106.9130984147
 23
63.8627714286
 33
0.0
  0
SOLID
  5
11C
330
116
100
AcDbEntity
  8
0
  6
Continuous
 62
     7
370
     0
100
AcDbTrace
 10
106.4050984147
 20
65.6647714286
 30
0.0
 11
106.9130984147
 21
68.9667714286
 31
0.0
 12
105.8970984147
 22
68.9667714286
 32
0.0
 13
105.8970984147
 23
68.9667714286
 33
0.0
  0
LINE
  5
11D
330
116
100
AcDbEntity
  8
0
  6
Continuous
 62
     7
370
     0
100
AcDbLine
 10
83.2875356749
 20
66.4725178469
 30
0.0
 11
83.2875356749
 21
62.1889929518
 31
0.0
  0
LINE
  5
11E
330
116
100
AcDbEntity
  8
0
  6
Continuous
 62
     7
370
     0
100
AcDbLine
 10
83.2875356749
 20
62.1889929518
 30
0.0
 11
83.9317104578
 21
62.1889929518
 31
0.0
  0
LINE
  5
11F
330
116
100
AcDbEntity
  8
0
  6
Continuous
 62
     7
370
     0
100
AcDbLine
 10
83.2875356749
 20
66.4725178469
 30
0.0
 11
83.9317104578
 21
66.4725178469
 31
0.0
  0
LINE
  5
120
330
116
100
AcDbEntity
  8
0
  6
Continuous
 62
     7
370
     0
100
AcDbLine
 10
91.7267001519
 20
66.4725178469
 30
0.0
 11
91.7267001519
 21
62.1889929518
 31
0.0
  0
LINE
  5
121
330
116
100
AcDbEntity
  8
0
  6
Continuous
 62
     7
370
     0
100
AcDbLine
 10
91.7267001519
 20
62.1889929518
 30
0.0
 11
91.0825253691
 21
62.1889929518
 31
0.0
  0
LINE
  5
122
330
116
100
AcDbEntity
  8
0
  6
Continuous
 62
     7
370
     0
100
AcDbLine
 10
91.7267001519
 20
66.4725178469
 30
0.0
 11
91.0825253691
 21
66.4725178469
 31
0.0
  0
LINE
  5
123
330
116
100
AcDbEntity
  8
0
  6
Continuous
 62
     7
370
     0
100
AcDbLine
 10
134.0182228571
 20
67.1647714286
 30
0.0
 11
103.2300984147
 21
67.1647714286
 31
0.0
  0
LINE
  5
124
330
116
100
AcDbEntity
  8
0
  6
Continuous
 62
     7
370
     0
100
AcDbLine
 10
133.4132228571
 20
65.6647714286
 30
0.0
 11
103.2300984147
 21
65.6647714286
 31
0.0
  0
LINE
  5
125
330
116
100
AcDbEntity
  8
0
  6
Continuous
 62
     7
370
     0
100
AcDbLine
 10
100.0550984147
 20
61.8110348729
 30
0.0
 11
106.4050984147
 21
61.8110348729
 31
0.0
  0
LINE
  5
126
330
116
100
AcDbEntity
  8
0
  6
Continuous
 62
     7
370
     0
100
AcDbLine
 10
106.4050984147
 20
61.8110348729
 30
0.0
 11
106.4050984147
 21
65.6647714286
 31
0.0
  0
LINE
  5
127
330
116
100
AcDbEntity
  8
0
  6
Continuous
 62
     7
370
     0
100
AcDbLine
 10
106.4050984147
 20
67.1647714286
 30
0.0
 11
106.4050984147
 21
65.6647714286
 31
0.0
  0
MTEXT
  5
128
330
116
100
AcDbEntity
  8
0
  6
Continuous
 62
     7
370
     0
100
AcDbMText
 10
86.3358910355
 20
60.8643842428
 30
0.0
 40
3.175
 41
0.0
 71
     1
 72
     1
  1
3
  7
SLDTEXTSTYLE0
 73
     1
 44
1.0
  0
MTEXT
  5
129
330
116
100
AcDbEntity
  8
0
  6
Continuous
 62
     7
370
     0
100
AcDbMText
 10
84.5758852406
 20
65.9038252959
 30
0.0
 40
3.175
 41
0.0
 71
     1
 72
     1
  1
.12
  7
SLDTEXTSTYLE0
 73
     1
 44
1.0
  0
ENDBLK
  5
118
330
116
100
AcDbEntity
  8
0
100
AcDbBlockEnd
  0
BLOCK
  5
12C
330
12B
100
AcDbEntity
  8
0
100
AcDbBlockBegin
  2
*D12
 70
     1
 10
0.0
 20
0.0
 30
0.0
  3
*D12
  1

  0
ARC
  5
12E
330
12B
100
AcDbEntity
  8
0
  6
Continuous
 62
     7
370
     0
100
AcDbCircle
 10
176.9099362073
 20
49.3527135632
 30
0.0
 40
11.26853276320761
100
AcDbArc
 50
153.4349488229
 51
206.5650511771
  0
ARC
  5
12F
330
12B
100
AcDbEntity
  8
0
  6
Continuous
 62
     7
370
     0
100
AcDbCircle
 10
170.9430356035
 20
49.3527135632
 30
0.0
 40
11.26853276320761
100
AcDbArc
 50
333.4349488229
 51
26.5650511771
  0
SOLID
  5
130
330
12B
100
AcDbEntity
  8
0
  6
Continuous
 62
     7
370
     0
100
AcDbTrace
 10
149.6832228571
 20
49.3527135632
 30
0.0
 11
152.9852228571
 21
48.8447135632
 31
0.0
 12
152.9852228571
 22
49.8607135632
 32
0.0
 13
152.9852228571
 23
49.8607135632
 33
0.0
  0
SOLID
  5
131
330
12B
100
AcDbEntity
  8
0
  6
Continuous
 62
     7
370
     0
100
AcDbTrace
 10
152.6832228571
 20
49.3527135632
 30
0.0
 11
149.3812228571
 21
49.8607135632
 31
0.0
 12
149.3812228571
 22
48.8447135632
 32
0.0
 13
149.3812228571
 23
48.8447135632
 33
0.0
  0
LINE
  5
132
330
12B
100
AcDbEntity
  8
0
  6
Continuous
 62
     7
370
     0
100
AcDbLine
 10
169.7069036669
 20
54.0141965373
 30
0.0
 11
169.7069036669
 21
49.7306716422
 31
0.0
  0
LINE
  5
133
330
12B
100
AcDbEntity
  8
0
  6
Continuous
 62
     7
370
     0
100
AcDbLine
 10
169.7069036669
 20
49.7306716422
 30
0.0
 11
170.3510784497
 21
49.7306716422
 31
0.0
  0
LINE
  5
134
330
12B
100
AcDbEntity
  8
0
  6
Continuous
 62
     7
370
     0
100
AcDbLine
 10
169.7069036669
 20
54.0141965373
 30
0.0
 11
170.3510784497
 21
54.0141965373
 31
0.0
  0
LINE
  5
135
330
12B
100
AcDbEntity
  8
0
  6
Continuous
 62
     7
370
     0
100
AcDbLine
 10
178.1460681439
 20
54.0141965373
 30
0.0
 11
178.1460681439
 21
49.7306716422
 31
0.0
  0
LINE
  5
136
330
12B
100
AcDbEntity
  8
0
  6
Continuous
 62
     7
370
     0
100
AcDbLine
 10
178.1460681439
 20
49.7306716422
 30
0.0
 11
177.5018933611
 21
49.7306716422
 31
0.0
  0
LINE
  5
137
330
12B
100
AcDbEntity
  8
0
  6
Continuous
 62
     7
370
     0
100
AcDbLine
 10
178.1460681439
 20
54.0141965373
 30
0.0
 11
177.5018933611
 21
54.0141965373
 31
0.0
  0
LINE
  5
138
330
12B
100
AcDbEntity
  8
0
  6
Continuous
 62
     7
370
     0
100
AcDbLine
 10
149.6832228571
 20
106.8897314286
 30
0.0
 11
149.6832228571
 21
46.1777135632
 31
0.0
  0
LINE
  5
139
330
12B
100
AcDbEntity
  8
0
  6
Continuous
 62
     7
370
     0
100
AcDbLine
 10
152.6832228571
 20
107.3947714286
 30
0.0
 11
152.6832228571
 21
46.1777135632
 31
0.0
  0
LINE
  5
13A
330
12B
100
AcDbEntity
  8
0
  6
Continuous
 62
     7
370
     0
100
AcDbLine
 10
149.6832228571
 20
49.3527135632
 30
0.0
 11
152.6832228571
 21
49.3527135632
 31
0.0
  0
LINE
  5
13B
330
12B
100
AcDbEntity
  8
0
  6
Continuous
 62
     7
370
     0
100
AcDbLine
 10
152.6832228571
 20
49.3527135632
 30
0.0
 11
161.3785054041
 21
49.3527135632
 31
0.0
  0
MTEXT
  5
13C
330
12B
100
AcDbEntity
  8
0
  6
Continuous
 62
     7
370
     0
100
AcDbMText
 10
172.7552590275
 20
48.4060629332
 30
0.0
 40
3.175
 41
0.0
 71
     1
 72
     1
  1
6
  7
SLDTEXTSTYLE0
 73
     1
 44
1.0
  0
MTEXT
  5
13D
330
12B
100
AcDbEntity
  8
0
  6
Continuous
 62
     7
370
     0
100
AcDbMText
 10
170.9952532326
 20
53.4455039863
 30
0.0
 40
3.175
 41
0.0
 71
     1
 72
     1
  1
.24
  7
SLDTEXTSTYLE0
 73
     1
 44
1.0
  0
ENDBLK
  5
12D
330
12B
100
AcDbEntity
  8
0
100
AcDbBlockEnd
  0
BLOCK
  5
140
330
13F
100
AcDbEntity
  8
0
100
AcDbBlockBegin
  2
*D13
 70
     1
 10
0.0
 20
0.0
 30
0.0
  3
*D13
  1

  0
ARC
  5
142
330
13F
100
AcDbEntity
  8
0
  6
Continuous
 62
     7
370
     0
100
AcDbCircle
 10
159.7924539442
 20
31.3527135632
 30
0.0
 40
11.26853276320758
100
AcDbArc
 50
153.4349488229
 51
206.5650511771
  0
ARC
  5
143
330
13F
100
AcDbEntity
  8
0
  6
Continuous
 62
     7
370
     0
100
AcDbCircle
 10
153.8255533405
 20
31.3527135632
 30
0.0
 40
11.2685327632076
100
AcDbArc
 50
333.4349488229
 51
26.5650511771
  0
SOLID
  5
144
330
13F
100
AcDbEntity
  8
0
  6
Continuous
 62
     7
370
     0
100
AcDbTrace
 10
134.6832228571
 20
31.3527135632
 30
0.0
 11
137.9852228571
 21
30.8447135632
 31
0.0
 12
137.9852228571
 22
31.8607135632
 32
0.0
 13
137.9852228571
 23
31.8607135632
 33
0.0
  0
SOLID
  5
145
330
13F
100
AcDbEntity
  8
0
  6
Continuous
 62
     7
370
     0
100
AcDbTrace
 10
139.6832228571
 20
31.3527135632
 30
0.0
 11
136.3812228571
 21
31.8607135632
 31
0.0
 12
136.3812228571
 22
30.8447135632
 32
0.0
 13
136.3812228571
 23
30.8447135632
 33
0.0
  0
LINE
  5
146
330
13F
100
AcDbEntity
  8
0
  6
Continuous
 62
     7
370
     0
100
AcDbLine
 10
152.5894214039
 20
36.0141965373
 30
0.0
 11
152.5894214039
 21
31.7306716422
 31
0.0
  0
LINE
  5
147
330
13F
100
AcDbEntity
  8
0
  6
Continuous
 62
     7
370
     0
100
AcDbLine
 10
152.5894214039
 20
31.7306716422
 30
0.0
 11
153.2335961867
 21
31.7306716422
 31
0.0
  0
LINE
  5
148
330
13F
100
AcDbEntity
  8
0
  6
Continuous
 62
     7
370
     0
100
AcDbLine
 10
152.5894214039
 20
36.0141965373
 30
0.0
 11
153.2335961867
 21
36.0141965373
 31
0.0
  0
LINE
  5
149
330
13F
100
AcDbEntity
  8
0
  6
Continuous
 62
     7
370
     0
100
AcDbLine
 10
161.0285858809
 20
36.0141965373
 30
0.0
 11
161.0285858809
 21
31.7306716422
 31
0.0
  0
LINE
  5
14A
330
13F
100
AcDbEntity
  8
0
  6
Continuous
 62
     7
370
     0
100
AcDbLine
 10
161.0285858809
 20
31.7306716422
 30
0.0
 11
160.384411098
 21
31.7306716422
 31
0.0
  0
LINE
  5
14B
330
13F
100
AcDbEntity
  8
0
  6
Continuous
 62
     7
370
     0
100
AcDbLine
 10
161.0285858809
 20
36.0141965373
 30
0.0
 11
160.384411098
 21
36.0141965373
 31
0.0
  0
LINE
  5
14C
330
13F
100
AcDbEntity
  8
0
  6
Continuous
 62
     7
370
     0
100
AcDbLine
 10
134.6832228571
 20
64.3947714286
 30
0.0
 11
134.6832228571
 21
28.1777135632
 31
0.0
  0
LINE
  5
14D
330
13F
100
AcDbEntity
  8
0
  6
Continuous
 62
     7
370
     0
100
AcDbLine
 10
139.6832228571
 20
64.3947714286
 30
0.0
 11
139.6832228571
 21
28.1777135632
 31
0.0
  0
LINE
  5
14E
330
13F
100
AcDbEntity
  8
0
  6
Continuous
 62
     7
370
     0
100
AcDbLine
 10
134.6832228571
 20
31.3527135632
 30
0.0
 11
139.6832228571
 21
31.3527135632
 31
0.0
  0
LINE
  5
14F
330
13F
100
AcDbEntity
  8
0
  6
Continuous
 62
     7
370
     0
100
AcDbLine
 10
139.6832228571
 20
31.3527135632
 30
0.0
 11
144.2610231411
 21
31.3527135632
 31
0.0
  0
MTEXT
  5
150
330
13F
100
AcDbEntity
  8
0
  6
Continuous
 62
     7
370
     0
100
AcDbMText
 10
154.4633844085
 20
30.4060629332
 30
0.0
 40
3.175
 41
0.0
 71
     1
 72
     1
  1
10
  7
SLDTEXTSTYLE0
 73
     1
 44
1.0
  0
MTEXT
  5
151
330
13F
100
AcDbEntity
  8
0
  6
Continuous
 62
     7
370
     0
100
AcDbMText
 10
153.8777709695
 20
35.4455039863
 30
0.0
 40
3.175
 41
0.0
 71
     1
 72
     1
  1
.39
  7
SLDTEXTSTYLE0
 73
     1
 44
1.0
  0
ENDBLK
  5
141
330
13F
100
AcDbEntity
  8
0
100
AcDbBlockEnd
  0
BLOCK
  5
154
330
153
100
AcDbEntity
  8
0
100
AcDbBlockBegin
  2
*D14
 70
     1
 10
0.0
 20
0.0
 30
0.0
  3
*D14
  1

  0
ARC
  5
156
330
153
100
AcDbEntity
  8
0
  6
Continuous
 62
     7
370
     0
100
AcDbCircle
 10
201.8079167086
 20
135.7886594459
 30
0.0
 40
11.26853276320758
100
AcDbArc
 50
153.4349488229
 51
206.5650511771
  0
ARC
  5
157
330
153
100
AcDbEntity
  8
0
  6
Continuous
 62
     7
370
     0
100
AcDbCircle
 10
195.8410161048
 20
135.7886594459
 30
0.0
 40
11.26853276320761
100
AcDbArc
 50
333.4349488229
 51
26.5650511771
  0
SOLID
  5
158
330
153
100
AcDbEntity
  8
0
  6
Continuous
 62
     7
370
     0
100
AcDbTrace
 10
179.9264859054
 20
114.6647714286
 30
0.0
 11
180.4344859054
 21
117.9667714286
 31
0.0
 12
179.4184859054
 22
117.9667714286
 32
0.0
 13
179.4184859054
 23
117.9667714286
 33
0.0
  0
SOLID
  5
159
330
153
100
AcDbEntity
  8
0
  6
Continuous
 62
     7
370
     0
100
AcDbTrace
 10
179.9264859054
 20
127.1647714286
 30
0.0
 11
179.4184859054
 21
123.8627714286
 31
0.0
 12
180.4344859054
 22
123.8627714286
 32
0.0
 13
180.4344859054
 23
123.8627714286
 33
0.0
  0
LINE
  5
15A
330
153
100
AcDbEntity
  8
0
  6
Continuous
 62
     7
370
     0
100
AcDbLine
 10
194.6048841682
 20
140.45014242
 30
0.0
 11
194.6048841682
 21
136.1666175249
 31
0.0
  0
LINE
  5
15B
330
153
100
AcDbEntity
  8
0
  6
Continuous
 62
     7
370
     0
100
AcDbLine
 10
194.6048841682
 20
136.1666175249
 30
0.0
 11
195.249058951
 21
136.1666175249
 31
0.0
  0
LINE
  5
15C
330
153
100
AcDbEntity
  8
0
  6
Continuous
 62
     7
370
     0
100
AcDbLine
 10
194.6048841682
 20
140.45014242
 30
0.0
 11
195.249058951
 21
140.45014242
 31
0.0
  0
LINE
  5
15D
330
153
100
AcDbEntity
  8
0
  6
Continuous
 62
     7
370
     0
100
AcDbLine
 10
203.0440486452
 20
140.45014242
 30
0.0
 11
203.0440486452
 21
136.1666175249
 31
0.0
  0
LINE
  5
15E
330
153
100
AcDbEntity
  8
0
  6
Continuous
 62
     7
370
     0
100
AcDbLine
 10
203.0440486452
 20
136.1666175249
 30
0.0
 11
202.3998738623
 21
136.1666175249
 31
0.0
  0
LINE
  5
15F
330
153
100
AcDbEntity
  8
0
  6
Continuous
 62
     7
370
     0
100
AcDbLine
 10
203.0440486452
 20
140.45014242
 30
0.0
 11
202.3998738623
 21
140.45014242
 31
0.0
  0
LINE
  5
160
330
153
100
AcDbEntity
  8
0
  6
Continuous
 62
     7
370
     0
100
AcDbLine
 10
147.9532228571
 20
114.6647714286
 30
0.0
 11
183.1014859054
 21
114.6647714286
 31
0.0
  0
LINE
  5
161
330
153
100
AcDbEntity
  8
0
  6
Continuous
 62
     7
370
     0
100
AcDbLine
 10
147.9532228571
 20
127.1647714286
 30
0.0
 11
183.1014859054
 21
127.1647714286
 31
0.0
  0
LINE
  5
162
330
153
100
AcDbEntity
  8
0
  6
Continuous
 62
     7
370
     0
100
AcDbLine
 10
186.2764859054
 20
135.7886594459
 30
0.0
 11
179.9264859054
 21
135.7886594459
 31
0.0
  0
LINE
  5
163
330
153
100
AcDbEntity
  8
0
  6
Continuous
 62
     7
370
     0
100
AcDbLine
 10
179.9264859054
 20
135.7886594459
 30
0.0
 11
179.9264859054
 21
127.1647714286
 31
0.0
  0
LINE
  5
164
330
153
100
AcDbEntity
  8
0
  6
Continuous
 62
     7
370
     0
100
AcDbLine
 10
179.9264859054
 20
114.6647714286
 30
0.0
 11
179.9264859054
 21
127.1647714286
 31
0.0
  0
MTEXT
  5
165
330
153
100
AcDbEntity
  8
0
  6
Continuous
 62
     7
370
     0
100
AcDbMText
 10
196.4788471728
 20
134.8420088159
 30
0.0
 40
3.175
 41
0.0
 71
     1
 72
     1
  1
25
  7
SLDTEXTSTYLE0
 73
     1
 44
1.0
  0
MTEXT
  5
166
330
153
100
AcDbEntity
  8
0
  6
Continuous
 62
     7
370
     0
100
AcDbMText
 10
195.8932337339
 20
139.8814498689
 30
0.0
 40
3.175
 41
0.0
 71
     1
 72
     1
  1
.98
  7
SLDTEXTSTYLE0
 73
     1
 44
1.0
  0
ENDBLK
  5
155
330
153
100
AcDbEntity
  8
0
100
AcDbBlockEnd
  0
BLOCK
  5
169
330
168
100
AcDbEntity
  8
0
100
AcDbBlockBegin
  2
*D15
 70
     1
 10
0.0
 20
0.0
 30
0.0
  3
*D15
  1

  0
ARC
  5
16B
330
168
100
AcDbEntity
  8
0
  6
Continuous
 62
     7
370
     0
100
AcDbCircle
 10
201.8079167086
 20
98.6119665714
 30
0.0
 40
11.26853276320761
100
AcDbArc
 50
153.4349488229
 51
206.5650511771
  0
ARC
  5
16C
330
168
100
AcDbEntity
  8
0
  6
Continuous
 62
     7
370
     0
100
AcDbCircle
 10
195.8410161048
 20
98.6119665714
 30
0.0
 40
11.26853276320758
100
AcDbArc
 50
333.4349488229
 51
26.5650511771
  0
SOLID
  5
16D
330
168
100
AcDbEntity
  8
0
  6
Continuous
 62
     7
370
     0
100
AcDbTrace
 10
179.9264859054
 20
114.6647714286
 30
0.0
 11
179.4184859054
 21
111.3627714286
 31
0.0
 12
180.4344859054
 22
111.3627714286
 32
0.0
 13
180.4344859054
 23
111.3627714286
 33
0.0
  0
SOLID
  5
16E
330
168
100
AcDbEntity
  8
0
  6
Continuous
 62
     7
370
     0
100
AcDbTrace
 10
179.9264859054
 20
108.6647714286
 30
0.0
 11
180.4344859054
 21
111.9667714286
 31
0.0
 12
179.4184859054
 22
111.9667714286
 32
0.0
 13
179.4184859054
 23
111.9667714286
 33
0.0
  0
LINE
  5
16F
330
168
100
AcDbEntity
  8
0
  6
Continuous
 62
     7
370
     0
100
AcDbLine
 10
194.6048841682
 20
103.2734495455
 30
0.0
 11
194.6048841682
 21
98.9899246504
 31
0.0
  0
LINE
  5
170
330
168
100
AcDbEntity
  8
0
  6
Continuous
 62
     7
370
     0
100
AcDbLine
 10
194.6048841682
 20
98.9899246504
 30
0.0
 11
195.249058951
 21
98.9899246504
 31
0.0
  0
LINE
  5
171
330
168
100
AcDbEntity
  8
0
  6
Continuous
 62
     7
370
     0
100
AcDbLine
 10
194.6048841682
 20
103.2734495455
 30
0.0
 11
195.249058951
 21
103.2734495455
 31
0.0
  0
LINE
  5
172
330
168
100
AcDbEntity
  8
0
  6
Continuous
 62
     7
370
     0
100
AcDbLine
 10
203.0440486452
 20
103.2734495455
 30
0.0
 11
203.0440486452
 21
98.9899246504
 31
0.0
  0
LINE
  5
173
330
168
100
AcDbEntity
  8
0
  6
Continuous
 62
     7
370
     0
100
AcDbLine
 10
203.0440486452
 20
98.9899246504
 30
0.0
 11
202.3998738623
 21
98.9899246504
 31
0.0
  0
LINE
  5
174
330
168
100
AcDbEntity
  8
0
  6
Continuous
 62
     7
370
     0
100
AcDbLine
 10
203.0440486452
 20
103.2734495455
 30
0.0
 11
202.3998738623
 21
103.2734495455
 31
0.0
  0
LINE
  5
175
330
168
100
AcDbEntity
  8
0
  6
Continuous
 62
     7
370
     0
100
AcDbLine
 10
147.9532228571
 20
114.6647714286
 30
0.0
 11
183.1014859054
 21
114.6647714286
 31
0.0
  0
LINE
  5
176
330
168
100
AcDbEntity
  8
0
  6
Continuous
 62
     7
370
     0
100
AcDbLine
 10
153.9532228571
 20
108.6647714286
 30
0.0
 11
183.1014859054
 21
108.6647714286
 31
0.0
  0
LINE
  5
177
330
168
100
AcDbEntity
  8
0
  6
Continuous
 62
     7
370
     0
100
AcDbLine
 10
186.2764859054
 20
98.6119665714
 30
0.0
 11
179.9264859054
 21
98.6119665714
 31
0.0
  0
LINE
  5
178
330
168
100
AcDbEntity
  8
0
  6
Continuous
 62
     7
370
     0
100
AcDbLine
 10
179.9264859054
 20
98.6119665714
 30
0.0
 11
179.9264859054
 21
108.6647714286
 31
0.0
  0
LINE
  5
179
330
168
100
AcDbEntity
  8
0
  6
Continuous
 62
     7
370
     0
100
AcDbLine
 10
179.9264859054
 20
114.6647714286
 30
0.0
 11
179.9264859054
 21
108.6647714286
 31
0.0
  0
MTEXT
  5
17A
330
168
100
AcDbEntity
  8
0
  6
Continuous
 62
     7
370
     0
100
AcDbMText
 10
196.4788471728
 20
97.6653159414
 30
0.0
 40
3.175
 41
0.0
 71
     1
 72
     1
  1
12
  7
SLDTEXTSTYLE0
 73
     1
 44
1.0
  0
MTEXT
  5
17B
330
168
100
AcDbEntity
  8
0
  6
Continuous
 62
     7
370
     0
100
AcDbMText
 10
195.8932337339
 20
102.7047569944
 30
0.0
 40
3.175
 41
0.0
 71
     1
 72
     1
  1
.47
  7
SLDTEXTSTYLE0
 73
     1
 44
1.0
  0
ENDBLK
  5
16A
330
168
100
AcDbEntity
  8
0
100
AcDbBlockEnd
  0
BLOCK
  5
17D
330
17C
100
AcDbEntity
  8
0
100
AcDbBlockBegin
  2
SW_CENTERMARKSYMBOL_0
 70
     0
 10
0.0
 20
0.0
 30
0.0
  3
SW_CENTERMARKSYMBOL_0
  1

  0
LINE
  5
17F
330
17C
100
AcDbEntity
  8
0
  6
Continuous
 62
     0
370
     0
100
AcDbLine
 10
0.0
 20
0.0
 30
0.0
 11
-1.27
 21
0.0
 31
0.0
  0
LINE
  5
180
330
17C
100
AcDbEntity
  8
0
  6
Continuous
 62
     0
370
     0
100
AcDbLine
 10
0.0
 20
0.0
 30
0.0
 11
0.0
 21
-1.27
 31
0.0
  0
LINE
  5
181
330
17C
100
AcDbEntity
  8
0
  6
Continuous
 62
     0
370
     0
100
AcDbLine
 10
0.0
 20
0.0
 30
0.0
 11
1.27
 21
0.0
 31
0.0
  0
LINE
  5
182
330
17C
100
AcDbEntity
  8
0
  6
Continuous
 62
     0
370
     0
100
AcDbLine
 10
0.0
 20
0.0
 30
0.0
 11
0.0
 21
1.27
 31
0.0
  0
LINE
  5
183
330
17C
100
AcDbEntity
  8
0
  6
Continuous
 62
     0
370
     0
100
AcDbLine
 10
-2.54
 20
0.0
 30
0.0
 11
-2.92
 21
0.0
 31
0.0
  0
LINE
  5
184
330
17C
100
AcDbEntity
  8
0
  6
Continuous
 62
     0
370
     0
100
AcDbLine
 10
0.0
 20
-2.54
 30
0.0
 11
0.0
 21
-2.92
 31
0.0
  0
LINE
  5
185
330
17C
100
AcDbEntity
  8
0
  6
Continuous
 62
     0
370
     0
100
AcDbLine
 10
0.0
 20
12.5
 30
0.0
 11
-1.27
 21
12.5
 31
0.0
  0
LINE
  5
186
330
17C
100
AcDbEntity
  8
0
  6
Continuous
 62
     0
370
     0
100
AcDbLine
 10
0.0
 20
12.5
 30
0.0
 11
0.0
 21
11.23
 31
0.0
  0
LINE
  5
187
330
17C
100
AcDbEntity
  8
0
  6
Continuous
 62
     0
370
     0
100
AcDbLine
 10
0.0
 20
12.5
 30
0.0
 11
1.27
 21
12.5
 31
0.0
  0
LINE
  5
188
330
17C
100
AcDbEntity
  8
0
  6
Continuous
 62
     0
370
     0
100
AcDbLine
 10
0.0
 20
12.5
 30
0.0
 11
0.0
 21
13.77
 31
0.0
  0
LINE
  5
189
330
17C
100
AcDbEntity
  8
0
  6
Continuous
 62
     0
370
     0
100
AcDbLine
 10
-2.54
 20
12.5
 30
0.0
 11
-2.92
 21
12.5
 31
0.0
  0
LINE
  5
18A
330
17C
100
AcDbEntity
  8
0
  6
Continuous
 62
     0
370
     0
100
AcDbLine
 10
0.0
 20
15.04
 30
0.0
 11
0.0
 21
15.42
 31
0.0
  0
LINE
  5
18B
330
17C
100
AcDbEntity
  8
0
  6
Continuous
 62
     0
370
     0
100
AcDbLine
 10
25.0
 20
12.5
 30
0.0
 11
23.73
 21
12.5
 31
0.0
  0
LINE
  5
18C
330
17C
100
AcDbEntity
  8
0
  6
Continuous
 62
     0
370
     0
100
AcDbLine
 10
25.0
 20
12.5
 30
0.0
 11
25.0
 21
11.23
 31
0.0
  0
LINE
  5
18D
330
17C
100
AcDbEntity
  8
0
  6
Continuous
 62
     0
370
     0
100
AcDbLine
 10
25.0
 20
12.5
 30
0.0
 11
26.27
 21
12.5
 31
0.0
  0
LINE
  5
18E
330
17C
100
AcDbEntity
  8
0
  6
Continuous
 62
     0
370
     0
100
AcDbLine
 10
25.0
 20
12.5
 30
0.0
 11
25.0
 21
13.77
 31
0.0
  0
LINE
  5
18F
330
17C
100
AcDbEntity
  8
0
  6
Continuous
 62
     0
370
     0
100
AcDbLine
 10
27.54
 20
12.5
 30
0.0
 11
27.92
 21
12.5
 31
0.0
  0
LINE
  5
190
330
17C
100
AcDbEntity
  8
0
  6
Continuous
 62
     0
370
     0
100
AcDbLine
 10
25.0
 20
15.04
 30
0.0
 11
25.0
 21
15.42
 31
0.0
  0
LINE
  5
191
330
17C
100
AcDbEntity
  8
0
  6
Continuous
 62
     0
370
     0
100
AcDbLine
 10
25.0
 20
0.0
 30
0.0
 11
23.73
 21
0.0
 31
0.0
  0
LINE
  5
192
330
17C
100
AcDbEntity
  8
0
  6
Continuous
 62
     0
370
     0
100
AcDbLine
 10
25.0
 20
0.0
 30
0.0
 11
25.0
 21
-1.27
 31
0.0
  0
LINE
  5
193
330
17C
100
AcDbEntity
  8
0
  6
Continuous
 62
     0
370
     0
100
AcDbLine
 10
25.0
 20
0.0
 30
0.0
 11
26.27
 21
0.0
 31
0.0
  0
LINE
  5
194
330
17C
100
AcDbEntity
  8
0
  6
Continuous
 62
     0
370
     0
100
AcDbLine
 10
25.0
 20
0.0
 30
0.0
 11
25.0
 21
1.27
 31
0.0
  0
LINE
  5
195
330
17C
100
AcDbEntity
  8
0
  6
Continuous
 62
     0
370
     0
100
AcDbLine
 10
25.0
 20
-2.54
 30
0.0
 11
25.0
 21
-3.50504
 31
0.0
  0
LINE
  5
196
330
17C
100
AcDbEntity
  8
0
  6
Continuous
 62
     0
370
     0
100
AcDbLine
 10
27.54
 20
0.0
 30
0.0
 11
27.92
 21
0.0
 31
0.0
  0
LINE
  5
197
330
17C
100
AcDbEntity
  8
0
  6
Continuous
 62
     0
370
     0
100
AcDbLine
 10
25.0
 20
2.54
 30
0.0
 11
25.0
 21
9.96
 31
0.0
  0
LINE
  5
198
330
17C
100
AcDbEntity
  8
0
  6
Continuous
 62
     0
370
     0
100
AcDbLine
 10
0.0
 20
2.54
 30
0.0
 11
0.0
 21
9.96
 31
0.0
  0
LINE
  5
199
330
17C
100
AcDbEntity
  8
0
  6
Continuous
 62
     0
370
     0
100
AcDbLine
 10
22.46
 20
0.0
 30
0.0
 11
2.54
 21
0.0
 31
0.0
  0
LINE
  5
19A
330
17C
100
AcDbEntity
  8
0
  6
Continuous
 62
     0
370
     0
100
AcDbLine
 10
22.46
 20
12.5
 30
0.0
 11
2.54
 21
12.5
 31
0.0
  0
ENDBLK
  5
17E
330
17C
100
AcDbEntity
  8
0
100
AcDbBlockEnd
  0
BLOCK
  5
19D
330
19C
100
AcDbEntity
  8
0
100
AcDbBlockBegin
  2
SW_CENTERMARKSYMBOL_1
 70
     0
 10
0.0
 20
0.0
 30
0.0
  3
SW_CENTERMARKSYMBOL_1
  1

  0
LINE
  5
19F
330
19C
100
AcDbEntity
  8
0
  6
Continuous
 62
     0
370
     0
100
AcDbLine
 10
0.0
 20
0.0
 30
0.0
 11
1.27
 21
0.0
 31
0.0
  0
LINE
  5
1A0
330
19C
100
AcDbEntity
  8
0
  6
Continuous
 62
     0
370
     0
100
AcDbLine
 10
0.0
 20
0.0
 30
0.0
 11
0.0
 21
1.27
 31
0.0
  0
LINE
  5
1A1
330
19C
100
AcDbEntity
  8
0
  6
Continuous
 62
     0
370
     0
100
AcDbLine
 10
0.0
 20
0.0
 30
0.0
 11
-1.27
 21
0.0
 31
0.0
  0
LINE
  5
1A2
330
19C
100
AcDbEntity
  8
0
  6
Continuous
 62
     0
370
     0
100
AcDbLine
 10
0.0
 20
0.0
 30
0.0
 11
0.0
 21
-1.27
 31
0.0
  0
LINE
  5
1A3
330
19C
100
AcDbEntity
  8
0
  6
Continuous
 62
     0
370
     0
100
AcDbLine
 10
1.27
 20
0.0
 30
0.0
 11
1.895
 21
0.0
 31
0.0
  0
LINE
  5
1A4
330
19C
100
AcDbEntity
  8
0
  6
Continuous
 62
     0
370
     0
100
AcDbLine
 10
0.0
 20
1.27
 30
0.0
 11
0.0
 21
1.895
 31
0.0
  0
LINE
  5
1A5
330
19C
100
AcDbEntity
  8
0
  6
Continuous
 62
     0
370
     0
100
AcDbLine
 10
-1.27
 20
0.0
 30
0.0
 11
-1.895
 21
0.0
 31
0.0
  0
LINE
  5
1A6
330
19C
100
AcDbEntity
  8
0
  6
Continuous
 62
     0
370
     0
100
AcDbLine
 10
0.0
 20
-11.45
 30
0.0
 11
1.27
 21
-11.45
 31
0.0
  0
LINE
  5
1A7
330
19C
100
AcDbEntity
  8
0
  6
Continuous
 62
     0
370
     0
100
AcDbLine
 10
0.0
 20
-11.45
 30
0.0
 11
0.0
 21
-10.18
 31
0.0
  0
LINE
  5
1A8
330
19C
100
AcDbEntity
  8
0
  6
Continuous
 62
     0
370
     0
100
AcDbLine
 10
0.0
 20
-11.45
 30
0.0
 11
-1.27
 21
-11.45
 31
0.0
  0
LINE
  5
1A9
330
19C
100
AcDbEntity
  8
0
  6
Continuous
 62
     0
370
     0
100
AcDbLine
 10
0.0
 20
-11.45
 30
0.0
 11
0.0
 21
-12.72
 31
0.0
  0
LINE
  5
1AA
330
19C
100
AcDbEntity
  8
0
  6
Continuous
 62
     0
370
     0
100
AcDbLine
 10
1.27
 20
-11.45
 30
0.0
 11
1.895
 21
-11.45
 31
0.0
  0
LINE
  5
1AB
330
19C
100
AcDbEntity
  8
0
  6
Continuous
 62
     0
370
     0
100
AcDbLine
 10
-1.27
 20
-11.45
 30
0.0
 11
-1.895
 21
-11.45
 31
0.0
  0
LINE
  5
1AC
330
19C
100
AcDbEntity
  8
0
  6
Continuous
 62
     0
370
     0
100
AcDbLine
 10
0.0
 20
-12.72
 30
0.0
 11
0.0
 21
-13.345
 31
0.0
  0
LINE
  5
1AD
330
19C
100
AcDbEntity
  8
0
  6
Continuous
 62
     0
370
     0
100
AcDbLine
 10
0.0
 20
-2.54
 30
0.0
 11
0.0
 21
-8.91
 31
0.0
  0
ENDBLK
  5
19E
330
19C
100
AcDbEntity
  8
0
100
AcDbBlockEnd
  0
BLOCK
  5
1EC
330
1EB
100
AcDbEntity
  8
0
100
AcDbBlockBegin
  2
*D18
 70
     1
 10
0.0
 20
0.0
 30
0.0
  3
*D18
  1

  0
ARC
  5
1EE
330
1EB
100
AcDbEntity
  8
0
  6
Continuous
 62
     7
370
     0
100
AcDbCircle
 10
194.154938666
 20
22.8665015059
 30
0.0
 40
11.26853276320758
100
AcDbArc
 50
153.4349488229
 51
206.5650511771
  0
ARC
  5
1EF
330
1EB
100
AcDbEntity
  8
0
  6
Continuous
 62
     7
370
     0
100
AcDbCircle
 10
188.1880380622
 20
22.8665015059
 30
0.0
 40
11.26853276320761
100
AcDbArc
 50
333.4349488229
 51
26.5650511771
  0
SOLID
  5
1F0
330
1EB
100
AcDbEntity
  8
0
  6
Continuous
 62
     7
370
     0
100
AcDbTrace
 10
172.2735078628
 20
11.9234365031
 30
0.0
 11
172.7815078628
 21
15.2254365031
 31
0.0
 12
171.7655078628
 22
15.2254365031
 32
0.0
 13
171.7655078628
 23
15.2254365031
 33
0.0
  0
SOLID
  5
1F1
330
1EB
100
AcDbEntity
  8
0
  6
Continuous
 62
     7
370
     0
100
AcDbTrace
 10
172.2735078628
 20
14.4234365031
 30
0.0
 11
171.7655078628
 21
11.1214365031
 31
0.0
 12
172.7815078628
 22
11.1214365031
 32
0.0
 13
172.7815078628
 23
11.1214365031
 33
0.0
  0
LINE
  5
1F2
330
1EB
100
AcDbEntity
  8
0
  6
Continuous
 62
     7
370
     0
100
AcDbLine
 10
186.9519061256
 20
27.52798448
 30
0.0
 11
186.9519061256
 21
23.2444595849
 31
0.0
  0
LINE
  5
1F3
330
1EB
100
AcDbEntity
  8
0
  6
Continuous
 62
     7
370
     0
100
AcDbLine
 10
186.9519061256
 20
23.2444595849
 30
0.0
 11
187.5960809084
 21
23.2444595849
 31
0.0
  0
LINE
  5
1F4
330
1EB
100
AcDbEntity
  8
0
  6
Continuous
 62
     7
370
     0
100
AcDbLine
 10
186.9519061256
 20
27.52798448
 30
0.0
 11
187.5960809084
 21
27.52798448
 31
0.0
  0
LINE
  5
1F5
330
1EB
100
AcDbEntity
  8
0
  6
Continuous
 62
     7
370
     0
100
AcDbLine
 10
195.3910706026
 20
27.52798448
 30
0.0
 11
195.3910706026
 21
23.2444595849
 31
0.0
  0
LINE
  5
1F6
330
1EB
100
AcDbEntity
  8
0
  6
Continuous
 62
     7
370
     0
100
AcDbLine
 10
195.3910706026
 20
23.2444595849
 30
0.0
 11
194.7468958197
 21
23.2444595849
 31
0.0
  0
LINE
  5
1F7
330
1EB
100
AcDbEntity
  8
0
  6
Continuous
 62
     7
370
     0
100
AcDbLine
 10
195.3910706026
 20
27.52798448
 30
0.0
 11
194.7468958197
 21
27.52798448
 31
0.0
  0
LINE
  5
1F8
330
1EB
100
AcDbEntity
  8
0
  6
Continuous
 62
     7
370
     0
100
AcDbLine
 10
153.9532228571
 20
11.9234365031
 30
0.0
 11
175.4485078628
 21
11.9234365031
 31
0.0
  0
LINE
  5
1F9
330
1EB
100
AcDbEntity
  8
0
  6
Continuous
 62
     7
370
     0
100
AcDbLine
 10
153.9532228571
 20
14.4234365031
 30
0.0
 11
175.4485078628
 21
14.4234365031
 31
0.0
  0
LINE
  5
1FA
330
1EB
100
AcDbEntity
  8
0
  6
Continuous
 62
     7
370
     0
100
AcDbLine
 10
178.6235078628
 20
22.8665015059
 30
0.0
 11
172.2735078628
 21
22.8665015059
 31
0.0
  0
LINE
  5
1FB
330
1EB
100
AcDbEntity
  8
0
  6
Continuous
 62
     7
370
     0
100
AcDbLine
 10
172.2735078628
 20
22.8665015059
 30
0.0
 11
172.2735078628
 21
14.4234365031
 31
0.0
  0
LINE
  5
1FC
330
1EB
100
AcDbEntity
  8
0
  6
Continuous
 62
     7
370
     0
100
AcDbLine
 10
172.2735078628
 20
11.9234365031
 30
0.0
 11
172.2735078628
 21
14.4234365031
 31
0.0
  0
MTEXT
  5
1FD
330
1EB
100
AcDbEntity
  8
0
  6
Continuous
 62
     7
370
     0
100
AcDbMText
 10
190.0002614862
 20
21.9198508759
 30
0.0
 40
3.175
 41
0.0
 71
     1
 72
     1
  1
5
  7
SLDTEXTSTYLE0
 73
     1
 44
1.0
  0
MTEXT
  5
1FE
330
1EB
100
AcDbEntity
  8
0
  6
Continuous
 62
     7
370
     0
100
AcDbMText
 10
188.2402556913
 20
26.9592919289
 30
0.0
 40
3.175
 41
0.0
 71
     1
 72
     1
  1
.20
  7
SLDTEXTSTYLE0
 73
     1
 44
1.0
  0
ENDBLK
  5
1ED
330
1EB
100
AcDbEntity
  8
0
100
AcDbBlockEnd
  0
ENDSEC
  0
SECTION
  2
ENTITIES
  0
INSERT
  5
4B
330
1F
100
AcDbEntity
  8
0
  6
Continuous
 62
     7
370
     0
100
AcDbBlockReference
  2
SW_NOTE_0
 10
23.4210991379
 20
195.5723360508
 30
0.0
  0
LINE
  5
4C
330
1F
100
AcDbEntity
  8
0
  6
CENTERX2
 62
     7
100
AcDbLine
 10
137.1832228571
 20
135.9171180991
 30
0.0
 11
137.1832228571
 21
59.3527135632
 31
0.0
  0
LINE
  5
4D
330
1F
100
AcDbEntity
  8
0
  6
CENTERX2
 62
     7
100
AcDbLine
 10
112.8835495481
 20
96.4147714286
 30
0.0
 11
163.9264859054
 21
96.4147714286
 31
0.0
  0
LINE
  5
4E
330
1F
100
AcDbEntity
  8
0
  6
Continuous
 62
     7
370
    15
100
AcDbLine
 10
134.683222913
 20
65.6647705792
 30
0.0
 11
134.683222913
 21
108.6647711082
 31
0.0
  0
LINE
  5
4F
330
1F
100
AcDbEntity
  8
0
  6
Continuous
 62
     7
370
    15
100
AcDbLine
 10
134.683222913
 20
108.6647711082
 30
0.0
 11
121.6832231105
 21
108.6647711082
 31
0.0
  0
LINE
  5
50
330
1F
100
AcDbEntity
  8
0
  6
Continuous
 62
     7
370
    15
100
AcDbLine
 10
121.6832231105
 20
127.1647722779
 30
0.0
 11
121.6832231105
 21
108.6647711082
 31
0.0
  0
LINE
  5
51
330
1F
100
AcDbEntity
  8
0
  6
Continuous
 62
     7
370
    15
100
AcDbLine
 10
127.6832231626
 20
127.1647722779
 30
0.0
 11
121.6832231105
 21
127.1647722779
 31
0.0
  0
LINE
  5
52
330
1F
100
AcDbEntity
  8
0
  6
Continuous
 62
     7
370
    15
100
AcDbLine
 10
127.6832231626
 20
114.6647711604
 30
0.0
 11
127.6832231626
 21
127.1647722779
 31
0.0
  0
LINE
  5
53
330
1F
100
AcDbEntity
  8
0
  6
Continuous
 62
     7
370
    15
100
AcDbLine
 10
127.6832231626
 20
114.6647711604
 30
0.0
 11
146.6832225517
 21
114.6647711604
 31
0.0
  0
LINE
  5
54
330
1F
100
AcDbEntity
  8
0
  6
Continuous
 62
     7
370
    15
100
AcDbLine
 10
146.6832225517
 20
114.6647711604
 30
0.0
 11
146.6832225517
 21
127.1647722779
 31
0.0
  0
LINE
  5
55
330
1F
100
AcDbEntity
  8
0
  6
Continuous
 62
     7
370
    15
100
AcDbLine
 10
139.6832228013
 20
108.6647711082
 30
0.0
 11
152.6832226038
 21
108.6647711082
 31
0.0
  0
LINE
  5
56
330
1F
100
AcDbEntity
  8
0
  6
Continuous
 62
     7
370
    15
100
AcDbLine
 10
139.6832228013
 20
108.6647711082
 30
0.0
 11
139.6832228013
 21
65.6647705792
 31
0.0
  0
CIRCLE
  5
57
330
1F
100
AcDbEntity
  8
0
  6
Continuous
 62
     7
370
    15
100
AcDbCircle
 10
124.6832228571
 20
124.1647714286
 30
0.0
 40
1.650000000000006
  0
CIRCLE
  5
58
330
1F
100
AcDbEntity
  8
0
  6
Continuous
 62
     7
370
    15
100
AcDbCircle
 10
149.6832228571
 20
124.1647714286
 30
0.0
 40
1.650000000000006
  0
CIRCLE
  5
59
330
1F
100
AcDbEntity
  8
0
  6
Continuous
 62
     7
370
    15
100
AcDbCircle
 10
124.6832228571
 20
111.6647714286
 30
0.0
 40
1.650000000000006
  0
CIRCLE
  5
5A
330
1F
100
AcDbEntity
  8
0
  6
Continuous
 62
     7
370
    15
100
AcDbCircle
 10
149.6832228571
 20
111.6647714286
 30
0.0
 40
1.650000000000006
  0
LINE
  5
5B
330
1F
100
AcDbEntity
  8
0
  6
Continuous
 62
     7
370
    15
100
AcDbLine
 10
152.6832226038
 20
108.6647711082
 30
0.0
 11
152.6832226038
 21
127.1647722779
 31
0.0
  0
LINE
  5
5C
330
1F
100
AcDbEntity
  8
0
  6
Continuous
 62
     7
370
    15
100
AcDbLine
 10
152.6832226038
 20
127.1647722779
 30
0.0
 11
146.6832225517
 21
127.1647722779
 31
0.0
  0
LINE
  5
5D
330
1F
100
AcDbEntity
  8
0
  6
Continuous
 62
     7
370
    15
100
AcDbLine
 10
134.683222913
 20
65.6647705792
 30
0.0
 11
139.6832228013
 21
65.6647705792
 31
0.0
  0
CIRCLE
  5
5E
330
1F
100
AcDbEntity
  8
0
  6
Continuous
 62
     7
370
    15
100
AcDbCircle
 10
137.1832228571
 20
67.1647714286
 30
0.0
 40
0.625
  0
CIRCLE
  5
5F
330
1F
100
AcDbEntity
  8
0
  6
Continuous
 62
     7
370
    15
100
AcDbCircle
 10
137.1832228571
 20
78.6147714286
 30
0.0
 40
0.625
  0
DIMENSION
  5
60
330
1F
100
AcDbEntity
  8
0
  6
Continuous
 62
     7
370
     0
100
AcDbDimension
  2
*D2
 10
121.6832228571
 20
139.3958309013
 30
0.0
 11
109.2243253136
 21
139.3958309013
 31
0.0
 70
   160
  1
(<>)
 71
     2
 42
-1.0
  3
SLDDIMSTYLE0
100
AcDbAlignedDimension
 13
127.6832228571
 23
127.1647714286
 33
0.0
 14
121.6832228571
 24
127.1647714286
 34
0.0
100
AcDbRotatedDimension
  0
DIMENSION
  5
74
330
1F
100
AcDbEntity
  8
0
  6
Continuous
 62
     7
370
     0
100
AcDbDimension
  2
*D3
 10
146.6832228571
 20
139.3958309013
 30
0.0
 11
163.8555853756
 21
139.3958309013
 31
0.0
 70
   160
  1
(<>)
 71
     2
 42
-1.0
  3
SLDDIMSTYLE0
100
AcDbAlignedDimension
 13
152.6832228571
 23
127.1647714286
 33
0.0
 14
146.6832228571
 24
127.1647714286
 34
0.0
100
AcDbRotatedDimension
  0
DIMENSION
  5
87
330
1F
100
AcDbEntity
  8
0
  6
Continuous
 62
     7
370
     0
100
AcDbDimension
  2
*D4
 10
146.6832228571
 20
151.9171180991
 30
0.0
 11
163.8555853756
 21
151.9171180991
 31
0.0
 70
   160
  1
(<>)
 71
     2
 42
-1.0
  3
SLDDIMSTYLE0
100
AcDbAlignedDimension
 13
127.6832228571
 23
114.6647714286
 33
0.0
 14
146.6832228571
 24
114.6647714286
 34
0.0
100
AcDbRotatedDimension
  0
DIMENSION
  5
9B
330
1F
100
AcDbEntity
  8
0
  6
Continuous
 62
     7
370
     0
100
AcDbDimension
  2
*D5
 10
152.6832228571
 20
163.9171180991
 30
0.0
 11
137.2146412266
 21
163.9171180991
 31
0.0
 70
   160
  1
(<>)
 71
     2
 42
-1.0
  3
SLDDIMSTYLE0
100
AcDbAlignedDimension
 13
121.6832228571
 23
127.1647714286
 33
0.0
 14
152.6832228571
 24
127.1647714286
 34
0.0
100
AcDbRotatedDimension
  0
DIMENSION
  5
AF
330
1F
100
AcDbEntity
  8
0
  6
Continuous
 62
     7
370
     0
100
AcDbDimension
  2
*D6
 10
215.9264859054
 20
127.1647714286
 30
0.0
 11
215.9264859054
 21
117.7174996243
 31
0.0
 70
   160
  1
(<>)
 71
     2
 42
-1.0
  3
SLDDIMSTYLE0
100
AcDbAlignedDimension
 13
152.6832228571
 23
108.6647714286
 33
0.0
 14
152.6832228571
 24
127.1647714286
 34
0.0
 50
90.0
100
AcDbRotatedDimension
  0
DIMENSION
  5
C3
330
1F
100
AcDbEntity
  8
0
  6
Continuous
 62
     7
370
     0
100
AcDbDimension
  2
*D7
 10
215.9264859054
 20
65.6647714286
 30
0.0
 11
215.9264859054
 21
84.7582070412
 31
0.0
 70
   160
  1
(<>)
 71
     2
 42
-1.0
  3
SLDDIMSTYLE0
100
AcDbAlignedDimension
 13
139.6832228571
 23
108.6647714286
 33
0.0
 14
139.6832228571
 24
65.6647714286
 34
0.0
 50
90.0
100
AcDbRotatedDimension
  0
DIMENSION
  5
D7
330
1F
100
AcDbEntity
  8
0
  6
Continuous
 62
     7
370
     0
100
AcDbDimension
  2
*D8
 10
149.6832228571
 20
49.3527135632
 30
0.0
 11
102.8835495481
 21
49.3527135632
 31
0.0
 70
   160
  1
(<>)
 71
     2
 42
-1.0
  3
SLDDIMSTYLE0
100
AcDbAlignedDimension
 13
124.6832228571
 23
108.7447714286
 33
0.0
 14
149.6832228571
 24
108.1597314286
 34
0.0
100
AcDbRotatedDimension
  0
DIMENSION
  5
EB
330
1F
100
AcDbEntity
  8
0
  6
Continuous
 62
     7
370
     0
100
AcDbDimension
  2
*D9
 10
92.8596248531
 20
111.6647714286
 30
0.0
 11
92.8596248531
 21
129.8142246919
 31
0.0
 70
   160
  1
(<>)
 71
     2
 42
-1.0
  3
SLDDIMSTYLE0
100
AcDbAlignedDimension
 13
121.7632228571
 23
124.1647714286
 33
0.0
 14
121.7632228571
 24
111.6647714286
 34
0.0
 50
90.0
100
AcDbRotatedDimension
  0
DIMENSION
  5
100
330
1F
100
AcDbEntity
  8
0
  6
Continuous
 62
     7
370
     0
100
AcDbDimension
  2
*D10
 10
106.4050984147
 20
67.1647714286
 30
0.0
 11
106.4050984147
 21
84.7582070412
 31
0.0
 70
   160
  1
(<>)
 71
     2
 42
-1.0
  3
SLDDIMSTYLE0
100
AcDbAlignedDimension
 13
135.2882228571
 23
78.6147714286
 33
0.0
 14
135.2882228571
 24
67.1647714286
 34
0.0
 50
90.0
100
AcDbRotatedDimension
  0
DIMENSION
  5
115
330
1F
100
AcDbEntity
  8
0
  6
Continuous
 62
     7
370
     0
100
AcDbDimension
  2
*D11
 10
106.4050984147
 20
65.6647714286
 30
0.0
 11
106.4050984147
 21
61.8110348729
 31
0.0
 70
   160
  1
(<>)
 71
     2
 42
-1.0
  3
SLDDIMSTYLE0
100
AcDbAlignedDimension
 13
135.2882228571
 23
67.1647714286
 33
0.0
 14
134.6832228571
 24
65.6647714286
 34
0.0
 50
90.0
100
AcDbRotatedDimension
  0
DIMENSION
  5
12A
330
1F
100
AcDbEntity
  8
0
  6
Continuous
 62
     7
370
     0
100
AcDbDimension
  2
*D12
 10
152.6832228571
 20
49.3527135632
 30
0.0
 11
173.9264859054
 21
49.3527135632
 31
0.0
 70
   160
  1
(<>)
 71
     2
 42
-1.0
  3
SLDDIMSTYLE0
100
AcDbAlignedDimension
 13
149.6832228571
 23
108.1597314286
 33
0.0
 14
152.6832228571
 24
108.6647714286
 34
0.0
100
AcDbRotatedDimension
  0
DIMENSION
  5
13E
330
1F
100
AcDbEntity
  8
0
  6
Continuous
 62
     7
370
     0
100
AcDbDimension
  2
*D13
 10
139.6832228571
 20
31.3527135632
 30
0.0
 11
156.8090036424
 21
31.3527135632
 31
0.0
 70
   160
  1
(<>)
 71
     2
 42
-1.0
  3
SLDDIMSTYLE0
100
AcDbAlignedDimension
 13
134.6832228571
 23
65.6647714286
 33
0.0
 14
139.6832228571
 24
65.6647714286
 34
0.0
100
AcDbRotatedDimension
  0
DIMENSION
  5
152
330
1F
100
AcDbEntity
  8
0
  6
Continuous
 62
     7
370
     0
100
AcDbDimension
  2
*D14
 10
179.9264859054
 20
127.1647714286
 30
0.0
 11
179.9264859054
 21
135.7886594459
 31
0.0
 70
   160
  1
(<>)
 71
     2
 42
-1.0
  3
SLDDIMSTYLE0
100
AcDbAlignedDimension
 13
146.6832228571
 23
114.6647714286
 33
0.0
 14
146.6832228571
 24
127.1647714286
 34
0.0
 50
90.0
100
AcDbRotatedDimension
  0
DIMENSION
  5
167
330
1F
100
AcDbEntity
  8
0
  6
Continuous
 62
     7
370
     0
100
AcDbDimension
  2
*D15
 10
179.9264859054
 20
108.6647714286
 30
0.0
 11
179.9264859054
 21
98.6119665714
 31
0.0
 70
   160
  1
(<>)
 71
     2
 42
-1.0
  3
SLDDIMSTYLE0
100
AcDbAlignedDimension
 13
146.6832228571
 23
114.6647714286
 33
0.0
 14
152.6832228571
 24
108.6647714286
 34
0.0
 50
90.0
100
AcDbRotatedDimension
  0
INSERT
  5
19B
330
1F
100
AcDbEntity
  8
0
  6
Continuous
 62
     7
370
     0
100
AcDbBlockReference
  2
SW_CENTERMARKSYMBOL_0
 10
124.6832228571
 20
111.6647714286
 30
0.0
  0
INSERT
  5
1AE
330
1F
100
AcDbEntity
  8
0
  6
Continuous
 62
     7
370
     0
100
AcDbBlockReference
  2
SW_CENTERMARKSYMBOL_1
 10
137.1832228571
 20
78.6147714286
 30
0.0
  0
LINE
  5
1AF
330
1F
100
AcDbEntity
  8
0
  6
HIDDEN
 62
     7
370
     0
100
AcDbLine
 10
116.2047438284
 20
111.6647714286
 30
0.0
 11
156.7452210679
 21
111.6647714286
 31
0.0
  0
LINE
  5
1B0
330
1F
100
AcDbEntity
  8
0
  6
Continuous
 62
     7
370
     0
100
AcDbLine
 10
116.2047438284
 20
111.6647714286
 30
0.0
 11
116.2047438284
 21
98.9647714286
 31
0.0
  0
SOLID
  5
1B1
330
1F
100
AcDbEntity
  8
0
  6
Continuous
 62
     7
370
     0
100
AcDbTrace
 10
116.2047438284
 20
98.9647714286
 30
0.0
 11
117.2207438284
 21
105.3147714286
 31
0.0
 12
115.1887438284
 22
105.3147714286
 32
0.0
 13
115.1887438284
 23
105.3147714286
 33
0.0
  0
LINE
  5
1B2
330
1F
100
AcDbEntity
  8
0
  6
Continuous
 62
     7
370
     0
100
AcDbLine
 10
156.7452210679
 20
111.6647714286
 30
0.0
 11
156.7452210679
 21
98.9647714286
 31
0.0
  0
SOLID
  5
1B3
330
1F
100
AcDbEntity
  8
0
  6
Continuous
 62
     7
370
     0
100
AcDbTrace
 10
156.7452210679
 20
98.9647714286
 30
0.0
 11
157.7612210679
 21
105.3147714286
 31
0.0
 12
155.7292210679
 22
105.3147714286
 32
0.0
 13
155.7292210679
 23
105.3147714286
 33
0.0
  0
MTEXT
  5
1B4
330
1F
100
AcDbEntity
  8
0
  6
Continuous
 62
     7
100
AcDbMText
 10
114.9892002578
 20
97.956883218
 30
0.0
 40
3.175
 41
0.0
 71
     1
 72
     1
  1
B
  7
SLDTEXTSTYLE0
 73
     1
 44
1.0
  0
MTEXT
  5
1B5
330
1F
100
AcDbEntity
  8
0
  6
Continuous
 62
     7
100
AcDbMText
 10
155.5296774973
 20
97.956883218
 30
0.0
 40
3.175
 41
0.0
 71
     1
 72
     1
  1
B
  7
SLDTEXTSTYLE0
 73
     1
 44
1.0
  0
LINE
  5
1B6
330
1F
100
AcDbEntity
  8
0
  6
CENTERX2
 62
     7
100
AcDbLine
 10
218.3043279521
 20
198.839286009
 30
0.0
 11
218.3043279521
 21
136.3213249677
 31
0.0
  0
LINE
  5
1B7
330
1F
100
AcDbEntity
  8
0
  6
CENTERX2
 62
     7
100
AcDbLine
 10
201.1218641747
 20
176.5032329893
 30
0.0
 11
237.2146706046
 21
155.6672993427
 31
0.0
  0
LINE
  5
1B8
330
1F
100
AcDbEntity
  8
0
  6
Continuous
 62
     7
370
    15
100
AcDbLine
 10
216.5365610781
 20
142.495887268
 30
0.0
 11
220.0720949051
 21
140.4548670341
 31
0.0
  0
LINE
  5
1B9
330
1F
100
AcDbEntity
  8
0
  6
Continuous
 62
     7
370
    15
100
AcDbLine
 10
216.5365610781
 20
142.495887268
 30
0.0
 11
216.5365610781
 21
177.607142611
 31
0.0
  0
LINE
  5
1BA
330
1F
100
AcDbEntity
  8
0
  6
Continuous
 62
     7
370
    15
100
AcDbLine
 10
216.5365610781
 20
177.607142611
 30
0.0
 11
207.3441730623
 21
182.9137952573
 31
0.0
  0
LINE
  5
1BB
330
1F
100
AcDbEntity
  8
0
  6
Continuous
 62
     7
370
    15
100
AcDbLine
 10
207.3441730623
 20
198.0198012323
 30
0.0
 11
207.3441730623
 21
182.9137952573
 31
0.0
  0
LINE
  5
1BC
330
1F
100
AcDbEntity
  8
0
  6
Continuous
 62
     7
370
    15
100
AcDbLine
 10
211.5868137863
 20
195.5705768756
 30
0.0
 11
207.3441730623
 21
198.0198012323
 31
0.0
  0
LINE
  5
1BD
330
1F
100
AcDbEntity
  8
0
  6
Continuous
 62
     7
370
    15
100
AcDbLine
 10
211.5868137863
 20
185.3638158144
 30
0.0
 11
211.5868137863
 21
195.5705768756
 31
0.0
  0
LINE
  5
1BE
330
1F
100
AcDbEntity
  8
0
  6
Continuous
 62
     7
370
    15
100
AcDbLine
 10
211.5868137863
 20
185.3638158144
 30
0.0
 11
225.0218421969
 21
177.6079390015
 31
0.0
  0
LINE
  5
1BF
330
1F
100
AcDbEntity
  8
0
  6
Continuous
 62
     7
370
    15
100
AcDbLine
 10
225.0218421969
 20
177.6079390015
 30
0.0
 11
225.0218421969
 21
187.8147000626
 31
0.0
  0
LINE
  5
1C0
330
1F
100
AcDbEntity
  8
0
  6
Continuous
 62
     7
370
    15
100
AcDbLine
 10
229.2644829209
 20
185.3654757059
 30
0.0
 11
225.0218421969
 21
187.8147000626
 31
0.0
  0
LINE
  5
1C1
330
1F
100
AcDbEntity
  8
0
  6
Continuous
 62
     7
370
    15
100
AcDbLine
 10
229.2644829209
 20
170.2594697308
 30
0.0
 11
229.2644829209
 21
185.3654757059
 31
0.0
  0
LINE
  5
1C2
330
1F
100
AcDbEntity
  8
0
  6
Continuous
 62
     7
370
    15
100
AcDbLine
 10
220.0720949051
 20
175.5661223771
 30
0.0
 11
229.2644829209
 21
170.2594697308
 31
0.0
  0
LINE
  5
1C3
330
1F
100
AcDbEntity
  8
0
  6
Continuous
 62
     7
370
    15
100
AcDbLine
 10
220.0720949051
 20
175.5661223771
 30
0.0
 11
220.0720949051
 21
140.4548670341
 31
0.0
  0
LWPOLYLINE
  5
1C4
330
1F
100
AcDbEntity
  8
0
  6
Continuous
 62
     7
370
    15
100
AcDbPolyline
 90
       38
 70
   128
 43
0.0
 10
209.4654930951
 20
192.9982740745
 10
209.6626711989
 20
192.9038252144
 10
209.8541759418
 20
192.8508526087
 10
210.0344999161
 20
192.840880849
 10
210.198453791
 20
192.8741953824
 10
210.3413223878
 20
192.9498391041
 10
210.4589944132
 20
193.0656348034
 10
210.548085607
 20
193.2182524758
 10
210.6060322553
 20
193.4032998275
 10
210.6311682407
 20
193.6154557433
 10
210.622769164
 20
193.848615159
 10
210.5810780283
 20
194.0960704346
 10
210.5072933845
 20
194.3507037498
 10
210.4035377217
 20
194.6051893845
 10
210.272796222
 20
194.852205502
 10
210.1188304916
 20
195.0846466899
 10
209.9460692425
 20
195.2958269938
 10
209.7594825099
 20
195.4796681199
 10
209.5644387488
 20
195.6308853549
 10
209.3665480998
 20
195.7451251949
 10
209.1715036802
 20
195.8191010733
 10
208.9849169476
 20
195.850688403
 10
208.8121556985
 20
195.8389739916
 10
208.6581899682
 20
195.7842978522
 10
208.5274484685
 20
195.6882326572
 10
208.4236934641
 20
195.5535403807
 10
208.3499081618
 20
195.3840973821
 10
208.3082170261
 20
195.1847776672
 10
208.299818608
 20
194.9613152388
 10
208.3249539348
 20
194.7201383123
 10
208.3829005831
 20
194.4681871845
 10
208.4719917769
 20
194.2127070092
 10
208.5896644608
 20
193.9610497011
 10
208.7325323991
 20
193.7204537888
 10
208.8964869326
 20
193.4978417606
 10
209.0768102483
 20
193.2996162714
 10
209.2683156497
 20
193.1314818271
 10
209.4654930951
 20
192.9982740745
  0
LWPOLYLINE
  5
1C5
330
1F
100
AcDbEntity
  8
0
  6
Continuous
 62
     7
370
    15
100
AcDbPolyline
 90
       38
 70
   128
 43
0.0
 10
227.1431628881
 20
182.7931725247
 10
227.3403403335
 20
182.6987240447
 10
227.5318457349
 20
182.6457510588
 10
227.7121690506
 20
182.6357796793
 10
227.8761235841
 20
182.6690938325
 10
228.0189915224
 20
182.7447379344
 10
228.1366642063
 20
182.8605332535
 10
228.2257554001
 20
183.013150926
 10
228.2837020484
 20
183.1981982777
 10
228.3088373752
 20
183.4103545736
 10
228.3004389571
 20
183.6435136092
 10
228.2587478214
 20
183.8909688847
 10
228.1849625191
 20
184.1456025801
 10
228.0812075147
 20
184.4000878347
 10
227.950466015
 20
184.6471039522
 10
227.7965002847
 20
184.87954514
 10
227.6237390356
 20
185.0907254439
 10
227.437152303
 20
185.27456657
 10
227.2421078834
 20
185.4257841852
 10
227.0442172344
 20
185.5400240252
 10
226.8491734733
 20
185.6139995234
 10
226.6625867407
 20
185.6455868532
 10
226.4898254916
 20
185.6338724418
 10
226.3358597613
 20
185.5791963023
 10
226.2051182615
 20
185.4831311073
 10
226.1013625987
 20
185.348439211
 10
226.0275779549
 20
185.1789958322
 10
225.9858868192
 20
184.9796761173
 10
225.9774877425
 20
184.7562140691
 10
226.0026237279
 20
184.5150367624
 10
226.0605703762
 20
184.2630856346
 10
226.14966157
 20
184.0076054593
 10
226.2673335954
 20
183.7559485314
 10
226.4102021922
 20
183.5153522389
 10
226.5741560671
 20
183.2927405909
 10
226.7544800414
 20
183.0945147215
 10
226.9459847843
 20
182.9263806574
 10
227.1431628881
 20
182.7931725247
  0
LWPOLYLINE
  5
1C6
330
1F
100
AcDbEntity
  8
0
  6
Continuous
 62
     7
370
    15
100
AcDbPolyline
 90
       38
 70
   128
 43
0.0
 10
209.4654930951
 20
182.7915137739
 10
209.6626711989
 20
182.6970649137
 10
209.8541759418
 20
182.644092308
 10
210.0344999161
 20
182.6341197879
 10
210.198453791
 20
182.6674350817
 10
210.3413223878
 20
182.7430788034
 10
210.4589944132
 20
182.8588745027
 10
210.548085607
 20
183.0114921752
 10
210.6060322553
 20
183.1965402873
 10
210.6311682407
 20
183.4086954426
 10
210.622769164
 20
183.6418548583
 10
210.5810780283
 20
183.8893108944
 10
210.5072933845
 20
184.1439442096
 10
210.4035377217
 20
184.3984283234
 10
210.272796222
 20
184.6454459618
 10
210.1188304916
 20
184.8778871497
 10
209.9460692425
 20
185.0890659326
 10
209.7594825099
 20
185.2729085797
 10
209.5644387488
 20
185.4241242938
 10
209.3665480998
 20
185.5383641338
 10
209.1715036802
 20
185.6123415331
 10
208.9849169476
 20
185.6439273419
 10
208.8121556985
 20
185.6322144514
 10
208.6581899682
 20
185.577538312
 10
208.5274484685
 20
185.4814715961
 10
208.4236934641
 20
185.3467808405
 10
208.3499081618
 20
185.1773378419
 10
208.3082170261
 20
184.9780173665
 10
208.299818608
 20
184.7545549381
 10
208.3249539348
 20
184.5133787721
 10
208.3829005831
 20
184.2614268838
 10
208.4719917769
 20
184.0059467085
 10
208.5896644608
 20
183.7542894004
 10
208.7325323991
 20
183.5136934881
 10
208.8964869326
 20
183.2910806994
 10
209.0768102483
 20
183.0928559707
 10
209.2683156497
 20
182.9247215265
 10
209.4654930951
 20
182.7915137739
  0
LWPOLYLINE
  5
1C7
330
1F
100
AcDbEntity
  8
0
  6
Continuous
 62
     7
370
    15
100
AcDbPolyline
 90
       38
 70
   128
 43
0.0
 10
227.1431628881
 20
172.586412224
 10
227.3403403335
 20
172.491963744
 10
227.5318457349
 20
172.4389907582
 10
227.7121690506
 20
172.4290186182
 10
227.8761235841
 20
172.4623335318
 10
228.0189915224
 20
172.5379776337
 10
228.1366642063
 20
172.6537729528
 10
228.2257554001
 20
172.8063906253
 10
228.2837020484
 20
172.9914387375
 10
228.3088373752
 20
173.2035942729
 10
228.3004389571
 20
173.4367533085
 10
228.2587478214
 20
173.6842093445
 10
228.1849625191
 20
173.9388430399
 10
228.0812075147
 20
174.1933267736
 10
227.950466015
 20
174.440344412
 10
227.7965002847
 20
174.6727855998
 10
227.6237390356
 20
174.8839643828
 10
227.437152303
 20
175.0678070298
 10
227.2421078834
 20
175.2190231241
 10
227.0442172344
 20
175.3332629641
 10
226.8491734733
 20
175.4072399832
 10
226.6625867407
 20
175.438825792
 10
226.4898254916
 20
175.4271129016
 10
226.3358597613
 20
175.3724367621
 10
226.2051182615
 20
175.2763700462
 10
226.1013625987
 20
175.1416796708
 10
226.0275779549
 20
174.972236292
 10
225.9858868192
 20
174.7729158167
 10
225.9774877425
 20
174.5494537684
 10
226.0026237279
 20
174.3082772222
 10
226.0605703762
 20
174.056325334
 10
226.14966157
 20
173.8008451587
 10
226.2673335954
 20
173.5491882308
 10
226.4102021922
 20
173.3085919383
 10
226.5741560671
 20
173.0859795298
 10
226.7544800414
 20
172.8877544209
 10
226.9459847843
 20
172.7196203568
 10
227.1431628881
 20
172.586412224
  0
LWPOLYLINE
  5
1C8
330
1F
100
AcDbEntity
  8
0
  6
Continuous
 62
     7
370
    15
100
AcDbPolyline
 90
       23
 70
   128
 43
0.0
 10
218.3043279916
 20
142.1898518094
 10
218.4288373657
 20
142.13864498
 10
218.5432597312
 20
142.1329330848
 10
218.6383252819
 20
142.1731761718
 10
218.7063323294
 20
142.2561153208
 10
218.7417714082
 20
142.3750298521
 10
218.7417714082
 20
142.5202873898
 10
218.7063323294
 20
142.6801190105
 10
218.6383252819
 20
142.8415774254
 10
218.5432597312
 20
142.9915808608
 10
218.4288373657
 20
143.1179766959
 10
218.3043279916
 20
143.2105268508
 10
218.1798186175
 20
143.2617321593
 10
218.065396252
 20
143.2674455754
 10
217.9703307013
 20
143.2272024884
 10
217.9023236538
 20
143.1442633393
 10
217.866884575
 20
143.0253488081
 10
217.866884575
 20
142.8800912704
 10
217.9023236538
 20
142.7202596497
 10
217.9703307013
 20
142.5588012348
 10
218.065396252
 20
142.4087977994
 10
218.1798186175
 20
142.2824004433
 10
218.3043279916
 20
142.1898518094
  0
LWPOLYLINE
  5
1C9
330
1F
100
AcDbEntity
  8
0
  6
Continuous
 62
     7
370
    15
100
AcDbPolyline
 90
       23
 70
   128
 43
0.0
 10
218.3043279916
 20
151.5392426721
 10
218.4288373657
 20
151.4880373637
 10
218.5432597312
 20
151.4823254685
 10
218.6383252819
 20
151.5225685555
 10
218.7063323294
 20
151.6055077045
 10
218.7417714082
 20
151.7244222357
 10
218.7417714082
 20
151.8696797735
 10
218.7063323294
 20
152.0295113942
 10
218.6383252819
 20
152.190969809
 10
218.5432597312
 20
152.3409732445
 10
218.4288373657
 20
152.4673690796
 10
218.3043279916
 20
152.5599192345
 10
218.1798186175
 20
152.611124543
 10
218.065396252
 20
152.6168379591
 10
217.9703307013
 20
152.5765948721
 10
217.9023236538
 20
152.493655723
 10
217.866884575
 20
152.3747411918
 10
217.866884575
 20
152.229483654
 10
217.9023236538
 20
152.0696520334
 10
217.9703307013
 20
151.9081936185
 10
218.065396252
 20
151.7581901831
 10
218.1798186175
 20
151.631792827
 10
218.3043279916
 20
151.5392426721
  0
LINE
  5
1CA
330
1F
100
AcDbEntity
  8
0
  6
Continuous
 62
     7
370
    15
100
AcDbLine
 10
229.2644829209
 20
185.3654757059
 30
0.0
 11
231.0322498343
 21
186.3859858228
 31
0.0
  0
LINE
  5
1CB
330
1F
100
AcDbEntity
  8
0
  6
Continuous
 62
     7
370
    15
100
AcDbLine
 10
225.0218421969
 20
187.8147000626
 30
0.0
 11
226.7896091103
 21
188.8352101796
 31
0.0
  0
LINE
  5
1CC
330
1F
100
AcDbEntity
  8
0
  6
Continuous
 62
     7
370
    15
100
AcDbLine
 10
231.0322498343
 20
186.3859858228
 30
0.0
 11
226.7896091103
 21
188.8352101796
 31
0.0
  0
LINE
  5
1CD
330
1F
100
AcDbEntity
  8
0
  6
Continuous
 62
     7
370
    15
100
AcDbLine
 10
231.0322498343
 20
171.2799798478
 30
0.0
 11
231.0322498343
 21
186.3859858228
 31
0.0
  0
LINE
  5
1CE
330
1F
100
AcDbEntity
  8
0
  6
Continuous
 62
     7
370
    15
100
AcDbLine
 10
231.0322498343
 20
171.2799798478
 30
0.0
 11
229.2644829209
 21
170.2594697308
 31
0.0
  0
LINE
  5
1CF
330
1F
100
AcDbEntity
  8
0
  6
Continuous
 62
     7
370
    15
100
AcDbLine
 10
213.3545806998
 20
186.3843259314
 30
0.0
 11
211.5868137863
 21
185.3638158144
 31
0.0
  0
LINE
  5
1D0
330
1F
100
AcDbEntity
  8
0
  6
Continuous
 62
     7
370
    15
100
AcDbLine
 10
225.0218425261
 20
179.6489590454
 30
0.0
 11
213.3545806998
 21
186.3843259314
 31
0.0
  0
LINE
  5
1D1
330
1F
100
AcDbEntity
  8
0
  6
Continuous
 62
     7
370
    15
100
AcDbLine
 10
207.3441730623
 20
198.0198012323
 30
0.0
 11
209.1119399758
 21
199.0403113493
 31
0.0
  0
LINE
  5
1D2
330
1F
100
AcDbEntity
  8
0
  6
Continuous
 62
     7
370
    15
100
AcDbLine
 10
213.3545806998
 20
196.5910869925
 30
0.0
 11
211.5868137863
 21
195.5705768756
 31
0.0
  0
LINE
  5
1D3
330
1F
100
AcDbEntity
  8
0
  6
Continuous
 62
     7
370
    15
100
AcDbLine
 10
213.3545806998
 20
196.5910869925
 30
0.0
 11
209.1119399758
 21
199.0403113493
 31
0.0
  0
LINE
  5
1D4
330
1F
100
AcDbEntity
  8
0
  6
Continuous
 62
     7
370
    15
100
AcDbLine
 10
213.3545806998
 20
186.3843259314
 30
0.0
 11
213.3545806998
 21
196.5910869925
 31
0.0
  0
LINE
  5
1D5
330
1F
100
AcDbEntity
  8
0
  6
Continuous
 62
     7
370
    15
100
AcDbLine
 10
220.0720949051
 20
140.4548670341
 30
0.0
 11
221.8398618185
 21
141.475377151
 31
0.0
  0
LINE
  5
1D6
330
1F
100
AcDbEntity
  8
0
  6
Continuous
 62
     7
370
    15
100
AcDbLine
 10
221.8398618185
 20
141.475377151
 30
0.0
 11
221.8398618185
 21
174.545612452
 31
0.0
  0
LINE
  5
1D7
330
1F
100
AcDbEntity
  8
0
  6
Continuous
 62
     7
370
    15
100
AcDbLine
 10
123.0332226798
 20
11.923436559
 30
0.0
 11
123.0332226798
 21
14.4234365031
 31
0.0
  0
LINE
  5
1D8
330
1F
100
AcDbEntity
  8
0
  6
Continuous
 62
     7
370
    15
100
AcDbLine
 10
121.6832231105
 20
11.923436559
 30
0.0
 11
123.0332226798
 21
11.923436559
 31
0.0
  0
LINE
  5
1D9
330
1F
100
AcDbEntity
  8
0
  6
Continuous
 62
     7
370
    15
100
AcDbLine
 10
121.6832231105
 20
14.4234365031
 30
0.0
 11
121.6832231105
 21
11.923436559
 31
0.0
  0
LINE
  5
1DA
330
1F
100
AcDbEntity
  8
0
  6
Continuous
 62
     7
370
    15
100
AcDbLine
 10
121.6832231105
 20
14.4234365031
 30
0.0
 11
123.0332226798
 21
14.4234365031
 31
0.0
  0
LINE
  5
1DB
330
1F
100
AcDbEntity
  8
0
  6
Continuous
 62
     7
370
    15
100
AcDbLine
 10
126.3332226619
 20
14.4234365031
 30
0.0
 11
123.0332226798
 21
14.4234365031
 31
0.0
  0
LINE
  5
1DC
330
1F
100
AcDbEntity
  8
0
  6
Continuous
 62
     7
370
    15
100
AcDbLine
 10
126.3332226619
 20
14.4234365031
 30
0.0
 11
126.3332226619
 21
11.923436559
 31
0.0
  0
LINE
  5
1DD
330
1F
100
AcDbEntity
  8
0
  6
Continuous
 62
     7
370
    15
100
AcDbLine
 10
123.0332226798
 20
11.923436559
 30
0.0
 11
126.3332226619
 21
11.923436559
 31
0.0
  0
LINE
  5
1DE
330
1F
100
AcDbEntity
  8
0
  6
Continuous
 62
     7
370
    15
100
AcDbLine
 10
151.3332230345
 20
14.4234365031
 30
0.0
 11
151.3332230345
 21
11.923436559
 31
0.0
  0
LINE
  5
1DF
330
1F
100
AcDbEntity
  8
0
  6
Continuous
 62
     7
370
    15
100
AcDbLine
 10
152.6832226038
 20
11.923436559
 30
0.0
 11
152.6832226038
 21
14.4234365031
 31
0.0
  0
LINE
  5
1E0
330
1F
100
AcDbEntity
  8
0
  6
Continuous
 62
     7
370
    15
100
AcDbLine
 10
151.3332230345
 20
11.923436559
 30
0.0
 11
152.6832226038
 21
11.923436559
 31
0.0
  0
LINE
  5
1E1
330
1F
100
AcDbEntity
  8
0
  6
Continuous
 62
     7
370
    15
100
AcDbLine
 10
151.3332230345
 20
14.4234365031
 30
0.0
 11
152.6832226038
 21
14.4234365031
 31
0.0
  0
LINE
  5
1E2
330
1F
100
AcDbEntity
  8
0
  6
Continuous
 62
     7
370
    15
100
AcDbLine
 10
148.0332230523
 20
11.923436559
 30
0.0
 11
148.0332230523
 21
14.4234365031
 31
0.0
  0
LINE
  5
1E3
330
1F
100
AcDbEntity
  8
0
  6
Continuous
 62
     7
370
    15
100
AcDbLine
 10
126.3332226619
 20
11.923436559
 30
0.0
 11
148.0332230523
 21
11.923436559
 31
0.0
  0
LINE
  5
1E4
330
1F
100
AcDbEntity
  8
0
  6
Continuous
 62
     7
370
    15
100
AcDbLine
 10
126.3332226619
 20
14.4234365031
 30
0.0
 11
148.0332230523
 21
14.4234365031
 31
0.0
  0
LINE
  5
1E5
330
1F
100
AcDbEntity
  8
0
  6
Continuous
 62
     7
370
    15
100
AcDbLine
 10
148.0332230523
 20
11.923436559
 30
0.0
 11
151.3332230345
 21
11.923436559
 31
0.0
  0
LINE
  5
1E6
330
1F
100
AcDbEntity
  8
0
  6
Continuous
 62
     7
370
    15
100
AcDbLine
 10
151.3332230345
 20
14.4234365031
 30
0.0
 11
148.0332230523
 21
14.4234365031
 31
0.0
  0
HATCH
  5
1E7
330
1F
100
AcDbEntity
  8
0
  6
Continuous
 62
     7
370
     0
100
AcDbHatch
 10
0.0
 20
0.0
 30
0.0
210
0.0
220
0.0
230
1.0
  2
ANSI31
 70
     0
 71
     0
 91
        1
 92
        0
 93
        4
 72
     1
 10
123.0332228571429
 20
14.42343650311156
 11
121.6832228571429
 21
14.42343650311156
 72
     1
 10
121.6832228571429
 20
14.42343650311156
 11
121.6832228571429
 21
11.92343650311156
 72
     1
 10
121.6832228571429
 20
11.92343650311156
 11
123.0332228571429
 21
11.92343650311156
 72
     1
 10
123.0332228571429
 20
11.92343650311156
 11
123.0332228571429
 21
14.42343650311156
 97
        0
 75
     0
 76
     1
 52
0.0
 41
1.0
 77
     0
 78
     1
 53
45.0
 43
0.0
 44
0.0
 45
-2.245064030267288
 46
2.245064030267288
 79
     0
 98
        1
 10
0.0
 20
0.0
  0
HATCH
  5
1E8
330
1F
100
AcDbEntity
  8
0
  6
Continuous
 62
     7
370
     0
100
AcDbHatch
 10
0.0
 20
0.0
 30
0.0
210
0.0
220
0.0
230
1.0
  2
ANSI31
 70
     0
 71
     0
 91
        1
 92
        0
 93
        4
 72
     1
 10
148.0332228571428
 20
14.42343650311156
 11
126.3332228571429
 21
14.42343650311156
 72
     1
 10
126.3332228571429
 20
14.42343650311156
 11
126.3332228571429
 21
11.92343650311156
 72
     1
 10
126.3332228571429
 20
11.92343650311156
 11
148.0332228571428
 21
11.92343650311156
 72
     1
 10
148.0332228571428
 20
11.92343650311156
 11
148.0332228571428
 21
14.42343650311156
 97
        0
 75
     0
 76
     1
 52
0.0
 41
1.0
 77
     0
 78
     1
 53
45.0
 43
0.0
 44
0.0
 45
-2.245064030267288
 46
2.245064030267288
 79
     0
 98
        1
 10
0.0
 20
0.0
  0
HATCH
  5
1E9
330
1F
100
AcDbEntity
  8
0
  6
Continuous
 62
     7
370
     0
100
AcDbHatch
 10
0.0
 20
0.0
 30
0.0
210
0.0
220
0.0
230
1.0
  2
ANSI31
 70
     0
 71
     0
 91
        1
 92
        0
 93
        4
 72
     1
 10
151.3332228571429
 20
11.92343650311156
 11
152.6832228571428
 21
11.92343650311156
 72
     1
 10
152.6832228571428
 20
11.92343650311156
 11
152.6832228571428
 21
14.42343650311156
 72
     1
 10
152.6832228571428
 20
14.42343650311156
 11
151.3332228571429
 21
14.42343650311156
 72
     1
 10
151.3332228571429
 20
14.42343650311156
 11
151.3332228571429
 21
11.92343650311156
 97
        0
 75
     0
 76
     1
 52
0.0
 41
1.0
 77
     0
 78
     1
 53
45.0
 43
0.0
 44
0.0
 45
-2.245064030267288
 46
2.245064030267288
 79
     0
 98
        1
 10
0.0
 20
0.0
  0
DIMENSION
  5
1EA
330
1F
100
AcDbEntity
  8
0
  6
Continuous
 62
     7
370
     0
100
AcDbDimension
  2
*D18
 10
172.2735078628
 20
14.4234365031
 30
0.0
 11
172.2735078628
 21
22.8665015059
 31
0.0
 70
   160
  1
(<>)
 71
     2
 42
-1.0
  3
SLDDIMSTYLE0
100
AcDbAlignedDimension
 13
152.6832228571
 23
11.9234365031
 33
0.0
 14
152.6832228571
 24
14.4234365031
 34
0.0
 50
90.0
100
AcDbRotatedDimension
  0
MTEXT
  5
1FF
330
1F
100
AcDbEntity
  8
0
  6
Continuous
 62
     7
370
     0
100
AcDbMText
 10
124.7698542968
 20
10.0732752347
 30
0.0
 40
3.175
 41
0.0
 71
     1
 72
     1
  1
SECTION B-B
  7
SLDTEXTSTYLE0
 73
     1
 44
1.0
  0
ENDSEC
  0
SECTION
  2
OBJECTS
  0
DICTIONARY
  5
C
330
0
100
AcDbDictionary
281
     1
  3
ACAD_GROUP
350
D
  3
ACAD_LAYOUT
350
1A
  3
ACAD_MLEADERSTYLE
350
201
  3
ACAD_MLINESTYLE
350
17
  3
ACAD_PLOTSETTINGS
350
19
  3
ACAD_PLOTSTYLENAME
350
E
  3
ACAD_TABLESTYLE
350
200
  3
ACAD_VISUALSTYLE
350
2A
  3
AcDbVariableDictionary
350
202
  0
DICTIONARY
  5
D
102
{ACAD_REACTORS
330
C
102
}
330
C
100
AcDbDictionary
281
     1
  0
DICTIONARY
  5
1A
102
{ACAD_REACTORS
330
C
102
}
330
C
100
AcDbDictionary
281
     1
  3
Layout1
350
1E
  3
Layout2
350
26
  3
Model
350
22
  0
DICTIONARY
  5
201
102
{ACAD_REACTORS
330
C
102
}
330
C
100
AcDbDictionary
281
     1
  0
DICTIONARY
  5
17
102
{ACAD_REACTORS
330
C
102
}
330
C
100
AcDbDictionary
281
     1
  3
Standard
350
18
  0
DICTIONARY
  5
19
102
{ACAD_REACTORS
330
C
102
}
330
C
100
AcDbDictionary
281
     1
  0
ACDBDICTIONARYWDFLT
  5
E
102
{ACAD_REACTORS
330
C
102
}
330
C
100
AcDbDictionary
281
     1
  3
Normal
350
F
100
AcDbDictionaryWithDefault
340
F
  0
DICTIONARY
  5
200
102
{ACAD_REACTORS
330
C
102
}
330
C
100
AcDbDictionary
281
     1
  0
DICTIONARY
  5
2A
102
{ACAD_REACTORS
330
C
102
}
330
C
100
AcDbDictionary
281
     1
  3
2dWireframe
350
2F
  3
3D Hidden
350
31
  3
3dWireframe
350
30
  3
Basic
350
32
  3
Brighten
350
36
  3
ColorChange
350
3A
  3
Conceptual
350
34
  3
Dim
350
35
  3
Facepattern
350
39
  3
Flat
350
2B
  3
FlatWithEdges
350
2C
  3
Gouraud
350
2D
  3
GouraudWithEdges
350
2E
  3
Linepattern
350
38
  3
Realistic
350
33
  3
Thicken
350
37
  0
DICTIONARY
  5
202
102
{ACAD_REACTORS
330
C
102
}
330
C
100
AcDbDictionary
281
     1
  3
PSOLHEIGHT
350
204
  3
PSOLWIDTH
350
203
  0
LAYOUT
  5
1E
102
{ACAD_REACTORS
330
1A
102
}
330
1A
100
AcDbPlotSettings
  1

  2
none_device
  4

  6

 40
0.0
 41
0.0
 42
0.0
 43
0.0
 44
0.0
 45
0.0
 46
0.0
 47
0.0
 48
0.0
 49
0.0
140
0.0
141
0.0
142
1.0
143
1.0
 70
   688
 72
     0
 73
     0
 74
     5
  7

 75
    16
147
1.0
148
0.0
149
0.0
100
AcDbLayout
  1
Layout1
 70
     1
 71
     1
 10
0.0
 20
0.0
 11
420.0
 21
297.0
 12
0.0
 22
0.0
 32
0.0
 14
1.0000000000E+20
 24
1.0000000000E+20
 34
1.0000000000E+20
 15
-1.0000000000E+20
 25
-1.0000000000E+20
 35
-1.0000000000E+20
146
0.0
 13
0.0
 23
0.0
 33
0.0
 16
1.0
 26
0.0
 36
0.0
 17
0.0
 27
1.0
 37
0.0
 76
     0
330
1B
  0
LAYOUT
  5
26
102
{ACAD_REACTORS
330
1A
102
}
330
1A
100
AcDbPlotSettings
  1

  2
none_device
  4

  6

 40
0.0
 41
0.0
 42
0.0
 43
0.0
 44
0.0
 45
0.0
 46
0.0
 47
0.0
 48
0.0
 49
0.0
140
0.0
141
0.0
142
1.0
143
1.0
 70
   688
 72
     0
 73
     0
 74
     5
  7

 75
    16
147
1.0
148
0.0
149
0.0
100
AcDbLayout
  1
Layout2
 70
     1
 71
     2
 10
0.0
 20
0.0
 11
0.0
 21
0.0
 12
0.0
 22
0.0
 32
0.0
 14
0.0
 24
0.0
 34
0.0
 15
0.0
 25
0.0
 35
0.0
146
0.0
 13
0.0
 23
0.0
 33
0.0
 16
1.0
 26
0.0
 36
0.0
 17
0.0
 27
1.0
 37
0.0
 76
     0
330
23
  0
LAYOUT
  5
22
102
{ACAD_REACTORS
330
1A
102
}
330
1A
100
AcDbPlotSettings
  1

  2
none_device
  4

  6

 40
0.0
 41
0.0
 42
0.0
 43
0.0
 44
0.0
 45
0.0
 46
0.0
 47
0.0
 48
0.0
 49
0.0
140
0.0
141
0.0
142
1.0
143
1.0
 70
  1712
 72
     0
 73
     0
 74
     0
  7

 75
     0
147
1.0
148
0.0
149
0.0
100
AcDbLayout
  1
Model
 70
     1
 71
     0
 10
0.0
 20
0.0
 11
279.4
 21
215.9
 12
0.0
 22
0.0
 32
0.0
 14
0.0
 24
0.0
 34
0.0
 15
279.4
 25
215.9
 35
0.0
146
0.0
 13
0.0
 23
0.0
 33
0.0
 16
1.0
 26
0.0
 36
0.0
 17
0.0
 27
1.0
 37
0.0
 76
     0
330
1F
331
29
  0
MLINESTYLE
  5
18
102
{ACAD_REACTORS
330
17
102
}
330
17
100
AcDbMlineStyle
  2
Standard
 70
     0
  3

 62
   256
 51
90.0
 52
90.0
 71
     2
 49
0.5
 62
   256
  6
BYLAYER
 49
-0.5
 62
   256
  6
BYLAYER
  0
ACDBPLACEHOLDER
  5
F
102
{ACAD_REACTORS
330
E
102
}
330
E
  0
VISUALSTYLE
  5
2F
102
{ACAD_REACTORS
330
2A
102
}
330
2A
100
AcDbVisualStyle
  2
2dWireframe
 70
     4
 71
     0
 72
     2
 73
     0
 90
        0
 40
-0.6
 41
-30.0
 62
     5
 63
     7
 74
     1
 91
        4
 64
     7
 65
   257
 75
     1
175
     1
 42
1.0
 92
        0
 66
   257
 43
1.0
 76
     1
 77
     6
 78
     2
 67
     7
 79
     5
170
     0
171
     0
290
     0
174
     0
 93
        1
 44
0.0
173
     0
291
     0
 45
0.0
1001
ACAD
1000
AcDbSavedByObjectVersion
1070
     0
  0
VISUALSTYLE
  5
31
102
{ACAD_REACTORS
330
2A
102
}
330
2A
100
AcDbVisualStyle
  2
3D Hidden
 70
     6
 71
     1
 72
     2
 73
     2
 90
        0
 40
-0.6
 41
-30.0
 62
     5
 63
     7
 74
     2
 91
        2
 64
     7
 65
   257
 75
     2
175
     1
 42
40.0
 92
        0
 66
   257
 43
1.0
 76
     1
 77
     6
 78
     2
 67
     7
 79
     3
170
     0
171
     0
290
     0
174
     0
 93
        1
 44
0.0
173
     0
291
     0
 45
0.0
1001
ACAD
1000
AcDbSavedByObjectVersion
1070
     0
  0
VISUALSTYLE
  5
30
102
{ACAD_REACTORS
330
2A
102
}
330
2A
100
AcDbVisualStyle
  2
3dWireframe
 70
     5
 71
     0
 72
     2
 73
     0
 90
        0
 40
-0.6
 41
-30.0
 62
     5
 63
     7
 74
     1
 91
        4
 64
     7
 65
   257
 75
     1
175
     1
 42
1.0
 92
        0
 66
   257
 43
1.0
 76
     1
 77
     6
 78
     2
 67
     7
 79
     5
170
     0
171
     0
290
     0
174
     0
 93
        1
 44
0.0
173
     0
291
     0
 45
0.0
1001
ACAD
1000
AcDbSavedByObjectVersion
1070
     0
  0
VISUALSTYLE
  5
32
102
{ACAD_REACTORS
330
2A
102
}
330
2A
100
AcDbVisualStyle
  2
Basic
 70
     7
 71
     1
 72
     0
 73
     1
 90
        0
 40
-0.6
 41
-30.0
 62
     5
 63
     7
 74
     0
 91
        4
 64
     7
 65
   257
 75
     1
175
     1
 42
1.0
 92
        8
 66
     7
 43
1.0
 76
     1
 77
     6
 78
     2
 67
     7
 79
     5
170
     0
171
     0
290
     0
174
     0
 93
        1
 44
0.0
173
     0
291
     1
 45
0.0
1001
ACAD
1000
AcDbSavedByObjectVersion
1070
     0
  0
VISUALSTYLE
  5
36
102
{ACAD_REACTORS
330
2A
102
}
330
2A
100
AcDbVisualStyle
  2
Brighten
 70
    12
 71
     2
 72
     2
 73
     0
 90
        0
 40
-0.6
 41
-30.0
 62
     5
 63
     7
 74
     1
 91
        4
 64
     7
 65
   257
 75
     1
175
     1
 42
1.0
 92
        8
 66
     7
 43
1.0
 76
     1
 77
     6
 78
     2
 67
     7
 79
     5
170
     0
171
     0
290
     0
174
     0
 93
        1
 44
50.0
173
     0
291
     1
 45
0.0
1001
ACAD
1000
AcDbSavedByObjectVersion
1070
     0
  0
VISUALSTYLE
  5
3A
102
{ACAD_REACTORS
330
2A
102
}
330
2A
100
AcDbVisualStyle
  2
ColorChange
 70
    16
 71
     2
 72
     2
 73
     3
 90
        0
 40
-0.6
 41
-30.0
 62
     5
 63
     8
 74
     1
 91
        4
 64
     7
 65
   257
 75
     1
175
     1
 42
1.0
 92
        8
 66
     8
 43
1.0
 76
     1
 77
     6
 78
     2
 67
     7
 79
     5
170
     0
171
     0
290
     0
174
     0
 93
        1
 44
0.0
173
     0
291
     1
 45
0.0
1001
ACAD
1000
AcDbSavedByObjectVersion
1070
     0
  0
VISUALSTYLE
  5
34
102
{ACAD_REACTORS
330
2A
102
}
330
2A
100
AcDbVisualStyle
  2
Conceptual
 70
     9
 71
     3
 72
     2
 73
     0
 90
        0
 40
-0.6
 41
-30.0
 62
     5
 63
     7
 74
     2
 91
        2
 64
     7
 65
   257
 75
     1
175
     1
 42
40.0
 92
        8
 66
     7
 43
1.0
 76
     1
 77
     6
 78
     2
 67
     7
 79
     3
170
     0
171
     0
290
     0
174
     0
 93
        1
 44
0.0
173
     0
291
     0
 45
0.0
1001
ACAD
1000
AcDbSavedByObjectVersion
1070
     0
  0
VISUALSTYLE
  5
35
102
{ACAD_REACTORS
330
2A
102
}
330
2A
100
AcDbVisualStyle
  2
Dim
 70
    11
 71
     2
 72
     2
 73
     0
 90
        0
 40
-0.6
 41
-30.0
 62
     5
 63
     7
 74
     1
 91
        4
 64
     7
 65
   257
 75
     1
175
     1
 42
1.0
 92
        8
 66
     7
 43
1.0
 76
     1
 77
     6
 78
     2
 67
     7
 79
     5
170
     0
171
     0
290
     0
174
     0
 93
        1
 44
-50.0
173
     0
291
     1
 45
0.0
1001
ACAD
1000
AcDbSavedByObjectVersion
1070
     0
  0
VISUALSTYLE
  5
39
102
{ACAD_REACTORS
330
2A
102
}
330
2A
100
AcDbVisualStyle
  2
Facepattern
 70
    15
 71
     2
 72
     2
 73
     0
 90
        0
 40
-0.6
 41
-30.0
 62
     5
 63
     7
 74
     1
 91
        4
 64
     7
 65
   257
 75
     1
175
     1
 42
1.0
 92
        8
 66
     7
 43
1.0
 76
     1
 77
     6
 78
     2
 67
     7
 79
     5
170
     0
171
     0
290
     0
174
     0
 93
        1
 44
0.0
173
     0
291
     1
 45
0.0
1001
ACAD
1000
AcDbSavedByObjectVersion
1070
     0
  0
VISUALSTYLE
  5
2B
102
{ACAD_REACTORS
330
2A
102
}
330
2A
100
AcDbVisualStyle
  2
Flat
 70
     0
 71
     2
 72
     1
 73
     1
 90
        2
 40
-0.6
 41
30.0
 62
     5
 63
     7
 74
     0
 91
        4
 64
     7
 65
   257
 75
     1
175
     1
 42
1.0
 92
        8
 66
     7
 43
1.0
 76
     1
 77
     6
 78
     2
 67
     7
 79
     5
170
     0
171
     0
290
     0
174
     0
 93
       13
 44
0.0
173
     0
291
     1
 45
0.0
1001
ACAD
1000
AcDbSavedByObjectVersion
1070
     0
  0
VISUALSTYLE
  5
2C
102
{ACAD_REACTORS
330
2A
102
}
330
2A
100
AcDbVisualStyle
  2
FlatWithEdges
 70
     1
 71
     2
 72
     1
 73
     1
 90
        2
 40
-0.6
 41
30.0
 62
     5
 63
     7
 74
     1
 91
        4
 64
     7
 65
   257
 75
     1
175
     1
 42
1.0
 92
        0
 66
   257
 43
1.0
 76
     1
 77
     6
 78
     2
 67
     7
 79
     5
170
     0
171
     0
290
     0
174
     0
 93
       13
 44
0.0
173
     0
291
     1
 45
0.0
1001
ACAD
1000
AcDbSavedByObjectVersion
1070
     0
  0
VISUALSTYLE
  5
2D
102
{ACAD_REACTORS
330
2A
102
}
330
2A
100
AcDbVisualStyle
  2
Gouraud
 70
     2
 71
     2
 72
     2
 73
     1
 90
        2
 40
-0.6
 41
30.0
 62
     5
 63
     7
 74
     0
 91
        4
 64
     7
 65
   257
 75
     1
175
     1
 42
1.0
 92
        0
 66
     7
 43
1.0
 76
     1
 77
     6
 78
     2
 67
     7
 79
     5
170
     0
171
     0
290
     0
174
     0
 93
       13
 44
0.0
173
     0
291
     1
 45
0.0
1001
ACAD
1000
AcDbSavedByObjectVersion
1070
     0
  0
VISUALSTYLE
  5
2E
102
{ACAD_REACTORS
330
2A
102
}
330
2A
100
AcDbVisualStyle
  2
GouraudWithEdges
 70
     3
 71
     2
 72
     2
 73
     1
 90
        2
 40
-0.6
 41
30.0
 62
     5
 63
     7
 74
     1
 91
        4
 64
     7
 65
   257
 75
     1
175
     1
 42
1.0
 92
        0
 66
   257
 43
1.0
 76
     1
 77
     6
 78
     2
 67
     7
 79
     5
170
     0
171
     0
290
     0
174
     0
 93
       13
 44
0.0
173
     0
291
     1
 45
0.0
1001
ACAD
1000
AcDbSavedByObjectVersion
1070
     0
  0
VISUALSTYLE
  5
38
102
{ACAD_REACTORS
330
2A
102
}
330
2A
100
AcDbVisualStyle
  2
Linepattern
 70
    14
 71
     2
 72
     2
 73
     0
 90
        0
 40
-0.6
 41
-30.0
 62
     5
 63
     7
 74
     1
 91
        4
 64
     7
 65
   257
 75
     7
175
     7
 42
1.0
 92
        8
 66
     7
 43
1.0
 76
     1
 77
     6
 78
     2
 67
     7
 79
     5
170
     0
171
     0
290
     0
174
     0
 93
        1
 44
0.0
173
     0
291
     1
 45
0.0
1001
ACAD
1000
AcDbSavedByObjectVersion
1070
     0
  0
VISUALSTYLE
  5
33
102
{ACAD_REACTORS
330
2A
102
}
330
2A
100
AcDbVisualStyle
  2
Realistic
 70
     8
 71
     2
 72
     2
 73
     0
 90
        0
 40
-0.6
 41
-30.0
 62
     5
 63
     7
 74
     1
 91
        0
 64
     7
 65
   257
 75
     1
175
     1
 42
1.0
 92
        8
 66
     8
 43
1.0
 76
     1
 77
     6
 78
     2
 67
     7
 79
     5
170
     0
171
     0
290
     0
174
     0
 93
       13
 44
0.0
173
     0
291
     0
 45
0.0
1001
ACAD
1000
AcDbSavedByObjectVersion
1070
     0
  0
VISUALSTYLE
  5
37
102
{ACAD_REACTORS
330
2A
102
}
330
2A
100
AcDbVisualStyle
  2
Thicken
 70
    13
 71
     2
 72
     2
 73
     0
 90
        0
 40
-0.6
 41
-30.0
 62
     5
 63
     7
 74
     1
 91
        4
 64
     7
 65
   257
 75
     1
175
     1
 42
1.0
 92
       12
 66
     7
 43
1.0
 76
     1
 77
     6
 78
     2
 67
     7
 79
     5
170
     0
171
     0
290
     0
174
     0
 93
        1
 44
0.0
173
     0
291
     1
 45
0.0
1001
ACAD
1000
AcDbSavedByObjectVersion
1070
     0
  0
DICTIONARYVAR
  5
204
102
{ACAD_REACTORS
330
202
102
}
330
202
100
DictionaryVariables
280
     0
  1
80.000000
  0
DICTIONARYVAR
  5
203
102
{ACAD_REACTORS
330
202
102
}
330
202
100
DictionaryVariables
280
     0
  1
5.000000
  0
ENDSEC
  0
EOF
