####
#
# OBJ File Generated by Meshlab
#
####
# Object a_10.obj
#
# Vertices: 26
# Faces: 48
#
####
vn -0.206385 0.977614 0.040933
v -2.249950 0.950025 -9.999973
vn 0.206513 0.978222 0.020842
v 2.250050 0.950025 -9.999973
vn 0.199838 0.946601 0.253004
v 2.250050 0.950025 -42.799976
vn -0.055594 0.971432 -0.230715
v -4.149950 0.950025 -59.999973
vn 0.147174 0.706435 0.692307
v 0.120050 0.050025 -9.999973
vn 0.203949 0.978954 0.007342
v 0.000050 0.050025 0.000023
vn -0.203949 -0.978954 0.007342
v 0.000050 0.000025 0.000023
vn 0.623084 0.567062 -0.538709
v 4.150050 0.950025 -59.999973
vn -0.738278 0.118570 -0.663993
v -4.149950 0.950025 -57.999973
vn -0.985204 -0.160166 0.060993
v -4.149950 0.000025 -42.799976
vn -0.358172 0.907733 0.218479
v -4.149950 6.550025 -42.799976
vn -0.200691 0.950643 0.236646
v -2.249950 0.950025 -42.799976
vn -0.196177 0.470825 0.860139
v -0.119950 0.050025 -9.999973
vn -0.665512 -0.746074 0.021609
v -2.249950 0.000025 -9.999973
vn 0.957126 -0.265525 0.115781
v 4.150050 0.000025 -42.799976
vn 0.064460 -0.997435 -0.031106
v 4.150050 0.000025 -59.999973
vn -0.056746 -0.998051 0.025951
v -2.249950 0.000025 -42.799976
vn -0.102999 -0.990687 -0.089051
v -4.149950 0.000025 -59.999973
vn 0.012478 -0.999921 0.001479
v 0.120050 0.000025 -9.999973
vn -0.006237 -0.999626 0.026645
v -0.119950 0.000025 -9.999973
vn 0.141833 -0.989843 0.009695
v 2.250050 0.000025 -9.999973
vn 0.235068 -0.971955 0.006808
v 2.250050 0.000025 -42.799976
vn 0.956196 0.170145 -0.238203
v 4.150050 0.950025 -57.999973
vn -0.808451 0.552275 -0.203470
v -4.149950 6.550025 -57.999973
vn 0.301790 0.894592 -0.329587
v 4.150050 6.550025 -57.999973
vn 0.772861 0.527963 0.352052
v 4.150050 6.550025 -42.799976
# 26 vertices, 0 vertices normals

f 1//1 2//2 12//12
f 12//12 2//2 3//3
f 8//8 4//4 23//23
f 23//23 4//4 9//9
f 6//6 13//13 7//7
f 7//7 13//13 20//20
f 5//5 6//6 19//19
f 19//19 6//6 7//7
f 3//3 2//2 22//22
f 22//22 2//2 21//21
f 25//25 26//26 23//23
f 23//23 26//26 15//15
f 23//23 15//15 8//8
f 8//8 15//15 16//16
f 4//4 8//8 18//18
f 18//18 8//8 16//16
f 4//4 18//18 9//9
f 9//9 18//18 10//10
f 9//9 10//10 24//24
f 24//24 10//10 11//11
f 22//22 15//15 3//3
f 3//3 15//15 26//26
f 3//3 26//26 12//12
f 12//12 26//26 11//11
f 12//12 11//11 17//17
f 17//17 11//11 10//10
f 1//1 12//12 14//14
f 14//14 12//12 17//17
f 19//19 21//21 5//5
f 5//5 21//21 2//2
f 5//5 2//2 13//13
f 13//13 2//2 1//1
f 13//13 1//1 20//20
f 20//20 1//1 14//14
f 13//13 6//6 5//5
f 20//20 14//14 17//17
f 15//15 22//22 16//16
f 16//16 22//22 17//17
f 16//16 17//17 18//18
f 18//18 17//17 10//10
f 7//7 20//20 19//19
f 19//19 20//20 17//17
f 19//19 17//17 21//21
f 21//21 17//17 22//22
f 24//24 25//25 9//9
f 9//9 25//25 23//23
f 24//24 11//11 25//25
f 25//25 11//11 26//26
# 48 faces, 0 coords texture

# End of File