  0
SECTION
  2
HEADER
  9
$ACADVER
  1
AC1015
  9
$ACADMAINTVER
 70
     6
  9
$DWGCODEPAGE
  3
ANSI_1252
  9
$INSBASE
 10
0.0
 20
0.0
 30
0.0
  9
$EXTMIN
 10
0.0
 20
0.0
 30
0.0
  9
$EXTMAX
 10
11.0
 20
8.5
 30
0.0
  9
$LIMMIN
 10
0.0
 20
0.0
  9
$LIMMAX
 10
11.0
 20
8.5
  9
$ORTHOMODE
 70
     0
  9
$REGENMODE
 70
     1
  9
$FILLMODE
 70
     1
  9
$QTEXTMODE
 70
     0
  9
$MIRRTEXT
 70
     1
  9
$LTSCALE
 40
1.0
  9
$ATTMODE
 70
     1
  9
$TEXTSIZE
 40
0.125
  9
$TRACEWID
 40
0.05
  9
$TEXTSTYLE
  7
Standard
  9
$CLAYER
  8
0
  9
$CELTYPE
  6
ByLayer
  9
$CECOLOR
 62
   256
  9
$CELTSCALE
 40
1.0
  9
$DISPSILH
 70
     0
  9
$DIMSCALE
 40
1.0
  9
$DIMASZ
 40
0.13
  9
$DIMEXO
 40
0.05
  9
$DIMDLI
 40
0.38
  9
$DIMRND
 40
0.0
  9
$DIMDLE
 40
0.0
  9
$DIMEXE
 40
0.125
  9
$DIMTP
 40
0.0
  9
$DIMTM
 40
0.0
  9
$DIMTXT
 40
0.125
  9
$DIMCEN
 40
0.09
  9
$DIMTSZ
 40
0.0
  9
$DIMTOL
 70
     0
  9
$DIMLIM
 70
     0
  9
$DIMTIH
 70
     1
  9
$DIMTOH
 70
     1
  9
$DIMSE1
 70
     0
  9
$DIMSE2
 70
     0
  9
$DIMTAD
 70
     1
  9
$DIMZIN
 70
     0
  9
$DIMBLK
  1

  9
$DIMASO
 70
     1
  9
$DIMSHO
 70
     1
  9
$DIMPOST
  1

  9
$DIMAPOST
  1

  9
$DIMALT
 70
     0
  9
$DIMALTD
 70
     2
  9
$DIMALTF
 40
25.4
  9
$DIMLFAC
 40
1.0
  9
$DIMTOFL
 70
     0
  9
$DIMTVP
 40
0.0
  9
$DIMTIX
 70
     0
  9
$DIMSOXD
 70
     0
  9
$DIMSAH
 70
     0
  9
$DIMBLK1
  1

  9
$DIMBLK2
  1

  9
$DIMSTYLE
  2
Standard
  9
$DIMCLRD
 70
     0
  9
$DIMCLRE
 70
     0
  9
$DIMCLRT
 70
     0
  9
$DIMTFAC
 40
1.0
  9
$DIMGAP
 40
0.06
  9
$DIMJUST
 70
     0
  9
$DIMSD1
 70
     0
  9
$DIMSD2
 70
     0
  9
$DIMTOLJ
 70
     1
  9
$DIMTZIN
 70
     0
  9
$DIMALTZ
 70
     0
  9
$DIMALTTZ
 70
     0
  9
$DIMUPT
 70
     0
  9
$DIMDEC
 70
     4
  9
$DIMTDEC
 70
     4
  9
$DIMALTU
 70
     2
  9
$DIMALTTD
 70
     2
  9
$DIMTXSTY
  7
Standard
  9
$DIMAUNIT
 70
     0
  9
$DIMADEC
 70
     0
  9
$DIMALTRND
 40
0.0
  9
$DIMAZIN
 70
     0
  9
$DIMDSEP
 70
    46
  9
$DIMATFIT
 70
     3
  9
$DIMFRAC
 70
     0
  9
$DIMLDRBLK
  1

  9
$DIMLUNIT
 70
     2
  9
$DIMLWD
 70
    -2
  9
$DIMLWE
 70
    -2
  9
$DIMTMOVE
 70
     0
  9
$LUNITS
 70
     2
  9
$LUPREC
 70
     2
  9
$SKETCHINC
 40
0.1
  9
$FILLETRAD
 40
0.5
  9
$AUNITS
 70
     0
  9
$AUPREC
 70
     0
  9
$MENU
  1
.
  9
$ELEVATION
 40
0.0
  9
$PELEVATION
 40
0.0
  9
$THICKNESS
 40
0.0
  9
$LIMCHECK
 70
     0
  9
$CHAMFERA
 40
0.5
  9
$CHAMFERB
 40
0.5
  9
$CHAMFERC
 40
1.0
  9
$CHAMFERD
 40
0.0
  9
$SKPOLY
 70
     0
  9
$TDCREATE
 40
2455390.469819989
  9
$TDUCREATE
 40
2455390.636486655
  9
$TDUPDATE
 40
2455390.46982
  9
$TDUUPDATE
 40
2455390.636486667
  9
$TDINDWG
 40
0.0000000116
  9
$TDUSRTIMER
 40
0.0000000116
  9
$USRTIMER
 70
     1
  9
$ANGBASE
 50
0.0
  9
$ANGDIR
 70
     0
  9
$PDMODE
 70
     0
  9
$PDSIZE
 40
-1.0
  9
$PLINEWID
 40
0.0
  9
$SPLFRAME
 70
     0
  9
$SPLINETYPE
 70
     6
  9
$SPLINESEGS
 70
     8
  9
$HANDSEED
  5
252
  9
$SURFTAB1
 70
     6
  9
$SURFTAB2
 70
     6
  9
$SURFTYPE
 70
     6
  9
$SURFU
 70
     6
  9
$SURFV
 70
     6
  9
$UCSBASE
  2

  9
$UCSNAME
  2

  9
$UCSORG
 10
0.0
 20
0.0
 30
0.0
  9
$UCSXDIR
 10
1.0
 20
0.0
 30
0.0
  9
$UCSYDIR
 10
0.0
 20
1.0
 30
0.0
  9
$UCSORTHOREF
  2

  9
$UCSORTHOVIEW
 70
     0
  9
$UCSORGTOP
 10
0.0
 20
0.0
 30
0.0
  9
$UCSORGBOTTOM
 10
0.0
 20
0.0
 30
0.0
  9
$UCSORGLEFT
 10
0.0
 20
0.0
 30
0.0
  9
$UCSORGRIGHT
 10
0.0
 20
0.0
 30
0.0
  9
$UCSORGFRONT
 10
0.0
 20
0.0
 30
0.0
  9
$UCSORGBACK
 10
0.0
 20
0.0
 30
0.0
  9
$PUCSBASE
  2

  9
$PUCSNAME
  2

  9
$PUCSORG
 10
0.0
 20
0.0
 30
0.0
  9
$PUCSXDIR
 10
1.0
 20
0.0
 30
0.0
  9
$PUCSYDIR
 10
0.0
 20
1.0
 30
0.0
  9
$PUCSORTHOREF
  2

  9
$PUCSORTHOVIEW
 70
     0
  9
$PUCSORGTOP
 10
0.0
 20
0.0
 30
0.0
  9
$PUCSORGBOTTOM
 10
0.0
 20
0.0
 30
0.0
  9
$PUCSORGLEFT
 10
0.0
 20
0.0
 30
0.0
  9
$PUCSORGRIGHT
 10
0.0
 20
0.0
 30
0.0
  9
$PUCSORGFRONT
 10
0.0
 20
0.0
 30
0.0
  9
$PUCSORGBACK
 10
0.0
 20
0.0
 30
0.0
  9
$USERI1
 70
     0
  9
$USERI2
 70
     0
  9
$USERI3
 70
     0
  9
$USERI4
 70
     0
  9
$USERI5
 70
     0
  9
$USERR1
 40
0.0
  9
$USERR2
 40
0.0
  9
$USERR3
 40
0.0
  9
$USERR4
 40
0.0
  9
$USERR5
 40
0.0
  9
$WORLDVIEW
 70
     1
  9
$SHADEDGE
 70
     3
  9
$SHADEDIF
 70
    70
  9
$TILEMODE
 70
     1
  9
$MAXACTVP
 70
    64
  9
$PINSBASE
 10
0.0
 20
0.0
 30
0.0
  9
$PLIMCHECK
 70
     0
  9
$PEXTMIN
 10
1.0000000000E+20
 20
1.0000000000E+20
 30
1.0000000000E+20
  9
$PEXTMAX
 10
-1.0000000000E+20
 20
-1.0000000000E+20
 30
-1.0000000000E+20
  9
$PLIMMIN
 10
0.0
 20
0.0
  9
$PLIMMAX
 10
12.0
 20
9.0
  9
$UNITMODE
 70
     0
  9
$VISRETAIN
 70
     1
  9
$PLINEGEN
 70
     0
  9
$PSLTSCALE
 70
     1
  9
$TREEDEPTH
 70
  3020
  9
$CMLSTYLE
  2
Standard
  9
$CMLJUST
 70
     0
  9
$CMLSCALE
 40
1.0
  9
$PROXYGRAPHICS
 70
     1
  9
$MEASUREMENT
 70
     0
  9
$CELWEIGHT
370
    -1
  9
$ENDCAPS
280
     0
  9
$JOINSTYLE
280
     0
  9
$LWDISPLAY
290
     1
  9
$INSUNITS
 70
     1
  9
$HYPERLINKBASE
  1

  9
$STYLESHEET
  1

  9
$XEDIT
290
     1
  9
$CEPSNTYPE
380
     0
  9
$PSTYLEMODE
290
     1
  9
$FINGERPRINTGUID
  2
{61DF7DF4-82E1-4477-9C15-09B551E29971}
  9
$VERSIONGUID
  2
{FAEB1C32-E019-11D5-929B-00C0DF256EC4}
  9
$EXTNAMES
290
     1
  9
$PSVPSCALE
 40
0.0
  9
$OLESTARTUP
290
     0
  0
ENDSEC
  0
SECTION
  2
CLASSES
  0
CLASS
  1
ACDBDICTIONARYWDFLT
  2
AcDbDictionaryWithDefault
  3
ObjectDBX Classes
 90
        0
280
     0
281
     0
  0
CLASS
  1
VISUALSTYLE
  2
AcDbVisualStyle
  3
ObjectDBX Classes
 90
     4095
280
     0
281
     0
  0
CLASS
  1
ACDBPLACEHOLDER
  2
AcDbPlaceHolder
  3
ObjectDBX Classes
 90
        0
280
     0
281
     0
  0
CLASS
  1
LAYOUT
  2
AcDbLayout
  3
ObjectDBX Classes
 90
        0
280
     0
281
     0
  0
ENDSEC
  0
SECTION
  2
TABLES
  0
TABLE
  2
VPORT
  5
8
330
0
100
AcDbSymbolTable
 70
     1
  0
VPORT
  5
29
330
8
100
AcDbSymbolTableRecord
100
AcDbViewportTableRecord
  2
*Active
 70
     0
 10
0.0
 20
0.0
 11
1.0
 21
1.0
 12
5.5
 22
4.25
 13
0.0
 23
0.0
 14
0.5
 24
0.5
 15
0.5
 25
0.5
 16
0.0
 26
0.0
 36
1.0
 17
0.0
 27
0.0
 37
0.0
 40
8.5
 41
1.2941176471
 42
50.0
 43
0.0
 44
0.0
 50
0.0
 51
0.0
 71
     0
 72
  2000
 73
     1
 74
     3
 75
     0
 76
     0
 77
     0
 78
     0
281
     0
 65
     1
110
0.0
120
0.0
130
0.0
111
1.0
121
0.0
131
0.0
112
0.0
122
1.0
132
0.0
 79
     0
146
0.0
  0
ENDTAB
  0
TABLE
  2
LTYPE
  5
5
330
0
100
AcDbSymbolTable
 70
     6
  0
LTYPE
  5
14
330
5
100
AcDbSymbolTableRecord
100
AcDbLinetypeTableRecord
  2
ByBlock
 70
     0
  3

 72
    65
 73
     0
 40
0.0
  0
LTYPE
  5
15
330
5
100
AcDbSymbolTableRecord
100
AcDbLinetypeTableRecord
  2
ByLayer
 70
     0
  3

 72
    65
 73
     0
 40
0.0
  0
LTYPE
  5
16
330
5
100
AcDbSymbolTableRecord
100
AcDbLinetypeTableRecord
  2
Continuous
 70
     0
  3
Solid line
 72
    65
 73
     0
 40
0.0
  0
LTYPE
  5
3B
330
5
100
AcDbSymbolTableRecord
100
AcDbLinetypeTableRecord
  2
HIDDEN
 70
     0
  3
Hidden __ __ __ __ __ __ __ __ __ __ __ __ __ __
 72
    65
 73
     2
 40
0.075
 49
0.05
 74
     0
 49
-0.025
 74
     0
  0
LTYPE
  5
3C
330
5
100
AcDbSymbolTableRecord
100
AcDbLinetypeTableRecord
  2
PHANTOM
 70
     0
  3
Phantom ______  __  __  ______  __  __  ______
 72
    65
 73
     6
 40
0.5
 49
0.25
 74
     0
 49
-0.05
 74
     0
 49
0.05
 74
     0
 49
-0.05
 74
     0
 49
0.05
 74
     0
 49
-0.05
 74
     0
  0
LTYPE
  5
3D
330
5
100
AcDbSymbolTableRecord
100
AcDbLinetypeTableRecord
  2
CENTER
 70
     0
  3
Center ____ _ ____ _ ____ _ ____ _ ____ _ ____
 72
    65
 73
     4
 40
0.4
 49
0.25
 74
     0
 49
-0.05
 74
     0
 49
0.05
 74
     0
 49
-0.05
 74
     0
  0
LTYPE
  5
3E
330
5
100
AcDbSymbolTableRecord
100
AcDbLinetypeTableRecord
  2
CENTERX2
 70
     0
  3
Center (2x) ________  __  ________  __  _____
 72
    65
 73
     4
 40
0.8
 49
0.5
 74
     0
 49
-0.1
 74
     0
 49
0.1
 74
     0
 49
-0.1
 74
     0
  0
LTYPE
  5
3F
330
5
100
AcDbSymbolTableRecord
100
AcDbLinetypeTableRecord
  2
DOT2
 70
     0
  3
Dot (.5x) ........................................
 72
    65
 73
     2
 40
0.025
 49
0.0
 74
     0
 49
-0.025
 74
     0
  0
ENDTAB
  0
TABLE
  2
LAYER
  5
2
330
0
100
AcDbSymbolTable
 70
     2
  0
LAYER
  5
10
330
2
100
AcDbSymbolTableRecord
100
AcDbLayerTableRecord
  2
0
 70
     0
 62
     7
  6
Continuous
370
    -3
390
F
  0
LAYER
  5
40
330
2
100
AcDbSymbolTableRecord
100
AcDbLayerTableRecord
  2
FORMAT
 70
     0
 62
     7
  6
Continuous
370
    -3
390
F
  0
ENDTAB
  0
TABLE
  2
STYLE
  5
3
330
0
100
AcDbSymbolTable
 70
     2
  0
STYLE
  5
11
330
3
100
AcDbSymbolTableRecord
100
AcDbTextStyleTableRecord
  2
Standard
 70
     0
 40
0.0
 41
1.0
 50
0.0
 71
     0
 42
0.2
  3
txt
  4

  0
STYLE
  5
44
330
3
100
AcDbSymbolTableRecord
100
AcDbTextStyleTableRecord
  2
SLDTEXTSTYLE0
 70
     0
 40
0.0
 41
0.75
 50
0.0
 71
     0
 42
0.2
  3
TXT
  4

  0
ENDTAB
  0
TABLE
  2
VIEW
  5
6
330
0
100
AcDbSymbolTable
 70
     0
  0
ENDTAB
  0
TABLE
  2
UCS
  5
7
330
0
100
AcDbSymbolTable
 70
     0
  0
ENDTAB
  0
TABLE
  2
APPID
  5
9
330
0
100
AcDbSymbolTable
 70
     1
  0
APPID
  5
12
330
9
100
AcDbSymbolTableRecord
100
AcDbRegAppTableRecord
  2
ACAD
 70
     0
  0
ENDTAB
  0
TABLE
  2
DIMSTYLE
  5
A
330
0
100
AcDbSymbolTable
 70
     4
100
AcDbDimStyleTable
  0
DIMSTYLE
105
27
330
A
100
AcDbSymbolTableRecord
100
AcDbDimStyleTableRecord
  2
Standard
 70
     0
340
11
  0
DIMSTYLE
105
77
102
{ACAD_REACTORS
330
76
330
8B
330
C8
330
F0
330
104
330
117
330
228
102
}
330
A
100
AcDbSymbolTableRecord
100
AcDbDimStyleTableRecord
  2
SLDDIMSTYLE0
 70
     0
 41
0.13
 44
0.0
 45
0.000000001
 78
    12
140
0.125
147
0.03125
148
0.000000001
170
     1
171
     3
173
     1
271
     2
272
     2
274
     3
284
    12
340
44
  0
DIMSTYLE
105
A0
102
{ACAD_REACTORS
330
9F
330
B4
330
DC
330
23C
102
}
330
A
100
AcDbSymbolTableRecord
100
AcDbDimStyleTableRecord
  2
SLDDIMSTYLE1
 70
     0
 41
0.13
 44
0.0
 45
0.000000001
 78
    12
140
0.125
147
0.03125
148
0.000000001
170
     1
171
     3
173
     1
271
     2
272
     2
274
     3
284
    12
340
44
  0
DIMSTYLE
105
12C
102
{ACAD_REACTORS
330
12B
330
1A8
330
1C4
102
}
330
A
100
AcDbSymbolTableRecord
100
AcDbDimStyleTableRecord
  2
SLDDIMSTYLE2
 70
     0
  3
<>
  4
<>
 41
0.13
 44
0.0
 45
0.000000001
 78
    12
140
0.125
147
0.03125
148
0.000000001
170
     1
171
     3
173
     1
271
     0
272
     2
274
     3
284
    12
340
44
  0
ENDTAB
  0
TABLE
  2
BLOCK_RECORD
  5
1
330
0
100
AcDbSymbolTable
 70
    23
  0
BLOCK_RECORD
  5
1F
330
1
100
AcDbSymbolTableRecord
100
AcDbBlockTableRecord
  2
*Model_Space
340
22
  0
BLOCK_RECORD
  5
1B
330
1
100
AcDbSymbolTableRecord
100
AcDbBlockTableRecord
  2
*Paper_Space
340
1E
  0
BLOCK_RECORD
  5
23
330
1
100
AcDbSymbolTableRecord
100
AcDbBlockTableRecord
  2
*Paper_Space0
340
26
  0
BLOCK_RECORD
  5
41
330
1
100
AcDbSymbolTableRecord
100
AcDbBlockTableRecord
  2
SW_NOTE_0
340
0
102
{BLKREFS
331
4B
102
}
  0
BLOCK_RECORD
  5
78
330
1
100
AcDbSymbolTableRecord
100
AcDbBlockTableRecord
  2
*D2
340
0
  0
BLOCK_RECORD
  5
8C
330
1
100
AcDbSymbolTableRecord
100
AcDbBlockTableRecord
  2
*D3
340
0
  0
BLOCK_RECORD
  5
A1
330
1
100
AcDbSymbolTableRecord
100
AcDbBlockTableRecord
  2
*D4
340
0
  0
BLOCK_RECORD
  5
B5
330
1
100
AcDbSymbolTableRecord
100
AcDbBlockTableRecord
  2
*D5
340
0
  0
BLOCK_RECORD
  5
C9
330
1
100
AcDbSymbolTableRecord
100
AcDbBlockTableRecord
  2
*D6
340
0
  0
BLOCK_RECORD
  5
DD
330
1
100
AcDbSymbolTableRecord
100
AcDbBlockTableRecord
  2
*D7
340
0
  0
BLOCK_RECORD
  5
F1
330
1
100
AcDbSymbolTableRecord
100
AcDbBlockTableRecord
  2
*D8
340
0
  0
BLOCK_RECORD
  5
105
330
1
100
AcDbSymbolTableRecord
100
AcDbBlockTableRecord
  2
*D9
340
0
  0
BLOCK_RECORD
  5
118
330
1
100
AcDbSymbolTableRecord
100
AcDbBlockTableRecord
  2
*D10
340
0
  0
BLOCK_RECORD
  5
12D
330
1
100
AcDbSymbolTableRecord
100
AcDbBlockTableRecord
  2
*D11
340
0
  0
BLOCK_RECORD
  5
139
330
1
100
AcDbSymbolTableRecord
100
AcDbBlockTableRecord
  2
SW_SYMBOL_HOLE_DEPTH
340
0
102
{BLKREFS
331
140
331
1BA
331
1D0
102
}
  0
BLOCK_RECORD
  5
143
330
1
100
AcDbSymbolTableRecord
100
AcDbBlockTableRecord
  2
SW_CENTERMARKSYMBOL_0
340
0
102
{BLKREFS
331
162
102
}
  0
BLOCK_RECORD
  5
163
330
1
100
AcDbSymbolTableRecord
100
AcDbBlockTableRecord
  2
SW_CENTERMARKSYMBOL_1
340
0
102
{BLKREFS
331
182
102
}
  0
BLOCK_RECORD
  5
183
330
1
100
AcDbSymbolTableRecord
100
AcDbBlockTableRecord
  2
SW_CENTERMARKSYMBOL_2
340
0
102
{BLKREFS
331
195
102
}
  0
BLOCK_RECORD
  5
1A9
330
1
100
AcDbSymbolTableRecord
100
AcDbBlockTableRecord
  2
*D16
340
0
  0
BLOCK_RECORD
  5
1AF
330
1
100
AcDbSymbolTableRecord
100
AcDbBlockTableRecord
  2
SW_SYMBOL_HOLE_SPOT
340
0
102
{BLKREFS
331
1B5
331
1CB
102
}
  0
BLOCK_RECORD
  5
1C5
330
1
100
AcDbSymbolTableRecord
100
AcDbBlockTableRecord
  2
*D18
340
0
  0
BLOCK_RECORD
  5
1DA
330
1
100
AcDbSymbolTableRecord
100
AcDbBlockTableRecord
  2
SW_CENTERMARKSYMBOL_3
340
0
102
{BLKREFS
331
1F9
102
}
  0
BLOCK_RECORD
  5
1FA
330
1
100
AcDbSymbolTableRecord
100
AcDbBlockTableRecord
  2
SW_CENTERMARKSYMBOL_4
340
0
102
{BLKREFS
331
219
102
}
  0
BLOCK_RECORD
  5
229
330
1
100
AcDbSymbolTableRecord
100
AcDbBlockTableRecord
  2
*D21
340
0
  0
BLOCK_RECORD
  5
23D
330
1
100
AcDbSymbolTableRecord
100
AcDbBlockTableRecord
  2
*D22
340
0
  0
ENDTAB
  0
ENDSEC
  0
SECTION
  2
BLOCKS
  0
BLOCK
  5
20
330
1F
100
AcDbEntity
  8
0
100
AcDbBlockBegin
  2
*Model_Space
 70
     0
 10
0.0
 20
0.0
 30
0.0
  3
*Model_Space
  1

  0
ENDBLK
  5
21
330
1F
100
AcDbEntity
  8
0
100
AcDbBlockEnd
  0
BLOCK
  5
1C
330
1B
100
AcDbEntity
 67
     1
  8
0
100
AcDbBlockBegin
  2
*Paper_Space
 70
     0
 10
0.0
 20
0.0
 30
0.0
  3
*Paper_Space
  1

  0
ENDBLK
  5
1D
330
1B
100
AcDbEntity
 67
     1
  8
0
100
AcDbBlockEnd
  0
BLOCK
  5
24
330
23
100
AcDbEntity
  8
0
100
AcDbBlockBegin
  2
*Paper_Space0
 70
     0
 10
0.0
 20
0.0
 30
0.0
  3
*Paper_Space0
  1

  0
ENDBLK
  5
25
330
23
100
AcDbEntity
  8
0
100
AcDbBlockEnd
  0
BLOCK
  5
42
330
41
100
AcDbEntity
  8
0
100
AcDbBlockBegin
  2
SW_NOTE_0
 70
     0
 10
0.0
 20
0.0
 30
0.0
  3
SW_NOTE_0
  1

  0
MTEXT
  5
45
330
41
100
AcDbEntity
  8
0
  6
Continuous
 62
     0
370
     0
100
AcDbMText
 10
0.0
 20
0.2417002012
 30
0.0
 40
0.1875
 41
0.0
 71
     1
 72
     1
  1
Number: 1
  7
SLDTEXTSTYLE0
 73
     1
 44
1.0
  0
MTEXT
  5
46
330
41
100
AcDbEntity
  8
0
  6
Continuous
 62
     0
370
     0
100
AcDbMText
 10
0.0
 20
-0.0082997958
 30
0.0
 40
0.1875
 41
0.0
 71
     1
 72
     1
  1
Material: Aluminum
  7
SLDTEXTSTYLE0
 73
     1
 44
1.0
  0
MTEXT
  5
47
330
41
100
AcDbEntity
  8
0
  6
Continuous
 62
     0
370
     0
100
AcDbMText
 10
0.0
 20
-0.2582997928
 30
0.0
 40
0.1875
 41
0.0
 71
     1
 72
     1
  1
Scale: 1:1
  7
SLDTEXTSTYLE0
 73
     1
 44
1.0
  0
MTEXT
  5
48
330
41
100
AcDbEntity
  8
0
  6
Continuous
 62
     0
370
     0
100
AcDbMText
 10
0.0
 20
-0.7582997867
 30
0.0
 40
0.1875
 41
0.0
 71
     1
 72
     1
  1
Brett Graham
  7
SLDTEXTSTYLE0
 73
     1
 44
1.0
  0
MTEXT
  5
49
330
41
100
AcDbEntity
  8
0
  6
Continuous
 62
     0
370
     0
100
AcDbMText
 10
0.0
 20
-1.0082997837
 30
0.0
 40
0.1875
 41
0.0
 71
     1
 72
     1
  1
Thorlabs W-plate rev.A
  7
SLDTEXTSTYLE0
 73
     1
 44
1.0
  0
MTEXT
  5
4A
330
41
100
AcDbEntity
  8
0
  6
Continuous
 62
     0
370
     0
100
AcDbMText
 10
0.0
 20
-1.2582997807
 30
0.0
 40
0.1875
 41
0.0
 71
     1
 72
     1
  1
Date: 6-12-10
  7
SLDTEXTSTYLE0
 73
     1
 44
1.0
  0
ENDBLK
  5
43
330
41
100
AcDbEntity
  8
0
100
AcDbBlockEnd
  0
BLOCK
  5
79
330
78
100
AcDbEntity
  8
0
100
AcDbBlockBegin
  2
*D2
 70
     1
 10
0.0
 20
0.0
 30
0.0
  3
*D2
  1

  0
ARC
  5
7B
330
78
100
AcDbEntity
  8
0
  6
Continuous
 62
     7
370
     0
100
AcDbCircle
 10
5.0150799104
 20
6.6841166157
 30
0.0
 40
0.4434449358101271
100
AcDbArc
 50
153.4349488229
 51
206.5650511771
  0
ARC
  5
7C
330
78
100
AcDbEntity
  8
0
  6
Continuous
 62
     7
370
     0
100
AcDbCircle
 10
5.0467238906
 20
6.6841166157
 30
0.0
 40
0.4434449358101286
100
AcDbArc
 50
333.4349488229
 51
26.5650511771
  0
SOLID
  5
7D
330
78
100
AcDbEntity
  8
0
  6
Continuous
 62
     7
370
     0
100
AcDbTrace
 10
6.3193022264
 20
6.6841166157
 30
0.0
 11
6.1893022264
 21
6.7041166157
 31
0.0
 12
6.1893022264
 22
6.6641166157
 32
0.0
 13
6.1893022264
 23
6.6641166157
 33
0.0
  0
SOLID
  5
7E
330
78
100
AcDbEntity
  8
0
  6
Continuous
 62
     7
370
     0
100
AcDbTrace
 10
3.7602471083
 20
6.6841166157
 30
0.0
 11
3.8902471083
 21
6.6641166157
 31
0.0
 12
3.8902471083
 22
6.7041166157
 32
0.0
 13
3.8902471083
 23
6.7041166157
 33
0.0
  0
LINE
  5
7F
330
78
100
AcDbEntity
  8
0
  6
Continuous
 62
     7
370
     0
100
AcDbLine
 10
4.7316449843
 20
6.8675576245
 30
0.0
 11
4.7316449843
 21
6.698990211
 31
0.0
  0
LINE
  5
80
330
78
100
AcDbEntity
  8
0
  6
Continuous
 62
     7
370
     0
100
AcDbLine
 10
4.7316449843
 20
6.698990211
 30
0.0
 11
4.7569921254
 21
6.698990211
 31
0.0
  0
LINE
  5
81
330
78
100
AcDbEntity
  8
0
  6
Continuous
 62
     7
370
     0
100
AcDbLine
 10
4.7316449843
 20
6.8675576245
 30
0.0
 11
4.7569921254
 21
6.8675576245
 31
0.0
  0
LINE
  5
82
330
78
100
AcDbEntity
  8
0
  6
Continuous
 62
     7
370
     0
100
AcDbLine
 10
5.3301588166
 20
6.8675576245
 30
0.0
 11
5.3301588166
 21
6.698990211
 31
0.0
  0
LINE
  5
83
330
78
100
AcDbEntity
  8
0
  6
Continuous
 62
     7
370
     0
100
AcDbLine
 10
5.3301588166
 20
6.698990211
 30
0.0
 11
5.3048116755
 21
6.698990211
 31
0.0
  0
LINE
  5
84
330
78
100
AcDbEntity
  8
0
  6
Continuous
 62
     7
370
     0
100
AcDbLine
 10
5.3301588166
 20
6.8675576245
 30
0.0
 11
5.3048116755
 21
6.8675576245
 31
0.0
  0
LINE
  5
85
330
78
100
AcDbEntity
  8
0
  6
Continuous
 62
     7
370
     0
100
AcDbLine
 10
6.3193022264
 20
4.2430754376
 30
0.0
 11
6.3193022264
 21
6.8091166157
 31
0.0
  0
LINE
  5
86
330
78
100
AcDbEntity
  8
0
  6
Continuous
 62
     7
370
     0
100
AcDbLine
 10
3.7602471083
 20
4.2430754376
 30
0.0
 11
3.7602471083
 21
6.8091166157
 31
0.0
  0
LINE
  5
87
330
78
100
AcDbEntity
  8
0
  6
Continuous
 62
     7
370
     0
100
AcDbLine
 10
6.3193022264
 20
6.6841166157
 30
0.0
 11
5.6579359456
 21
6.6841166157
 31
0.0
  0
LINE
  5
88
330
78
100
AcDbEntity
  8
0
  6
Continuous
 62
     7
370
     0
100
AcDbLine
 10
3.7602471083
 20
6.6841166157
 30
0.0
 11
4.4038678553
 21
6.6841166157
 31
0.0
  0
MTEXT
  5
89
330
78
100
AcDbEntity
  8
0
  6
Continuous
 62
     7
370
     0
100
AcDbMText
 10
4.8018851254
 20
6.6469354927
 30
0.0
 40
0.125
 41
0.0
 71
     1
 72
     1
  1
2.56in
  7
SLDTEXTSTYLE0
 73
     1
 44
1.0
  0
MTEXT
  5
8A
330
78
100
AcDbEntity
  8
0
  6
Continuous
 62
     7
370
     0
100
AcDbMText
 10
4.7823392666
 20
6.8452500969
 30
0.0
 40
0.125
 41
0.0
 71
     1
 72
     1
  1
65mm
  7
SLDTEXTSTYLE0
 73
     1
 44
1.0
  0
ENDBLK
  5
7A
330
78
100
AcDbEntity
  8
0
100
AcDbBlockEnd
  0
BLOCK
  5
8D
330
8C
100
AcDbEntity
  8
0
100
AcDbBlockBegin
  2
*D3
 70
     1
 10
0.0
 20
0.0
 30
0.0
  3
*D3
  1

  0
ARC
  5
8F
330
8C
100
AcDbEntity
  8
0
  6
Continuous
 62
     7
370
     0
100
AcDbCircle
 10
5.0150799104
 20
6.1196583751
 30
0.0
 40
0.4434449358101294
100
AcDbArc
 50
153.4349488229
 51
206.5650511771
  0
ARC
  5
90
330
8C
100
AcDbEntity
  8
0
  6
Continuous
 62
     7
370
     0
100
AcDbCircle
 10
5.0467238906
 20
6.1196583751
 30
0.0
 40
0.4434449358101318
100
AcDbArc
 50
333.4349488229
 51
26.5650511771
  0
SOLID
  5
91
330
8C
100
AcDbEntity
  8
0
  6
Continuous
 62
     7
370
     0
100
AcDbTrace
 10
3.8980423839
 20
6.1196583751
 30
0.0
 11
4.0280423839
 21
6.0996583751
 31
0.0
 12
4.0280423839
 22
6.1396583751
 32
0.0
 13
4.0280423839
 23
6.1396583751
 33
0.0
  0
SOLID
  5
92
330
8C
100
AcDbEntity
  8
0
  6
Continuous
 62
     7
370
     0
100
AcDbTrace
 10
6.1815069508
 20
6.1196583751
 30
0.0
 11
6.0515069508
 21
6.1396583751
 31
0.0
 12
6.0515069508
 22
6.0996583751
 32
0.0
 13
6.0515069508
 23
6.0996583751
 33
0.0
  0
LINE
  5
93
330
8C
100
AcDbEntity
  8
0
  6
Continuous
 62
     7
370
     0
100
AcDbLine
 10
4.7316449843
 20
6.3030993839
 30
0.0
 11
4.7316449843
 21
6.1345319704
 31
0.0
  0
LINE
  5
94
330
8C
100
AcDbEntity
  8
0
  6
Continuous
 62
     7
370
     0
100
AcDbLine
 10
4.7316449843
 20
6.1345319704
 30
0.0
 11
4.7569921254
 21
6.1345319704
 31
0.0
  0
LINE
  5
95
330
8C
100
AcDbEntity
  8
0
  6
Continuous
 62
     7
370
     0
100
AcDbLine
 10
4.7316449843
 20
6.3030993839
 30
0.0
 11
4.7569921254
 21
6.3030993839
 31
0.0
  0
LINE
  5
96
330
8C
100
AcDbEntity
  8
0
  6
Continuous
 62
     7
370
     0
100
AcDbLine
 10
5.3301588166
 20
6.3030993839
 30
0.0
 11
5.3301588166
 21
6.1345319704
 31
0.0
  0
LINE
  5
97
330
8C
100
AcDbEntity
  8
0
  6
Continuous
 62
     7
370
     0
100
AcDbLine
 10
5.3301588166
 20
6.1345319704
 30
0.0
 11
5.3048116755
 21
6.1345319704
 31
0.0
  0
LINE
  5
98
330
8C
100
AcDbEntity
  8
0
  6
Continuous
 62
     7
370
     0
100
AcDbLine
 10
5.3301588166
 20
6.3030993839
 30
0.0
 11
5.3048116755
 21
6.3030993839
 31
0.0
  0
LINE
  5
99
330
8C
100
AcDbEntity
  8
0
  6
Continuous
 62
     7
370
     0
100
AcDbLine
 10
3.8980423839
 20
4.2938628392
 30
0.0
 11
3.8980423839
 21
6.2446583751
 31
0.0
  0
LINE
  5
9A
330
8C
100
AcDbEntity
  8
0
  6
Continuous
 62
     7
370
     0
100
AcDbLine
 10
6.1815069508
 20
4.2938628392
 30
0.0
 11
6.1815069508
 21
6.2446583751
 31
0.0
  0
LINE
  5
9B
330
8C
100
AcDbEntity
  8
0
  6
Continuous
 62
     7
370
     0
100
AcDbLine
 10
3.8980423839
 20
6.1196583751
 30
0.0
 11
4.4038678553
 21
6.1196583751
 31
0.0
  0
LINE
  5
9C
330
8C
100
AcDbEntity
  8
0
  6
Continuous
 62
     7
370
     0
100
AcDbLine
 10
6.1815069508
 20
6.1196583751
 30
0.0
 11
5.6579359456
 21
6.1196583751
 31
0.0
  0
MTEXT
  5
9D
330
8C
100
AcDbEntity
  8
0
  6
Continuous
 62
     7
370
     0
100
AcDbMText
 10
4.8018851254
 20
6.0824772521
 30
0.0
 40
0.125
 41
0.0
 71
     1
 72
     1
  1
2.28in
  7
SLDTEXTSTYLE0
 73
     1
 44
1.0
  0
MTEXT
  5
9E
330
8C
100
AcDbEntity
  8
0
  6
Continuous
 62
     7
370
     0
100
AcDbMText
 10
4.7823392666
 20
6.2807918563
 30
0.0
 40
0.125
 41
0.0
 71
     1
 72
     1
  1
58mm
  7
SLDTEXTSTYLE0
 73
     1
 44
1.0
  0
ENDBLK
  5
8E
330
8C
100
AcDbEntity
  8
0
100
AcDbBlockEnd
  0
BLOCK
  5
A2
330
A1
100
AcDbEntity
  8
0
100
AcDbBlockBegin
  2
*D4
 70
     1
 10
0.0
 20
0.0
 30
0.0
  3
*D4
  1

  0
ARC
  5
A4
330
A1
100
AcDbEntity
  8
0
  6
Continuous
 62
     7
370
     0
100
AcDbCircle
 10
5.0150799104
 20
5.6472174302
 30
0.0
 40
0.4434449358101282
100
AcDbArc
 50
153.4349488229
 51
206.5650511771
  0
ARC
  5
A5
330
A1
100
AcDbEntity
  8
0
  6
Continuous
 62
     7
370
     0
100
AcDbCircle
 10
5.0467238906
 20
5.6472174302
 30
0.0
 40
0.4434449358101298
100
AcDbArc
 50
333.4349488229
 51
26.5650511771
  0
SOLID
  5
A6
330
A1
100
AcDbEntity
  8
0
  6
Continuous
 62
     7
370
     0
100
AcDbTrace
 10
4.5476486831
 20
5.6472174302
 30
0.0
 11
4.4176486831
 21
5.6672174302
 31
0.0
 12
4.4176486831
 22
5.6272174302
 32
0.0
 13
4.4176486831
 23
5.6272174302
 33
0.0
  0
SOLID
  5
A7
330
A1
100
AcDbEntity
  8
0
  6
Continuous
 62
     7
370
     0
100
AcDbTrace
 10
5.5319006516
 20
5.6472174302
 30
0.0
 11
5.6619006516
 21
5.6272174302
 31
0.0
 12
5.6619006516
 22
5.6672174302
 32
0.0
 13
5.6619006516
 23
5.6672174302
 33
0.0
  0
LINE
  5
A8
330
A1
100
AcDbEntity
  8
0
  6
Continuous
 62
     7
370
     0
100
AcDbLine
 10
4.7316449843
 20
5.830658439
 30
0.0
 11
4.7316449843
 21
5.6620910255
 31
0.0
  0
LINE
  5
A9
330
A1
100
AcDbEntity
  8
0
  6
Continuous
 62
     7
370
     0
100
AcDbLine
 10
4.7316449843
 20
5.6620910255
 30
0.0
 11
4.7569921254
 21
5.6620910255
 31
0.0
  0
LINE
  5
AA
330
A1
100
AcDbEntity
  8
0
  6
Continuous
 62
     7
370
     0
100
AcDbLine
 10
4.7316449843
 20
5.830658439
 30
0.0
 11
4.7569921254
 21
5.830658439
 31
0.0
  0
LINE
  5
AB
330
A1
100
AcDbEntity
  8
0
  6
Continuous
 62
     7
370
     0
100
AcDbLine
 10
5.3301588166
 20
5.830658439
 30
0.0
 11
5.3301588166
 21
5.6620910255
 31
0.0
  0
LINE
  5
AC
330
A1
100
AcDbEntity
  8
0
  6
Continuous
 62
     7
370
     0
100
AcDbLine
 10
5.3301588166
 20
5.6620910255
 30
0.0
 11
5.3048116755
 21
5.6620910255
 31
0.0
  0
LINE
  5
AD
330
A1
100
AcDbEntity
  8
0
  6
Continuous
 62
     7
370
     0
100
AcDbLine
 10
5.3301588166
 20
5.830658439
 30
0.0
 11
5.3048116755
 21
5.830658439
 31
0.0
  0
LINE
  5
AE
330
A1
100
AcDbEntity
  8
0
  6
Continuous
 62
     7
370
     0
100
AcDbLine
 10
4.5476486831
 20
3.7741777998
 30
0.0
 11
4.5476486831
 21
5.7722174302
 31
0.0
  0
LINE
  5
AF
330
A1
100
AcDbEntity
  8
0
  6
Continuous
 62
     7
370
     0
100
AcDbLine
 10
5.5319006516
 20
3.7741777998
 30
0.0
 11
5.5319006516
 21
5.7722174302
 31
0.0
  0
LINE
  5
B0
330
A1
100
AcDbEntity
  8
0
  6
Continuous
 62
     7
370
     0
100
AcDbLine
 10
4.5476486831
 20
5.6472174302
 30
0.0
 11
4.2976486831
 21
5.6472174302
 31
0.0
  0
LINE
  5
B1
330
A1
100
AcDbEntity
  8
0
  6
Continuous
 62
     7
370
     0
100
AcDbLine
 10
5.5319006516
 20
5.6472174302
 30
0.0
 11
5.7819006516
 21
5.6472174302
 31
0.0
  0
MTEXT
  5
B2
330
A1
100
AcDbEntity
  8
0
  6
Continuous
 62
     7
370
     0
100
AcDbMText
 10
4.8480276323
 20
5.6100363073
 30
0.0
 40
0.125
 41
0.0
 71
     1
 72
     1
  1
.98in
  7
SLDTEXTSTYLE0
 73
     1
 44
1.0
  0
MTEXT
  5
B3
330
A1
100
AcDbEntity
  8
0
  6
Continuous
 62
     7
370
     0
100
AcDbMText
 10
4.7823392666
 20
5.8083509114
 30
0.0
 40
0.125
 41
0.0
 71
     1
 72
     1
  1
25mm
  7
SLDTEXTSTYLE0
 73
     1
 44
1.0
  0
ENDBLK
  5
A3
330
A1
100
AcDbEntity
  8
0
100
AcDbBlockEnd
  0
BLOCK
  5
B6
330
B5
100
AcDbEntity
  8
0
100
AcDbBlockBegin
  2
*D5
 70
     1
 10
0.0
 20
0.0
 30
0.0
  3
*D5
  1

  0
ARC
  5
B8
330
B5
100
AcDbEntity
  8
0
  6
Continuous
 62
     7
370
     0
100
AcDbCircle
 10
4.9458215248
 20
5.1747764853
 30
0.0
 40
0.4434449358101271
100
AcDbArc
 50
153.4349488229
 51
206.5650511771
  0
ARC
  5
B9
330
B5
100
AcDbEntity
  8
0
  6
Continuous
 62
     7
370
     0
100
AcDbCircle
 10
5.1159822762
 20
5.1747764853
 30
0.0
 40
0.4434449358101271
100
AcDbArc
 50
333.4349488229
 51
26.5650511771
  0
SOLID
  5
BA
330
B5
100
AcDbEntity
  8
0
  6
Continuous
 62
     7
370
     0
100
AcDbTrace
 10
4.7208770295
 20
5.1747764853
 30
0.0
 11
4.5908770295
 21
5.1947764853
 31
0.0
 12
4.5908770295
 22
5.1547764853
 32
0.0
 13
4.5908770295
 23
5.1547764853
 33
0.0
  0
SOLID
  5
BB
330
B5
100
AcDbEntity
  8
0
  6
Continuous
 62
     7
370
     0
100
AcDbTrace
 10
5.3586723051
 20
5.1747764853
 30
0.0
 11
5.4886723051
 21
5.1547764853
 31
0.0
 12
5.4886723051
 22
5.1947764853
 32
0.0
 13
5.4886723051
 23
5.1947764853
 33
0.0
  0
LINE
  5
BC
330
B5
100
AcDbEntity
  8
0
  6
Continuous
 62
     7
370
     0
100
AcDbLine
 10
4.6623865987
 20
5.3582174941
 30
0.0
 11
4.6623865987
 21
5.1896500806
 31
0.0
  0
LINE
  5
BD
330
B5
100
AcDbEntity
  8
0
  6
Continuous
 62
     7
370
     0
100
AcDbLine
 10
4.6623865987
 20
5.1896500806
 30
0.0
 11
4.6877337398
 21
5.1896500806
 31
0.0
  0
LINE
  5
BE
330
B5
100
AcDbEntity
  8
0
  6
Continuous
 62
     7
370
     0
100
AcDbLine
 10
4.6623865987
 20
5.3582174941
 30
0.0
 11
4.6877337398
 21
5.3582174941
 31
0.0
  0
LINE
  5
BF
330
B5
100
AcDbEntity
  8
0
  6
Continuous
 62
     7
370
     0
100
AcDbLine
 10
5.3994172022
 20
5.3582174941
 30
0.0
 11
5.3994172022
 21
5.1896500806
 31
0.0
  0
LINE
  5
C0
330
B5
100
AcDbEntity
  8
0
  6
Continuous
 62
     7
370
     0
100
AcDbLine
 10
5.3994172022
 20
5.1896500806
 30
0.0
 11
5.3740700611
 21
5.1896500806
 31
0.0
  0
LINE
  5
C1
330
B5
100
AcDbEntity
  8
0
  6
Continuous
 62
     7
370
     0
100
AcDbLine
 10
5.3994172022
 20
5.3582174941
 30
0.0
 11
5.3740700611
 21
5.3582174941
 31
0.0
  0
LINE
  5
C2
330
B5
100
AcDbEntity
  8
0
  6
Continuous
 62
     7
370
     0
100
AcDbLine
 10
4.7208770295
 20
4.2800833116
 30
0.0
 11
4.7208770295
 21
5.2997764853
 31
0.0
  0
LINE
  5
C3
330
B5
100
AcDbEntity
  8
0
  6
Continuous
 62
     7
370
     0
100
AcDbLine
 10
5.3586723051
 20
4.2800833116
 30
0.0
 11
5.3586723051
 21
5.2997764853
 31
0.0
  0
LINE
  5
C4
330
B5
100
AcDbEntity
  8
0
  6
Continuous
 62
     7
370
     0
100
AcDbLine
 10
4.7208770295
 20
5.1747764853
 30
0.0
 11
4.4708770295
 21
5.1747764853
 31
0.0
  0
LINE
  5
C5
330
B5
100
AcDbEntity
  8
0
  6
Continuous
 62
     7
370
     0
100
AcDbLine
 10
5.3586723051
 20
5.1747764853
 30
0.0
 11
5.6086723051
 21
5.1747764853
 31
0.0
  0
MTEXT
  5
C6
330
B5
100
AcDbEntity
  8
0
  6
Continuous
 62
     7
370
     0
100
AcDbMText
 10
4.8480276323
 20
5.1375953624
 30
0.0
 40
0.125
 41
0.0
 71
     1
 72
     1
  1
.64in
  7
SLDTEXTSTYLE0
 73
     1
 44
1.0
  0
MTEXT
  5
C7
330
B5
100
AcDbEntity
  8
0
  6
Continuous
 62
     7
370
     0
100
AcDbMText
 10
4.713080881
 20
5.3359099665
 30
0.0
 40
0.125
 41
0.0
 71
     1
 72
     1
  1
16.2mm
  7
SLDTEXTSTYLE0
 73
     1
 44
1.0
  0
ENDBLK
  5
B7
330
B5
100
AcDbEntity
  8
0
100
AcDbBlockEnd
  0
BLOCK
  5
CA
330
C9
100
AcDbEntity
  8
0
100
AcDbBlockBegin
  2
*D6
 70
     1
 10
0.0
 20
0.0
 30
0.0
  3
*D6
  1

  0
ARC
  5
CC
330
C9
100
AcDbEntity
  8
0
  6
Continuous
 62
     7
370
     0
100
AcDbCircle
 10
2.8419723745
 20
3.5502635904
 30
0.0
 40
0.4434449358101278
100
AcDbArc
 50
153.4349488229
 51
206.5650511771
  0
ARC
  5
CD
330
C9
100
AcDbEntity
  8
0
  6
Continuous
 62
     7
370
     0
100
AcDbCircle
 10
2.8736163547
 20
3.5502635904
 30
0.0
 40
0.4434449358101274
100
AcDbArc
 50
333.4349488229
 51
26.5650511771
  0
SOLID
  5
CE
330
C9
100
AcDbEntity
  8
0
  6
Continuous
 62
     7
370
     0
100
AcDbTrace
 10
2.8577943646
 20
4.055280162
 30
0.0
 11
2.8377943646
 21
3.925280162
 31
0.0
 12
2.8777943646
 22
3.925280162
 32
0.0
 13
2.8777943646
 23
3.925280162
 33
0.0
  0
SOLID
  5
CF
330
C9
100
AcDbEntity
  8
0
  6
Continuous
 62
     7
370
     0
100
AcDbTrace
 10
2.8577943646
 20
3.0710281935
 30
0.0
 11
2.8777943646
 21
3.2010281935
 31
0.0
 12
2.8377943646
 22
3.2010281935
 32
0.0
 13
2.8377943646
 23
3.2010281935
 33
0.0
  0
LINE
  5
D0
330
C9
100
AcDbEntity
  8
0
  6
Continuous
 62
     7
370
     0
100
AcDbLine
 10
2.5585374484
 20
3.7337045992
 30
0.0
 11
2.5585374484
 21
3.5651371857
 31
0.0
  0
LINE
  5
D1
330
C9
100
AcDbEntity
  8
0
  6
Continuous
 62
     7
370
     0
100
AcDbLine
 10
2.5585374484
 20
3.5651371857
 30
0.0
 11
2.5838845896
 21
3.5651371857
 31
0.0
  0
LINE
  5
D2
330
C9
100
AcDbEntity
  8
0
  6
Continuous
 62
     7
370
     0
100
AcDbLine
 10
2.5585374484
 20
3.7337045992
 30
0.0
 11
2.5838845896
 21
3.7337045992
 31
0.0
  0
LINE
  5
D3
330
C9
100
AcDbEntity
  8
0
  6
Continuous
 62
     7
370
     0
100
AcDbLine
 10
3.1570512808
 20
3.7337045992
 30
0.0
 11
3.1570512808
 21
3.5651371857
 31
0.0
  0
LINE
  5
D4
330
C9
100
AcDbEntity
  8
0
  6
Continuous
 62
     7
370
     0
100
AcDbLine
 10
3.1570512808
 20
3.5651371857
 30
0.0
 11
3.1317041396
 21
3.5651371857
 31
0.0
  0
LINE
  5
D5
330
C9
100
AcDbEntity
  8
0
  6
Continuous
 62
     7
370
     0
100
AcDbLine
 10
3.1570512808
 20
3.7337045992
 30
0.0
 11
3.1317041396
 21
3.7337045992
 31
0.0
  0
LINE
  5
D6
330
C9
100
AcDbEntity
  8
0
  6
Continuous
 62
     7
370
     0
100
AcDbLine
 10
3.6594597067
 20
4.055280162
 30
0.0
 11
2.7327943646
 21
4.055280162
 31
0.0
  0
LINE
  5
D7
330
C9
100
AcDbEntity
  8
0
  6
Continuous
 62
     7
370
     0
100
AcDbLine
 10
3.6594597067
 20
3.0710281935
 30
0.0
 11
2.7327943646
 21
3.0710281935
 31
0.0
  0
LINE
  5
D8
330
C9
100
AcDbEntity
  8
0
  6
Continuous
 62
     7
370
     0
100
AcDbLine
 10
2.8577943646
 20
4.055280162
 30
0.0
 11
2.8577943646
 21
3.7485781946
 31
0.0
  0
LINE
  5
D9
330
C9
100
AcDbEntity
  8
0
  6
Continuous
 62
     7
370
     0
100
AcDbLine
 10
2.8577943646
 20
3.0710281935
 30
0.0
 11
2.8577943646
 21
3.3519489863
 31
0.0
  0
MTEXT
  5
DA
330
C9
100
AcDbEntity
  8
0
  6
Continuous
 62
     7
370
     0
100
AcDbMText
 10
2.6749200964
 20
3.5130824675
 30
0.0
 40
0.125
 41
0.0
 71
     1
 72
     1
  1
.98in
  7
SLDTEXTSTYLE0
 73
     1
 44
1.0
  0
MTEXT
  5
DB
330
C9
100
AcDbEntity
  8
0
  6
Continuous
 62
     7
370
     0
100
AcDbMText
 10
2.6092317307
 20
3.7113970716
 30
0.0
 40
0.125
 41
0.0
 71
     1
 72
     1
  1
25mm
  7
SLDTEXTSTYLE0
 73
     1
 44
1.0
  0
ENDBLK
  5
CB
330
C9
100
AcDbEntity
  8
0
100
AcDbBlockEnd
  0
BLOCK
  5
DE
330
DD
100
AcDbEntity
  8
0
100
AcDbBlockBegin
  2
*D7
 70
     1
 10
0.0
 20
0.0
 30
0.0
  3
*D7
  1

  0
ARC
  5
E0
330
DD
100
AcDbEntity
  8
0
  6
Continuous
 62
     7
370
     0
100
AcDbCircle
 10
6.9642524357
 20
3.8071367892
 30
0.0
 40
0.443444935810132
100
AcDbArc
 50
153.4349488229
 51
206.5650511771
  0
ARC
  5
E1
330
DD
100
AcDbEntity
  8
0
  6
Continuous
 62
     7
370
     0
100
AcDbCircle
 10
7.1344131871
 20
3.8071367892
 30
0.0
 40
0.443444935810132
100
AcDbArc
 50
333.4349488229
 51
26.5650511771
  0
SOLID
  5
E2
330
DD
100
AcDbEntity
  8
0
  6
Continuous
 62
     7
370
     0
100
AcDbTrace
 10
7.0493328114
 20
3.5631541778
 30
0.0
 11
7.0293328114
 21
3.4331541778
 31
0.0
 12
7.0693328114
 22
3.4331541778
 32
0.0
 13
7.0693328114
 23
3.4331541778
 33
0.0
  0
SOLID
  5
E3
330
DD
100
AcDbEntity
  8
0
  6
Continuous
 62
     7
370
     0
100
AcDbTrace
 10
7.0493328114
 20
4.055280162
 30
0.0
 11
7.0693328114
 21
4.185280162
 31
0.0
 12
7.0293328114
 22
4.185280162
 32
0.0
 13
7.0293328114
 23
4.185280162
 33
0.0
  0
LINE
  5
E4
330
DD
100
AcDbEntity
  8
0
  6
Continuous
 62
     7
370
     0
100
AcDbLine
 10
6.6808175096
 20
3.990577798
 30
0.0
 11
6.6808175096
 21
3.8220103845
 31
0.0
  0
LINE
  5
E5
330
DD
100
AcDbEntity
  8
0
  6
Continuous
 62
     7
370
     0
100
AcDbLine
 10
6.6808175096
 20
3.8220103845
 30
0.0
 11
6.7061646508
 21
3.8220103845
 31
0.0
  0
LINE
  5
E6
330
DD
100
AcDbEntity
  8
0
  6
Continuous
 62
     7
370
     0
100
AcDbLine
 10
6.6808175096
 20
3.990577798
 30
0.0
 11
6.7061646508
 21
3.990577798
 31
0.0
  0
LINE
  5
E7
330
DD
100
AcDbEntity
  8
0
  6
Continuous
 62
     7
370
     0
100
AcDbLine
 10
7.4178481132
 20
3.990577798
 30
0.0
 11
7.4178481132
 21
3.8220103845
 31
0.0
  0
LINE
  5
E8
330
DD
100
AcDbEntity
  8
0
  6
Continuous
 62
     7
370
     0
100
AcDbLine
 10
7.4178481132
 20
3.8220103845
 30
0.0
 11
7.3925009721
 21
3.8220103845
 31
0.0
  0
LINE
  5
E9
330
DD
100
AcDbEntity
  8
0
  6
Continuous
 62
     7
370
     0
100
AcDbLine
 10
7.4178481132
 20
3.990577798
 30
0.0
 11
7.3925009721
 21
3.990577798
 31
0.0
  0
LINE
  5
EA
330
DD
100
AcDbEntity
  8
0
  6
Continuous
 62
     7
370
     0
100
AcDbLine
 10
6.705632024
 20
3.5631541778
 30
0.0
 11
7.1743328114
 21
3.5631541778
 31
0.0
  0
LINE
  5
EB
330
DD
100
AcDbEntity
  8
0
  6
Continuous
 62
     7
370
     0
100
AcDbLine
 10
6.420089628
 20
4.055280162
 30
0.0
 11
7.1743328114
 21
4.055280162
 31
0.0
  0
LINE
  5
EC
330
DD
100
AcDbEntity
  8
0
  6
Continuous
 62
     7
370
     0
100
AcDbLine
 10
7.0493328114
 20
3.5631541778
 30
0.0
 11
7.0493328114
 21
3.3131541778
 31
0.0
  0
LINE
  5
ED
330
DD
100
AcDbEntity
  8
0
  6
Continuous
 62
     7
370
     0
100
AcDbLine
 10
7.0493328114
 20
4.055280162
 30
0.0
 11
7.0493328114
 21
4.305280162
 31
0.0
  0
MTEXT
  5
EE
330
DD
100
AcDbEntity
  8
0
  6
Continuous
 62
     7
370
     0
100
AcDbMText
 10
6.8664585432
 20
3.7699556663
 30
0.0
 40
0.125
 41
0.0
 71
     1
 72
     1
  1
.49in
  7
SLDTEXTSTYLE0
 73
     1
 44
1.0
  0
MTEXT
  5
EF
330
DD
100
AcDbEntity
  8
0
  6
Continuous
 62
     7
370
     0
100
AcDbMText
 10
6.7315117919
 20
3.9682702704
 30
0.0
 40
0.125
 41
0.0
 71
     1
 72
     1
  1
12.5mm
  7
SLDTEXTSTYLE0
 73
     1
 44
1.0
  0
ENDBLK
  5
DF
330
DD
100
AcDbEntity
  8
0
100
AcDbBlockEnd
  0
BLOCK
  5
F2
330
F1
100
AcDbEntity
  8
0
100
AcDbBlockBegin
  2
*D8
 70
     1
 10
0.0
 20
0.0
 30
0.0
  3
*D8
  1

  0
ARC
  5
F4
330
F1
100
AcDbEntity
  8
0
  6
Continuous
 62
     7
370
     0
100
AcDbCircle
 10
5.6671735828
 20
2.0677382717
 30
0.0
 40
0.4434449358101274
100
AcDbArc
 50
153.4349488229
 51
206.5650511771
  0
ARC
  5
F5
330
F1
100
AcDbEntity
  8
0
  6
Continuous
 62
     7
370
     0
100
AcDbCircle
 10
5.7450493204
 20
2.0677382717
 30
0.0
 40
0.4434449358101298
100
AcDbArc
 50
333.4349488229
 51
26.5650511771
  0
SOLID
  5
F6
330
F1
100
AcDbEntity
  8
0
  6
Continuous
 62
     7
370
     0
100
AcDbTrace
 10
5.0397746673
 20
2.0677382717
 30
0.0
 11
4.9097746673
 21
2.0877382717
 31
0.0
 12
4.9097746673
 22
2.0477382717
 32
0.0
 13
4.9097746673
 23
2.0477382717
 33
0.0
  0
SOLID
  5
F7
330
F1
100
AcDbEntity
  8
0
  6
Continuous
 62
     7
370
     0
100
AcDbTrace
 10
4.7208770295
 20
2.0677382717
 30
0.0
 11
4.8508770295
 21
2.0477382717
 31
0.0
 12
4.8508770295
 22
2.0877382717
 32
0.0
 13
4.8508770295
 23
2.0877382717
 33
0.0
  0
LINE
  5
F8
330
F1
100
AcDbEntity
  8
0
  6
Continuous
 62
     7
370
     0
100
AcDbLine
 10
5.3837386567
 20
2.2511792805
 30
0.0
 11
5.3837386567
 21
2.082611867
 31
0.0
  0
LINE
  5
F9
330
F1
100
AcDbEntity
  8
0
  6
Continuous
 62
     7
370
     0
100
AcDbLine
 10
5.3837386567
 20
2.082611867
 30
0.0
 11
5.4090857978
 21
2.082611867
 31
0.0
  0
LINE
  5
FA
330
F1
100
AcDbEntity
  8
0
  6
Continuous
 62
     7
370
     0
100
AcDbLine
 10
5.3837386567
 20
2.2511792805
 30
0.0
 11
5.4090857978
 21
2.2511792805
 31
0.0
  0
LINE
  5
FB
330
F1
100
AcDbEntity
  8
0
  6
Continuous
 62
     7
370
     0
100
AcDbLine
 10
6.0284842465
 20
2.2511792805
 30
0.0
 11
6.0284842465
 21
2.082611867
 31
0.0
  0
LINE
  5
FC
330
F1
100
AcDbEntity
  8
0
  6
Continuous
 62
     7
370
     0
100
AcDbLine
 10
6.0284842465
 20
2.082611867
 30
0.0
 11
6.0031371053
 21
2.082611867
 31
0.0
  0
LINE
  5
FD
330
F1
100
AcDbEntity
  8
0
  6
Continuous
 62
     7
370
     0
100
AcDbLine
 10
6.0284842465
 20
2.2511792805
 30
0.0
 11
6.0031371053
 21
2.2511792805
 31
0.0
  0
LINE
  5
FE
330
F1
100
AcDbEntity
  8
0
  6
Continuous
 62
     7
370
     0
100
AcDbLine
 10
5.0397746673
 20
2.4863174497
 30
0.0
 11
5.0397746673
 21
1.9427382717
 31
0.0
  0
LINE
  5
FF
330
F1
100
AcDbEntity
  8
0
  6
Continuous
 62
     7
370
     0
100
AcDbLine
 10
4.7208770295
 20
2.8462250439
 30
0.0
 11
4.7208770295
 21
1.9427382717
 31
0.0
  0
LINE
  5
100
330
F1
100
AcDbEntity
  8
0
  6
Continuous
 62
     7
370
     0
100
AcDbLine
 10
5.0397746673
 20
2.0677382717
 30
0.0
 11
5.0559615277
 21
2.0677382717
 31
0.0
  0
LINE
  5
101
330
F1
100
AcDbEntity
  8
0
  6
Continuous
 62
     7
370
     0
100
AcDbLine
 10
4.7208770295
 20
2.0677382717
 30
0.0
 11
5.0397746673
 21
2.0677382717
 31
0.0
  0
MTEXT
  5
102
330
F1
100
AcDbEntity
  8
0
  6
Continuous
 62
     7
370
     0
100
AcDbMText
 10
5.5232371834
 20
2.0305571487
 30
0.0
 40
0.125
 41
0.0
 71
     1
 72
     1
  1
.32in
  7
SLDTEXTSTYLE0
 73
     1
 44
1.0
  0
MTEXT
  5
103
330
F1
100
AcDbEntity
  8
0
  6
Continuous
 62
     7
370
     0
100
AcDbMText
 10
5.434432939
 20
2.2288717529
 30
0.0
 40
0.125
 41
0.0
 71
     1
 72
     1
  1
8.1mm
  7
SLDTEXTSTYLE0
 73
     1
 44
1.0
  0
ENDBLK
  5
F3
330
F1
100
AcDbEntity
  8
0
100
AcDbBlockEnd
  0
BLOCK
  5
106
330
105
100
AcDbEntity
  8
0
100
AcDbBlockBegin
  2
*D9
 70
     1
 10
0.0
 20
0.0
 30
0.0
  3
*D9
  1

  0
ARC
  5
108
330
105
100
AcDbEntity
  8
0
  6
Continuous
 62
     7
370
     0
100
AcDbCircle
 10
5.6210310759
 20
1.433955245
 30
0.0
 40
0.443444935810129
100
AcDbArc
 50
153.4349488229
 51
206.5650511771
  0
ARC
  5
109
330
105
100
AcDbEntity
  8
0
  6
Continuous
 62
     7
370
     0
100
AcDbCircle
 10
5.7911918273
 20
1.433955245
 30
0.0
 40
0.4434449358101282
100
AcDbArc
 50
333.4349488229
 51
26.5650511771
  0
SOLID
  5
10A
330
105
100
AcDbEntity
  8
0
  6
Continuous
 62
     7
370
     0
100
AcDbTrace
 10
5.0397746673
 20
1.433955245
 30
0.0
 11
4.9097746673
 21
1.453955245
 31
0.0
 12
4.9097746673
 22
1.413955245
 32
0.0
 13
4.9097746673
 23
1.413955245
 33
0.0
  0
SOLID
  5
10B
330
105
100
AcDbEntity
  8
0
  6
Continuous
 62
     7
370
     0
100
AcDbTrace
 10
4.5476486831
 20
1.433955245
 30
0.0
 11
4.6776486831
 21
1.413955245
 31
0.0
 12
4.6776486831
 22
1.453955245
 32
0.0
 13
4.6776486831
 23
1.453955245
 33
0.0
  0
LINE
  5
10C
330
105
100
AcDbEntity
  8
0
  6
Continuous
 62
     7
370
     0
100
AcDbLine
 10
5.3375961498
 20
1.6173962538
 30
0.0
 11
5.3375961498
 21
1.4488288403
 31
0.0
  0
LINE
  5
10D
330
105
100
AcDbEntity
  8
0
  6
Continuous
 62
     7
370
     0
100
AcDbLine
 10
5.3375961498
 20
1.4488288403
 30
0.0
 11
5.3629432909
 21
1.4488288403
 31
0.0
  0
LINE
  5
10E
330
105
100
AcDbEntity
  8
0
  6
Continuous
 62
     7
370
     0
100
AcDbLine
 10
5.3375961498
 20
1.6173962538
 30
0.0
 11
5.3629432909
 21
1.6173962538
 31
0.0
  0
LINE
  5
10F
330
105
100
AcDbEntity
  8
0
  6
Continuous
 62
     7
370
     0
100
AcDbLine
 10
6.0746267534
 20
1.6173962538
 30
0.0
 11
6.0746267534
 21
1.4488288403
 31
0.0
  0
LINE
  5
110
330
105
100
AcDbEntity
  8
0
  6
Continuous
 62
     7
370
     0
100
AcDbLine
 10
6.0746267534
 20
1.4488288403
 30
0.0
 11
6.0492796122
 21
1.4488288403
 31
0.0
  0
LINE
  5
111
330
105
100
AcDbEntity
  8
0
  6
Continuous
 62
     7
370
     0
100
AcDbLine
 10
6.0746267534
 20
1.6173962538
 30
0.0
 11
6.0492796122
 21
1.6173962538
 31
0.0
  0
LINE
  5
112
330
105
100
AcDbEntity
  8
0
  6
Continuous
 62
     7
370
     0
100
AcDbLine
 10
5.0397746673
 20
2.4863174497
 30
0.0
 11
5.0397746673
 21
1.308955245
 31
0.0
  0
LINE
  5
113
330
105
100
AcDbEntity
  8
0
  6
Continuous
 62
     7
370
     0
100
AcDbLine
 10
4.5476486831
 20
3.3521305557
 30
0.0
 11
4.5476486831
 21
1.308955245
 31
0.0
  0
LINE
  5
114
330
105
100
AcDbEntity
  8
0
  6
Continuous
 62
     7
370
     0
100
AcDbLine
 10
4.5476486831
 20
1.433955245
 30
0.0
 11
5.0397746673
 21
1.433955245
 31
0.0
  0
MTEXT
  5
115
330
105
100
AcDbEntity
  8
0
  6
Continuous
 62
     7
370
     0
100
AcDbMText
 10
5.5232371834
 20
1.3967741221
 30
0.0
 40
0.125
 41
0.0
 71
     1
 72
     1
  1
.49in
  7
SLDTEXTSTYLE0
 73
     1
 44
1.0
  0
MTEXT
  5
116
330
105
100
AcDbEntity
  8
0
  6
Continuous
 62
     7
370
     0
100
AcDbMText
 10
5.3882904321
 20
1.5950887262
 30
0.0
 40
0.125
 41
0.0
 71
     1
 72
     1
  1
12.5mm
  7
SLDTEXTSTYLE0
 73
     1
 44
1.0
  0
ENDBLK
  5
107
330
105
100
AcDbEntity
  8
0
100
AcDbBlockEnd
  0
BLOCK
  5
119
330
118
100
AcDbEntity
  8
0
100
AcDbBlockBegin
  2
*D10
 70
     1
 10
0.0
 20
0.0
 30
0.0
  3
*D10
  1

  0
ARC
  5
11B
330
118
100
AcDbEntity
  8
0
  6
Continuous
 62
     7
370
     0
100
AcDbCircle
 10
5.6902894615
 20
0.7252938277
 30
0.0
 40
0.4434449358101281
100
AcDbArc
 50
153.4349488229
 51
206.5650511771
  0
ARC
  5
11C
330
118
100
AcDbEntity
  8
0
  6
Continuous
 62
     7
370
     0
100
AcDbCircle
 10
5.7219334417
 20
0.7252938277
 30
0.0
 40
0.4434449358101273
100
AcDbArc
 50
333.4349488229
 51
26.5650511771
  0
SOLID
  5
11D
330
118
100
AcDbEntity
  8
0
  6
Continuous
 62
     7
370
     0
100
AcDbTrace
 10
5.0397746673
 20
0.7252938277
 30
0.0
 11
4.9097746673
 21
0.7452938277
 31
0.0
 12
4.9097746673
 22
0.7052938277
 32
0.0
 13
4.9097746673
 23
0.7052938277
 33
0.0
  0
SOLID
  5
11E
330
118
100
AcDbEntity
  8
0
  6
Continuous
 62
     7
370
     0
100
AcDbTrace
 10
3.8980423839
 20
0.7252938277
 30
0.0
 11
4.0280423839
 21
0.7052938277
 31
0.0
 12
4.0280423839
 22
0.7452938277
 32
0.0
 13
4.0280423839
 23
0.7452938277
 33
0.0
  0
LINE
  5
11F
330
118
100
AcDbEntity
  8
0
  6
Continuous
 62
     7
370
     0
100
AcDbLine
 10
5.4068545354
 20
0.9087348365
 30
0.0
 11
5.4068545354
 21
0.740167423
 31
0.0
  0
LINE
  5
120
330
118
100
AcDbEntity
  8
0
  6
Continuous
 62
     7
370
     0
100
AcDbLine
 10
5.4068545354
 20
0.740167423
 30
0.0
 11
5.4322016765
 21
0.740167423
 31
0.0
  0
LINE
  5
121
330
118
100
AcDbEntity
  8
0
  6
Continuous
 62
     7
370
     0
100
AcDbLine
 10
5.4068545354
 20
0.9087348365
 30
0.0
 11
5.4322016765
 21
0.9087348365
 31
0.0
  0
LINE
  5
122
330
118
100
AcDbEntity
  8
0
  6
Continuous
 62
     7
370
     0
100
AcDbLine
 10
6.0053683678
 20
0.9087348365
 30
0.0
 11
6.0053683678
 21
0.740167423
 31
0.0
  0
LINE
  5
123
330
118
100
AcDbEntity
  8
0
  6
Continuous
 62
     7
370
     0
100
AcDbLine
 10
6.0053683678
 20
0.740167423
 30
0.0
 11
5.9800212266
 21
0.740167423
 31
0.0
  0
LINE
  5
124
330
118
100
AcDbEntity
  8
0
  6
Continuous
 62
     7
370
     0
100
AcDbLine
 10
6.0053683678
 20
0.9087348365
 30
0.0
 11
5.9800212266
 21
0.9087348365
 31
0.0
  0
LINE
  5
125
330
118
100
AcDbEntity
  8
0
  6
Continuous
 62
     7
370
     0
100
AcDbLine
 10
5.0397746673
 20
2.4863174497
 30
0.0
 11
5.0397746673
 21
0.6002938277
 31
0.0
  0
LINE
  5
126
330
118
100
AcDbEntity
  8
0
  6
Continuous
 62
     7
370
     0
100
AcDbLine
 10
3.8980423839
 20
2.8324455163
 30
0.0
 11
3.8980423839
 21
0.6002938277
 31
0.0
  0
LINE
  5
127
330
118
100
AcDbEntity
  8
0
  6
Continuous
 62
     7
370
     0
100
AcDbLine
 10
5.0397746673
 20
0.7252938277
 30
0.0
 11
5.0790774064
 21
0.7252938277
 31
0.0
  0
LINE
  5
128
330
118
100
AcDbEntity
  8
0
  6
Continuous
 62
     7
370
     0
100
AcDbLine
 10
3.8980423839
 20
0.7252938277
 30
0.0
 11
5.0397746673
 21
0.7252938277
 31
0.0
  0
MTEXT
  5
129
330
118
100
AcDbEntity
  8
0
  6
Continuous
 62
     7
370
     0
100
AcDbMText
 10
5.4770946765
 20
0.6881127047
 30
0.0
 40
0.125
 41
0.0
 71
     1
 72
     1
  1
1.14in
  7
SLDTEXTSTYLE0
 73
     1
 44
1.0
  0
MTEXT
  5
12A
330
118
100
AcDbEntity
  8
0
  6
Continuous
 62
     7
370
     0
100
AcDbMText
 10
5.4575488177
 20
0.8864273089
 30
0.0
 40
0.125
 41
0.0
 71
     1
 72
     1
  1
29mm
  7
SLDTEXTSTYLE0
 73
     1
 44
1.0
  0
ENDBLK
  5
11A
330
118
100
AcDbEntity
  8
0
100
AcDbBlockEnd
  0
BLOCK
  5
12E
330
12D
100
AcDbEntity
  8
0
100
AcDbBlockBegin
  2
*D11
 70
     1
 10
0.0
 20
0.0
 30
0.0
  3
*D11
  1

  0
SOLID
  5
130
330
12D
100
AcDbEntity
  8
0
  6
Continuous
 62
     7
370
     0
100
AcDbTrace
 10
5.5624075583
 20
3.5103033396
 30
0.0
 11
5.6100756746
 21
3.3877156131
 31
0.0
 12
5.6447185465
 22
3.4077123984
 32
0.0
 13
5.6447185465
 23
3.4077123984
 33
0.0
  0
LINE
  5
131
330
12D
100
AcDbEntity
  8
0
  6
Continuous
 62
     7
370
     0
100
AcDbLine
 10
5.5624075583
 20
3.5103033396
 30
0.0
 11
6.1650550489
 21
2.4662635338
 31
0.0
  0
LINE
  5
132
330
12D
100
AcDbEntity
  8
0
  6
Continuous
 62
     7
370
     0
100
AcDbLine
 10
6.1650550489
 20
2.4662635338
 30
0.0
 11
6.4150550489
 21
2.4662635338
 31
0.0
  0
MTEXT
  5
133
330
12D
100
AcDbEntity
  8
0
  6
Continuous
 62
     7
370
     0
100
AcDbMText
 10
6.5400550489
 20
2.5272579574
 30
0.0
 40
0.125
 41
0.0
 71
     1
 72
     1
  1
2
  7
SLDTEXTSTYLE0
 73
     1
 44
1.0
  0
MTEXT
  5
134
330
12D
100
AcDbEntity
  8
0
  6
Continuous
 62
     7
370
     0
100
AcDbMText
 10
6.6396586034
 20
2.5291676637
 30
0.0
 40
0.125
 41
0.0
 71
     1
 72
     1
  1
X 
  7
SLDTEXTSTYLE0
 73
     1
 44
1.0
  0
MTEXT
  5
135
330
12D
100
AcDbEntity
  8
0
  6
Continuous
 62
     7
370
     0
100
AcDbMText
 10
6.787401655
 20
2.5272579414
 30
0.0
 40
0.125
 41
0.0
 71
     1
 72
     1
  1
%%c
  7
SLDTEXTSTYLE0
 73
     1
 44
1.0
  0
MTEXT
  5
136
330
12D
100
AcDbEntity
  8
0
  6
Continuous
 62
     7
370
     0
100
AcDbMText
 10
6.9759172756
 20
2.5291676637
 30
0.0
 40
0.125
 41
0.0
 71
     1
 72
     1
  1
 
  7
SLDTEXTSTYLE0
 73
     1
 44
1.0
  0
MTEXT
  5
137
330
12D
100
AcDbEntity
  8
0
  6
Continuous
 62
     7
370
     0
100
AcDbMText
 10
7.0220077322
 20
2.5272579574
 30
0.0
 40
0.125
 41
0.0
 71
     1
 72
     1
  1
.12[3.100]
  7
SLDTEXTSTYLE0
 73
     1
 44
1.0
  0
MTEXT
  5
138
330
12D
100
AcDbEntity
  8
0
  6
Continuous
 62
     7
370
     0
100
AcDbMText
 10
7.8465038227
 20
2.5291676637
 30
0.0
 40
0.125
 41
0.0
 71
     1
 72
     1
  1
 
  7
SLDTEXTSTYLE0
 73
     1
 44
1.0
  0
INSERT
  5
140
330
12D
100
AcDbEntity
  8
0
  6
Continuous
 62
     7
370
     0
100
AcDbBlockReference
  2
SW_SYMBOL_HOLE_DEPTH
 10
7.8926843784
 20
2.3834584583
 30
0.0
 41
0.0040555664
 42
0.0040555664
 43
0.0040555664
  0
MTEXT
  5
141
330
12D
100
AcDbEntity
  8
0
  6
Continuous
 62
     7
370
     0
100
AcDbMText
 10
8.0712781228
 20
2.5291676637
 30
0.0
 40
0.125
 41
0.0
 71
     1
 72
     1
  1
 
  7
SLDTEXTSTYLE0
 73
     1
 44
1.0
  0
MTEXT
  5
142
330
12D
100
AcDbEntity
  8
0
  6
Continuous
 62
     7
370
     0
100
AcDbMText
 10
8.1172898304
 20
2.5272579574
 30
0.0
 40
0.125
 41
0.0
 71
     1
 72
     1
  1
.20[5]
  7
SLDTEXTSTYLE0
 73
     1
 44
1.0
  0
ENDBLK
  5
12F
330
12D
100
AcDbEntity
  8
0
100
AcDbBlockEnd
  0
BLOCK
  5
13A
330
139
100
AcDbEntity
  8
0
100
AcDbBlockBegin
  2
SW_SYMBOL_HOLE_DEPTH
 70
     0
 10
0.0
 20
0.0
 30
0.0
  3
SW_SYMBOL_HOLE_DEPTH
  1

  0
LINE
  5
13C
330
139
100
AcDbEntity
  8
0
  6
Continuous
 62
     0
370
     0
100
AcDbLine
 10
0.0
 20
34.4488188976
 30
0.0
 11
31.4960629921
 21
34.4488188976
 31
0.0
  0
LINE
  5
13D
330
139
100
AcDbEntity
  8
0
  6
Continuous
 62
     0
370
     0
100
AcDbLine
 10
15.7480314961
 20
34.4488188976
 30
0.0
 11
15.7480314961
 21
2.9527559055
 31
0.0
  0
LINE
  5
13E
330
139
100
AcDbEntity
  8
0
  6
Continuous
 62
     0
370
     0
100
AcDbLine
 10
3.937007874
 20
21.8503937008
 30
0.0
 11
15.7480314961
 21
2.9527559055
 31
0.0
  0
LINE
  5
13F
330
139
100
AcDbEntity
  8
0
  6
Continuous
 62
     0
370
     0
100
AcDbLine
 10
27.5590551181
 20
21.8503937008
 30
0.0
 11
15.7480314961
 21
2.9527559055
 31
0.0
  0
ENDBLK
  5
13B
330
139
100
AcDbEntity
  8
0
100
AcDbBlockEnd
  0
BLOCK
  5
144
330
143
100
AcDbEntity
  8
0
100
AcDbBlockBegin
  2
SW_CENTERMARKSYMBOL_0
 70
     0
 10
0.0
 20
0.0
 30
0.0
  3
SW_CENTERMARKSYMBOL_0
  1

  0
LINE
  5
146
330
143
100
AcDbEntity
  8
0
  6
Continuous
 62
     0
370
     0
100
AcDbLine
 10
0.0
 20
0.0
 30
0.0
 11
0.0
 21
-0.1
 31
0.0
  0
LINE
  5
147
330
143
100
AcDbEntity
  8
0
  6
Continuous
 62
     0
370
     0
100
AcDbLine
 10
0.0
 20
0.0
 30
0.0
 11
0.1
 21
0.0
 31
0.0
  0
LINE
  5
148
330
143
100
AcDbEntity
  8
0
  6
Continuous
 62
     0
370
     0
100
AcDbLine
 10
0.0
 20
0.0
 30
0.0
 11
0.0
 21
0.1
 31
0.0
  0
LINE
  5
149
330
143
100
AcDbEntity
  8
0
  6
Continuous
 62
     0
370
     0
100
AcDbLine
 10
0.0
 20
0.0
 30
0.0
 11
-0.1
 21
0.0
 31
0.0
  0
LINE
  5
14A
330
143
100
AcDbEntity
  8
0
  6
Continuous
 62
     0
370
     0
100
AcDbLine
 10
0.1
 20
0.0
 30
0.0
 11
0.1885826772
 21
0.0
 31
0.0
  0
LINE
  5
14B
330
143
100
AcDbEntity
  8
0
  6
Continuous
 62
     0
370
     0
100
AcDbLine
 10
0.0
 20
0.1
 30
0.0
 11
0.0
 21
0.1885826772
 31
0.0
  0
LINE
  5
14C
330
143
100
AcDbEntity
  8
0
  6
Continuous
 62
     0
370
     0
100
AcDbLine
 10
-2.2834645669
 20
0.0
 30
0.0
 11
-2.2834645669
 21
-0.1
 31
0.0
  0
LINE
  5
14D
330
143
100
AcDbEntity
  8
0
  6
Continuous
 62
     0
370
     0
100
AcDbLine
 10
-2.2834645669
 20
0.0
 30
0.0
 11
-2.1834645669
 21
0.0
 31
0.0
  0
LINE
  5
14E
330
143
100
AcDbEntity
  8
0
  6
Continuous
 62
     0
370
     0
100
AcDbLine
 10
-2.2834645669
 20
0.0
 30
0.0
 11
-2.2834645669
 21
0.1
 31
0.0
  0
LINE
  5
14F
330
143
100
AcDbEntity
  8
0
  6
Continuous
 62
     0
370
     0
100
AcDbLine
 10
-2.2834645669
 20
0.0
 30
0.0
 11
-2.3834645669
 21
0.0
 31
0.0
  0
LINE
  5
150
330
143
100
AcDbEntity
  8
0
  6
Continuous
 62
     0
370
     0
100
AcDbLine
 10
-2.2834645669
 20
0.1
 30
0.0
 11
-2.2834645669
 21
0.1885826772
 31
0.0
  0
LINE
  5
151
330
143
100
AcDbEntity
  8
0
  6
Continuous
 62
     0
370
     0
100
AcDbLine
 10
-2.3834645669
 20
0.0
 30
0.0
 11
-2.4720472441
 21
0.0
 31
0.0
  0
LINE
  5
152
330
143
100
AcDbEntity
  8
0
  6
Continuous
 62
     0
370
     0
100
AcDbLine
 10
-2.2834645669
 20
-0.9842519685
 30
0.0
 11
-2.2834645669
 21
-1.0842519685
 31
0.0
  0
LINE
  5
153
330
143
100
AcDbEntity
  8
0
  6
Continuous
 62
     0
370
     0
100
AcDbLine
 10
-2.2834645669
 20
-0.9842519685
 30
0.0
 11
-2.1834645669
 21
-0.9842519685
 31
0.0
  0
LINE
  5
154
330
143
100
AcDbEntity
  8
0
  6
Continuous
 62
     0
370
     0
100
AcDbLine
 10
-2.2834645669
 20
-0.9842519685
 30
0.0
 11
-2.2834645669
 21
-0.8842519685
 31
0.0
  0
LINE
  5
155
330
143
100
AcDbEntity
  8
0
  6
Continuous
 62
     0
370
     0
100
AcDbLine
 10
-2.2834645669
 20
-0.9842519685
 30
0.0
 11
-2.3834645669
 21
-0.9842519685
 31
0.0
  0
LINE
  5
156
330
143
100
AcDbEntity
  8
0
  6
Continuous
 62
     0
370
     0
100
AcDbLine
 10
-2.2834645669
 20
-1.0842519685
 30
0.0
 11
-2.2834645669
 21
-1.1728346457
 31
0.0
  0
LINE
  5
157
330
143
100
AcDbEntity
  8
0
  6
Continuous
 62
     0
370
     0
100
AcDbLine
 10
-2.3834645669
 20
-0.9842519685
 30
0.0
 11
-2.4720472441
 21
-0.9842519685
 31
0.0
  0
LINE
  5
158
330
143
100
AcDbEntity
  8
0
  6
Continuous
 62
     0
370
     0
100
AcDbLine
 10
0.0
 20
-0.9842519685
 30
0.0
 11
0.0
 21
-1.0842519685
 31
0.0
  0
LINE
  5
159
330
143
100
AcDbEntity
  8
0
  6
Continuous
 62
     0
370
     0
100
AcDbLine
 10
0.0
 20
-0.9842519685
 30
0.0
 11
0.1
 21
-0.9842519685
 31
0.0
  0
LINE
  5
15A
330
143
100
AcDbEntity
  8
0
  6
Continuous
 62
     0
370
     0
100
AcDbLine
 10
0.0
 20
-0.9842519685
 30
0.0
 11
0.0
 21
-0.8842519685
 31
0.0
  0
LINE
  5
15B
330
143
100
AcDbEntity
  8
0
  6
Continuous
 62
     0
370
     0
100
AcDbLine
 10
0.0
 20
-0.9842519685
 30
0.0
 11
-0.1
 21
-0.9842519685
 31
0.0
  0
LINE
  5
15C
330
143
100
AcDbEntity
  8
0
  6
Continuous
 62
     0
370
     0
100
AcDbLine
 10
0.0
 20
-1.0842519685
 30
0.0
 11
0.0
 21
-1.1728346457
 31
0.0
  0
LINE
  5
15D
330
143
100
AcDbEntity
  8
0
  6
Continuous
 62
     0
370
     0
100
AcDbLine
 10
0.1
 20
-0.9842519685
 30
0.0
 11
0.1885826772
 21
-0.9842519685
 31
0.0
  0
LINE
  5
15E
330
143
100
AcDbEntity
  8
0
  6
Continuous
 62
     0
370
     0
100
AcDbLine
 10
-0.2
 20
0.0
 30
0.0
 11
-2.0834645669
 21
0.0
 31
0.0
  0
LINE
  5
15F
330
143
100
AcDbEntity
  8
0
  6
Continuous
 62
     0
370
     0
100
AcDbLine
 10
-0.2
 20
-0.9842519685
 30
0.0
 11
-2.0834645669
 21
-0.9842519685
 31
0.0
  0
LINE
  5
160
330
143
100
AcDbEntity
  8
0
  6
Continuous
 62
     0
370
     0
100
AcDbLine
 10
0.0
 20
-0.2
 30
0.0
 11
0.0
 21
-0.7842519685
 31
0.0
  0
LINE
  5
161
330
143
100
AcDbEntity
  8
0
  6
Continuous
 62
     0
370
     0
100
AcDbLine
 10
-2.2834645669
 20
-0.2
 30
0.0
 11
-2.2834645669
 21
-0.7842519685
 31
0.0
  0
ENDBLK
  5
145
330
143
100
AcDbEntity
  8
0
100
AcDbBlockEnd
  0
BLOCK
  5
164
330
163
100
AcDbEntity
  8
0
100
AcDbBlockBegin
  2
SW_CENTERMARKSYMBOL_1
 70
     0
 10
0.0
 20
0.0
 30
0.0
  3
SW_CENTERMARKSYMBOL_1
  1

  0
LINE
  5
166
330
163
100
AcDbEntity
  8
0
  6
Continuous
 62
     0
370
     0
100
AcDbLine
 10
0.0
 20
0.0
 30
0.0
 11
0.0
 21
-0.1
 31
0.0
  0
LINE
  5
167
330
163
100
AcDbEntity
  8
0
  6
Continuous
 62
     0
370
     0
100
AcDbLine
 10
0.0
 20
0.0
 30
0.0
 11
0.1
 21
0.0
 31
0.0
  0
LINE
  5
168
330
163
100
AcDbEntity
  8
0
  6
Continuous
 62
     0
370
     0
100
AcDbLine
 10
0.0
 20
0.0
 30
0.0
 11
0.0
 21
0.1
 31
0.0
  0
LINE
  5
169
330
163
100
AcDbEntity
  8
0
  6
Continuous
 62
     0
370
     0
100
AcDbLine
 10
0.0
 20
0.0
 30
0.0
 11
-0.1
 21
0.0
 31
0.0
  0
LINE
  5
16A
330
163
100
AcDbEntity
  8
0
  6
Continuous
 62
     0
370
     0
100
AcDbLine
 10
0.0
 20
-0.1
 30
0.0
 11
0.0
 21
-0.1669291339
 31
0.0
  0
LINE
  5
16B
330
163
100
AcDbEntity
  8
0
  6
Continuous
 62
     0
370
     0
100
AcDbLine
 10
0.1
 20
0.0
 30
0.0
 11
0.1669291339
 21
0.0
 31
0.0
  0
LINE
  5
16C
330
163
100
AcDbEntity
  8
0
  6
Continuous
 62
     0
370
     0
100
AcDbLine
 10
-0.6377952756
 20
0.0
 30
0.0
 11
-0.6377952756
 21
-0.1
 31
0.0
  0
LINE
  5
16D
330
163
100
AcDbEntity
  8
0
  6
Continuous
 62
     0
370
     0
100
AcDbLine
 10
-0.6377952756
 20
0.0
 30
0.0
 11
-0.5377952756
 21
0.0
 31
0.0
  0
LINE
  5
16E
330
163
100
AcDbEntity
  8
0
  6
Continuous
 62
     0
370
     0
100
AcDbLine
 10
-0.6377952756
 20
0.0
 30
0.0
 11
-0.6377952756
 21
0.1
 31
0.0
  0
LINE
  5
16F
330
163
100
AcDbEntity
  8
0
  6
Continuous
 62
     0
370
     0
100
AcDbLine
 10
-0.6377952756
 20
0.0
 30
0.0
 11
-0.7377952756
 21
0.0
 31
0.0
  0
LINE
  5
170
330
163
100
AcDbEntity
  8
0
  6
Continuous
 62
     0
370
     0
100
AcDbLine
 10
-0.6377952756
 20
-0.1
 30
0.0
 11
-0.6377952756
 21
-0.1669291339
 31
0.0
  0
LINE
  5
171
330
163
100
AcDbEntity
  8
0
  6
Continuous
 62
     0
370
     0
100
AcDbLine
 10
-0.7377952756
 20
0.0
 30
0.0
 11
-0.8047244094
 21
0.0
 31
0.0
  0
LINE
  5
172
330
163
100
AcDbEntity
  8
0
  6
Continuous
 62
     0
370
     0
100
AcDbLine
 10
-0.6377952756
 20
1.0
 30
0.0
 11
-0.6377952756
 21
0.9
 31
0.0
  0
LINE
  5
173
330
163
100
AcDbEntity
  8
0
  6
Continuous
 62
     0
370
     0
100
AcDbLine
 10
-0.6377952756
 20
1.0
 30
0.0
 11
-0.5377952756
 21
1.0
 31
0.0
  0
LINE
  5
174
330
163
100
AcDbEntity
  8
0
  6
Continuous
 62
     0
370
     0
100
AcDbLine
 10
-0.6377952756
 20
1.0
 30
0.0
 11
-0.6377952756
 21
1.1
 31
0.0
  0
LINE
  5
175
330
163
100
AcDbEntity
  8
0
  6
Continuous
 62
     0
370
     0
100
AcDbLine
 10
-0.6377952756
 20
1.0
 30
0.0
 11
-0.7377952756
 21
1.0
 31
0.0
  0
LINE
  5
176
330
163
100
AcDbEntity
  8
0
  6
Continuous
 62
     0
370
     0
100
AcDbLine
 10
-0.6377952756
 20
1.1
 30
0.0
 11
-0.6377952756
 21
1.1669291339
 31
0.0
  0
LINE
  5
177
330
163
100
AcDbEntity
  8
0
  6
Continuous
 62
     0
370
     0
100
AcDbLine
 10
-0.7377952756
 20
1.0
 30
0.0
 11
-0.8047244094
 21
1.0
 31
0.0
  0
LINE
  5
178
330
163
100
AcDbEntity
  8
0
  6
Continuous
 62
     0
370
     0
100
AcDbLine
 10
0.0
 20
1.0
 30
0.0
 11
0.0
 21
0.9
 31
0.0
  0
LINE
  5
179
330
163
100
AcDbEntity
  8
0
  6
Continuous
 62
     0
370
     0
100
AcDbLine
 10
0.0
 20
1.0
 30
0.0
 11
0.1
 21
1.0
 31
0.0
  0
LINE
  5
17A
330
163
100
AcDbEntity
  8
0
  6
Continuous
 62
     0
370
     0
100
AcDbLine
 10
0.0
 20
1.0
 30
0.0
 11
0.0
 21
1.1
 31
0.0
  0
LINE
  5
17B
330
163
100
AcDbEntity
  8
0
  6
Continuous
 62
     0
370
     0
100
AcDbLine
 10
0.0
 20
1.0
 30
0.0
 11
-0.1
 21
1.0
 31
0.0
  0
LINE
  5
17C
330
163
100
AcDbEntity
  8
0
  6
Continuous
 62
     0
370
     0
100
AcDbLine
 10
0.1
 20
1.0
 30
0.0
 11
0.1669291339
 21
1.0
 31
0.0
  0
LINE
  5
17D
330
163
100
AcDbEntity
  8
0
  6
Continuous
 62
     0
370
     0
100
AcDbLine
 10
0.0
 20
1.1
 30
0.0
 11
0.0
 21
1.1669291339
 31
0.0
  0
LINE
  5
17E
330
163
100
AcDbEntity
  8
0
  6
Continuous
 62
     0
370
     0
100
AcDbLine
 10
-0.2
 20
1.0
 30
0.0
 11
-0.4377952756
 21
1.0
 31
0.0
  0
LINE
  5
17F
330
163
100
AcDbEntity
  8
0
  6
Continuous
 62
     0
370
     0
100
AcDbLine
 10
-0.2
 20
0.0
 30
0.0
 11
-0.4377952756
 21
0.0
 31
0.0
  0
LINE
  5
180
330
163
100
AcDbEntity
  8
0
  6
Continuous
 62
     0
370
     0
100
AcDbLine
 10
0.0
 20
0.8
 30
0.0
 11
0.0
 21
0.2
 31
0.0
  0
LINE
  5
181
330
163
100
AcDbEntity
  8
0
  6
Continuous
 62
     0
370
     0
100
AcDbLine
 10
-0.6377952756
 20
0.8
 30
0.0
 11
-0.6377952756
 21
0.2
 31
0.0
  0
ENDBLK
  5
165
330
163
100
AcDbEntity
  8
0
100
AcDbBlockEnd
  0
BLOCK
  5
184
330
183
100
AcDbEntity
  8
0
100
AcDbBlockBegin
  2
SW_CENTERMARKSYMBOL_2
 70
     0
 10
0.0
 20
0.0
 30
0.0
  3
SW_CENTERMARKSYMBOL_2
  1

  0
LINE
  5
186
330
183
100
AcDbEntity
  8
0
  6
Continuous
 62
     0
370
     0
100
AcDbLine
 10
0.0
 20
0.0
 30
0.0
 11
0.0
 21
-0.1
 31
0.0
  0
LINE
  5
187
330
183
100
AcDbEntity
  8
0
  6
Continuous
 62
     0
370
     0
100
AcDbLine
 10
0.0
 20
0.0
 30
0.0
 11
0.1
 21
0.0
 31
0.0
  0
LINE
  5
188
330
183
100
AcDbEntity
  8
0
  6
Continuous
 62
     0
370
     0
100
AcDbLine
 10
0.0
 20
0.0
 30
0.0
 11
0.0
 21
0.1
 31
0.0
  0
LINE
  5
189
330
183
100
AcDbEntity
  8
0
  6
Continuous
 62
     0
370
     0
100
AcDbLine
 10
0.0
 20
0.0
 30
0.0
 11
-0.1
 21
0.0
 31
0.0
  0
LINE
  5
18A
330
183
100
AcDbEntity
  8
0
  6
Continuous
 62
     0
370
     0
100
AcDbLine
 10
0.0
 20
-0.1
 30
0.0
 11
0.0
 21
-0.161023622
 31
0.0
  0
LINE
  5
18B
330
183
100
AcDbEntity
  8
0
  6
Continuous
 62
     0
370
     0
100
AcDbLine
 10
0.1
 20
0.0
 30
0.0
 11
0.161023622
 21
0.0
 31
0.0
  0
LINE
  5
18C
330
183
100
AcDbEntity
  8
0
  6
Continuous
 62
     0
370
     0
100
AcDbLine
 10
0.0
 20
0.1
 30
0.0
 11
0.0
 21
0.161023622
 31
0.0
  0
LINE
  5
18D
330
183
100
AcDbEntity
  8
0
  6
Continuous
 62
     0
370
     0
100
AcDbLine
 10
-0.9842519685
 20
0.0
 30
0.0
 11
-0.9842519685
 21
-0.1
 31
0.0
  0
LINE
  5
18E
330
183
100
AcDbEntity
  8
0
  6
Continuous
 62
     0
370
     0
100
AcDbLine
 10
-0.9842519685
 20
0.0
 30
0.0
 11
-0.8842519685
 21
0.0
 31
0.0
  0
LINE
  5
18F
330
183
100
AcDbEntity
  8
0
  6
Continuous
 62
     0
370
     0
100
AcDbLine
 10
-0.9842519685
 20
0.0
 30
0.0
 11
-0.9842519685
 21
0.1
 31
0.0
  0
LINE
  5
190
330
183
100
AcDbEntity
  8
0
  6
Continuous
 62
     0
370
     0
100
AcDbLine
 10
-0.9842519685
 20
0.0
 30
0.0
 11
-1.0842519685
 21
0.0
 31
0.0
  0
LINE
  5
191
330
183
100
AcDbEntity
  8
0
  6
Continuous
 62
     0
370
     0
100
AcDbLine
 10
-0.9842519685
 20
-0.1
 30
0.0
 11
-0.9842519685
 21
-0.161023622
 31
0.0
  0
LINE
  5
192
330
183
100
AcDbEntity
  8
0
  6
Continuous
 62
     0
370
     0
100
AcDbLine
 10
-0.9842519685
 20
0.1
 30
0.0
 11
-0.9842519685
 21
0.161023622
 31
0.0
  0
LINE
  5
193
330
183
100
AcDbEntity
  8
0
  6
Continuous
 62
     0
370
     0
100
AcDbLine
 10
-1.0842519685
 20
0.0
 30
0.0
 11
-1.1452755906
 21
0.0
 31
0.0
  0
LINE
  5
194
330
183
100
AcDbEntity
  8
0
  6
Continuous
 62
     0
370
     0
100
AcDbLine
 10
-0.2
 20
0.0
 30
0.0
 11
-0.7842519685
 21
0.0
 31
0.0
  0
ENDBLK
  5
185
330
183
100
AcDbEntity
  8
0
100
AcDbBlockEnd
  0
BLOCK
  5
1AA
330
1A9
100
AcDbEntity
  8
0
100
AcDbBlockBegin
  2
*D16
 70
     1
 10
0.0
 20
0.0
 30
0.0
  3
*D16
  1

  0
SOLID
  5
1AC
330
1A9
100
AcDbEntity
  8
0
  6
Continuous
 62
     7
370
     0
100
AcDbTrace
 10
7.9814040006
 20
4.1438628383
 30
0.0
 11
8.0013853597
 21
4.2738657047
 31
0.0
 12
7.9613853601
 22
4.2738599691
 32
0.0
 13
7.9613853601
 23
4.2738599691
 33
0.0
  0
LINE
  5
1AD
330
1A9
100
AcDbEntity
  8
0
  6
Continuous
 62
     7
370
     0
100
AcDbLine
 10
7.9814040006
 20
4.1438628383
 30
0.0
 11
7.981068342
 21
6.4847513459
 31
0.0
  0
LINE
  5
1AE
330
1A9
100
AcDbEntity
  8
0
  6
Continuous
 62
     7
370
     0
100
AcDbLine
 10
7.981068342
 20
6.4847513459
 30
0.0
 11
8.231068342
 21
6.4847513459
 31
0.0
  0
INSERT
  5
1B5
330
1A9
100
AcDbEntity
  8
0
  6
Continuous
 62
     7
370
     0
100
AcDbBlockReference
  2
SW_SYMBOL_HOLE_SPOT
 10
8.5235915247
 20
6.3018072129
 30
0.0
 41
0.0040555664
 42
0.0040555664
 43
0.0040555664
  0
MTEXT
  5
1B6
330
1A9
100
AcDbEntity
  8
0
  6
Continuous
 62
     7
370
     0
100
AcDbMText
 10
8.860935261
 20
6.445606696
 30
0.0
 40
0.125
 41
0.0
 71
     1
 72
     1
  1
%%c
  7
SLDTEXTSTYLE0
 73
     1
 44
1.0
  0
MTEXT
  5
1B7
330
1A9
100
AcDbEntity
  8
0
  6
Continuous
 62
     7
370
     0
100
AcDbMText
 10
9.0494508633
 20
6.4475164183
 30
0.0
 40
0.125
 41
0.0
 71
     1
 72
     1
  1
 
  7
SLDTEXTSTYLE0
 73
     1
 44
1.0
  0
MTEXT
  5
1B8
330
1A9
100
AcDbEntity
  8
0
  6
Continuous
 62
     7
370
     0
100
AcDbMText
 10
9.0955087089
 20
6.4456067121
 30
0.0
 40
0.125
 41
0.0
 71
     1
 72
     1
  1
.31[8]
  7
SLDTEXTSTYLE0
 73
     1
 44
1.0
  0
MTEXT
  5
1B9
330
1A9
100
AcDbEntity
  8
0
  6
Continuous
 62
     7
370
     0
100
AcDbMText
 10
9.5708568555
 20
6.4475164183
 30
0.0
 40
0.125
 41
0.0
 71
     1
 72
     1
  1
 
  7
SLDTEXTSTYLE0
 73
     1
 44
1.0
  0
INSERT
  5
1BA
330
1A9
100
AcDbEntity
  8
0
  6
Continuous
 62
     7
370
     0
100
AcDbBlockReference
  2
SW_SYMBOL_HOLE_DEPTH
 10
9.6170374112
 20
6.3018072129
 30
0.0
 41
0.0040555664
 42
0.0040555664
 43
0.0040555664
  0
MTEXT
  5
1BB
330
1A9
100
AcDbEntity
  8
0
  6
Continuous
 62
     7
370
     0
100
AcDbMText
 10
9.7956311556
 20
6.4475164183
 30
0.0
 40
0.125
 41
0.0
 71
     1
 72
     1
  1
 
  7
SLDTEXTSTYLE0
 73
     1
 44
1.0
  0
MTEXT
  5
1BC
330
1A9
100
AcDbEntity
  8
0
  6
Continuous
 62
     7
370
     0
100
AcDbMText
 10
9.8416428632
 20
6.4456067121
 30
0.0
 40
0.125
 41
0.0
 71
     1
 72
     1
  1
.16[4]
  7
SLDTEXTSTYLE0
 73
     1
 44
1.0
  0
MTEXT
  5
1BD
330
1A9
100
AcDbEntity
  8
0
  6
Continuous
 62
     7
370
     0
100
AcDbMText
 10
8.356068342
 20
6.6439213162
 30
0.0
 40
0.125
 41
0.0
 71
     1
 72
     1
  1
4
  7
SLDTEXTSTYLE0
 73
     1
 44
1.0
  0
MTEXT
  5
1BE
330
1A9
100
AcDbEntity
  8
0
  6
Continuous
 62
     7
370
     0
100
AcDbMText
 10
8.4556718965
 20
6.6458310225
 30
0.0
 40
0.125
 41
0.0
 71
     1
 72
     1
  1
X 
  7
SLDTEXTSTYLE0
 73
     1
 44
1.0
  0
MTEXT
  5
1BF
330
1A9
100
AcDbEntity
  8
0
  6
Continuous
 62
     7
370
     0
100
AcDbMText
 10
8.6034149481
 20
6.6439213002
 30
0.0
 40
0.125
 41
0.0
 71
     1
 72
     1
  1
%%c
  7
SLDTEXTSTYLE0
 73
     1
 44
1.0
  0
MTEXT
  5
1C0
330
1A9
100
AcDbEntity
  8
0
  6
Continuous
 62
     7
370
     0
100
AcDbMText
 10
8.7919305687
 20
6.6458310225
 30
0.0
 40
0.125
 41
0.0
 71
     1
 72
     1
  1
 
  7
SLDTEXTSTYLE0
 73
     1
 44
1.0
  0
MTEXT
  5
1C1
330
1A9
100
AcDbEntity
  8
0
  6
Continuous
 62
     7
370
     0
100
AcDbMText
 10
8.8380210253
 20
6.6439213162
 30
0.0
 40
0.125
 41
0.0
 71
     1
 72
     1
  1
.18[4.500]
  7
SLDTEXTSTYLE0
 73
     1
 44
1.0
  0
MTEXT
  5
1C2
330
1A9
100
AcDbEntity
  8
0
  6
Continuous
 62
     7
370
     0
100
AcDbMText
 10
9.6625171159
 20
6.6439213162
 30
0.0
 40
0.125
 41
0.0
 71
     1
 72
     1
  1
 
  7
SLDTEXTSTYLE0
 73
     1
 44
1.0
  0
MTEXT
  5
1C3
330
1A9
100
AcDbEntity
  8
0
  6
Continuous
 62
     7
370
     0
100
AcDbMText
 10
9.7085703723
 20
6.6439213162
 30
0.0
 40
0.125
 41
0.0
 71
     1
 72
     1
  1
THRU ALL
  7
SLDTEXTSTYLE0
 73
     1
 44
1.0
  0
ENDBLK
  5
1AB
330
1A9
100
AcDbEntity
  8
0
100
AcDbBlockEnd
  0
BLOCK
  5
1B0
330
1AF
100
AcDbEntity
  8
0
100
AcDbBlockBegin
  2
SW_SYMBOL_HOLE_SPOT
 70
     0
 10
0.0
 20
0.0
 30
0.0
  3
SW_SYMBOL_HOLE_SPOT
  1

  0
LINE
  5
1B2
330
1AF
100
AcDbEntity
  8
0
  6
Continuous
 62
     0
370
     0
100
AcDbLine
 10
0.0
 20
34.4488188976
 30
0.0
 11
0.0
 21
2.9527559055
 31
0.0
  0
LINE
  5
1B3
330
1AF
100
AcDbEntity
  8
0
  6
Continuous
 62
     0
370
     0
100
AcDbLine
 10
0.0
 20
2.9527559055
 30
0.0
 11
62.9921259843
 21
2.9527559055
 31
0.0
  0
LINE
  5
1B4
330
1AF
100
AcDbEntity
  8
0
  6
Continuous
 62
     0
370
     0
100
AcDbLine
 10
62.9921259843
 20
2.9527559055
 30
0.0
 11
62.9921259843
 21
34.4488188976
 31
0.0
  0
ENDBLK
  5
1B1
330
1AF
100
AcDbEntity
  8
0
100
AcDbBlockEnd
  0
BLOCK
  5
1C6
330
1C5
100
AcDbEntity
  8
0
100
AcDbBlockBegin
  2
*D18
 70
     1
 10
0.0
 20
0.0
 30
0.0
  3
*D18
  1

  0
SOLID
  5
1C8
330
1C5
100
AcDbEntity
  8
0
  6
Continuous
 62
     7
370
     0
100
AcDbTrace
 10
9.4420654338
 20
2.9352014232
 30
0.0
 11
9.4220845451
 21
2.8051984845
 31
0.0
 12
9.4620845447
 22
2.8052043648
 32
0.0
 13
9.4620845447
 23
2.8052043648
 33
0.0
  0
LINE
  5
1C9
330
1C5
100
AcDbEntity
  8
0
  6
Continuous
 62
     7
370
     0
100
AcDbLine
 10
9.4420654338
 20
2.9352014232
 30
0.0
 11
9.4422785971
 21
1.4851957097
 31
0.0
  0
LINE
  5
1CA
330
1C5
100
AcDbEntity
  8
0
  6
Continuous
 62
     7
370
     0
100
AcDbLine
 10
9.4422785971
 20
1.4851957097
 30
0.0
 11
9.1922785971
 21
1.4851957097
 31
0.0
  0
INSERT
  5
1CB
330
1C5
100
AcDbEntity
  8
0
  6
Continuous
 62
     7
370
     0
100
AcDbBlockReference
  2
SW_SYMBOL_HOLE_SPOT
 10
7.0497311682
 20
1.3022515767
 30
0.0
 41
0.0040555664
 42
0.0040555664
 43
0.0040555664
  0
MTEXT
  5
1CC
330
1C5
100
AcDbEntity
  8
0
  6
Continuous
 62
     7
370
     0
100
AcDbMText
 10
7.3870749045
 20
1.4460510598
 30
0.0
 40
0.125
 41
0.0
 71
     1
 72
     1
  1
%%c
  7
SLDTEXTSTYLE0
 73
     1
 44
1.0
  0
MTEXT
  5
1CD
330
1C5
100
AcDbEntity
  8
0
  6
Continuous
 62
     7
370
     0
100
AcDbMText
 10
7.5755905067
 20
1.4479607821
 30
0.0
 40
0.125
 41
0.0
 71
     1
 72
     1
  1
 
  7
SLDTEXTSTYLE0
 73
     1
 44
1.0
  0
MTEXT
  5
1CE
330
1C5
100
AcDbEntity
  8
0
  6
Continuous
 62
     7
370
     0
100
AcDbMText
 10
7.6216483524
 20
1.4460510758
 30
0.0
 40
0.125
 41
0.0
 71
     1
 72
     1
  1
.26[6.500]
  7
SLDTEXTSTYLE0
 73
     1
 44
1.0
  0
MTEXT
  5
1CF
330
1C5
100
AcDbEntity
  8
0
  6
Continuous
 62
     7
370
     0
100
AcDbMText
 10
8.4461444429
 20
1.4479607821
 30
0.0
 40
0.125
 41
0.0
 71
     1
 72
     1
  1
 
  7
SLDTEXTSTYLE0
 73
     1
 44
1.0
  0
INSERT
  5
1D0
330
1C5
100
AcDbEntity
  8
0
  6
Continuous
 62
     7
370
     0
100
AcDbBlockReference
  2
SW_SYMBOL_HOLE_DEPTH
 10
8.4923249986
 20
1.3022515767
 30
0.0
 41
0.0040555664
 42
0.0040555664
 43
0.0040555664
  0
MTEXT
  5
1D1
330
1C5
100
AcDbEntity
  8
0
  6
Continuous
 62
     7
370
     0
100
AcDbMText
 10
8.670918743
 20
1.4479607821
 30
0.0
 40
0.125
 41
0.0
 71
     1
 72
     1
  1
 
  7
SLDTEXTSTYLE0
 73
     1
 44
1.0
  0
MTEXT
  5
1D2
330
1C5
100
AcDbEntity
  8
0
  6
Continuous
 62
     7
370
     0
100
AcDbMText
 10
8.7169304506
 20
1.4460510758
 30
0.0
 40
0.125
 41
0.0
 71
     1
 72
     1
  1
.16[4]
  7
SLDTEXTSTYLE0
 73
     1
 44
1.0
  0
MTEXT
  5
1D3
330
1C5
100
AcDbEntity
  8
0
  6
Continuous
 62
     7
370
     0
100
AcDbMText
 10
7.0567819574
 20
1.64436568
 30
0.0
 40
0.125
 41
0.0
 71
     1
 72
     1
  1
4
  7
SLDTEXTSTYLE0
 73
     1
 44
1.0
  0
MTEXT
  5
1D4
330
1C5
100
AcDbEntity
  8
0
  6
Continuous
 62
     7
370
     0
100
AcDbMText
 10
7.156385512
 20
1.6462753862
 30
0.0
 40
0.125
 41
0.0
 71
     1
 72
     1
  1
X 
  7
SLDTEXTSTYLE0
 73
     1
 44
1.0
  0
MTEXT
  5
1D5
330
1C5
100
AcDbEntity
  8
0
  6
Continuous
 62
     7
370
     0
100
AcDbMText
 10
7.3041285636
 20
1.6443656639
 30
0.0
 40
0.125
 41
0.0
 71
     1
 72
     1
  1
%%c
  7
SLDTEXTSTYLE0
 73
     1
 44
1.0
  0
MTEXT
  5
1D6
330
1C5
100
AcDbEntity
  8
0
  6
Continuous
 62
     7
370
     0
100
AcDbMText
 10
7.4926441841
 20
1.6462753862
 30
0.0
 40
0.125
 41
0.0
 71
     1
 72
     1
  1
 
  7
SLDTEXTSTYLE0
 73
     1
 44
1.0
  0
MTEXT
  5
1D7
330
1C5
100
AcDbEntity
  8
0
  6
Continuous
 62
     7
370
     0
100
AcDbMText
 10
7.5387346408
 20
1.64436568
 30
0.0
 40
0.125
 41
0.0
 71
     1
 72
     1
  1
.13[3.400]
  7
SLDTEXTSTYLE0
 73
     1
 44
1.0
  0
MTEXT
  5
1D8
330
1C5
100
AcDbEntity
  8
0
  6
Continuous
 62
     7
370
     0
100
AcDbMText
 10
8.3632307313
 20
1.64436568
 30
0.0
 40
0.125
 41
0.0
 71
     1
 72
     1
  1
 
  7
SLDTEXTSTYLE0
 73
     1
 44
1.0
  0
MTEXT
  5
1D9
330
1C5
100
AcDbEntity
  8
0
  6
Continuous
 62
     7
370
     0
100
AcDbMText
 10
8.4092839877
 20
1.64436568
 30
0.0
 40
0.125
 41
0.0
 71
     1
 72
     1
  1
THRU ALL
  7
SLDTEXTSTYLE0
 73
     1
 44
1.0
  0
ENDBLK
  5
1C7
330
1C5
100
AcDbEntity
  8
0
100
AcDbBlockEnd
  0
BLOCK
  5
1DB
330
1DA
100
AcDbEntity
  8
0
100
AcDbBlockBegin
  2
SW_CENTERMARKSYMBOL_3
 70
     0
 10
0.0
 20
0.0
 30
0.0
  3
SW_CENTERMARKSYMBOL_3
  1

  0
LINE
  5
1DD
330
1DA
100
AcDbEntity
  8
0
  6
Continuous
 62
     0
370
     0
100
AcDbLine
 10
0.0
 20
0.0
 30
0.0
 11
0.0
 21
-0.1
 31
0.0
  0
LINE
  5
1DE
330
1DA
100
AcDbEntity
  8
0
  6
Continuous
 62
     0
370
     0
100
AcDbLine
 10
0.0
 20
0.0
 30
0.0
 11
0.1
 21
0.0
 31
0.0
  0
LINE
  5
1DF
330
1DA
100
AcDbEntity
  8
0
  6
Continuous
 62
     0
370
     0
100
AcDbLine
 10
0.0
 20
0.0
 30
0.0
 11
0.0
 21
0.1
 31
0.0
  0
LINE
  5
1E0
330
1DA
100
AcDbEntity
  8
0
  6
Continuous
 62
     0
370
     0
100
AcDbLine
 10
0.0
 20
0.0
 30
0.0
 11
-0.1
 21
0.0
 31
0.0
  0
LINE
  5
1E1
330
1DA
100
AcDbEntity
  8
0
  6
Continuous
 62
     0
370
     0
100
AcDbLine
 10
0.0
 20
-0.1
 30
0.0
 11
0.0
 21
-0.1885826772
 31
0.0
  0
LINE
  5
1E2
330
1DA
100
AcDbEntity
  8
0
  6
Continuous
 62
     0
370
     0
100
AcDbLine
 10
0.1
 20
0.0
 30
0.0
 11
0.1885826772
 21
0.0
 31
0.0
  0
LINE
  5
1E3
330
1DA
100
AcDbEntity
  8
0
  6
Continuous
 62
     0
370
     0
100
AcDbLine
 10
-2.2834645669
 20
0.0
 30
0.0
 11
-2.2834645669
 21
-0.1
 31
0.0
  0
LINE
  5
1E4
330
1DA
100
AcDbEntity
  8
0
  6
Continuous
 62
     0
370
     0
100
AcDbLine
 10
-2.2834645669
 20
0.0
 30
0.0
 11
-2.1834645669
 21
0.0
 31
0.0
  0
LINE
  5
1E5
330
1DA
100
AcDbEntity
  8
0
  6
Continuous
 62
     0
370
     0
100
AcDbLine
 10
-2.2834645669
 20
0.0
 30
0.0
 11
-2.2834645669
 21
0.1
 31
0.0
  0
LINE
  5
1E6
330
1DA
100
AcDbEntity
  8
0
  6
Continuous
 62
     0
370
     0
100
AcDbLine
 10
-2.2834645669
 20
0.0
 30
0.0
 11
-2.3834645669
 21
0.0
 31
0.0
  0
LINE
  5
1E7
330
1DA
100
AcDbEntity
  8
0
  6
Continuous
 62
     0
370
     0
100
AcDbLine
 10
-2.2834645669
 20
-0.1
 30
0.0
 11
-2.2834645669
 21
-0.1885826772
 31
0.0
  0
LINE
  5
1E8
330
1DA
100
AcDbEntity
  8
0
  6
Continuous
 62
     0
370
     0
100
AcDbLine
 10
-2.3834645669
 20
0.0
 30
0.0
 11
-2.4720472441
 21
0.0
 31
0.0
  0
LINE
  5
1E9
330
1DA
100
AcDbEntity
  8
0
  6
Continuous
 62
     0
370
     0
100
AcDbLine
 10
-2.2834645669
 20
0.9842519685
 30
0.0
 11
-2.2834645669
 21
0.8842519685
 31
0.0
  0
LINE
  5
1EA
330
1DA
100
AcDbEntity
  8
0
  6
Continuous
 62
     0
370
     0
100
AcDbLine
 10
-2.2834645669
 20
0.9842519685
 30
0.0
 11
-2.1834645669
 21
0.9842519685
 31
0.0
  0
LINE
  5
1EB
330
1DA
100
AcDbEntity
  8
0
  6
Continuous
 62
     0
370
     0
100
AcDbLine
 10
-2.2834645669
 20
0.9842519685
 30
0.0
 11
-2.2834645669
 21
1.0842519685
 31
0.0
  0
LINE
  5
1EC
330
1DA
100
AcDbEntity
  8
0
  6
Continuous
 62
     0
370
     0
100
AcDbLine
 10
-2.2834645669
 20
0.9842519685
 30
0.0
 11
-2.3834645669
 21
0.9842519685
 31
0.0
  0
LINE
  5
1ED
330
1DA
100
AcDbEntity
  8
0
  6
Continuous
 62
     0
370
     0
100
AcDbLine
 10
-2.2834645669
 20
1.0842519685
 30
0.0
 11
-2.2834645669
 21
1.1728346457
 31
0.0
  0
LINE
  5
1EE
330
1DA
100
AcDbEntity
  8
0
  6
Continuous
 62
     0
370
     0
100
AcDbLine
 10
-2.3834645669
 20
0.9842519685
 30
0.0
 11
-2.4720472441
 21
0.9842519685
 31
0.0
  0
LINE
  5
1EF
330
1DA
100
AcDbEntity
  8
0
  6
Continuous
 62
     0
370
     0
100
AcDbLine
 10
0.0
 20
0.9842519685
 30
0.0
 11
0.0
 21
0.8842519685
 31
0.0
  0
LINE
  5
1F0
330
1DA
100
AcDbEntity
  8
0
  6
Continuous
 62
     0
370
     0
100
AcDbLine
 10
0.0
 20
0.9842519685
 30
0.0
 11
0.1
 21
0.9842519685
 31
0.0
  0
LINE
  5
1F1
330
1DA
100
AcDbEntity
  8
0
  6
Continuous
 62
     0
370
     0
100
AcDbLine
 10
0.0
 20
0.9842519685
 30
0.0
 11
0.0
 21
1.0842519685
 31
0.0
  0
LINE
  5
1F2
330
1DA
100
AcDbEntity
  8
0
  6
Continuous
 62
     0
370
     0
100
AcDbLine
 10
0.0
 20
0.9842519685
 30
0.0
 11
-0.1
 21
0.9842519685
 31
0.0
  0
LINE
  5
1F3
330
1DA
100
AcDbEntity
  8
0
  6
Continuous
 62
     0
370
     0
100
AcDbLine
 10
0.1
 20
0.9842519685
 30
0.0
 11
0.1885826772
 21
0.9842519685
 31
0.0
  0
LINE
  5
1F4
330
1DA
100
AcDbEntity
  8
0
  6
Continuous
 62
     0
370
     0
100
AcDbLine
 10
0.0
 20
1.0842519685
 30
0.0
 11
0.0
 21
1.1728346457
 31
0.0
  0
LINE
  5
1F5
330
1DA
100
AcDbEntity
  8
0
  6
Continuous
 62
     0
370
     0
100
AcDbLine
 10
-0.2
 20
0.9842519685
 30
0.0
 11
-2.0834645669
 21
0.9842519685
 31
0.0
  0
LINE
  5
1F6
330
1DA
100
AcDbEntity
  8
0
  6
Continuous
 62
     0
370
     0
100
AcDbLine
 10
-0.2
 20
0.0
 30
0.0
 11
-2.0834645669
 21
0.0
 31
0.0
  0
LINE
  5
1F7
330
1DA
100
AcDbEntity
  8
0
  6
Continuous
 62
     0
370
     0
100
AcDbLine
 10
0.0
 20
0.7842519685
 30
0.0
 11
0.0
 21
0.2
 31
0.0
  0
LINE
  5
1F8
330
1DA
100
AcDbEntity
  8
0
  6
Continuous
 62
     0
370
     0
100
AcDbLine
 10
-2.2834645669
 20
0.7842519685
 30
0.0
 11
-2.2834645669
 21
0.2
 31
0.0
  0
ENDBLK
  5
1DC
330
1DA
100
AcDbEntity
  8
0
100
AcDbBlockEnd
  0
BLOCK
  5
1FB
330
1FA
100
AcDbEntity
  8
0
100
AcDbBlockBegin
  2
SW_CENTERMARKSYMBOL_4
 70
     0
 10
0.0
 20
0.0
 30
0.0
  3
SW_CENTERMARKSYMBOL_4
  1

  0
LINE
  5
1FD
330
1FA
100
AcDbEntity
  8
0
  6
Continuous
 62
     0
370
     0
100
AcDbLine
 10
0.0
 20
0.0
 30
0.0
 11
0.0
 21
-0.1
 31
0.0
  0
LINE
  5
1FE
330
1FA
100
AcDbEntity
  8
0
  6
Continuous
 62
     0
370
     0
100
AcDbLine
 10
0.0
 20
0.0
 30
0.0
 11
0.1
 21
0.0
 31
0.0
  0
LINE
  5
1FF
330
1FA
100
AcDbEntity
  8
0
  6
Continuous
 62
     0
370
     0
100
AcDbLine
 10
0.0
 20
0.0
 30
0.0
 11
0.0
 21
0.1
 31
0.0
  0
LINE
  5
200
330
1FA
100
AcDbEntity
  8
0
  6
Continuous
 62
     0
370
     0
100
AcDbLine
 10
0.0
 20
0.0
 30
0.0
 11
-0.1
 21
0.0
 31
0.0
  0
LINE
  5
201
330
1FA
100
AcDbEntity
  8
0
  6
Continuous
 62
     0
370
     0
100
AcDbLine
 10
0.2
 20
0.0
 30
0.0
 11
0.2279527559
 21
0.0
 31
0.0
  0
LINE
  5
202
330
1FA
100
AcDbEntity
  8
0
  6
Continuous
 62
     0
370
     0
100
AcDbLine
 10
0.0
 20
0.2
 30
0.0
 11
0.0
 21
0.2279527559
 31
0.0
  0
LINE
  5
203
330
1FA
100
AcDbEntity
  8
0
  6
Continuous
 62
     0
370
     0
100
AcDbLine
 10
-0.6377952756
 20
0.0
 30
0.0
 11
-0.6377952756
 21
-0.1
 31
0.0
  0
LINE
  5
204
330
1FA
100
AcDbEntity
  8
0
  6
Continuous
 62
     0
370
     0
100
AcDbLine
 10
-0.6377952756
 20
0.0
 30
0.0
 11
-0.5377952756
 21
0.0
 31
0.0
  0
LINE
  5
205
330
1FA
100
AcDbEntity
  8
0
  6
Continuous
 62
     0
370
     0
100
AcDbLine
 10
-0.6377952756
 20
0.0
 30
0.0
 11
-0.6377952756
 21
0.1
 31
0.0
  0
LINE
  5
206
330
1FA
100
AcDbEntity
  8
0
  6
Continuous
 62
     0
370
     0
100
AcDbLine
 10
-0.6377952756
 20
0.0
 30
0.0
 11
-0.7377952756
 21
0.0
 31
0.0
  0
LINE
  5
207
330
1FA
100
AcDbEntity
  8
0
  6
Continuous
 62
     0
370
     0
100
AcDbLine
 10
-0.6377952756
 20
0.2
 30
0.0
 11
-0.6377952756
 21
0.2279527559
 31
0.0
  0
LINE
  5
208
330
1FA
100
AcDbEntity
  8
0
  6
Continuous
 62
     0
370
     0
100
AcDbLine
 10
-0.8377952756
 20
0.0
 30
0.0
 11
-0.8657480315
 21
0.0
 31
0.0
  0
LINE
  5
209
330
1FA
100
AcDbEntity
  8
0
  6
Continuous
 62
     0
370
     0
100
AcDbLine
 10
-0.6377952756
 20
-1.0
 30
0.0
 11
-0.6377952756
 21
-1.1
 31
0.0
  0
LINE
  5
20A
330
1FA
100
AcDbEntity
  8
0
  6
Continuous
 62
     0
370
     0
100
AcDbLine
 10
-0.6377952756
 20
-1.0
 30
0.0
 11
-0.5377952756
 21
-1.0
 31
0.0
  0
LINE
  5
20B
330
1FA
100
AcDbEntity
  8
0
  6
Continuous
 62
     0
370
     0
100
AcDbLine
 10
-0.6377952756
 20
-1.0
 30
0.0
 11
-0.6377952756
 21
-0.9
 31
0.0
  0
LINE
  5
20C
330
1FA
100
AcDbEntity
  8
0
  6
Continuous
 62
     0
370
     0
100
AcDbLine
 10
-0.6377952756
 20
-1.0
 30
0.0
 11
-0.7377952756
 21
-1.0
 31
0.0
  0
LINE
  5
20D
330
1FA
100
AcDbEntity
  8
0
  6
Continuous
 62
     0
370
     0
100
AcDbLine
 10
-0.6377952756
 20
-1.2
 30
0.0
 11
-0.6377952756
 21
-1.2279527559
 31
0.0
  0
LINE
  5
20E
330
1FA
100
AcDbEntity
  8
0
  6
Continuous
 62
     0
370
     0
100
AcDbLine
 10
-0.8377952756
 20
-1.0
 30
0.0
 11
-0.8657480315
 21
-1.0
 31
0.0
  0
LINE
  5
20F
330
1FA
100
AcDbEntity
  8
0
  6
Continuous
 62
     0
370
     0
100
AcDbLine
 10
0.0
 20
-1.0
 30
0.0
 11
0.0
 21
-1.1
 31
0.0
  0
LINE
  5
210
330
1FA
100
AcDbEntity
  8
0
  6
Continuous
 62
     0
370
     0
100
AcDbLine
 10
0.0
 20
-1.0
 30
0.0
 11
0.1
 21
-1.0
 31
0.0
  0
LINE
  5
211
330
1FA
100
AcDbEntity
  8
0
  6
Continuous
 62
     0
370
     0
100
AcDbLine
 10
0.0
 20
-1.0
 30
0.0
 11
0.0
 21
-0.9
 31
0.0
  0
LINE
  5
212
330
1FA
100
AcDbEntity
  8
0
  6
Continuous
 62
     0
370
     0
100
AcDbLine
 10
0.0
 20
-1.0
 30
0.0
 11
-0.1
 21
-1.0
 31
0.0
  0
LINE
  5
213
330
1FA
100
AcDbEntity
  8
0
  6
Continuous
 62
     0
370
     0
100
AcDbLine
 10
0.0
 20
-1.2
 30
0.0
 11
0.0
 21
-1.2279527559
 31
0.0
  0
LINE
  5
214
330
1FA
100
AcDbEntity
  8
0
  6
Continuous
 62
     0
370
     0
100
AcDbLine
 10
0.2
 20
-1.0
 30
0.0
 11
0.2279527559
 21
-1.0
 31
0.0
  0
LINE
  5
215
330
1FA
100
AcDbEntity
  8
0
  6
Continuous
 62
     0
370
     0
100
AcDbLine
 10
-0.2
 20
0.0
 30
0.0
 11
-0.4377952756
 21
0.0
 31
0.0
  0
LINE
  5
216
330
1FA
100
AcDbEntity
  8
0
  6
Continuous
 62
     0
370
     0
100
AcDbLine
 10
-0.2
 20
-1.0
 30
0.0
 11
-0.4377952756
 21
-1.0
 31
0.0
  0
LINE
  5
217
330
1FA
100
AcDbEntity
  8
0
  6
Continuous
 62
     0
370
     0
100
AcDbLine
 10
0.0
 20
-0.2
 30
0.0
 11
0.0
 21
-0.8
 31
0.0
  0
LINE
  5
218
330
1FA
100
AcDbEntity
  8
0
  6
Continuous
 62
     0
370
     0
100
AcDbLine
 10
-0.6377952756
 20
-0.2
 30
0.0
 11
-0.6377952756
 21
-0.8
 31
0.0
  0
ENDBLK
  5
1FC
330
1FA
100
AcDbEntity
  8
0
100
AcDbBlockEnd
  0
BLOCK
  5
22A
330
229
100
AcDbEntity
  8
0
100
AcDbBlockBegin
  2
*D21
 70
     1
 10
0.0
 20
0.0
 30
0.0
  3
*D21
  1

  0
ARC
  5
22C
330
229
100
AcDbEntity
  8
0
  6
Continuous
 62
     7
370
     0
100
AcDbCircle
 10
0.7795857528
 20
3.6239825773
 30
0.0
 40
0.4434449358101284
100
AcDbArc
 50
153.4349488229
 51
206.5650511771
  0
ARC
  5
22D
330
229
100
AcDbEntity
  8
0
  6
Continuous
 62
     7
370
     0
100
AcDbCircle
 10
0.811229733
 20
3.6239825773
 30
0.0
 40
0.4434449358101294
100
AcDbArc
 50
333.4349488229
 51
26.5650511771
  0
SOLID
  5
22E
330
229
100
AcDbEntity
  8
0
  6
Continuous
 62
     7
370
     0
100
AcDbTrace
 10
0.7954077429
 20
2.9332329179
 30
0.0
 11
0.8154077429
 21
3.0632329179
 31
0.0
 12
0.7754077429
 22
3.0632329179
 32
0.0
 13
0.7754077429
 23
3.0632329179
 33
0.0
  0
SOLID
  5
22F
330
229
100
AcDbEntity
  8
0
  6
Continuous
 62
     7
370
     0
100
AcDbTrace
 10
0.7954077429
 20
4.1930754376
 30
0.0
 11
0.7754077429
 21
4.0630754376
 31
0.0
 12
0.8154077429
 22
4.0630754376
 32
0.0
 13
0.8154077429
 23
4.0630754376
 33
0.0
  0
LINE
  5
230
330
229
100
AcDbEntity
  8
0
  6
Continuous
 62
     7
370
     0
100
AcDbLine
 10
0.4961508267
 20
3.8074235861
 30
0.0
 11
0.4961508267
 21
3.6388561726
 31
0.0
  0
LINE
  5
231
330
229
100
AcDbEntity
  8
0
  6
Continuous
 62
     7
370
     0
100
AcDbLine
 10
0.4961508267
 20
3.6388561726
 30
0.0
 11
0.5214979678
 21
3.6388561726
 31
0.0
  0
LINE
  5
232
330
229
100
AcDbEntity
  8
0
  6
Continuous
 62
     7
370
     0
100
AcDbLine
 10
0.4961508267
 20
3.8074235861
 30
0.0
 11
0.5214979678
 21
3.8074235861
 31
0.0
  0
LINE
  5
233
330
229
100
AcDbEntity
  8
0
  6
Continuous
 62
     7
370
     0
100
AcDbLine
 10
1.094664659
 20
3.8074235861
 30
0.0
 11
1.094664659
 21
3.6388561726
 31
0.0
  0
LINE
  5
234
330
229
100
AcDbEntity
  8
0
  6
Continuous
 62
     7
370
     0
100
AcDbLine
 10
1.094664659
 20
3.6388561726
 30
0.0
 11
1.0693175179
 21
3.6388561726
 31
0.0
  0
LINE
  5
235
330
229
100
AcDbEntity
  8
0
  6
Continuous
 62
     7
370
     0
100
AcDbLine
 10
1.094664659
 20
3.8074235861
 30
0.0
 11
1.0693175179
 21
3.8074235861
 31
0.0
  0
LINE
  5
236
330
229
100
AcDbEntity
  8
0
  6
Continuous
 62
     7
370
     0
100
AcDbLine
 10
1.3753290027
 20
2.9332329179
 30
0.0
 11
0.6704077429
 21
2.9332329179
 31
0.0
  0
LINE
  5
237
330
229
100
AcDbEntity
  8
0
  6
Continuous
 62
     7
370
     0
100
AcDbLine
 10
1.3753290027
 20
4.1930754376
 30
0.0
 11
0.6704077429
 21
4.1930754376
 31
0.0
  0
LINE
  5
238
330
229
100
AcDbEntity
  8
0
  6
Continuous
 62
     7
370
     0
100
AcDbLine
 10
0.7954077429
 20
2.9332329179
 30
0.0
 11
0.7954077429
 21
3.4256679731
 31
0.0
  0
LINE
  5
239
330
229
100
AcDbEntity
  8
0
  6
Continuous
 62
     7
370
     0
100
AcDbLine
 10
0.7954077429
 20
4.1930754376
 30
0.0
 11
0.7954077429
 21
3.8222971814
 31
0.0
  0
MTEXT
  5
23A
330
229
100
AcDbEntity
  8
0
  6
Continuous
 62
     7
370
     0
100
AcDbMText
 10
0.5663909678
 20
3.5868014544
 30
0.0
 40
0.125
 41
0.0
 71
     1
 72
     1
  1
1.26in
  7
SLDTEXTSTYLE0
 73
     1
 44
1.0
  0
MTEXT
  5
23B
330
229
100
AcDbEntity
  8
0
  6
Continuous
 62
     7
370
     0
100
AcDbMText
 10
0.546845109
 20
3.7851160585
 30
0.0
 40
0.125
 41
0.0
 71
     1
 72
     1
  1
32mm
  7
SLDTEXTSTYLE0
 73
     1
 44
1.0
  0
ENDBLK
  5
22B
330
229
100
AcDbEntity
  8
0
100
AcDbBlockEnd
  0
BLOCK
  5
23E
330
23D
100
AcDbEntity
  8
0
100
AcDbBlockBegin
  2
*D22
 70
     1
 10
0.0
 20
0.0
 30
0.0
  3
*D22
  1

  0
ARC
  5
240
330
23D
100
AcDbEntity
  8
0
  6
Continuous
 62
     7
370
     0
100
AcDbCircle
 10
0.5782211506
 20
4.6321834553
 30
0.0
 40
0.4434449358101296
100
AcDbArc
 50
153.4349488229
 51
206.5650511771
  0
ARC
  5
241
330
23D
100
AcDbEntity
  8
0
  6
Continuous
 62
     7
370
     0
100
AcDbCircle
 10
0.7483819021
 20
4.6321834553
 30
0.0
 40
0.4434449358101297
100
AcDbArc
 50
333.4349488229
 51
26.5650511771
  0
SOLID
  5
242
330
23D
100
AcDbEntity
  8
0
  6
Continuous
 62
     7
370
     0
100
AcDbTrace
 10
1.4253290027
 20
4.6321834553
 30
0.0
 11
1.2953290027
 21
4.6521834553
 31
0.0
 12
1.2953290027
 22
4.6121834553
 32
0.0
 13
1.2953290027
 23
4.6121834553
 33
0.0
  0
SOLID
  5
243
330
23D
100
AcDbEntity
  8
0
  6
Continuous
 62
     7
370
     0
100
AcDbTrace
 10
1.6753290027
 20
4.6321834553
 30
0.0
 11
1.8053290027
 21
4.6121834553
 31
0.0
 12
1.8053290027
 22
4.6521834553
 32
0.0
 13
1.8053290027
 23
4.6521834553
 33
0.0
  0
LINE
  5
244
330
23D
100
AcDbEntity
  8
0
  6
Continuous
 62
     7
370
     0
100
AcDbLine
 10
0.2947862246
 20
4.8156244641
 30
0.0
 11
0.2947862246
 21
4.6470570506
 31
0.0
  0
LINE
  5
245
330
23D
100
AcDbEntity
  8
0
  6
Continuous
 62
     7
370
     0
100
AcDbLine
 10
0.2947862246
 20
4.6470570506
 30
0.0
 11
0.3201333657
 21
4.6470570506
 31
0.0
  0
LINE
  5
246
330
23D
100
AcDbEntity
  8
0
  6
Continuous
 62
     7
370
     0
100
AcDbLine
 10
0.2947862246
 20
4.8156244641
 30
0.0
 11
0.3201333657
 21
4.8156244641
 31
0.0
  0
LINE
  5
247
330
23D
100
AcDbEntity
  8
0
  6
Continuous
 62
     7
370
     0
100
AcDbLine
 10
1.0318168281
 20
4.8156244641
 30
0.0
 11
1.0318168281
 21
4.6470570506
 31
0.0
  0
LINE
  5
248
330
23D
100
AcDbEntity
  8
0
  6
Continuous
 62
     7
370
     0
100
AcDbLine
 10
1.0318168281
 20
4.6470570506
 30
0.0
 11
1.006469687
 21
4.6470570506
 31
0.0
  0
LINE
  5
249
330
23D
100
AcDbEntity
  8
0
  6
Continuous
 62
     7
370
     0
100
AcDbLine
 10
1.0318168281
 20
4.8156244641
 30
0.0
 11
1.006469687
 21
4.8156244641
 31
0.0
  0
LINE
  5
24A
330
23D
100
AcDbEntity
  8
0
  6
Continuous
 62
     7
370
     0
100
AcDbLine
 10
1.4253290027
 20
4.2430754376
 30
0.0
 11
1.4253290027
 21
4.7571834553
 31
0.0
  0
LINE
  5
24B
330
23D
100
AcDbEntity
  8
0
  6
Continuous
 62
     7
370
     0
100
AcDbLine
 10
1.6753290027
 20
4.2430754376
 30
0.0
 11
1.6753290027
 21
4.7571834553
 31
0.0
  0
LINE
  5
24C
330
23D
100
AcDbEntity
  8
0
  6
Continuous
 62
     7
370
     0
100
AcDbLine
 10
1.4253290027
 20
4.6321834553
 30
0.0
 11
1.3595939571
 21
4.6321834553
 31
0.0
  0
LINE
  5
24D
330
23D
100
AcDbEntity
  8
0
  6
Continuous
 62
     7
370
     0
100
AcDbLine
 10
1.6753290027
 20
4.6321834553
 30
0.0
 11
1.9253290027
 21
4.6321834553
 31
0.0
  0
MTEXT
  5
24E
330
23D
100
AcDbEntity
  8
0
  6
Continuous
 62
     7
370
     0
100
AcDbMText
 10
0.4804272582
 20
4.5950023323
 30
0.0
 40
0.125
 41
0.0
 71
     1
 72
     1
  1
.25in
  7
SLDTEXTSTYLE0
 73
     1
 44
1.0
  0
MTEXT
  5
24F
330
23D
100
AcDbEntity
  8
0
  6
Continuous
 62
     7
370
     0
100
AcDbMText
 10
0.3454805068
 20
4.7933169365
 30
0.0
 40
0.125
 41
0.0
 71
     1
 72
     1
  1
6.35mm
  7
SLDTEXTSTYLE0
 73
     1
 44
1.0
  0
ENDBLK
  5
23F
330
23D
100
AcDbEntity
  8
0
100
AcDbBlockEnd
  0
ENDSEC
  0
SECTION
  2
ENTITIES
  0
INSERT
  5
4B
330
1F
100
AcDbEntity
  8
0
  6
Continuous
 62
     7
370
     0
100
AcDbBlockReference
  2
SW_NOTE_0
 10
0.9220905172
 20
7.6996982697
 30
0.0
  0
MTEXT
  5
4C
330
1F
100
AcDbEntity
  8
0
  6
Continuous
 62
     7
370
     0
100
AcDbMText
 10
3.3221917624
 20
4.4452060016
 30
0.0
 40
0.125
 41
0.0
 71
     1
 72
     1
  1
Top
  7
SLDTEXTSTYLE0
 73
     1
 44
1.0
  0
MTEXT
  5
4D
330
1F
100
AcDbEntity
  8
0
  6
Continuous
 62
     7
370
     0
100
AcDbMText
 10
7.2545392737
 20
4.4452060016
 30
0.0
 40
0.125
 41
0.0
 71
     1
 72
     1
  1
Bottom
  7
SLDTEXTSTYLE0
 73
     1
 44
1.0
  0
LINE
  5
4E
330
1F
100
AcDbEntity
  8
0
  6
CENTERX2
 62
     7
100
AcDbLine
 10
5.0397746673
 20
4.5448552255
 30
0.0
 11
5.0397746673
 21
2.5363174497
 31
0.0
  0
LINE
  5
4F
330
1F
100
AcDbEntity
  8
0
  6
CENTERX2
 62
     7
100
AcDbLine
 10
3.5638379198
 20
3.5631541778
 30
0.0
 11
6.655632024
 21
3.5631541778
 31
0.0
  0
LINE
  5
50
330
1F
100
AcDbEntity
  8
0
  6
Continuous
 62
     7
370
    15
100
AcDbLine
 10
6.2577467805
 20
2.9332329179
 30
0.0
 11
6.3193022264
 21
2.9332329179
 31
0.0
  0
ARC
  5
51
330
1F
100
AcDbEntity
  8
0
  6
Continuous
 62
     7
370
    15
100
AcDbCircle
 10
6.1815069508
 20
3.0710281935
 30
0.0
 40
0.1574803149606304
100
AcDbArc
 50
298.9550243719
 51
331.0449756281
  0
LINE
  5
52
330
1F
100
AcDbEntity
  8
0
  6
Continuous
 62
     7
370
    15
100
AcDbLine
 10
6.3193022264
 20
2.9332329179
 30
0.0
 11
6.3193022264
 21
2.9947883639
 31
0.0
  0
LINE
  5
53
330
1F
100
AcDbEntity
  8
0
  6
Continuous
 62
     7
370
    15
100
AcDbLine
 10
6.3193022264
 20
4.1315199917
 30
0.0
 11
6.3193022264
 21
4.1930754376
 31
0.0
  0
ARC
  5
54
330
1F
100
AcDbEntity
  8
0
  6
Continuous
 62
     7
370
    15
100
AcDbCircle
 10
6.1815069508
 20
4.055280162
 30
0.0
 40
0.1574803149606306
100
AcDbArc
 50
28.9550243719
 51
61.0449756281
  0
LINE
  5
55
330
1F
100
AcDbEntity
  8
0
  6
Continuous
 62
     7
370
    15
100
AcDbLine
 10
6.3193022264
 20
4.1930754376
 30
0.0
 11
6.2577467805
 21
4.1930754376
 31
0.0
  0
LINE
  5
56
330
1F
100
AcDbEntity
  8
0
  6
Continuous
 62
     7
370
    15
100
AcDbLine
 10
3.7602471083
 20
2.9947883639
 30
0.0
 11
3.7602471083
 21
2.9332329179
 31
0.0
  0
ARC
  5
57
330
1F
100
AcDbEntity
  8
0
  6
Continuous
 62
     7
370
    15
100
AcDbCircle
 10
3.8980423839
 20
3.0710281935
 30
0.0
 40
0.15748031496063
100
AcDbArc
 50
208.9550243719
 51
241.0449756281
  0
LINE
  5
58
330
1F
100
AcDbEntity
  8
0
  6
Continuous
 62
     7
370
    15
100
AcDbLine
 10
3.7602471083
 20
2.9332329179
 30
0.0
 11
3.8218025542
 21
2.9332329179
 31
0.0
  0
ARC
  5
59
330
1F
100
AcDbEntity
  8
0
  6
Continuous
 62
     7
370
    15
100
AcDbCircle
 10
3.8980423839
 20
3.0710281935
 30
0.0
 40
0.1574803149606303
100
AcDbArc
 50
298.9550243719
 51
151.0449756281
  0
LINE
  5
5A
330
1F
100
AcDbEntity
  8
0
  6
Continuous
 62
     7
370
    15
100
AcDbLine
 10
3.7602471083
 20
3.9790403324
 30
0.0
 11
3.7602471083
 21
3.1472680232
 31
0.0
  0
ARC
  5
5B
330
1F
100
AcDbEntity
  8
0
  6
Continuous
 62
     7
370
    15
100
AcDbCircle
 10
3.8980423839
 20
4.055280162
 30
0.0
 40
0.15748031496063
100
AcDbArc
 50
208.9550243719
 51
61.0449756281
  0
LINE
  5
5C
330
1F
100
AcDbEntity
  8
0
  6
Continuous
 62
     7
370
    15
100
AcDbLine
 10
6.1052671212
 20
4.1930754376
 30
0.0
 11
3.9742822135
 21
4.1930754376
 31
0.0
  0
ARC
  5
5D
330
1F
100
AcDbEntity
  8
0
  6
Continuous
 62
     7
370
    15
100
AcDbCircle
 10
6.1815069508
 20
4.055280162
 30
0.0
 40
0.1574803149606304
100
AcDbArc
 50
118.9550243719
 51
331.0449756281
  0
LINE
  5
5E
330
1F
100
AcDbEntity
  8
0
  6
Continuous
 62
     7
370
    15
100
AcDbLine
 10
6.3193022264
 20
3.1472680232
 30
0.0
 11
6.3193022264
 21
3.9790403324
 31
0.0
  0
ARC
  5
5F
330
1F
100
AcDbEntity
  8
0
  6
Continuous
 62
     7
370
    15
100
AcDbCircle
 10
6.1815069508
 20
3.0710281935
 30
0.0
 40
0.1574803149606306
100
AcDbArc
 50
28.9550243719
 51
241.0449756281
  0
LINE
  5
60
330
1F
100
AcDbEntity
  8
0
  6
Continuous
 62
     7
370
    15
100
AcDbLine
 10
3.9742822135
 20
2.9332329179
 30
0.0
 11
6.1052671212
 21
2.9332329179
 31
0.0
  0
CIRCLE
  5
61
330
1F
100
AcDbEntity
  8
0
  6
Continuous
 62
     7
370
    15
100
AcDbCircle
 10
4.7208770295
 20
3.0631541778
 30
0.0
 40
0.066929133858268
  0
CIRCLE
  5
62
330
1F
100
AcDbEntity
  8
0
  6
Continuous
 62
     7
370
    15
100
AcDbCircle
 10
4.7208770295
 20
4.0631541778
 30
0.0
 40
0.0669291338582676
  0
CIRCLE
  5
63
330
1F
100
AcDbEntity
  8
0
  6
Continuous
 62
     7
370
    15
100
AcDbCircle
 10
5.3586723051
 20
3.0631541778
 30
0.0
 40
0.066929133858268
  0
CIRCLE
  5
64
330
1F
100
AcDbEntity
  8
0
  6
Continuous
 62
     7
370
    15
100
AcDbCircle
 10
5.3586723051
 20
4.0631541778
 30
0.0
 40
0.0669291338582676
  0
CIRCLE
  5
65
330
1F
100
AcDbEntity
  8
0
  6
Continuous
 62
     7
370
    15
100
AcDbCircle
 10
4.5476486831
 20
3.5631541778
 30
0.0
 40
0.061023622047244
  0
CIRCLE
  5
66
330
1F
100
AcDbEntity
  8
0
  6
Continuous
 62
     7
370
    15
100
AcDbCircle
 10
5.5319006516
 20
3.5631541778
 30
0.0
 40
0.061023622047244
  0
ARC
  5
67
330
1F
100
AcDbEntity
  8
0
  6
Continuous
 62
     7
370
    15
100
AcDbCircle
 10
3.8980423839
 20
4.055280162
 30
0.0
 40
0.1574803149606303
100
AcDbArc
 50
118.9550243719
 51
151.0449756281
  0
LINE
  5
68
330
1F
100
AcDbEntity
  8
0
  6
Continuous
 62
     7
370
    15
100
AcDbLine
 10
3.7602471083
 20
4.1930754376
 30
0.0
 11
3.7602471083
 21
4.1315199917
 31
0.0
  0
LINE
  5
69
330
1F
100
AcDbEntity
  8
0
  6
Continuous
 62
     7
370
    15
100
AcDbLine
 10
3.8218025542
 20
4.1930754376
 30
0.0
 11
3.7602471083
 21
4.1930754376
 31
0.0
  0
CIRCLE
  5
6A
330
1F
100
AcDbEntity
  8
0
  6
Continuous
 62
     7
370
    15
100
AcDbCircle
 10
3.8980423839
 20
3.0710281935
 30
0.0
 40
0.0885826771653542
  0
LINE
  5
6B
330
1F
100
AcDbEntity
  8
0
  6
Continuous
 62
     7
370
    15
100
AcDbLine
 10
3.9742822135
 20
2.9332329179
 30
0.0
 11
3.8218025542
 21
2.9332329179
 31
0.0
  0
LINE
  5
6C
330
1F
100
AcDbEntity
  8
0
  6
Continuous
 62
     7
370
    15
100
AcDbLine
 10
3.7602471083
 20
2.9947883639
 30
0.0
 11
3.7602471083
 21
3.1472680232
 31
0.0
  0
CIRCLE
  5
6D
330
1F
100
AcDbEntity
  8
0
  6
Continuous
 62
     7
370
    15
100
AcDbCircle
 10
6.1815069508
 20
3.0710281935
 30
0.0
 40
0.0885826771653542
  0
LINE
  5
6E
330
1F
100
AcDbEntity
  8
0
  6
Continuous
 62
     7
370
    15
100
AcDbLine
 10
6.2577467805
 20
2.9332329179
 30
0.0
 11
6.1052671212
 21
2.9332329179
 31
0.0
  0
LINE
  5
6F
330
1F
100
AcDbEntity
  8
0
  6
Continuous
 62
     7
370
    15
100
AcDbLine
 10
6.3193022264
 20
3.1472680232
 30
0.0
 11
6.3193022264
 21
2.9947883639
 31
0.0
  0
CIRCLE
  5
70
330
1F
100
AcDbEntity
  8
0
  6
Continuous
 62
     7
370
    15
100
AcDbCircle
 10
6.1815069508
 20
4.055280162
 30
0.0
 40
0.0885826771653537
  0
LINE
  5
71
330
1F
100
AcDbEntity
  8
0
  6
Continuous
 62
     7
370
    15
100
AcDbLine
 10
6.1052671212
 20
4.1930754376
 30
0.0
 11
6.2577467805
 21
4.1930754376
 31
0.0
  0
LINE
  5
72
330
1F
100
AcDbEntity
  8
0
  6
Continuous
 62
     7
370
    15
100
AcDbLine
 10
6.3193022264
 20
4.1315199917
 30
0.0
 11
6.3193022264
 21
3.9790403324
 31
0.0
  0
CIRCLE
  5
73
330
1F
100
AcDbEntity
  8
0
  6
Continuous
 62
     7
370
    15
100
AcDbCircle
 10
3.8980423839
 20
4.055280162
 30
0.0
 40
0.0885826771653537
  0
LINE
  5
74
330
1F
100
AcDbEntity
  8
0
  6
Continuous
 62
     7
370
    15
100
AcDbLine
 10
3.7602471083
 20
3.9790403324
 30
0.0
 11
3.7602471083
 21
4.1315199917
 31
0.0
  0
LINE
  5
75
330
1F
100
AcDbEntity
  8
0
  6
Continuous
 62
     7
370
    15
100
AcDbLine
 10
3.8218025542
 20
4.1930754376
 30
0.0
 11
3.9742822135
 21
4.1930754376
 31
0.0
  0
DIMENSION
  5
76
330
1F
100
AcDbEntity
  8
0
  6
Continuous
 62
     7
370
     0
100
AcDbDimension
  2
*D2
 10
3.7602471083
 20
6.6841166157
 30
0.0
 11
5.0309019005
 21
6.6841166157
 31
0.0
 70
   160
  1
(<>)
 71
     2
 42
-1.0
  3
SLDDIMSTYLE0
100
AcDbAlignedDimension
 13
6.3193022264
 23
4.1930754376
 33
0.0
 14
3.7602471083
 24
4.1930754376
 34
0.0
100
AcDbRotatedDimension
  0
DIMENSION
  5
8B
330
1F
100
AcDbEntity
  8
0
  6
Continuous
 62
     7
370
     0
100
AcDbDimension
  2
*D3
 10
6.1815069508
 20
6.1196583751
 30
0.0
 11
5.0309019005
 21
6.1196583751
 31
0.0
 70
   160
  1
(<>)
 71
     2
 42
-1.0
  3
SLDDIMSTYLE0
100
AcDbAlignedDimension
 13
3.8980423839
 23
4.2438628392
 33
0.0
 14
6.1815069508
 24
4.2438628392
 34
0.0
100
AcDbRotatedDimension
  0
DIMENSION
  5
9F
330
1F
100
AcDbEntity
  8
0
  6
Continuous
 62
     7
370
     0
100
AcDbDimension
  2
*D4
 10
5.5319006516
 20
5.6472174302
 30
0.0
 11
5.0309019005
 21
5.6472174302
 31
0.0
 70
   160
  1
(<>)
 71
     2
 42
-1.0
  3
SLDDIMSTYLE1
100
AcDbAlignedDimension
 13
4.5476486831
 23
3.7241777998
 33
0.0
 14
5.5319006516
 24
3.7241777998
 34
0.0
100
AcDbRotatedDimension
  0
DIMENSION
  5
B4
330
1F
100
AcDbEntity
  8
0
  6
Continuous
 62
     7
370
     0
100
AcDbDimension
  2
*D5
 10
5.3586723051
 20
5.1747764853
 30
0.0
 11
5.0309019005
 21
5.1747764853
 31
0.0
 70
   160
  1
(<>)
 71
     2
 42
-1.0
  3
SLDDIMSTYLE1
100
AcDbAlignedDimension
 13
4.7208770295
 23
4.2300833116
 33
0.0
 14
5.3586723051
 24
4.2300833116
 34
0.0
100
AcDbRotatedDimension
  0
DIMENSION
  5
C8
330
1F
100
AcDbEntity
  8
0
  6
Continuous
 62
     7
370
     0
100
AcDbDimension
  2
*D6
 10
2.8577943646
 20
3.0710281935
 30
0.0
 11
2.8577943646
 21
3.5502635904
 31
0.0
 70
   160
  1
(<>)
 71
     2
 42
-1.0
  3
SLDDIMSTYLE0
100
AcDbAlignedDimension
 13
3.7094597067
 23
4.055280162
 33
0.0
 14
3.7094597067
 24
3.0710281935
 34
0.0
 50
90.0
100
AcDbRotatedDimension
  0
DIMENSION
  5
DC
330
1F
100
AcDbEntity
  8
0
  6
Continuous
 62
     7
370
     0
100
AcDbDimension
  2
*D7
 10
7.0493328114
 20
4.055280162
 30
0.0
 11
7.0493328114
 21
3.8071367892
 31
0.0
 70
   160
  1
(<>)
 71
     2
 42
-1.0
  3
SLDDIMSTYLE1
100
AcDbAlignedDimension
 13
6.655632024
 23
3.5631541778
 33
0.0
 14
6.370089628
 24
4.055280162
 34
0.0
 50
90.0
100
AcDbRotatedDimension
  0
DIMENSION
  5
F0
330
1F
100
AcDbEntity
  8
0
  6
Continuous
 62
     7
370
     0
100
AcDbDimension
  2
*D8
 10
4.7208770295
 20
2.0677382717
 30
0.0
 11
5.7061114516
 21
2.0677382717
 31
0.0
 70
   160
  1
(<>)
 71
     2
 42
-1.0
  3
SLDDIMSTYLE0
100
AcDbAlignedDimension
 13
5.0397746673
 23
2.5363174497
 33
0.0
 14
4.7208770295
 24
2.8962250439
 34
0.0
100
AcDbRotatedDimension
  0
DIMENSION
  5
104
330
1F
100
AcDbEntity
  8
0
  6
Continuous
 62
     7
370
     0
100
AcDbDimension
  2
*D9
 10
4.5476486831
 20
1.433955245
 30
0.0
 11
5.7061114516
 21
1.433955245
 31
0.0
 70
   160
  1
(<>)
 71
     2
 42
-1.0
  3
SLDDIMSTYLE0
100
AcDbAlignedDimension
 13
5.0397746673
 23
2.5363174497
 33
0.0
 14
4.5476486831
 24
3.4021305557
 34
0.0
100
AcDbRotatedDimension
  0
DIMENSION
  5
117
330
1F
100
AcDbEntity
  8
0
  6
Continuous
 62
     7
370
     0
100
AcDbDimension
  2
*D10
 10
3.8980423839
 20
0.7252938277
 30
0.0
 11
5.7061114516
 21
0.7252938277
 31
0.0
 70
   160
  1
(<>)
 71
     2
 42
-1.0
  3
SLDDIMSTYLE0
100
AcDbAlignedDimension
 13
5.0397746673
 23
2.5363174497
 33
0.0
 14
3.8980423839
 24
2.8824455163
 34
0.0
100
AcDbRotatedDimension
  0
DIMENSION
  5
12B
330
1F
100
AcDbEntity
  8
0
  6
Continuous
 62
     7
370
     0
100
AcDbDimension
  2
*D11
 10
4.562568293
 20
5.2424469375
 30
0.0
 11
7.4522597257
 21
2.4662635338
 31
0.0
 70
   163
  1
<>X %%c .12[3.100] {\fGDT;x} .20[5]\P
 71
     1
 42
-1.0
  3
SLDDIMSTYLE2
100
AcDbDiametricDimension
 15
5.5624075583
 25
3.5103033396
 35
0.0
 40
0.0
  0
INSERT
  5
162
330
1F
100
AcDbEntity
  8
0
  6
Continuous
 62
     7
370
     0
100
AcDbBlockReference
  2
SW_CENTERMARKSYMBOL_0
 10
6.1815069508
 20
4.055280162
 30
0.0
  0
INSERT
  5
182
330
1F
100
AcDbEntity
  8
0
  6
Continuous
 62
     7
370
     0
100
AcDbBlockReference
  2
SW_CENTERMARKSYMBOL_1
 10
5.3586723051
 20
3.0631541778
 30
0.0
  0
INSERT
  5
195
330
1F
100
AcDbEntity
  8
0
  6
Continuous
 62
     7
370
     0
100
AcDbBlockReference
  2
SW_CENTERMARKSYMBOL_2
 10
5.5319006516
 20
3.5631541778
 30
0.0
  0
LINE
  5
196
330
1F
100
AcDbEntity
  8
0
  6
CENTERX2
 62
     7
100
AcDbLine
 10
9.1231489858
 20
2.5814531301
 30
0.0
 11
9.1231489858
 21
4.5899909058
 31
0.0
  0
LINE
  5
197
330
1F
100
AcDbEntity
  8
0
  6
CENTERX2
 62
     7
100
AcDbLine
 10
7.6472122383
 20
3.5631541778
 30
0.0
 11
10.7390063425
 21
3.5631541778
 31
0.0
  0
CIRCLE
  5
198
330
1F
100
AcDbEntity
  8
0
  6
Continuous
 62
     7
370
    15
100
AcDbCircle
 10
10.2648812693
 20
4.055280162
 30
0.0
 40
0.0885826771653546
  0
CIRCLE
  5
199
330
1F
100
AcDbEntity
  8
0
  6
Continuous
 62
     7
370
    15
100
AcDbCircle
 10
8.804251348
 20
3.0631541778
 30
0.0
 40
0.1279527559055116
  0
CIRCLE
  5
19A
330
1F
100
AcDbEntity
  8
0
  6
Continuous
 62
     7
370
    15
100
AcDbCircle
 10
9.4420466236
 20
4.0631541778
 30
0.0
 40
0.1279527559055116
  0
CIRCLE
  5
19B
330
1F
100
AcDbEntity
  8
0
  6
Continuous
 62
     7
370
    15
100
AcDbCircle
 10
8.804251348
 20
4.0631541778
 30
0.0
 40
0.1279527559055116
  0
CIRCLE
  5
19C
330
1F
100
AcDbEntity
  8
0
  6
Continuous
 62
     7
370
    15
100
AcDbCircle
 10
7.9814167024
 20
4.055280162
 30
0.0
 40
0.0885826771653546
  0
CIRCLE
  5
19D
330
1F
100
AcDbEntity
  8
0
  6
Continuous
 62
     7
370
    15
100
AcDbCircle
 10
9.4420466236
 20
3.0631541778
 30
0.0
 40
0.1279527559055116
  0
LINE
  5
19E
330
1F
100
AcDbEntity
  8
0
  6
Continuous
 62
     7
370
    15
100
AcDbLine
 10
10.4026765449
 20
2.9332329179
 30
0.0
 11
7.8436214268
 21
2.9332329179
 31
0.0
  0
LINE
  5
19F
330
1F
100
AcDbEntity
  8
0
  6
Continuous
 62
     7
370
    15
100
AcDbLine
 10
10.4026765449
 20
4.1930754376
 30
0.0
 11
10.4026765449
 21
2.9332329179
 31
0.0
  0
CIRCLE
  5
1A0
330
1F
100
AcDbEntity
  8
0
  6
Continuous
 62
     7
370
    15
100
AcDbCircle
 10
7.9814167024
 20
3.0710281935
 30
0.0
 40
0.0885826771653542
  0
LINE
  5
1A1
330
1F
100
AcDbEntity
  8
0
  6
Continuous
 62
     7
370
    15
100
AcDbLine
 10
7.8436214268
 20
4.1930754376
 30
0.0
 11
10.4026765449
 21
4.1930754376
 31
0.0
  0
LINE
  5
1A2
330
1F
100
AcDbEntity
  8
0
  6
Continuous
 62
     7
370
    15
100
AcDbLine
 10
7.8436214268
 20
2.9332329179
 30
0.0
 11
7.8436214268
 21
4.1930754376
 31
0.0
  0
CIRCLE
  5
1A3
330
1F
100
AcDbEntity
  8
0
  6
Continuous
 62
     7
370
    15
100
AcDbCircle
 10
10.2648812693
 20
3.0710281935
 30
0.0
 40
0.0885826771653542
  0
CIRCLE
  5
1A4
330
1F
100
AcDbEntity
  8
0
  6
Continuous
 62
     7
370
    15
100
AcDbCircle
 10
9.4420466236
 20
4.0631541778
 30
0.0
 40
0.0669291338582676
  0
CIRCLE
  5
1A5
330
1F
100
AcDbEntity
  8
0
  6
Continuous
 62
     7
370
    15
100
AcDbCircle
 10
8.804251348
 20
4.0631541778
 30
0.0
 40
0.0669291338582676
  0
CIRCLE
  5
1A6
330
1F
100
AcDbEntity
  8
0
  6
Continuous
 62
     7
370
    15
100
AcDbCircle
 10
9.4420466236
 20
3.0631541778
 30
0.0
 40
0.0669291338582676
  0
CIRCLE
  5
1A7
330
1F
100
AcDbEntity
  8
0
  6
Continuous
 62
     7
370
    15
100
AcDbCircle
 10
8.804251348
 20
3.0631541778
 30
0.0
 40
0.0669291338582676
  0
DIMENSION
  5
1A8
330
1F
100
AcDbEntity
  8
0
  6
Continuous
 62
     7
370
     0
100
AcDbDimension
  2
*D16
 10
7.9819775581
 20
0.1438628794
 30
0.0
 11
9.2950481679
 21
6.4847513459
 31
0.0
 70
   163
  1
<>X %%c .18[4.500] THRU ALL\P{\fGDT;v}%%c .31[8] {\fGDT;x} .16[4]\P
 71
     1
 42
-1.0
  3
SLDDIMSTYLE2
100
AcDbDiametricDimension
 15
7.9814040006
 25
4.1438628383
 35
0.0
 40
0.0
  0
DIMENSION
  5
1C4
330
1F
100
AcDbEntity
  8
0
  6
Continuous
 62
     7
370
     0
100
AcDbDimension
  2
*D18
 10
9.4414773993
 20
6.93520138
 30
0.0
 11
8.1064323995
 21
1.4851957097
 31
0.0
 70
   163
  1
<>X %%c .13[3.400] THRU ALL\P{\fGDT;v}%%c .26[6.500] {\fGDT;x} .16[4]\P
 71
     1
 42
-1.0
  3
SLDDIMSTYLE2
100
AcDbDiametricDimension
 15
9.4420654338
 25
2.9352014232
 35
0.0
 40
0.0
  0
INSERT
  5
1F9
330
1F
100
AcDbEntity
  8
0
  6
Continuous
 62
     7
370
     0
100
AcDbBlockReference
  2
SW_CENTERMARKSYMBOL_3
 10
10.2648812693
 20
3.0710281935
 30
0.0
  0
INSERT
  5
219
330
1F
100
AcDbEntity
  8
0
  6
Continuous
 62
     7
370
     0
100
AcDbBlockReference
  2
SW_CENTERMARKSYMBOL_4
 10
9.4420466236
 20
4.0631541778
 30
0.0
  0
LINE
  5
21A
330
1F
100
AcDbEntity
  8
0
  6
Continuous
 62
     7
370
    15
100
AcDbLine
 10
1.4253290027
 20
3.1472680232
 30
0.0
 11
1.5828093177
 21
3.1472680232
 31
0.0
  0
LINE
  5
21B
330
1F
100
AcDbEntity
  8
0
  6
Continuous
 62
     7
370
    15
100
AcDbLine
 10
1.4253290027
 20
3.1472680232
 30
0.0
 11
1.4253290027
 21
3.9790403324
 31
0.0
  0
LINE
  5
21C
330
1F
100
AcDbEntity
  8
0
  6
Continuous
 62
     7
370
    15
100
AcDbLine
 10
1.5828093177
 20
3.9790403324
 30
0.0
 11
1.4253290027
 21
3.9790403324
 31
0.0
  0
LINE
  5
21D
330
1F
100
AcDbEntity
  8
0
  6
Continuous
 62
     7
370
    15
100
AcDbLine
 10
1.5828093177
 20
4.1315199917
 30
0.0
 11
1.5828093177
 21
3.9790403324
 31
0.0
  0
LINE
  5
21E
330
1F
100
AcDbEntity
  8
0
  6
Continuous
 62
     7
370
    15
100
AcDbLine
 10
1.4253290027
 20
4.1315199917
 30
0.0
 11
1.5828093177
 21
4.1315199917
 31
0.0
  0
LINE
  5
21F
330
1F
100
AcDbEntity
  8
0
  6
Continuous
 62
     7
370
    15
100
AcDbLine
 10
1.4253290027
 20
4.1315199917
 30
0.0
 11
1.4253290027
 21
4.1930754376
 31
0.0
  0
LINE
  5
220
330
1F
100
AcDbEntity
  8
0
  6
Continuous
 62
     7
370
    15
100
AcDbLine
 10
1.4253290027
 20
2.9332329179
 30
0.0
 11
1.4253290027
 21
2.9947883639
 31
0.0
  0
LINE
  5
221
330
1F
100
AcDbEntity
  8
0
  6
Continuous
 62
     7
370
    15
100
AcDbLine
 10
1.5828093177
 20
2.9947883639
 30
0.0
 11
1.4253290027
 21
2.9947883639
 31
0.0
  0
LINE
  5
222
330
1F
100
AcDbEntity
  8
0
  6
Continuous
 62
     7
370
    15
100
AcDbLine
 10
1.5828093177
 20
3.1472680232
 30
0.0
 11
1.5828093177
 21
2.9947883639
 31
0.0
  0
LINE
  5
223
330
1F
100
AcDbEntity
  8
0
  6
Continuous
 62
     7
370
    15
100
AcDbLine
 10
1.4253290027
 20
2.9332329179
 30
0.0
 11
1.6753290027
 21
2.9332329179
 31
0.0
  0
LINE
  5
224
330
1F
100
AcDbEntity
  8
0
  6
Continuous
 62
     7
370
    15
100
AcDbLine
 10
1.6753290027
 20
2.9332329179
 30
0.0
 11
1.6753290027
 21
4.1930754376
 31
0.0
  0
LINE
  5
225
330
1F
100
AcDbEntity
  8
0
  6
Continuous
 62
     7
370
    15
100
AcDbLine
 10
1.4253290027
 20
4.1930754376
 30
0.0
 11
1.6753290027
 21
4.1930754376
 31
0.0
  0
LINE
  5
226
330
1F
100
AcDbEntity
  8
0
  6
Continuous
 62
     7
370
    15
100
AcDbLine
 10
1.4253290027
 20
3.1472680232
 30
0.0
 11
1.4253290027
 21
2.9947883639
 31
0.0
  0
LINE
  5
227
330
1F
100
AcDbEntity
  8
0
  6
Continuous
 62
     7
370
    15
100
AcDbLine
 10
1.4253290027
 20
4.1315199917
 30
0.0
 11
1.4253290027
 21
3.9790403324
 31
0.0
  0
DIMENSION
  5
228
330
1F
100
AcDbEntity
  8
0
  6
Continuous
 62
     7
370
     0
100
AcDbDimension
  2
*D21
 10
0.7954077429
 20
4.1930754376
 30
0.0
 11
0.7954077429
 21
3.6239825773
 31
0.0
 70
   160
  1
(<>)
 71
     2
 42
-1.0
  3
SLDDIMSTYLE0
100
AcDbAlignedDimension
 13
1.4253290027
 23
2.9332329179
 33
0.0
 14
1.4253290027
 24
4.1930754376
 34
0.0
 50
90.0
100
AcDbRotatedDimension
  0
DIMENSION
  5
23C
330
1F
100
AcDbEntity
  8
0
  6
Continuous
 62
     7
370
     0
100
AcDbDimension
  2
*D22
 10
1.6753290027
 20
4.6321834553
 30
0.0
 11
0.6633015263
 21
4.6321834553
 31
0.0
 70
   160
  1
(<>)
 71
     2
 42
-1.0
  3
SLDDIMSTYLE1
100
AcDbAlignedDimension
 13
1.4253290027
 23
4.1930754376
 33
0.0
 14
1.6753290027
 24
4.1930754376
 34
0.0
100
AcDbRotatedDimension
  0
ENDSEC
  0
SECTION
  2
OBJECTS
  0
DICTIONARY
  5
C
330
0
100
AcDbDictionary
281
     1
  3
ACAD_GROUP
350
D
  3
ACAD_LAYOUT
350
1A
  3
ACAD_MLEADERSTYLE
350
251
  3
ACAD_MLINESTYLE
350
17
  3
ACAD_PLOTSETTINGS
350
19
  3
ACAD_PLOTSTYLENAME
350
E
  3
ACAD_TABLESTYLE
350
250
  3
ACAD_VISUALSTYLE
350
2A
  0
DICTIONARY
  5
D
102
{ACAD_REACTORS
330
C
102
}
330
C
100
AcDbDictionary
281
     1
  0
DICTIONARY
  5
1A
102
{ACAD_REACTORS
330
C
102
}
330
C
100
AcDbDictionary
281
     1
  3
Layout1
350
1E
  3
Layout2
350
26
  3
Model
350
22
  0
DICTIONARY
  5
251
102
{ACAD_REACTORS
330
C
102
}
330
C
100
AcDbDictionary
281
     1
  0
DICTIONARY
  5
17
102
{ACAD_REACTORS
330
C
102
}
330
C
100
AcDbDictionary
281
     1
  3
Standard
350
18
  0
DICTIONARY
  5
19
102
{ACAD_REACTORS
330
C
102
}
330
C
100
AcDbDictionary
281
     1
  0
ACDBDICTIONARYWDFLT
  5
E
102
{ACAD_REACTORS
330
C
102
}
330
C
100
AcDbDictionary
281
     1
  3
Normal
350
F
100
AcDbDictionaryWithDefault
340
F
  0
DICTIONARY
  5
250
102
{ACAD_REACTORS
330
C
102
}
330
C
100
AcDbDictionary
281
     1
  0
DICTIONARY
  5
2A
102
{ACAD_REACTORS
330
C
102
}
330
C
100
AcDbDictionary
281
     1
  3
2dWireframe
350
2F
  3
3D Hidden
350
31
  3
3dWireframe
350
30
  3
Basic
350
32
  3
Brighten
350
36
  3
ColorChange
350
3A
  3
Conceptual
350
34
  3
Dim
350
35
  3
Facepattern
350
39
  3
Flat
350
2B
  3
FlatWithEdges
350
2C
  3
Gouraud
350
2D
  3
GouraudWithEdges
350
2E
  3
Linepattern
350
38
  3
Realistic
350
33
  3
Thicken
350
37
  0
LAYOUT
  5
1E
102
{ACAD_REACTORS
330
1A
102
}
330
1A
100
AcDbPlotSettings
  1

  2
none_device
  4

  6

 40
0.0
 41
0.0
 42
0.0
 43
0.0
 44
0.0
 45
0.0
 46
0.0
 47
0.0
 48
0.0
 49
0.0
140
0.0
141
0.0
142
1.0
143
1.0
 70
   688
 72
     0
 73
     0
 74
     5
  7

 75
    16
147
1.0
148
0.0
149
0.0
100
AcDbLayout
  1
Layout1
 70
     1
 71
     1
 10
0.0
 20
0.0
 11
12.0
 21
9.0
 12
0.0
 22
0.0
 32
0.0
 14
1.0000000000E+20
 24
1.0000000000E+20
 34
1.0000000000E+20
 15
-1.0000000000E+20
 25
-1.0000000000E+20
 35
-1.0000000000E+20
146
0.0
 13
0.0
 23
0.0
 33
0.0
 16
1.0
 26
0.0
 36
0.0
 17
0.0
 27
1.0
 37
0.0
 76
     0
330
1B
  0
LAYOUT
  5
26
102
{ACAD_REACTORS
330
1A
102
}
330
1A
100
AcDbPlotSettings
  1

  2
none_device
  4

  6

 40
0.0
 41
0.0
 42
0.0
 43
0.0
 44
0.0
 45
0.0
 46
0.0
 47
0.0
 48
0.0
 49
0.0
140
0.0
141
0.0
142
1.0
143
1.0
 70
   688
 72
     0
 73
     0
 74
     5
  7

 75
    16
147
1.0
148
0.0
149
0.0
100
AcDbLayout
  1
Layout2
 70
     1
 71
     2
 10
0.0
 20
0.0
 11
0.0
 21
0.0
 12
0.0
 22
0.0
 32
0.0
 14
0.0
 24
0.0
 34
0.0
 15
0.0
 25
0.0
 35
0.0
146
0.0
 13
0.0
 23
0.0
 33
0.0
 16
1.0
 26
0.0
 36
0.0
 17
0.0
 27
1.0
 37
0.0
 76
     0
330
23
  0
LAYOUT
  5
22
102
{ACAD_REACTORS
330
1A
102
}
330
1A
100
AcDbPlotSettings
  1

  2
none_device
  4

  6

 40
0.0
 41
0.0
 42
0.0
 43
0.0
 44
0.0
 45
0.0
 46
0.0
 47
0.0
 48
0.0
 49
0.0
140
0.0
141
0.0
142
1.0
143
1.0
 70
  1712
 72
     0
 73
     0
 74
     0
  7

 75
     0
147
1.0
148
0.0
149
0.0
100
AcDbLayout
  1
Model
 70
     1
 71
     0
 10
0.0
 20
0.0
 11
11.0
 21
8.5
 12
0.0
 22
0.0
 32
0.0
 14
0.0
 24
0.0
 34
0.0
 15
11.0
 25
8.5
 35
0.0
146
0.0
 13
0.0
 23
0.0
 33
0.0
 16
1.0
 26
0.0
 36
0.0
 17
0.0
 27
1.0
 37
0.0
 76
     0
330
1F
331
29
  0
MLINESTYLE
  5
18
102
{ACAD_REACTORS
330
17
102
}
330
17
100
AcDbMlineStyle
  2
Standard
 70
     0
  3

 62
   256
 51
90.0
 52
90.0
 71
     2
 49
0.5
 62
   256
  6
BYLAYER
 49
-0.5
 62
   256
  6
BYLAYER
  0
ACDBPLACEHOLDER
  5
F
102
{ACAD_REACTORS
330
E
102
}
330
E
  0
VISUALSTYLE
  5
2F
102
{ACAD_REACTORS
330
2A
102
}
330
2A
100
AcDbVisualStyle
  2
2dWireframe
 70
     4
 71
     0
 72
     2
 73
     0
 90
        0
 40
-0.6
 41
-30.0
 62
     5
 63
     7
 74
     1
 91
        4
 64
     7
 65
   257
 75
     1
175
     1
 42
1.0
 92
        0
 66
   257
 43
1.0
 76
     1
 77
     6
 78
     2
 67
     7
 79
     5
170
     0
171
     0
290
     0
174
     0
 93
        1
 44
0.0
173
     0
291
     0
 45
0.0
1001
ACAD
1000
AcDbSavedByObjectVersion
1070
     0
  0
VISUALSTYLE
  5
31
102
{ACAD_REACTORS
330
2A
102
}
330
2A
100
AcDbVisualStyle
  2
3D Hidden
 70
     6
 71
     1
 72
     2
 73
     2
 90
        0
 40
-0.6
 41
-30.0
 62
     5
 63
     7
 74
     2
 91
        2
 64
     7
 65
   257
 75
     2
175
     1
 42
40.0
 92
        0
 66
   257
 43
1.0
 76
     1
 77
     6
 78
     2
 67
     7
 79
     3
170
     0
171
     0
290
     0
174
     0
 93
        1
 44
0.0
173
     0
291
     0
 45
0.0
1001
ACAD
1000
AcDbSavedByObjectVersion
1070
     0
  0
VISUALSTYLE
  5
30
102
{ACAD_REACTORS
330
2A
102
}
330
2A
100
AcDbVisualStyle
  2
3dWireframe
 70
     5
 71
     0
 72
     2
 73
     0
 90
        0
 40
-0.6
 41
-30.0
 62
     5
 63
     7
 74
     1
 91
        4
 64
     7
 65
   257
 75
     1
175
     1
 42
1.0
 92
        0
 66
   257
 43
1.0
 76
     1
 77
     6
 78
     2
 67
     7
 79
     5
170
     0
171
     0
290
     0
174
     0
 93
        1
 44
0.0
173
     0
291
     0
 45
0.0
1001
ACAD
1000
AcDbSavedByObjectVersion
1070
     0
  0
VISUALSTYLE
  5
32
102
{ACAD_REACTORS
330
2A
102
}
330
2A
100
AcDbVisualStyle
  2
Basic
 70
     7
 71
     1
 72
     0
 73
     1
 90
        0
 40
-0.6
 41
-30.0
 62
     5
 63
     7
 74
     0
 91
        4
 64
     7
 65
   257
 75
     1
175
     1
 42
1.0
 92
        8
 66
     7
 43
1.0
 76
     1
 77
     6
 78
     2
 67
     7
 79
     5
170
     0
171
     0
290
     0
174
     0
 93
        1
 44
0.0
173
     0
291
     1
 45
0.0
1001
ACAD
1000
AcDbSavedByObjectVersion
1070
     0
  0
VISUALSTYLE
  5
36
102
{ACAD_REACTORS
330
2A
102
}
330
2A
100
AcDbVisualStyle
  2
Brighten
 70
    12
 71
     2
 72
     2
 73
     0
 90
        0
 40
-0.6
 41
-30.0
 62
     5
 63
     7
 74
     1
 91
        4
 64
     7
 65
   257
 75
     1
175
     1
 42
1.0
 92
        8
 66
     7
 43
1.0
 76
     1
 77
     6
 78
     2
 67
     7
 79
     5
170
     0
171
     0
290
     0
174
     0
 93
        1
 44
50.0
173
     0
291
     1
 45
0.0
1001
ACAD
1000
AcDbSavedByObjectVersion
1070
     0
  0
VISUALSTYLE
  5
3A
102
{ACAD_REACTORS
330
2A
102
}
330
2A
100
AcDbVisualStyle
  2
ColorChange
 70
    16
 71
     2
 72
     2
 73
     3
 90
        0
 40
-0.6
 41
-30.0
 62
     5
 63
     8
 74
     1
 91
        4
 64
     7
 65
   257
 75
     1
175
     1
 42
1.0
 92
        8
 66
     8
 43
1.0
 76
     1
 77
     6
 78
     2
 67
     7
 79
     5
170
     0
171
     0
290
     0
174
     0
 93
        1
 44
0.0
173
     0
291
     1
 45
0.0
1001
ACAD
1000
AcDbSavedByObjectVersion
1070
     0
  0
VISUALSTYLE
  5
34
102
{ACAD_REACTORS
330
2A
102
}
330
2A
100
AcDbVisualStyle
  2
Conceptual
 70
     9
 71
     3
 72
     2
 73
     0
 90
        0
 40
-0.6
 41
-30.0
 62
     5
 63
     7
 74
     2
 91
        2
 64
     7
 65
   257
 75
     1
175
     1
 42
40.0
 92
        8
 66
     7
 43
1.0
 76
     1
 77
     6
 78
     2
 67
     7
 79
     3
170
     0
171
     0
290
     0
174
     0
 93
        1
 44
0.0
173
     0
291
     0
 45
0.0
1001
ACAD
1000
AcDbSavedByObjectVersion
1070
     0
  0
VISUALSTYLE
  5
35
102
{ACAD_REACTORS
330
2A
102
}
330
2A
100
AcDbVisualStyle
  2
Dim
 70
    11
 71
     2
 72
     2
 73
     0
 90
        0
 40
-0.6
 41
-30.0
 62
     5
 63
     7
 74
     1
 91
        4
 64
     7
 65
   257
 75
     1
175
     1
 42
1.0
 92
        8
 66
     7
 43
1.0
 76
     1
 77
     6
 78
     2
 67
     7
 79
     5
170
     0
171
     0
290
     0
174
     0
 93
        1
 44
-50.0
173
     0
291
     1
 45
0.0
1001
ACAD
1000
AcDbSavedByObjectVersion
1070
     0
  0
VISUALSTYLE
  5
39
102
{ACAD_REACTORS
330
2A
102
}
330
2A
100
AcDbVisualStyle
  2
Facepattern
 70
    15
 71
     2
 72
     2
 73
     0
 90
        0
 40
-0.6
 41
-30.0
 62
     5
 63
     7
 74
     1
 91
        4
 64
     7
 65
   257
 75
     1
175
     1
 42
1.0
 92
        8
 66
     7
 43
1.0
 76
     1
 77
     6
 78
     2
 67
     7
 79
     5
170
     0
171
     0
290
     0
174
     0
 93
        1
 44
0.0
173
     0
291
     1
 45
0.0
1001
ACAD
1000
AcDbSavedByObjectVersion
1070
     0
  0
VISUALSTYLE
  5
2B
102
{ACAD_REACTORS
330
2A
102
}
330
2A
100
AcDbVisualStyle
  2
Flat
 70
     0
 71
     2
 72
     1
 73
     1
 90
        2
 40
-0.6
 41
30.0
 62
     5
 63
     7
 74
     0
 91
        4
 64
     7
 65
   257
 75
     1
175
     1
 42
1.0
 92
        8
 66
     7
 43
1.0
 76
     1
 77
     6
 78
     2
 67
     7
 79
     5
170
     0
171
     0
290
     0
174
     0
 93
       13
 44
0.0
173
     0
291
     1
 45
0.0
1001
ACAD
1000
AcDbSavedByObjectVersion
1070
     0
  0
VISUALSTYLE
  5
2C
102
{ACAD_REACTORS
330
2A
102
}
330
2A
100
AcDbVisualStyle
  2
FlatWithEdges
 70
     1
 71
     2
 72
     1
 73
     1
 90
        2
 40
-0.6
 41
30.0
 62
     5
 63
     7
 74
     1
 91
        4
 64
     7
 65
   257
 75
     1
175
     1
 42
1.0
 92
        0
 66
   257
 43
1.0
 76
     1
 77
     6
 78
     2
 67
     7
 79
     5
170
     0
171
     0
290
     0
174
     0
 93
       13
 44
0.0
173
     0
291
     1
 45
0.0
1001
ACAD
1000
AcDbSavedByObjectVersion
1070
     0
  0
VISUALSTYLE
  5
2D
102
{ACAD_REACTORS
330
2A
102
}
330
2A
100
AcDbVisualStyle
  2
Gouraud
 70
     2
 71
     2
 72
     2
 73
     1
 90
        2
 40
-0.6
 41
30.0
 62
     5
 63
     7
 74
     0
 91
        4
 64
     7
 65
   257
 75
     1
175
     1
 42
1.0
 92
        0
 66
     7
 43
1.0
 76
     1
 77
     6
 78
     2
 67
     7
 79
     5
170
     0
171
     0
290
     0
174
     0
 93
       13
 44
0.0
173
     0
291
     1
 45
0.0
1001
ACAD
1000
AcDbSavedByObjectVersion
1070
     0
  0
VISUALSTYLE
  5
2E
102
{ACAD_REACTORS
330
2A
102
}
330
2A
100
AcDbVisualStyle
  2
GouraudWithEdges
 70
     3
 71
     2
 72
     2
 73
     1
 90
        2
 40
-0.6
 41
30.0
 62
     5
 63
     7
 74
     1
 91
        4
 64
     7
 65
   257
 75
     1
175
     1
 42
1.0
 92
        0
 66
   257
 43
1.0
 76
     1
 77
     6
 78
     2
 67
     7
 79
     5
170
     0
171
     0
290
     0
174
     0
 93
       13
 44
0.0
173
     0
291
     1
 45
0.0
1001
ACAD
1000
AcDbSavedByObjectVersion
1070
     0
  0
VISUALSTYLE
  5
38
102
{ACAD_REACTORS
330
2A
102
}
330
2A
100
AcDbVisualStyle
  2
Linepattern
 70
    14
 71
     2
 72
     2
 73
     0
 90
        0
 40
-0.6
 41
-30.0
 62
     5
 63
     7
 74
     1
 91
        4
 64
     7
 65
   257
 75
     7
175
     7
 42
1.0
 92
        8
 66
     7
 43
1.0
 76
     1
 77
     6
 78
     2
 67
     7
 79
     5
170
     0
171
     0
290
     0
174
     0
 93
        1
 44
0.0
173
     0
291
     1
 45
0.0
1001
ACAD
1000
AcDbSavedByObjectVersion
1070
     0
  0
VISUALSTYLE
  5
33
102
{ACAD_REACTORS
330
2A
102
}
330
2A
100
AcDbVisualStyle
  2
Realistic
 70
     8
 71
     2
 72
     2
 73
     0
 90
        0
 40
-0.6
 41
-30.0
 62
     5
 63
     7
 74
     1
 91
        0
 64
     7
 65
   257
 75
     1
175
     1
 42
1.0
 92
        8
 66
     8
 43
1.0
 76
     1
 77
     6
 78
     2
 67
     7
 79
     5
170
     0
171
     0
290
     0
174
     0
 93
       13
 44
0.0
173
     0
291
     0
 45
0.0
1001
ACAD
1000
AcDbSavedByObjectVersion
1070
     0
  0
VISUALSTYLE
  5
37
102
{ACAD_REACTORS
330
2A
102
}
330
2A
100
AcDbVisualStyle
  2
Thicken
 70
    13
 71
     2
 72
     2
 73
     0
 90
        0
 40
-0.6
 41
-30.0
 62
     5
 63
     7
 74
     1
 91
        4
 64
     7
 65
   257
 75
     1
175
     1
 42
1.0
 92
       12
 66
     7
 43
1.0
 76
     1
 77
     6
 78
     2
 67
     7
 79
     5
170
     0
171
     0
290
     0
174
     0
 93
        1
 44
0.0
173
     0
291
     1
 45
0.0
1001
ACAD
1000
AcDbSavedByObjectVersion
1070
     0
  0
ENDSEC
  0
EOF
