<?xml version="1.0" encoding="UTF-8" standalone="no"?>
<!-- Created with Inkscape (http://www.inkscape.org/) -->

<svg
   xmlns:dc="http://purl.org/dc/elements/1.1/"
   xmlns:cc="http://creativecommons.org/ns#"
   xmlns:rdf="http://www.w3.org/1999/02/22-rdf-syntax-ns#"
   xmlns:svg="http://www.w3.org/2000/svg"
   xmlns="http://www.w3.org/2000/svg"
   xmlns:sodipodi="http://sodipodi.sourceforge.net/DTD/sodipodi-0.dtd"
   xmlns:inkscape="http://www.inkscape.org/namespaces/inkscape"
   width="744.09448819"
   height="1052.3622047"
   id="svg2"
   version="1.1"
   inkscape:version="0.48.3.1 r9886"
   sodipodi:docname="photo_interrupter_lick_sensor.svg">
  <defs
     id="defs4" />
  <sodipodi:namedview
     id="base"
     pagecolor="#ffffff"
     bordercolor="#666666"
     borderopacity="1.0"
     inkscape:pageopacity="0.0"
     inkscape:pageshadow="2"
     inkscape:zoom="5.6"
     inkscape:cx="497.12555"
     inkscape:cy="645.44307"
     inkscape:document-units="px"
     inkscape:current-layer="layer1"
     showgrid="false"
     showguides="true"
     inkscape:guide-bbox="true"
     inkscape:window-width="2495"
     inkscape:window-height="1416"
     inkscape:window-x="65"
     inkscape:window-y="24"
     inkscape:window-maximized="1" />
  <metadata
     id="metadata7">
    <rdf:RDF>
      <cc:Work
         rdf:about="">
        <dc:format>image/svg+xml</dc:format>
        <dc:type
           rdf:resource="http://purl.org/dc/dcmitype/StillImage" />
        <dc:title></dc:title>
      </cc:Work>
    </rdf:RDF>
  </metadata>
  <g
     inkscape:label="Layer 1"
     inkscape:groupmode="layer"
     id="layer1">
    <g
       id="g3243"
       transform="matrix(0,-1,1,0,-607.74599,180.20218)">
      <rect
         y="686.35449"
         x="47.5"
         height="53.150513"
         width="71.930962"
         id="rect2985"
         style="fill:none;stroke:#ff0000;stroke-width:0.00708661;stroke-miterlimit:4;stroke-opacity:1;stroke-dasharray:none;stroke-dashoffset:0" />
      <path
         transform="matrix(0.20439931,0,0,0.26794586,94.499645,467.71656)"
         d="m -79.999998,981.29077 c 0,7.29805 -7.755068,13.21429 -17.321428,13.21429 -9.566364,0 -17.321424,-5.91624 -17.321424,-13.21429 0,-7.29805 7.75506,-13.21428 17.321424,-13.21428 9.56636,0 17.321428,5.91623 17.321428,13.21428 z"
         sodipodi:ry="13.214286"
         sodipodi:rx="17.321428"
         sodipodi:cy="981.29077"
         sodipodi:cx="-97.321426"
         id="path2989"
         style="fill:none;stroke:#ff0000;stroke-width:0.03028135;stroke-miterlimit:4;stroke-opacity:1;stroke-dasharray:none;stroke-dashoffset:0"
         sodipodi:type="arc" />
      <path
         sodipodi:type="arc"
         style="fill:none;stroke:#ff0000;stroke-width:0.03028135;stroke-miterlimit:4;stroke-opacity:1;stroke-dasharray:none;stroke-dashoffset:0"
         id="path2991"
         sodipodi:cx="-97.321426"
         sodipodi:cy="981.29077"
         sodipodi:rx="17.321428"
         sodipodi:ry="13.214286"
         d="m -79.999998,981.29077 c 0,7.29805 -7.755068,13.21429 -17.321428,13.21429 -9.566364,0 -17.321424,-5.91624 -17.321424,-13.21429 0,-7.29805 7.75506,-13.21428 17.321424,-13.21428 9.56636,0 17.321428,5.91623 17.321428,13.21428 z"
         transform="matrix(0.20439931,0,0,0.26794586,103.35791,467.71656)" />
      <path
         transform="matrix(0.20439931,0,0,0.26794586,112.21618,467.71656)"
         d="m -79.999998,981.29077 c 0,7.29805 -7.755068,13.21429 -17.321428,13.21429 -9.566364,0 -17.321424,-5.91624 -17.321424,-13.21429 0,-7.29805 7.75506,-13.21428 17.321424,-13.21428 9.56636,0 17.321428,5.91623 17.321428,13.21428 z"
         sodipodi:ry="13.214286"
         sodipodi:rx="17.321428"
         sodipodi:cy="981.29077"
         sodipodi:cx="-97.321426"
         id="path2993"
         style="fill:none;stroke:#ff0000;stroke-width:0.03028135;stroke-miterlimit:4;stroke-opacity:1;stroke-dasharray:none;stroke-dashoffset:0"
         sodipodi:type="arc" />
      <path
         sodipodi:type="arc"
         style="fill:none;stroke:#ff0000;stroke-width:0.03028135;stroke-miterlimit:4;stroke-opacity:1;stroke-dasharray:none;stroke-dashoffset:0"
         id="path3003"
         sodipodi:cx="-97.321426"
         sodipodi:cy="981.29077"
         sodipodi:rx="17.321428"
         sodipodi:ry="13.214286"
         d="m -79.999998,981.29077 c 0,7.29805 -7.755068,13.21429 -17.321428,13.21429 -9.566364,0 -17.321424,-5.91624 -17.321424,-13.21429 0,-7.29805 7.75506,-13.21428 17.321424,-13.21428 9.56636,0 17.321428,5.91623 17.321428,13.21428 z"
         transform="matrix(0.20439931,0,0,0.26794586,90.070511,451.06302)" />
      <path
         transform="matrix(0.20439931,0,0,0.26794586,116.64531,451.06302)"
         d="m -79.999998,981.29077 c 0,7.29805 -7.755068,13.21429 -17.321428,13.21429 -9.566364,0 -17.321424,-5.91624 -17.321424,-13.21429 0,-7.29805 7.75506,-13.21428 17.321424,-13.21428 9.56636,0 17.321428,5.91623 17.321428,13.21428 z"
         sodipodi:ry="13.214286"
         sodipodi:rx="17.321428"
         sodipodi:cy="981.29077"
         sodipodi:cx="-97.321426"
         id="path3005"
         style="fill:none;stroke:#ff0000;stroke-width:0.03028135;stroke-miterlimit:4;stroke-opacity:1;stroke-dasharray:none;stroke-dashoffset:0"
         sodipodi:type="arc" />
      <g
         transform="translate(54.234082,-346.96147)"
         id="g3035">
        <path
           transform="matrix(0.15337048,0,0,0.20103966,17.58283,852.42722)"
           d="m -79.999998,981.29077 c 0,7.29805 -7.755068,13.21429 -17.321428,13.21429 -9.566364,0 -17.321424,-5.91624 -17.321424,-13.21429 0,-7.29805 7.75506,-13.21428 17.321424,-13.21428 9.56636,0 17.321428,5.91623 17.321428,13.21428 z"
           sodipodi:ry="13.214286"
           sodipodi:rx="17.321428"
           sodipodi:cy="981.29077"
           sodipodi:cx="-97.321426"
           id="path3013"
           style="fill:none;stroke:#ff0000;stroke-width:0.04035773;stroke-miterlimit:4;stroke-opacity:1;stroke-dasharray:none;stroke-dashoffset:0"
           sodipodi:type="arc" />
        <path
           sodipodi:type="arc"
           style="fill:none;stroke:#ff0000;stroke-width:0.04035773;stroke-miterlimit:4;stroke-opacity:1;stroke-dasharray:none;stroke-dashoffset:0"
           id="path3015"
           sodipodi:cx="-97.321426"
           sodipodi:cy="981.29077"
           sodipodi:rx="17.321428"
           sodipodi:ry="13.214286"
           d="m -79.999998,981.29077 c 0,7.29805 -7.755068,13.21429 -17.321428,13.21429 -9.566364,0 -17.321424,-5.91624 -17.321424,-13.21429 0,-7.29805 7.75506,-13.21428 17.321424,-13.21428 9.56636,0 17.321428,5.91623 17.321428,13.21428 z"
           transform="matrix(0.15337048,0,0,0.20103966,17.58283,844.45478)" />
        <path
           sodipodi:type="arc"
           style="fill:none;stroke:#ff0000;stroke-width:0.04035773;stroke-miterlimit:4;stroke-opacity:1;stroke-dasharray:none;stroke-dashoffset:0"
           id="path3025"
           sodipodi:cx="-97.321426"
           sodipodi:cy="981.29077"
           sodipodi:rx="17.321428"
           sodipodi:ry="13.214286"
           d="m -79.999998,981.29077 c 0,7.29805 -7.755068,13.21429 -17.321428,13.21429 -9.566364,0 -17.321424,-5.91624 -17.321424,-13.21429 0,-7.29805 7.75506,-13.21428 17.321424,-13.21428 9.56636,0 17.321428,5.91623 17.321428,13.21428 z"
           transform="matrix(0.15337048,0,0,0.20103966,70.732436,852.42722)" />
        <path
           transform="matrix(0.15337048,0,0,0.20103966,70.732436,844.45478)"
           d="m -79.999998,981.29077 c 0,7.29805 -7.755068,13.21429 -17.321428,13.21429 -9.566364,0 -17.321424,-5.91624 -17.321424,-13.21429 0,-7.29805 7.75506,-13.21428 17.321424,-13.21428 9.56636,0 17.321428,5.91623 17.321428,13.21428 z"
           sodipodi:ry="13.214286"
           sodipodi:rx="17.321428"
           sodipodi:cy="981.29077"
           sodipodi:cx="-97.321426"
           id="path3027"
           style="fill:none;stroke:#ff0000;stroke-width:0.04035773;stroke-miterlimit:4;stroke-opacity:1;stroke-dasharray:none;stroke-dashoffset:0"
           sodipodi:type="arc" />
        <path
           transform="matrix(0.15337048,0,0,0.20103966,65.417475,847.99809)"
           d="m -79.999998,981.29077 c 0,7.29805 -7.755068,13.21429 -17.321428,13.21429 -9.566364,0 -17.321424,-5.91624 -17.321424,-13.21429 0,-7.29805 7.75506,-13.21428 17.321424,-13.21428 9.56636,0 17.321428,5.91623 17.321428,13.21428 z"
           sodipodi:ry="13.214286"
           sodipodi:rx="17.321428"
           sodipodi:cy="981.29077"
           sodipodi:cx="-97.321426"
           id="path3033"
           style="fill:none;stroke:#ff0000;stroke-width:0.04035773;stroke-miterlimit:4;stroke-opacity:1;stroke-dasharray:none;stroke-dashoffset:0"
           sodipodi:type="arc" />
      </g>
      <text
         sodipodi:linespacing="125%"
         id="text3042"
         y="699.604"
         x="66.440361"
         style="font-size:8px;font-style:normal;font-weight:normal;line-height:125%;letter-spacing:0px;word-spacing:0px;fill:#000000;fill-opacity:1;stroke:none;font-family:Sans"
         xml:space="preserve"><tspan
           y="699.604"
           x="66.440361"
           id="tspan3044"
           sodipodi:role="line">Bottom</tspan></text>
    </g>
    <g
       id="g3239"
       transform="translate(259.6092,-595.48493)">
      <rect
         style="fill:none;stroke:#ff0000;stroke-width:0.00708661;stroke-miterlimit:4;stroke-opacity:1;stroke-dasharray:none;stroke-dashoffset:0"
         id="rect3076"
         width="71.930962"
         height="5.3085818"
         x="145.38155"
         y="733.86108" />
      <path
         inkscape:connector-curvature="0"
         id="rect3078"
         d="m 148.57143,679.75 0,54.125 65.5625,0 0,-54.125 -15.0625,0 0,43.25 -35.4375,0 0,-43.25 -15.0625,0 z"
         style="fill:none;stroke:#ff0000;stroke-width:0.00708662;stroke-miterlimit:4;stroke-opacity:1;stroke-dashoffset:0" />
    </g>
    <g
       id="g3235"
       transform="translate(-54.114951,-614.31633)">
      <rect
         transform="matrix(0,1,-1,0,0,0)"
         style="fill:none;stroke:#ff0000;stroke-width:0.00708661;stroke-miterlimit:4;stroke-opacity:1;stroke-dasharray:none;stroke-dashoffset:0"
         id="rect3082"
         width="5.3083973"
         height="53.149605"
         x="730.26813"
         y="-319.93533" />
      <rect
         style="fill:none;stroke:#ff0000;stroke-width:0.00708662;stroke-miterlimit:4;stroke-opacity:1;stroke-dasharray:none;stroke-dashoffset:0"
         id="rect3084"
         width="17.711363"
         height="54.100571"
         x="268.55737"
         y="676.16754" />
    </g>
    <g
       id="g3215"
       transform="matrix(-1,0,0,1,179.99126,-954.7511)">
      <path
         id="path3112"
         d="m 139.25,984.9375 c -2.45095,0 -4.58586,1.26344 -5.8125,3.1875 l -83.84375,0 0,7.4375 83.875,0 c 1.23051,1.90367 3.34585,3.1875 5.78125,3.1875 3.81603,0 6.90625,-3.09022 6.90625,-6.90625 0,-3.81604 -3.09022,-6.90625 -6.90625,-6.90625 z"
         style="fill:none;stroke:#ff0000;stroke-width:0.00708661;stroke-miterlimit:4;stroke-opacity:1;stroke-dashoffset:0"
         inkscape:connector-curvature="0" />
      <rect
         transform="scale(-1,1)"
         y="985.28052"
         x="-49.578506"
         height="13.115648"
         width="15.052698"
         id="rect3116"
         style="fill:none;stroke:#ff0000;stroke-width:0.00708661;stroke-miterlimit:4;stroke-opacity:1;stroke-dasharray:none;stroke-dashoffset:0" />
      <rect
         transform="scale(-1,1)"
         style="fill:none;stroke:#ff0000;stroke-width:0.00708661;stroke-miterlimit:4;stroke-opacity:1;stroke-dasharray:none;stroke-dashoffset:0"
         id="rect3118"
         width="5.1309571"
         height="20.377939"
         x="-34.525803"
         y="981.64941" />
      <rect
         transform="scale(-1,1)"
         y="981.31458"
         x="-29.394852"
         height="21.047567"
         width="13.635307"
         id="rect3120"
         style="fill:none;stroke:#ff0000;stroke-width:0.00708661;stroke-miterlimit:4;stroke-opacity:1;stroke-dasharray:none;stroke-dashoffset:0" />
      <rect
         transform="scale(-1,1)"
         style="fill:none;stroke:#ff0000;stroke-width:0.00708663;stroke-miterlimit:4;stroke-opacity:1;stroke-dasharray:none;stroke-dashoffset:0"
         id="rect3126"
         width="13.107754"
         height="20.13282"
         x="-15.759537"
         y="981.77197" />
      <rect
         transform="scale(-1,1)"
         style="fill:none;stroke:#ff0000;stroke-width:0.00708661;stroke-miterlimit:4;stroke-opacity:1;stroke-dasharray:none;stroke-dashoffset:0"
         id="rect3128"
         width="2.651772"
         height="21.047567"
         x="-2.6517794"
         y="981.31458" />
      <text
         sodipodi:linespacing="125%"
         id="text3207"
         y="994.75439"
         x="20.133839"
         style="font-size:8px;font-style:normal;font-weight:normal;line-height:125%;letter-spacing:0px;word-spacing:0px;fill:#000000;fill-opacity:1;stroke:none;font-family:Sans"
         xml:space="preserve"><tspan
           y="994.75439"
           x="20.133839"
           id="tspan3209"
           sodipodi:role="line">T</tspan></text>
    </g>
    <g
       id="g3281"
       transform="translate(98.489879,-833.37585)">
      <path
         id="path3173"
         d="m 99.04912,865.83477 c 2.44836,0 4.5852,1.2669 5.8125,3.1876 l 83.84375,0 0,7.4374 -83.84375,0 c -1.2273,1.9207 -3.36414,3.1875 -5.8125,3.1876 -3.81603,0 -6.90625,-3.0903 -6.90625,-6.9063 0,-3.816 3.09022,-6.9063 6.90625,-6.9063 z"
         style="fill:none;stroke:#ff0000;stroke-width:0.00708661;stroke-miterlimit:4;stroke-opacity:1;stroke-dashoffset:0"
         inkscape:connector-curvature="0" />
      <rect
         style="fill:none;stroke:#ff0000;stroke-width:0.00708661;stroke-miterlimit:4;stroke-opacity:1;stroke-dasharray:none;stroke-dashoffset:0"
         id="rect3177"
         width="15.052698"
         height="13.115648"
         x="188.72063"
         y="866.18567" />
      <rect
         y="862.55444"
         x="203.77332"
         height="20.377939"
         width="5.1309571"
         id="rect3179"
         style="fill:none;stroke:#ff0000;stroke-width:0.00708661;stroke-miterlimit:4;stroke-opacity:1;stroke-dasharray:none;stroke-dashoffset:0" />
      <rect
         style="fill:none;stroke:#ff0000;stroke-width:0.00708661;stroke-miterlimit:4;stroke-opacity:1;stroke-dasharray:none;stroke-dashoffset:0"
         id="rect3181"
         width="13.635307"
         height="24.095514"
         x="208.90427"
         y="860.69568" />
      <rect
         y="862.677"
         x="222.53958"
         height="20.13282"
         width="13.107754"
         id="rect3183"
         style="fill:none;stroke:#ff0000;stroke-width:0.00708663;stroke-miterlimit:4;stroke-opacity:1;stroke-dasharray:none;stroke-dashoffset:0" />
      <rect
         y="860.69568"
         x="235.64734"
         height="24.095514"
         width="2.651772"
         id="rect3185"
         style="fill:none;stroke:#ff0000;stroke-width:0.00708661;stroke-miterlimit:4;stroke-opacity:1;stroke-dasharray:none;stroke-dashoffset:0" />
      <text
         sodipodi:linespacing="125%"
         id="text3211"
         y="875.65552"
         x="213.14185"
         style="font-size:8px;font-style:normal;font-weight:normal;line-height:125%;letter-spacing:0px;word-spacing:0px;fill:#000000;fill-opacity:1;stroke:none;font-family:Sans"
         xml:space="preserve"><tspan
           y="875.65552"
           x="213.14185"
           id="tspan3213"
           sodipodi:role="line">S</tspan></text>
    </g>
    <rect
       style="fill:none;stroke:#ff0000;stroke-width:0.00708661;stroke-miterlimit:4;stroke-opacity:1;stroke-dasharray:none;stroke-dashoffset:0"
       id="rect3293"
       width="42.521103"
       height="80.680092"
       x="439.40656"
       y="230.74612" />
    <g
       id="g4069"
       transform="translate(102.71145,-558.82612)">
      <rect
         y="590.41046"
         x="325.71353"
         height="24.094646"
         width="20.907068"
         id="rect4063"
         style="fill:none;stroke:#ff0000;stroke-width:0.00708661;stroke-miterlimit:4;stroke-opacity:1;stroke-dasharray:none;stroke-dashoffset:0" />
      <path
         transform="matrix(1.1055717,0,0,1.3821606,4.6929647,-230.10349)"
         d="m 306.07144,602.36218 c 0,2.76143 -2.79822,5 -6.25,5 -3.45178,0 -6.25,-2.23857 -6.25,-5 0,-2.76142 2.79822,-5 6.25,-5 3.45178,0 6.25,2.23858 6.25,5 z"
         sodipodi:ry="5"
         sodipodi:rx="6.25"
         sodipodi:cy="602.36218"
         sodipodi:cx="299.82144"
         id="path4067"
         style="fill:none;stroke:#ff0000;stroke-width:0.00573279;stroke-miterlimit:4;stroke-opacity:1;stroke-dasharray:none;stroke-dashoffset:0"
         sodipodi:type="arc" />
    </g>
    <g
       transform="translate(124.50002,-359.66432)"
       id="g4073">
      <rect
         style="fill:none;stroke:#ff0000;stroke-width:0.00708661;stroke-miterlimit:4;stroke-opacity:1;stroke-dasharray:none;stroke-dashoffset:0"
         id="rect4075"
         width="20.907068"
         height="24.094646"
         x="325.71353"
         y="590.41046" />
      <path
         sodipodi:type="arc"
         style="fill:none;stroke:#ff0000;stroke-width:0.00573279;stroke-miterlimit:4;stroke-opacity:1;stroke-dasharray:none;stroke-dashoffset:0"
         id="path4077"
         sodipodi:cx="299.82144"
         sodipodi:cy="602.36218"
         sodipodi:rx="6.25"
         sodipodi:ry="5"
         d="m 306.07144,602.36218 c 0,2.76143 -2.79822,5 -6.25,5 -3.45178,0 -6.25,-2.23857 -6.25,-5 0,-2.76142 2.79822,-5 6.25,-5 3.45178,0 6.25,2.23858 6.25,5 z"
         transform="matrix(1.1055717,0,0,1.3821606,4.6929647,-230.10349)" />
    </g>
    <g
       id="g4091"
       transform="translate(49.460527,-133.71938)">
      <rect
         y="363.69257"
         x="325.65997"
         height="24.094646"
         width="20.907068"
         id="rect4085"
         style="fill:none;stroke:#ff0000;stroke-width:0.00708661;stroke-miterlimit:4;stroke-opacity:1;stroke-dasharray:none;stroke-dashoffset:0" />
      <path
         transform="matrix(0.59501378,0,0,0.74376717,157.71562,-72.277327)"
         d="m 306.07144,602.36218 c 0,2.76143 -2.79822,5 -6.25,5 -3.45178,0 -6.25,-2.23857 -6.25,-5 0,-2.76142 2.79822,-5 6.25,-5 3.45178,0 6.25,2.23858 6.25,5 z"
         sodipodi:ry="5"
         sodipodi:rx="6.25"
         sodipodi:cy="602.36218"
         sodipodi:cx="299.82144"
         id="path4087"
         style="fill:none;stroke:#ff0000;stroke-width:0.01065263;stroke-miterlimit:4;stroke-opacity:1;stroke-dasharray:none;stroke-dashoffset:0"
         sodipodi:type="arc" />
    </g>
    <rect
       style="fill:none;stroke:#ff0000;stroke-width:0.0070866;stroke-miterlimit:4;stroke-opacity:1;stroke-dasharray:none;stroke-dashoffset:0"
       id="rect4095"
       width="150.96854"
       height="71.930115"
       x="89.451927"
       y="230.89644" />
    <g
       transform="matrix(0,-1,1,0,-620.63903,350.32698)"
       id="g4097">
      <rect
         style="fill:none;stroke:#ff0000;stroke-width:0.00708661;stroke-miterlimit:4;stroke-opacity:1;stroke-dasharray:none;stroke-dashoffset:0"
         id="rect4099"
         width="71.930962"
         height="53.150513"
         x="47.5"
         y="686.35449" />
      <path
         sodipodi:type="arc"
         style="fill:none;stroke:#ff0000;stroke-width:0.03028135;stroke-miterlimit:4;stroke-opacity:1;stroke-dasharray:none;stroke-dashoffset:0"
         id="path4101"
         sodipodi:cx="-97.321426"
         sodipodi:cy="981.29077"
         sodipodi:rx="17.321428"
         sodipodi:ry="13.214286"
         d="m -79.999998,981.29077 c 0,7.29805 -7.755068,13.21429 -17.321428,13.21429 -9.566364,0 -17.321424,-5.91624 -17.321424,-13.21429 0,-7.29805 7.75506,-13.21428 17.321424,-13.21428 9.56636,0 17.321428,5.91623 17.321428,13.21428 z"
         transform="matrix(0.20439931,0,0,0.26794586,94.499645,467.71656)" />
      <path
         transform="matrix(0.20439931,0,0,0.26794586,103.35791,467.71656)"
         d="m -79.999998,981.29077 c 0,7.29805 -7.755068,13.21429 -17.321428,13.21429 -9.566364,0 -17.321424,-5.91624 -17.321424,-13.21429 0,-7.29805 7.75506,-13.21428 17.321424,-13.21428 9.56636,0 17.321428,5.91623 17.321428,13.21428 z"
         sodipodi:ry="13.214286"
         sodipodi:rx="17.321428"
         sodipodi:cy="981.29077"
         sodipodi:cx="-97.321426"
         id="path4103"
         style="fill:none;stroke:#ff0000;stroke-width:0.03028135;stroke-miterlimit:4;stroke-opacity:1;stroke-dasharray:none;stroke-dashoffset:0"
         sodipodi:type="arc" />
      <path
         sodipodi:type="arc"
         style="fill:none;stroke:#ff0000;stroke-width:0.03028135;stroke-miterlimit:4;stroke-opacity:1;stroke-dasharray:none;stroke-dashoffset:0"
         id="path4105"
         sodipodi:cx="-97.321426"
         sodipodi:cy="981.29077"
         sodipodi:rx="17.321428"
         sodipodi:ry="13.214286"
         d="m -79.999998,981.29077 c 0,7.29805 -7.755068,13.21429 -17.321428,13.21429 -9.566364,0 -17.321424,-5.91624 -17.321424,-13.21429 0,-7.29805 7.75506,-13.21428 17.321424,-13.21428 9.56636,0 17.321428,5.91623 17.321428,13.21428 z"
         transform="matrix(0.20439931,0,0,0.26794586,112.21618,467.71656)" />
      <path
         transform="matrix(0.20439931,0,0,0.26794586,90.070511,451.06302)"
         d="m -79.999998,981.29077 c 0,7.29805 -7.755068,13.21429 -17.321428,13.21429 -9.566364,0 -17.321424,-5.91624 -17.321424,-13.21429 0,-7.29805 7.75506,-13.21428 17.321424,-13.21428 9.56636,0 17.321428,5.91623 17.321428,13.21428 z"
         sodipodi:ry="13.214286"
         sodipodi:rx="17.321428"
         sodipodi:cy="981.29077"
         sodipodi:cx="-97.321426"
         id="path4107"
         style="fill:none;stroke:#ff0000;stroke-width:0.03028135;stroke-miterlimit:4;stroke-opacity:1;stroke-dasharray:none;stroke-dashoffset:0"
         sodipodi:type="arc" />
      <path
         sodipodi:type="arc"
         style="fill:none;stroke:#ff0000;stroke-width:0.03028135;stroke-miterlimit:4;stroke-opacity:1;stroke-dasharray:none;stroke-dashoffset:0"
         id="path4109"
         sodipodi:cx="-97.321426"
         sodipodi:cy="981.29077"
         sodipodi:rx="17.321428"
         sodipodi:ry="13.214286"
         d="m -79.999998,981.29077 c 0,7.29805 -7.755068,13.21429 -17.321428,13.21429 -9.566364,0 -17.321424,-5.91624 -17.321424,-13.21429 0,-7.29805 7.75506,-13.21428 17.321424,-13.21428 9.56636,0 17.321428,5.91623 17.321428,13.21428 z"
         transform="matrix(0.20439931,0,0,0.26794586,116.64531,451.06302)" />
      <g
         id="g4111"
         transform="translate(54.234082,-346.96147)">
        <path
           sodipodi:type="arc"
           style="fill:none;stroke:#ff0000;stroke-width:0.04035773;stroke-miterlimit:4;stroke-opacity:1;stroke-dasharray:none;stroke-dashoffset:0"
           id="path4113"
           sodipodi:cx="-97.321426"
           sodipodi:cy="981.29077"
           sodipodi:rx="17.321428"
           sodipodi:ry="13.214286"
           d="m -79.999998,981.29077 c 0,7.29805 -7.755068,13.21429 -17.321428,13.21429 -9.566364,0 -17.321424,-5.91624 -17.321424,-13.21429 0,-7.29805 7.75506,-13.21428 17.321424,-13.21428 9.56636,0 17.321428,5.91623 17.321428,13.21428 z"
           transform="matrix(0.15337048,0,0,0.20103966,17.58283,852.42722)" />
        <path
           transform="matrix(0.15337048,0,0,0.20103966,17.58283,844.45478)"
           d="m -79.999998,981.29077 c 0,7.29805 -7.755068,13.21429 -17.321428,13.21429 -9.566364,0 -17.321424,-5.91624 -17.321424,-13.21429 0,-7.29805 7.75506,-13.21428 17.321424,-13.21428 9.56636,0 17.321428,5.91623 17.321428,13.21428 z"
           sodipodi:ry="13.214286"
           sodipodi:rx="17.321428"
           sodipodi:cy="981.29077"
           sodipodi:cx="-97.321426"
           id="path4115"
           style="fill:none;stroke:#ff0000;stroke-width:0.04035773;stroke-miterlimit:4;stroke-opacity:1;stroke-dasharray:none;stroke-dashoffset:0"
           sodipodi:type="arc" />
        <path
           transform="matrix(0.15337048,0,0,0.20103966,70.732436,852.42722)"
           d="m -79.999998,981.29077 c 0,7.29805 -7.755068,13.21429 -17.321428,13.21429 -9.566364,0 -17.321424,-5.91624 -17.321424,-13.21429 0,-7.29805 7.75506,-13.21428 17.321424,-13.21428 9.56636,0 17.321428,5.91623 17.321428,13.21428 z"
           sodipodi:ry="13.214286"
           sodipodi:rx="17.321428"
           sodipodi:cy="981.29077"
           sodipodi:cx="-97.321426"
           id="path4117"
           style="fill:none;stroke:#ff0000;stroke-width:0.04035773;stroke-miterlimit:4;stroke-opacity:1;stroke-dasharray:none;stroke-dashoffset:0"
           sodipodi:type="arc" />
        <path
           sodipodi:type="arc"
           style="fill:none;stroke:#ff0000;stroke-width:0.04035773;stroke-miterlimit:4;stroke-opacity:1;stroke-dasharray:none;stroke-dashoffset:0"
           id="path4119"
           sodipodi:cx="-97.321426"
           sodipodi:cy="981.29077"
           sodipodi:rx="17.321428"
           sodipodi:ry="13.214286"
           d="m -79.999998,981.29077 c 0,7.29805 -7.755068,13.21429 -17.321428,13.21429 -9.566364,0 -17.321424,-5.91624 -17.321424,-13.21429 0,-7.29805 7.75506,-13.21428 17.321424,-13.21428 9.56636,0 17.321428,5.91623 17.321428,13.21428 z"
           transform="matrix(0.15337048,0,0,0.20103966,70.732436,844.45478)" />
        <path
           sodipodi:type="arc"
           style="fill:none;stroke:#ff0000;stroke-width:0.04035773;stroke-miterlimit:4;stroke-opacity:1;stroke-dasharray:none;stroke-dashoffset:0"
           id="path4121"
           sodipodi:cx="-97.321426"
           sodipodi:cy="981.29077"
           sodipodi:rx="17.321428"
           sodipodi:ry="13.214286"
           d="m -79.999998,981.29077 c 0,7.29805 -7.755068,13.21429 -17.321428,13.21429 -9.566364,0 -17.321424,-5.91624 -17.321424,-13.21429 0,-7.29805 7.75506,-13.21428 17.321424,-13.21428 9.56636,0 17.321428,5.91623 17.321428,13.21428 z"
           transform="matrix(0.15337048,0,0,0.20103966,65.417475,847.99809)" />
      </g>
      <text
         xml:space="preserve"
         style="font-size:8px;font-style:normal;font-weight:normal;line-height:125%;letter-spacing:0px;word-spacing:0px;fill:#000000;fill-opacity:1;stroke:none;font-family:Sans"
         x="66.440361"
         y="699.604"
         id="text4123"
         sodipodi:linespacing="125%"><tspan
           sodipodi:role="line"
           id="tspan4125"
           x="66.440361"
           y="699.604">Bottom</tspan></text>
    </g>
    <g
       transform="matrix(-1,0,0,1,230.70555,-724.97686)"
       id="g4127">
      <path
         inkscape:connector-curvature="0"
         style="fill:none;stroke:#ff0000;stroke-width:0.00708661;stroke-miterlimit:4;stroke-opacity:1;stroke-dashoffset:0"
         d="m 139.25,984.9375 c -2.45095,0 -4.58586,1.26344 -5.8125,3.1875 l -83.84375,0 0,7.4375 83.875,0 c 1.23051,1.90367 3.34585,3.1875 5.78125,3.1875 3.81603,0 6.90625,-3.09022 6.90625,-6.90625 0,-3.81604 -3.09022,-6.90625 -6.90625,-6.90625 z"
         id="path4129" />
      <rect
         style="fill:none;stroke:#ff0000;stroke-width:0.00708661;stroke-miterlimit:4;stroke-opacity:1;stroke-dasharray:none;stroke-dashoffset:0"
         id="rect4131"
         width="15.052698"
         height="13.115648"
         x="-49.578506"
         y="985.28052"
         transform="scale(-1,1)" />
      <rect
         y="981.64941"
         x="-34.525803"
         height="20.377939"
         width="5.1309571"
         id="rect4133"
         style="fill:none;stroke:#ff0000;stroke-width:0.00708661;stroke-miterlimit:4;stroke-opacity:1;stroke-dasharray:none;stroke-dashoffset:0"
         transform="scale(-1,1)" />
      <rect
         style="fill:none;stroke:#ff0000;stroke-width:0.00708661;stroke-miterlimit:4;stroke-opacity:1;stroke-dasharray:none;stroke-dashoffset:0"
         id="rect4135"
         width="13.635307"
         height="21.047567"
         x="-29.394852"
         y="981.31458"
         transform="scale(-1,1)" />
      <rect
         y="981.77197"
         x="-15.759537"
         height="20.13282"
         width="13.107754"
         id="rect4137"
         style="fill:none;stroke:#ff0000;stroke-width:0.00708663;stroke-miterlimit:4;stroke-opacity:1;stroke-dasharray:none;stroke-dashoffset:0"
         transform="scale(-1,1)" />
      <rect
         y="981.31458"
         x="-2.6517794"
         height="21.047567"
         width="2.651772"
         id="rect4139"
         style="fill:none;stroke:#ff0000;stroke-width:0.00708661;stroke-miterlimit:4;stroke-opacity:1;stroke-dasharray:none;stroke-dashoffset:0"
         transform="scale(-1,1)" />
      <text
         xml:space="preserve"
         style="font-size:8px;font-style:normal;font-weight:normal;line-height:125%;letter-spacing:0px;word-spacing:0px;fill:#000000;fill-opacity:1;stroke:none;font-family:Sans"
         x="20.133839"
         y="994.75439"
         id="text4141"
         sodipodi:linespacing="125%"><tspan
           sodipodi:role="line"
           id="tspan4143"
           x="20.133839"
           y="994.75439">T</tspan></text>
    </g>
    <rect
       y="246.31042"
       x="89.452019"
       height="41.102127"
       width="49.354626"
       id="rect4145"
       style="fill:none;stroke:#ff0000;stroke-width:0.0070866;stroke-miterlimit:4;stroke-opacity:1;stroke-dasharray:none;stroke-dashoffset:0" />
    <text
       xml:space="preserve"
       style="font-size:8px;font-style:normal;font-weight:normal;line-height:125%;letter-spacing:0px;word-spacing:0px;fill:#000000;fill-opacity:1;stroke:none;font-family:Sans"
       x="376.61166"
       y="279.8009"
       id="text4149"
       sodipodi:linespacing="125%"><tspan
         sodipodi:role="line"
         id="tspan4151"
         x="376.61166"
         y="279.8009">a</tspan></text>
    <text
       xml:space="preserve"
       style="font-size:8px;font-style:normal;font-weight:normal;line-height:125%;letter-spacing:0px;word-spacing:0px;fill:#000000;fill-opacity:1;stroke:none;font-family:Sans"
       x="466.60983"
       y="276.26535"
       id="text4153"
       sodipodi:linespacing="125%"><tspan
         sodipodi:role="line"
         id="tspan4155"
         x="466.60983"
         y="276.26535">b</tspan></text>
    <text
       xml:space="preserve"
       style="font-size:8px;font-style:normal;font-weight:normal;line-height:125%;letter-spacing:0px;word-spacing:0px;fill:#000000;fill-opacity:1;stroke:none;font-family:Sans"
       x="209.3044"
       y="250.12523"
       id="text4157"
       sodipodi:linespacing="125%"><tspan
         sodipodi:role="line"
         id="tspan4159"
         x="209.3044"
         y="250.12523">b</tspan></text>
    <text
       xml:space="preserve"
       style="font-size:8px;font-style:normal;font-weight:normal;line-height:125%;letter-spacing:0px;word-spacing:0px;fill:#000000;fill-opacity:1;stroke:none;font-family:Sans"
       x="129.19522"
       y="278.31979"
       id="text4161"
       sodipodi:linespacing="125%"><tspan
         sodipodi:role="line"
         id="tspan4163"
         x="129.19522"
         y="278.31979">a</tspan></text>
    <g
       transform="translate(279.32005,-449.00387)"
       id="g4171">
      <rect
         y="733.86108"
         x="145.38155"
         height="5.3085818"
         width="71.930962"
         id="rect4173"
         style="fill:none;stroke:#ff0000;stroke-width:0.00708661;stroke-miterlimit:4;stroke-opacity:1;stroke-dasharray:none;stroke-dashoffset:0" />
      <path
         style="fill:none;stroke:#ff0000;stroke-width:0.00708662;stroke-miterlimit:4;stroke-opacity:1;stroke-dashoffset:0"
         d="m 148.57143,679.75 0,54.125 65.5625,0 0,-54.125 -15.0625,0 0,43.25 -35.4375,0 0,-43.25 -15.0625,0 z"
         id="path4175"
         inkscape:connector-curvature="0" />
    </g>
    <rect
       y="229.97319"
       x="363.60541"
       height="82.098557"
       width="43.937244"
       id="rect4177"
       style="fill:none;stroke:#ff0000;stroke-width:0.0070866;stroke-miterlimit:4;stroke-opacity:1;stroke-dasharray:none;stroke-dashoffset:0" />
    <rect
       y="290.87527"
       x="450.74609"
       height="20.550947"
       width="19.842045"
       id="rect4195"
       style="fill:none;stroke:#ff0000;stroke-width:0.00708661;stroke-miterlimit:4;stroke-opacity:1;stroke-dasharray:none;stroke-dashoffset:0" />
    <g
       id="g4201"
       transform="translate(-16.428571,-82.465669)">
      <path
         transform="matrix(0.80432153,0,0,0.80432153,119.04712,88.291697)"
         d="m 68.57143,357.71933 c 0,3.64902 -2.958119,6.60714 -6.607143,6.60714 -3.649024,0 -6.607143,-2.95812 -6.607143,-6.60714 0,-3.64902 2.958119,-6.60714 6.607143,-6.60714 3.649024,0 6.607143,2.95812 6.607143,6.60714 z"
         sodipodi:ry="6.6071429"
         sodipodi:rx="6.6071429"
         sodipodi:cy="357.71933"
         sodipodi:cx="61.964287"
         id="path4197"
         style="fill:none;stroke:#ff0000;stroke-width:0.00881067;stroke-miterlimit:4;stroke-opacity:1;stroke-dasharray:none;stroke-dashoffset:0"
         sodipodi:type="arc" />
      <path
         sodipodi:type="arc"
         style="fill:none;stroke:#ff0000;stroke-width:0.00881067;stroke-miterlimit:4;stroke-opacity:1;stroke-dasharray:none;stroke-dashoffset:0"
         id="path4199"
         sodipodi:cx="61.964287"
         sodipodi:cy="357.71933"
         sodipodi:rx="6.6071429"
         sodipodi:ry="6.6071429"
         d="m 68.57143,357.71933 c 0,3.64902 -2.958119,6.60714 -6.607143,6.60714 -3.649024,0 -6.607143,-2.95812 -6.607143,-6.60714 0,-3.64902 2.958119,-6.60714 6.607143,-6.60714 3.649024,0 6.607143,2.95812 6.607143,6.60714 z"
         transform="matrix(0.80432153,0,0,0.80432153,119.04712,34.91992)" />
    </g>
    <g
       transform="translate(11.571429,-82.465669)"
       id="g4205">
      <path
         sodipodi:type="arc"
         style="fill:none;stroke:#ff0000;stroke-width:0.00881067;stroke-miterlimit:4;stroke-opacity:1;stroke-dasharray:none;stroke-dashoffset:0"
         id="path4207"
         sodipodi:cx="61.964287"
         sodipodi:cy="357.71933"
         sodipodi:rx="6.6071429"
         sodipodi:ry="6.6071429"
         d="m 68.57143,357.71933 c 0,3.64902 -2.958119,6.60714 -6.607143,6.60714 -3.649024,0 -6.607143,-2.95812 -6.607143,-6.60714 0,-3.64902 2.958119,-6.60714 6.607143,-6.60714 3.649024,0 6.607143,2.95812 6.607143,6.60714 z"
         transform="matrix(0.80432153,0,0,0.80432153,119.04712,88.291697)" />
      <path
         transform="matrix(0.80432153,0,0,0.80432153,119.04712,34.91992)"
         d="m 68.57143,357.71933 c 0,3.64902 -2.958119,6.60714 -6.607143,6.60714 -3.649024,0 -6.607143,-2.95812 -6.607143,-6.60714 0,-3.64902 2.958119,-6.60714 6.607143,-6.60714 3.649024,0 6.607143,2.95812 6.607143,6.60714 z"
         sodipodi:ry="6.6071429"
         sodipodi:rx="6.6071429"
         sodipodi:cy="357.71933"
         sodipodi:cx="61.964287"
         id="path4209"
         style="fill:none;stroke:#ff0000;stroke-width:0.00881067;stroke-miterlimit:4;stroke-opacity:1;stroke-dasharray:none;stroke-dashoffset:0"
         sodipodi:type="arc" />
    </g>
    <g
       id="g4211"
       transform="translate(61.571429,-82.465669)">
      <path
         transform="matrix(0.80432153,0,0,0.80432153,119.04712,88.291697)"
         d="m 68.57143,357.71933 c 0,3.64902 -2.958119,6.60714 -6.607143,6.60714 -3.649024,0 -6.607143,-2.95812 -6.607143,-6.60714 0,-3.64902 2.958119,-6.60714 6.607143,-6.60714 3.649024,0 6.607143,2.95812 6.607143,6.60714 z"
         sodipodi:ry="6.6071429"
         sodipodi:rx="6.6071429"
         sodipodi:cy="357.71933"
         sodipodi:cx="61.964287"
         id="path4213"
         style="fill:none;stroke:#ff0000;stroke-width:0.00881067;stroke-miterlimit:4;stroke-opacity:1;stroke-dasharray:none;stroke-dashoffset:0"
         sodipodi:type="arc" />
      <path
         sodipodi:type="arc"
         style="fill:none;stroke:#ff0000;stroke-width:0.00881067;stroke-miterlimit:4;stroke-opacity:1;stroke-dasharray:none;stroke-dashoffset:0"
         id="path4215"
         sodipodi:cx="61.964287"
         sodipodi:cy="357.71933"
         sodipodi:rx="6.6071429"
         sodipodi:ry="6.6071429"
         d="m 68.57143,357.71933 c 0,3.64902 -2.958119,6.60714 -6.607143,6.60714 -3.649024,0 -6.607143,-2.95812 -6.607143,-6.60714 0,-3.64902 2.958119,-6.60714 6.607143,-6.60714 3.649024,0 6.607143,2.95812 6.607143,6.60714 z"
         transform="matrix(0.80432153,0,0,0.80432153,119.04712,34.91992)" />
    </g>
    <rect
       style="fill:none;stroke:#ff0000;stroke-width:0.00708661;stroke-miterlimit:4;stroke-opacity:1;stroke-dasharray:none;stroke-dashoffset:0"
       id="rect4217"
       width="6.0222707"
       height="14.353299"
       x="382.5629"
       y="229.97319" />
    <path
       sodipodi:type="arc"
       style="fill:none;stroke:#ff0000;stroke-width:0.00631034;stroke-miterlimit:4;stroke-opacity:1;stroke-dasharray:none;stroke-dashoffset:0"
       id="path4221"
       sodipodi:cx="471.33087"
       sodipodi:cy="376.85425"
       sodipodi:rx="0.78918165"
       sodipodi:ry="0.78918165"
       d="m 472.12005,376.85425 a 0.78918165,0.78918165 0 1 1 -1.57836,0 0.78918165,0.78918165 0 1 1 1.57836,0 z"
       transform="matrix(1.1230148,0,0,1.1230148,-58.453091,-168.56776)" />
    <path
       transform="matrix(1.1230148,0,0,1.1230148,-78.92129,-168.55851)"
       d="m 472.12005,376.85425 a 0.78918165,0.78918165 0 1 1 -1.57836,0 0.78918165,0.78918165 0 1 1 1.57836,0 z"
       sodipodi:ry="0.78918165"
       sodipodi:rx="0.78918165"
       sodipodi:cy="376.85425"
       sodipodi:cx="471.33087"
       id="path4223"
       style="fill:none;stroke:#ff0000;stroke-width:0.00631034;stroke-miterlimit:4;stroke-opacity:1;stroke-dasharray:none;stroke-dashoffset:0"
       sodipodi:type="arc" />
    <g
       id="g4662"
       transform="translate(-54.169231,-0.63135509)">
      <rect
         style="fill:none;stroke:#ff0000;stroke-width:0.0070866;stroke-miterlimit:4;stroke-opacity:1;stroke-dasharray:none;stroke-dashoffset:0"
         id="rect4656"
         width="19.133303"
         height="9.2116556"
         x="252.14748"
         y="246.94214" />
      <rect
         y="278.83191"
         x="252.14706"
         height="9.2116556"
         width="19.133303"
         id="rect4660"
         style="fill:none;stroke:#ff0000;stroke-width:0.0070866;stroke-miterlimit:4;stroke-opacity:1;stroke-dasharray:none;stroke-dashoffset:0" />
    </g>
    <rect
       style="fill:none;stroke:#ff0000;stroke-width:0.0070866;stroke-miterlimit:4;stroke-opacity:1;stroke-dasharray:none;stroke-dashoffset:0"
       id="rect4670"
       width="20.506865"
       height="26.788937"
       x="450.41367"
       y="227.85197" />
    <text
       xml:space="preserve"
       style="font-size:8px;font-style:normal;font-weight:normal;line-height:125%;letter-spacing:0px;word-spacing:0px;fill:#000000;fill-opacity:1;stroke:none;font-family:Sans"
       x="232.5"
       y="205.57648"
       id="text4676"
       sodipodi:linespacing="125%"><tspan
         sodipodi:role="line"
         id="tspan4678"
         x="232.5"
         y="205.57648">measured 0.2mm kerf (0.4mm tool head) w/5.5 mm black acrylic (default settings)</tspan></text>
    <path
       style="fill:none;stroke:#ff0000;stroke-width:0.00708661;stroke-miterlimit:4;stroke-dashoffset:0;stroke-opacity:1"
       d="M 448.34375 379.3125 L 448.34375 460 L 459.6875 460 L 459.6875 439.4375 L 479.53125 439.4375 L 479.53125 460 L 490.84375 460 L 490.84375 379.3125 L 479.84375 379.3125 L 479.84375 402.34375 C 480.30332 402.37657 480.6875 402.75082 480.6875 403.21875 C 480.6875 403.70822 480.27072 404.09375 479.78125 404.09375 C 479.29178 404.09375 478.90625 403.70822 478.90625 403.21875 L 460.21875 403.21875 C 460.21875 403.70822 459.80197 404.125 459.3125 404.125 C 458.82303 404.125 458.4375 403.70822 458.4375 403.21875 C 458.4375 402.72928 458.82303 402.34375 459.3125 402.34375 C 459.32327 402.34375 459.33307 402.34337 459.34375 402.34375 L 459.34375 379.3125 L 448.34375 379.3125 z "
       id="rect4744" />
    <path
       style="fill:none;stroke:#ff0000;stroke-width:0.0070866;stroke-miterlimit:4;stroke-dashoffset:0;stroke-opacity:1"
       d="M 98.375 379.46875 L 98.375 394.875 L 147.75 394.875 L 147.75 435.96875 L 98.375 435.96875 L 98.375 451.40625 L 249.34375 451.40625 L 249.34375 379.46875 L 98.375 379.46875 z M 161.375 383.4375 C 164.30999 383.4375 166.6875 385.81501 166.6875 388.75 C 166.6875 391.68499 164.30999 394.0625 161.375 394.0625 C 158.44001 394.0625 156.0625 391.68499 156.0625 388.75 C 156.0625 385.81501 158.44001 383.4375 161.375 383.4375 z M 189.375 383.4375 C 192.30999 383.4375 194.6875 385.81501 194.6875 388.75 C 194.6875 391.68499 192.30999 394.0625 189.375 394.0625 C 186.44001 394.0625 184.0625 391.68499 184.0625 388.75 C 184.0625 385.81501 186.44001 383.4375 189.375 383.4375 z M 239.375 383.4375 C 242.30999 383.4375 244.6875 385.81501 244.6875 388.75 C 244.6875 391.68499 242.30999 394.0625 239.375 394.0625 C 236.44001 394.0625 234.0625 391.68499 234.0625 388.75 C 234.0625 385.81501 236.44001 383.4375 239.375 383.4375 z M 206.90625 394.875 L 226.03125 394.875 L 226.03125 404.09375 L 206.90625 404.09375 L 206.90625 394.875 z M 206.90625 426.78125 L 226.03125 426.78125 L 226.03125 435.96875 L 206.90625 435.96875 L 206.90625 426.78125 z M 161.375 436.8125 C 164.30999 436.8125 166.6875 439.19001 166.6875 442.125 C 166.6875 445.05999 164.30999 447.4375 161.375 447.4375 C 158.44001 447.4375 156.0625 445.05999 156.0625 442.125 C 156.0625 439.19001 158.44001 436.8125 161.375 436.8125 z M 189.375 436.8125 C 192.30999 436.8125 194.6875 439.19001 194.6875 442.125 C 194.6875 445.05999 192.30999 447.4375 189.375 447.4375 C 186.44001 447.4375 184.0625 445.05999 184.0625 442.125 C 184.0625 439.19001 186.44001 436.8125 189.375 436.8125 z M 239.375 436.8125 C 242.30999 436.8125 244.6875 439.19001 244.6875 442.125 C 244.6875 445.05999 242.30999 447.4375 239.375 447.4375 C 236.44001 447.4375 234.0625 445.05999 234.0625 442.125 C 234.0625 439.19001 236.44001 436.8125 239.375 436.8125 z "
       id="rect4758" />
    <path
       style="fill:none;stroke:#ff0000;stroke-width:0.0070866;stroke-miterlimit:4;stroke-dashoffset:0;stroke-opacity:1"
       d="M 372.53125 378.53125 L 372.53125 460.65625 L 416.46875 460.65625 L 416.46875 378.53125 L 397.5 378.53125 L 397.5 392.90625 L 391.5 392.90625 L 391.5 378.53125 L 372.53125 378.53125 z "
       id="rect4832" />
  </g>
</svg>
