  0
SECTION
  2
HEADER
  9
$ACADVER
  1
AC1015
  9
$ACADMAINTVER
 70
     6
  9
$DWGCODEPAGE
  3
ANSI_1252
  9
$INSBASE
 10
0.0
 20
0.0
 30
0.0
  9
$EXTMIN
 10
0.0
 20
0.0
 30
0.0
  9
$EXTMAX
 10
279.4
 20
215.9
 30
0.0
  9
$LIMMIN
 10
0.0
 20
0.0
  9
$LIMMAX
 10
279.4
 20
215.9
  9
$ORTHOMODE
 70
     0
  9
$REGENMODE
 70
     1
  9
$FILLMODE
 70
     1
  9
$QTEXTMODE
 70
     0
  9
$MIRRTEXT
 70
     1
  9
$LTSCALE
 40
1.0
  9
$ATTMODE
 70
     1
  9
$TEXTSIZE
 40
6.35
  9
$TRACEWID
 40
1.0
  9
$TEXTSTYLE
  7
Standard
  9
$CLAYER
  8
0
  9
$CELTYPE
  6
ByLayer
  9
$CECOLOR
 62
   256
  9
$CELTSCALE
 40
1.0
  9
$DISPSILH
 70
     0
  9
$DIMSCALE
 40
1.0
  9
$DIMASZ
 40
5.9944
  9
$DIMEXO
 40
0.9906
  9
$DIMDLI
 40
3.75
  9
$DIMRND
 40
0.0
  9
$DIMDLE
 40
0.0
  9
$DIMEXE
 40
0.9906
  9
$DIMTP
 40
0.0
  9
$DIMTM
 40
0.0
  9
$DIMTXT
 40
6.35
  9
$DIMCEN
 40
2.5
  9
$DIMTSZ
 40
0.0
  9
$DIMTOL
 70
     0
  9
$DIMLIM
 70
     0
  9
$DIMTIH
 70
     1
  9
$DIMTOH
 70
     1
  9
$DIMSE1
 70
     0
  9
$DIMSE2
 70
     0
  9
$DIMTAD
 70
     1
  9
$DIMZIN
 70
     0
  9
$DIMBLK
  1

  9
$DIMASO
 70
     1
  9
$DIMSHO
 70
     1
  9
$DIMPOST
  1

  9
$DIMAPOST
  1

  9
$DIMALT
 70
     0
  9
$DIMALTD
 70
     3
  9
$DIMALTF
 40
0.0393700787
  9
$DIMLFAC
 40
2.0
  9
$DIMTOFL
 70
     1
  9
$DIMTVP
 40
0.0
  9
$DIMTIX
 70
     0
  9
$DIMSOXD
 70
     0
  9
$DIMSAH
 70
     0
  9
$DIMBLK1
  1

  9
$DIMBLK2
  1

  9
$DIMSTYLE
  2
ISO-25
  9
$DIMCLRD
 70
     0
  9
$DIMCLRE
 70
     0
  9
$DIMCLRT
 70
     0
  9
$DIMTFAC
 40
1.0
  9
$DIMGAP
 40
1.524
  9
$DIMJUST
 70
     0
  9
$DIMSD1
 70
     0
  9
$DIMSD2
 70
     0
  9
$DIMTOLJ
 70
     0
  9
$DIMTZIN
 70
     0
  9
$DIMALTZ
 70
     0
  9
$DIMALTTZ
 70
     0
  9
$DIMUPT
 70
     0
  9
$DIMDEC
 70
     2
  9
$DIMTDEC
 70
     2
  9
$DIMALTU
 70
     2
  9
$DIMALTTD
 70
     3
  9
$DIMTXSTY
  7
Standard
  9
$DIMAUNIT
 70
     0
  9
$DIMADEC
 70
     0
  9
$DIMALTRND
 40
0.0
  9
$DIMAZIN
 70
     0
  9
$DIMDSEP
 70
    44
  9
$DIMATFIT
 70
     3
  9
$DIMFRAC
 70
     0
  9
$DIMLDRBLK
  1

  9
$DIMLUNIT
 70
     2
  9
$DIMLWD
 70
    -2
  9
$DIMLWE
 70
    -2
  9
$DIMTMOVE
 70
     0
  9
$LUNITS
 70
     2
  9
$LUPREC
 70
     2
  9
$SKETCHINC
 40
1.0
  9
$FILLETRAD
 40
10.0
  9
$AUNITS
 70
     0
  9
$AUPREC
 70
     0
  9
$MENU
  1
.
  9
$ELEVATION
 40
0.0
  9
$PELEVATION
 40
0.0
  9
$THICKNESS
 40
0.0
  9
$LIMCHECK
 70
     0
  9
$CHAMFERA
 40
10.0
  9
$CHAMFERB
 40
10.0
  9
$CHAMFERC
 40
20.0
  9
$CHAMFERD
 40
0.0
  9
$SKPOLY
 70
     0
  9
$TDCREATE
 40
2455218.551926169
  9
$TDUCREATE
 40
2455218.760259502
  9
$TDUPDATE
 40
2455218.551926181
  9
$TDUUPDATE
 40
2455218.760259514
  9
$TDINDWG
 40
0.0000000116
  9
$TDUSRTIMER
 40
0.0000000116
  9
$USRTIMER
 70
     1
  9
$ANGBASE
 50
0.0
  9
$ANGDIR
 70
     0
  9
$PDMODE
 70
     0
  9
$PDSIZE
 40
-1.0
  9
$PLINEWID
 40
0.0
  9
$SPLFRAME
 70
     0
  9
$SPLINETYPE
 70
     6
  9
$SPLINESEGS
 70
     8
  9
$HANDSEED
  5
20D
  9
$SURFTAB1
 70
     6
  9
$SURFTAB2
 70
     6
  9
$SURFTYPE
 70
     6
  9
$SURFU
 70
     6
  9
$SURFV
 70
     6
  9
$UCSBASE
  2

  9
$UCSNAME
  2

  9
$UCSORG
 10
0.0
 20
0.0
 30
0.0
  9
$UCSXDIR
 10
1.0
 20
0.0
 30
0.0
  9
$UCSYDIR
 10
0.0
 20
1.0
 30
0.0
  9
$UCSORTHOREF
  2

  9
$UCSORTHOVIEW
 70
     0
  9
$UCSORGTOP
 10
0.0
 20
0.0
 30
0.0
  9
$UCSORGBOTTOM
 10
0.0
 20
0.0
 30
0.0
  9
$UCSORGLEFT
 10
0.0
 20
0.0
 30
0.0
  9
$UCSORGRIGHT
 10
0.0
 20
0.0
 30
0.0
  9
$UCSORGFRONT
 10
0.0
 20
0.0
 30
0.0
  9
$UCSORGBACK
 10
0.0
 20
0.0
 30
0.0
  9
$PUCSBASE
  2

  9
$PUCSNAME
  2

  9
$PUCSORG
 10
0.0
 20
0.0
 30
0.0
  9
$PUCSXDIR
 10
1.0
 20
0.0
 30
0.0
  9
$PUCSYDIR
 10
0.0
 20
1.0
 30
0.0
  9
$PUCSORTHOREF
  2

  9
$PUCSORTHOVIEW
 70
     0
  9
$PUCSORGTOP
 10
0.0
 20
0.0
 30
0.0
  9
$PUCSORGBOTTOM
 10
0.0
 20
0.0
 30
0.0
  9
$PUCSORGLEFT
 10
0.0
 20
0.0
 30
0.0
  9
$PUCSORGRIGHT
 10
0.0
 20
0.0
 30
0.0
  9
$PUCSORGFRONT
 10
0.0
 20
0.0
 30
0.0
  9
$PUCSORGBACK
 10
0.0
 20
0.0
 30
0.0
  9
$USERI1
 70
     0
  9
$USERI2
 70
     0
  9
$USERI3
 70
     0
  9
$USERI4
 70
     0
  9
$USERI5
 70
     0
  9
$USERR1
 40
0.0
  9
$USERR2
 40
0.0
  9
$USERR3
 40
0.0
  9
$USERR4
 40
0.0
  9
$USERR5
 40
0.0
  9
$WORLDVIEW
 70
     1
  9
$SHADEDGE
 70
     3
  9
$SHADEDIF
 70
    70
  9
$TILEMODE
 70
     1
  9
$MAXACTVP
 70
    64
  9
$PINSBASE
 10
0.0
 20
0.0
 30
0.0
  9
$PLIMCHECK
 70
     0
  9
$PEXTMIN
 10
1.0000000000E+20
 20
1.0000000000E+20
 30
1.0000000000E+20
  9
$PEXTMAX
 10
-1.0000000000E+20
 20
-1.0000000000E+20
 30
-1.0000000000E+20
  9
$PLIMMIN
 10
0.0
 20
0.0
  9
$PLIMMAX
 10
420.0
 20
297.0
  9
$UNITMODE
 70
     0
  9
$VISRETAIN
 70
     1
  9
$PLINEGEN
 70
     0
  9
$PSLTSCALE
 70
     1
  9
$TREEDEPTH
 70
  3020
  9
$CMLSTYLE
  2
Standard
  9
$CMLJUST
 70
     0
  9
$CMLSCALE
 40
20.0
  9
$PROXYGRAPHICS
 70
     1
  9
$MEASUREMENT
 70
     1
  9
$CELWEIGHT
370
    -1
  9
$ENDCAPS
280
     0
  9
$JOINSTYLE
280
     0
  9
$LWDISPLAY
290
     1
  9
$INSUNITS
 70
     4
  9
$HYPERLINKBASE
  1

  9
$STYLESHEET
  1

  9
$XEDIT
290
     1
  9
$CEPSNTYPE
380
     0
  9
$PSTYLEMODE
290
     1
  9
$FINGERPRINTGUID
  2
{0CF6B86E-3EC8-4443-B825-CEED2E0C6117}
  9
$VERSIONGUID
  2
{FAEB1C32-E019-11D5-929B-00C0DF256EC4}
  9
$EXTNAMES
290
     1
  9
$PSVPSCALE
 40
0.0
  9
$OLESTARTUP
290
     0
  0
ENDSEC
  0
SECTION
  2
CLASSES
  0
CLASS
  1
ACDBDICTIONARYWDFLT
  2
AcDbDictionaryWithDefault
  3
ObjectDBX Classes
 90
        0
280
     0
281
     0
  0
CLASS
  1
VISUALSTYLE
  2
AcDbVisualStyle
  3
ObjectDBX Classes
 90
     4095
280
     0
281
     0
  0
CLASS
  1
DICTIONARYVAR
  2
AcDbDictionaryVar
  3
ObjectDBX Classes
 90
        0
280
     0
281
     0
  0
CLASS
  1
ACDBPLACEHOLDER
  2
AcDbPlaceHolder
  3
ObjectDBX Classes
 90
        0
280
     0
281
     0
  0
CLASS
  1
LAYOUT
  2
AcDbLayout
  3
ObjectDBX Classes
 90
        0
280
     0
281
     0
  0
ENDSEC
  0
SECTION
  2
TABLES
  0
TABLE
  2
VPORT
  5
8
330
0
100
AcDbSymbolTable
 70
     1
  0
VPORT
  5
29
330
8
100
AcDbSymbolTableRecord
100
AcDbViewportTableRecord
  2
*Active
 70
     0
 10
0.0
 20
0.0
 11
1.0
 21
1.0
 12
139.7
 22
107.95
 13
0.0
 23
0.0
 14
10.0
 24
10.0
 15
10.0
 25
10.0
 16
0.0
 26
0.0
 36
1.0
 17
0.0
 27
0.0
 37
0.0
 40
215.9
 41
1.2941176471
 42
50.0
 43
0.0
 44
0.0
 50
0.0
 51
0.0
 71
     0
 72
  2000
 73
     1
 74
     3
 75
     0
 76
     0
 77
     0
 78
     0
281
     0
 65
     1
110
0.0
120
0.0
130
0.0
111
1.0
121
0.0
131
0.0
112
0.0
122
1.0
132
0.0
 79
     0
146
0.0
  0
ENDTAB
  0
TABLE
  2
LTYPE
  5
5
330
0
100
AcDbSymbolTable
 70
     6
  0
LTYPE
  5
14
330
5
100
AcDbSymbolTableRecord
100
AcDbLinetypeTableRecord
  2
ByBlock
 70
     0
  3

 72
    65
 73
     0
 40
0.0
  0
LTYPE
  5
15
330
5
100
AcDbSymbolTableRecord
100
AcDbLinetypeTableRecord
  2
ByLayer
 70
     0
  3

 72
    65
 73
     0
 40
0.0
  0
LTYPE
  5
16
330
5
100
AcDbSymbolTableRecord
100
AcDbLinetypeTableRecord
  2
Continuous
 70
     0
  3
Solid line
 72
    65
 73
     0
 40
0.0
  0
LTYPE
  5
3B
330
5
100
AcDbSymbolTableRecord
100
AcDbLinetypeTableRecord
  2
HIDDEN
 70
     0
  3
Hidden __ __ __ __ __ __ __ __ __ __ __ __ __ __
 72
    65
 73
     2
 40
1.905
 49
1.27
 74
     0
 49
-0.635
 74
     0
  0
LTYPE
  5
3C
330
5
100
AcDbSymbolTableRecord
100
AcDbLinetypeTableRecord
  2
PHANTOM
 70
     0
  3
Phantom ______  __  __  ______  __  __  ______
 72
    65
 73
     6
 40
12.7
 49
6.35
 74
     0
 49
-1.27
 74
     0
 49
1.27
 74
     0
 49
-1.27
 74
     0
 49
1.27
 74
     0
 49
-1.27
 74
     0
  0
LTYPE
  5
3D
330
5
100
AcDbSymbolTableRecord
100
AcDbLinetypeTableRecord
  2
CENTER
 70
     0
  3
Center ____ _ ____ _ ____ _ ____ _ ____ _ ____
 72
    65
 73
     4
 40
10.16
 49
6.35
 74
     0
 49
-1.27
 74
     0
 49
1.27
 74
     0
 49
-1.27
 74
     0
  0
LTYPE
  5
3E
330
5
100
AcDbSymbolTableRecord
100
AcDbLinetypeTableRecord
  2
CENTERX2
 70
     0
  3
Center (2x) ________  __  ________  __  _____
 72
    65
 73
     4
 40
20.32
 49
12.7
 74
     0
 49
-2.54
 74
     0
 49
2.54
 74
     0
 49
-2.54
 74
     0
  0
LTYPE
  5
3F
330
5
100
AcDbSymbolTableRecord
100
AcDbLinetypeTableRecord
  2
DOT2
 70
     0
  3
Dot (.5x) ........................................
 72
    65
 73
     2
 40
0.635
 49
0.0
 74
     0
 49
-0.635
 74
     0
  0
ENDTAB
  0
TABLE
  2
LAYER
  5
2
330
0
100
AcDbSymbolTable
 70
     2
  0
LAYER
  5
10
330
2
100
AcDbSymbolTableRecord
100
AcDbLayerTableRecord
  2
0
 70
     0
 62
     7
  6
Continuous
370
    -3
390
F
  0
LAYER
  5
40
330
2
100
AcDbSymbolTableRecord
100
AcDbLayerTableRecord
  2
FORMAT
 70
     0
 62
     7
  6
Continuous
370
    -3
390
F
  0
ENDTAB
  0
TABLE
  2
STYLE
  5
3
330
0
100
AcDbSymbolTable
 70
     5
  0
STYLE
  5
11
330
3
100
AcDbSymbolTableRecord
100
AcDbTextStyleTableRecord
  2
Standard
 70
     0
 40
0.0
 41
1.0
 50
0.0
 71
     0
 42
2.5
  3
txt
  4

  0
STYLE
  5
6A
330
3
100
AcDbSymbolTableRecord
100
AcDbTextStyleTableRecord
  2
SLDTEXTSTYLE0
 70
     0
 40
0.0
 41
0.75
 50
0.0
 71
     0
 42
0.2
  3
TXT
  4

  0
STYLE
  5
71
330
3
100
AcDbSymbolTableRecord
100
AcDbTextStyleTableRecord
  2
SLDTEXTSTYLE1
 70
     0
 40
0.0
 41
0.6944444444
 50
0.0
 71
     0
 42
0.2
  3
TXT
  4

  0
STYLE
  5
79
330
3
100
AcDbSymbolTableRecord
100
AcDbTextStyleTableRecord
  2
SLDTEXTSTYLE2
 70
     0
 40
0.0
 41
0.6847826087
 50
0.0
 71
     0
 42
0.2
  3
TXT
  4

  0
STYLE
  5
95
330
3
100
AcDbSymbolTableRecord
100
AcDbTextStyleTableRecord
  2
SLDTEXTSTYLE3
 70
     0
 40
0.0
 41
0.6875
 50
0.0
 71
     0
 42
0.2
  3
TXT
  4

  0
ENDTAB
  0
TABLE
  2
VIEW
  5
6
330
0
100
AcDbSymbolTable
 70
     0
  0
ENDTAB
  0
TABLE
  2
UCS
  5
7
330
0
100
AcDbSymbolTable
 70
     0
  0
ENDTAB
  0
TABLE
  2
APPID
  5
9
330
0
100
AcDbSymbolTable
 70
     1
  0
APPID
  5
12
330
9
100
AcDbSymbolTableRecord
100
AcDbRegAppTableRecord
  2
ACAD
 70
     0
  0
ENDTAB
  0
TABLE
  2
DIMSTYLE
  5
A
330
0
100
AcDbSymbolTable
 70
     4
100
AcDbDimStyleTable
  0
DIMSTYLE
105
27
330
A
100
AcDbSymbolTableRecord
100
AcDbDimStyleTableRecord
  2
ISO-25
 70
     0
 41
2.5
 42
0.625
 43
3.75
 44
1.25
 73
     0
 74
     0
 77
     1
 78
     8
140
2.5
141
2.5
143
0.0393700787
147
0.625
171
     3
172
     1
271
     2
272
     2
274
     3
278
    44
283
     0
284
     8
340
11
  0
DIMSTYLE
105
B9
102
{ACAD_REACTORS
330
B8
330
115
330
12A
330
13F
330
154
330
169
330
1DE
102
}
330
A
100
AcDbSymbolTableRecord
100
AcDbDimStyleTableRecord
  2
SLDDIMSTYLE0
 70
     0
 41
5.9944
 44
0.0
 45
0.000000001
 73
     0
 77
     1
 78
    12
140
6.35
143
0.0393700787
144
2.0
147
1.5875
148
0.000000001
170
     1
171
     3
173
     1
271
     2
272
     2
274
     3
284
    12
340
6A
341
BA
343
BA
344
BA
  0
DIMSTYLE
105
D6
102
{ACAD_REACTORS
330
D5
330
EB
330
100
102
}
330
A
100
AcDbSymbolTableRecord
100
AcDbDimStyleTableRecord
  2
SLDDIMSTYLE1
 70
     0
 41
5.9944
 44
0.0
 45
0.000000001
 73
     0
 77
     1
 78
     4
140
6.35
143
0.0393700787
144
2.0
147
1.5875
148
0.000000001
170
     1
171
     3
173
     1
271
     2
272
     2
274
     3
284
    12
340
6A
341
BA
343
BA
344
BA
  0
DIMSTYLE
105
17F
102
{ACAD_REACTORS
330
17E
330
190
102
}
330
A
100
AcDbSymbolTableRecord
100
AcDbDimStyleTableRecord
  2
SLDDIMSTYLE2
 70
     0
  3
<>
 41
5.9944
 44
0.0
 45
0.000000001
 78
    12
140
6.35
144
2.0
147
1.5875
173
     1
271
     0
272
     2
284
    12
340
6A
341
BA
343
BA
344
BA
  0
ENDTAB
  0
TABLE
  2
BLOCK_RECORD
  5
1
330
0
100
AcDbSymbolTable
 70
    19
  0
BLOCK_RECORD
  5
1F
330
1
100
AcDbSymbolTableRecord
100
AcDbBlockTableRecord
  2
*Model_Space
340
22
  0
BLOCK_RECORD
  5
1B
330
1
100
AcDbSymbolTableRecord
100
AcDbBlockTableRecord
  2
*Paper_Space
340
1E
  0
BLOCK_RECORD
  5
23
330
1
100
AcDbSymbolTableRecord
100
AcDbBlockTableRecord
  2
*Paper_Space0
340
26
  0
BLOCK_RECORD
  5
67
330
1
100
AcDbSymbolTableRecord
100
AcDbBlockTableRecord
  2
SW_NOTE_0
340
0
102
{BLKREFS
331
6D
102
}
  0
BLOCK_RECORD
  5
7E
330
1
100
AcDbSymbolTableRecord
100
AcDbBlockTableRecord
  2
SW_NOTE_1
340
0
102
{BLKREFS
331
8D
102
}
  0
BLOCK_RECORD
  5
99
330
1
100
AcDbSymbolTableRecord
100
AcDbBlockTableRecord
  2
SW_NOTE_2
340
0
102
{BLKREFS
331
A3
102
}
  0
BLOCK_RECORD
  5
BA
330
1
100
AcDbSymbolTableRecord
100
AcDbBlockTableRecord
  2
_CLOSED
340
0
102
{BLKREFS
331
C6
331
C7
331
DC
331
DD
331
F1
331
F2
331
106
331
107
331
11B
331
11C
331
130
331
131
331
145
331
146
331
15A
331
15B
331
16F
331
170
331
183
331
194
331
1B5
331
1B7
331
1BC
331
1BE
331
1E4
331
1E5
102
}
  0
BLOCK_RECORD
  5
C1
330
1
100
AcDbSymbolTableRecord
100
AcDbBlockTableRecord
  2
*D5
340
0
  0
BLOCK_RECORD
  5
D7
330
1
100
AcDbSymbolTableRecord
100
AcDbBlockTableRecord
  2
*D6
340
0
  0
BLOCK_RECORD
  5
EC
330
1
100
AcDbSymbolTableRecord
100
AcDbBlockTableRecord
  2
*D7
340
0
  0
BLOCK_RECORD
  5
101
330
1
100
AcDbSymbolTableRecord
100
AcDbBlockTableRecord
  2
*D8
340
0
  0
BLOCK_RECORD
  5
116
330
1
100
AcDbSymbolTableRecord
100
AcDbBlockTableRecord
  2
*D9
340
0
  0
BLOCK_RECORD
  5
12B
330
1
100
AcDbSymbolTableRecord
100
AcDbBlockTableRecord
  2
*D10
340
0
  0
BLOCK_RECORD
  5
140
330
1
100
AcDbSymbolTableRecord
100
AcDbBlockTableRecord
  2
*D11
340
0
  0
BLOCK_RECORD
  5
155
330
1
100
AcDbSymbolTableRecord
100
AcDbBlockTableRecord
  2
*D12
340
0
  0
BLOCK_RECORD
  5
16A
330
1
100
AcDbSymbolTableRecord
100
AcDbBlockTableRecord
  2
*D13
340
0
  0
BLOCK_RECORD
  5
180
330
1
100
AcDbSymbolTableRecord
100
AcDbBlockTableRecord
  2
*D14
340
0
  0
BLOCK_RECORD
  5
191
330
1
100
AcDbSymbolTableRecord
100
AcDbBlockTableRecord
  2
*D15
340
0
  0
BLOCK_RECORD
  5
197
330
1
100
AcDbSymbolTableRecord
100
AcDbBlockTableRecord
  2
SW_SYMBOL_HOLE_SPOT
340
0
102
{BLKREFS
331
19D
102
}
  0
BLOCK_RECORD
  5
1A2
330
1
100
AcDbSymbolTableRecord
100
AcDbBlockTableRecord
  2
SW_SYMBOL_HOLE_DEPTH
340
0
102
{BLKREFS
331
1A9
102
}
  0
BLOCK_RECORD
  5
1DF
330
1
100
AcDbSymbolTableRecord
100
AcDbBlockTableRecord
  2
*D18
340
0
  0
ENDTAB
  0
ENDSEC
  0
SECTION
  2
BLOCKS
  0
BLOCK
  5
20
330
1F
100
AcDbEntity
  8
0
100
AcDbBlockBegin
  2
*Model_Space
 70
     0
 10
0.0
 20
0.0
 30
0.0
  3
*Model_Space
  1

  0
ENDBLK
  5
21
330
1F
100
AcDbEntity
  8
0
100
AcDbBlockEnd
  0
BLOCK
  5
1C
330
1B
100
AcDbEntity
 67
     1
  8
0
100
AcDbBlockBegin
  2
*Paper_Space
 70
     0
 10
0.0
 20
0.0
 30
0.0
  3
*Paper_Space
  1

  0
ENDBLK
  5
1D
330
1B
100
AcDbEntity
 67
     1
  8
0
100
AcDbBlockEnd
  0
BLOCK
  5
24
330
23
100
AcDbEntity
  8
0
100
AcDbBlockBegin
  2
*Paper_Space0
 70
     0
 10
0.0
 20
0.0
 30
0.0
  3
*Paper_Space0
  1

  0
ENDBLK
  5
25
330
23
100
AcDbEntity
  8
0
100
AcDbBlockEnd
  0
BLOCK
  5
68
330
67
100
AcDbEntity
  8
0
100
AcDbBlockBegin
  2
SW_NOTE_0
 70
     0
 10
0.0
 20
0.0
 30
0.0
  3
SW_NOTE_0
  1

  0
MTEXT
  5
6B
330
67
100
AcDbEntity
  8
FORMAT
 62
     0
100
AcDbMText
 10
0.0
 20
8.1855801476
 30
0.0
 40
6.35
 41
0.0
 71
     1
 72
     1
  1
Brett Graham
  7
SLDTEXTSTYLE0
 73
     1
 44
1.0
  0
MTEXT
  5
6C
330
67
100
AcDbEntity
  8
FORMAT
 62
     0
100
AcDbMText
 10
0.0
 20
-0.0253228861
 30
0.0
 40
6.35
 41
0.0
 71
     1
 72
     1
  1
1 x Aluminum
  7
SLDTEXTSTYLE0
 73
     1
 44
1.0
  0
ENDBLK
  5
69
330
67
100
AcDbEntity
  8
0
100
AcDbBlockEnd
  0
BLOCK
  5
7F
330
7E
100
AcDbEntity
  8
0
100
AcDbBlockBegin
  2
SW_NOTE_1
 70
     0
 10
0.0
 20
0.0
 30
0.0
  3
SW_NOTE_1
  1

  0
MTEXT
  5
81
330
7E
100
AcDbEntity
  8
0
  6
Continuous
 62
     0
370
     0
100
AcDbMText
 10
0.0
 20
2.0463950369
 30
0.0
 40
1.5875
 41
0.0
 71
     1
 72
     1
  1
DIMENSIONS ARE IN MM [IN]
  7
SLDTEXTSTYLE0
 73
     1
 44
1.0
  0
MTEXT
  5
82
330
7E
100
AcDbEntity
  8
0
  6
Continuous
 62
     0
370
     0
100
AcDbMText
 10
0.0
 20
-0.5411049914
 30
0.0
 40
1.5875
 41
0.0
 71
     1
 72
     1
  1
TOLERANCES:
  7
SLDTEXTSTYLE0
 73
     1
 44
1.0
  0
MTEXT
  5
83
330
7E
100
AcDbEntity
  8
0
  6
Continuous
 62
     0
370
     0
100
AcDbMText
 10
0.0
 20
-3.1286050197
 30
0.0
 40
1.5875
 41
0.0
 71
     1
 72
     1
  1
FRACTIONAL
  7
SLDTEXTSTYLE0
 73
     1
 44
1.0
  0
MTEXT
  5
84
330
7E
100
AcDbEntity
  8
0
  6
Continuous
 62
     0
370
     0
100
AcDbMText
 10
12.6410201192
 20
-3.1286050197
 30
0.0
 40
1.5875
 41
0.0
 71
     1
 72
     1
  1
%%p
  7
SLDTEXTSTYLE0
 73
     1
 44
1.0
  0
MTEXT
  5
85
330
7E
100
AcDbEntity
  8
0
  6
Continuous
 62
     0
370
     0
100
AcDbMText
 10
0.0
 20
-5.716105048
 30
0.0
 40
1.5875
 41
0.0
 71
     1
 72
     1
  1
ANGULAR: MACH
  7
SLDTEXTSTYLE0
 73
     1
 44
1.0
  0
MTEXT
  5
86
330
7E
100
AcDbEntity
  8
0
  6
Continuous
 62
     0
370
     0
100
AcDbMText
 10
17.6670011133
 20
-5.716105048
 30
0.0
 40
1.5875
 41
0.0
 71
     1
 72
     1
  1
%%p
  7
SLDTEXTSTYLE0
 73
     1
 44
1.0
  0
MTEXT
  5
87
330
7E
100
AcDbEntity
  8
0
  6
Continuous
 62
     0
370
     0
100
AcDbMText
 10
19.1790945828
 20
-5.716105048
 30
0.0
 40
1.5875
 41
0.0
 71
     1
 72
     1
  1
     BEND 
  7
SLDTEXTSTYLE0
 73
     1
 44
1.0
  0
MTEXT
  5
88
330
7E
100
AcDbEntity
  8
0
  6
Continuous
 62
     0
370
     0
100
AcDbMText
 10
28.033817187
 20
-5.716105048
 30
0.0
 40
1.5875
 41
0.0
 71
     1
 72
     1
  1
%%p
  7
SLDTEXTSTYLE0
 73
     1
 44
1.0
  0
MTEXT
  5
89
330
7E
100
AcDbEntity
  8
0
  6
Continuous
 62
     0
370
     0
100
AcDbMText
 10
0.0
 20
-8.3036050764
 30
0.0
 40
1.5875
 41
0.0
 71
     1
 72
     1
  1
TWO PLACE DECIMAL    
  7
SLDTEXTSTYLE0
 73
     1
 44
1.0
  0
MTEXT
  5
8A
330
7E
100
AcDbEntity
  8
0
  6
Continuous
 62
     0
370
     0
100
AcDbMText
 10
23.9208135754
 20
-8.3036050764
 30
0.0
 40
1.5875
 41
0.0
 71
     1
 72
     1
  1
%%p
  7
SLDTEXTSTYLE0
 73
     1
 44
1.0
  0
MTEXT
  5
8B
330
7E
100
AcDbEntity
  8
0
  6
Continuous
 62
     0
370
     0
100
AcDbMText
 10
0.0
 20
-10.8911051047
 30
0.0
 40
1.5875
 41
0.0
 71
     1
 72
     1
  1
THREE PLACE DECIMAL  
  7
SLDTEXTSTYLE0
 73
     1
 44
1.0
  0
MTEXT
  5
8C
330
7E
100
AcDbEntity
  8
0
  6
Continuous
 62
     0
370
     0
100
AcDbMText
 10
23.7832851708
 20
-10.8911051047
 30
0.0
 40
1.5875
 41
0.0
 71
     1
 72
     1
  1
%%p
  7
SLDTEXTSTYLE0
 73
     1
 44
1.0
  0
ENDBLK
  5
80
330
7E
100
AcDbEntity
  8
0
100
AcDbBlockEnd
  0
BLOCK
  5
9A
330
99
100
AcDbEntity
  8
0
100
AcDbBlockBegin
  2
SW_NOTE_2
 70
     0
 10
0.0
 20
0.0
 30
0.0
  3
SW_NOTE_2
  1

  0
MTEXT
  5
9C
330
99
100
AcDbEntity
  8
0
  6
Continuous
 62
     0
370
     0
100
AcDbMText
 10
0.0
 20
1.9645392354
 30
0.0
 40
1.524
 41
0.0
 71
     1
 72
     1
  1
THE INFORMATION CONTAINED IN THIS
  7
SLDTEXTSTYLE0
 73
     1
 44
1.0
  0
MTEXT
  5
9D
330
99
100
AcDbEntity
  8
0
  6
Continuous
 62
     0
370
     0
100
AcDbMText
 10
0.0
 20
-0.5594606586
 30
0.0
 40
1.524
 41
0.0
 71
     1
 72
     1
  1
DRAWING IS THE SOLE PROPERTY OF
  7
SLDTEXTSTYLE0
 73
     1
 44
1.0
  0
MTEXT
  5
9E
330
99
100
AcDbEntity
  8
0
  6
Continuous
 62
     0
370
     0
100
AcDbMText
 10
0.0
 20
-3.0834605527
 30
0.0
 40
1.524
 41
0.0
 71
     1
 72
     1
  1
<INSERT COMPANY NAME HERE>.  ANY 
  7
SLDTEXTSTYLE0
 73
     1
 44
1.0
  0
MTEXT
  5
9F
330
99
100
AcDbEntity
  8
0
  6
Continuous
 62
     0
370
     0
100
AcDbMText
 10
0.0
 20
-5.6074604467
 30
0.0
 40
1.524
 41
0.0
 71
     1
 72
     1
  1
REPRODUCTION IN PART OR AS A WHOLE
  7
SLDTEXTSTYLE0
 73
     1
 44
1.0
  0
MTEXT
  5
A0
330
99
100
AcDbEntity
  8
0
  6
Continuous
 62
     0
370
     0
100
AcDbMText
 10
0.0
 20
-8.1314603407
 30
0.0
 40
1.524
 41
0.0
 71
     1
 72
     1
  1
WITHOUT THE WRITTEN PERMISSION OF
  7
SLDTEXTSTYLE0
 73
     1
 44
1.0
  0
MTEXT
  5
A1
330
99
100
AcDbEntity
  8
0
  6
Continuous
 62
     0
370
     0
100
AcDbMText
 10
0.0
 20
-10.6554602348
 30
0.0
 40
1.524
 41
0.0
 71
     1
 72
     1
  1
<INSERT COMPANY NAME HERE> IS 
  7
SLDTEXTSTYLE0
 73
     1
 44
1.0
  0
MTEXT
  5
A2
330
99
100
AcDbEntity
  8
0
  6
Continuous
 62
     0
370
     0
100
AcDbMText
 10
0.0
 20
-13.1794601288
 30
0.0
 40
1.524
 41
0.0
 71
     1
 72
     1
  1
PROHIBITED.
  7
SLDTEXTSTYLE0
 73
     1
 44
1.0
  0
ENDBLK
  5
9B
330
99
100
AcDbEntity
  8
0
100
AcDbBlockEnd
  0
BLOCK
  5
BB
330
BA
100
AcDbEntity
  8
0
100
AcDbBlockBegin
  2
_CLOSED
 70
     0
 10
0.0
 20
0.0
 30
0.0
  3
_CLOSED
  1

  0
LINE
  5
BD
330
BA
100
AcDbEntity
  8
0
  6
ByBlock
 62
     0
370
    -2
100
AcDbLine
 10
-1.0
 20
0.166667
 30
0.0
 11
0.0
 21
0.0
 31
0.0
  0
LINE
  5
BE
330
BA
100
AcDbEntity
  8
0
  6
ByBlock
 62
     0
370
    -2
100
AcDbLine
 10
0.0
 20
0.0
 30
0.0
 11
-1.0
 21
-0.166667
 31
0.0
  0
LINE
  5
BF
330
BA
100
AcDbEntity
  8
0
  6
ByBlock
 62
     0
370
    -2
100
AcDbLine
 10
-1.0
 20
0.166667
 30
0.0
 11
-1.0
 21
-0.166667
 31
0.0
  0
LINE
  5
C0
330
BA
100
AcDbEntity
  8
0
  6
ByBlock
 62
     0
370
    -2
100
AcDbLine
 10
0.0
 20
0.0
 30
0.0
 11
-1.0
 21
0.0
 31
0.0
  0
ENDBLK
  5
BC
330
BA
100
AcDbEntity
  8
0
100
AcDbBlockEnd
  0
BLOCK
  5
C2
330
C1
100
AcDbEntity
  8
0
100
AcDbBlockBegin
  2
*D5
 70
     1
 10
0.0
 20
0.0
 30
0.0
  3
*D5
  1

  0
ARC
  5
C4
330
C1
100
AcDbEntity
  8
FORMAT
100
AcDbCircle
 10
97.7036358526
 20
68.2508358296
 30
0.0
 40
22.5329034553091
100
AcDbArc
 50
153.4349488229
 51
206.5650511771
  0
ARC
  5
C5
330
C1
100
AcDbEntity
  8
FORMAT
100
AcDbCircle
 10
91.9908287127
 20
68.2508358296
 30
0.0
 40
22.53290345530908
100
AcDbArc
 50
333.4349488229
 51
26.5650511771
  0
INSERT
  5
C6
330
C1
100
AcDbEntity
  8
FORMAT
100
AcDbBlockReference
  2
_CLOSED
 10
73.2727108023
 20
58.1738150583
 30
-2.33125
 41
5.9944
 42
5.9944
 50
0.0
  0
INSERT
  5
C7
330
C1
100
AcDbEntity
  8
FORMAT
100
AcDbBlockReference
  2
_CLOSED
 10
118.0402108023
 20
58.1738150583
 30
-2.33125
 41
5.9944
 42
5.9944
 50
180.0
  0
LINE
  5
C8
330
C1
100
AcDbEntity
  8
FORMAT
100
AcDbLine
 10
81.7146721809
 20
77.572080043
 30
0.0
 11
81.7146721809
 21
69.0066123874
 31
0.0
  0
LINE
  5
C9
330
C1
100
AcDbEntity
  8
FORMAT
100
AcDbLine
 10
81.7146721809
 20
69.0066123874
 30
0.0
 11
83.0034611164
 21
69.0066123874
 31
0.0
  0
LINE
  5
CA
330
C1
100
AcDbEntity
  8
FORMAT
100
AcDbLine
 10
81.7146721809
 20
77.572080043
 30
0.0
 11
83.0034611164
 21
77.572080043
 31
0.0
  0
LINE
  5
CB
330
C1
100
AcDbEntity
  8
FORMAT
100
AcDbLine
 10
107.9797923844
 20
77.572080043
 30
0.0
 11
107.9797923844
 21
69.0066123874
 31
0.0
  0
LINE
  5
CC
330
C1
100
AcDbEntity
  8
FORMAT
100
AcDbLine
 10
107.9797923844
 20
69.0066123874
 30
0.0
 11
106.6910034489
 21
69.0066123874
 31
0.0
  0
LINE
  5
CD
330
C1
100
AcDbEntity
  8
FORMAT
100
AcDbLine
 10
107.9797923844
 20
77.572080043
 30
0.0
 11
106.6910034489
 21
77.572080043
 31
0.0
  0
LINE
  5
CE
330
C1
100
AcDbEntity
  8
FORMAT
100
AcDbLine
 10
73.2727108023
 20
111.3053006567
 30
0.0
 11
73.2727108023
 21
57.1832150583
 31
0.0
  0
LINE
  5
CF
330
C1
100
AcDbEntity
  8
FORMAT
100
AcDbLine
 10
118.0402108023
 20
111.3053006567
 30
0.0
 11
118.0402108023
 21
57.1832150583
 31
0.0
  0
LINE
  5
D0
330
C1
100
AcDbEntity
  8
FORMAT
100
AcDbLine
 10
73.2727108023
 20
58.1738150583
 30
0.0
 11
61.2839108023
 21
58.1738150583
 31
0.0
  0
LINE
  5
D1
330
C1
100
AcDbEntity
  8
FORMAT
100
AcDbLine
 10
73.2727108023
 20
58.1738150583
 30
0.0
 11
118.0402108023
 21
58.1738150583
 31
0.0
  0
LINE
  5
D2
330
C1
100
AcDbEntity
  8
FORMAT
100
AcDbLine
 10
118.0402108023
 20
58.1738150583
 30
0.0
 11
130.0290108023
 21
58.1738150583
 31
0.0
  0
MTEXT
  5
D3
330
C1
100
AcDbEntity
  8
FORMAT
100
AcDbMText
 10
84.2922500518
 20
66.3593959043
 30
0.0
 40
6.35
 41
0.0
 71
     1
 72
     1
  1
89.54
  7
SLDTEXTSTYLE0
 73
     1
 44
1.0
  0
MTEXT
  5
D4
330
C1
100
AcDbEntity
  8
FORMAT
100
AcDbMText
 10
84.2922500518
 20
76.4364166756
 30
0.0
 40
6.35
 41
0.0
 71
     1
 72
     1
  1
3.525
  7
SLDTEXTSTYLE0
 73
     1
 44
1.0
  0
ENDBLK
  5
C3
330
C1
100
AcDbEntity
  8
0
100
AcDbBlockEnd
  0
BLOCK
  5
D8
330
D7
100
AcDbEntity
  8
0
100
AcDbBlockBegin
  2
*D6
 70
     1
 10
0.0
 20
0.0
 30
0.0
  3
*D6
  1

  0
ARC
  5
DA
330
D7
100
AcDbEntity
  8
FORMAT
100
AcDbCircle
 10
23.0324883828
 20
135.2681903344
 30
0.0
 40
22.53290345530913
100
AcDbArc
 50
243.4349488229
 51
296.5650511771
  0
ARC
  5
DB
330
D7
100
AcDbEntity
  8
FORMAT
100
AcDbCircle
 10
23.0324883828
 20
129.5553831945
 30
0.0
 40
22.53290345530907
100
AcDbArc
 50
63.4349488229
 51
116.5650511771
  0
INSERT
  5
DC
330
D7
100
AcDbEntity
  8
FORMAT
100
AcDbBlockReference
  2
_CLOSED
 10
33.1095091541
 20
150.3959006567
 30
-2.33125
 41
5.9944
 42
5.9944
 50
270.0
  0
INSERT
  5
DD
330
D7
100
AcDbEntity
  8
FORMAT
100
AcDbBlockReference
  2
_CLOSED
 10
33.1095091541
 20
112.2959006567
 30
-2.33125
 41
5.9944
 42
5.9944
 50
90.0
  0
LINE
  5
DE
330
D7
100
AcDbEntity
  8
FORMAT
100
AcDbLine
 10
13.7112441694
 20
119.2792266628
 30
0.0
 11
22.276711825
 21
119.2792266628
 31
0.0
  0
LINE
  5
DF
330
D7
100
AcDbEntity
  8
FORMAT
100
AcDbLine
 10
22.276711825
 20
119.2792266628
 30
0.0
 11
22.276711825
 21
120.5680155982
 31
0.0
  0
LINE
  5
E0
330
D7
100
AcDbEntity
  8
FORMAT
100
AcDbLine
 10
13.7112441694
 20
119.2792266628
 30
0.0
 11
13.7112441694
 21
120.5680155982
 31
0.0
  0
LINE
  5
E1
330
D7
100
AcDbEntity
  8
FORMAT
100
AcDbLine
 10
13.7112441694
 20
145.5443468662
 30
0.0
 11
22.276711825
 21
145.5443468662
 31
0.0
  0
LINE
  5
E2
330
D7
100
AcDbEntity
  8
FORMAT
100
AcDbLine
 10
22.276711825
 20
145.5443468662
 30
0.0
 11
22.276711825
 21
144.2555579308
 31
0.0
  0
LINE
  5
E3
330
D7
100
AcDbEntity
  8
FORMAT
100
AcDbLine
 10
13.7112441694
 20
145.5443468662
 30
0.0
 11
13.7112441694
 21
144.2555579308
 31
0.0
  0
LINE
  5
E4
330
D7
100
AcDbEntity
  8
FORMAT
100
AcDbLine
 10
72.2821108023
 20
150.3959006567
 30
0.0
 11
32.1189091541
 21
150.3959006567
 31
0.0
  0
LINE
  5
E5
330
D7
100
AcDbEntity
  8
FORMAT
100
AcDbLine
 10
72.2821108023
 20
112.2959006567
 30
0.0
 11
32.1189091541
 21
112.2959006567
 31
0.0
  0
LINE
  5
E6
330
D7
100
AcDbEntity
  8
FORMAT
100
AcDbLine
 10
33.1095091541
 20
150.3959006567
 30
0.0
 11
33.1095091541
 21
162.3847006567
 31
0.0
  0
LINE
  5
E7
330
D7
100
AcDbEntity
  8
FORMAT
100
AcDbLine
 10
33.1095091541
 20
150.3959006567
 30
0.0
 11
33.1095091541
 21
112.2959006567
 31
0.0
  0
LINE
  5
E8
330
D7
100
AcDbEntity
  8
FORMAT
100
AcDbLine
 10
33.1095091541
 20
112.2959006567
 30
0.0
 11
33.1095091541
 21
100.3071006567
 31
0.0
  0
MTEXT
  5
E9
330
D7
100
AcDbEntity
  8
FORMAT
100
AcDbMText
 10
24.9239283081
 20
121.8568045337
 30
0.0
 40
6.35
 41
0.0
 71
     1
 72
     1
  1
76.20
  7
SLDTEXTSTYLE0
 11
-7.044195017643634E-15
 21
1.0
 31
0.0
 73
     1
 44
1.0
  0
MTEXT
  5
EA
330
D7
100
AcDbEntity
  8
FORMAT
100
AcDbMText
 10
14.8469075368
 20
121.8568045337
 30
0.0
 40
6.35
 41
0.0
 71
     1
 72
     1
  1
3.000
  7
SLDTEXTSTYLE0
 11
-7.044195017643634E-15
 21
1.0
 31
0.0
 73
     1
 44
1.0
  0
ENDBLK
  5
D9
330
D7
100
AcDbEntity
  8
0
100
AcDbBlockEnd
  0
BLOCK
  5
ED
330
EC
100
AcDbEntity
  8
0
100
AcDbBlockBegin
  2
*D7
 70
     1
 10
0.0
 20
0.0
 30
0.0
  3
*D7
  1

  0
ARC
  5
EF
330
EC
100
AcDbEntity
  8
FORMAT
100
AcDbCircle
 10
97.9644676235
 20
93.527012489
 30
0.0
 40
22.53290345530905
100
AcDbArc
 50
153.4349488229
 51
206.5650511771
  0
ARC
  5
F0
330
EC
100
AcDbEntity
  8
FORMAT
100
AcDbCircle
 10
92.2516604836
 20
93.527012489
 30
0.0
 40
22.53290345530905
100
AcDbArc
 50
333.4349488229
 51
26.5650511771
  0
INSERT
  5
F1
330
EC
100
AcDbEntity
  8
FORMAT
100
AcDbBlockReference
  2
_CLOSED
 10
79.7814608023
 20
83.4499917177
 30
-2.33125
 41
5.9944
 42
5.9944
 50
0.0
  0
INSERT
  5
F2
330
EC
100
AcDbEntity
  8
FORMAT
100
AcDbBlockReference
  2
_CLOSED
 10
111.5314608023
 20
83.4499917177
 30
-2.33125
 41
5.9944
 42
5.9944
 50
180.0
  0
LINE
  5
F3
330
EC
100
AcDbEntity
  8
FORMAT
100
AcDbLine
 10
81.9755039518
 20
102.8482567025
 30
0.0
 11
81.9755039518
 21
94.2827890468
 31
0.0
  0
LINE
  5
F4
330
EC
100
AcDbEntity
  8
FORMAT
100
AcDbLine
 10
81.9755039518
 20
94.2827890468
 30
0.0
 11
83.2642928873
 21
94.2827890468
 31
0.0
  0
LINE
  5
F5
330
EC
100
AcDbEntity
  8
FORMAT
100
AcDbLine
 10
81.9755039518
 20
102.8482567025
 30
0.0
 11
83.2642928873
 21
102.8482567025
 31
0.0
  0
LINE
  5
F6
330
EC
100
AcDbEntity
  8
FORMAT
100
AcDbLine
 10
108.2406241553
 20
102.8482567025
 30
0.0
 11
108.2406241553
 21
94.2827890468
 31
0.0
  0
LINE
  5
F7
330
EC
100
AcDbEntity
  8
FORMAT
100
AcDbLine
 10
108.2406241553
 20
94.2827890468
 30
0.0
 11
106.9518352198
 21
94.2827890468
 31
0.0
  0
LINE
  5
F8
330
EC
100
AcDbEntity
  8
FORMAT
100
AcDbLine
 10
108.2406241553
 20
102.8482567025
 30
0.0
 11
106.9518352198
 21
102.8482567025
 31
0.0
  0
LINE
  5
F9
330
EC
100
AcDbEntity
  8
FORMAT
100
AcDbLine
 10
79.7814608023
 20
114.4803006567
 30
0.0
 11
79.7814608023
 21
82.4593917177
 31
0.0
  0
LINE
  5
FA
330
EC
100
AcDbEntity
  8
FORMAT
100
AcDbLine
 10
111.5314608023
 20
114.4803006567
 30
0.0
 11
111.5314608023
 21
82.4593917177
 31
0.0
  0
LINE
  5
FB
330
EC
100
AcDbEntity
  8
FORMAT
100
AcDbLine
 10
79.7814608023
 20
83.4499917177
 30
0.0
 11
67.7926608023
 21
83.4499917177
 31
0.0
  0
LINE
  5
FC
330
EC
100
AcDbEntity
  8
FORMAT
100
AcDbLine
 10
79.7814608023
 20
83.4499917177
 30
0.0
 11
111.5314608023
 21
83.4499917177
 31
0.0
  0
LINE
  5
FD
330
EC
100
AcDbEntity
  8
FORMAT
100
AcDbLine
 10
111.5314608023
 20
83.4499917177
 30
0.0
 11
123.5202608023
 21
83.4499917177
 31
0.0
  0
MTEXT
  5
FE
330
EC
100
AcDbEntity
  8
FORMAT
100
AcDbMText
 10
84.5530818227
 20
91.6355725637
 30
0.0
 40
6.35
 41
0.0
 71
     1
 72
     1
  1
63.50
  7
SLDTEXTSTYLE0
 73
     1
 44
1.0
  0
MTEXT
  5
FF
330
EC
100
AcDbEntity
  8
FORMAT
100
AcDbMText
 10
84.5530818227
 20
101.712593335
 30
0.0
 40
6.35
 41
0.0
 71
     1
 72
     1
  1
2.500
  7
SLDTEXTSTYLE0
 73
     1
 44
1.0
  0
ENDBLK
  5
EE
330
EC
100
AcDbEntity
  8
0
100
AcDbBlockEnd
  0
BLOCK
  5
102
330
101
100
AcDbEntity
  8
0
100
AcDbBlockBegin
  2
*D8
 70
     1
 10
0.0
 20
0.0
 30
0.0
  3
*D8
  1

  0
ARC
  5
104
330
101
100
AcDbEntity
  8
FORMAT
100
AcDbCircle
 10
47.0324883828
 20
86.3063952876
 30
0.0
 40
22.53290345530908
100
AcDbArc
 50
243.4349488229
 51
296.5650511771
  0
ARC
  5
105
330
101
100
AcDbEntity
  8
FORMAT
100
AcDbCircle
 10
47.0324883828
 20
80.5935881477
 30
0.0
 40
22.53290345530908
100
AcDbArc
 50
63.4349488229
 51
116.5650511771
  0
INSERT
  5
106
330
101
100
AcDbEntity
  8
FORMAT
100
AcDbBlockReference
  2
_CLOSED
 10
57.1095091541
 20
115.4709006567
 30
-2.33125
 41
5.9944
 42
5.9944
 50
90.0
  0
INSERT
  5
107
330
101
100
AcDbEntity
  8
FORMAT
100
AcDbBlockReference
  2
_CLOSED
 10
57.1095091541
 20
128.1709006567
 30
-2.33125
 41
5.9944
 42
5.9944
 50
270.0
  0
LINE
  5
108
330
101
100
AcDbEntity
  8
FORMAT
100
AcDbLine
 10
37.7112441694
 20
70.317431616
 30
0.0
 11
46.276711825
 21
70.317431616
 31
0.0
  0
LINE
  5
109
330
101
100
AcDbEntity
  8
FORMAT
100
AcDbLine
 10
46.276711825
 20
70.317431616
 30
0.0
 11
46.276711825
 21
71.6062205514
 31
0.0
  0
LINE
  5
10A
330
101
100
AcDbEntity
  8
FORMAT
100
AcDbLine
 10
37.7112441694
 20
70.317431616
 30
0.0
 11
37.7112441694
 21
71.6062205514
 31
0.0
  0
LINE
  5
10B
330
101
100
AcDbEntity
  8
FORMAT
100
AcDbLine
 10
37.7112441694
 20
96.5825518194
 30
0.0
 11
46.276711825
 21
96.5825518194
 31
0.0
  0
LINE
  5
10C
330
101
100
AcDbEntity
  8
FORMAT
100
AcDbLine
 10
46.276711825
 20
96.5825518194
 30
0.0
 11
46.276711825
 21
95.293762884
 31
0.0
  0
LINE
  5
10D
330
101
100
AcDbEntity
  8
FORMAT
100
AcDbLine
 10
37.7112441694
 20
96.5825518194
 30
0.0
 11
37.7112441694
 21
95.293762884
 31
0.0
  0
LINE
  5
10E
330
101
100
AcDbEntity
  8
FORMAT
100
AcDbLine
 10
78.7908608023
 20
115.4709006567
 30
0.0
 11
56.1189091541
 21
115.4709006567
 31
0.0
  0
LINE
  5
10F
330
101
100
AcDbEntity
  8
FORMAT
100
AcDbLine
 10
78.7908608023
 20
128.1709006567
 30
0.0
 11
56.1189091541
 21
128.1709006567
 31
0.0
  0
LINE
  5
110
330
101
100
AcDbEntity
  8
FORMAT
100
AcDbLine
 10
57.1095091541
 20
115.4709006567
 30
0.0
 11
57.1095091541
 21
62.9797418323
 31
0.0
  0
LINE
  5
111
330
101
100
AcDbEntity
  8
FORMAT
100
AcDbLine
 10
57.1095091541
 20
115.4709006567
 30
0.0
 11
57.1095091541
 21
128.1709006567
 31
0.0
  0
LINE
  5
112
330
101
100
AcDbEntity
  8
FORMAT
100
AcDbLine
 10
57.1095091541
 20
128.1709006567
 30
0.0
 11
57.1095091541
 21
140.1597006567
 31
0.0
  0
MTEXT
  5
113
330
101
100
AcDbEntity
  8
FORMAT
100
AcDbMText
 10
48.9239283081
 20
72.8950094869
 30
0.0
 40
6.35
 41
0.0
 71
     1
 72
     1
  1
25.40
  7
SLDTEXTSTYLE0
 11
6.123233995736766E-17
 21
1.0
 31
0.0
 73
     1
 44
1.0
  0
MTEXT
  5
114
330
101
100
AcDbEntity
  8
FORMAT
100
AcDbMText
 10
38.8469075368
 20
72.8950094869
 30
0.0
 40
6.35
 41
0.0
 71
     1
 72
     1
  1
1.000
  7
SLDTEXTSTYLE0
 11
6.123233995736766E-17
 21
1.0
 31
0.0
 73
     1
 44
1.0
  0
ENDBLK
  5
103
330
101
100
AcDbEntity
  8
0
100
AcDbBlockEnd
  0
BLOCK
  5
117
330
116
100
AcDbEntity
  8
0
100
AcDbBlockBegin
  2
*D9
 70
     1
 10
0.0
 20
0.0
 30
0.0
  3
*D9
  1

  0
ARC
  5
119
330
116
100
AcDbEntity
  8
FORMAT
100
AcDbCircle
 10
187.7119359116
 20
97.0302186282
 30
0.0
 40
22.53290345530903
100
AcDbArc
 50
243.4349488229
 51
296.5650511771
  0
ARC
  5
11A
330
116
100
AcDbEntity
  8
FORMAT
100
AcDbCircle
 10
187.7119359116
 20
91.3174114883
 30
0.0
 40
22.5329034553091
100
AcDbArc
 50
63.4349488229
 51
116.5650511771
  0
INSERT
  5
11B
330
116
100
AcDbEntity
  8
FORMAT
100
AcDbBlockReference
  2
_CLOSED
 10
197.7889566829
 20
115.4709006567
 30
-2.33125
 41
5.9944
 42
5.9944
 50
270.0
  0
INSERT
  5
11C
330
116
100
AcDbEntity
  8
FORMAT
100
AcDbBlockReference
  2
_CLOSED
 10
197.7889566829
 20
112.2959006567
 30
-2.33125
 41
5.9944
 42
5.9944
 50
90.0
  0
LINE
  5
11D
330
116
100
AcDbEntity
  8
FORMAT
100
AcDbLine
 10
178.3906916981
 20
81.0412549565
 30
0.0
 11
186.9561593537
 21
81.0412549565
 31
0.0
  0
LINE
  5
11E
330
116
100
AcDbEntity
  8
FORMAT
100
AcDbLine
 10
186.9561593537
 20
81.0412549565
 30
0.0
 11
186.9561593537
 21
82.330043892
 31
0.0
  0
LINE
  5
11F
330
116
100
AcDbEntity
  8
FORMAT
100
AcDbLine
 10
178.3906916981
 20
81.0412549565
 30
0.0
 11
178.3906916981
 21
82.330043892
 31
0.0
  0
LINE
  5
120
330
116
100
AcDbEntity
  8
FORMAT
100
AcDbLine
 10
178.3906916981
 20
107.30637516
 30
0.0
 11
186.9561593537
 21
107.30637516
 31
0.0
  0
LINE
  5
121
330
116
100
AcDbEntity
  8
FORMAT
100
AcDbLine
 10
186.9561593537
 20
107.30637516
 30
0.0
 11
186.9561593537
 21
106.0175862245
 31
0.0
  0
LINE
  5
122
330
116
100
AcDbEntity
  8
FORMAT
100
AcDbLine
 10
178.3906916981
 20
107.30637516
 30
0.0
 11
178.3906916981
 21
106.0175862245
 31
0.0
  0
LINE
  5
123
330
116
100
AcDbEntity
  8
FORMAT
100
AcDbLine
 10
112.5220608023
 20
115.4709006567
 30
0.0
 11
198.7795566829
 21
115.4709006567
 31
0.0
  0
LINE
  5
124
330
116
100
AcDbEntity
  8
FORMAT
100
AcDbLine
 10
119.0308108023
 20
112.2959006567
 30
0.0
 11
198.7795566829
 21
112.2959006567
 31
0.0
  0
LINE
  5
125
330
116
100
AcDbEntity
  8
FORMAT
100
AcDbLine
 10
197.7889566829
 20
115.4709006567
 30
0.0
 11
197.7889566829
 21
127.4597006567
 31
0.0
  0
LINE
  5
126
330
116
100
AcDbEntity
  8
FORMAT
100
AcDbLine
 10
197.7889566829
 20
115.4709006567
 30
0.0
 11
197.7889566829
 21
112.2959006567
 31
0.0
  0
LINE
  5
127
330
116
100
AcDbEntity
  8
FORMAT
100
AcDbLine
 10
197.7889566829
 20
112.2959006567
 30
0.0
 11
197.7889566829
 21
73.7035651729
 31
0.0
  0
MTEXT
  5
128
330
116
100
AcDbEntity
  8
FORMAT
100
AcDbMText
 10
189.6033758368
 20
85.963119986
 30
0.0
 40
6.35
 41
0.0
 71
     1
 72
     1
  1
6.35
  7
SLDTEXTSTYLE0
 11
-7.044195017643634E-15
 21
1.0
 31
0.0
 73
     1
 44
1.0
  0
MTEXT
  5
129
330
116
100
AcDbEntity
  8
FORMAT
100
AcDbMText
 10
179.5263550655
 20
83.6188328274
 30
0.0
 40
6.35
 41
0.0
 71
     1
 72
     1
  1
0.250
  7
SLDTEXTSTYLE0
 11
-7.044195017643634E-15
 21
1.0
 31
0.0
 73
     1
 44
1.0
  0
ENDBLK
  5
118
330
116
100
AcDbEntity
  8
0
100
AcDbBlockEnd
  0
BLOCK
  5
12C
330
12B
100
AcDbEntity
  8
0
100
AcDbBlockBegin
  2
*D10
 70
     1
 10
0.0
 20
0.0
 30
0.0
  3
*D10
  1

  0
ARC
  5
12E
330
12B
100
AcDbEntity
  8
FORMAT
100
AcDbCircle
 10
157.7119359116
 20
93.1553526684
 30
0.0
 40
22.53290345530901
100
AcDbArc
 50
243.4349488229
 51
296.5650511771
  0
ARC
  5
12F
330
12B
100
AcDbEntity
  8
FORMAT
100
AcDbCircle
 10
157.7119359116
 20
87.4425455285
 30
0.0
 40
22.53290345530906
100
AcDbArc
 50
63.4349488229
 51
116.5650511771
  0
INSERT
  5
130
330
12B
100
AcDbEntity
  8
FORMAT
100
AcDbBlockReference
  2
_CLOSED
 10
167.7889566829
 20
113.8834006567
 30
-2.33125
 41
5.9944
 42
5.9944
 50
270.0
  0
INSERT
  5
131
330
12B
100
AcDbEntity
  8
FORMAT
100
AcDbBlockReference
  2
_CLOSED
 10
167.7889566829
 20
112.2959006567
 30
-2.33125
 41
5.9944
 42
5.9944
 50
90.0
  0
LINE
  5
132
330
12B
100
AcDbEntity
  8
FORMAT
100
AcDbLine
 10
148.3906916981
 20
77.1663889967
 30
0.0
 11
156.9561593537
 21
77.1663889967
 31
0.0
  0
LINE
  5
133
330
12B
100
AcDbEntity
  8
FORMAT
100
AcDbLine
 10
156.9561593537
 20
77.1663889967
 30
0.0
 11
156.9561593537
 21
78.4551779322
 31
0.0
  0
LINE
  5
134
330
12B
100
AcDbEntity
  8
FORMAT
100
AcDbLine
 10
148.3906916981
 20
77.1663889967
 30
0.0
 11
148.3906916981
 21
78.4551779322
 31
0.0
  0
LINE
  5
135
330
12B
100
AcDbEntity
  8
FORMAT
100
AcDbLine
 10
148.3906916981
 20
103.4315092002
 30
0.0
 11
156.9561593537
 21
103.4315092002
 31
0.0
  0
LINE
  5
136
330
12B
100
AcDbEntity
  8
FORMAT
100
AcDbLine
 10
156.9561593537
 20
103.4315092002
 30
0.0
 11
156.9561593537
 21
102.1427202647
 31
0.0
  0
LINE
  5
137
330
12B
100
AcDbEntity
  8
FORMAT
100
AcDbLine
 10
148.3906916981
 20
103.4315092002
 30
0.0
 11
148.3906916981
 21
102.1427202647
 31
0.0
  0
LINE
  5
138
330
12B
100
AcDbEntity
  8
FORMAT
100
AcDbLine
 10
117.4433108023
 20
113.8834006567
 30
0.0
 11
168.7795566829
 21
113.8834006567
 31
0.0
  0
LINE
  5
139
330
12B
100
AcDbEntity
  8
FORMAT
100
AcDbLine
 10
119.0308108023
 20
112.2959006567
 30
0.0
 11
168.7795566829
 21
112.2959006567
 31
0.0
  0
LINE
  5
13A
330
12B
100
AcDbEntity
  8
FORMAT
100
AcDbLine
 10
167.7889566829
 20
113.8834006567
 30
0.0
 11
167.7889566829
 21
125.8722006567
 31
0.0
  0
LINE
  5
13B
330
12B
100
AcDbEntity
  8
FORMAT
100
AcDbLine
 10
167.7889566829
 20
113.8834006567
 30
0.0
 11
167.7889566829
 21
112.2959006567
 31
0.0
  0
LINE
  5
13C
330
12B
100
AcDbEntity
  8
FORMAT
100
AcDbLine
 10
167.7889566829
 20
112.2959006567
 30
0.0
 11
167.7889566829
 21
69.8286992131
 31
0.0
  0
MTEXT
  5
13D
330
12B
100
AcDbEntity
  8
FORMAT
100
AcDbMText
 10
159.6033758368
 20
82.0882540262
 30
0.0
 40
6.35
 41
0.0
 71
     1
 72
     1
  1
3.18
  7
SLDTEXTSTYLE0
 11
-7.044195017643634E-15
 21
1.0
 31
0.0
 73
     1
 44
1.0
  0
MTEXT
  5
13E
330
12B
100
AcDbEntity
  8
FORMAT
100
AcDbMText
 10
149.5263550655
 20
79.7439668677
 30
0.0
 40
6.35
 41
0.0
 71
     1
 72
     1
  1
0.125
  7
SLDTEXTSTYLE0
 11
-7.044195017643634E-15
 21
1.0
 31
0.0
 73
     1
 44
1.0
  0
ENDBLK
  5
12D
330
12B
100
AcDbEntity
  8
0
100
AcDbBlockEnd
  0
BLOCK
  5
141
330
140
100
AcDbEntity
  8
0
100
AcDbBlockBegin
  2
*D11
 70
     1
 10
0.0
 20
0.0
 30
0.0
  3
*D11
  1

  0
ARC
  5
143
330
140
100
AcDbEntity
  8
FORMAT
100
AcDbCircle
 10
41.9659127241
 20
194.8792963662
 30
0.0
 40
22.53290345530909
100
AcDbArc
 50
153.4349488229
 51
206.5650511771
  0
ARC
  5
144
330
140
100
AcDbEntity
  8
FORMAT
100
AcDbCircle
 10
36.2531055842
 20
194.8792963662
 30
0.0
 40
22.53290345530909
100
AcDbArc
 50
333.4349488229
 51
26.5650511771
  0
INSERT
  5
145
330
140
100
AcDbEntity
  8
FORMAT
100
AcDbBlockReference
  2
_CLOSED
 10
74.8602108023
 20
184.8022755949
 30
-2.33125
 41
5.9944
 42
5.9944
 50
180.0
  0
INSERT
  5
146
330
140
100
AcDbEntity
  8
FORMAT
100
AcDbBlockReference
  2
_CLOSED
 10
73.2727108023
 20
184.8022755949
 30
-2.33125
 41
5.9944
 42
5.9944
 50
360.0
  0
LINE
  5
147
330
140
100
AcDbEntity
  8
FORMAT
100
AcDbLine
 10
25.9769490524
 20
204.2005405797
 30
0.0
 11
25.9769490524
 21
195.6350729241
 31
0.0
  0
LINE
  5
148
330
140
100
AcDbEntity
  8
FORMAT
100
AcDbLine
 10
25.9769490524
 20
195.6350729241
 30
0.0
 11
27.2657379879
 21
195.6350729241
 31
0.0
  0
LINE
  5
149
330
140
100
AcDbEntity
  8
FORMAT
100
AcDbLine
 10
25.9769490524
 20
204.2005405797
 30
0.0
 11
27.2657379879
 21
204.2005405797
 31
0.0
  0
LINE
  5
14A
330
140
100
AcDbEntity
  8
FORMAT
100
AcDbLine
 10
52.2420692559
 20
204.2005405797
 30
0.0
 11
52.2420692559
 21
195.6350729241
 31
0.0
  0
LINE
  5
14B
330
140
100
AcDbEntity
  8
FORMAT
100
AcDbLine
 10
52.2420692559
 20
195.6350729241
 30
0.0
 11
50.9532803204
 21
195.6350729241
 31
0.0
  0
LINE
  5
14C
330
140
100
AcDbEntity
  8
FORMAT
100
AcDbLine
 10
52.2420692559
 20
204.2005405797
 30
0.0
 11
50.9532803204
 21
204.2005405797
 31
0.0
  0
LINE
  5
14D
330
140
100
AcDbEntity
  8
FORMAT
100
AcDbLine
 10
74.8602108023
 20
149.7990006567
 30
0.0
 11
74.8602108023
 21
185.7928755949
 31
0.0
  0
LINE
  5
14E
330
140
100
AcDbEntity
  8
FORMAT
100
AcDbLine
 10
73.2727108023
 20
151.3865006567
 30
0.0
 11
73.2727108023
 21
185.7928755949
 31
0.0
  0
LINE
  5
14F
330
140
100
AcDbEntity
  8
FORMAT
100
AcDbLine
 10
74.8602108023
 20
184.8022755949
 30
0.0
 11
86.8490108023
 21
184.8022755949
 31
0.0
  0
LINE
  5
150
330
140
100
AcDbEntity
  8
FORMAT
100
AcDbLine
 10
74.8602108023
 20
184.8022755949
 30
0.0
 11
73.2727108023
 21
184.8022755949
 31
0.0
  0
LINE
  5
151
330
140
100
AcDbEntity
  8
FORMAT
100
AcDbLine
 10
73.2727108023
 20
184.8022755949
 30
0.0
 11
18.6392592688
 21
184.8022755949
 31
0.0
  0
MTEXT
  5
152
330
140
100
AcDbEntity
  8
FORMAT
100
AcDbMText
 10
30.8988140819
 20
192.987856441
 30
0.0
 40
6.35
 41
0.0
 71
     1
 72
     1
  1
3.18
  7
SLDTEXTSTYLE0
 73
     1
 44
1.0
  0
MTEXT
  5
153
330
140
100
AcDbEntity
  8
FORMAT
100
AcDbMText
 10
28.5545269233
 20
203.0648772123
 30
0.0
 40
6.35
 41
0.0
 71
     1
 72
     1
  1
0.125
  7
SLDTEXTSTYLE0
 73
     1
 44
1.0
  0
ENDBLK
  5
142
330
140
100
AcDbEntity
  8
0
100
AcDbBlockEnd
  0
BLOCK
  5
156
330
155
100
AcDbEntity
  8
0
100
AcDbBlockBegin
  2
*D12
 70
     1
 10
0.0
 20
0.0
 30
0.0
  3
*D12
  1

  0
ARC
  5
158
330
155
100
AcDbEntity
  8
FORMAT
100
AcDbCircle
 10
52.6347145513
 20
169.6586791649
 30
0.0
 40
22.53290345530909
100
AcDbArc
 50
243.4349488229
 51
296.5650511771
  0
ARC
  5
159
330
155
100
AcDbEntity
  8
FORMAT
100
AcDbCircle
 10
52.6347145513
 20
163.945872025
 30
0.0
 40
22.53290345530909
100
AcDbArc
 50
63.4349488229
 51
116.5650511771
  0
INSERT
  5
15A
330
155
100
AcDbEntity
  8
FORMAT
100
AcDbBlockReference
  2
_CLOSED
 10
62.7117353226
 20
148.8084006567
 30
-2.33125
 41
5.9944
 42
5.9944
 50
90.0
  0
INSERT
  5
15B
330
155
100
AcDbEntity
  8
FORMAT
100
AcDbBlockReference
  2
_CLOSED
 10
62.7117353226
 20
150.3959006567
 30
-2.33125
 41
5.9944
 42
5.9944
 50
270.0
  0
LINE
  5
15C
330
155
100
AcDbEntity
  8
FORMAT
100
AcDbLine
 10
43.3134703379
 20
153.6697154932
 30
0.0
 11
51.8789379935
 21
153.6697154932
 31
0.0
  0
LINE
  5
15D
330
155
100
AcDbEntity
  8
FORMAT
100
AcDbLine
 10
51.8789379935
 20
153.6697154932
 30
0.0
 11
51.8789379935
 21
154.9585044286
 31
0.0
  0
LINE
  5
15E
330
155
100
AcDbEntity
  8
FORMAT
100
AcDbLine
 10
43.3134703379
 20
153.6697154932
 30
0.0
 11
43.3134703379
 21
154.9585044286
 31
0.0
  0
LINE
  5
15F
330
155
100
AcDbEntity
  8
FORMAT
100
AcDbLine
 10
43.3134703379
 20
179.9348356966
 30
0.0
 11
51.8789379935
 21
179.9348356966
 31
0.0
  0
LINE
  5
160
330
155
100
AcDbEntity
  8
FORMAT
100
AcDbLine
 10
51.8789379935
 20
179.9348356966
 30
0.0
 11
51.8789379935
 21
178.6460467612
 31
0.0
  0
LINE
  5
161
330
155
100
AcDbEntity
  8
FORMAT
100
AcDbLine
 10
43.3134703379
 20
179.9348356966
 30
0.0
 11
43.3134703379
 21
178.6460467612
 31
0.0
  0
LINE
  5
162
330
155
100
AcDbEntity
  8
FORMAT
100
AcDbLine
 10
73.8696108023
 20
148.8084006567
 30
0.0
 11
61.7211353226
 21
148.8084006567
 31
0.0
  0
LINE
  5
163
330
155
100
AcDbEntity
  8
FORMAT
100
AcDbLine
 10
72.2821108023
 20
150.3959006567
 30
0.0
 11
61.7211353226
 21
150.3959006567
 31
0.0
  0
LINE
  5
164
330
155
100
AcDbEntity
  8
FORMAT
100
AcDbLine
 10
62.7117353226
 20
148.8084006567
 30
0.0
 11
62.7117353226
 21
136.8196006567
 31
0.0
  0
LINE
  5
165
330
155
100
AcDbEntity
  8
FORMAT
100
AcDbLine
 10
62.7117353226
 20
148.8084006567
 30
0.0
 11
62.7117353226
 21
150.3959006567
 31
0.0
  0
LINE
  5
166
330
155
100
AcDbEntity
  8
FORMAT
100
AcDbLine
 10
62.7117353226
 20
150.3959006567
 30
0.0
 11
62.7117353226
 21
187.2725254803
 31
0.0
  0
MTEXT
  5
167
330
155
100
AcDbEntity
  8
FORMAT
100
AcDbMText
 10
54.5261544766
 20
158.5915805226
 30
0.0
 40
6.35
 41
0.0
 71
     1
 72
     1
  1
3.18
  7
SLDTEXTSTYLE0
 11
6.123233995736766E-17
 21
1.0
 31
0.0
 73
     1
 44
1.0
  0
MTEXT
  5
168
330
155
100
AcDbEntity
  8
FORMAT
100
AcDbMText
 10
44.4491337053
 20
156.2472933641
 30
0.0
 40
6.35
 41
0.0
 71
     1
 72
     1
  1
0.125
  7
SLDTEXTSTYLE0
 11
6.123233995736766E-17
 21
1.0
 31
0.0
 73
     1
 44
1.0
  0
ENDBLK
  5
157
330
155
100
AcDbEntity
  8
0
100
AcDbBlockEnd
  0
BLOCK
  5
16B
330
16A
100
AcDbEntity
  8
0
100
AcDbBlockBegin
  2
*D13
 70
     1
 10
0.0
 20
0.0
 30
0.0
  3
*D13
  1

  0
ARC
  5
16D
330
16A
100
AcDbEntity
  8
FORMAT
100
AcDbCircle
 10
105.978129518
 20
176.8792963662
 30
0.0
 40
22.53290345530913
100
AcDbArc
 50
153.4349488229
 51
206.5650511771
  0
ARC
  5
16E
330
16A
100
AcDbEntity
  8
FORMAT
100
AcDbCircle
 10
100.2653223781
 20
176.8792963662
 30
0.0
 40
22.53290345530913
100
AcDbArc
 50
333.4349488229
 51
26.5650511771
  0
INSERT
  5
16F
330
16A
100
AcDbEntity
  8
FORMAT
100
AcDbBlockReference
  2
_CLOSED
 10
95.6564608023
 20
166.8022755949
 30
-2.33125
 41
5.9944
 42
5.9944
 50
0.0
  0
INSERT
  5
170
330
16A
100
AcDbEntity
  8
FORMAT
100
AcDbBlockReference
  2
_CLOSED
 10
111.5314608023
 20
166.8022755949
 30
-2.33125
 41
5.9944
 42
5.9944
 50
180.0
  0
LINE
  5
171
330
16A
100
AcDbEntity
  8
FORMAT
100
AcDbLine
 10
89.9891658463
 20
186.2005405797
 30
0.0
 11
89.9891658463
 21
177.6350729241
 31
0.0
  0
LINE
  5
172
330
16A
100
AcDbEntity
  8
FORMAT
100
AcDbLine
 10
89.9891658463
 20
177.6350729241
 30
0.0
 11
91.2779547818
 21
177.6350729241
 31
0.0
  0
LINE
  5
173
330
16A
100
AcDbEntity
  8
FORMAT
100
AcDbLine
 10
89.9891658463
 20
186.2005405797
 30
0.0
 11
91.2779547818
 21
186.2005405797
 31
0.0
  0
LINE
  5
174
330
16A
100
AcDbEntity
  8
FORMAT
100
AcDbLine
 10
116.2542860498
 20
186.2005405797
 30
0.0
 11
116.2542860498
 21
177.6350729241
 31
0.0
  0
LINE
  5
175
330
16A
100
AcDbEntity
  8
FORMAT
100
AcDbLine
 10
116.2542860498
 20
177.6350729241
 30
0.0
 11
114.9654971143
 21
177.6350729241
 31
0.0
  0
LINE
  5
176
330
16A
100
AcDbEntity
  8
FORMAT
100
AcDbLine
 10
116.2542860498
 20
186.2005405797
 30
0.0
 11
114.9654971143
 21
186.2005405797
 31
0.0
  0
LINE
  5
177
330
16A
100
AcDbEntity
  8
FORMAT
100
AcDbLine
 10
95.6564608023
 20
157.7928755949
 30
0.0
 11
95.6564608023
 21
167.7928755949
 31
0.0
  0
LINE
  5
178
330
16A
100
AcDbEntity
  8
FORMAT
100
AcDbLine
 10
111.5314608023
 20
129.1615006567
 30
0.0
 11
111.5314608023
 21
167.7928755949
 31
0.0
  0
LINE
  5
179
330
16A
100
AcDbEntity
  8
FORMAT
100
AcDbLine
 10
95.6564608023
 20
166.8022755949
 30
0.0
 11
83.6676608023
 21
166.8022755949
 31
0.0
  0
LINE
  5
17A
330
16A
100
AcDbEntity
  8
FORMAT
100
AcDbLine
 10
95.6564608023
 20
166.8022755949
 30
0.0
 11
111.5314608023
 21
166.8022755949
 31
0.0
  0
LINE
  5
17B
330
16A
100
AcDbEntity
  8
FORMAT
100
AcDbLine
 10
111.5314608023
 20
166.8022755949
 30
0.0
 11
123.5202608023
 21
166.8022755949
 31
0.0
  0
MTEXT
  5
17C
330
16A
100
AcDbEntity
  8
FORMAT
100
AcDbMText
 10
92.5667437173
 20
174.987856441
 30
0.0
 40
6.35
 41
0.0
 71
     1
 72
     1
  1
31.75
  7
SLDTEXTSTYLE0
 73
     1
 44
1.0
  0
MTEXT
  5
17D
330
16A
100
AcDbEntity
  8
FORMAT
100
AcDbMText
 10
92.5667437173
 20
185.0648772123
 30
0.0
 40
6.35
 41
0.0
 71
     1
 72
     1
  1
1.250
  7
SLDTEXTSTYLE0
 73
     1
 44
1.0
  0
ENDBLK
  5
16C
330
16A
100
AcDbEntity
  8
0
100
AcDbBlockEnd
  0
BLOCK
  5
181
330
180
100
AcDbEntity
  8
0
100
AcDbBlockBegin
  2
*D14
 70
     1
 10
0.0
 20
0.0
 30
0.0
  3
*D14
  1

  0
INSERT
  5
183
330
180
100
AcDbEntity
  8
FORMAT
100
AcDbBlockReference
  2
_CLOSED
 10
116.6874272469
 20
149.3876529253
 30
-2.33125
 41
5.9944
 42
5.9944
 50
247.9419177682
  0
LINE
  5
184
330
180
100
AcDbEntity
  8
FORMAT
100
AcDbLine
 10
116.6874272469
 20
149.3876529253
 30
0.0
 11
125.6172052274
 21
171.4252828933
 31
0.0
  0
LINE
  5
185
330
180
100
AcDbEntity
  8
FORMAT
100
AcDbLine
 10
125.6172052274
 20
171.4252828933
 30
0.0
 11
224.6646688237
 21
171.4252828933
 31
0.0
  0
MTEXT
  5
186
330
180
100
AcDbEntity
  8
FORMAT
100
AcDbMText
 10
131.7922052274
 20
179.6108637394
 30
0.0
 40
6.35
 41
0.0
 71
     1
 72
     1
  1
M3x0.5
  7
SLDTEXTSTYLE0
 73
     1
 44
1.0
  0
MTEXT
  5
187
330
180
100
AcDbEntity
  8
FORMAT
100
AcDbMText
 10
162.3134584274
 20
179.6108637394
 30
0.0
 40
6.35
 41
0.0
 71
     1
 72
     1
  1
 - 6H 
  7
SLDTEXTSTYLE0
 73
     1
 44
1.0
  0
MTEXT
  5
188
330
180
100
AcDbEntity
  8
FORMAT
100
AcDbMText
 10
182.6382004913
 20
179.6108637394
 30
0.0
 40
6.35
 41
0.0
 71
     1
 72
     1
  1
THRU ALL
  7
SLDTEXTSTYLE0
 73
     1
 44
1.0
  0
MTEXT
  5
189
330
180
100
AcDbEntity
  8
FORMAT
100
AcDbMText
 10
134.3100379158
 20
189.6878845107
 30
0.0
 40
6.35
 41
0.0
 71
     1
 72
     1
  1
4
  7
SLDTEXTSTYLE0
 73
     1
 44
1.0
  0
MTEXT
  5
18A
330
180
100
AcDbEntity
  8
FORMAT
100
AcDbMText
 10
139.3684633623
 20
189.7848975893
 30
0.0
 40
6.35
 41
0.0
 71
     1
 72
     1
  1
 x 
  7
SLDTEXTSTYLE0
 73
     1
 44
1.0
  0
MTEXT
  5
18B
330
180
100
AcDbEntity
  8
FORMAT
100
AcDbMText
 10
148.1261719565
 20
189.6878836958
 30
0.0
 40
6.35
 41
0.0
 71
     1
 72
     1
  1
%%c
  7
SLDTEXTSTYLE0
 73
     1
 44
1.0
  0
MTEXT
  5
18C
330
180
100
AcDbEntity
  8
FORMAT
100
AcDbMText
 10
157.7027645509
 20
189.7848975893
 30
0.0
 40
6.35
 41
0.0
 71
     1
 72
     1
  1
 
  7
SLDTEXTSTYLE0
 73
     1
 44
1.0
  0
MTEXT
  5
18D
330
180
100
AcDbEntity
  8
FORMAT
100
AcDbMText
 10
160.0459865034
 20
189.6878845107
 30
0.0
 40
6.35
 41
0.0
 71
     1
 72
     1
  1
2.50
  7
SLDTEXTSTYLE0
 73
     1
 44
1.0
  0
MTEXT
  5
18E
330
180
100
AcDbEntity
  8
FORMAT
100
AcDbMText
 10
177.7760806442
 20
189.6878845107
 30
0.0
 40
6.35
 41
0.0
 71
     1
 72
     1
  1
 
  7
SLDTEXTSTYLE0
 73
     1
 44
1.0
  0
MTEXT
  5
18F
330
180
100
AcDbEntity
  8
FORMAT
100
AcDbMText
 10
180.1203678028
 20
189.6878845107
 30
0.0
 40
6.35
 41
0.0
 71
     1
 72
     1
  1
THRU ALL
  7
SLDTEXTSTYLE0
 73
     1
 44
1.0
  0
ENDBLK
  5
182
330
180
100
AcDbEntity
  8
0
100
AcDbBlockEnd
  0
BLOCK
  5
192
330
191
100
AcDbEntity
  8
0
100
AcDbBlockBegin
  2
*D15
 70
     1
 10
0.0
 20
0.0
 30
0.0
  3
*D15
  1

  0
INSERT
  5
194
330
191
100
AcDbEntity
  8
FORMAT
100
AcDbBlockReference
  2
_CLOSED
 10
112.7221792324
 20
128.8585158254
 30
-2.33125
 41
5.9944
 42
5.9944
 50
210.00554161
  0
LINE
  5
195
330
191
100
AcDbEntity
  8
FORMAT
100
AcDbLine
 10
112.7221792324
 20
128.8585158254
 30
0.0
 11
129.4065899724
 21
138.4934165845
 31
0.0
  0
LINE
  5
196
330
191
100
AcDbEntity
  8
FORMAT
100
AcDbLine
 10
129.4065899724
 20
138.4934165845
 30
0.0
 11
216.2205162124
 21
138.4934165845
 31
0.0
  0
INSERT
  5
19D
330
191
100
AcDbEntity
  8
FORMAT
100
AcDbBlockReference
  2
SW_SYMBOL_HOLE_SPOT
 10
149.1921115337
 20
139.3739828744
 30
0.0
 41
0.0081111328
 42
0.0081111328
 43
0.0081111328
  0
MTEXT
  5
19E
330
191
100
AcDbEntity
  8
FORMAT
100
AcDbMText
 10
166.3291733382
 20
146.6789966157
 30
0.0
 40
6.35
 41
0.0
 71
     1
 72
     1
  1
%%c
  7
SLDTEXTSTYLE0
 73
     1
 44
1.0
  0
MTEXT
  5
19F
330
191
100
AcDbEntity
  8
FORMAT
100
AcDbMText
 10
175.9057659326
 20
146.7760105092
 30
0.0
 40
6.35
 41
0.0
 71
     1
 72
     1
  1
 
  7
SLDTEXTSTYLE0
 73
     1
 44
1.0
  0
MTEXT
  5
1A0
330
191
100
AcDbEntity
  8
FORMAT
100
AcDbMText
 10
178.2510302683
 20
146.6789974306
 30
0.0
 40
6.35
 41
0.0
 71
     1
 72
     1
  1
10
  7
SLDTEXTSTYLE0
 73
     1
 44
1.0
  0
MTEXT
  5
1A1
330
191
100
AcDbEntity
  8
FORMAT
100
AcDbMText
 10
188.379261196
 20
146.7760105092
 30
0.0
 40
6.35
 41
0.0
 71
     1
 72
     1
  1
 
  7
SLDTEXTSTYLE0
 73
     1
 44
1.0
  0
INSERT
  5
1A9
330
191
100
AcDbEntity
  8
FORMAT
100
AcDbBlockReference
  2
SW_SYMBOL_HOLE_DEPTH
 10
190.7252334248
 20
139.3739828744
 30
0.0
 41
0.0081111328
 42
0.0081111328
 43
0.0081111328
  0
MTEXT
  5
1AA
330
191
100
AcDbEntity
  8
FORMAT
100
AcDbMText
 10
199.7977956388
 20
146.7760105092
 30
0.0
 40
6.35
 41
0.0
 71
     1
 72
     1
  1
 
  7
SLDTEXTSTYLE0
 73
     1
 44
1.0
  0
MTEXT
  5
1AB
330
191
100
AcDbEntity
  8
FORMAT
100
AcDbMText
 10
202.1434132264
 20
146.6789974306
 30
0.0
 40
6.35
 41
0.0
 71
     1
 72
     1
  1
5
  7
SLDTEXTSTYLE0
 73
     1
 44
1.0
  0
MTEXT
  5
1AC
330
191
100
AcDbEntity
  8
FORMAT
100
AcDbMText
 10
135.5815899724
 20
156.7560182019
 30
0.0
 40
6.35
 41
0.0
 71
     1
 72
     1
  1
4
  7
SLDTEXTSTYLE0
 73
     1
 44
1.0
  0
MTEXT
  5
1AD
330
191
100
AcDbEntity
  8
FORMAT
100
AcDbMText
 10
140.6400154189
 20
156.8530312805
 30
0.0
 40
6.35
 41
0.0
 71
     1
 72
     1
  1
 x 
  7
SLDTEXTSTYLE0
 73
     1
 44
1.0
  0
MTEXT
  5
1AE
330
191
100
AcDbEntity
  8
FORMAT
100
AcDbMText
 10
149.3977240131
 20
156.756017387
 30
0.0
 40
6.35
 41
0.0
 71
     1
 72
     1
  1
%%c
  7
SLDTEXTSTYLE0
 73
     1
 44
1.0
  0
MTEXT
  5
1AF
330
191
100
AcDbEntity
  8
FORMAT
100
AcDbMText
 10
158.9743166075
 20
156.8530312805
 30
0.0
 40
6.35
 41
0.0
 71
     1
 72
     1
  1
 
  7
SLDTEXTSTYLE0
 73
     1
 44
1.0
  0
MTEXT
  5
1B0
330
191
100
AcDbEntity
  8
FORMAT
100
AcDbMText
 10
161.31753856
 20
156.7560182019
 30
0.0
 40
6.35
 41
0.0
 71
     1
 72
     1
  1
5.50
  7
SLDTEXTSTYLE0
 73
     1
 44
1.0
  0
MTEXT
  5
1B1
330
191
100
AcDbEntity
  8
FORMAT
100
AcDbMText
 10
179.0476327008
 20
156.7560182019
 30
0.0
 40
6.35
 41
0.0
 71
     1
 72
     1
  1
 
  7
SLDTEXTSTYLE0
 73
     1
 44
1.0
  0
MTEXT
  5
1B2
330
191
100
AcDbEntity
  8
FORMAT
100
AcDbMText
 10
181.3919198594
 20
156.7560182019
 30
0.0
 40
6.35
 41
0.0
 71
     1
 72
     1
  1
THRU ALL
  7
SLDTEXTSTYLE0
 73
     1
 44
1.0
  0
ENDBLK
  5
193
330
191
100
AcDbEntity
  8
0
100
AcDbBlockEnd
  0
BLOCK
  5
198
330
197
100
AcDbEntity
  8
0
100
AcDbBlockBegin
  2
SW_SYMBOL_HOLE_SPOT
 70
     0
 10
0.0
 20
0.0
 30
0.0
  3
SW_SYMBOL_HOLE_SPOT
  1

  0
LINE
  5
19A
330
197
100
AcDbEntity
  8
FORMAT
 62
     0
100
AcDbLine
 10
0.0
 20
875.0
 30
0.0
 11
0.0
 21
75.0
 31
0.0
  0
LINE
  5
19B
330
197
100
AcDbEntity
  8
FORMAT
 62
     0
100
AcDbLine
 10
0.0
 20
75.0
 30
0.0
 11
1600.0
 21
75.0
 31
0.0
  0
LINE
  5
19C
330
197
100
AcDbEntity
  8
FORMAT
 62
     0
100
AcDbLine
 10
1600.0
 20
75.0
 30
0.0
 11
1600.0
 21
875.0
 31
0.0
  0
ENDBLK
  5
199
330
197
100
AcDbEntity
  8
0
100
AcDbBlockEnd
  0
BLOCK
  5
1A3
330
1A2
100
AcDbEntity
  8
0
100
AcDbBlockBegin
  2
SW_SYMBOL_HOLE_DEPTH
 70
     0
 10
0.0
 20
0.0
 30
0.0
  3
SW_SYMBOL_HOLE_DEPTH
  1

  0
LINE
  5
1A5
330
1A2
100
AcDbEntity
  8
FORMAT
 62
     0
100
AcDbLine
 10
0.0
 20
875.0
 30
0.0
 11
800.0
 21
875.0
 31
0.0
  0
LINE
  5
1A6
330
1A2
100
AcDbEntity
  8
FORMAT
 62
     0
100
AcDbLine
 10
400.0
 20
875.0
 30
0.0
 11
400.0
 21
75.0
 31
0.0
  0
LINE
  5
1A7
330
1A2
100
AcDbEntity
  8
FORMAT
 62
     0
100
AcDbLine
 10
100.0
 20
555.0
 30
0.0
 11
400.0
 21
75.0
 31
0.0
  0
LINE
  5
1A8
330
1A2
100
AcDbEntity
  8
FORMAT
 62
     0
100
AcDbLine
 10
700.0
 20
555.0
 30
0.0
 11
400.0
 21
75.0
 31
0.0
  0
ENDBLK
  5
1A4
330
1A2
100
AcDbEntity
  8
0
100
AcDbBlockEnd
  0
BLOCK
  5
1E0
330
1DF
100
AcDbEntity
  8
0
100
AcDbBlockBegin
  2
*D18
 70
     1
 10
0.0
 20
0.0
 30
0.0
  3
*D18
  1

  0
ARC
  5
1E2
330
1DF
100
AcDbEntity
  8
FORMAT
100
AcDbCircle
 10
246.7011014766
 20
194.472921428
 30
0.0
 40
22.5329034553091
100
AcDbArc
 50
153.4349488229
 51
206.5650511771
  0
ARC
  5
1E3
330
1DF
100
AcDbEntity
  8
FORMAT
100
AcDbCircle
 10
240.9882943367
 20
194.472921428
 30
0.0
 40
22.53290345530908
100
AcDbArc
 50
333.4349488229
 51
26.5650511771
  0
INSERT
  5
1E4
330
1DF
100
AcDbEntity
  8
FORMAT
100
AcDbBlockReference
  2
_CLOSED
 10
246.2259479067
 20
184.3959006567
 30
19.179375
 41
5.9944
 42
5.9944
 50
180.0
  0
INSERT
  5
1E5
330
1DF
100
AcDbEntity
  8
FORMAT
100
AcDbBlockReference
  2
_CLOSED
 10
241.4634479067
 20
184.3959006567
 30
19.179375
 41
5.9944
 42
5.9944
 50
360.0
  0
LINE
  5
1E6
330
1DF
100
AcDbEntity
  8
FORMAT
100
AcDbLine
 10
230.7121378049
 20
203.7941656414
 30
0.0
 11
230.7121378049
 21
195.2286979858
 31
0.0
  0
LINE
  5
1E7
330
1DF
100
AcDbEntity
  8
FORMAT
100
AcDbLine
 10
230.7121378049
 20
195.2286979858
 30
0.0
 11
232.0009267404
 21
195.2286979858
 31
0.0
  0
LINE
  5
1E8
330
1DF
100
AcDbEntity
  8
FORMAT
100
AcDbLine
 10
230.7121378049
 20
203.7941656414
 30
0.0
 11
232.0009267404
 21
203.7941656414
 31
0.0
  0
LINE
  5
1E9
330
1DF
100
AcDbEntity
  8
FORMAT
100
AcDbLine
 10
256.9772580084
 20
203.7941656414
 30
0.0
 11
256.9772580084
 21
195.2286979858
 31
0.0
  0
LINE
  5
1EA
330
1DF
100
AcDbEntity
  8
FORMAT
100
AcDbLine
 10
256.9772580084
 20
195.2286979858
 30
0.0
 11
255.6884690729
 21
195.2286979858
 31
0.0
  0
LINE
  5
1EB
330
1DF
100
AcDbEntity
  8
FORMAT
100
AcDbLine
 10
256.9772580084
 20
203.7941656414
 30
0.0
 11
255.6884690729
 21
203.7941656414
 31
0.0
  0
LINE
  5
1EC
330
1DF
100
AcDbEntity
  8
FORMAT
100
AcDbLine
 10
246.2259479067
 20
151.3865006567
 30
0.0
 11
246.2259479067
 21
185.3865006567
 31
0.0
  0
LINE
  5
1ED
330
1DF
100
AcDbEntity
  8
FORMAT
100
AcDbLine
 10
241.4634479067
 20
151.3865006567
 30
0.0
 11
241.4634479067
 21
185.3865006567
 31
0.0
  0
LINE
  5
1EE
330
1DF
100
AcDbEntity
  8
FORMAT
100
AcDbLine
 10
246.2259479067
 20
184.3959006567
 30
0.0
 11
258.2147479067
 21
184.3959006567
 31
0.0
  0
LINE
  5
1EF
330
1DF
100
AcDbEntity
  8
FORMAT
100
AcDbLine
 10
246.2259479067
 20
184.3959006567
 30
0.0
 11
241.4634479067
 21
184.3959006567
 31
0.0
  0
LINE
  5
1F0
330
1DF
100
AcDbEntity
  8
FORMAT
100
AcDbLine
 10
241.4634479067
 20
184.3959006567
 30
0.0
 11
229.4746479067
 21
184.3959006567
 31
0.0
  0
MTEXT
  5
1F1
330
1DF
100
AcDbEntity
  8
FORMAT
100
AcDbMText
 10
235.6340028344
 20
192.5814815027
 30
0.0
 40
6.35
 41
0.0
 71
     1
 72
     1
  1
9.53
  7
SLDTEXTSTYLE0
 73
     1
 44
1.0
  0
MTEXT
  5
1F2
330
1DF
100
AcDbEntity
  8
FORMAT
100
AcDbMText
 10
233.2897156759
 20
202.658502274
 30
0.0
 40
6.35
 41
0.0
 71
     1
 72
     1
  1
0.375
  7
SLDTEXTSTYLE0
 73
     1
 44
1.0
  0
ENDBLK
  5
1E1
330
1DF
100
AcDbEntity
  8
0
100
AcDbBlockEnd
  0
ENDSEC
  0
SECTION
  2
ENTITIES
  0
LINE
  5
41
330
1F
100
AcDbEntity
  8
0
  6
Continuous
 62
     8
370
     0
100
AcDbLine
 10
8.3801458
 20
208.0786585366
 30
0.0
 11
270.0001458
 21
208.0786585366
 31
0.0
  0
LINE
  5
42
330
1F
100
AcDbEntity
  8
0
  6
Continuous
 62
     8
370
     0
100
AcDbLine
 10
8.3801458
 20
208.0786585366
 30
0.0
 11
8.3801458
 21
9.9586585366
 31
0.0
  0
LINE
  5
43
330
1F
100
AcDbEntity
  8
0
  6
Continuous
 62
     8
370
     0
100
AcDbLine
 10
270.0001458
 20
9.9586585366
 30
0.0
 11
8.3801458
 21
9.9586585366
 31
0.0
  0
LINE
  5
44
330
1F
100
AcDbEntity
  8
0
  6
Continuous
 62
     8
370
     0
100
AcDbLine
 10
270.0001458
 20
9.9586585366
 30
0.0
 11
270.0001458
 21
208.0786585366
 31
0.0
  0
LINE
  5
45
330
1F
100
AcDbEntity
  8
0
  6
Continuous
 62
     8
370
     0
100
AcDbLine
 10
143.0001458
 20
9.9586585366
 30
0.0
 11
143.0001458
 21
48.0586585366
 31
0.0
  0
LINE
  5
46
330
1F
100
AcDbEntity
  8
0
  6
Continuous
 62
     8
370
     0
100
AcDbLine
 10
143.0001458
 20
48.0586585366
 30
0.0
 11
270.0001458
 21
48.0586585366
 31
0.0
  0
LINE
  5
47
330
1F
100
AcDbEntity
  8
0
  6
Continuous
 62
     8
370
     0
100
AcDbLine
 10
176.4516579819
 20
48.0586585366
 30
0.0
 11
176.4516579819
 21
9.9586585366
 31
0.0
  0
LINE
  5
48
330
1F
100
AcDbEntity
  8
0
  6
Continuous
 62
     8
370
     0
100
AcDbLine
 10
211.1140303648
 20
48.0586585366
 30
0.0
 11
211.1140303648
 21
9.9586585366
 31
0.0
  0
LINE
  5
49
330
1F
100
AcDbEntity
  8
0
  6
Continuous
 62
     8
370
     0
100
AcDbLine
 10
211.1140303648
 20
13.1336585366
 30
0.0
 11
270.0001458
 21
13.1336585366
 31
0.0
  0
LINE
  5
4A
330
1F
100
AcDbEntity
  8
0
  6
Continuous
 62
     8
370
     0
100
AcDbLine
 10
211.1140303648
 20
19.4836585366
 30
0.0
 11
270.0001458
 21
19.4836585366
 31
0.0
  0
LINE
  5
4B
330
1F
100
AcDbEntity
  8
0
  6
Continuous
 62
     8
370
     0
100
AcDbLine
 10
176.4516579819
 20
25.1986585366
 30
0.0
 11
211.1140303648
 21
25.1986585366
 31
0.0
  0
LINE
  5
4C
330
1F
100
AcDbEntity
  8
0
  6
Continuous
 62
     8
370
     0
100
AcDbLine
 10
216.2120359495
 20
19.4836585366
 30
0.0
 11
216.2120359495
 21
13.1336585366
 31
0.0
  0
LINE
  5
4D
330
1F
100
AcDbEntity
  8
0
  6
Continuous
 62
     8
370
     0
100
AcDbLine
 10
252.6938254626
 20
13.1336585366
 30
0.0
 11
252.6938254626
 21
9.9586585366
 31
0.0
  0
LINE
  5
4E
330
1F
100
AcDbEntity
  8
0
  6
Continuous
 62
     8
370
     0
100
AcDbLine
 10
263.5695287515
 20
19.4836585366
 30
0.0
 11
263.5695287515
 21
13.1336585366
 31
0.0
  0
LINE
  5
4F
330
1F
100
AcDbEntity
  8
0
  6
Continuous
 62
     8
370
     0
100
AcDbLine
 10
222.990073301
 20
13.1336585366
 30
0.0
 11
222.990073301
 21
9.9586585366
 31
0.0
  0
LINE
  5
50
330
1F
100
AcDbEntity
  8
0
  6
Continuous
 62
     8
370
     0
100
AcDbLine
 10
199.3765949972
 20
48.0586585366
 30
0.0
 11
199.3765949972
 21
25.1986585366
 31
0.0
  0
LINE
  5
51
330
1F
100
AcDbEntity
  8
0
  6
Continuous
 62
     8
370
     0
100
AcDbLine
 10
143.0001458
 20
15.7358512153
 30
0.0
 11
176.4516579819
 21
15.7358512153
 31
0.0
  0
LINE
  5
52
330
1F
100
AcDbEntity
  8
0
  6
Continuous
 62
     8
370
     0
100
AcDbLine
 10
176.4516579819
 20
44.2486585366
 30
0.0
 11
211.1140303648
 21
44.2486585366
 31
0.0
  0
LINE
  5
53
330
1F
100
AcDbEntity
  8
0
  6
Continuous
 62
     8
370
     0
100
AcDbLine
 10
187.2851272337
 20
48.0586585366
 30
0.0
 11
187.2851272337
 21
25.1986585366
 31
0.0
  0
LINE
  5
54
330
1F
100
AcDbEntity
  8
0
  6
Continuous
 62
     8
370
     0
100
AcDbLine
 10
143.0001458
 20
22.0858512153
 30
0.0
 11
176.4516579819
 21
22.0858512153
 31
0.0
  0
LINE
  5
55
330
1F
100
AcDbEntity
  8
0
  6
Continuous
 62
     8
370
     0
100
AcDbLine
 10
176.4516579819
 20
28.3137757838
 30
0.0
 11
143.0001458
 21
28.3137757838
 31
0.0
  0
LINE
  5
56
330
1F
100
AcDbEntity
  8
0
  6
Continuous
 62
     8
370
     0
100
AcDbLine
 10
116.774944898
 20
9.9586585366
 30
0.0
 11
116.774944898
 21
48.0586585366
 31
0.0
  0
LINE
  5
57
330
1F
100
AcDbEntity
  8
0
  6
Continuous
 62
     8
370
     0
100
AcDbLine
 10
116.774944898
 20
48.0586585366
 30
0.0
 11
143.0001458
 21
48.0586585366
 31
0.0
  0
LINE
  5
58
330
1F
100
AcDbEntity
  8
0
  6
Continuous
 62
     8
370
     0
100
AcDbLine
 10
143.0001458
 20
15.7358512153
 30
0.0
 11
116.774944898
 21
15.7358512153
 31
0.0
  0
LINE
  5
59
330
1F
100
AcDbEntity
  8
0
  6
Continuous
 62
     8
370
     0
100
AcDbLine
 10
116.774944898
 20
32.8186585366
 30
0.0
 11
75.4398329509
 21
32.8186585366
 31
0.0
  0
LINE
  5
5A
330
1F
100
AcDbEntity
  8
0
  6
Continuous
 62
     8
370
     0
100
AcDbLine
 10
75.4398329509
 20
32.8186585366
 30
0.0
 11
75.4398329509
 21
9.9586585366
 31
0.0
  0
LINE
  5
5B
330
1F
100
AcDbEntity
  8
0
  6
Continuous
 62
     8
370
     0
100
AcDbLine
 10
130.026886898
 20
48.0586585366
 30
0.0
 11
130.026886898
 21
15.7358512153
 31
0.0
  0
LINE
  5
5C
330
1F
100
AcDbEntity
  8
0
  6
Continuous
 62
     8
370
     0
100
AcDbLine
 10
176.4516579819
 20
40.4386585366
 30
0.0
 11
270.0001458
 21
40.4386585366
 31
0.0
  0
LINE
  5
5D
330
1F
100
AcDbEntity
  8
0
  6
Continuous
 62
     8
370
     0
100
AcDbLine
 10
176.4516579819
 20
36.6286585366
 30
0.0
 11
211.1140303648
 21
36.6286585366
 31
0.0
  0
LINE
  5
5E
330
1F
100
AcDbEntity
  8
0
  6
Continuous
 62
     8
370
     0
100
AcDbLine
 10
176.4516579819
 20
32.8186585366
 30
0.0
 11
211.1140303648
 21
32.8186585366
 31
0.0
  0
LINE
  5
5F
330
1F
100
AcDbEntity
  8
0
  6
Continuous
 62
     8
370
     0
100
AcDbLine
 10
176.4516579819
 20
29.0086585366
 30
0.0
 11
211.1140303648
 21
29.0086585366
 31
0.0
  0
LINE
  5
60
330
1F
100
AcDbEntity
  8
0
  6
Continuous
 62
     8
370
     0
100
AcDbLine
 10
116.774944898
 20
44.2486585366
 30
0.0
 11
143.0001458
 21
44.2486585366
 31
0.0
  0
LINE
  5
61
330
1F
100
AcDbEntity
  8
0
  6
Continuous
 62
     8
370
     0
100
AcDbLine
 10
116.774944898
 20
40.4386585366
 30
0.0
 11
143.0001458
 21
40.4386585366
 31
0.0
  0
LINE
  5
62
330
1F
100
AcDbEntity
  8
0
  6
Continuous
 62
     8
370
     0
100
AcDbLine
 10
116.774944898
 20
36.6286585366
 30
0.0
 11
143.0001458
 21
36.6286585366
 31
0.0
  0
LINE
  5
63
330
1F
100
AcDbEntity
  8
0
  6
Continuous
 62
     8
370
     0
100
AcDbLine
 10
116.774944898
 20
32.8186585366
 30
0.0
 11
143.0001458
 21
32.8186585366
 31
0.0
  0
LINE
  5
64
330
1F
100
AcDbEntity
  8
0
  6
Continuous
 62
     8
370
     0
100
AcDbLine
 10
116.774944898
 20
29.0086585366
 30
0.0
 11
143.0001458
 21
29.0086585366
 31
0.0
  0
LINE
  5
65
330
1F
100
AcDbEntity
  8
0
  6
Continuous
 62
     8
370
     0
100
AcDbLine
 10
116.774944898
 20
25.1986585366
 30
0.0
 11
143.0001458
 21
25.1986585366
 31
0.0
  0
LINE
  5
66
330
1F
100
AcDbEntity
  8
0
  6
Continuous
 62
     8
370
     0
100
AcDbLine
 10
116.774944898
 20
21.3886585366
 30
0.0
 11
143.0001458
 21
21.3886585366
 31
0.0
  0
INSERT
  5
6D
330
1F
100
AcDbEntity
  8
FORMAT
100
AcDbBlockReference
  2
SW_NOTE_0
 10
211.7090790183
 20
62.8260708931
 30
0.0
  0
MTEXT
  5
6E
330
1F
100
AcDbEntity
  8
0
  6
Continuous
 62
     8
370
     0
100
AcDbMText
 10
215.2254706525
 20
46.538780922
 30
0.0
 40
3.96875
 41
0.0
 71
     1
 72
     1
  1
<COMPANY NAME>
  7
SLDTEXTSTYLE0
 73
     1
 44
1.0
  0
MTEXT
  5
6F
330
1F
100
AcDbEntity
  8
0
  6
Continuous
 62
     8
370
     0
100
AcDbMText
 10
211.7793376587
 20
12.287779388
 30
0.0
 40
1.3229166667
 41
0.0
 71
     1
 72
     1
  1
SCALE:1:2
  7
SLDTEXTSTYLE0
 73
     1
 44
1.0
  0
MTEXT
  5
70
330
1F
100
AcDbEntity
  8
0
  6
Continuous
 62
     8
370
     0
100
AcDbMText
 10
211.9023496367
 20
18.9478116115
 30
0.0
 40
1.3229166667
 41
0.0
 71
     1
 72
     1
  1
SIZE
  7
SLDTEXTSTYLE0
 73
     1
 44
1.0
  0
MTEXT
  5
72
330
1F
100
AcDbEntity
  8
0
  6
Continuous
 62
     8
370
     0
100
AcDbMText
 10
216.8536978539
 20
18.8439059874
 30
0.0
 40
1.3229166667
 41
0.0
 71
     1
 72
     1
  1
DWG.  NO.
  7
SLDTEXTSTYLE1
 73
     1
 44
1.0
  0
MTEXT
  5
73
330
1F
100
AcDbEntity
  8
0
  6
Continuous
 62
     8
370
     0
100
AcDbMText
 10
212.3905251951
 20
16.9959962471
 30
0.0
 40
2.54
 41
0.0
 71
     1
 72
     1
  1
A
  7
SLDTEXTSTYLE0
 73
     1
 44
1.0
  0
MTEXT
  5
74
330
1F
100
AcDbEntity
  8
0
  6
Continuous
 62
     8
370
     0
100
AcDbMText
 10
264.6045784572
 20
18.7653242907
 30
0.0
 40
1.3229166667
 41
0.0
 71
     1
 72
     1
  1
REV.
  7
SLDTEXTSTYLE0
 73
     1
 44
1.0
  0
MTEXT
  5
75
330
1F
100
AcDbEntity
  8
0
  6
Continuous
 62
     8
370
     0
100
AcDbMText
 10
144.1376297307
 20
27.4692452041
 30
0.0
 40
1.3229166667
 41
0.0
 71
     1
 72
     1
  1
MATERIAL
  7
SLDTEXTSTYLE0
 73
     1
 44
1.0
  0
MTEXT
  5
76
330
1F
100
AcDbEntity
  8
0
  6
Continuous
 62
     8
370
     0
100
AcDbMText
 10
144.107962828
 20
20.9903165296
 30
0.0
 40
1.3229166667
 41
0.0
 71
     1
 72
     1
  1
FINISH
  7
SLDTEXTSTYLE0
 73
     1
 44
1.0
  0
MTEXT
  5
77
330
1F
100
AcDbEntity
  8
0
  6
Continuous
 62
     8
370
     0
100
AcDbMText
 10
158.494379388
 20
26.8141189024
 30
0.0
 40
2.38125
 41
0.0
 71
     1
 72
     1
  1
--
  7
SLDTEXTSTYLE0
 73
     1
 44
1.0
  0
MTEXT
  5
78
330
1F
100
AcDbEntity
  8
0
  6
Continuous
 62
     8
370
     0
100
AcDbMText
 10
158.4300936069
 20
20.3772147063
 30
0.0
 40
2.38125
 41
0.0
 71
     1
 72
     1
  1
--
  7
SLDTEXTSTYLE0
 73
     1
 44
1.0
  0
MTEXT
  5
7A
330
1F
100
AcDbEntity
  8
0
  6
Continuous
 62
     8
370
     0
100
AcDbMText
 10
146.1341158626
 20
13.6529556097
 30
0.0
 40
1.5875
 41
0.0
 71
     1
 72
     1
  1
DO  NOT  SCALE  DRAWING
  7
SLDTEXTSTYLE2
 73
     1
 44
1.0
  0
MTEXT
  5
7B
330
1F
100
AcDbEntity
  8
0
  6
Continuous
 62
     8
370
     0
100
AcDbMText
 10
123.1373075583
 20
13.4423664803
 30
0.0
 40
1.5875
 41
0.0
 71
     1
 72
     1
  1
APPLICATION
  7
SLDTEXTSTYLE0
 73
     1
 44
1.0
  0
MTEXT
  5
7C
330
1F
100
AcDbEntity
  8
0
  6
Continuous
 62
     8
370
     0
100
AcDbMText
 10
132.0022088559
 20
19.6077399289
 30
0.0
 40
1.5875
 41
0.0
 71
     1
 72
     1
  1
USED ON
  7
SLDTEXTSTYLE0
 73
     1
 44
1.0
  0
MTEXT
  5
7D
330
1F
100
AcDbEntity
  8
0
  6
Continuous
 62
     8
370
     0
100
AcDbMText
 10
118.3327002182
 20
19.5541767099
 30
0.0
 40
1.5875
 41
0.0
 71
     1
 72
     1
  1
NEXT ASSY
  7
SLDTEXTSTYLE0
 73
     1
 44
1.0
  0
INSERT
  5
8D
330
1F
100
AcDbEntity
  8
0
  6
Continuous
 62
     8
370
     0
100
AcDbBlockReference
  2
SW_NOTE_1
 10
144.3123020786
 20
44.0388576052
 30
0.0
  0
MTEXT
  5
8E
330
1F
100
AcDbEntity
  8
0
  6
Continuous
 62
     8
370
     0
100
AcDbMText
 10
190.7830354534
 20
46.9111260877
 30
0.0
 40
1.3229166667
 41
0.0
 71
     1
 72
     1
  1
NAME
  7
SLDTEXTSTYLE0
 73
     1
 44
1.0
  0
MTEXT
  5
8F
330
1F
100
AcDbEntity
  8
0
  6
Continuous
 62
     8
370
     0
100
AcDbMText
 10
203.0113593517
 20
46.8596896379
 30
0.0
 40
1.3229166667
 41
0.0
 71
     1
 72
     1
  1
DATE
  7
SLDTEXTSTYLE0
 73
     1
 44
1.0
  0
MTEXT
  5
90
330
1F
100
AcDbEntity
  8
0
  6
Continuous
 62
     8
370
     0
100
AcDbMText
 10
177.2844289847
 20
43.1662087989
 30
0.0
 40
1.3229166667
 41
0.0
 71
     1
 72
     1
  1
DRAWN
  7
SLDTEXTSTYLE0
 73
     1
 44
1.0
  0
MTEXT
  5
91
330
1F
100
AcDbEntity
  8
0
  6
Continuous
 62
     8
370
     0
100
AcDbMText
 10
177.3452511362
 20
39.1082779854
 30
0.0
 40
1.3229166667
 41
0.0
 71
     1
 72
     1
  1
CHECKED
  7
SLDTEXTSTYLE0
 73
     1
 44
1.0
  0
MTEXT
  5
92
330
1F
100
AcDbEntity
  8
0
  6
Continuous
 62
     8
370
     0
100
AcDbMText
 10
177.3582907907
 20
35.4914942127
 30
0.0
 40
1.3229166667
 41
0.0
 71
     1
 72
     1
  1
ENG APPR.
  7
SLDTEXTSTYLE0
 73
     1
 44
1.0
  0
MTEXT
  5
93
330
1F
100
AcDbEntity
  8
0
  6
Continuous
 62
     8
370
     0
100
AcDbMText
 10
177.3698846248
 20
31.7087450751
 30
0.0
 40
1.3229166667
 41
0.0
 71
     1
 72
     1
  1
MFG APPR.
  7
SLDTEXTSTYLE0
 73
     1
 44
1.0
  0
MTEXT
  5
94
330
1F
100
AcDbEntity
  8
0
  6
Continuous
 62
     8
370
     0
100
AcDbMText
 10
177.4683412596
 20
27.9664834015
 30
0.0
 40
1.3229166667
 41
0.0
 71
     1
 72
     1
  1
Q.A.
  7
SLDTEXTSTYLE0
 73
     1
 44
1.0
  0
MTEXT
  5
96
330
1F
100
AcDbEntity
  8
0
  6
Continuous
 62
     8
370
     0
100
AcDbMText
 10
253.207095084
 20
12.2932314478
 30
0.0
 40
1.27
 41
0.0
 71
     1
 72
     1
  1
SHEET 1 OF 1
  7
SLDTEXTSTYLE3
 73
     1
 44
1.0
  0
MTEXT
  5
97
330
1F
100
AcDbEntity
  8
0
  6
Continuous
 62
     8
370
     0
100
AcDbMText
 10
223.7477120367
 20
12.1984788096
 30
0.0
 40
1.3229166667
 41
0.0
 71
     1
 72
     1
  1
WEIGHT:
  7
SLDTEXTSTYLE0
 73
     1
 44
1.0
  0
MTEXT
  5
98
330
1F
100
AcDbEntity
  8
0
  6
Continuous
 62
     8
370
     0
100
AcDbMText
 10
177.5295819392
 20
24.4368224288
 30
0.0
 40
1.3229166667
 41
0.0
 71
     1
 72
     1
  1
COMMENTS:
  7
SLDTEXTSTYLE0
 73
     1
 44
1.0
  0
INSERT
  5
A3
330
1F
100
AcDbEntity
  8
0
  6
Continuous
 62
     8
370
     0
100
AcDbBlockReference
  2
SW_NOTE_2
 10
76.4054461413
 20
26.3388051665
 30
0.0
  0
MTEXT
  5
A4
330
1F
100
AcDbEntity
  8
0
  6
Continuous
 62
     8
370
     0
100
AcDbMText
 10
80.201927896
 20
31.3719365463
 30
0.0
 40
1.524
 41
0.0
 71
     1
 72
     1
  1
PROPRIETARY AND CONFIDENTIAL
  7
SLDTEXTSTYLE0
 73
     1
 44
1.0
  0
LINE
  5
A5
330
1F
100
AcDbEntity
  8
0
  6
CENTERX2
 62
     7
100
AcDbLine
 10
95.6564608023
 20
156.8022755949
 30
0.0
 11
95.6564608023
 21
110.1738150583
 31
0.0
  0
LINE
  5
A6
330
1F
100
AcDbEntity
  8
0
  6
CENTERX2
 62
     7
100
AcDbLine
 10
67.1095091541
 20
115.4709006567
 30
0.0
 11
127.7889566829
 21
115.4709006567
 31
0.0
  0
LINE
  5
A7
330
1F
100
AcDbEntity
  8
0
  6
CENTERX2
 62
     7
100
AcDbLine
 10
79.7814608023
 20
110.5531505969
 30
0.0
 11
79.7814608023
 21
140.1874797967
 31
0.0
  0
CIRCLE
  5
A8
330
1F
100
AcDbEntity
  8
0
  6
Continuous
 62
     7
370
    15
100
AcDbCircle
 10
79.7814608023
 20
115.4709006567
 30
0.0
 40
2.5
  0
CIRCLE
  5
A9
330
1F
100
AcDbEntity
  8
0
  6
Continuous
 62
     7
370
    15
100
AcDbCircle
 10
79.7814608023
 20
128.1709006567
 30
0.0
 40
2.499999999999986
  0
CIRCLE
  5
AA
330
1F
100
AcDbEntity
  8
0
  6
Continuous
 62
     7
370
    15
100
AcDbCircle
 10
111.5314608023
 20
115.4709006567
 30
0.0
 40
2.5
  0
LINE
  5
AB
330
1F
100
AcDbEntity
  8
0
  6
Continuous
 62
     7
370
    15
100
AcDbLine
 10
73.2727108023
 20
112.2959006567
 30
0.0
 11
118.0402108023
 21
112.2959006567
 31
0.0
  0
LINE
  5
AC
330
1F
100
AcDbEntity
  8
0
  6
Continuous
 62
     7
370
    15
100
AcDbLine
 10
73.2727108023
 20
150.3959006567
 30
0.0
 11
73.2727108023
 21
112.2959006567
 31
0.0
  0
CIRCLE
  5
AD
330
1F
100
AcDbEntity
  8
0
  6
Continuous
 62
     7
370
    15
100
AcDbCircle
 10
111.5314608023
 20
128.1709006567
 30
0.0
 40
2.499999999999986
  0
LINE
  5
AE
330
1F
100
AcDbEntity
  8
0
  6
Continuous
 62
     7
370
    15
100
AcDbLine
 10
118.0402108023
 20
112.2959006567
 30
0.0
 11
118.0402108023
 21
150.3959006567
 31
0.0
  0
LINE
  5
AF
330
1F
100
AcDbEntity
  8
0
  6
Continuous
 62
     7
370
    15
100
AcDbLine
 10
118.0402108023
 20
150.3959006567
 30
0.0
 11
73.2727108023
 21
150.3959006567
 31
0.0
  0
CIRCLE
  5
B0
330
1F
100
AcDbEntity
  8
0
  6
Continuous
 62
     7
370
    15
100
AcDbCircle
 10
116.4527108023
 20
113.8834006567
 30
0.0
 40
0.6249999999999858
  0
CIRCLE
  5
B1
330
1F
100
AcDbEntity
  8
0
  6
Continuous
 62
     7
370
    15
100
AcDbCircle
 10
74.8602108023
 20
113.8834006567
 30
0.0
 40
0.6249999999999858
  0
CIRCLE
  5
B2
330
1F
100
AcDbEntity
  8
0
  6
Continuous
 62
     7
370
    15
100
AcDbCircle
 10
74.8602108023
 20
148.8084006567
 30
0.0
 40
0.6249999999999716
  0
CIRCLE
  5
B3
330
1F
100
AcDbEntity
  8
0
  6
Continuous
 62
     7
370
    15
100
AcDbCircle
 10
116.4527108023
 20
148.8084006567
 30
0.0
 40
0.6249999999999716
  0
CIRCLE
  5
B4
330
1F
100
AcDbEntity
  8
0
  6
Continuous
 62
     7
370
    15
100
AcDbCircle
 10
111.5314608023
 20
128.1709006567
 30
0.0
 40
1.375
  0
CIRCLE
  5
B5
330
1F
100
AcDbEntity
  8
0
  6
Continuous
 62
     7
370
    15
100
AcDbCircle
 10
111.5314608023
 20
115.4709006567
 30
0.0
 40
1.375
  0
CIRCLE
  5
B6
330
1F
100
AcDbEntity
  8
0
  6
Continuous
 62
     7
370
    15
100
AcDbCircle
 10
79.7814608023
 20
128.1709006567
 30
0.0
 40
1.375
  0
CIRCLE
  5
B7
330
1F
100
AcDbEntity
  8
0
  6
Continuous
 62
     7
370
    15
100
AcDbCircle
 10
79.7814608023
 20
115.4709006567
 30
0.0
 40
1.375
  0
DIMENSION
  5
B8
330
1F
100
AcDbEntity
  8
FORMAT
100
AcDbDimension
  2
*D5
 10
118.0402108023
 20
58.1738150583
 30
0.0
 11
94.8472322826
 21
58.1738150583
 31
0.0
 70
   160
  1
(<>)
 71
     2
 42
-1.0
  3
SLDDIMSTYLE0
100
AcDbAlignedDimension
 13
73.2727108023
 23
112.2959006567
 33
0.0
 14
118.0402108023
 24
112.2959006567
 34
0.0
100
AcDbRotatedDimension
  0
DIMENSION
  5
D5
330
1F
100
AcDbEntity
  8
FORMAT
100
AcDbDimension
  2
*D6
 10
33.1095091541
 20
112.2959006567
 30
0.0
 11
33.1095091541
 21
132.4117867645
 31
0.0
 70
   160
  1
(<>)
 71
     2
 42
-1.0
  3
SLDDIMSTYLE1
100
AcDbAlignedDimension
 13
73.2727108023
 23
150.3959006567
 33
0.0
 14
73.2727108023
 24
112.2959006567
 34
0.0
 50
90.0
100
AcDbRotatedDimension
  0
DIMENSION
  5
EB
330
1F
100
AcDbEntity
  8
FORMAT
100
AcDbDimension
  2
*D7
 10
111.5314608023
 20
83.4499917177
 30
0.0
 11
95.1080640535
 21
83.4499917177
 31
0.0
 70
   160
  1
(<>)
 71
     2
 42
-1.0
  3
SLDDIMSTYLE1
100
AcDbAlignedDimension
 13
79.7814608023
 23
115.4709006567
 33
0.0
 14
111.5314608023
 24
115.4709006567
 34
0.0
100
AcDbRotatedDimension
  0
DIMENSION
  5
100
330
1F
100
AcDbEntity
  8
FORMAT
100
AcDbDimension
  2
*D8
 10
57.1095091541
 20
128.1709006567
 30
0.0
 11
57.1095091541
 21
83.4499917177
 31
0.0
 70
   160
  1
(<>)
 71
     2
 42
-1.0
  3
SLDDIMSTYLE1
100
AcDbAlignedDimension
 13
79.7814608023
 23
115.4709006567
 33
0.0
 14
79.7814608023
 24
128.1709006567
 34
0.0
 50
90.0
100
AcDbRotatedDimension
  0
DIMENSION
  5
115
330
1F
100
AcDbEntity
  8
FORMAT
100
AcDbDimension
  2
*D9
 10
197.7889566829
 20
112.2959006567
 30
0.0
 11
197.7889566829
 21
94.1738150583
 31
0.0
 70
   160
  1
(<>)
 71
     2
 42
-1.0
  3
SLDDIMSTYLE0
100
AcDbAlignedDimension
 13
111.5314608023
 23
115.4709006567
 33
0.0
 14
118.0402108023
 24
112.2959006567
 34
0.0
 50
90.0
100
AcDbRotatedDimension
  0
DIMENSION
  5
12A
330
1F
100
AcDbEntity
  8
FORMAT
100
AcDbDimension
  2
*D10
 10
167.7889566829
 20
112.2959006567
 30
0.0
 11
167.7889566829
 21
90.2989490985
 31
0.0
 70
   160
  1
(<>)
 71
     2
 42
-1.0
  3
SLDDIMSTYLE0
100
AcDbAlignedDimension
 13
116.4527108023
 23
113.8834006567
 33
0.0
 14
118.0402108023
 24
112.2959006567
 34
0.0
 50
90.0
100
AcDbRotatedDimension
  0
DIMENSION
  5
13F
330
1F
100
AcDbEntity
  8
FORMAT
100
AcDbDimension
  2
*D11
 10
73.2727108023
 20
184.8022755949
 30
0.0
 11
39.1095091541
 21
184.8022755949
 31
0.0
 70
   160
  1
(<>)
 71
     2
 42
-1.0
  3
SLDDIMSTYLE0
100
AcDbAlignedDimension
 13
74.8602108023
 23
148.8084006567
 33
0.0
 14
73.2727108023
 24
150.3959006567
 34
0.0
100
AcDbRotatedDimension
  0
DIMENSION
  5
154
330
1F
100
AcDbEntity
  8
FORMAT
100
AcDbDimension
  2
*D12
 10
62.7117353226
 20
150.3959006567
 30
0.0
 11
62.7117353226
 21
166.8022755949
 31
0.0
 70
   160
  1
(<>)
 71
     2
 42
-1.0
  3
SLDDIMSTYLE0
100
AcDbAlignedDimension
 13
74.8602108023
 23
148.8084006567
 33
0.0
 14
73.2727108023
 24
150.3959006567
 34
0.0
 50
90.0
100
AcDbRotatedDimension
  0
DIMENSION
  5
169
330
1F
100
AcDbEntity
  8
FORMAT
100
AcDbDimension
  2
*D13
 10
111.5314608023
 20
166.8022755949
 30
0.0
 11
103.1217259481
 21
166.8022755949
 31
0.0
 70
   160
  1
(<>)
 71
     2
 42
-1.0
  3
SLDDIMSTYLE0
100
AcDbAlignedDimension
 13
95.6564608023
 23
156.8022755949
 33
0.0
 14
111.5314608023
 24
128.1709006567
 34
0.0
100
AcDbRotatedDimension
  0
DIMENSION
  5
17E
330
1F
100
AcDbEntity
  8
FORMAT
100
AcDbDimension
  2
*D14
 10
115.9363346243
 20
147.5340456658
 30
0.0
 11
176.6409370255
 21
181.5506688123
 31
0.0
 70
   163
  1
<> x %%c 2.50 THRU ALL\PM3x0.5 - 6H THRU ALL\P
 71
     1
 42
-1.0
  3
SLDDIMSTYLE2
100
AcDbDiametricDimension
 15
116.6874272469
 25
149.3876529253
 35
0.0
 40
0.0
  0
DIMENSION
  5
190
330
1F
100
AcDbEntity
  8
FORMAT
100
AcDbDimension
  2
*D15
 10
110.9902251523
 20
127.8583483073
 30
0.0
 11
174.3135530924
 21
148.6671676512
 31
0.0
 70
   163
  1
<> x %%c 5.50 THRU ALL\P{\fGDT;v}%%c 10 {\fGDT;x} 5\P
 71
     1
 42
-1.0
  3
SLDDIMSTYLE2
100
AcDbDiametricDimension
 15
112.7221792324
 25
128.8585158254
 35
0.0
 40
0.0
  0
LINE
  5
1B3
330
1F
100
AcDbEntity
  8
0
  6
HIDDEN
 62
     7
370
     0
100
AcDbLine
 10
111.5314608023
 20
106.8576524698
 30
0.0
 11
111.5314608023
 21
157.168858408
 31
0.0
  0
LINE
  5
1B4
330
1F
100
AcDbEntity
  8
0
  6
Continuous
 62
     7
370
     0
100
AcDbLine
 10
99.5314608023
 20
108.8576524698
 30
0.0
 11
111.5314608023
 21
108.8576524698
 31
0.0
  0
INSERT
  5
1B5
330
1F
100
AcDbEntity
  8
0
  6
Continuous
 62
     7
370
     0
100
AcDbBlockReference
  2
_CLOSED
 10
111.5314608023
 20
108.8576524698
 30
0.0
 41
6.0
 42
6.0
 50
360.0
  0
LINE
  5
1B6
330
1F
100
AcDbEntity
  8
0
  6
Continuous
 62
     7
370
     0
100
AcDbLine
 10
99.5314608023
 20
155.168858408
 30
0.0
 11
111.5314608023
 21
155.168858408
 31
0.0
  0
INSERT
  5
1B7
330
1F
100
AcDbEntity
  8
0
  6
Continuous
 62
     7
370
     0
100
AcDbBlockReference
  2
_CLOSED
 10
111.5314608023
 20
155.168858408
 30
0.0
 41
6.0
 42
6.0
 50
360.0
  0
MTEXT
  5
1B8
330
1F
100
AcDbEntity
  8
0
  6
Continuous
 62
     7
100
AcDbMText
 10
99.5314608023
 20
118.9346732411
 30
0.0
 40
6.35
 41
0.0
 71
     1
 72
     1
  1
A
  7
SLDTEXTSTYLE0
 73
     1
 44
1.0
  0
MTEXT
  5
1B9
330
1F
100
AcDbEntity
  8
0
  6
Continuous
 62
     7
100
AcDbMText
 10
99.5314608023
 20
165.2458791793
 30
0.0
 40
6.35
 41
0.0
 71
     1
 72
     1
  1
A
  7
SLDTEXTSTYLE0
 73
     1
 44
1.0
  0
LINE
  5
1BA
330
1F
100
AcDbEntity
  8
0
  6
HIDDEN
 62
     7
370
     0
100
AcDbLine
 10
70.6533854864
 20
148.8084006567
 30
0.0
 11
120.5231514289
 21
148.8084006567
 31
0.0
  0
LINE
  5
1BB
330
1F
100
AcDbEntity
  8
0
  6
Continuous
 62
     7
370
     0
100
AcDbLine
 10
72.6533854864
 20
160.8084006567
 30
0.0
 11
72.6533854864
 21
148.8084006567
 31
0.0
  0
INSERT
  5
1BC
330
1F
100
AcDbEntity
  8
0
  6
Continuous
 62
     7
370
     0
100
AcDbBlockReference
  2
_CLOSED
 10
72.6533854864
 20
148.8084006567
 30
0.0
 41
6.0
 42
6.0
 50
270.0
  0
LINE
  5
1BD
330
1F
100
AcDbEntity
  8
0
  6
Continuous
 62
     7
370
     0
100
AcDbLine
 10
118.5231514289
 20
160.8084006567
 30
0.0
 11
118.5231514289
 21
148.8084006567
 31
0.0
  0
INSERT
  5
1BE
330
1F
100
AcDbEntity
  8
0
  6
Continuous
 62
     7
370
     0
100
AcDbBlockReference
  2
_CLOSED
 10
118.5231514289
 20
148.8084006567
 30
0.0
 41
6.0
 42
6.0
 50
270.0
  0
MTEXT
  5
1BF
330
1F
100
AcDbEntity
  8
0
  6
Continuous
 62
     7
100
AcDbMText
 10
74.5970954218
 20
160.8084006567
 30
0.0
 40
6.35
 41
0.0
 71
     1
 72
     1
  1
B
  7
SLDTEXTSTYLE0
 73
     1
 44
1.0
  0
MTEXT
  5
1C0
330
1F
100
AcDbEntity
  8
0
  6
Continuous
 62
     7
100
AcDbMText
 10
120.4668613642
 20
160.8084006567
 30
0.0
 40
6.35
 41
0.0
 71
     1
 72
     1
  1
B
  7
SLDTEXTSTYLE0
 73
     1
 44
1.0
  0
LINE
  5
1C1
330
1F
100
AcDbEntity
  8
0
  6
Continuous
 62
     7
370
    15
100
AcDbLine
 10
243.7259479067
 20
114.0959006567
 30
0.0
 11
241.4634479067
 21
114.0959006567
 31
0.0
  0
LINE
  5
1C2
330
1F
100
AcDbEntity
  8
0
  6
Continuous
 62
     7
370
    15
100
AcDbLine
 10
243.7259479067
 20
112.9709006567
 30
0.0
 11
243.7259479067
 21
114.0959006567
 31
0.0
  0
LINE
  5
1C3
330
1F
100
AcDbEntity
  8
0
  6
Continuous
 62
     7
370
    15
100
AcDbLine
 10
246.2259479067
 20
112.9709006567
 30
0.0
 11
243.7259479067
 21
112.9709006567
 31
0.0
  0
LINE
  5
1C4
330
1F
100
AcDbEntity
  8
0
  6
Continuous
 62
     7
370
    15
100
AcDbLine
 10
246.2259479067
 20
112.2959006567
 30
0.0
 11
246.2259479067
 21
112.9709006567
 31
0.0
  0
LINE
  5
1C5
330
1F
100
AcDbEntity
  8
0
  6
Continuous
 62
     7
370
    15
100
AcDbLine
 10
241.4634479067
 20
112.2959006567
 30
0.0
 11
246.2259479067
 21
112.2959006567
 31
0.0
  0
LINE
  5
1C6
330
1F
100
AcDbEntity
  8
0
  6
Continuous
 62
     7
370
    15
100
AcDbLine
 10
241.4634479067
 20
112.2959006567
 30
0.0
 11
241.4634479067
 21
114.0959006567
 31
0.0
  0
LINE
  5
1C7
330
1F
100
AcDbEntity
  8
0
  6
Continuous
 62
     7
370
    15
100
AcDbLine
 10
241.4634479067
 20
114.0959006567
 30
0.0
 11
241.4634479067
 21
116.8459006567
 31
0.0
  0
LINE
  5
1C8
330
1F
100
AcDbEntity
  8
0
  6
Continuous
 62
     7
370
    15
100
AcDbLine
 10
241.4634479067
 20
116.8459006567
 30
0.0
 11
243.7259479067
 21
116.8459006567
 31
0.0
  0
LINE
  5
1C9
330
1F
100
AcDbEntity
  8
0
  6
Continuous
 62
     7
370
    15
100
AcDbLine
 10
243.7259479067
 20
114.0959006567
 30
0.0
 11
243.7259479067
 21
116.8459006567
 31
0.0
  0
LINE
  5
1CA
330
1F
100
AcDbEntity
  8
0
  6
Continuous
 62
     7
370
    15
100
AcDbLine
 10
243.7259479067
 20
130.6709006567
 30
0.0
 11
246.2259479067
 21
130.6709006567
 31
0.0
  0
LINE
  5
1CB
330
1F
100
AcDbEntity
  8
0
  6
Continuous
 62
     7
370
    15
100
AcDbLine
 10
243.7259479067
 20
129.5459006567
 30
0.0
 11
243.7259479067
 21
130.6709006567
 31
0.0
  0
LINE
  5
1CC
330
1F
100
AcDbEntity
  8
0
  6
Continuous
 62
     7
370
    15
100
AcDbLine
 10
241.4634479067
 20
129.5459006567
 30
0.0
 11
243.7259479067
 21
129.5459006567
 31
0.0
  0
LINE
  5
1CD
330
1F
100
AcDbEntity
  8
0
  6
Continuous
 62
     7
370
    15
100
AcDbLine
 10
246.2259479067
 20
150.3959006567
 30
0.0
 11
241.4634479067
 21
150.3959006567
 31
0.0
  0
LINE
  5
1CE
330
1F
100
AcDbEntity
  8
0
  6
Continuous
 62
     7
370
    15
100
AcDbLine
 10
246.2259479067
 20
130.6709006567
 30
0.0
 11
246.2259479067
 21
150.3959006567
 31
0.0
  0
LINE
  5
1CF
330
1F
100
AcDbEntity
  8
0
  6
Continuous
 62
     7
370
    15
100
AcDbLine
 10
241.4634479067
 20
129.5459006567
 30
0.0
 11
241.4634479067
 21
150.3959006567
 31
0.0
  0
LINE
  5
1D0
330
1F
100
AcDbEntity
  8
0
  6
Continuous
 62
     7
370
    15
100
AcDbLine
 10
243.7259479067
 20
126.7959006567
 30
0.0
 11
243.7259479067
 21
129.5459006567
 31
0.0
  0
LINE
  5
1D1
330
1F
100
AcDbEntity
  8
0
  6
Continuous
 62
     7
370
    15
100
AcDbLine
 10
243.7259479067
 20
126.7959006567
 30
0.0
 11
241.4634479067
 21
126.7959006567
 31
0.0
  0
LINE
  5
1D2
330
1F
100
AcDbEntity
  8
0
  6
Continuous
 62
     7
370
    15
100
AcDbLine
 10
241.4634479067
 20
126.7959006567
 30
0.0
 11
241.4634479067
 21
129.5459006567
 31
0.0
  0
LINE
  5
1D3
330
1F
100
AcDbEntity
  8
0
  6
Continuous
 62
     7
370
    15
100
AcDbLine
 10
243.7259479067
 20
125.6709006567
 30
0.0
 11
243.7259479067
 21
126.7959006567
 31
0.0
  0
LINE
  5
1D4
330
1F
100
AcDbEntity
  8
0
  6
Continuous
 62
     7
370
    15
100
AcDbLine
 10
246.2259479067
 20
125.6709006567
 30
0.0
 11
243.7259479067
 21
125.6709006567
 31
0.0
  0
LINE
  5
1D5
330
1F
100
AcDbEntity
  8
0
  6
Continuous
 62
     7
370
    15
100
AcDbLine
 10
246.2259479067
 20
117.9709006567
 30
0.0
 11
246.2259479067
 21
125.6709006567
 31
0.0
  0
LINE
  5
1D6
330
1F
100
AcDbEntity
  8
0
  6
Continuous
 62
     7
370
    15
100
AcDbLine
 10
243.7259479067
 20
117.9709006567
 30
0.0
 11
246.2259479067
 21
117.9709006567
 31
0.0
  0
LINE
  5
1D7
330
1F
100
AcDbEntity
  8
0
  6
Continuous
 62
     7
370
    15
100
AcDbLine
 10
243.7259479067
 20
116.8459006567
 30
0.0
 11
243.7259479067
 21
117.9709006567
 31
0.0
  0
LINE
  5
1D8
330
1F
100
AcDbEntity
  8
0
  6
Continuous
 62
     7
370
    15
100
AcDbLine
 10
241.4634479067
 20
116.8459006567
 30
0.0
 11
241.4634479067
 21
126.7959006567
 31
0.0
  0
LINE
  5
1D9
330
1F
100
AcDbEntity
  8
0
  6
Continuous
 62
     7
370
    15
100
AcDbLine
 10
246.2259479067
 20
112.9709006567
 30
0.0
 11
246.2259479067
 21
117.9709006567
 31
0.0
  0
LINE
  5
1DA
330
1F
100
AcDbEntity
  8
0
  6
Continuous
 62
     7
370
    15
100
AcDbLine
 10
246.2259479067
 20
125.6709006567
 30
0.0
 11
246.2259479067
 21
130.6709006567
 31
0.0
  0
HATCH
  5
1DB
330
1F
100
AcDbEntity
  8
0
  6
Continuous
 62
     7
370
     0
100
AcDbHatch
 10
0.0
 20
0.0
 30
0.0
210
0.0
220
0.0
230
1.0
  2
ANSI31
 70
     0
 71
     0
 91
        1
 92
        0
 93
        6
 72
     1
 10
241.463447906676
 20
114.095900656681
 11
241.463447906676
 21
112.295900656681
 72
     1
 10
241.463447906676
 20
112.295900656681
 11
246.225947906676
 21
112.295900656681
 72
     1
 10
246.225947906676
 20
112.295900656681
 11
246.225947906676
 21
112.970900656681
 72
     1
 10
246.225947906676
 20
112.970900656681
 11
243.725947906676
 21
112.970900656681
 72
     1
 10
243.725947906676
 20
112.970900656681
 11
243.725947906676
 21
114.095900656681
 72
     1
 10
243.725947906676
 20
114.095900656681
 11
241.463447906676
 21
114.095900656681
 97
        0
 75
     0
 76
     1
 52
0.0
 41
1.0
 77
     0
 78
     1
 53
45.0
 43
0.0
 44
0.0
 45
-2.245064030267288
 46
2.245064030267288
 79
     0
 98
        1
 10
0.0
 20
0.0
  0
HATCH
  5
1DC
330
1F
100
AcDbEntity
  8
0
  6
Continuous
 62
     7
370
     0
100
AcDbHatch
 10
0.0
 20
0.0
 30
0.0
210
0.0
220
0.0
230
1.0
  2
ANSI31
 70
     0
 71
     0
 91
        1
 92
        0
 93
        8
 72
     1
 10
241.463447906676
 20
126.795900656681
 11
241.463447906676
 21
116.845900656681
 72
     1
 10
241.463447906676
 20
116.845900656681
 11
243.725947906676
 21
116.845900656681
 72
     1
 10
243.725947906676
 20
116.845900656681
 11
243.725947906676
 21
117.970900656681
 72
     1
 10
243.725947906676
 20
117.970900656681
 11
246.225947906676
 21
117.970900656681
 72
     1
 10
246.225947906676
 20
117.970900656681
 11
246.225947906676
 21
125.670900656681
 72
     1
 10
246.225947906676
 20
125.670900656681
 11
243.725947906676
 21
125.670900656681
 72
     1
 10
243.725947906676
 20
125.670900656681
 11
243.725947906676
 21
126.795900656681
 72
     1
 10
243.725947906676
 20
126.795900656681
 11
241.463447906676
 21
126.795900656681
 97
        0
 75
     0
 76
     1
 52
0.0
 41
1.0
 77
     0
 78
     1
 53
45.0
 43
0.0
 44
0.0
 45
-2.245064030267288
 46
2.245064030267288
 79
     0
 98
        1
 10
0.0
 20
0.0
  0
HATCH
  5
1DD
330
1F
100
AcDbEntity
  8
0
  6
Continuous
 62
     7
370
     0
100
AcDbHatch
 10
0.0
 20
0.0
 30
0.0
210
0.0
220
0.0
230
1.0
  2
ANSI31
 70
     0
 71
     0
 91
        1
 92
        0
 93
        6
 72
     1
 10
246.225947906676
 20
130.670900656681
 11
246.225947906676
 21
150.395900656681
 72
     1
 10
246.225947906676
 20
150.395900656681
 11
241.463447906676
 21
150.395900656681
 72
     1
 10
241.463447906676
 20
150.395900656681
 11
241.463447906676
 21
129.545900656681
 72
     1
 10
241.463447906676
 20
129.545900656681
 11
243.725947906676
 21
129.545900656681
 72
     1
 10
243.725947906676
 20
129.545900656681
 11
243.725947906676
 21
130.670900656681
 72
     1
 10
243.725947906676
 20
130.670900656681
 11
246.225947906676
 21
130.670900656681
 97
        0
 75
     0
 76
     1
 52
0.0
 41
1.0
 77
     0
 78
     1
 53
45.0
 43
0.0
 44
0.0
 45
-2.245064030267288
 46
2.245064030267288
 79
     0
 98
        1
 10
0.0
 20
0.0
  0
DIMENSION
  5
1DE
330
1F
100
AcDbEntity
  8
FORMAT
100
AcDbDimension
  2
*D18
 10
241.4634479067
 20
184.3959006567
 30
0.0
 11
243.8446979067
 21
184.3959006567
 31
0.0
 70
   160
  1
(<>)
 71
     2
 42
-1.0
  3
SLDDIMSTYLE0
100
AcDbAlignedDimension
 13
246.2259479067
 23
150.3959006567
 33
0.0
 14
241.4634479067
 24
150.3959006567
 34
0.0
100
AcDbRotatedDimension
  0
MTEXT
  5
1F3
330
1F
100
AcDbEntity
  8
FORMAT
100
AcDbMText
 10
217.6156683853
 20
105.2855781199
 30
0.0
 40
6.35
 41
0.0
 71
     1
 72
     1
  1
SECTION A-A
  7
SLDTEXTSTYLE0
 73
     1
 44
1.0
  0
LINE
  5
1F4
330
1F
100
AcDbEntity
  8
0
  6
Continuous
 62
     7
370
    15
100
AcDbLine
 10
75.4852108023
 20
203.5511594701
 30
0.0
 11
75.4852108023
 21
198.7886594701
 31
0.0
  0
LINE
  5
1F5
330
1F
100
AcDbEntity
  8
0
  6
Continuous
 62
     7
370
    15
100
AcDbLine
 10
74.2352108023
 20
198.7886594701
 30
0.0
 11
75.4852108023
 21
198.7886594701
 31
0.0
  0
LINE
  5
1F6
330
1F
100
AcDbEntity
  8
0
  6
Continuous
 62
     7
370
    15
100
AcDbLine
 10
74.2352108023
 20
198.7886594701
 30
0.0
 11
74.2352108023
 21
203.5511594701
 31
0.0
  0
LINE
  5
1F7
330
1F
100
AcDbEntity
  8
0
  6
Continuous
 62
     7
370
    15
100
AcDbLine
 10
74.2352108023
 20
203.5511594701
 30
0.0
 11
75.4852108023
 21
203.5511594701
 31
0.0
  0
LINE
  5
1F8
330
1F
100
AcDbEntity
  8
0
  6
Continuous
 62
     7
370
    15
100
AcDbLine
 10
117.0777108023
 20
203.5511594701
 30
0.0
 11
117.0777108023
 21
198.7886594701
 31
0.0
  0
LINE
  5
1F9
330
1F
100
AcDbEntity
  8
0
  6
Continuous
 62
     7
370
    15
100
AcDbLine
 10
115.8277108023
 20
198.7886594701
 30
0.0
 11
117.0777108023
 21
198.7886594701
 31
0.0
  0
LINE
  5
1FA
330
1F
100
AcDbEntity
  8
0
  6
Continuous
 62
     7
370
    15
100
AcDbLine
 10
115.8277108023
 20
198.7886594701
 30
0.0
 11
115.8277108023
 21
203.5511594701
 31
0.0
  0
LINE
  5
1FB
330
1F
100
AcDbEntity
  8
0
  6
Continuous
 62
     7
370
    15
100
AcDbLine
 10
115.8277108023
 20
203.5511594701
 30
0.0
 11
117.0777108023
 21
203.5511594701
 31
0.0
  0
LINE
  5
1FC
330
1F
100
AcDbEntity
  8
0
  6
Continuous
 62
     7
370
    15
100
AcDbLine
 10
118.0402108023
 20
198.7886594701
 30
0.0
 11
118.0402108023
 21
203.5511594701
 31
0.0
  0
LINE
  5
1FD
330
1F
100
AcDbEntity
  8
0
  6
Continuous
 62
     7
370
    15
100
AcDbLine
 10
117.0777108023
 20
198.7886594701
 30
0.0
 11
118.0402108023
 21
198.7886594701
 31
0.0
  0
LINE
  5
1FE
330
1F
100
AcDbEntity
  8
0
  6
Continuous
 62
     7
370
    15
100
AcDbLine
 10
117.0777108023
 20
203.5511594701
 30
0.0
 11
118.0402108023
 21
203.5511594701
 31
0.0
  0
LINE
  5
1FF
330
1F
100
AcDbEntity
  8
0
  6
Continuous
 62
     7
370
    15
100
AcDbLine
 10
75.4852108023
 20
198.7886594701
 30
0.0
 11
115.8277108023
 21
198.7886594701
 31
0.0
  0
LINE
  5
200
330
1F
100
AcDbEntity
  8
0
  6
Continuous
 62
     7
370
    15
100
AcDbLine
 10
75.4852108023
 20
203.5511594701
 30
0.0
 11
115.8277108023
 21
203.5511594701
 31
0.0
  0
LINE
  5
201
330
1F
100
AcDbEntity
  8
0
  6
Continuous
 62
     7
370
    15
100
AcDbLine
 10
73.2727108023
 20
198.7886594701
 30
0.0
 11
74.2352108023
 21
198.7886594701
 31
0.0
  0
LINE
  5
202
330
1F
100
AcDbEntity
  8
0
  6
Continuous
 62
     7
370
    15
100
AcDbLine
 10
73.2727108023
 20
203.5511594701
 30
0.0
 11
73.2727108023
 21
198.7886594701
 31
0.0
  0
LINE
  5
203
330
1F
100
AcDbEntity
  8
0
  6
Continuous
 62
     7
370
    15
100
AcDbLine
 10
73.2727108023
 20
203.5511594701
 30
0.0
 11
74.2352108023
 21
203.5511594701
 31
0.0
  0
HATCH
  5
204
330
1F
100
AcDbEntity
  8
0
  6
Continuous
 62
     7
370
     0
100
AcDbHatch
 10
0.0
 20
0.0
 30
0.0
210
0.0
220
0.0
230
1.0
  2
ANSI31
 70
     0
 71
     0
 91
        1
 92
        0
 93
        4
 72
     1
 10
117.0777108023259
 20
198.7886594701442
 11
118.0402108023259
 21
198.7886594701442
 72
     1
 10
118.0402108023259
 20
198.7886594701442
 11
118.0402108023259
 21
203.5511594701441
 72
     1
 10
118.0402108023259
 20
203.5511594701441
 11
117.0777108023259
 21
203.5511594701441
 72
     1
 10
117.0777108023259
 20
203.5511594701441
 11
117.0777108023259
 21
198.7886594701442
 97
        0
 75
     0
 76
     1
 52
0.0
 41
1.0
 77
     0
 78
     1
 53
45.0
 43
0.0
 44
0.0
 45
-2.245064030267288
 46
2.245064030267288
 79
     0
 98
        1
 10
0.0
 20
0.0
  0
HATCH
  5
205
330
1F
100
AcDbEntity
  8
0
  6
Continuous
 62
     7
370
     0
100
AcDbHatch
 10
0.0
 20
0.0
 30
0.0
210
0.0
220
0.0
230
1.0
  2
ANSI31
 70
     0
 71
     0
 91
        1
 92
        0
 93
        4
 72
     1
 10
115.8277108023259
 20
203.5511594701441
 11
75.48521080232588
 21
203.5511594701441
 72
     1
 10
75.48521080232588
 20
203.5511594701441
 11
75.48521080232587
 21
198.7886594701442
 72
     1
 10
75.48521080232587
 20
198.7886594701442
 11
115.8277108023259
 21
198.7886594701442
 72
     1
 10
115.8277108023259
 20
198.7886594701442
 11
115.8277108023259
 21
203.5511594701441
 97
        0
 75
     0
 76
     1
 52
0.0
 41
1.0
 77
     0
 78
     1
 53
45.0
 43
0.0
 44
0.0
 45
-2.245064030267288
 46
2.245064030267288
 79
     0
 98
        1
 10
0.0
 20
0.0
  0
HATCH
  5
206
330
1F
100
AcDbEntity
  8
0
  6
Continuous
 62
     7
370
     0
100
AcDbHatch
 10
0.0
 20
0.0
 30
0.0
210
0.0
220
0.0
230
1.0
  2
ANSI31
 70
     0
 71
     0
 91
        1
 92
        0
 93
        4
 72
     1
 10
74.23521080232588
 20
203.5511594701441
 11
73.27271080232589
 21
203.5511594701441
 72
     1
 10
73.27271080232589
 20
203.5511594701441
 11
73.27271080232589
 21
198.7886594701442
 72
     1
 10
73.27271080232589
 20
198.7886594701442
 11
74.2352108023259
 21
198.7886594701442
 72
     1
 10
74.2352108023259
 20
198.7886594701442
 11
74.23521080232588
 21
203.5511594701441
 97
        0
 75
     0
 76
     1
 52
0.0
 41
1.0
 77
     0
 78
     1
 53
45.0
 43
0.0
 44
0.0
 45
-2.245064030267288
 46
2.245064030267288
 79
     0
 98
        1
 10
0.0
 20
0.0
  0
MTEXT
  5
207
330
1F
100
AcDbEntity
  8
FORMAT
100
AcDbMText
 10
70.8297236816
 20
195.1120869333
 30
0.0
 40
6.35
 41
0.0
 71
     1
 72
     1
  1
SECTION B-B
  7
SLDTEXTSTYLE0
 73
     1
 44
1.0
  0
ENDSEC
  0
SECTION
  2
OBJECTS
  0
DICTIONARY
  5
C
330
0
100
AcDbDictionary
281
     1
  3
ACAD_GROUP
350
D
  3
ACAD_LAYOUT
350
1A
  3
ACAD_MLEADERSTYLE
350
209
  3
ACAD_MLINESTYLE
350
17
  3
ACAD_PLOTSETTINGS
350
19
  3
ACAD_PLOTSTYLENAME
350
E
  3
ACAD_TABLESTYLE
350
208
  3
ACAD_VISUALSTYLE
350
2A
  3
AcDbVariableDictionary
350
20A
  0
DICTIONARY
  5
D
102
{ACAD_REACTORS
330
C
102
}
330
C
100
AcDbDictionary
281
     1
  0
DICTIONARY
  5
1A
102
{ACAD_REACTORS
330
C
102
}
330
C
100
AcDbDictionary
281
     1
  3
Layout1
350
1E
  3
Layout2
350
26
  3
Model
350
22
  0
DICTIONARY
  5
209
102
{ACAD_REACTORS
330
C
102
}
330
C
100
AcDbDictionary
281
     1
  0
DICTIONARY
  5
17
102
{ACAD_REACTORS
330
C
102
}
330
C
100
AcDbDictionary
281
     1
  3
Standard
350
18
  0
DICTIONARY
  5
19
102
{ACAD_REACTORS
330
C
102
}
330
C
100
AcDbDictionary
281
     1
  0
ACDBDICTIONARYWDFLT
  5
E
102
{ACAD_REACTORS
330
C
102
}
330
C
100
AcDbDictionary
281
     1
  3
Normal
350
F
100
AcDbDictionaryWithDefault
340
F
  0
DICTIONARY
  5
208
102
{ACAD_REACTORS
330
C
102
}
330
C
100
AcDbDictionary
281
     1
  0
DICTIONARY
  5
2A
102
{ACAD_REACTORS
330
C
102
}
330
C
100
AcDbDictionary
281
     1
  3
2dWireframe
350
2F
  3
3D Hidden
350
31
  3
3dWireframe
350
30
  3
Basic
350
32
  3
Brighten
350
36
  3
ColorChange
350
3A
  3
Conceptual
350
34
  3
Dim
350
35
  3
Facepattern
350
39
  3
Flat
350
2B
  3
FlatWithEdges
350
2C
  3
Gouraud
350
2D
  3
GouraudWithEdges
350
2E
  3
Linepattern
350
38
  3
Realistic
350
33
  3
Thicken
350
37
  0
DICTIONARY
  5
20A
102
{ACAD_REACTORS
330
C
102
}
330
C
100
AcDbDictionary
281
     1
  3
PSOLHEIGHT
350
20C
  3
PSOLWIDTH
350
20B
  0
LAYOUT
  5
1E
102
{ACAD_REACTORS
330
1A
102
}
330
1A
100
AcDbPlotSettings
  1

  2
none_device
  4

  6

 40
0.0
 41
0.0
 42
0.0
 43
0.0
 44
0.0
 45
0.0
 46
0.0
 47
0.0
 48
0.0
 49
0.0
140
0.0
141
0.0
142
1.0
143
1.0
 70
   688
 72
     0
 73
     0
 74
     5
  7

 75
    16
147
1.0
148
0.0
149
0.0
100
AcDbLayout
  1
Layout1
 70
     1
 71
     1
 10
0.0
 20
0.0
 11
420.0
 21
297.0
 12
0.0
 22
0.0
 32
0.0
 14
1.0000000000E+20
 24
1.0000000000E+20
 34
1.0000000000E+20
 15
-1.0000000000E+20
 25
-1.0000000000E+20
 35
-1.0000000000E+20
146
0.0
 13
0.0
 23
0.0
 33
0.0
 16
1.0
 26
0.0
 36
0.0
 17
0.0
 27
1.0
 37
0.0
 76
     0
330
1B
  0
LAYOUT
  5
26
102
{ACAD_REACTORS
330
1A
102
}
330
1A
100
AcDbPlotSettings
  1

  2
none_device
  4

  6

 40
0.0
 41
0.0
 42
0.0
 43
0.0
 44
0.0
 45
0.0
 46
0.0
 47
0.0
 48
0.0
 49
0.0
140
0.0
141
0.0
142
1.0
143
1.0
 70
   688
 72
     0
 73
     0
 74
     5
  7

 75
    16
147
1.0
148
0.0
149
0.0
100
AcDbLayout
  1
Layout2
 70
     1
 71
     2
 10
0.0
 20
0.0
 11
0.0
 21
0.0
 12
0.0
 22
0.0
 32
0.0
 14
0.0
 24
0.0
 34
0.0
 15
0.0
 25
0.0
 35
0.0
146
0.0
 13
0.0
 23
0.0
 33
0.0
 16
1.0
 26
0.0
 36
0.0
 17
0.0
 27
1.0
 37
0.0
 76
     0
330
23
  0
LAYOUT
  5
22
102
{ACAD_REACTORS
330
1A
102
}
330
1A
100
AcDbPlotSettings
  1

  2
none_device
  4

  6

 40
0.0
 41
0.0
 42
0.0
 43
0.0
 44
0.0
 45
0.0
 46
0.0
 47
0.0
 48
0.0
 49
0.0
140
0.0
141
0.0
142
1.0
143
1.0
 70
  1712
 72
     0
 73
     0
 74
     0
  7

 75
     0
147
1.0
148
0.0
149
0.0
100
AcDbLayout
  1
Model
 70
     1
 71
     0
 10
0.0
 20
0.0
 11
279.4
 21
215.9
 12
0.0
 22
0.0
 32
0.0
 14
0.0
 24
0.0
 34
0.0
 15
279.4
 25
215.9
 35
0.0
146
0.0
 13
0.0
 23
0.0
 33
0.0
 16
1.0
 26
0.0
 36
0.0
 17
0.0
 27
1.0
 37
0.0
 76
     0
330
1F
331
29
  0
MLINESTYLE
  5
18
102
{ACAD_REACTORS
330
17
102
}
330
17
100
AcDbMlineStyle
  2
Standard
 70
     0
  3

 62
   256
 51
90.0
 52
90.0
 71
     2
 49
0.5
 62
   256
  6
BYLAYER
 49
-0.5
 62
   256
  6
BYLAYER
  0
ACDBPLACEHOLDER
  5
F
102
{ACAD_REACTORS
330
E
102
}
330
E
  0
VISUALSTYLE
  5
2F
102
{ACAD_REACTORS
330
2A
102
}
330
2A
100
AcDbVisualStyle
  2
2dWireframe
 70
     4
 71
     0
 72
     2
 73
     0
 90
        0
 40
-0.6
 41
-30.0
 62
     5
 63
     7
 74
     1
 91
        4
 64
     7
 65
   257
 75
     1
175
     1
 42
1.0
 92
        0
 66
   257
 43
1.0
 76
     1
 77
     6
 78
     2
 67
     7
 79
     5
170
     0
171
     0
290
     0
174
     0
 93
        1
 44
0.0
173
     0
291
     0
 45
0.0
1001
ACAD
1000
AcDbSavedByObjectVersion
1070
     0
  0
VISUALSTYLE
  5
31
102
{ACAD_REACTORS
330
2A
102
}
330
2A
100
AcDbVisualStyle
  2
3D Hidden
 70
     6
 71
     1
 72
     2
 73
     2
 90
        0
 40
-0.6
 41
-30.0
 62
     5
 63
     7
 74
     2
 91
        2
 64
     7
 65
   257
 75
     2
175
     1
 42
40.0
 92
        0
 66
   257
 43
1.0
 76
     1
 77
     6
 78
     2
 67
     7
 79
     3
170
     0
171
     0
290
     0
174
     0
 93
        1
 44
0.0
173
     0
291
     0
 45
0.0
1001
ACAD
1000
AcDbSavedByObjectVersion
1070
     0
  0
VISUALSTYLE
  5
30
102
{ACAD_REACTORS
330
2A
102
}
330
2A
100
AcDbVisualStyle
  2
3dWireframe
 70
     5
 71
     0
 72
     2
 73
     0
 90
        0
 40
-0.6
 41
-30.0
 62
     5
 63
     7
 74
     1
 91
        4
 64
     7
 65
   257
 75
     1
175
     1
 42
1.0
 92
        0
 66
   257
 43
1.0
 76
     1
 77
     6
 78
     2
 67
     7
 79
     5
170
     0
171
     0
290
     0
174
     0
 93
        1
 44
0.0
173
     0
291
     0
 45
0.0
1001
ACAD
1000
AcDbSavedByObjectVersion
1070
     0
  0
VISUALSTYLE
  5
32
102
{ACAD_REACTORS
330
2A
102
}
330
2A
100
AcDbVisualStyle
  2
Basic
 70
     7
 71
     1
 72
     0
 73
     1
 90
        0
 40
-0.6
 41
-30.0
 62
     5
 63
     7
 74
     0
 91
        4
 64
     7
 65
   257
 75
     1
175
     1
 42
1.0
 92
        8
 66
     7
 43
1.0
 76
     1
 77
     6
 78
     2
 67
     7
 79
     5
170
     0
171
     0
290
     0
174
     0
 93
        1
 44
0.0
173
     0
291
     1
 45
0.0
1001
ACAD
1000
AcDbSavedByObjectVersion
1070
     0
  0
VISUALSTYLE
  5
36
102
{ACAD_REACTORS
330
2A
102
}
330
2A
100
AcDbVisualStyle
  2
Brighten
 70
    12
 71
     2
 72
     2
 73
     0
 90
        0
 40
-0.6
 41
-30.0
 62
     5
 63
     7
 74
     1
 91
        4
 64
     7
 65
   257
 75
     1
175
     1
 42
1.0
 92
        8
 66
     7
 43
1.0
 76
     1
 77
     6
 78
     2
 67
     7
 79
     5
170
     0
171
     0
290
     0
174
     0
 93
        1
 44
50.0
173
     0
291
     1
 45
0.0
1001
ACAD
1000
AcDbSavedByObjectVersion
1070
     0
  0
VISUALSTYLE
  5
3A
102
{ACAD_REACTORS
330
2A
102
}
330
2A
100
AcDbVisualStyle
  2
ColorChange
 70
    16
 71
     2
 72
     2
 73
     3
 90
        0
 40
-0.6
 41
-30.0
 62
     5
 63
     8
 74
     1
 91
        4
 64
     7
 65
   257
 75
     1
175
     1
 42
1.0
 92
        8
 66
     8
 43
1.0
 76
     1
 77
     6
 78
     2
 67
     7
 79
     5
170
     0
171
     0
290
     0
174
     0
 93
        1
 44
0.0
173
     0
291
     1
 45
0.0
1001
ACAD
1000
AcDbSavedByObjectVersion
1070
     0
  0
VISUALSTYLE
  5
34
102
{ACAD_REACTORS
330
2A
102
}
330
2A
100
AcDbVisualStyle
  2
Conceptual
 70
     9
 71
     3
 72
     2
 73
     0
 90
        0
 40
-0.6
 41
-30.0
 62
     5
 63
     7
 74
     2
 91
        2
 64
     7
 65
   257
 75
     1
175
     1
 42
40.0
 92
        8
 66
     7
 43
1.0
 76
     1
 77
     6
 78
     2
 67
     7
 79
     3
170
     0
171
     0
290
     0
174
     0
 93
        1
 44
0.0
173
     0
291
     0
 45
0.0
1001
ACAD
1000
AcDbSavedByObjectVersion
1070
     0
  0
VISUALSTYLE
  5
35
102
{ACAD_REACTORS
330
2A
102
}
330
2A
100
AcDbVisualStyle
  2
Dim
 70
    11
 71
     2
 72
     2
 73
     0
 90
        0
 40
-0.6
 41
-30.0
 62
     5
 63
     7
 74
     1
 91
        4
 64
     7
 65
   257
 75
     1
175
     1
 42
1.0
 92
        8
 66
     7
 43
1.0
 76
     1
 77
     6
 78
     2
 67
     7
 79
     5
170
     0
171
     0
290
     0
174
     0
 93
        1
 44
-50.0
173
     0
291
     1
 45
0.0
1001
ACAD
1000
AcDbSavedByObjectVersion
1070
     0
  0
VISUALSTYLE
  5
39
102
{ACAD_REACTORS
330
2A
102
}
330
2A
100
AcDbVisualStyle
  2
Facepattern
 70
    15
 71
     2
 72
     2
 73
     0
 90
        0
 40
-0.6
 41
-30.0
 62
     5
 63
     7
 74
     1
 91
        4
 64
     7
 65
   257
 75
     1
175
     1
 42
1.0
 92
        8
 66
     7
 43
1.0
 76
     1
 77
     6
 78
     2
 67
     7
 79
     5
170
     0
171
     0
290
     0
174
     0
 93
        1
 44
0.0
173
     0
291
     1
 45
0.0
1001
ACAD
1000
AcDbSavedByObjectVersion
1070
     0
  0
VISUALSTYLE
  5
2B
102
{ACAD_REACTORS
330
2A
102
}
330
2A
100
AcDbVisualStyle
  2
Flat
 70
     0
 71
     2
 72
     1
 73
     1
 90
        2
 40
-0.6
 41
30.0
 62
     5
 63
     7
 74
     0
 91
        4
 64
     7
 65
   257
 75
     1
175
     1
 42
1.0
 92
        8
 66
     7
 43
1.0
 76
     1
 77
     6
 78
     2
 67
     7
 79
     5
170
     0
171
     0
290
     0
174
     0
 93
       13
 44
0.0
173
     0
291
     1
 45
0.0
1001
ACAD
1000
AcDbSavedByObjectVersion
1070
     0
  0
VISUALSTYLE
  5
2C
102
{ACAD_REACTORS
330
2A
102
}
330
2A
100
AcDbVisualStyle
  2
FlatWithEdges
 70
     1
 71
     2
 72
     1
 73
     1
 90
        2
 40
-0.6
 41
30.0
 62
     5
 63
     7
 74
     1
 91
        4
 64
     7
 65
   257
 75
     1
175
     1
 42
1.0
 92
        0
 66
   257
 43
1.0
 76
     1
 77
     6
 78
     2
 67
     7
 79
     5
170
     0
171
     0
290
     0
174
     0
 93
       13
 44
0.0
173
     0
291
     1
 45
0.0
1001
ACAD
1000
AcDbSavedByObjectVersion
1070
     0
  0
VISUALSTYLE
  5
2D
102
{ACAD_REACTORS
330
2A
102
}
330
2A
100
AcDbVisualStyle
  2
Gouraud
 70
     2
 71
     2
 72
     2
 73
     1
 90
        2
 40
-0.6
 41
30.0
 62
     5
 63
     7
 74
     0
 91
        4
 64
     7
 65
   257
 75
     1
175
     1
 42
1.0
 92
        0
 66
     7
 43
1.0
 76
     1
 77
     6
 78
     2
 67
     7
 79
     5
170
     0
171
     0
290
     0
174
     0
 93
       13
 44
0.0
173
     0
291
     1
 45
0.0
1001
ACAD
1000
AcDbSavedByObjectVersion
1070
     0
  0
VISUALSTYLE
  5
2E
102
{ACAD_REACTORS
330
2A
102
}
330
2A
100
AcDbVisualStyle
  2
GouraudWithEdges
 70
     3
 71
     2
 72
     2
 73
     1
 90
        2
 40
-0.6
 41
30.0
 62
     5
 63
     7
 74
     1
 91
        4
 64
     7
 65
   257
 75
     1
175
     1
 42
1.0
 92
        0
 66
   257
 43
1.0
 76
     1
 77
     6
 78
     2
 67
     7
 79
     5
170
     0
171
     0
290
     0
174
     0
 93
       13
 44
0.0
173
     0
291
     1
 45
0.0
1001
ACAD
1000
AcDbSavedByObjectVersion
1070
     0
  0
VISUALSTYLE
  5
38
102
{ACAD_REACTORS
330
2A
102
}
330
2A
100
AcDbVisualStyle
  2
Linepattern
 70
    14
 71
     2
 72
     2
 73
     0
 90
        0
 40
-0.6
 41
-30.0
 62
     5
 63
     7
 74
     1
 91
        4
 64
     7
 65
   257
 75
     7
175
     7
 42
1.0
 92
        8
 66
     7
 43
1.0
 76
     1
 77
     6
 78
     2
 67
     7
 79
     5
170
     0
171
     0
290
     0
174
     0
 93
        1
 44
0.0
173
     0
291
     1
 45
0.0
1001
ACAD
1000
AcDbSavedByObjectVersion
1070
     0
  0
VISUALSTYLE
  5
33
102
{ACAD_REACTORS
330
2A
102
}
330
2A
100
AcDbVisualStyle
  2
Realistic
 70
     8
 71
     2
 72
     2
 73
     0
 90
        0
 40
-0.6
 41
-30.0
 62
     5
 63
     7
 74
     1
 91
        0
 64
     7
 65
   257
 75
     1
175
     1
 42
1.0
 92
        8
 66
     8
 43
1.0
 76
     1
 77
     6
 78
     2
 67
     7
 79
     5
170
     0
171
     0
290
     0
174
     0
 93
       13
 44
0.0
173
     0
291
     0
 45
0.0
1001
ACAD
1000
AcDbSavedByObjectVersion
1070
     0
  0
VISUALSTYLE
  5
37
102
{ACAD_REACTORS
330
2A
102
}
330
2A
100
AcDbVisualStyle
  2
Thicken
 70
    13
 71
     2
 72
     2
 73
     0
 90
        0
 40
-0.6
 41
-30.0
 62
     5
 63
     7
 74
     1
 91
        4
 64
     7
 65
   257
 75
     1
175
     1
 42
1.0
 92
       12
 66
     7
 43
1.0
 76
     1
 77
     6
 78
     2
 67
     7
 79
     5
170
     0
171
     0
290
     0
174
     0
 93
        1
 44
0.0
173
     0
291
     1
 45
0.0
1001
ACAD
1000
AcDbSavedByObjectVersion
1070
     0
  0
DICTIONARYVAR
  5
20C
102
{ACAD_REACTORS
330
20A
102
}
330
20A
100
DictionaryVariables
280
     0
  1
80.000000
  0
DICTIONARYVAR
  5
20B
102
{ACAD_REACTORS
330
20A
102
}
330
20A
100
DictionaryVariables
280
     0
  1
5.000000
  0
ENDSEC
  0
EOF
