G75*
G70*
%OFA0B0*%
%FSLAX24Y24*%
%IPPOS*%
%LPD*%
%AMOC8*
5,1,8,0,0,1.08239X$1,22.5*
%
%ADD10R,0.0946X0.0316*%
%ADD11R,0.0867X0.0710*%
%ADD12R,0.0671X0.0592*%
%ADD13C,0.0720*%
%ADD14OC8,0.0720*%
D10*
X002158Y004601D03*
X002158Y005101D03*
X002158Y005601D03*
X002158Y006101D03*
X004205Y006101D03*
X004205Y005601D03*
X004205Y005101D03*
X004205Y004601D03*
D11*
X005681Y003652D03*
X005681Y002550D03*
X002681Y002550D03*
X002681Y003652D03*
D12*
X004181Y003435D03*
X004181Y002766D03*
X005431Y006016D03*
X005431Y006685D03*
X001181Y003435D03*
X001181Y002766D03*
X000931Y005766D03*
X000931Y006435D03*
D13*
X001181Y001421D02*
X001181Y000781D01*
X002181Y000781D02*
X002181Y001421D01*
X004181Y001421D02*
X004181Y000781D01*
X005181Y000781D02*
X005181Y001421D01*
X005181Y008031D02*
X005181Y008671D01*
X004181Y008671D02*
X004181Y008031D01*
X003181Y008031D02*
X003181Y008671D01*
X002181Y008671D02*
X002181Y008031D01*
X001181Y008031D02*
X001181Y008671D01*
D14*
X003181Y007101D03*
X005431Y004851D03*
X000931Y004601D03*
M02*
