G75*
G70*
%OFA0B0*%
%FSLAX24Y24*%
%IPPOS*%
%LPD*%
%AMOC8*
5,1,8,0,0,1.08239X$1,22.5*
%
%ADD10C,0.0640*%
%ADD11OC8,0.0640*%
%ADD12C,0.0160*%
D10*
X001181Y000781D02*
X001181Y001421D01*
X002181Y001421D02*
X002181Y000781D01*
X004181Y000781D02*
X004181Y001421D01*
X005181Y001421D02*
X005181Y000781D01*
X005181Y008031D02*
X005181Y008671D01*
X004181Y008671D02*
X004181Y008031D01*
X003181Y008031D02*
X003181Y008671D01*
X002181Y008671D02*
X002181Y008031D01*
X001181Y008031D02*
X001181Y008671D01*
D11*
X003181Y007101D03*
X005431Y004851D03*
X000931Y004601D03*
D12*
X000431Y000601D02*
X000431Y009101D01*
X000913Y009101D01*
X000898Y009095D01*
X000758Y008954D01*
X000681Y008770D01*
X000681Y008371D01*
X001161Y008371D01*
X001161Y008331D01*
X000681Y008331D01*
X000681Y007931D01*
X000758Y007748D01*
X000898Y007607D01*
X001082Y007531D01*
X001161Y007531D01*
X001161Y008331D01*
X001201Y008331D01*
X001201Y007531D01*
X001281Y007531D01*
X001465Y007607D01*
X001605Y007748D01*
X001681Y007931D01*
X001681Y008331D01*
X001202Y008331D01*
X001202Y008371D01*
X001681Y008371D01*
X001681Y008770D01*
X001605Y008954D01*
X001465Y009095D01*
X001450Y009101D01*
X001965Y009101D01*
X001909Y009078D01*
X001774Y008943D01*
X001701Y008766D01*
X001701Y007935D01*
X001774Y007759D01*
X001909Y007624D01*
X002086Y007551D01*
X002277Y007551D01*
X002453Y007624D01*
X002588Y007759D01*
X002661Y007935D01*
X002661Y008766D01*
X002588Y008943D01*
X002453Y009078D01*
X002398Y009101D01*
X002913Y009101D01*
X002898Y009095D01*
X002758Y008954D01*
X002681Y008770D01*
X002681Y008371D01*
X003161Y008371D01*
X003161Y008331D01*
X002681Y008331D01*
X002681Y007931D01*
X002758Y007748D01*
X002898Y007607D01*
X002956Y007583D01*
X002681Y007308D01*
X002681Y007121D01*
X003161Y007121D01*
X003161Y007081D01*
X002681Y007081D01*
X002681Y006894D01*
X002974Y006601D01*
X000431Y006601D01*
X000431Y006760D02*
X002815Y006760D01*
X002681Y006918D02*
X000431Y006918D01*
X000431Y007077D02*
X002681Y007077D01*
X002681Y007235D02*
X000431Y007235D01*
X000431Y007394D02*
X002767Y007394D01*
X002926Y007552D02*
X002281Y007552D01*
X002082Y007552D02*
X001333Y007552D01*
X001201Y007552D02*
X001161Y007552D01*
X001030Y007552D02*
X000431Y007552D01*
X000431Y007711D02*
X000794Y007711D01*
X000707Y007869D02*
X000431Y007869D01*
X000431Y008028D02*
X000681Y008028D01*
X000681Y008186D02*
X000431Y008186D01*
X000431Y008345D02*
X001161Y008345D01*
X001202Y008345D02*
X001701Y008345D01*
X001701Y008186D02*
X001681Y008186D01*
X001681Y008028D02*
X001701Y008028D01*
X001729Y007869D02*
X001656Y007869D01*
X001569Y007711D02*
X001822Y007711D01*
X001701Y008504D02*
X001681Y008504D01*
X001681Y008662D02*
X001701Y008662D01*
X001724Y008821D02*
X001661Y008821D01*
X001580Y008979D02*
X001811Y008979D01*
X001201Y008186D02*
X001161Y008186D01*
X001161Y008028D02*
X001201Y008028D01*
X001201Y007869D02*
X001161Y007869D01*
X001161Y007711D02*
X001201Y007711D01*
X000681Y008504D02*
X000431Y008504D01*
X000431Y008662D02*
X000681Y008662D01*
X000702Y008821D02*
X000431Y008821D01*
X000431Y008979D02*
X000783Y008979D01*
X000431Y006443D02*
X006181Y006443D01*
X006181Y006601D02*
X003389Y006601D01*
X003681Y006894D01*
X003681Y007081D01*
X003202Y007081D01*
X003202Y007121D01*
X003681Y007121D01*
X003681Y007308D01*
X003406Y007583D01*
X003465Y007607D01*
X003605Y007748D01*
X003681Y007931D01*
X003681Y008331D01*
X003202Y008331D01*
X003202Y008371D01*
X003681Y008371D01*
X003681Y008770D01*
X003605Y008954D01*
X003465Y009095D01*
X003450Y009101D01*
X003965Y009101D01*
X003909Y009078D01*
X003774Y008943D01*
X003701Y008766D01*
X003701Y007935D01*
X003774Y007759D01*
X003909Y007624D01*
X004086Y007551D01*
X004277Y007551D01*
X004453Y007624D01*
X004588Y007759D01*
X004661Y007935D01*
X004661Y008766D01*
X004588Y008943D01*
X004453Y009078D01*
X004398Y009101D01*
X004913Y009101D01*
X004898Y009095D01*
X004758Y008954D01*
X004681Y008770D01*
X004681Y008371D01*
X005161Y008371D01*
X005161Y008331D01*
X004681Y008331D01*
X004681Y007931D01*
X004758Y007748D01*
X004898Y007607D01*
X005082Y007531D01*
X005161Y007531D01*
X005161Y008331D01*
X005201Y008331D01*
X005201Y007531D01*
X005281Y007531D01*
X005465Y007607D01*
X005605Y007748D01*
X005681Y007931D01*
X005681Y008331D01*
X005202Y008331D01*
X005202Y008371D01*
X005681Y008371D01*
X005681Y008770D01*
X005605Y008954D01*
X005465Y009095D01*
X005450Y009101D01*
X006181Y009101D01*
X006181Y000601D01*
X005648Y000601D01*
X005681Y000681D01*
X005681Y001081D01*
X005202Y001081D01*
X005202Y001121D01*
X005681Y001121D01*
X005681Y001520D01*
X005605Y001704D01*
X005465Y001845D01*
X005281Y001921D01*
X005201Y001921D01*
X005201Y001121D01*
X005161Y001121D01*
X005161Y001081D01*
X004681Y001081D01*
X004681Y000681D01*
X004715Y000601D01*
X004626Y000601D01*
X004661Y000685D01*
X004661Y001516D01*
X004588Y001693D01*
X004453Y001828D01*
X004277Y001901D01*
X004086Y001901D01*
X003909Y001828D01*
X003774Y001693D01*
X003701Y001516D01*
X003701Y000685D01*
X003736Y000601D01*
X002648Y000601D01*
X002681Y000681D01*
X002681Y001081D01*
X002202Y001081D01*
X002202Y001121D01*
X002681Y001121D01*
X002681Y001520D01*
X002605Y001704D01*
X002465Y001845D01*
X002281Y001921D01*
X002201Y001921D01*
X002201Y001121D01*
X002161Y001121D01*
X002161Y001081D01*
X001681Y001081D01*
X001681Y000681D01*
X001715Y000601D01*
X001626Y000601D01*
X001661Y000685D01*
X001661Y001516D01*
X001588Y001693D01*
X001453Y001828D01*
X001277Y001901D01*
X001086Y001901D01*
X000909Y001828D01*
X000774Y001693D01*
X000701Y001516D01*
X000701Y000685D01*
X000736Y000601D01*
X000431Y000601D01*
X000431Y000735D02*
X000701Y000735D01*
X000701Y000894D02*
X000431Y000894D01*
X000431Y001052D02*
X000701Y001052D01*
X000701Y001211D02*
X000431Y001211D01*
X000431Y001369D02*
X000701Y001369D01*
X000706Y001528D02*
X000431Y001528D01*
X000431Y001686D02*
X000772Y001686D01*
X000951Y001845D02*
X000431Y001845D01*
X000431Y002003D02*
X006181Y002003D01*
X006181Y001845D02*
X005464Y001845D01*
X005613Y001686D02*
X006181Y001686D01*
X006181Y001528D02*
X005678Y001528D01*
X005681Y001369D02*
X006181Y001369D01*
X006181Y001211D02*
X005681Y001211D01*
X005681Y001052D02*
X006181Y001052D01*
X006181Y000894D02*
X005681Y000894D01*
X005681Y000735D02*
X006181Y000735D01*
X005201Y001211D02*
X005161Y001211D01*
X005161Y001121D02*
X005161Y001921D01*
X005082Y001921D01*
X004898Y001845D01*
X004758Y001704D01*
X004681Y001520D01*
X004681Y001121D01*
X005161Y001121D01*
X005161Y001369D02*
X005201Y001369D01*
X005201Y001528D02*
X005161Y001528D01*
X005161Y001686D02*
X005201Y001686D01*
X005201Y001845D02*
X005161Y001845D01*
X004899Y001845D02*
X004412Y001845D01*
X004591Y001686D02*
X004750Y001686D01*
X004685Y001528D02*
X004657Y001528D01*
X004661Y001369D02*
X004681Y001369D01*
X004681Y001211D02*
X004661Y001211D01*
X004661Y001052D02*
X004681Y001052D01*
X004681Y000894D02*
X004661Y000894D01*
X004661Y000735D02*
X004681Y000735D01*
X003951Y001845D02*
X002464Y001845D01*
X002613Y001686D02*
X003772Y001686D01*
X003706Y001528D02*
X002678Y001528D01*
X002681Y001369D02*
X003701Y001369D01*
X003701Y001211D02*
X002681Y001211D01*
X002681Y001052D02*
X003701Y001052D01*
X003701Y000894D02*
X002681Y000894D01*
X002681Y000735D02*
X003701Y000735D01*
X002201Y001211D02*
X002161Y001211D01*
X002161Y001121D02*
X002161Y001921D01*
X002082Y001921D01*
X001898Y001845D01*
X001758Y001704D01*
X001681Y001520D01*
X001681Y001121D01*
X002161Y001121D01*
X002161Y001369D02*
X002201Y001369D01*
X002201Y001528D02*
X002161Y001528D01*
X002161Y001686D02*
X002201Y001686D01*
X002201Y001845D02*
X002161Y001845D01*
X001899Y001845D02*
X001412Y001845D01*
X001591Y001686D02*
X001750Y001686D01*
X001685Y001528D02*
X001657Y001528D01*
X001661Y001369D02*
X001681Y001369D01*
X001681Y001211D02*
X001661Y001211D01*
X001661Y001052D02*
X001681Y001052D01*
X001681Y000894D02*
X001661Y000894D01*
X001661Y000735D02*
X001681Y000735D01*
X000431Y002162D02*
X006181Y002162D01*
X006181Y002320D02*
X000431Y002320D01*
X000431Y002479D02*
X006181Y002479D01*
X006181Y002637D02*
X000431Y002637D01*
X000431Y002796D02*
X006181Y002796D01*
X006181Y002955D02*
X000431Y002955D01*
X000431Y003113D02*
X006181Y003113D01*
X006181Y003272D02*
X000431Y003272D01*
X000431Y003430D02*
X006181Y003430D01*
X006181Y003589D02*
X000431Y003589D01*
X000431Y003747D02*
X006181Y003747D01*
X006181Y003906D02*
X000431Y003906D01*
X000431Y004064D02*
X006181Y004064D01*
X006181Y004223D02*
X001232Y004223D01*
X001130Y004121D02*
X001411Y004402D01*
X001411Y004800D01*
X001130Y005081D01*
X000733Y005081D01*
X000451Y004800D01*
X000451Y004402D01*
X000733Y004121D01*
X001130Y004121D01*
X001391Y004381D02*
X005222Y004381D01*
X005233Y004371D02*
X005630Y004371D01*
X005911Y004652D01*
X005911Y005050D01*
X005630Y005331D01*
X005233Y005331D01*
X004951Y005050D01*
X004951Y004652D01*
X005233Y004371D01*
X005063Y004540D02*
X001411Y004540D01*
X001411Y004699D02*
X004951Y004699D01*
X004951Y004857D02*
X001354Y004857D01*
X001195Y005016D02*
X004951Y005016D01*
X005076Y005174D02*
X000431Y005174D01*
X000431Y005333D02*
X006181Y005333D01*
X006181Y005174D02*
X005787Y005174D01*
X005911Y005016D02*
X006181Y005016D01*
X006181Y004857D02*
X005911Y004857D01*
X005911Y004699D02*
X006181Y004699D01*
X006181Y004540D02*
X005799Y004540D01*
X005641Y004381D02*
X006181Y004381D01*
X006181Y005491D02*
X000431Y005491D01*
X000431Y005650D02*
X006181Y005650D01*
X006181Y005808D02*
X000431Y005808D01*
X000431Y005967D02*
X006181Y005967D01*
X006181Y006125D02*
X000431Y006125D01*
X000431Y006284D02*
X006181Y006284D01*
X006181Y006760D02*
X003547Y006760D01*
X003681Y006918D02*
X006181Y006918D01*
X006181Y007077D02*
X003681Y007077D01*
X003681Y007235D02*
X006181Y007235D01*
X006181Y007394D02*
X003595Y007394D01*
X003437Y007552D02*
X004082Y007552D01*
X004281Y007552D02*
X005030Y007552D01*
X005161Y007552D02*
X005201Y007552D01*
X005333Y007552D02*
X006181Y007552D01*
X006181Y007711D02*
X005569Y007711D01*
X005656Y007869D02*
X006181Y007869D01*
X006181Y008028D02*
X005681Y008028D01*
X005681Y008186D02*
X006181Y008186D01*
X006181Y008345D02*
X005202Y008345D01*
X005161Y008345D02*
X004661Y008345D01*
X004661Y008186D02*
X004681Y008186D01*
X004681Y008028D02*
X004661Y008028D01*
X004634Y007869D02*
X004707Y007869D01*
X004794Y007711D02*
X004540Y007711D01*
X004661Y008504D02*
X004681Y008504D01*
X004681Y008662D02*
X004661Y008662D01*
X004639Y008821D02*
X004702Y008821D01*
X004783Y008979D02*
X004552Y008979D01*
X005161Y008186D02*
X005201Y008186D01*
X005201Y008028D02*
X005161Y008028D01*
X005161Y007869D02*
X005201Y007869D01*
X005201Y007711D02*
X005161Y007711D01*
X005681Y008504D02*
X006181Y008504D01*
X006181Y008662D02*
X005681Y008662D01*
X005661Y008821D02*
X006181Y008821D01*
X006181Y008979D02*
X005580Y008979D01*
X003811Y008979D02*
X003580Y008979D01*
X003661Y008821D02*
X003724Y008821D01*
X003701Y008662D02*
X003681Y008662D01*
X003681Y008504D02*
X003701Y008504D01*
X003701Y008345D02*
X003202Y008345D01*
X003201Y008331D02*
X003201Y007531D01*
X003201Y007121D01*
X003161Y007121D01*
X003161Y007601D01*
X003161Y008331D01*
X003201Y008331D01*
X003161Y008345D02*
X002661Y008345D01*
X002661Y008186D02*
X002681Y008186D01*
X002681Y008028D02*
X002661Y008028D01*
X002634Y007869D02*
X002707Y007869D01*
X002794Y007711D02*
X002540Y007711D01*
X002661Y008504D02*
X002681Y008504D01*
X002681Y008662D02*
X002661Y008662D01*
X002639Y008821D02*
X002702Y008821D01*
X002783Y008979D02*
X002552Y008979D01*
X003161Y008186D02*
X003201Y008186D01*
X003201Y008028D02*
X003161Y008028D01*
X003161Y007869D02*
X003201Y007869D01*
X003201Y007711D02*
X003161Y007711D01*
X003161Y007552D02*
X003201Y007552D01*
X003201Y007394D02*
X003161Y007394D01*
X003161Y007235D02*
X003201Y007235D01*
X003201Y007081D02*
X003161Y007081D01*
X003161Y006601D01*
X003201Y006601D01*
X003389Y006601D01*
X003201Y006601D02*
X003201Y007081D01*
X003201Y007077D02*
X003161Y007077D01*
X003161Y006918D02*
X003201Y006918D01*
X003201Y006760D02*
X003161Y006760D01*
X003161Y006601D02*
X002974Y006601D01*
X003569Y007711D02*
X003822Y007711D01*
X003729Y007869D02*
X003656Y007869D01*
X003681Y008028D02*
X003701Y008028D01*
X003701Y008186D02*
X003681Y008186D01*
X000667Y005016D02*
X000431Y005016D01*
X000431Y004857D02*
X000509Y004857D01*
X000451Y004699D02*
X000431Y004699D01*
X000431Y004540D02*
X000451Y004540D01*
X000431Y004381D02*
X000472Y004381D01*
X000431Y004223D02*
X000630Y004223D01*
M02*
