G75*
G70*
%OFA0B0*%
%FSLAX24Y24*%
%IPPOS*%
%LPD*%
%AMOC8*
5,1,8,0,0,1.08239X$1,22.5*
%
%ADD10C,0.0000*%
%ADD11R,0.0866X0.0236*%
%ADD12R,0.0787X0.0630*%
%ADD13R,0.0591X0.0512*%
%ADD14C,0.0640*%
%ADD15OC8,0.0640*%
%ADD16C,0.0160*%
%ADD17C,0.0100*%
D10*
X000181Y000101D02*
X000181Y009597D01*
X006551Y009597D01*
X006551Y000101D01*
X000181Y000101D01*
D11*
X002158Y004601D03*
X002158Y005101D03*
X002158Y005601D03*
X002158Y006101D03*
X004205Y006101D03*
X004205Y005601D03*
X004205Y005101D03*
X004205Y004601D03*
D12*
X005681Y003652D03*
X005681Y002550D03*
X002681Y002550D03*
X002681Y003652D03*
D13*
X004181Y003435D03*
X004181Y002766D03*
X005431Y006016D03*
X005431Y006685D03*
X001181Y003435D03*
X001181Y002766D03*
X000931Y005766D03*
X000931Y006435D03*
D14*
X001181Y008031D02*
X001181Y008671D01*
X002181Y008671D02*
X002181Y008031D01*
X003181Y008031D02*
X003181Y008671D01*
X004181Y008671D02*
X004181Y008031D01*
X005181Y008031D02*
X005181Y008671D01*
X005181Y001421D02*
X005181Y000781D01*
X004181Y000781D02*
X004181Y001421D01*
X002181Y001421D02*
X002181Y000781D01*
X001181Y000781D02*
X001181Y001421D01*
D15*
X000931Y004601D03*
X003181Y007101D03*
X005431Y004851D03*
D16*
X005431Y006016D01*
X004205Y006016D01*
X004205Y006101D01*
X004205Y005601D02*
X003431Y005601D01*
X003431Y006351D01*
X004181Y006851D01*
X004181Y008351D01*
X005181Y008351D02*
X005431Y006685D01*
X004205Y005601D02*
X004205Y005101D01*
X004205Y004601D02*
X004205Y003435D01*
X004181Y003435D01*
X005681Y003435D01*
X005681Y003652D01*
X003181Y003652D02*
X003181Y005101D01*
X002158Y005101D01*
X002158Y005601D02*
X002158Y006101D01*
X002181Y008351D01*
X001181Y008351D02*
X000931Y006435D01*
X000931Y005766D02*
X000931Y004601D01*
X002158Y004601D01*
X002681Y003652D02*
X003181Y003652D01*
D17*
X002681Y003652D02*
X002681Y003601D01*
X001181Y003601D01*
X001181Y003435D01*
X001181Y002766D02*
X001181Y001101D01*
X002181Y001101D02*
X002181Y002101D01*
X002681Y002601D01*
X002681Y002550D01*
X004181Y002766D02*
X004181Y001101D01*
X005181Y001101D02*
X005181Y002101D01*
X005681Y002601D01*
X005681Y002550D01*
M02*
