  0
SECTION
  2
BLOCKS
  0
ENDSEC
  0
SECTION
  2
ENTITIES
  0
LINE
  8
0
 10
-18.75
 11
-18.75
 20
-87.75
 21
87.75
  0
LINE
  8
0
 10
-18.75
 11
18.75
 20
87.75
 21
87.75
  0
LINE
  8
0
 10
18.75
 11
18.75
 20
87.75
 21
-87.75
  0
LINE
  8
0
 10
18.75
 11
-18.75
 20
-87.75
 21
-87.75
  0
LINE
  8
0
 10
-16.129
 11
-15.31
 20
-54
 21
-52.582
  0
LINE
  8
0
 10
-15.31
 11
-13.672
 20
-52.582
 21
-52.582
  0
LINE
  8
0
 10
-13.672
 11
-12.853
 20
-52.582
 21
-54
  0
LINE
  8
0
 10
-12.853
 11
-13.672
 20
-54
 21
-55.418
  0
LINE
  8
0
 10
-13.672
 11
-15.31
 20
-55.418
 21
-55.418
  0
LINE
  8
0
 10
-15.31
 11
-16.129
 20
-55.418
 21
-54
  0
LINE
  8
0
 10
-16.129
 11
-15.31
 20
54
 21
55.418
  0
LINE
  8
0
 10
-15.31
 11
-13.672
 20
55.418
 21
55.418
  0
LINE
  8
0
 10
-13.672
 11
-12.853
 20
55.418
 21
54
  0
LINE
  8
0
 10
-12.853
 11
-13.672
 20
54
 21
52.582
  0
LINE
  8
0
 10
-13.672
 11
-15.31
 20
52.582
 21
52.582
  0
LINE
  8
0
 10
-15.31
 11
-16.129
 20
52.582
 21
54
  0
LINE
  8
0
 10
-15.666
 11
-15.666
 20
-75.93
 21
-74.07
  0
LINE
  8
0
 10
-15.666
 11
-14.661
 20
-74.07
 21
-72.506
  0
LINE
  8
0
 10
-14.661
 11
-12.97
 20
-72.506
 21
-71.734
  0
LINE
  8
0
 10
-12.97
 11
-11.129
 20
-71.734
 21
-71.998
  0
LINE
  8
0
 10
-11.129
 11
-9.724
 20
-71.998
 21
-73.216
  0
LINE
  8
0
 10
-9.724
 11
-9.2
 20
-73.216
 21
-75
  0
LINE
  8
0
 10
-9.2
 11
-9.724
 20
-75
 21
-76.784
  0
LINE
  8
0
 10
-9.724
 11
-11.129
 20
-76.784
 21
-78.002
  0
LINE
  8
0
 10
-11.129
 11
-12.97
 20
-78.002
 21
-78.266
  0
LINE
  8
0
 10
-12.97
 11
-14.661
 20
-78.266
 21
-77.494
  0
LINE
  8
0
 10
-14.661
 11
-15.666
 20
-77.494
 21
-75.93
  0
LINE
  8
0
 10
-15.666
 11
-15.666
 20
74.07
 21
75.93
  0
LINE
  8
0
 10
-15.666
 11
-14.661
 20
75.93
 21
77.494
  0
LINE
  8
0
 10
-14.661
 11
-12.97
 20
77.494
 21
78.266
  0
LINE
  8
0
 10
-12.97
 11
-11.129
 20
78.266
 21
78.002
  0
LINE
  8
0
 10
-11.129
 11
-9.724
 20
78.002
 21
76.784
  0
LINE
  8
0
 10
-9.724
 11
-9.2
 20
76.784
 21
75
  0
LINE
  8
0
 10
-9.2
 11
-9.724
 20
75
 21
73.216
  0
LINE
  8
0
 10
-9.724
 11
-11.129
 20
73.216
 21
71.998
  0
LINE
  8
0
 10
-11.129
 11
-12.97
 20
71.998
 21
71.734
  0
LINE
  8
0
 10
-12.97
 11
-14.661
 20
71.734
 21
72.506
  0
LINE
  8
0
 10
-14.661
 11
-15.666
 20
72.506
 21
74.07
  0
LINE
  8
0
 10
9.334
 11
9.334
 20
-75.93
 21
-74.07
  0
LINE
  8
0
 10
9.334
 11
10.339
 20
-74.07
 21
-72.506
  0
LINE
  8
0
 10
10.339
 11
12.03
 20
-72.506
 21
-71.734
  0
LINE
  8
0
 10
12.03
 11
13.871
 20
-71.734
 21
-71.998
  0
LINE
  8
0
 10
13.871
 11
15.276
 20
-71.998
 21
-73.216
  0
LINE
  8
0
 10
15.276
 11
15.8
 20
-73.216
 21
-75
  0
LINE
  8
0
 10
15.8
 11
15.276
 20
-75
 21
-76.784
  0
LINE
  8
0
 10
15.276
 11
13.871
 20
-76.784
 21
-78.002
  0
LINE
  8
0
 10
13.871
 11
12.03
 20
-78.002
 21
-78.266
  0
LINE
  8
0
 10
12.03
 11
10.339
 20
-78.266
 21
-77.494
  0
LINE
  8
0
 10
10.339
 11
9.334
 20
-77.494
 21
-75.93
  0
LINE
  8
0
 10
9.334
 11
9.334
 20
74.07
 21
75.93
  0
LINE
  8
0
 10
9.334
 11
10.339
 20
75.93
 21
77.494
  0
LINE
  8
0
 10
10.339
 11
12.03
 20
77.494
 21
78.266
  0
LINE
  8
0
 10
12.03
 11
13.871
 20
78.266
 21
78.002
  0
LINE
  8
0
 10
13.871
 11
15.276
 20
78.002
 21
76.784
  0
LINE
  8
0
 10
15.276
 11
15.8
 20
76.784
 21
75
  0
LINE
  8
0
 10
15.8
 11
15.276
 20
75
 21
73.216
  0
LINE
  8
0
 10
15.276
 11
13.871
 20
73.216
 21
71.998
  0
LINE
  8
0
 10
13.871
 11
12.03
 20
71.998
 21
71.734
  0
LINE
  8
0
 10
12.03
 11
10.339
 20
71.734
 21
72.506
  0
LINE
  8
0
 10
10.339
 11
9.334
 20
72.506
 21
74.07
  0
LINE
  8
0
 10
12.853
 11
13.672
 20
-54
 21
-52.582
  0
LINE
  8
0
 10
13.672
 11
15.31
 20
-52.582
 21
-52.582
  0
LINE
  8
0
 10
15.31
 11
16.129
 20
-52.582
 21
-54
  0
LINE
  8
0
 10
16.129
 11
15.31
 20
-54
 21
-55.418
  0
LINE
  8
0
 10
15.31
 11
13.672
 20
-55.418
 21
-55.418
  0
LINE
  8
0
 10
13.672
 11
12.853
 20
-55.418
 21
-54
  0
LINE
  8
0
 10
12.853
 11
13.672
 20
54
 21
55.418
  0
LINE
  8
0
 10
13.672
 11
15.31
 20
55.418
 21
55.418
  0
LINE
  8
0
 10
15.31
 11
16.129
 20
55.418
 21
54
  0
LINE
  8
0
 10
16.129
 11
15.31
 20
54
 21
52.582
  0
LINE
  8
0
 10
15.31
 11
13.672
 20
52.582
 21
52.582
  0
LINE
  8
0
 10
13.672
 11
12.853
 20
52.582
 21
54
  0
ENDSEC
  0
SECTION
  2
OBJECTS
  0
DICTIONARY
  0
ENDSEC
  0
EOF
